<?xml version="1.0" encoding="UTF-8" standalone="no"?><!DOCTYPE svg PUBLIC "-//W3C//DTD SVG 1.1//EN" "http://www.w3.org/Graphics/SVG/1.1/DTD/svg11.dtd"><svg width="100%" height="100%" viewBox="0 0 2084 2084" version="1.1" xmlns="http://www.w3.org/2000/svg" xmlns:xlink="http://www.w3.org/1999/xlink" xml:space="preserve" xmlns:serif="http://www.serif.com/" style="fill-rule:evenodd;clip-rule:evenodd;stroke-linejoin:round;stroke-miterlimit:2;"><rect id="calendar-admin" x="0" y="-0" width="2083.333" height="2083.333" style="fill:none;"/><g id="Calendar"><g><path d="M160.747,1793.7c-28.247,0 -51.176,-22.84 -51.286,-51.087c-0.896,-229.94 -4.548,-1167.781 -5.455,-1400.519c-0.054,-13.895 5.428,-27.239 15.234,-37.083c9.806,-9.844 23.129,-15.378 37.023,-15.378c269.56,0 1496.598,0 1765.191,0c28.781,0 52.145,23.273 52.257,52.054c0.903,231.915 4.556,1169.767 5.455,1400.527c0.053,13.636 -5.327,26.733 -14.95,36.394c-9.624,9.661 -22.699,15.092 -36.335,15.092c-267.884,0 -1500.209,0 -1767.133,0Zm2.956,-105.329c0,13.602 5.403,26.647 15.021,36.265c9.618,9.618 22.663,15.021 36.265,15.021c136.774,0 499.892,0 499.892,0l0,-290.468l-551.178,0c-0,-0 -0,155.788 -0,239.182Zm1710.334,51.286c13.602,0 26.647,-5.403 36.265,-15.021c9.618,-9.618 15.021,-22.663 15.021,-36.265c-0,-83.394 -0,-239.182 -0,-239.182l-551.178,0l0,290.468c-0,0 363.117,-0 499.892,-0Zm51.286,-979.491l-551.178,0l0,290.468l551.178,0l-0,-290.468Zm-1761.62,344.511l-0,290.468l551.178,0l-0,-290.468l-551.178,0Zm1756.664,-707.501c-0.5,-28.499 -23.746,-51.34 -52.249,-51.34c-256.443,-0 -1396.476,-0 -1657.09,-0c-14.019,0 -27.449,5.632 -37.274,15.632c-9.825,9.999 -15.221,23.527 -14.975,37.543c1.654,94.172 4.924,280.445 4.924,280.445l1761.62,0c0,-0 -3.314,-188.717 -4.957,-282.28Zm-1151.443,1342.48l551.178,0l0,-290.468l-551.178,0l0,290.468Zm1156.399,-344.511l-0,-290.468l-551.178,0l0,290.468l551.178,0Zm-605.221,-634.98l-551.178,0l0,290.468l551.178,0l0,-290.468Zm0,344.511l-551.178,0l0,290.468l551.178,0l0,-290.468Zm-605.221,-344.511l-551.178,0l0,290.468l551.178,0l-0,-290.468Z" style="fill:#566b8d;"/></g><rect x="424.691" y="740.875" width="60.923" height="1016.952" style="fill:#566b8d;"/><rect x="1011.126" y="740.875" width="60.923" height="1016.952" style="fill:#566b8d;"/><g><path d="M1469.291,1156.506l98.415,170.459l-26.381,15.231l-98.415,-170.459l26.381,-15.231Z" style="fill:#566b8d;"/><path d="M1541.325,1156.506l26.381,15.231l-98.415,170.459l-26.381,-15.231l98.415,-170.459Z" style="fill:#566b8d;"/></g><rect x="1632.075" y="740.875" width="60.923" height="1016.952" style="fill:#566b8d;"/><path d="M438.202,384.523l0,266.54l-123.018,0l0,-266.54l123.018,0Zm-46.594,46.594l-29.831,0l0,173.352l29.831,-0l-0,-173.352Z" style="fill:#566b8d;"/><path d="M597.022,384.523l0,266.54l-123.018,0l0,-266.54l123.018,0Zm-46.594,46.594l-29.831,0l0,173.352l29.831,-0l-0,-173.352Z" style="fill:#566b8d;"/><path d="M864.867,384.523l0,266.54l-123.018,0l0,-266.54l123.018,0Zm-46.594,46.594l-29.831,0l0,173.352l29.831,-0l-0,-173.352Z" style="fill:#566b8d;"/><path d="M1291.532,384.523l0,266.54l-123.018,0l0,-266.54l123.018,0Zm-46.594,46.594l-29.831,0l0,173.352l29.831,-0l-0,-173.352Z" style="fill:#566b8d;"/><path d="M1609.171,384.523l0,266.54l-123.018,0l0,-266.54l123.018,0Zm-46.594,46.594l-29.831,0l0,173.352l29.831,-0l-0,-173.352Z" style="fill:#566b8d;"/><path d="M1023.687,384.523l0,266.54l-123.018,0l0,-266.54l123.018,0Zm-46.594,46.594l-29.831,0l0,173.352l29.831,-0l-0,-173.352Z" style="fill:#566b8d;"/><path d="M1450.352,384.523l0,266.54l-123.018,0l0,-266.54l123.018,0Zm-46.594,46.594l-29.831,0l0,173.352l29.831,-0l-0,-173.352Z" style="fill:#566b8d;"/><path d="M1767.99,384.523l0,266.54l-123.018,0l0,-266.54l123.018,0Zm-46.594,46.594l-29.831,0l0,173.352l29.831,-0l-0,-173.352Z" style="fill:#566b8d;"/><rect x="632.823" y="581.375" width="73.225" height="69.688" style="fill:#566b8d;"/><rect x="1059.488" y="581.375" width="73.225" height="69.688" style="fill:#566b8d;"/><rect x="145.53" y="740.875" width="597.517" height="335.247" style="fill:#566b8d;"/><rect x="1662.537" y="1422.58" width="298.759" height="335.247" style="fill:#566b8d;"/></g></svg>