<?xml version="1.0" encoding="UTF-8" standalone="no"?><!DOCTYPE svg PUBLIC "-//W3C//DTD SVG 1.1//EN" "http://www.w3.org/Graphics/SVG/1.1/DTD/svg11.dtd"><svg width="100%" height="100%" viewBox="0 0 2084 2084" version="1.1" xmlns="http://www.w3.org/2000/svg" xmlns:xlink="http://www.w3.org/1999/xlink" xml:space="preserve" xmlns:serif="http://www.serif.com/" style="fill-rule:evenodd;clip-rule:evenodd;stroke-linejoin:round;stroke-miterlimit:2;"><rect id="counter-admin" x="0" y="0" width="2083.333" height="2083.333" style="fill:none;"/><g id="Counter"><path id="Counter1" serif:id="Counter" d="M104.397,551.392c0.19,-4.683 -1.386,-5.103 1.754,-9.246l0.066,-1.791c0.235,-3.621 -0.03,-3.541 0.926,-7.068l0.86,-2.126c0.285,-2.713 0.251,-2.58 0.955,-5.157c0.447,-0.721 3.602,-5.8 4.393,-9.649l1.114,-5.027c0.817,-1.354 7.503,-12.429 10.525,-16.737c0.114,-0.163 1.186,-1.691 1.323,-2.104c0.612,-2.957 0.105,-3.1 2.004,-5.475c3.827,-5.133 3.045,-6.207 7.346,-7.438c12.143,-10.198 12.694,-12.923 13.003,-14.447c2.842,-3.807 3.438,-2.892 7.211,-5.697c2.415,-1.964 2.493,-1.389 5.485,-1.996c1.63,-0.528 0.707,-1.941 18.393,-10.961c2.514,-1.712 2.516,-1.332 5.477,-1.997c3.832,-0.792 8.931,-3.943 9.653,-4.389c2.539,-0.677 2.394,-0.652 5.158,-0.933l2.168,-0.812c3.609,-0.709 3.426,-0.538 7.059,-0.708c22.342,-1.367 22.365,-1.226 1622.082,-1.225c20.235,0 20.128,0.133 40.367,1.239c3.649,0.188 3.466,0.021 7.055,0.732l2.173,0.775c2.759,0.281 2.614,0.256 5.157,0.935c7.939,4.917 15.489,5.237 22.453,10.127c2.045,0.701 1.867,0.698 3.513,2.125c5.071,3.744 5.031,3.75 11.004,5.528c1.343,1.08 6.739,4.352 9.388,7.105c1.309,1.697 1.292,1.554 1.932,3.631c0.805,0.942 0.812,0.715 10.936,10.968c6.557,1.918 4.606,4.215 8.969,9.438l0.33,1.648l1.672,3.791c1.633,3.533 10.827,17.32 11.992,22.362c1.145,4.953 1.448,4.717 3.699,9.204c0.69,2.576 0.659,2.448 0.991,5.143l0.85,2.134c0.73,2.687 0.674,2.551 0.987,5.233l0.106,3.601c2.238,3.256 1.446,3.431 1.729,7.425c-0.194,29.359 -0.141,29.311 -0.099,366.99c4.743,11.44 1.471,45.465 2.039,139.466c0.341,56.383 0.045,144.218 0.042,157.805c-0.044,196.673 1.135,197.014 -2.074,205.527l0.075,9.175c-0.256,4.54 1.222,4.906 -1.751,9.252l-0.069,1.787c-0.275,3.574 0.002,3.48 -0.971,7.063l-0.754,0.359c-0.417,2.736 -0.396,2.6 -1.081,5.136l-0.712,0.395l-1.087,5.05c-3.419,6.606 -2.479,6.948 -6.399,13.315c-6.374,10.351 -6.948,11.686 -7.415,12.771c-0.258,3.058 0.077,3.091 -1.921,5.572l-1.87,1.797c-1.575,1.962 -1.475,1.787 -1.575,1.962c-0.693,1.204 -0.866,0.915 -1.817,1.92l-0.209,1.704l-1.911,1.774l-3.556,2.009c-1.136,0.982 -1.034,0.949 -9.108,9.115c-0.71,2.122 -0.741,1.924 -2.017,3.553l-1.793,1.895c-2.62,2.163 -2.939,1.431 -5.568,3.613l-1.739,1.92c-2.341,2.055 -2.438,1.757 -5.629,1.878c-0.967,0.413 -3.653,1.562 -11.173,6.924c-1.07,0.763 -1.455,-0.082 -14.908,6.892l-5.054,1.076l-0.392,0.719c-2.59,0.704 -2.452,0.679 -5.116,1.109c-3.196,2.381 -3.405,1.517 -7.443,1.7l-1.789,0.057c-4.098,2.742 -4.409,1.391 -9.259,1.54c-37.376,-0.067 -1619.786,-0.065 -1644.11,-0.001c-5.176,-0.035 -5.517,1.348 -9.276,-1.509l-1.777,-0.082c-4.057,-0.18 -4.265,0.683 -7.439,-1.706c-2.682,-0.424 -2.54,-0.406 -5.056,-1.118c-6.662,-4.03 -14.398,-5.147 -16.745,-6.842c-8.413,-6.075 -13.567,-8.227 -14.84,-8.758c-4.481,-0.14 -4.395,-0.507 -7.404,-3.757c-4.34,-3.294 -5.894,-1.969 -7.462,-7.31c-0.801,-0.945 -0.816,-0.738 -10.959,-10.943c-2.062,-0.636 -1.919,-0.616 -3.632,-1.928c-4.339,-4.133 -3.372,-4.794 -7.116,-9.385c-1.788,-6.024 -1.402,-6.225 -5.529,-11c-1.409,-1.617 -1.414,-1.439 -2.129,-3.517c-5.704,-11.025 -4.494,-11.461 -10.112,-22.457c-0.704,-2.576 -0.669,-2.443 -0.957,-5.155l-0.097,-1.774c-2.269,-3.337 -1.438,-3.503 -1.687,-7.421l-0.067,-1.791c-3.09,-4.133 -1.551,-4.526 -1.75,-9.245c0.196,-26.742 0.214,-843.552 -0.006,-875.282Zm86.722,365.152c1.72,3.564 2.532,3.223 2.403,7.338c-0.034,1.097 -0.668,477.761 0.167,497.412c1.385,4.512 1.066,4.42 1.066,8.979c0.386,1.904 3.178,5.152 3.521,5.551c1.44,1.548 1.452,1.371 2.143,3.478c3.31,4.083 3.178,3.971 7.234,7.196c1.983,0.661 1.844,0.622 3.486,2.138c1.422,0.883 2.882,4.306 10.989,5.403c7.566,-0.65 7.77,-1.418 14.667,1.87l1607.392,-0.001c7.02,-2.863 7.117,-2.159 14.666,-1.879c3.005,-0.397 2.949,-0.162 5.543,-1.644l3.536,-2.073l1.893,-1.699c1.54,-1.42 1.432,-1.442 3.508,-2.114c4.131,-3.282 4.025,-3.195 7.206,-7.208c0.669,-2.067 0.645,-1.928 2.104,-3.517l1.712,-1.884l2.063,-3.541c1.512,-2.563 1.277,-2.505 1.672,-5.535c-0.933,-23.72 -1.02,-839.908 0.032,-871.564c-0.151,-0.97 -0.86,-5.514 -5.423,-11.003l-2.116,-3.486c-0.521,-0.632 -0.555,-0.373 -7.215,-7.265l-3.482,-2.119c-0.457,-0.26 -3.571,-2.03 -5.582,-3.47c-4.76,-0.177 -4.585,-0.199 -9.142,-1.671c-5.665,0.12 -5.572,0.098 -10.979,-1.99l-1607.385,-0c-5.404,2.071 -5.278,2.076 -11.151,2.569c-4.456,1.363 -4.364,1.072 -8.962,1.118c-2.027,0.42 -5.152,3.153 -5.547,3.498c-1.565,1.425 -1.389,1.435 -3.491,2.133c-4.144,3.3 -4.001,3.212 -7.218,7.21c-0.691,2.081 -0.696,1.904 -2.14,3.481l-1.619,1.94l-1.862,3.627c-2.772,16.923 -2.466,16.888 -3.69,20.105l-0,348.62Zm1157.755,280.036c33.662,-39.231 82.84,-63.915 141.741,-68.84c1.412,66.711 12.584,178.861 12.584,178.861c0,0 14.488,-127.799 14.488,-191.698c0,-63.899 -14.488,-191.698 -14.488,-191.698c0,0 -7.572,76.02 -11.036,140.114c-27.376,-2.705 -52.234,-9.926 -74.381,-21.945c-2.971,13.305 -4.527,28.81 -4.527,46.771l-124.324,0c0,-60.54 14.417,-110.809 41.409,-148.581c-24.48,-56.273 -37.431,-132.601 -37.431,-231.086c0,-42.778 2.463,-81.193 7.271,-115.477l133.202,0c-4.13,32.137 -6.203,71.012 -6.203,117.467c0,21.486 0.434,41.359 1.3,59.701c70.479,-11.525 96.664,-48.148 103.132,-110.403l82.572,0c-0.988,-24.898 -2.728,-47.09 -5.224,-66.765l52.659,0c-1.899,28.534 -3.327,57.103 -3.327,78.504c0,63.899 12.73,191.698 12.73,191.698c0,0 14.488,-127.799 14.488,-191.698c0,-21.401 -1.625,-49.969 -3.787,-78.504l51.878,0c2.952,1.068 4.094,1.499 5.659,1.651c4.741,33.342 7.185,70.553 7.185,111.837c0,104.669 -15.708,185.144 -44.738,243.041c16.718,27.891 25.841,62.439 25.841,103.805c0,55.158 -14.993,97.422 -51.896,140.952c26.382,29.937 41.95,68.428 41.95,112.565c0,27.237 -5.387,54.268 -16.161,78.443l-54.676,0c0.772,-14.55 1.243,-28.147 1.243,-39.667c0,-63.899 -14.488,-191.698 -14.488,-191.698c0,0 -12.73,127.799 -12.73,191.698c0,11.52 0.414,25.116 1.092,39.667l-44.303,0c11.929,-15.16 15.698,-33.795 15.698,-53.578c0,-3.956 -0.094,-7.803 -0.283,-11.541l-67.33,0c-25.933,20.372 -47.748,43.329 -62.143,65.119l-150.899,0c7.98,-15.504 17.798,-30.959 29.832,-46.616l-42.581,0c0,-39.167 8.415,-74.413 23.763,-104.404c-0.205,-3.952 -0.318,-7.675 -0.318,-11.077c0,-36.098 12.73,-108.294 12.73,-108.294c0,0 9.025,44.973 12.829,81.677Zm14.498,-572.735c0,0 -12.73,127.799 -12.73,191.698c0,63.899 12.73,191.698 12.73,191.698c0,0 14.488,-127.799 14.488,-191.698c0,-63.899 -14.488,-191.698 -14.488,-191.698Zm75.714,239.812c0.279,1.331 0.563,2.647 0.852,3.948c6.445,-1.568 13.076,-2.886 19.888,-3.948l-20.74,0Zm314.339,-73.347c0,0 7.947,127.799 7.947,191.698c0,63.899 -7.947,191.698 -7.947,191.698c0,0 -6.982,-127.799 -6.982,-191.698c0,-63.899 6.982,-191.698 6.982,-191.698Zm-1435.798,594.985c35.693,-56.784 97.356,-88.419 179.618,-88.419c90.594,0 161.427,28.952 197.504,88.419l-377.122,0Zm312.894,-131.884l-129.297,0l0,-456.519l-135.265,0l0,-89.513c113.384,0 151.178,-37.795 159.135,-114.378l105.427,0l0,660.41Zm516.973,-660.41l0,298.967l43.265,0l0,31.854l31.33,0l0,100.454l-74.595,0l0,144.216l-6.848,0c45.901,34.697 74.978,93.005 74.978,171.043c0,15.882 -1.166,31.156 -3.424,45.76l-128.928,0c2.078,-12.245 3.054,-25.567 3.054,-39.793c0,-68.627 -29.838,-109.405 -90.508,-109.405c-46.746,0 -74.595,19.892 -92.497,56.692l-133.276,0l9.328,-268.513l-17.782,0l0,-112.389l190.075,-318.885l195.828,0Zm-290.078,330.205c0,0 -7.249,62.366 -7.249,93.549c0,31.183 7.249,93.549 7.249,93.549c0,0 8.25,-62.366 8.25,-93.549c0,-31.183 -8.25,-93.549 -8.25,-93.549Zm258.537,196.299c0,0 -7.249,62.366 -7.249,93.549c0,31.183 7.249,93.549 7.249,93.549c0,0 8.25,-62.366 8.25,-93.549c0,-31.183 -8.25,-93.549 -8.25,-93.549Zm-97.756,12.219l0,-107.449l-119.626,0l-5.196,154.135c33.27,-35.171 78.35,-45.813 124.822,-46.686Zm34.597,-519.081c0,0 -7.249,62.366 -7.249,93.549c0,31.183 7.249,93.549 7.249,93.549c0,0 8.25,-62.366 8.25,-93.549c0,-31.183 -8.25,-93.549 -8.25,-93.549Zm-31.613,279.324l0,-200.881l-116.751,200.881l116.751,0Z" style="fill:#586c8d;fill-opacity:1;"/></g></svg>