<?xml version="1.0" encoding="UTF-8" standalone="no"?><!DOCTYPE svg PUBLIC "-//W3C//DTD SVG 1.1//EN" "http://www.w3.org/Graphics/SVG/1.1/DTD/svg11.dtd"><svg width="100%" height="100%" viewBox="0 0 2084 2084" version="1.1" xmlns="http://www.w3.org/2000/svg" xmlns:xlink="http://www.w3.org/1999/xlink" xml:space="preserve" xmlns:serif="http://www.serif.com/" style="fill-rule:evenodd;clip-rule:evenodd;stroke-linejoin:round;stroke-miterlimit:2;"><rect id="district-page" x="0" y="0" width="2083.333" height="2083.333" style="fill:none;"/><clipPath id="_clip1"><rect x="0" y="0" width="2083.333" height="2083.333"/></clipPath><g clip-path="url(#_clip1)"><g id="page"><path d="M1796.35,372.543c8.271,8.293 12.916,19.527 12.916,31.24c0,164.411 0,1387.535 0,1636.72c0,11.733 -4.661,22.985 -12.957,31.281c-8.296,8.296 -19.548,12.957 -31.281,12.957c-223.172,0 -1223.551,0 -1446.723,0c-11.733,-0 -22.985,-4.661 -31.281,-12.957c-8.296,-8.296 -12.957,-19.548 -12.957,-31.281c0,-272.779 0,-1723.487 0,-1996.265c-0,-11.733 4.661,-22.985 12.957,-31.281c8.296,-8.296 19.548,-12.957 31.281,-12.957c193.261,0 959.525,0 1088.117,0c11.753,0 23.022,4.677 31.322,12.998c58.779,58.933 299.926,300.711 358.606,359.545Zm-480.642,-296.991c0,-0 -732.513,-0 -921.851,-0c-11.733,0 -22.985,4.661 -31.281,12.957c-8.296,8.296 -12.957,19.548 -12.957,31.281c-0,259.863 -0,1585.297 -0,1845.161c-0,11.733 4.661,22.985 12.957,31.281c8.296,8.296 19.548,12.957 31.281,12.957c208.033,0 1087.585,0 1295.618,0c24.432,-0 44.238,-19.806 44.238,-44.238c0,-250.136 0,-1476.131 0,-1476.131c0,-0 -266.253,-0 -373.767,0c-24.432,0 -44.238,-19.806 -44.238,-44.238c-0,-106.619 -0,-369.03 -0,-369.03Zm76.77,0l-1.217,-0c-0,-0 0,201.894 0,293.477c0,24.432 19.806,44.238 44.238,44.238l294.695,-0l-337.715,-337.715Z" style="fill:#566b8d;"/></g><g id="District"><path id="District1" serif:id="District" d="M858.774,1421.586c-92.047,-78.326 -160.797,-151.077 -206.249,-218.255c-45.452,-67.177 -68.178,-129.352 -68.178,-186.524c0,-85.758 27.586,-154.079 82.757,-204.962c55.171,-50.883 119.061,-76.325 191.67,-76.325c72.609,0 136.498,25.442 191.67,76.325c55.171,50.883 82.757,119.204 82.757,204.962c0,57.172 -22.726,119.347 -68.178,186.524c-45.452,67.177 -114.201,139.929 -206.249,218.255Zm0,-90.904c69.75,-64.033 121.491,-122.205 155.222,-174.518c33.732,-52.313 50.597,-98.765 50.597,-139.357c0,-62.318 -19.867,-113.344 -59.602,-153.078c-39.735,-39.735 -88.474,-59.602 -146.218,-59.602c-57.744,0 -106.483,19.867 -146.218,59.602c-39.735,39.735 -59.602,90.761 -59.602,153.078c0,40.592 16.866,87.045 50.597,139.357c33.732,52.313 85.472,110.485 155.222,174.518Zm0,-450.794c71.821,0 130.131,58.31 130.131,130.131c0,71.821 -58.31,130.131 -130.131,130.131c-71.821,0 -130.131,-58.31 -130.131,-130.131c0,-71.821 58.31,-130.131 130.131,-130.131Zm341.71,385.969l-36.232,5.166c-21.286,3.035 -41.032,-11.783 -44.067,-33.069c-3.035,-21.286 11.783,-41.032 33.069,-44.067l339.479,-48.404c13.093,-1.867 26.239,3.036 34.912,13.021c8.672,9.985 11.687,23.688 8.005,36.391l-53.151,183.394l74.112,155.387c4.096,8.589 4.908,18.379 2.281,27.525l-59.627,207.61c-3.228,11.241 -11.336,20.436 -22.083,25.047c-10.747,4.611 -22.998,4.15 -33.368,-1.255l-150.887,-78.652l-74.86,165.34c-7.876,17.395 -27.199,26.518 -45.636,21.545l-207.9,-56.079l-239.106,29.152c-9.769,1.191 -19.627,-1.36 -27.593,-7.139l-158.819,-115.233c-14.998,-10.882 -20.256,-30.823 -12.573,-47.685l39.932,-87.641l-26.271,-90.011c-3.447,-11.81 -1.113,-24.553 6.295,-34.375l93.563,-124.04c12.948,-17.166 37.396,-20.59 54.562,-7.642c17.166,12.948 20.59,37.396 7.642,54.562l-26.622,35.294l386.754,57.441l138.189,-241.582Zm275.151,302.972l4.291,-14.941l-74.135,-155.435c-4.11,-8.618 -4.913,-18.445 -2.255,-27.615l40.489,-139.705l-194.675,27.757l-145.689,254.694l371.974,55.246Zm-826.81,-83.414l-28.453,37.721l24.849,85.14c2.616,8.964 1.926,18.57 -1.946,27.068l-32.729,71.832l120.648,87.537l179.277,-21.857l131.058,-229.115l-392.705,-58.325Zm309.893,281.558l3.917,-0.478c4.976,-0.607 10.021,-0.247 14.861,1.058l183.251,49.431l78.183,-172.681c4.416,-9.753 12.651,-17.259 22.771,-20.755c10.12,-3.495 21.232,-2.672 30.726,2.277l145.114,75.642l27.246,-94.865l-381.89,-56.719l-124.179,217.089Z" style="fill:#566b8d;"/></g></g></svg>