<?xml version="1.0" encoding="UTF-8" standalone="no"?><!DOCTYPE svg PUBLIC "-//W3C//DTD SVG 1.1//EN" "http://www.w3.org/Graphics/SVG/1.1/DTD/svg11.dtd"><svg width="100%" height="100%" viewBox="0 0 2084 2084" version="1.1" xmlns="http://www.w3.org/2000/svg" xmlns:xlink="http://www.w3.org/1999/xlink" xml:space="preserve" xmlns:serif="http://www.serif.com/" style="fill-rule:evenodd;clip-rule:evenodd;stroke-linejoin:round;stroke-miterlimit:2;"><rect id="documentlist-element" x="0" y="0" width="2083.333" height="2083.333" style="fill:none;"/><g id="element"><path d="M1784.418,140.539c87.221,0 158.375,71.153 158.375,158.375l0,1485.504c0,87.221 -71.153,158.375 -158.375,158.375l-1485.504,0c-87.221,0 -158.375,-71.153 -158.375,-158.375l0,-1485.504c0,-87.221 71.153,-158.375 158.375,-158.375l1485.504,0m0,-78.039l-1485.504,0c-130.831,0 -236.414,106.042 -236.414,236.414l0,1485.504c0,130.831 106.042,236.415 236.414,236.415l1485.504,0c130.831,0 236.415,-106.042 236.415,-236.415l0,-1485.504c0,-130.831 -105.584,-236.414 -236.415,-236.414Z" style="fill:#566b8d;fill-rule:nonzero;"/></g><g id="DocumentList"><path id="DocumentList1" serif:id="DocumentList" d="M440.337,1544.693c-2.435,-3.597 -1.182,-3.912 -1.366,-7.415c0.128,-28.243 0.085,-980.466 0.022,-993.198c0.244,-2.196 0.202,-2.078 0.757,-4.189c4.828,-10.778 17.092,-20.769 42.01,-45.817c17.567,-17.658 17.567,-17.541 18.975,-19.177c0.676,-2.22 0.722,-2.297 2.986,-2.986c1.467,-1.263 29.501,-29.531 33.874,-33.657c0.748,-0.706 0.592,-0.688 1.34,-1.556c0.689,-2.265 0.766,-2.311 2.986,-2.986c5.926,-5.102 5.91,-5.003 10.698,-11.292c0.931,-1.222 6.979,-6.539 7.603,-7.088c1.993,-1.752 14.251,-13.742 16.912,-16.833c0.689,-2.265 0.766,-2.311 2.986,-2.986c1.468,-1.264 29.491,-29.522 33.874,-33.657c0.748,-0.706 0.592,-0.688 1.34,-1.556c0.689,-2.264 0.765,-2.31 2.986,-2.986c3.07,-2.642 50.129,-49.851 54.469,-54.205c2.646,-2.654 2.842,-2.223 5.874,-4.428c1.403,-1.03 1.333,-1.01 2.971,-1.428c1.517,-0.624 1.449,-0.507 2.948,0.023c6.332,-1.659 698.017,-1.402 709.611,0.051c7.992,1.001 28.501,9.07 30.921,10.022c3.492,0.313 3.382,0.545 5.855,3.095c3.5,2.686 3.594,2.331 6.979,4.959c8.299,6.442 8.306,6.447 9.058,6.967c1.615,1.344 1.534,1.269 3.059,2.78c2.716,2.701 2.719,2.559 4.584,5.767c5.956,7.362 5.798,7.323 11.58,14.805l1.556,1.394c1.611,1.854 1.382,1.928 1.525,4.464c1.212,3.002 7.773,16.379 9.543,31.091c0.587,2.095 0.543,1.972 0.835,4.205l-0.029,5.873c4.255,12.302 -0.895,59.878 2.684,66.154c10.086,2.511 10.16,-0.042 24.986,-0.233c2.469,-0.032 27.54,-0.354 30.861,0.156c6.467,0.994 6.406,1.229 19.104,1.356c3.191,0.148 3.342,-0.576 5.935,1.361l1.436,0.036c2.118,0.228 2.013,0.183 4.174,0.753c9.706,3.36 20.813,9.01 22.278,9.66c1.736,0.382 1.595,0.375 3.02,1.351l1.329,0.257c1.569,1.417 1.457,1.306 2.979,2.884c2.198,1.692 9.559,7.966 10.383,8.668c5.152,1.541 5.333,4.708 6.047,5.845c1.742,2.162 7.702,7.39 11.766,14.724c2.154,3.887 3.75,5.587 4.15,6.013c1.162,1.297 1.139,1.227 1.704,2.836c2.425,3.348 2.542,3.306 2.779,7.457c7.483,17.497 7.595,35.102 7.615,38.22c0.107,16.737 -0.154,1074.7 0.132,1106.24c2.095,5.541 1.923,17.099 -0.002,22.181c-0.046,2.82 1.761,19.438 -7.701,42.577c-0.507,3.45 -0.464,3.475 -2.753,6.03c-0.601,0.858 -0.092,1.063 -6.711,11.251c-2.034,3.131 -2.253,2.869 -3.78,6.246c-0.456,1.739 -0.427,1.665 -1.503,2.981l-2.839,1.629c-3.988,3.509 -2.803,4.655 -7.313,7.401c-0.137,0.083 0,-0 -1.441,1.386l-1.676,2.77c-1.296,1.096 -1.183,1.088 -2.89,1.582c-4.049,2.35 -6.912,5.185 -7.446,5.713c-1.253,1.11 -1.113,1.121 -2.811,1.711c-0.376,0.192 -2.927,1.496 -4.509,2.737c-1.921,1.62 -1.985,1.182 -4.34,1.672c-1.341,0.317 -0.872,1.148 -16.048,6.254c-5.847,1.967 -5.877,1.522 -11.884,2.733c-2.922,1.232 -2.864,1.069 -5.955,1.327l-11.711,0.073c-2.79,1.948 -3.269,1.279 -467.259,1.279c-363.318,0 -363.539,0.156 -365.877,-1.311l-11.719,-0.062c-2.206,-0.283 -2.088,-0.239 -4.208,-0.82c-3.924,-0.471 -27.093,-3.25 -45.898,-18.288l-2.738,-1.766c-1.945,-1.877 -1.926,-1.669 -4.398,-2.967c-1.589,-1.331 -1.523,-1.266 -3.054,-2.799l-1.467,-1.472c-2.663,-2.69 -2.673,-2.55 -4.507,-5.825c-4.037,-4.762 -4.366,-4.322 -8.15,-9.252c-2.02,-2.633 -1.331,-2.907 -3.503,-5.501c-1.236,-1.232 -1.309,-1.095 -1.566,-2.944c-2.484,-5.591 -6.065,-11.134 -6.663,-12.06l-0.89,-4.035l-0.58,-0.324c-0.57,-2.122 -0.541,-2.016 -0.849,-4.104l-0.652,-0.29c-0.553,-2.101 -0.52,-2.006 -0.733,-4.18c-1.476,-4.316 -1.253,-4.292 -1.375,-8.845c-1.363,-36.756 -1.476,-36.647 -1.537,-73.466c-0.011,-6.374 -4.054,-2.766 -70.307,-4.235c-3.218,-0.185 -3.356,0.463 -5.934,-1.349l-2.89,-0.073c-2.896,-0.173 -2.826,0.055 -5.669,-0.724c-8.108,-3.661 -8.622,-2.062 -21.973,-8.869c-0.933,-0.476 -0.864,-0.366 -1.773,-0.75c-3.555,-0.207 -3.441,-0.489 -5.864,-3.054c-2.642,-1.513 -5.554,-3.814 -6.014,-4.178l-2.779,-1.732c-2.227,-2.267 -2.378,-1.986 -4.489,-4.278c-3.737,-1.048 -3.181,-1.837 -5.852,-4.481l-1.472,-1.468c-1.938,-1.951 -2.259,-1.701 -3.045,-4.36c-4.212,-5.253 -4.087,-5.2 -8.136,-10.713c-1.684,-2.292 -1.748,-2.465 -1.84,-2.71c-0.091,-0.243 -0.516,-1.38 -1.715,-2.755c-0.546,-0.538 -1.435,-0.081 -1.736,-4.348c-5.647,-11.549 -5.279,-11.619 -9.363,-23.868c-0.579,-2.152 -0.535,-2.044 -0.798,-4.187l-0.094,-2.885Zm55.002,8.596l2.622,3.099l0.277,1.312l1.456,2.93c3.189,4.07 3.41,3.74 7.12,7.484c1.172,1.183 1.36,0.713 2.902,1.522c1.621,1.388 1.511,1.282 3.006,2.849c8.254,7.882 22.829,8.633 24.94,8.742c23.143,-0.357 834.683,-0.088 841.842,0.008c10.025,-0.448 10.416,0.712 18.971,-4.569c1.852,-1.143 6.151,-2.95 8.932,-5.621l2.784,-1.696c4.939,-3.987 8.095,-7.965 8.708,-8.738c0.21,-2.406 -0.052,-2.441 1.591,-4.376c1.162,-1.061 0.999,-1.057 2.579,-1.635c2.059,-9.381 7.855,-8.341 7.64,-37.898c-0.986,-135.642 1.025,-1116.335 -1.078,-1123.982c-0.64,-2.328 0.167,-2.886 -1.541,-7.338c-0.508,-1.324 -5.507,-14.36 -7.523,-16.051c-2.922,-2.452 -1.799,-3.255 -4.409,-5.872c-20.043,-20.096 -31.169,-17.586 -82.198,-17.586c-49.358,0.001 -616.036,0.012 -616.978,0.167c-1.602,0.263 -1.329,1.168 -1.329,55.543c0,42.082 -0.12,41.968 0.039,67.588c0.005,4.912 0.989,6.924 -1.396,10.339l-0.063,5.835c-0.278,2.183 -0.233,2.069 -0.82,4.2l-0.662,3.157c-0.26,2.126 -0.225,2.018 -0.793,4.132c-3.048,6.656 -8.016,18.558 -8.178,19.376c-0.385,1.716 -0.389,1.63 -1.331,3.034c-5.836,6.892 -4.609,7.616 -10.357,14.681c-1.1,3.758 -1.956,3.135 -4.559,5.78l-1.461,1.478l-1.469,1.469l-1.478,1.461c-1.481,1.457 -2.713,2.694 -2.948,2.93c-1.294,1.123 -1.152,1.131 -2.826,1.638c-5.728,4.721 -6.019,4.194 -11.829,8.698l-1.438,1.499c-1.845,1.619 -1.922,1.391 -4.43,1.578c-8.63,3.414 -16.524,7.384 -17.93,8.091c-2.053,0.543 -1.943,0.52 -4.117,0.791l-1.708,0.678c-2.133,0.579 -2.02,0.534 -4.191,0.793l-2.888,0.067c-3.507,2.526 -3.82,1.224 -7.411,1.396c-10.555,-0.092 -129.866,-1.136 -131.945,0.237c-1.318,0.871 -1.179,1.497 -1.179,876.61c0,83.22 -0.936,83.594 4.209,98.304c0.172,0.492 1.288,3.682 2.844,5.865Zm147.877,-272.989c-8.529,-13.215 -3.617,-26.846 -1.102,-30.899l1.315,-1.573c1.919,-1.963 1.952,-1.793 4.256,-3.205c1.464,-0.458 4.382,-3.532 10.362,-4.452c1.391,-0.993 1.221,-1.207 2.987,-1.414c0.31,-0.036 420.253,-0.034 449.606,-0.001l141.052,0.001c7.136,0.23 7.369,-0.746 10.365,1.404c6.622,1.054 12.29,6.804 13.145,7.671c1.544,1.535 1.437,1.423 2.801,3.014c0.981,3.01 6.614,15.842 -1.428,29.257c-1.072,1.288 -0.992,1.272 -2.571,1.844c-0.319,0.199 -0.008,0.88 -0.327,1.079c-0.222,0.138 -0.211,0.118 -2.853,1.59c-1.338,1.105 -1.224,1.086 -2.873,1.624c-1.996,1.332 -2,1.041 -4.454,1.497c-8.256,2.513 -8.45,1.565 -204.274,1.565l-238.01,0.089c-150.198,0 -150.195,0.247 -170.391,-1.956l-3.135,-2.602c-1.623,-0.53 -1.551,-0.509 -2.877,-1.633c-1.072,-1.303 -1.066,-1.189 -1.594,-2.901Zm240.86,-724.379c-1.211,-4.18 -4.347,-12.506 3.35,-24.983c1.786,-2.146 1.567,-2.378 4.141,-3.272l1.597,-1.253c2.897,-3.149 3.097,-2.943 7.364,-3.031c20.403,-1.09 20.409,-0.566 22.163,-0.829c9.503,-1.426 9.436,0.274 18.995,0.289c21.16,0.033 242.251,0.376 264.5,-0.129c27.921,-0.634 27.828,-0.206 55.791,0.717c3.231,0.131 3.407,-0.542 5.957,1.364c1.73,0.471 1.592,0.463 2.994,1.413l1.293,0.309l1.577,1.338c1.918,1.937 2.24,1.675 3.061,4.37c0.121,0.186 5.188,10.729 4.038,16.235c-2.286,10.936 -2.045,11.36 -10.078,19.182c-1.322,1.128 -1.174,1.105 -2.832,1.71c-1.363,0.244 -2.747,1.314 -2.956,1.476c-2.64,1.932 -2.766,1.224 -5.989,1.375l-10.295,-0.031l-8.808,0.001c-7.146,2.748 -10.246,2.83 -17.645,0.004l-318.817,0.065c-3.224,-0.185 -3.379,0.498 -5.987,-1.433c-1.682,-0.603 -1.567,-0.588 -2.861,-1.677c-3.008,-2.286 -3.25,-1.839 -5.857,-4.445c-0.237,-0.234 -1.476,-1.463 -2.995,-2.891c-0.65,-0.741 -1.435,-0.479 -1.703,-5.874Zm-242.252,292.344c-0.426,-2.519 -0.381,-2.515 -0.461,-2.721c-5.03,-12.965 -3.773,-13.423 0.748,-26.628l2.613,-1.795c8.431,-7.011 10.258,-7.075 16.513,-8.009c5.019,-1.319 4.984,-0.676 7.175,-0.822l55.839,0.007c527.538,0.356 527.741,-0.323 531.933,1.158c9.602,0.541 9.519,1.134 17.545,6.435c2.738,2.27 3.653,1.655 4.507,5.85c1.999,6.81 4.8,11.823 0.085,23.595c-0.426,2.426 0.022,2.558 -1.549,4.447l-1.501,1.446c-1.509,1.484 -1.447,1.429 -3.08,2.744c-4.429,1.483 -4.306,1.369 -8.577,3.47c-3.427,1.685 -3.56,1.473 -379.224,1.473c-223.059,-0 -223.586,0.933 -236.604,-4.675c-2.798,-0.729 -2.533,-1.016 -4.491,-2.948c-1.088,-1.372 -1.029,-1.303 -1.47,-3.029Zm0.302,574.323c-3.029,-8.652 -4.134,-8.466 -3.604,-17.575c0.399,-6.863 2.887,-6.272 3.445,-13.195c1.201,-1.192 1.127,-1.187 2.786,-1.67c11.081,-9.097 12.402,-7.478 69.21,-7.477c304.461,0.006 304.878,-0.299 308.432,1.994c3.505,2.261 2.726,3.153 6.387,5.197c1.112,0.621 1.258,-0.025 2.317,0.697c0.629,0.429 -0.192,0.752 0.376,1.14c1.399,1.578 1.318,1.485 2.714,3.095l0.304,1.312c1.382,2.011 1.007,2.082 1.382,4.506c0.042,0.68 2.173,13.281 -2.853,20.733c-0.881,2.657 -1.195,2.405 -3.126,4.326l-1.61,1.262c-0.44,0.162 -11.081,6.065 -20.481,6.203c-0.174,0.003 -332.163,0.101 -333.519,-0.092c-18.446,-2.629 -19.805,0.562 -29.408,-7.398c-1.539,-1.529 -1.436,-1.417 -2.752,-3.057Zm0.009,-716.972c-0.75,-2.173 -5.304,-11.307 -3.271,-21.983c1.04,-5.461 6.69,-10.97 7.488,-11.748c2.667,-2.601 4.659,-2.553 7.328,-4.447c1.897,-1.594 1.965,-1.353 4.43,-1.623l8.829,0.012c7.448,-2.661 48.185,-2.725 55.848,-0.003l536.258,-0.032c2.858,0.212 2.796,-0.009 5.617,0.774c6.64,4.086 6.78,3.832 12.071,9.692c1.243,1.254 1.303,1.128 1.57,2.953c5.437,13.401 0.47,21.266 0.15,22.227c-1.505,4.517 -1.738,4.308 -6.152,8.723c-1.476,1.497 -1.4,1.43 -3.026,2.806c-8.094,1.083 -7.853,2.051 -16.111,2.179c-0.651,0.01 -584.646,0.004 -584.75,0.003c-1.561,-0.018 -14.287,-0.162 -19.227,-3.332c-1.706,-0.571 -1.566,-0.583 -2.845,-1.662l-1.474,-1.468c-1.454,-1.483 -1.398,-1.414 -2.733,-3.07Zm-0.373,285.183c-2.009,-5.023 -6.55,-12.395 0.058,-28.044c0.443,-1.722 0.385,-1.653 1.464,-3.029l1.473,-1.482c1.997,-1.591 2.064,-1.127 4.416,-1.595c0.605,-0.197 0.473,-0.265 7.321,-3.105c3.708,-1.537 3.799,-1.374 567.28,-1.374c30.122,0 30.386,-1.001 48.427,4.87c1.658,1.326 1.544,1.224 3.091,2.745l1.503,1.444c1.597,1.9 1.359,1.987 1.508,4.477c1.8,4.423 5.42,11.211 -0.064,23.595c-1.129,5.242 -2.793,3.908 -4.172,4.768c-0.954,0.846 -7.549,6.694 -13.597,8.319c-4.24,1.139 -550.105,0.432 -597.94,0.37c-2.407,-0.321 -2.307,-0.403 -4.514,-1.246c-9.032,-1.87 -11.512,-5.328 -13.117,-6.359c-2.202,-1.802 -2.741,-1.436 -3.136,-4.353Zm1.479,145.504c-9.428,-13.87 -2.635,-26.427 -1.135,-30.9l1.269,-1.607c1.505,-1.531 1.448,-1.475 3.041,-2.819l2.866,-1.575c1.916,-1.601 1.978,-1.155 4.397,-1.615c6.813,-2.094 7.024,-1.778 367.346,-1.778c242.479,-0 243.136,-0.481 249.716,3.519c1.636,1.398 1.554,1.325 3.031,2.815l1.465,1.476c1.531,1.511 1.458,1.435 2.799,3.029c5.107,16.39 1.51,21.808 0.333,24.995c-0.459,2.414 -0.045,2.54 -1.642,4.394l-1.512,1.432c-1.536,1.527 -1.424,1.423 -3.034,2.805c-5.229,3.243 -5.326,2.822 -5.749,3.131c-5.232,4.472 -17.118,3.145 -25.025,3.095c-18.403,-0.059 -18.266,-0.035 -36.735,0.002c-43.136,0.148 -421.507,1.441 -539.199,0.124c-2.469,-0.028 -2.448,-0.046 -4.459,-1.532l-2.899,-0.069c-2.098,-0.243 -2.01,-0.199 -4.133,-0.774c-3.96,-2.003 -7.221,-4.58 -7.804,-5.041c-1.426,-1.008 -2.052,-0.403 -2.936,-3.107Zm-2.755,-623.084c1.304,-1.101 1.145,-1.093 2.831,-1.649c2.425,-1.931 3.185,-1.051 11.668,-11.682c0.556,-1.691 0.563,-1.552 1.656,-2.824c6.485,-8.552 10.061,-25.678 9.495,-35.288c-3.299,-56.017 3.038,-74.833 -1.024,-80.063c-0.371,-0.478 -0.364,0.154 -5.436,5.251c-30.412,30.562 -29.917,31.008 -34.852,34.226c-3.612,2.355 -2.108,3.683 -5.406,6.321c-1.363,1.09 -2.068,1.654 -15.638,15.216c-2.072,2.354 -1.95,2.251 -4.41,4.406c-0.707,0.704 -4.416,4.399 -8.815,8.815c-2.154,2.46 -2.052,2.338 -4.406,4.41c-1.157,1.158 -0.888,1.283 -1.999,2.411c-5.111,5.188 -5.169,5.009 -10.292,10.291c-5.862,6.045 -39.581,38.196 -43.673,44.501c-1.17,1.243 -1.028,1.257 -2.606,1.747c-1.589,1.146 -2.738,1.002 -1.596,2.7c1.507,2.24 2.131,0.892 7.268,0.836c78.639,-0.864 82.002,4.118 107.234,-9.625Zm12.021,1163.626l0,10.283l-0.087,7.334c1.886,4.977 1.357,4.968 1.402,10.288c0.172,1.406 1.163,9.488 7.275,16.149c0.242,0.229 1.511,1.429 3.034,2.85c1.093,1.309 1.06,1.236 1.554,2.906c0.615,0.77 4.655,5.836 8.79,8.632c3.42,0.76 3.351,0.787 5.743,3.197c11.661,8.283 20.225,7.007 130.71,7.007c728.393,0 728.459,0.138 737.517,-1.184c5.392,-0.787 5.213,-0.977 10.269,-2.873c1.835,-1.514 1.865,-1.175 4.286,-1.782c0.153,-0.034 -0.175,-0.339 1.58,-1.164c1.294,-1.11 1.217,-1.094 2.857,-1.639c1.118,-0.551 5.388,-3.509 7.464,-5.652c1.452,-1.508 1.375,-1.429 2.903,-2.973l1.48,-1.457c3.68,-2.862 5.494,-6.673 5.816,-7.35c0.374,-1.724 0.384,-1.635 1.321,-3.019c0.472,-1.676 0.436,-1.564 1.431,-2.948c6.926,-9.139 5.622,-30.936 5.622,-110.064c-0,-1046.19 0.184,-1046.288 -1.513,-1051.807c-1.279,-4.159 -1.094,-4.116 -3.331,-7.723l-0.84,-4.039c-0.263,-1.603 -6.393,-10.965 -10.53,-15.701c-0.164,-0.187 -0.22,0.06 -2.511,-1.83c-2.678,-0.875 -2.345,-1.197 -4.283,-3.121c-9.214,-5.26 -8.714,-6.194 -19.074,-8.759c-5.257,-0.082 -5.252,0.442 -10.284,-1.438c-29.419,0.055 -29.311,0.063 -58.738,-0.053c-1.273,2.128 -1.136,2.315 -1.136,387.789l-0,405.498c0,229.987 0.129,230.095 -1.581,235.09l0.025,5.874c-0.271,2.194 -0.226,2.078 -0.813,4.199c-2.05,12.837 -5.799,16.92 -9.623,28.14c-0.403,1.77 -0.403,1.632 -1.349,3.024c-0.054,0.063 -5.239,8.842 -10.458,14.625c-5.969,6.612 -5.373,6.951 -11.832,13.152c-2.014,1.977 -1.984,1.769 -4.237,3.179c-3.617,3.027 -3.664,2.833 -7.453,5.714c-2.931,2.887 -2.219,4.55 -8.702,4.695c-9.411,4.843 -9.362,4.756 -19.209,8.658c-0.953,0.378 -0.83,0.375 -1.714,0.774c-2.106,0.548 -2.009,0.515 -4.175,0.735l-1.434,0.049c-2.607,1.93 -2.761,1.209 -5.938,1.363c-53.431,1.061 -737.732,-0.554 -739.258,0.942c-1.201,1.177 -0.975,1.486 -0.975,44.431Z" style="fill:#566b8d;fill-opacity:1;"/></g></svg>