<?xml version="1.0" encoding="UTF-8" standalone="no"?><!DOCTYPE svg PUBLIC "-//W3C//DTD SVG 1.1//EN" "http://www.w3.org/Graphics/SVG/1.1/DTD/svg11.dtd"><svg width="100%" height="100%" viewBox="0 0 2084 2084" version="1.1" xmlns="http://www.w3.org/2000/svg" xmlns:xlink="http://www.w3.org/1999/xlink" xml:space="preserve" xmlns:serif="http://www.serif.com/" style="fill-rule:evenodd;clip-rule:evenodd;stroke-linejoin:round;stroke-miterlimit:2;"><rect id="documentlist-admin" x="0" y="0" width="2083.333" height="2083.333" style="fill:none;"/><g id="DocumentList"><path id="DocumentList1" serif:id="DocumentList" d="M290.005,1664.868c-3.043,-4.496 -1.478,-4.89 -1.708,-9.269c0.16,-35.304 0.107,-1225.582 0.027,-1241.497c0.305,-2.745 0.252,-2.598 0.947,-5.236c6.035,-13.473 21.365,-25.961 52.512,-57.271c21.958,-22.073 21.959,-21.927 23.718,-23.971c0.845,-2.776 0.902,-2.871 3.732,-3.732c1.833,-1.578 36.876,-36.914 42.342,-42.072c0.935,-0.882 0.74,-0.86 1.674,-1.945c0.861,-2.831 0.958,-2.888 3.732,-3.732c7.407,-6.377 7.388,-6.254 13.373,-14.115c1.163,-1.528 8.723,-8.174 9.504,-8.86c2.491,-2.189 17.813,-17.177 21.14,-21.042c0.861,-2.831 0.958,-2.888 3.732,-3.732c1.835,-1.58 36.864,-36.903 42.342,-42.072c0.935,-0.882 0.74,-0.86 1.674,-1.945c0.861,-2.83 0.957,-2.888 3.732,-3.732c3.838,-3.303 62.661,-62.314 68.086,-67.756c3.307,-3.318 3.552,-2.779 7.342,-5.535c1.754,-1.288 1.666,-1.263 3.713,-1.786c1.896,-0.779 1.812,-0.634 3.685,0.029c7.915,-2.074 872.521,-1.753 887.014,0.063c9.99,1.252 35.626,11.338 38.651,12.528c4.365,0.391 4.227,0.681 7.319,3.868c4.375,3.357 4.493,2.914 8.724,6.199c10.374,8.053 10.383,8.059 11.323,8.709c2.019,1.68 1.917,1.586 3.824,3.475c3.395,3.376 3.399,3.199 5.729,7.209c7.445,9.202 7.248,9.154 14.475,18.506l1.944,1.742c2.014,2.317 1.728,2.41 1.906,5.58c1.515,3.753 9.717,20.474 11.929,38.863c0.734,2.618 0.679,2.465 1.044,5.257l-0.036,7.341c5.319,15.377 -1.119,74.848 3.355,82.692c12.607,3.139 12.7,-0.053 31.232,-0.292c3.086,-0.04 34.425,-0.443 38.577,0.195c8.083,1.243 8.008,1.537 23.88,1.695c3.989,0.185 4.178,-0.72 7.419,1.701l1.795,0.045c2.648,0.284 2.517,0.228 5.217,0.942c12.133,4.2 26.017,11.262 27.848,12.076c2.17,0.477 1.993,0.469 3.775,1.688l1.661,0.321c1.961,1.772 1.821,1.633 3.723,3.605c2.747,2.115 11.949,9.957 12.978,10.835c6.441,1.926 6.666,5.885 7.558,7.306c2.177,2.702 9.627,9.238 14.708,18.405c2.692,4.859 4.688,6.984 5.188,7.517c1.453,1.621 1.423,1.534 2.13,3.545c3.032,4.185 3.178,4.133 3.474,9.321c9.354,21.871 9.494,43.878 9.519,47.775c0.133,20.922 -0.193,1343.376 0.165,1382.8c2.618,6.927 2.404,21.374 -0.003,27.726c-0.058,3.525 2.201,24.297 -9.626,53.222c-0.634,4.313 -0.58,4.343 -3.441,7.537c-0.752,1.073 -0.115,1.329 -8.389,14.064c-2.543,3.914 -2.817,3.587 -4.725,7.807c-0.57,2.174 -0.533,2.081 -1.879,3.727l-3.549,2.036c-4.986,4.387 -3.504,5.819 -9.142,9.251c-0.171,0.104 0,-0 -1.801,1.733l-2.095,3.463c-1.62,1.37 -1.478,1.36 -3.612,1.977c-5.061,2.938 -8.64,6.481 -9.307,7.141c-1.567,1.387 -1.391,1.401 -3.513,2.139c-0.47,0.24 -3.659,1.87 -5.636,3.421c-2.401,2.025 -2.481,1.477 -5.425,2.09c-1.676,0.396 -1.091,1.435 -20.06,7.817c-7.309,2.459 -7.347,1.903 -14.855,3.416c-3.652,1.54 -3.58,1.336 -7.444,1.659l-14.639,0.092c-3.488,2.435 -4.086,1.598 -584.073,1.598c-454.148,0 -454.423,0.195 -457.346,-1.638l-14.649,-0.077c-2.758,-0.354 -2.61,-0.299 -5.26,-1.025c-4.906,-0.588 -33.866,-4.062 -57.372,-22.86l-3.423,-2.207c-2.431,-2.346 -2.408,-2.086 -5.498,-3.709c-1.987,-1.664 -1.904,-1.583 -3.817,-3.499l-1.834,-1.84c-3.329,-3.362 -3.342,-3.188 -5.634,-7.282c-5.046,-5.953 -5.458,-5.402 -10.187,-11.565c-2.525,-3.291 -1.664,-3.634 -4.378,-6.876c-1.545,-1.54 -1.636,-1.369 -1.957,-3.68c-3.105,-6.989 -7.581,-13.918 -8.329,-15.075l-1.113,-5.044l-0.725,-0.406c-0.712,-2.653 -0.677,-2.52 -1.061,-5.13l-0.814,-0.363c-0.692,-2.627 -0.65,-2.507 -0.916,-5.224c-1.845,-5.395 -1.566,-5.365 -1.718,-11.056c-1.703,-45.945 -1.844,-45.809 -1.922,-91.832c-0.013,-7.968 -5.068,-3.458 -87.884,-5.294c-4.022,-0.232 -4.194,0.579 -7.418,-1.686l-3.613,-0.091c-3.62,-0.216 -3.532,0.069 -7.087,-0.906c-10.134,-4.576 -10.777,-2.577 -27.466,-11.087c-1.166,-0.595 -1.08,-0.457 -2.217,-0.938c-4.444,-0.259 -4.301,-0.612 -7.329,-3.817c-3.303,-1.891 -6.943,-4.768 -7.518,-5.222l-3.473,-2.165c-2.783,-2.834 -2.973,-2.482 -5.612,-5.348c-4.671,-1.309 -3.977,-2.296 -7.315,-5.601l-1.839,-1.834c-2.423,-2.438 -2.824,-2.127 -3.807,-5.451c-5.265,-6.566 -5.109,-6.5 -10.17,-13.391c-2.105,-2.865 -2.185,-3.081 -2.3,-3.388c-0.114,-0.304 -0.644,-1.725 -2.144,-3.444c-0.682,-0.672 -1.794,-0.101 -2.17,-5.435c-7.058,-14.436 -6.599,-14.524 -11.703,-29.835c-0.724,-2.691 -0.668,-2.555 -0.997,-5.233l-0.118,-3.606Zm68.752,10.746l3.277,3.874l0.347,1.64l1.82,3.662c3.987,5.088 4.263,4.674 8.9,9.355c1.465,1.479 1.7,0.892 3.628,1.902c2.027,1.735 1.888,1.603 3.758,3.562c10.318,9.853 28.536,10.791 31.175,10.927c28.928,-0.446 1043.354,-0.11 1052.302,0.01c12.531,-0.56 13.02,0.89 23.714,-5.711c2.315,-1.429 7.689,-3.688 11.164,-7.026l3.48,-2.12c6.174,-4.983 10.119,-9.956 10.885,-10.923c0.262,-3.008 -0.065,-3.051 1.989,-5.469c1.453,-1.327 1.249,-1.321 3.224,-2.044c2.574,-11.726 9.818,-10.426 9.55,-47.372c-1.233,-169.553 1.282,-1395.418 -1.347,-1404.978c-0.8,-2.909 0.208,-3.607 -1.926,-9.172c-0.635,-1.655 -6.884,-17.95 -9.403,-20.064c-3.653,-3.065 -2.248,-4.069 -5.511,-7.34c-25.053,-25.12 -38.962,-21.983 -102.747,-21.982c-61.698,0.001 -770.044,0.015 -771.222,0.208c-2.002,0.329 -1.662,1.46 -1.662,69.428c0,52.602 -0.15,52.46 0.049,84.485c0.006,6.141 1.236,8.655 -1.745,12.923l-0.079,7.293c-0.347,2.729 -0.292,2.586 -1.025,5.25l-0.828,3.947c-0.326,2.658 -0.282,2.523 -0.991,5.165c-3.809,8.32 -10.019,23.197 -10.223,24.221c-0.481,2.145 -0.486,2.037 -1.664,3.793c-7.295,8.614 -5.761,9.52 -12.947,18.352c-1.375,4.697 -2.445,3.918 -5.699,7.225l-1.826,1.847l-1.837,1.837l-1.847,1.826c-1.851,1.822 -3.391,3.368 -3.685,3.662c-1.617,1.404 -1.44,1.413 -3.532,2.048c-7.16,5.901 -7.524,5.242 -14.786,10.873l-1.798,1.874c-2.306,2.024 -2.403,1.739 -5.537,1.972c-10.787,4.267 -20.655,9.23 -22.412,10.114c-2.566,0.679 -2.428,0.651 -5.146,0.989l-2.135,0.847c-2.666,0.723 -2.525,0.668 -5.239,0.992l-3.61,0.084c-4.384,3.157 -4.775,1.53 -9.264,1.745c-13.194,-0.115 -162.333,-1.42 -164.931,0.297c-1.647,1.088 -1.474,1.871 -1.474,1095.763c0,104.025 -1.17,104.493 5.262,122.881c0.215,0.615 1.61,4.602 3.555,7.331Zm184.846,-341.236c-10.662,-16.519 -4.521,-33.558 -1.377,-38.623l1.643,-1.966c2.398,-2.454 2.44,-2.241 5.32,-4.006c1.83,-0.573 5.478,-4.415 12.952,-5.565c1.739,-1.241 1.526,-1.509 3.734,-1.767c0.387,-0.045 525.316,-0.043 562.008,-0.002l176.315,0.002c8.92,0.288 9.212,-0.932 12.956,1.755c8.278,1.317 15.362,8.505 16.431,9.588c1.929,1.919 1.797,1.779 3.502,3.768c1.226,3.762 8.268,19.802 -1.785,36.571c-1.34,1.61 -1.24,1.59 -3.214,2.305c-0.399,0.249 -0.01,1.1 -0.409,1.349c-0.277,0.173 -0.264,0.147 -3.566,1.988c-1.673,1.382 -1.53,1.357 -3.591,2.03c-2.495,1.666 -2.5,1.301 -5.567,1.872c-10.32,3.141 -10.563,1.956 -255.342,1.956l-297.512,0.112c-187.748,0 -187.744,0.308 -212.989,-2.445l-3.919,-3.253c-2.028,-0.663 -1.938,-0.636 -3.596,-2.042c-1.34,-1.628 -1.333,-1.486 -1.993,-3.626Zm301.075,-905.474c-1.513,-5.225 -5.434,-15.632 4.188,-31.228c2.233,-2.682 1.959,-2.973 5.177,-4.09l1.997,-1.566c3.621,-3.936 3.871,-3.678 9.205,-3.789c25.504,-1.362 25.511,-0.707 27.704,-1.036c11.879,-1.783 11.795,0.343 23.743,0.361c26.45,0.041 302.814,0.47 330.626,-0.162c34.902,-0.793 34.784,-0.258 69.738,0.896c4.038,0.164 4.258,-0.678 7.447,1.705c2.163,0.588 1.99,0.579 3.742,1.766l1.617,0.387l1.972,1.673c2.397,2.421 2.8,2.094 3.826,5.463c0.151,0.232 6.485,13.411 5.047,20.294c-2.857,13.67 -2.556,14.199 -12.597,23.977c-1.652,1.41 -1.467,1.381 -3.54,2.138c-1.704,0.304 -3.434,1.643 -3.695,1.845c-3.3,2.415 -3.457,1.529 -7.486,1.719l-12.869,-0.039l-11.01,0.001c-8.932,3.435 -12.807,3.538 -22.057,0.005l-398.522,0.081c-4.03,-0.231 -4.223,0.622 -7.484,-1.792c-2.102,-0.753 -1.959,-0.735 -3.577,-2.097c-3.76,-2.857 -4.062,-2.298 -7.321,-5.556c-0.296,-0.293 -1.845,-1.829 -3.744,-3.614c-0.812,-0.927 -1.794,-0.599 -2.128,-7.342Zm-302.815,365.43c-0.533,-3.149 -0.476,-3.144 -0.576,-3.401c-6.287,-16.207 -4.716,-16.779 0.935,-33.284l3.266,-2.243c10.539,-8.764 12.822,-8.844 20.642,-10.011c6.273,-1.649 6.23,-0.845 8.969,-1.027l69.798,0.009c659.423,0.445 659.676,-0.404 664.916,1.448c12.003,0.676 11.898,1.418 21.932,8.044c3.423,2.838 4.567,2.069 5.634,7.312c2.499,8.512 6,14.779 0.106,29.494c-0.533,3.032 0.028,3.198 -1.937,5.558l-1.877,1.807c-1.887,1.855 -1.808,1.787 -3.851,3.43c-5.536,1.854 -5.382,1.712 -10.721,4.337c-4.283,2.107 -4.45,1.842 -474.031,1.842c-278.824,-0 -279.482,1.167 -295.755,-5.844c-3.497,-0.911 -3.166,-1.27 -5.614,-3.685c-1.36,-1.714 -1.286,-1.629 -1.838,-3.786Zm0.377,717.904c-3.786,-10.815 -5.168,-10.583 -4.505,-21.969c0.499,-8.579 3.609,-7.84 4.306,-16.494c1.501,-1.49 1.409,-1.484 3.483,-2.087c13.852,-11.371 15.502,-9.347 86.512,-9.346c380.577,0.007 381.097,-0.374 385.541,2.492c4.382,2.826 3.407,3.942 7.983,6.497c1.391,0.776 1.572,-0.032 2.896,0.872c0.786,0.536 -0.24,0.94 0.47,1.425c1.749,1.972 1.647,1.856 3.392,3.868l0.38,1.639c1.728,2.514 1.258,2.602 1.727,5.633c0.052,0.85 2.717,16.602 -3.566,25.916c-1.102,3.321 -1.494,3.006 -3.907,5.408l-2.012,1.577c-0.55,0.203 -13.851,7.581 -25.601,7.753c-0.218,0.003 -415.204,0.127 -416.898,-0.115c-23.058,-3.286 -24.756,0.702 -36.76,-9.248c-1.924,-1.912 -1.795,-1.771 -3.44,-3.822Zm0.012,-896.215c-0.938,-2.716 -6.629,-14.133 -4.088,-27.479c1.3,-6.826 8.362,-13.713 9.36,-14.685c3.334,-3.251 5.824,-3.191 9.16,-5.559c2.371,-1.993 2.456,-1.691 5.537,-2.028l11.036,0.015c9.31,-3.327 60.232,-3.407 69.81,-0.004l670.323,-0.04c3.573,0.265 3.494,-0.012 7.021,0.968c8.3,5.108 8.475,4.79 15.089,12.115c1.553,1.567 1.629,1.41 1.963,3.692c6.797,16.751 0.587,26.583 0.187,27.784c-1.881,5.646 -2.172,5.385 -7.691,10.904c-1.845,1.871 -1.75,1.787 -3.783,3.507c-10.117,1.353 -9.817,2.564 -20.138,2.723c-0.814,0.013 -730.808,0.005 -730.937,0.004c-1.951,-0.022 -17.859,-0.202 -24.034,-4.166c-2.132,-0.714 -1.957,-0.729 -3.556,-2.078l-1.843,-1.835c-1.817,-1.854 -1.748,-1.768 -3.416,-3.838Zm-0.467,356.479c-2.511,-6.279 -8.188,-15.494 0.072,-35.055c0.554,-2.153 0.481,-2.066 1.831,-3.786l1.841,-1.853c2.496,-1.988 2.58,-1.409 5.52,-1.994c0.756,-0.246 0.591,-0.331 9.151,-3.881c4.635,-1.922 4.749,-1.718 709.1,-1.718c37.653,0 37.983,-1.252 60.534,6.087c2.073,1.657 1.93,1.529 3.863,3.431l1.879,1.805c1.996,2.375 1.699,2.484 1.885,5.596c2.25,5.529 6.775,14.014 -0.08,29.494c-1.411,6.553 -3.492,4.884 -5.216,5.96c-1.193,1.058 -9.437,8.367 -16.996,10.398c-5.3,1.424 -687.631,0.54 -747.425,0.463c-3.008,-0.401 -2.884,-0.504 -5.642,-1.557c-11.29,-2.338 -14.39,-6.66 -16.397,-7.949c-2.752,-2.252 -3.427,-1.795 -3.92,-5.441Zm1.849,181.879c-11.785,-17.338 -3.294,-33.034 -1.419,-38.625l1.586,-2.009c1.882,-1.914 1.811,-1.844 3.802,-3.524l3.582,-1.968c2.395,-2.001 2.472,-1.444 5.496,-2.019c8.517,-2.617 8.78,-2.223 459.183,-2.223c303.099,-0 303.92,-0.602 312.145,4.399c2.045,1.747 1.942,1.657 3.789,3.519l1.832,1.845c1.913,1.889 1.822,1.793 3.499,3.786c6.384,20.487 1.887,27.26 0.416,31.244c-0.574,3.018 -0.056,3.175 -2.053,5.492l-1.89,1.79c-1.92,1.909 -1.78,1.778 -3.793,3.506c-6.537,4.054 -6.658,3.528 -7.187,3.914c-6.541,5.59 -21.398,3.932 -31.281,3.869c-23.004,-0.074 -22.832,-0.044 -45.919,0.003c-53.92,0.184 -526.884,1.802 -673.999,0.155c-3.086,-0.035 -3.061,-0.057 -5.574,-1.915l-3.624,-0.086c-2.622,-0.303 -2.513,-0.249 -5.166,-0.968c-4.949,-2.503 -9.026,-5.725 -9.755,-6.301c-1.783,-1.259 -2.566,-0.503 -3.67,-3.884Zm-3.444,-778.855c1.63,-1.377 1.432,-1.367 3.539,-2.061c3.032,-2.413 3.982,-1.313 14.585,-14.602c0.695,-2.114 0.704,-1.94 2.07,-3.53c8.107,-10.69 12.577,-32.097 11.869,-44.11c-4.124,-70.021 3.797,-93.541 -1.28,-100.079c-0.464,-0.597 -0.455,0.193 -6.795,6.564c-38.016,38.203 -37.396,38.76 -43.565,42.782c-4.515,2.944 -2.635,4.603 -6.757,7.901c-1.704,1.363 -2.585,2.067 -19.548,19.02c-2.59,2.942 -2.438,2.814 -5.513,5.507c-0.883,0.88 -5.52,5.499 -11.019,11.019c-2.693,3.075 -2.565,2.922 -5.507,5.513c-1.447,1.447 -1.11,1.604 -2.498,3.013c-6.389,6.486 -6.462,6.261 -12.865,12.864c-7.328,7.556 -49.476,47.744 -54.591,55.626c-1.463,1.554 -1.285,1.571 -3.258,2.184c-1.986,1.432 -3.422,1.253 -1.994,3.375c1.884,2.8 2.664,1.116 9.085,1.045c98.299,-1.08 102.502,5.148 134.043,-12.031Zm15.026,1454.532l0,12.854l-0.109,9.167c2.358,6.221 1.696,6.211 1.753,12.86c0.215,1.758 1.453,11.86 9.094,20.186c0.303,0.286 1.889,1.786 3.793,3.562c1.366,1.636 1.325,1.545 1.943,3.633c0.768,0.963 5.819,7.296 10.988,10.789c4.275,0.95 4.189,0.984 7.179,3.996c14.576,10.354 25.281,8.759 163.388,8.759c910.491,0 910.574,0.173 921.897,-1.48c6.74,-0.984 6.516,-1.222 12.836,-3.591c2.294,-1.892 2.332,-1.468 5.358,-2.228c0.192,-0.043 -0.218,-0.423 1.975,-1.455c1.617,-1.387 1.521,-1.367 3.571,-2.048c1.397,-0.689 6.735,-4.386 9.33,-7.066c1.815,-1.885 1.719,-1.787 3.629,-3.716l1.85,-1.822c4.601,-3.577 6.868,-8.341 7.27,-9.187c0.468,-2.155 0.48,-2.043 1.652,-3.774c0.59,-2.094 0.545,-1.955 1.789,-3.685c8.658,-11.423 7.028,-38.67 7.028,-137.58c-0,-1307.738 0.23,-1307.859 -1.891,-1314.759c-1.598,-5.199 -1.368,-5.146 -4.164,-9.654l-1.05,-5.049c-0.328,-2.004 -7.991,-13.707 -13.162,-19.626c-0.204,-0.234 -0.275,0.075 -3.139,-2.288c-3.348,-1.093 -2.932,-1.496 -5.353,-3.902c-11.517,-6.575 -10.893,-7.742 -23.843,-10.948c-6.572,-0.103 -6.565,0.553 -12.856,-1.798c-36.773,0.069 -36.639,0.079 -73.423,-0.066c-1.591,2.66 -1.42,2.894 -1.42,484.737l-0,506.872c0,287.484 0.161,287.619 -1.976,293.863l0.031,7.342c-0.338,2.743 -0.282,2.598 -1.016,5.248c-2.562,16.047 -7.248,21.15 -12.028,35.175c-0.503,2.213 -0.504,2.04 -1.687,3.78c-0.068,0.079 -6.548,11.053 -13.073,18.281c-7.461,8.265 -6.716,8.689 -14.79,16.44c-2.517,2.471 -2.48,2.211 -5.297,3.974c-4.521,3.783 -4.58,3.541 -9.316,7.143c-3.664,3.609 -2.774,5.687 -10.878,5.869c-11.764,6.054 -11.703,5.945 -24.012,10.822c-1.191,0.472 -1.038,0.469 -2.143,0.967c-2.632,0.685 -2.512,0.644 -5.219,0.918l-1.793,0.062c-3.258,2.412 -3.452,1.511 -7.423,1.704c-66.789,1.326 -922.166,-0.692 -924.073,1.178c-1.501,1.471 -1.219,1.857 -1.218,55.539Z" style="fill:#566b8d;fill-opacity:1;"/></g></svg>