<?xml version="1.0" encoding="UTF-8" standalone="no"?><!DOCTYPE svg PUBLIC "-//W3C//DTD SVG 1.1//EN" "http://www.w3.org/Graphics/SVG/1.1/DTD/svg11.dtd"><svg width="100%" height="100%" viewBox="0 0 2084 2084" version="1.1" xmlns="http://www.w3.org/2000/svg" xmlns:xlink="http://www.w3.org/1999/xlink" xml:space="preserve" xmlns:serif="http://www.serif.com/" style="fill-rule:evenodd;clip-rule:evenodd;stroke-linejoin:round;stroke-miterlimit:2;"><rect id="formpages-admin" x="0" y="0" width="2083.333" height="2083.333" style="fill:none;"/><g id="FormPages"><path id="FormPages1" serif:id="FormPages" d="M200.521,360.887c-3.049,-8.887 -1.87,-8.96 -1.842,-16.541c0.144,-18.432 0.109,-18.276 0.081,-36.742c0.193,-3.611 -0.083,-3.514 0.861,-7.037c1.178,-1.89 1.505,-1.621 1.859,-3.697c0.335,-1.966 2.642,-4.23 12.019,-15.133c2.283,-2.524 2,-2.868 5.543,-3.825c2.507,-1.717 2.594,-1.251 5.635,-1.725c2.331,-0.429 17.047,-3.138 29.411,-3.579c92.657,-3.303 98.1,-6.201 144.996,-7.663c3.662,-0.114 3.149,-1.392 3.153,-5.072c0.118,-117.753 -1.407,-118.116 3.955,-134.123c0.833,-4.333 0.784,-4.312 3.945,-7.282c5.184,-5.101 5.723,-4.192 11.012,-9.196c1.572,-1.411 1.43,-1.399 3.544,-2.126c2.566,-1.514 2.532,-1.129 5.647,-1.57c5.424,-1.988 1165.738,-1.711 1173.37,-0.166l1.834,0.089c1.245,0.144 6.479,0.749 14.566,5.768l2.197,3.326c3.426,3.183 3.027,3.342 5.911,7.139c8.599,11.324 7.085,12.493 7.085,59.191c-0.001,558.62 -0.25,558.621 -0.563,561.879c-1.307,13.617 7.015,-4.922 7.317,-5.594l1.673,-3.787l0.34,-1.647c1.746,-1.946 1.648,-1.85 3.622,-3.713c6.377,-6.738 11.813,-16.882 12.658,-18.46c0.651,-2.091 0.631,-1.95 2.004,-3.589l1.556,-1.989c0.729,-2.037 0.748,-1.938 2.092,-3.539l1.574,-1.974c0.749,-2.055 0.749,-1.879 2.164,-3.487c5.285,-5.397 5.225,-5.475 7.407,-12.812c2.552,-3.092 2.427,-3.037 5.252,-5.731c6.057,-6.877 5.068,-7.497 10.99,-14.636c0.64,-5.202 2.354,-3.985 5.534,-5.687c20.71,-13.931 23.546,-11.229 46.003,-4.944c0.724,0.203 7.34,6.061 9.485,6.76c2.931,0.583 3.036,-0.025 5.476,2.017c1.757,1.926 3.265,3.505 3.553,3.806c6.624,6.172 16.872,11.836 18.44,12.702c2.148,0.643 1.974,0.658 3.592,1.984l1.994,1.557c2.121,0.742 1.922,0.724 3.545,2.075l1.98,1.576c2.072,0.737 1.896,0.74 3.499,2.14c1.54,1.534 7.468,6.388 9.341,7.015c5.635,1.154 5.372,1.582 9.177,5.67c0.256,0.226 20.973,14.085 22.007,14.61c2.105,0.687 1.963,0.67 3.583,2.024l1.973,1.576c2.033,0.728 1.934,0.748 3.532,2.104c7.539,6.633 11.694,8.61 12.833,9.152c3.366,0.84 3.014,1.257 5.596,3.584c1.908,2.442 4.511,4.189 4.956,4.487c6.688,4.487 7.793,7.956 9.79,10.228c2.492,2.413 2.85,2.111 3.803,5.542c2.427,3.166 1.545,3.374 1.627,7.478c0.215,8.354 0.292,8.17 0.012,16.547c-0.246,2.764 -0.232,2.631 -0.805,5.224l-0.848,0.376c-0.538,2.946 -0.067,2.962 -1.83,5.555c-0.593,2.082 -0.586,1.973 -1.782,3.711c-0.744,2.101 -0.73,1.958 -2.134,3.542c-4.354,4.302 -10.605,14.459 -10.73,14.815c-0.61,2.994 -0.136,3.146 -2.067,5.435c-0.305,0.281 -1.916,1.765 -3.715,3.625c-2.53,3.323 -1.864,3.654 -4.378,6.887c-5.286,6.796 -6.21,8.774 -6.606,9.619c-0.846,3.415 -1.244,3.055 -3.723,5.515l-1.579,1.979c-0.734,2.064 -0.732,1.89 -2.103,3.52c-0.2,0.234 -9.739,12.16 -10.691,14.844c-0.892,4.203 -0.817,4.191 -4.018,7.179c-3.847,4.031 -3.374,4.304 -13.001,20.098l-3.233,3.932c-0.715,2.087 -0.695,1.945 -2.059,3.561l-1.594,1.959c-0.711,2.017 -0.732,1.92 -2.135,3.511c-5.809,5.662 -8.54,11.731 -9.057,12.879c-0.914,3.432 -1.31,3.095 -3.828,5.453c-5.806,6.269 -11.827,16.881 -12.711,18.439c-0.619,2.11 -0.618,1.915 -1.987,3.586l-1.549,2.006c-0.718,2.092 -0.72,1.918 -2.062,3.55l-1.57,1.982c-0.739,2.058 -0.739,1.882 -2.145,3.495c-6.777,6.895 -8.858,13.312 -9.286,14.63c-1.528,2.195 -1.455,2.084 -3.397,3.89c-0.393,0.443 -0.354,0.457 -6.459,10.239c-1.95,3.124 -4.954,6.944 -5.413,7.527c-2.529,3.215 -2.826,5.472 -3.074,5.886l-3.266,3.913l-0.398,1.6c-1.729,1.95 -1.633,1.855 -3.585,3.736c-5.735,5.91 -8.498,11.758 -9.037,12.897l-1.725,3.761l-0.328,1.649c-1.759,1.956 -1.657,1.854 -3.613,3.714c-6.836,7.507 -11.794,16.901 -12.63,18.485c-0.645,2.038 -0.615,1.896 -2.002,3.59l-1.561,1.985c-0.73,2.037 -0.75,1.937 -2.097,3.535c-0.337,0.393 -9.839,12.063 -10.714,14.819c-0.632,2.969 -0.145,3.124 -2.091,5.431l-1.91,1.772c-0.355,0.364 -0.309,0.346 -2.521,3.222c-1.017,1.322 -9.259,12.033 -11.989,17.059l-2.038,3.564c-8.199,10.703 -7.289,11.315 -8.091,12.166c-4.212,4.47 -4.098,4.416 -6.48,9.9c-0.896,3.399 -1.263,3.08 -3.791,5.482c-6.113,6.492 -11.825,16.875 -12.689,18.444c-0.631,2.086 -0.649,1.981 -1.999,3.585c-0.239,0.306 -2.7,3.467 -2.892,3.897c-0.864,1.94 -0.331,574.493 -0.283,579.894c2.829,6.643 2.78,24.851 -0.004,31.363c-0.464,22.282 -1.082,22.843 -13.041,36.93l-2.227,3.326c-28.061,13.121 -101.595,5.453 -106.259,7.956c-2.037,1.093 -1.003,19.967 -0.908,21.702c0.999,3.606 0.737,3.51 1.074,7.117l0.112,18.302c3.564,7.825 2.165,22.584 -0.003,25.889c-2.669,9.693 -2.595,9.686 -3.013,10.563c-11.78,24.692 -34.271,23.5 -69.275,25.35c-3.621,0.965 -3.521,0.713 -7.133,1.043c-14.046,0.062 -13.851,0.017 -27.765,0.8c-6.226,1.78 -6.19,0.885 -8.957,1.065c-11.216,0.009 -11.088,0.104 -22.267,0.775c-3.845,1.172 -3.842,0.713 -12.622,1.053l-16.513,-0.093c-9.696,3.532 -9.898,2.032 -20.21,1.85l-12.849,-0.141c-8.129,3.22 -8.313,2.21 -23.877,1.834c-24.193,-0.001 -24.158,0.543 -200.354,10.183c-3.595,0.995 -3.471,0.731 -7.126,1.055c-12.108,0.043 -11.971,0.075 -24.099,0.78c-6.145,1.819 -9.637,1.006 -10.789,1.063c-10.211,-0.033 -10.03,-0.004 -20.139,0.043c-4.368,3.163 -13.543,1.755 -16.584,1.74l-12.846,-0.108c-8.622,3.296 -8.705,2.141 -22.045,1.857c-50.961,-0.008 -50.844,2.044 -202.183,10.089c-2.71,0.726 -2.607,0.673 -5.293,1.031c-13.06,0.069 -12.874,0.069 -25.934,0.801c-6.298,1.812 -6.323,0.9 -8.956,1.076c-11.265,0.004 -11.138,0.102 -22.268,0.767c-7.121,2.19 -7.134,1.048 -14.457,1.05l-14.679,-0.084c-9.777,3.561 -9.877,2.034 -20.209,1.859l-11.013,-0.141c-12.333,4.383 -12.531,2.144 -25.713,1.813c-16.049,0.024 -15.992,0.065 -200.353,10.201c-3.59,0.992 -3.45,0.729 -7.126,1.052c-11.271,0.036 -11.142,0.129 -22.266,0.773c-6.116,1.82 -9.731,1.014 -10.786,1.067c-9.262,-0.035 -9.076,0.001 -18.304,0.037c-4.358,3.185 -13.511,1.771 -16.584,1.757c-16.631,-0.099 -16.442,-0.088 -33.074,-0.077c-2.669,-0.271 -2.535,-0.217 -5.234,-0.901l-0.394,-0.756c-2.947,-0.61 -2.955,-0.163 -5.545,-1.915c-2.04,-0.735 -1.897,-0.71 -3.537,-2.14c-8.637,-8.372 -8.971,-8.05 -9.332,-9.023c-0.504,-1.359 -0.909,-0.859 -1.893,-1.882c-2.94,-3.057 -1.126,-3.995 -3.759,-7.35c-1.24,-1.782 -1.185,-1.694 -1.693,-3.778c-2.878,-6.735 -1.654,-6.859 -1.73,-11.062c-0.092,-24.727 -1.035,-24.586 -10.232,-193.011c-1.721,-6.304 -0.872,-6.306 -1.05,-8.96c-0.048,-11.226 -0.142,-11.098 -0.789,-22.265c-1.828,-6.24 -1.02,-6.197 -1.064,-12.624l0.032,-18.348c-3.042,-8.938 -1.858,-9.021 -1.839,-16.54l0.124,-14.682c-3.211,-8.508 -2.111,-8.695 -1.854,-22.043c0.457,-50.985 -8.532,-145.572 -9.669,-201.873c-0.969,-2.749 -1.029,-2.539 -1.428,-5.605c-0.099,-15.002 -0.139,-14.877 -0.298,-25.625c-1.763,-4.408 -1.262,-4.386 -1.584,-9.262c-0.007,-11.079 -0.033,-10.971 -0.119,-21.971c-2.49,-5.429 -1.411,-5.596 -1.718,-14.755l0.083,-14.679c-3.51,-9.706 -2.027,-9.798 -1.857,-20.209l0.145,-12.849c-4.503,-11.433 -2.127,-11.699 -1.846,-23.877c0.177,-51.365 -8.744,-145.704 -9.689,-200.044c-1.355,-3.612 -1.162,-3.501 -1.512,-7.435c-0.04,-12.098 -0.065,-11.89 -0.203,-23.797c-2.81,-6.572 -1.433,-6.734 -1.655,-11.09l0.04,-18.349c-3.05,-8.887 -1.87,-8.999 -1.835,-18.377l0.112,-12.846c-3.999,-10.525 -2.084,-10.758 -1.861,-22.043c0.553,-52.521 -10.535,-179.677 -11.406,-234.934c-1.75,-4.416 -1.252,-4.392 -1.569,-9.269c-0.003,-11.052 -0.032,-10.944 -0.118,-21.972c-2.476,-5.416 -1.423,-5.545 -1.714,-12.918l0.088,-16.514c-3.543,-9.803 -2.017,-9.905 -1.852,-20.21l0.132,-11.013c-4.868,-12.222 -2.122,-12.516 -1.812,-25.713c-0.517,-63.444 -8.8,-144.643 -9.706,-198.211c-1.697,-4.453 -1.212,-4.436 -1.537,-9.267c-0.034,-11.091 -0.067,-10.9 -0.208,-21.955c-1.858,-4.43 -1.329,-4.411 -1.638,-9.259l0.039,-14.678Zm91.029,181.646c0.939,2.785 0.994,2.574 1.376,5.612c0.127,13.887 -0.066,13.727 0.375,27.456c1.377,3.656 1.177,3.545 1.542,7.429c0.029,12.038 0.028,11.884 0.166,23.805c2.795,6.501 1.449,6.644 1.689,11.085c-0.041,11.087 -0.055,10.979 0.038,21.979c3.068,4.391 1.754,10.268 1.748,14.745l-0.128,14.683c3.238,8.673 2.1,8.773 1.848,22.043c0.778,76.148 8.51,140.024 9.662,200.038c1.319,3.684 1.125,3.568 1.471,7.44c0.073,12.9 0.088,12.773 0.268,25.629c1.818,4.527 1.284,4.513 1.616,9.259l0.081,21.977c2.962,4.434 1.717,10.401 1.727,14.748l-0.091,16.517c3.151,8.861 1.925,8.984 1.861,18.372c-0.501,57.561 10.45,179.113 11.378,234.935c1.722,4.519 1.228,4.495 1.557,9.268c0.025,11.935 0.023,11.782 0.168,23.803c2.807,6.545 1.445,6.702 1.678,11.088l-0.062,18.349c3.06,8.914 1.871,9.024 1.838,18.376l-0.122,12.846c3.132,8.248 2.154,8.423 1.831,23.878c0.963,78.315 8.515,138.379 9.69,200.038c1.321,3.692 1.128,3.576 1.483,7.439c0.058,11.941 0.064,11.766 0.244,23.792c2.679,6.585 1.389,6.718 1.626,11.097c-0.013,11.17 -0.024,10.968 0.084,21.976c2.829,6.178 1.707,6.284 1.736,12.913l-0.111,16.517c3.514,9.72 2.025,9.916 1.857,20.209c-0.122,11.023 -0.305,27.474 5.969,137.666c0.844,14.817 1.473,14.58 1.723,29.41c0.08,4.778 1.342,4.487 1.452,9.192c0.581,24.829 -0.084,24.936 1.432,29.436c0.616,1.827 -1.089,17.799 3.884,17.815c33.085,0.108 167.76,-10.416 212.859,-11.156c4.439,-1.68 4.415,-1.209 9.269,-1.543c12.044,-0.035 11.846,-0.046 23.795,-0.209c6.627,-2.782 6.795,-1.417 11.093,-1.642l18.349,0.043c8.863,-3.018 8.97,-1.861 18.377,-1.838l12.847,0.126c10.491,-3.99 10.722,-2.086 22.042,-1.866c49.723,0.496 146.974,-8.632 200.04,-9.643c3.69,-1.328 3.575,-1.131 7.441,-1.469c15.547,-0.093 15.411,-0.137 23.792,-0.255c6.533,-2.691 6.655,-1.393 11.095,-1.622c11.123,0.003 10.964,0.006 21.971,-0.107c4.411,-2.941 10.347,-1.709 14.752,-1.716l14.681,0.09c9.662,-3.499 9.859,-2.025 20.209,-1.855c57.576,0.515 180.352,-10.487 234.933,-11.382c4.445,-1.685 4.423,-1.211 9.271,-1.546c11.001,-0.026 10.868,-0.028 21.964,-0.166c5.416,-2.345 5.522,-1.362 12.924,-1.68c10.238,0.037 10.057,0.062 20.143,-0.045c4.369,-3.064 10.147,-1.762 14.745,-1.759l14.684,0.14c10.574,-3.975 10.801,-2.068 22.042,-1.848c5.744,-0.063 69.03,-0.754 71.721,-3.37c1.001,-0.973 -0.062,-25.871 -2.247,-27.041c-1.176,-0.629 -152.976,-3.287 -174.123,-0.518c-2.145,0.281 -732.702,-0.059 -785.876,0.177c-4.021,0.018 -38.094,0.169 -49.719,-7.349c-2.131,-0.7 -1.956,-0.714 -3.57,-2.056c-15.658,-15.261 -13.402,-18.298 -13.402,-148.768c-0,-1304.515 0.034,-1304.573 -0.286,-1305.149c-3.413,-6.156 -5.893,1.138 -112.932,3.968c-3.487,0.092 -3.191,0.71 -5.895,2.747c-3.221,2.428 -0.867,25.548 -0.641,27.758c1.896,18.615 8.643,139.793 9.068,159.693Zm1000.124,861.323c0.272,7.242 0.125,18.525 0.104,20.136c0.188,12.085 -1.86,34.942 5.089,32.517c29.423,-10.267 29.387,-10.245 31.677,-11.676c2.543,-0.657 2.413,-0.641 5.106,-0.945c2.505,-1.801 2.547,-1.465 5.568,-1.698c4.25,-1.904 4.565,-1.672 7.202,-7.253c0.607,-2.103 0.64,-2.004 1.954,-3.644l1.594,-1.967c0.686,-2.058 0.664,-1.917 2.099,-3.529c6.622,-6.56 5.584,-7.179 10.777,-14.798c0.316,-2.17 0.395,-2.107 1.987,-3.647l1.705,-1.884c0.679,-2.047 0.653,-1.906 2.019,-3.564c2.173,-3.78 13.63,-16.603 14.784,-23.8c1.29,-1.494 1.155,-1.51 3.136,-2.201c1.246,-1.33 9.542,-14.532 10.346,-15.812c0.71,-1.13 0.474,-1.048 1.023,-2.26c0.891,-3.401 1.272,-3.049 3.777,-5.492l1.554,-1.994c0.755,-2.073 0.755,-1.9 2.111,-3.521l1.57,-1.98c0.736,-2.033 0.728,-1.856 2.141,-3.499c5.262,-5.949 4.589,-6.283 8.937,-12.984c0.673,-2.088 0.652,-1.947 2.041,-3.572c3.073,-3.56 9.278,-8.996 13.087,-20.054c1.733,-2.069 1.627,-1.944 3.458,-3.801c5.753,-10.018 10.923,-11.292 14.836,-23.78c1.257,-1.537 1.132,-1.569 3.044,-2.246l0.562,-3.294c1.768,-1.984 1.664,-1.876 3.586,-3.739c4.9,-6.29 4.515,-6.42 8.991,-12.931c0.456,-3.561 1.246,-3.127 3.864,-5.428c2.659,-4.548 11.562,-15.539 14.611,-22.042c0.57,-2.111 0.552,-1.969 1.914,-3.66l1.573,-1.983c0.691,-2.038 0.666,-1.896 2.097,-3.533c4.34,-3.635 3.684,-4.081 10.746,-14.807c0.246,-3.054 -0.088,-3.092 1.975,-5.509c0.309,-0.279 1.935,-1.747 3.775,-3.571c2.259,-3.885 10.058,-12.548 12.769,-18.365l1.681,-3.783l0.343,-1.644c1.718,-1.943 1.618,-1.846 3.585,-3.739c0.959,-1.106 9.262,-10.684 10.731,-14.82c0.874,-4.302 0.839,-4.272 4.006,-7.178c2.531,-2.669 5.906,-8.718 13.33,-17.99c0.417,-0.52 0.002,-0.605 3.269,-7.665c1.318,-1.545 1.126,-1.54 3.001,-2.286l0.679,-3.217c1.738,-1.946 1.666,-1.872 3.567,-3.748c3.82,-4.943 4.273,-4.561 7.212,-11.048c0.738,-3.474 0.964,-3.267 3.688,-5.593c7.736,-8.424 6.864,-8.929 16.401,-23.878c0.688,-2.052 0.713,-1.953 2.058,-3.559l1.572,-1.981c0.736,-2.063 0.737,-1.887 2.146,-3.494c2.075,-2.133 4.798,-3.766 9.034,-12.904c0.803,-3.692 1.23,-3.411 3.649,-5.618c6.729,-7.5 4.809,-8.686 11.21,-16.345c4.124,-4.935 2.91,-5.517 3.746,-7.3c1.33,-1.567 1.141,-1.563 3.009,-2.294l0.636,-3.231c1.286,-1.481 1.113,-1.517 3.066,-2.244c5.634,-6.118 8.984,-13.13 9.58,-14.377l1.78,-3.741c1.327,-1.319 1.13,-1.292 16.509,-23.866c0.647,-2.091 0.661,-1.985 2.004,-3.59l1.56,-1.989c0.705,-2.021 0.675,-1.879 2.079,-3.546c5.953,-6.966 5.727,-6.989 10.741,-14.806c0.6,-2.945 0.059,-3.115 2.053,-5.455c0.306,-0.281 1.919,-1.763 3.738,-3.604c0.536,-0.913 4.189,-7.13 7.388,-10.983c2.13,-2.566 1.542,-2.827 3.535,-5.579c0.788,-2.779 0.688,-2.959 3.274,-3.959l0.264,-1.629c0.709,-2.102 0.692,-1.96 2.051,-3.566l1.58,-1.967c0.721,-2.019 0.741,-1.922 2.141,-3.508c1.786,-1.79 4.672,-3.238 9.048,-12.88c0.811,-3.608 1.19,-3.337 3.661,-5.619c6.731,-7.54 4.85,-8.684 11.209,-16.346c2.203,-2.654 1.546,-2.889 3.426,-5.647c0.645,-2.08 0.631,-1.982 1.998,-3.599l1.572,-1.973c0.722,-2.045 0.695,-1.903 2.093,-3.541c5.996,-6.97 5.711,-6.955 10.74,-14.806c0.602,-2.949 0.062,-3.118 2.053,-5.455c0.306,-0.281 1.918,-1.763 3.738,-3.604c0.91,-1.542 1.159,-1.345 12.716,-18.422c0.671,-2.113 0.679,-1.938 2.02,-3.576l1.539,-2.007c0.746,-2.093 0.725,-1.899 2.091,-3.535l1.579,-1.973c0.735,-2.069 0.739,-1.892 2.162,-3.483c1.981,-1.966 3.658,-1.859 7.18,-9.243l1.665,-3.793c0.621,-2.592 2.998,-4.368 -3.38,-10.746c-1,-0.586 -16.961,-11.679 -18.432,-12.701c-2.144,-0.649 -2.004,-0.638 -3.601,-1.987l-1.981,-1.565c-2.051,-0.722 -1.909,-0.697 -3.547,-2.083l-1.968,-1.581c-2.102,-0.755 -1.927,-0.765 -3.494,-2.157c-7.162,-7.1 -9.876,-9.666 -15.653,-1.289c-0.368,0.533 -0.07,0.613 -4.185,6.936c-0.413,2.266 -0.511,2.088 -2.023,3.63c-4.282,4.857 -12.63,18.081 -13.654,19.703c-0.722,1.144 -0.489,1.065 -1.038,2.258c-0.714,2.788 -0.572,3.026 -3.352,3.926l-0.482,3.349c-1.731,1.96 -1.659,1.888 -3.603,3.729c-4.614,4.648 -10.444,14.124 -10.694,14.838c-0.906,4.308 -0.902,4.278 -4.029,7.166c-8.348,10.981 -10.358,12.258 -13.031,20.098c-1.292,1.605 -1.104,1.61 -2.932,2.312c-0.988,1.871 -0.539,2 -1.915,3.626c-1.333,1.576 -0.66,1.904 -1.992,3.53c-0.71,2.021 -0.733,1.923 -2.139,3.506c-6.265,5.256 -8.888,13.285 -9.318,14.602c-1.708,2.004 -1.638,1.928 -3.537,3.757c-6.907,8.952 -6.28,9.232 -12.724,18.425c-0.626,2.116 -0.634,1.94 -1.986,3.589l-1.553,2.001c-0.726,2.094 -0.729,1.921 -2.071,3.545l-1.574,1.983c-0.73,2.046 -0.727,1.869 -2.146,3.491c-7.506,7.647 -7.225,8.273 -9.275,14.638c-1.544,2.22 -1.477,2.105 -3.403,3.887c-1.186,1.338 0.061,2.043 -12.805,18.325l-1.8,3.687l-0.334,1.644c-1.723,1.95 -1.652,1.877 -3.544,3.764c-4.165,7.111 -6.119,5.815 -10.974,16.514c-0.681,2.758 -0.524,3.04 -3.409,3.884c-0.385,0.426 0.215,1.289 -0.17,1.715c-0.353,0.39 -1.193,-0.17 -1.564,0.202c-1.122,1.126 0.792,2.421 -10.914,16.599c-0.414,0.502 0.221,0.859 -3.983,7.087c-0.682,2.104 -0.664,1.962 -2.019,3.585l-1.572,1.976c-0.729,2.032 -0.749,1.932 -2.103,3.532c-1.919,2.224 -4.448,2.797 -9.122,12.843c-1.043,5.14 -1.394,4.934 -3.631,7.454c-1.947,1.737 -3.537,3.236 -3.84,3.522c-6.783,8.92 -6.297,9.019 -12.619,18.491c-0.689,2.067 -0.686,1.891 -2.04,3.565l-1.542,2.005c-0.751,2.056 -0.747,1.882 -2.11,3.519c-1.726,2.035 -4.556,3.224 -9.091,12.864c-0.936,4.256 -1.587,3.77 -3.462,5.702c-0.714,2.122 -0.608,2.044 -2.143,3.47c-5.06,5.227 -4.06,5.856 -8.646,11.385c-3.415,4.116 -2.479,4.597 -5.845,8.916l-2.05,3.549c-1.209,2.102 -10.442,13.738 -12.744,18.394l-1.73,3.755l-0.309,1.658c-1.71,1.954 -1.629,1.875 -3.583,3.739c-6.897,8.904 -6.242,9.213 -12.68,18.449c-0.634,2.058 -0.647,1.959 -2.005,3.583l-1.558,1.992c-0.719,2.039 -0.738,1.94 -2.072,3.549l-1.569,1.978c-0.753,2.05 -0.751,1.874 -2.154,3.496c-7.872,7.865 -6.499,8.735 -9.3,14.606c-1.295,1.505 -1.121,1.54 -3.078,2.235c-1.273,1.428 -0.654,1.829 -13.149,19.975l-2.049,3.549c-0.207,0.371 -13.201,18.456 -14.292,20.405c-0.79,3.605 -0.016,4.473 -3.655,5.581l-0.429,3.383c-1.736,1.953 -1.664,1.882 -3.615,3.72c-13.88,17.863 -11.844,19.168 -24.348,34.489c-2.777,3.403 -2.075,3.575 -3.424,7.603c-1.222,1.506 -1.091,1.605 -2.973,2.283l-0.595,3.275c-1.718,1.96 -1.623,1.864 -3.562,3.75c-6.901,8.976 -6.322,9.182 -12.613,18.489c-0.72,2.135 -0.705,1.934 -2.042,3.567c-5.604,9.791 -7.947,8.166 -12.778,18.368c-0.098,0.454 -0.715,3.32 -1.955,5.466c-1.759,1.976 -1.628,1.849 -3.641,3.707c-7.209,6 -12.003,16.746 -12.731,18.379c-0.902,3.418 -1.281,3.085 -3.825,5.464c-9.807,10.329 -12.409,18.287 -13.005,20.108c-1.229,1.515 -1.055,1.558 -3.032,2.252l-0.557,3.298c-1.33,1.553 -1.197,1.547 -3.072,2.245c-1.839,1.991 -9.582,14.505 -10.377,15.79c-0.669,1.081 -0.478,1.029 -1.043,2.244Zm69.14,-248.668c1.087,-1.652 1.916,-2.951 1.976,-3.118c0.861,-4.347 0.837,-4.313 3.989,-7.186c0.281,-0.295 2.653,-2.782 3.284,-3.897c8.363,-14.783 10.248,-13.476 10.749,-14.855c2.372,-6.527 2.337,-6.529 2.561,-6.907l3.264,-3.911l0.413,-1.594c1.73,-1.934 1.583,-1.789 3.573,-3.745c4.375,-4.781 6.78,-10.084 7.216,-11.045c0.739,-3.491 0.987,-3.273 3.691,-5.591l1.717,-1.861c0.725,-2.113 0.709,-1.915 2.076,-3.527c0.418,-0.449 0.356,-0.414 2.502,-3.242c8.071,-10.634 9.52,-13.906 10.112,-15.245c0.666,-2.025 0.635,-1.883 2.047,-3.565l1.575,-1.979c0.736,-2.086 0.742,-1.91 2.139,-3.5c5.798,-5.934 8.512,-11.756 9.045,-12.898c0.779,-3.654 1.177,-3.384 3.645,-5.618c0.428,-0.474 0.382,-0.489 6.433,-10.253c4.238,-6.838 6.036,-5.712 8.57,-13.374c0.527,-0.648 1.786,-2.195 3.202,-3.939l0.382,-1.613c1.769,-2.033 1.68,-1.931 3.401,-3.85c5.072,-4.041 8.718,-11.624 9.264,-12.761l1.776,-3.741c1.616,-1.593 4.314,-6.056 4.648,-6.609c3.202,-5.297 9.116,-9.821 12.259,-18.873c0.518,-0.653 1.755,-2.209 3.149,-3.97c0.724,-2.069 0.701,-1.928 2.084,-3.547c0.878,-1.022 9.973,-12.309 10.759,-14.796c0.588,-2.94 -0.022,-3.051 2.032,-5.469c0.308,-0.28 1.928,-1.754 3.783,-3.567c0.317,-0.413 0.364,-0.992 0.681,-1.405c10.55,-13.764 11.372,-15.468 12.096,-16.97c0.602,-2.151 0.618,-1.975 1.932,-3.643l1.543,-2.003c0.743,-2.082 0.744,-1.909 2.097,-3.53l1.576,-1.98l2.161,-3.48c1.26,-1.318 6.271,-7.42 6.96,-9.381c0.897,-4.267 0.844,-4.242 3.991,-7.202c3.899,-3.968 9.958,-13.592 10.738,-14.831c4.095,-6.504 3.089,-49.403 3.09,-58.557c0.03,-574.414 -1.313,-574.344 -0.937,-624.286c-3.866,-1.953 -4.221,-1.023 -927.229,-1.302c-9.389,-0.003 -9.548,1.13 -18.374,-2.122l-104.637,-0.003c-11.309,4.182 -15.925,0.762 -19.817,3.528l-0.025,1151.159c0,386.951 -0.204,387.669 1.675,388.755c0.638,0.368 1043.771,0.39 1066.408,0.084l1.876,-1.452c-0.029,-414.373 1.332,-414.316 1.002,-450.342c-1.717,0.907 -2.069,0.128 -3.289,1.737c-0.467,0.615 -0.735,0.019 -1.207,0.642l-0.206,1.701c-1.632,2.069 -1.54,1.967 -3.456,3.823c-6.646,7.135 -11.8,16.889 -12.636,18.472c-0.665,2.092 -0.679,1.984 -2.025,3.578l-1.567,1.985c-0.742,2.101 -0.724,1.905 -2.13,3.509c-5.782,5.928 -8.544,11.734 -9.086,12.873c-1.522,7.217 -3.908,7.635 -5.584,9.18c-9.341,9.106 -12.465,18.238 -13.085,20.05c-1.688,1.958 -1.551,1.812 -3.454,3.802c-2.476,3.273 -1.76,3.599 -4.34,6.917c-7.548,9.704 -7.904,10.449 -8.395,11.476l-1.689,3.779l-0.339,1.645l-3.283,3.899l-0.393,1.607c-1.769,1.983 -1.672,1.883 -3.6,3.727c-2.134,2.292 -1.9,2.42 -9.342,14.578c-1.8,2.002 -1.714,1.908 -3.503,3.786c-2.514,3.36 -1.854,3.623 -4.354,6.908c-7.737,10.164 -9.519,13.9 -10.149,15.221c-0.648,2.1 -0.629,1.959 -2.007,3.588l-1.601,1.963c-0.678,2.01 -0.647,1.868 -2.107,3.521c-4.109,4.103 -10.636,14.478 -10.751,14.818c-0.409,2.213 -0.539,2.038 -2.049,3.592c-1.614,1.959 -1.509,1.785 -1.614,1.959c-11.414,18.864 -12.225,18.317 -13.024,20.056c-0.868,3.41 -1.247,3.079 -3.732,5.514c-1.602,1.964 -1.495,1.792 -1.602,1.964c-0.488,0.782 0.069,0.856 -0.392,1.595c-1.698,1.965 -1.628,1.895 -3.565,3.747c-2.743,2.767 -7.389,8.561 -8.94,11.165c-0.641,2.158 -0.637,2.015 -1.959,3.65c-2.371,1.937 -2.535,1.416 -5.57,1.97c-23.192,8.982 -25.869,10.652 -27.932,11.937l-5.049,1.084l-0.403,0.759l-5.13,1.017l-0.384,0.801c-2.632,0.602 -2.49,0.593 -5.215,0.871c-3.737,1.124 -34.192,10.281 -46.188,15.673c-2.582,0.643 -2.446,0.625 -5.17,0.925l-0.337,0.911c-2.648,0.619 -2.505,0.593 -5.24,0.803c-23.835,6.229 -23.567,7.157 -25.692,7.4c-5.525,0.632 -352.071,0.274 -356.262,0.186c-5.87,-0.124 -8.827,-0.886 -11.479,-2.102l-39.474,-0l0,-80.066l356.032,-0c1.245,-2.146 0.505,-9.501 0.426,-10.28c-1.807,-6.22 -0.888,-6.196 -1.064,-8.948l-0.045,-12.793c-2.606,-3.658 -1.453,-3.897 -1.754,-11.077l0.118,-11.013c-4.51,-11.966 -2.021,-26.844 -0.12,-29.479l0.101,-1.79c0.416,-5.167 0.568,-5.104 3.572,-9.306c0.736,-2.036 0.707,-1.893 2.102,-3.556c3.563,-4.921 8.349,-13.565 9.02,-14.776c0.672,-2.134 0.685,-1.959 2.043,-3.555l1.567,-1.989c0.689,-2.027 0.659,-1.884 2.048,-3.563l1.556,-1.991c0.757,-2.059 0.758,-1.883 2.157,-3.491c6.222,-6.299 8.541,-11.73 9.036,-12.888c0.924,-3.428 1.336,-3.035 3.483,-5.654l0.386,-1.614c1.82,-2.029 1.727,-1.926 3.617,-3.718c6.777,-7.03 8.949,-13.243 9.406,-14.551c1.687,-1.97 1.577,-1.852 3.458,-3.796c4.478,-5.996 3.3,-6.586 8.032,-12.401c4.285,-5.266 4.725,-4.876 6.819,-11.375l3.182,-3.953l0.385,-1.61c1.764,-1.98 1.669,-1.881 3.593,-3.735c2.24,-2.396 8.887,-12.718 8.953,-12.952c0.246,-1.679 0.345,-2.008 1.141,-2.813l-640.079,-0l-0,-96.922l706.683,0Zm-706.886,-648.958l-0,-96.922l749.989,0l-0,96.922l-749.989,0Zm0.078,370.833l0,-96.922l749.989,0l0,96.922l-749.989,0Z" style="fill:#566b8d;fill-opacity:0.99;"/></g></svg>