<svg xmlns="http://www.w3.org/2000/svg" xml:space="preserve" style="fill-rule:evenodd;clip-rule:evenodd;stroke-linejoin:round;stroke-miterlimit:2" viewBox="0 0 2084 2084"><path d="M0 0h2083.33v2083.33H0z" style="fill:none"/><path d="M1715.38 223.305c79.142 0 143.705 64.563 143.705 143.705v1347.9c0 79.142-64.563 143.705-143.705 143.705H367.48c-79.142 0-143.705-64.563-143.705-143.705V367.01c0-79.142 64.563-143.705 143.705-143.705zm0-70.811H367.48c-118.713 0-214.515 96.22-214.515 214.516v1347.9c0 118.713 96.219 214.516 214.515 214.516h1347.9c118.713 0 214.517-96.219 214.517-214.516V367.01c0-118.713-95.804-214.516-214.517-214.516" style="fill:#566b8d;fill-rule:nonzero"/><path d="M1745.13 448.833v221.266c0 61.061-49.573 110.634-110.633 110.634H1413.23c-61.06 0-110.633-49.573-110.633-110.634V448.833c0-61.061 49.573-110.634 110.633-110.634h221.267c61.06 0 110.633 49.573 110.633 110.634m-33.424 0c0-42.613-34.597-77.209-77.209-77.209H1413.23c-42.613 0-77.209 34.596-77.209 77.209v221.266c0 42.613 34.596 77.209 77.209 77.209h221.267c42.612 0 77.209-34.596 77.209-77.209zM1745.13 931.033V1152.3c0 61.06-49.573 110.633-110.633 110.633H1413.23c-61.06 0-110.633-49.573-110.633-110.633V931.033c0-61.06 49.573-110.633 110.633-110.633h221.267c61.06 0 110.633 49.573 110.633 110.633m-33.424 0c0-42.612-34.597-77.208-77.209-77.208H1413.23c-42.613 0-77.209 34.596-77.209 77.208V1152.3c0 42.613 34.596 77.209 77.209 77.209h221.267c42.612 0 77.209-34.596 77.209-77.209zM1745.13 1413.23v221.267c0 61.06-49.573 110.633-110.633 110.633H1413.23c-61.06 0-110.633-49.573-110.633-110.633V1413.23c0-61.06 49.573-110.633 110.633-110.633h221.267c61.06 0 110.633 49.573 110.633 110.633m-33.424 0c0-42.613-34.597-77.209-77.209-77.209H1413.23c-42.613 0-77.209 34.596-77.209 77.209v221.267c0 42.612 34.596 77.209 77.209 77.209h221.267c42.612 0 77.209-34.597 77.209-77.209zM1262.93 448.833v221.266c0 61.061-49.573 110.634-110.633 110.634H931.03c-61.06 0-110.633-49.573-110.633-110.634V448.833c0-61.061 49.573-110.634 110.633-110.634h221.267c61.06 0 110.633 49.573 110.633 110.634m-33.424 0c0-42.613-34.596-77.209-77.209-77.209H931.03c-42.612 0-77.208 34.596-77.208 77.209v221.266c0 42.613 34.596 77.209 77.208 77.209h221.267c42.613 0 77.209-34.596 77.209-77.209zM1262.93 931.033V1152.3c0 61.06-49.573 110.633-110.633 110.633H931.03c-61.06 0-110.633-49.573-110.633-110.633V931.033c0-61.06 49.573-110.633 110.633-110.633h221.267c61.06 0 110.633 49.573 110.633 110.633m-33.424 0c0-42.612-34.596-77.208-77.209-77.208H931.03c-42.612 0-77.208 34.596-77.208 77.208V1152.3c0 42.613 34.596 77.209 77.208 77.209h221.267c42.613 0 77.209-34.596 77.209-77.209zM1262.93 1413.23v221.267c0 61.06-49.573 110.633-110.633 110.633H931.03c-61.06 0-110.633-49.573-110.633-110.633V1413.23c0-61.06 49.573-110.633 110.633-110.633h221.267c61.06 0 110.633 49.573 110.633 110.633m-33.424 0c0-42.613-34.596-77.209-77.209-77.209H931.03c-42.612 0-77.208 34.596-77.208 77.209v221.267c0 42.612 34.596 77.209 77.208 77.209h221.267c42.613 0 77.209-34.597 77.209-77.209zM780.733 448.833v221.266c0 61.061-49.573 110.634-110.634 110.634H448.833c-61.061 0-110.634-49.573-110.634-110.634V448.833c0-61.061 49.573-110.634 110.634-110.634h221.266c61.061 0 110.634 49.573 110.634 110.634m-33.425 0c0-42.613-34.596-77.209-77.209-77.209H448.833c-42.613 0-77.209 34.596-77.209 77.209v221.266c0 42.613 34.596 77.209 77.209 77.209h221.266c42.613 0 77.209-34.596 77.209-77.209zM780.733 931.033V1152.3c0 61.06-49.573 110.633-110.634 110.633H448.833c-61.061 0-110.634-49.573-110.634-110.633V931.033c0-61.06 49.573-110.633 110.634-110.633h221.266c61.061 0 110.634 49.573 110.634 110.633m-33.425 0c0-42.612-34.596-77.208-77.209-77.208H448.833c-42.613 0-77.209 34.596-77.209 77.208V1152.3c0 42.613 34.596 77.209 77.209 77.209h221.266c42.613 0 77.209-34.596 77.209-77.209zM780.733 1413.23v221.267c0 61.06-49.573 110.633-110.634 110.633H448.833c-61.061 0-110.634-49.573-110.634-110.633V1413.23c0-61.06 49.573-110.633 110.634-110.633h221.266c61.061 0 110.634 49.573 110.634 110.633m-33.425 0c0-42.613-34.596-77.209-77.209-77.209H448.833c-42.613 0-77.209 34.596-77.209 77.209v221.267c0 42.612 34.596 77.209 77.209 77.209h221.266c42.613 0 77.209-34.597 77.209-77.209z" style="fill:#566b8d"/></svg>
