<?xml version="1.0" encoding="UTF-8" standalone="no"?><!DOCTYPE svg PUBLIC "-//W3C//DTD SVG 1.1//EN" "http://www.w3.org/Graphics/SVG/1.1/DTD/svg11.dtd"><svg width="100%" height="100%" viewBox="0 0 2088 2084" version="1.1" xmlns="http://www.w3.org/2000/svg" xmlns:xlink="http://www.w3.org/1999/xlink" xml:space="preserve" xmlns:serif="http://www.serif.com/" style="fill-rule:evenodd;clip-rule:evenodd;stroke-linejoin:round;stroke-miterlimit:2;"><rect id="grid-element" x="2.71" y="-0" width="2083.333" height="2083.333" style="fill:none;"/><g id="element"><path d="M1787.128,140.539c87.221,0 158.375,71.153 158.375,158.375l0,1485.504c0,87.221 -71.153,158.375 -158.375,158.375l-1485.504,0c-87.221,0 -158.375,-71.153 -158.375,-158.375l0,-1485.504c0,-87.221 71.153,-158.375 158.375,-158.375l1485.504,0m0,-78.039l-1485.504,0c-130.831,0 -236.414,106.042 -236.414,236.414l0,1485.504c0,130.831 106.042,236.415 236.414,236.415l1485.504,0c130.831,0 236.415,-106.042 236.415,-236.415l0,-1485.504c0,-130.831 -105.584,-236.414 -236.415,-236.414Z" style="fill:#566b8d;fill-rule:nonzero;"/></g><g id="Grid"><path d="M1794.377,414.083l0,235.903c0,65.099 -52.852,117.951 -117.951,117.951l-235.903,0c-65.099,0 -117.951,-52.852 -117.951,-117.951l0,-235.903c0,-65.099 52.852,-117.951 117.951,-117.951l235.903,0c65.099,0 117.951,52.852 117.951,117.951Zm-33.425,0c0,-46.652 -37.875,-84.527 -84.527,-84.527l-235.903,0c-46.652,0 -84.527,37.875 -84.527,84.527l0,235.903c0,46.652 37.875,84.527 84.527,84.527l235.903,0c46.652,0 84.527,-37.875 84.527,-84.527l0,-235.903Z" style="fill:#566b8d;"/><path d="M1794.377,928.181l0,235.903c0,65.099 -52.852,117.951 -117.951,117.951l-235.903,0c-65.099,0 -117.951,-52.852 -117.951,-117.951l0,-235.903c0,-65.099 52.852,-117.951 117.951,-117.951l235.903,0c65.099,0 117.951,52.852 117.951,117.951Zm-33.425,0c0,-46.652 -37.875,-84.527 -84.527,-84.527l-235.903,0c-46.652,0 -84.527,37.875 -84.527,84.527l0,235.903c0,46.652 37.875,84.527 84.527,84.527l235.903,0c46.652,0 84.527,-37.875 84.527,-84.527l0,-235.903Z" style="fill:#566b8d;"/><path d="M1794.377,1442.278l0,235.903c0,65.099 -52.852,117.951 -117.951,117.951l-235.903,0c-65.099,0 -117.951,-52.852 -117.951,-117.951l0,-235.903c0,-65.099 52.852,-117.951 117.951,-117.951l235.903,0c65.099,0 117.951,52.852 117.951,117.951Zm-33.425,0c0,-46.652 -37.875,-84.527 -84.527,-84.527l-235.903,0c-46.652,0 -84.527,37.875 -84.527,84.527l0,235.903c0,46.652 37.875,84.527 84.527,84.527l235.903,0c46.652,0 84.527,-37.875 84.527,-84.527l0,-235.903Z" style="fill:#566b8d;"/><path d="M1280.279,414.083l0,235.903c0,65.099 -52.852,117.951 -117.951,117.951l-235.903,0c-65.099,0 -117.951,-52.852 -117.951,-117.951l0,-235.903c0,-65.099 52.852,-117.951 117.951,-117.951l235.903,0c65.099,0 117.951,52.852 117.951,117.951Zm-33.425,-0c-0,-46.652 -37.875,-84.527 -84.527,-84.527l-235.903,0c-46.652,0 -84.527,37.875 -84.527,84.527l0,235.903c0,46.652 37.875,84.527 84.527,84.527l235.903,0c46.652,0 84.527,-37.875 84.527,-84.527l-0,-235.903Z" style="fill:#566b8d;"/><path d="M1280.279,928.181l0,235.903c0,65.099 -52.852,117.951 -117.951,117.951l-235.903,0c-65.099,0 -117.951,-52.852 -117.951,-117.951l0,-235.903c0,-65.099 52.852,-117.951 117.951,-117.951l235.903,0c65.099,0 117.951,52.852 117.951,117.951Zm-33.425,-0c-0,-46.652 -37.875,-84.527 -84.527,-84.527l-235.903,0c-46.652,0 -84.527,37.875 -84.527,84.527l0,235.903c0,46.652 37.875,84.527 84.527,84.527l235.903,0c46.652,0 84.527,-37.875 84.527,-84.527l-0,-235.903Z" style="fill:#566b8d;"/><path d="M1280.279,1442.278l0,235.903c0,65.099 -52.852,117.951 -117.951,117.951l-235.903,0c-65.099,0 -117.951,-52.852 -117.951,-117.951l0,-235.903c0,-65.099 52.852,-117.951 117.951,-117.951l235.903,0c65.099,0 117.951,52.852 117.951,117.951Zm-33.425,-0c-0,-46.652 -37.875,-84.527 -84.527,-84.527l-235.903,0c-46.652,0 -84.527,37.875 -84.527,84.527l0,235.903c0,46.652 37.875,84.527 84.527,84.527l235.903,0c46.652,0 84.527,-37.875 84.527,-84.527l-0,-235.903Z" style="fill:#566b8d;"/><path d="M766.182,414.083l0,235.903c0,65.099 -52.852,117.951 -117.951,117.951l-235.903,0c-65.099,0 -117.951,-52.852 -117.951,-117.951l0,-235.903c0,-65.099 52.852,-117.951 117.951,-117.951l235.903,0c65.099,0 117.951,52.852 117.951,117.951Zm-33.425,0c0,-46.652 -37.875,-84.527 -84.527,-84.527l-235.903,0c-46.652,0 -84.527,37.875 -84.527,84.527l0,235.903c0,46.652 37.875,84.527 84.527,84.527l235.903,0c46.652,0 84.527,-37.875 84.527,-84.527l0,-235.903Z" style="fill:#566b8d;"/><path d="M766.182,928.181l0,235.903c0,65.099 -52.852,117.951 -117.951,117.951l-235.903,0c-65.099,0 -117.951,-52.852 -117.951,-117.951l0,-235.903c0,-65.099 52.852,-117.951 117.951,-117.951l235.903,0c65.099,0 117.951,52.852 117.951,117.951Zm-33.425,0c0,-46.652 -37.875,-84.527 -84.527,-84.527l-235.903,0c-46.652,0 -84.527,37.875 -84.527,84.527l0,235.903c0,46.652 37.875,84.527 84.527,84.527l235.903,0c46.652,0 84.527,-37.875 84.527,-84.527l0,-235.903Z" style="fill:#566b8d;"/><path d="M766.182,1442.278l0,235.903c0,65.099 -52.852,117.951 -117.951,117.951l-235.903,0c-65.099,0 -117.951,-52.852 -117.951,-117.951l0,-235.903c0,-65.099 52.852,-117.951 117.951,-117.951l235.903,0c65.099,0 117.951,52.852 117.951,117.951Zm-33.425,0c0,-46.652 -37.875,-84.527 -84.527,-84.527l-235.903,0c-46.652,0 -84.527,37.875 -84.527,84.527l0,235.903c0,46.652 37.875,84.527 84.527,84.527l235.903,0c46.652,0 84.527,-37.875 84.527,-84.527l0,-235.903Z" style="fill:#566b8d;"/></g></svg>