<?xml version="1.0" encoding="UTF-8" standalone="no"?><!DOCTYPE svg PUBLIC "-//W3C//DTD SVG 1.1//EN" "http://www.w3.org/Graphics/SVG/1.1/DTD/svg11.dtd"><svg width="100%" height="100%" viewBox="0 0 2084 2084" version="1.1" xmlns="http://www.w3.org/2000/svg" xmlns:xlink="http://www.w3.org/1999/xlink" xml:space="preserve" xmlns:serif="http://www.serif.com/" style="fill-rule:evenodd;clip-rule:evenodd;stroke-linejoin:round;stroke-miterlimit:2;"><rect id="link-element" x="0" y="0" width="2083.333" height="2083.333" style="fill:none;"/><g id="element"><path d="M1784.418,140.539c87.221,0 158.375,71.153 158.375,158.375l0,1485.504c0,87.221 -71.153,158.375 -158.375,158.375l-1485.504,0c-87.221,0 -158.375,-71.153 -158.375,-158.375l0,-1485.504c0,-87.221 71.153,-158.375 158.375,-158.375l1485.504,0m0,-78.039l-1485.504,0c-130.831,0 -236.414,106.042 -236.414,236.414l0,1485.504c0,130.831 106.042,236.415 236.414,236.415l1485.504,0c130.831,0 236.415,-106.042 236.415,-236.415l0,-1485.504c0,-130.831 -105.584,-236.414 -236.415,-236.414Z" style="fill:#566b8d;fill-rule:nonzero;"/></g><g id="Link"><path id="Link1" serif:id="Link" d="M291.744,1419.704l0.008,-52.923c0.238,-2.917 0.024,-2.816 0.808,-5.682c1.464,-19.897 5.953,-35.718 6.59,-48.682c0.217,-2.125 0.176,-2.036 0.733,-4.197c0.49,-2.026 0.731,-1.934 6.692,-25.187c0.157,-2.227 0.148,-2.116 0.625,-4.195l0.686,-0.28c0.296,-2.157 0.279,-2.046 0.807,-4.119c0.496,-1.443 3.34,-9.726 6.644,-17.876l0.694,-4.12c3.32,-5.323 4.661,-9.106 7.4,-16.17c3.551,-9.161 3.482,-9.024 3.582,-9.177c0.584,-0.894 15.924,-31.32 16.512,-32.15c5.394,-7.605 12.62,-20.029 13.655,-21.809c0.862,-1.482 0.494,-1.514 1.034,-3.169c1.359,-1.603 1.25,-1.492 2.832,-2.999c2.616,-2.689 2.661,-2.503 4.298,-5.92c0.737,-2.707 1.091,-2.448 3.042,-4.371c0.457,-0.596 5.404,-7.038 5.725,-7.44c0.797,-2.676 1.145,-2.406 3.08,-4.325c2.812,-2.296 7.967,-9.332 10.283,-11.756c1.432,-1.499 3.992,-5.626 10.288,-11.75c0.755,-0.735 0.616,-0.752 1.298,-1.584c0.704,-2.274 0.77,-2.312 2.953,-3.028c2.195,-1.9 12.986,-13.068 13.116,-13.22c1.456,-1.548 2.757,-2.771 3.004,-3.004c0.986,-0.838 5.021,-4.884 5.811,-5.81c0.233,-0.248 1.454,-1.549 3.003,-3.006c1.033,-0.881 5.132,-5.002 5.821,-5.807c1.474,-1.531 2.77,-2.748 3.017,-2.981c0.739,-0.63 0.649,-0.589 4.347,-4.348c1.459,-1.54 2.752,-2.769 2.998,-3.003c3.224,-2.719 3.125,-2.642 5.816,-5.813c1.461,-1.539 2.754,-2.767 3,-3c3.242,-2.75 3.153,-2.662 5.813,-5.815c0.234,-0.246 1.463,-1.539 3.003,-2.998c0.734,-0.625 0.645,-0.585 4.349,-4.347c1.46,-1.539 2.751,-2.769 2.997,-3.003c3.227,-2.72 3.127,-2.645 5.815,-5.814c1.459,-1.541 2.753,-2.768 3,-3.002c3.241,-2.741 3.149,-2.658 5.813,-5.814c0.234,-0.246 1.463,-1.539 3.003,-2.998c1.134,-0.965 7.143,-6.076 13.161,-13.164c1.459,-1.541 2.753,-2.768 2.999,-3.002c3.244,-2.741 3.15,-2.659 5.814,-5.813c0.234,-0.246 1.461,-1.54 3.002,-3c7.094,-6.023 12.199,-12.027 13.163,-13.161c1.459,-1.54 2.752,-2.769 2.998,-3.003c3.24,-2.735 3.144,-2.656 5.814,-5.813c0.234,-0.246 1.461,-1.54 3.002,-3c3.243,-2.75 3.155,-2.66 5.813,-5.815c0.234,-0.246 1.464,-1.537 3.003,-2.997c0.74,-0.632 0.65,-0.59 4.347,-4.349c1.459,-1.54 2.752,-2.769 2.998,-3.003c3.23,-2.725 3.133,-2.647 5.815,-5.813c0.234,-0.246 1.462,-1.539 3,-3c3.241,-2.75 3.152,-2.661 5.813,-5.816c0.234,-0.246 1.463,-1.538 3.003,-2.998c0.756,-0.643 0.664,-0.602 4.348,-4.348c1.459,-1.54 2.752,-2.769 2.998,-3.003c3.224,-2.719 3.125,-2.642 5.816,-5.813c1.461,-1.539 2.754,-2.767 3,-3c3.243,-2.748 3.152,-2.661 5.813,-5.815c0.234,-0.246 1.463,-1.539 3.003,-2.998c0.735,-0.625 0.646,-0.585 4.349,-4.347c1.46,-1.539 2.751,-2.769 2.997,-3.003c3.228,-2.72 3.128,-2.645 5.815,-5.813c1.459,-1.541 2.753,-2.768 3,-3.002c3.241,-2.741 3.149,-2.658 5.813,-5.814c0.234,-0.246 1.463,-1.539 3.003,-2.998c1.134,-0.965 7.138,-6.07 13.161,-13.163c1.46,-1.541 2.753,-2.768 3,-3.002c3.239,-2.735 3.143,-2.655 5.813,-5.814c0.234,-0.246 1.461,-1.54 3.002,-2.999c7.088,-6.019 12.199,-12.027 13.164,-13.161c1.459,-1.54 2.752,-2.769 2.998,-3.003c3.628,-3.062 3.604,-2.96 6.224,-6.974l2.57,-1.864c0.94,-0.803 4.983,-4.832 5.813,-5.809c0.233,-0.247 1.457,-1.547 3.004,-3.003c0.653,-0.56 3.949,-3.879 4.35,-4.346c1.472,-1.53 2.769,-2.749 3.017,-2.981c3.257,-2.746 3.146,-2.675 5.825,-5.811c0.991,-1.449 0.372,-2.074 3.046,-2.945c3.214,-2.632 3.133,-2.504 5.829,-5.816c0.673,-2.338 0.774,-2.34 3.068,-2.943c2.425,-1.092 2.423,-0.994 4.228,-2.994l1.638,-2.811c1.35,-1.104 1.279,-1.088 2.948,-1.539c2.4,-1.137 2.39,-1.054 4.2,-3.027l1.682,-2.765l1.565,-1.353c5.535,-3.201 5.608,-2.972 10.239,-7.413c1.327,-1.121 1.185,-1.119 2.819,-1.668c6.904,-5.402 6.916,-5.168 7.462,-5.682c1.444,-1.489 1.375,-1.431 3.008,-2.822c4.186,-1.39 4.134,-1.348 7.299,-4.498c1.254,-1.131 1.112,-1.141 2.798,-1.719c0.987,-0.501 7.147,-3.628 11.85,-7.156c1.515,-1.492 1.445,-1.425 3.002,-2.845l1.315,-0.293c1.467,-0.981 1.352,-0.943 3.042,-1.292c4.471,-2.098 10.137,-5.77 10.284,-5.842c1.871,-1.526 1.907,-1.166 4.349,-1.712c1.118,-0.451 0.694,-0.962 13.281,-7.105c1.869,-1.517 1.973,-1.17 4.361,-1.689c0.944,-0.361 10.724,-4.929 11.788,-5.678c1.84,-1.557 1.88,-1.36 4.342,-1.7l0.314,-0.661l4.147,-0.728c11.391,-4.384 13.877,-5.926 14.991,-6.617c2.049,-0.505 1.94,-0.492 4.132,-0.715c12.016,-2.092 23.28,-7.21 25.208,-8.087c2.116,-0.528 2.006,-0.495 4.189,-0.696c14.944,-1.38 14.29,-4.431 30.772,-6.173c2.207,-0.859 2.107,-0.947 4.489,-1.241l2.896,-0.067c3.47,-2.521 3.742,-1.193 7.401,-1.31c14.647,-0.605 54.929,-5.459 74.812,-2.286c8.654,1.381 28.503,2.185 30.987,2.286c4.276,0.15 4.452,-0.784 7.404,1.305l2.893,0.072c2.152,0.262 2.043,0.218 4.201,0.789c15.746,2.576 15.415,3.716 31.059,6.621c2.842,0.121 2.784,-0.119 5.629,0.66c3.228,2.059 21.844,7.551 23.771,8.12c2.142,0.236 2.037,0.212 4.17,0.729c7.505,3.403 7.46,3.274 14.974,6.532c3.247,0.282 3.447,-0.361 5.832,1.712c27.461,12.996 27.713,12.21 35.473,17.217c1.968,1.27 2.272,0.473 4.195,1.895c3.487,2.578 3.376,2.556 7.363,4.327c1.68,0.487 1.602,0.51 2.918,1.553c2.93,1.704 11.787,6.854 35.329,23.393c2.689,0.751 2.428,1.1 4.346,3.055c3.005,3.736 2.97,3.809 7.385,5.751c2.284,0.622 2.379,0.622 3.077,2.925c3.167,3.581 4.017,2.484 7.236,5.919c3.544,3.782 3.235,3.975 7.441,7.185c1.511,0.89 1.801,0.299 2.848,1.677l1.369,1.553c1.641,1.65 12.369,12.441 20.574,20.565c2.167,1.824 2.733,1.425 3.195,4.24l1.305,1.555c0.161,0.19 0.231,-0.053 2.311,2.083c8.884,9.126 7.5,10.15 8.418,10.741c3.242,2.087 3.059,2.253 4.575,5.838c0.402,0.952 3.293,3.319 3.607,3.576c1.641,1.36 1.57,1.293 2.959,2.871c1.082,1.822 10.488,17.653 14.783,21.977c1.155,1.3 1.136,1.187 1.684,2.828c0.486,0.995 3.357,6.877 7.137,11.863c1.13,1.298 1.111,1.185 1.669,2.839c0.189,0.484 5.627,11.154 7.172,13.306c1.058,1.343 1.047,1.228 1.546,2.929c2.139,4.895 2.236,4.764 5.213,9.13c1.701,2.496 0.299,3.007 2.062,5.571c1.629,1.956 1.356,2.025 1.649,4.438c-0.959,4.556 -10.76,11.61 -16.119,17.854c-1.464,1.538 -2.754,2.768 -3,3.003c-2.038,1.746 -18.26,18.191 -19.834,19.786c-1.517,1.538 -1.367,1.523 -2.543,3.356c-1.398,1.653 -1.327,1.57 -2.815,3.026c-0.354,0.352 -2.593,2.577 -4.399,4.416c-2.082,2.461 -2.015,2.371 -4.411,4.406c-1.765,1.738 -4.066,4.043 -4.419,4.396c-1.144,1.147 -1.765,1.768 -2.939,2.939c-0.353,0.352 -2.64,2.636 -4.396,4.419c-2.058,2.419 -1.971,2.348 -4.407,4.41c-0.356,0.349 -2.224,2.184 -4.407,4.407c-2.085,2.464 -2.018,2.374 -4.41,4.407c-1.777,1.749 -4.067,4.042 -4.42,4.395c-1.144,1.147 -1.765,1.768 -2.939,2.939c-0.353,0.352 -2.657,2.654 -4.396,4.419c-2.085,2.452 -2.009,2.375 -4.412,4.405c-2.03,2.002 -4.059,4.051 -4.41,4.405c-2.07,2.368 -1.958,2.263 -4.408,4.408c-8.149,8.061 -7.877,8.204 -16.176,16.147c-2.648,2.535 -2.867,2.105 -5.594,4.637c-0.912,1.313 -0.261,2.005 -3.042,2.955c-2.401,1.943 -5.565,5.189 -6.026,5.663c-1.319,1.093 -1.176,1.106 -2.882,1.618c-0.676,0.322 -3.152,1.501 -7.394,5.739c-1.309,1.145 -1.195,1.126 -2.838,1.675c-5.386,2.61 -5.057,3.054 -10.392,5.67c-1.857,1.633 -1.864,1.508 -4.238,2.057c-0.679,0.169 -1.016,1.07 -1.695,1.239c-0.188,0.047 -0.137,-0.115 -1.855,-1.559c-2.045,-3.381 -1.083,-3.53 -1.143,-9.108c-0.178,-2.536 -1.349,-19.265 -6.739,-31.056c-0.516,-2.082 -0.495,-1.966 -0.702,-4.187c-0.118,-1.063 1.053,-1.355 -5.137,-14.942c-1.288,-2.827 -1.435,-2.712 -1.485,-2.973c-0.276,-1.437 0.039,-1.423 -0.801,-2.561c-1.421,-2.036 -1.016,-2.118 -1.418,-4.468c-0.38,-0.972 -3.248,-8.319 -5.845,-11.663c-2.531,-2.446 -2.416,-2.476 -2.997,-5.938c-0.682,-1.439 -0.865,-1.141 -11.012,-16.587c-2.368,-3.605 -3.256,-2.825 -5.172,-6.832c-0.497,-1.04 -1.463,-0.153 -9.51,-10.826c-0.998,-1.323 -1.03,-1.118 -2.159,-2.343c-1.701,-0.556 -1.54,-0.589 -2.818,-1.641l-1.656,-2.806c-0.699,-0.822 -0.979,-0.5 -10.066,-8.979c-5.372,-5.013 -13.132,-10.049 -14.338,-10.832c-10.12,-6.568 -9.624,-7.501 -14.978,-8.381c-1.587,-1.358 -1.524,-1.3 -3.043,-2.765c-4.052,-2.768 -40.614,-20.444 -67.529,-22.017c-5.357,0.171 -5.323,0.397 -10.296,-1.37l-10.271,0.062l-10.28,0.005l-11.741,-0.064c-4.974,1.759 -4.951,1.535 -10.295,1.388c-2.427,0.119 -23.475,1.147 -29.618,6.735c-2.843,0.777 -2.76,0.546 -5.62,0.688c-9.611,1.242 -10.715,5.051 -17.432,6.202c-2.714,2.057 -2.632,2.047 -6.043,2.633c-1.125,0.433 -7.996,3.078 -13.255,7.164c-1.81,1.538 -1.911,1.202 -4.289,1.734c-0.617,0.203 -4.54,2.76 -6.012,4.117c-1.303,1.114 -1.162,1.115 -2.813,1.698c-3.218,1.667 -21.611,15.801 -29.288,23.457c-0.755,2.241 -0.791,2.24 -3.029,2.95c-3.301,2.658 -3.189,2.577 -5.84,5.807c-0.686,2.297 -0.735,2.314 -2.989,2.989c-3.326,2.695 -3.228,2.597 -5.812,5.834c-0.668,2.256 -0.7,2.314 -3.007,2.973c-0.382,0.312 -0.195,0.342 -4.368,4.356c-0.94,3.339 -1.114,3.516 -4.457,4.444c-0.378,0.317 -0.205,0.337 -4.348,4.379c-0.668,2.235 -0.712,2.307 -2.98,2.994c-3.289,2.691 -3.186,2.596 -5.825,5.829c-0.686,2.26 -0.753,2.309 -2.997,2.976c-0.381,0.314 -0.214,0.336 -4.372,4.354c-0.934,3.333 -1.104,3.514 -4.452,4.448c-0.379,0.317 -0.211,0.336 -4.351,4.376c-0.668,2.237 -0.713,2.307 -2.979,2.996c-3.291,2.687 -3.186,2.595 -5.829,5.825c-0.687,2.268 -0.759,2.313 -2.994,2.98c-0.381,0.314 -0.212,0.336 -4.377,4.35c-0.933,3.35 -1.116,3.519 -4.447,4.453c-0.379,0.316 -0.212,0.336 -4.355,4.372c-0.666,2.24 -0.712,2.309 -2.975,2.999c-3.287,2.679 -3.181,2.588 -5.832,5.822c-0.685,2.27 -0.756,2.314 -2.989,2.985c-0.382,0.313 -0.213,0.336 -4.383,4.344c-0.926,3.343 -1.102,3.516 -4.441,4.46c-0.38,0.316 -0.213,0.336 -4.36,4.366c-0.664,2.244 -0.711,2.312 -2.972,3.001c-3.295,2.684 -3.189,2.594 -5.833,5.821c-0.685,2.274 -0.76,2.316 -2.987,2.987c-3.293,2.698 -3.19,2.602 -5.821,5.833c-0.689,2.261 -0.758,2.308 -3.001,2.972c-0.38,0.315 -0.213,0.336 -4.366,4.36c-0.943,3.339 -1.117,3.515 -4.46,4.441c-0.378,0.317 -0.208,0.337 -4.344,4.383c-0.671,2.233 -0.715,2.305 -2.985,2.989c-3.295,2.701 -3.192,2.605 -5.822,5.832c-0.69,2.263 -0.76,2.309 -2.999,2.975c-0.381,0.314 -0.214,0.336 -4.372,4.355c-0.934,3.331 -1.103,3.513 -4.453,4.447c-0.378,0.317 -0.209,0.336 -4.35,4.377c-0.668,2.235 -0.712,2.307 -2.98,2.994c-3.289,2.691 -3.186,2.596 -5.825,5.829c-0.688,2.266 -0.758,2.311 -2.996,2.979c-0.381,0.314 -0.214,0.336 -4.376,4.351c-0.935,3.348 -1.115,3.518 -4.448,4.452c-0.379,0.316 -0.212,0.336 -4.354,4.372c-0.667,2.245 -0.716,2.311 -2.976,2.997c-3.291,2.687 -3.185,2.595 -5.829,5.825c-0.687,2.268 -0.759,2.313 -2.994,2.98c-0.381,0.314 -0.209,0.336 -4.379,4.348c-0.928,3.344 -1.106,3.517 -4.444,4.456c-0.379,0.316 -0.214,0.336 -4.356,4.37c-0.666,2.24 -0.712,2.309 -2.974,3c-3.293,2.683 -3.187,2.591 -5.833,5.821c-0.684,2.27 -0.756,2.314 -2.989,2.985c-3.288,2.699 -3.188,2.6 -5.82,5.835c-0.688,2.256 -0.753,2.307 -3.005,2.967c-0.379,0.316 -0.208,0.336 -4.362,4.366c-0.662,2.246 -0.71,2.314 -2.97,3.003c-3.286,2.674 -3.179,2.585 -5.834,5.821c-0.671,2.234 -0.716,2.305 -2.985,2.988c-3.199,2.621 -3.149,2.507 -5.815,5.835c-0.669,2.257 -0.702,2.314 -3.008,2.972c-0.383,0.311 -0.186,0.345 -4.363,4.358c-0.936,3.426 -1.137,3.554 -4.463,4.444c-0.381,0.314 -0.171,0.346 -4.347,4.374c-0.665,2.243 -0.672,2.302 -2.981,2.995c-3.686,3.021 -3.78,2.905 -6.1,7.101l-2.638,1.793c-2.841,2.447 -2.925,2.312 -4.486,5.672c-0.605,2.298 -0.614,2.39 -2.912,3.071c-0.468,0.422 -0.425,0.437 -5.846,7.276c-0.529,1.624 -0.525,1.481 -1.668,2.812c-2.237,2.408 -4.597,4.582 -7.224,10.334c-0.404,1.732 -0.398,1.591 -1.4,3.003c-4.171,4.309 -3.475,4.703 -5.994,10.197c-0.36,1.747 -0.334,1.636 -1.273,3.041c-0.48,1.636 -0.436,1.522 -1.474,2.936c-2.585,3.156 -5.534,10.711 -5.915,11.688l-0.759,4.093c-4.925,7.944 -7.726,23.163 -8.11,25.25c-0.222,2.209 -0.19,2.1 -0.723,4.196l-0.675,3.157c-0.27,2.208 -0.238,2.102 -0.793,4.195c-6.037,35.152 -3.667,35.325 -0.487,66.208c0.88,2.179 0.995,2.072 1.282,4.486l0.098,2.879c1.808,2.707 1.122,2.804 1.3,5.94c0.17,1.585 1.296,12.068 5.777,19.073c0.044,0.052 2.453,1.907 3.02,8.823c0.898,2.184 7.982,19.418 13.114,26.449c1.516,1.503 1.442,1.425 2.806,3.017c1.065,6.118 1.772,5.802 5.983,10.224c1.119,1.321 1.117,1.18 1.683,2.818c0.451,0.796 2.24,3.955 7.124,8.942c1.54,1.525 1.463,1.446 2.802,3.034c1.999,3.184 2.111,2.977 4.675,5.604c2.323,0.68 2.332,0.785 2.947,3.056c1.881,3.933 1.919,3.941 5.792,5.807c2.3,0.611 2.389,0.637 3.061,2.938c0.314,0.379 0.328,0.298 4.389,4.307l2.783,1.698c2.572,3.289 9.518,7.99 10.412,8.595l2.802,1.7c5.525,4.282 5.124,4.8 11.787,7.307c0.202,0.076 5.509,5.528 27.923,14.559c2.365,0.382 2.429,0.004 4.463,1.357c2.478,0.336 2.517,0.143 4.353,1.687c4.236,2.656 17.515,5.439 19.076,5.766c2.89,0.183 2.809,-0.017 5.666,0.72l3.152,0.692c2.176,0.255 2.068,0.22 4.199,0.778c27.844,4.903 27.889,4.133 55.978,1.993c1.626,-0.124 9.409,-1.397 10.225,-1.53c2.192,-0.842 2.09,-0.937 4.486,-1.239l3.158,-0.675c2.115,-0.533 2.008,-0.501 4.194,-0.73c10.222,-0.889 23.197,-6.847 25.251,-8.101l4.098,-0.747c0.729,-0.289 6.221,-2.462 8.837,-4.25c1.268,-1.097 1.155,-1.083 2.841,-1.689c1.405,-1.028 1.293,-0.987 2.949,-1.451c1.985,-1.388 1.993,-1.06 4.384,-1.515c0.705,-0.239 6.992,-4.019 8.845,-5.771l2.995,-1.421c0.533,-0.241 3.047,-1.38 5.935,-4.264c1.304,-1.148 1.161,-1.145 2.792,-1.714l1.604,-1.239l2.81,-1.672c0.584,-0.466 6.963,-5.555 7.282,-5.848c0.71,-2.288 0.813,-2.283 3.014,-2.943c3.73,-2.212 5.333,-4.014 5.718,-4.447c1.47,-1.535 2.78,-2.744 3.029,-2.974c3.251,-2.657 3.187,-2.526 5.866,-5.766c0.696,-2.199 0.737,-2.277 2.995,-2.985c0.379,-0.316 0.249,-0.329 4.375,-4.346c0.981,-3.356 1.149,-3.482 4.444,-4.463c2.527,-1.934 2.323,-1.99 4.306,-4.4c1.453,-1.548 2.745,-2.777 2.991,-3.011c3.228,-2.692 3.132,-2.612 5.819,-5.812c0.919,-1.342 0.262,-2.036 3.038,-2.963c0.509,-0.418 0.406,-0.434 5.822,-5.815c0.701,-2.279 0.743,-2.3 3.007,-2.973c0.38,-0.314 0.22,-0.336 4.361,-4.357c0.673,-2.273 0.701,-2.31 2.975,-3.006c3.257,-2.645 3.158,-2.55 5.83,-5.816c0.69,-2.288 0.732,-2.31 2.988,-2.994c3.257,-2.658 3.161,-2.558 5.819,-5.826c0.693,-2.267 0.725,-2.3 3.002,-2.98c0.38,-0.314 0.24,-0.334 4.359,-4.358c0.982,-3.306 1.122,-3.466 4.449,-4.452c0.368,-0.328 0.284,-0.326 4.306,-4.412c0.231,-0.248 1.445,-1.548 2.974,-3.021c0.715,-0.607 4.888,-4.729 5.806,-5.822c0.232,-0.248 1.453,-1.553 3.007,-3.003c2.861,-2.419 2.767,-2.401 4.749,-5.506c1.722,-2.055 1.789,-1.877 4.051,-3.32c1.275,-1.1 10.154,-10.076 11.029,-10.961c0.172,-0.174 1.762,-1.782 2.126,-2.208c1.465,-1.543 2.773,-2.752 3.023,-2.983c0.504,-0.426 1.64,-1.386 5.771,-5.896c0.842,-2.203 1.252,-1.779 3.064,-2.901c2.95,-2.455 3.594,-1.917 4.644,-5.583c2.167,-2.346 2.477,-1.935 5.604,-0.977c5.173,3.195 19.113,6.32 20.821,6.702c3.193,0.086 3.386,-0.668 5.958,1.334c0.351,0.235 6.857,2.304 7.456,2.495c13.738,4.37 21.412,4.838 23.315,4.954c2.9,0.151 2.836,-0.068 5.674,0.683c33.23,8.301 63.672,8.081 69.249,8.041c15.515,-0.04 15.356,-0.053 30.846,0.004c5.551,0.031 37.285,0.208 68.988,-7.425c2.66,-1.835 2.801,-1.141 5.936,-1.298c21.313,-1.781 34.386,-12.312 31.081,-4.162c-0.527,1.3 -8.239,5.304 -10.491,10.199c-0.382,0.831 -0.872,0.161 -8.438,7.723c-5.554,5.551 -5.03,5.874 -11.005,10.912c-0.762,0.643 0.097,1.277 -8.816,8.815c-0.894,0.756 -0.032,1.366 -9.944,10.747c-0.826,0.782 -0.611,0.755 -1.292,1.597c-0.649,2.297 -0.696,2.341 -2.978,3.004c-3.24,2.585 -3.147,2.473 -5.824,5.821c-0.66,2.28 -0.701,2.329 -3,2.982c-3.218,2.598 -3.186,2.542 -5.811,5.836c-0.669,2.295 -0.723,2.332 -3.013,2.965c-2.432,1.987 -2.354,1.902 -4.355,4.367c-0.643,2.294 -0.686,2.342 -2.973,3.008c-3.36,2.677 -3.24,2.592 -5.829,5.816c-0.653,2.275 -0.69,2.33 -2.993,2.989c-3.228,2.599 -3.141,2.479 -5.813,5.833c-0.669,2.29 -0.721,2.33 -3.012,2.968c-2.43,1.981 -2.352,1.897 -4.361,4.361c-0.638,2.291 -0.678,2.343 -2.968,3.012c-3.354,2.671 -3.234,2.585 -5.833,5.813c-0.658,2.303 -0.714,2.34 -2.989,2.993c-3.236,2.599 -3.148,2.48 -5.816,5.829c-0.664,2.28 -0.708,2.328 -3.005,2.975c-0.382,0.312 -0.183,0.342 -4.38,4.347c-0.648,2.291 -0.686,2.332 -2.962,3.007c-3.293,2.679 -3.182,2.592 -5.84,5.817c-0.666,2.3 -0.716,2.327 -2.978,2.993c-3.203,2.62 -3.118,2.508 -5.825,5.831c-0.67,2.263 -0.7,2.31 -2.998,2.973c-0.446,0.37 -5.287,4.376 -5.503,4.712c-3.132,4.857 -3.979,4.002 -7.676,8.467c-0.662,2.298 -0.71,2.329 -2.973,2.998c-3.314,2.701 -3.205,2.613 -5.829,5.826c-0.667,2.26 -0.694,2.31 -2.995,2.976c-0.447,0.369 -5.287,4.368 -5.507,4.709c-3.114,4.833 -3.957,3.986 -7.677,8.466c-0.659,2.297 -0.704,2.33 -2.97,3c-3.312,2.7 -3.203,2.613 -5.83,5.826c-0.666,2.26 -0.693,2.311 -2.992,2.979c-3.302,2.717 -3.2,2.62 -5.819,5.839c-0.675,2.276 -0.716,2.313 -3.007,2.962c-0.379,0.317 -0.168,0.34 -4.36,4.371c-0.657,2.293 -0.699,2.329 -2.968,3.002c-3.31,2.696 -3.2,2.609 -5.833,5.823c-0.661,2.251 -0.679,2.309 -2.986,2.986c-3.31,2.711 -3.205,2.618 -5.823,5.833c-0.674,2.273 -0.712,2.313 -3.003,2.966c-0.38,0.316 -0.17,0.34 -4.367,4.364c-0.644,2.251 -0.651,2.316 -2.958,3.007c-3.211,2.668 -3.114,2.566 -5.832,5.828c-0.688,2.278 -0.767,2.316 -2.984,2.99c-3.215,2.67 -3.122,2.563 -5.825,5.829c-0.675,2.212 -0.711,2.294 -2.999,2.973c-0.317,0.266 -0.251,0.276 -3.621,3.692c-4.784,4.85 -5.257,4.234 -9.559,9.485c-0.648,2.316 -0.726,2.344 -3.049,2.954c-3.326,1.547 -3.193,1.632 -5.641,4.503l-1.715,2.755c-1.293,1.069 -1.211,1.097 -2.868,1.593c-0.538,0.386 -3.995,2.867 -5.975,5.724l-2.809,1.673c-1.975,1.538 -4.215,3.824 -4.562,4.178c-1.463,1.497 -1.379,1.423 -3.008,2.834c-4.849,3.028 -5.142,2.516 -8.734,5.996c-5.355,5.188 -6.547,3.57 -11.768,8.8c-1.274,1.125 -1.133,1.131 -2.807,1.704c-1.166,0.503 -4.751,2.05 -13.331,8.615c-1.367,1.1 -1.252,1.081 -2.913,1.567c-7.563,3.364 -6.567,5.143 -14.402,7.836c-3.35,1.151 -8.91,5.546 -9.625,6.111c-0.425,0.336 -12.252,5.205 -14.212,6.509c-1.322,1.136 -1.208,1.112 -2.835,1.692c-1.96,1.372 -1.958,1.055 -4.401,1.562c-4.524,0.811 -8.502,3.175 -9.18,3.578c-5.983,3.555 -9.933,4.114 -11.406,5.16c-2.006,1.438 -2.042,1.182 -4.49,1.369c-1.068,0.159 -7.866,1.737 -13.506,5.175l-4.045,0.88l-0.308,0.622c-2.135,0.548 -2.029,0.52 -4.122,0.79c-2.588,1.858 -2.732,1.189 -5.938,1.35c-1.876,0.483 -20.14,5.186 -23.445,6.068c-2.664,1.771 -2.789,1.118 -5.948,1.298c-24.892,3.693 -24.7,4.775 -49.878,6.195c-2.206,0.851 -2.109,0.933 -4.484,1.225l-48.512,0.002c-2.91,-0.242 -2.825,-0.027 -5.687,-0.818c-28.945,-1.794 -33.712,-5.719 -50.148,-6.592c-2.217,-0.224 -2.108,-0.193 -4.197,-0.736c-2.026,-0.49 -1.943,-0.639 -25.185,-6.7c-2.121,-0.166 -2.005,-0.147 -4.19,-0.628c-2.444,-1.14 -20.498,-7.454 -22.288,-8.08c-3.251,-0.192 -3.492,0.495 -5.874,-1.615c-6.853,-3.32 -14.045,-6.204 -16.186,-7.149c-2.372,-0.452 -2.375,-0.095 -4.463,-1.459c-0.519,-0.362 -0.711,0.182 -6.982,-3.701c-0.356,-0.221 -2.403,-1.488 -4.767,-2.165c-2.429,-0.466 -2.435,-0.177 -4.399,-1.523c-2.605,-2.115 -3.092,-1.138 -5.802,-3.121c-6.935,-5.074 -8.957,-4.791 -10.372,-5.687c-1.676,-0.488 -1.535,-0.471 -2.942,-1.496c-8.33,-7.67 -10.195,-4.819 -18.963,-11.981c-2.113,-1.726 -2.001,-1.665 -4.475,-2.786c-1.676,-0.481 -1.599,-0.506 -2.902,-1.586c-3.981,-3.935 -20.972,-15.278 -23.649,-17.407c-2.589,-0.893 -2.008,-1.446 -3.04,-2.952c-1.842,-1.971 -1.835,-1.882 -4.216,-3.021c-2.298,-0.648 -2.359,-0.649 -3.133,-2.864c-2.459,-2.803 -2.331,-2.886 -5.683,-4.487c-2.303,-0.611 -2.389,-0.635 -3.078,-2.913c-2.762,-3.19 -2.685,-3.084 -5.874,-5.769c-2.303,-1.452 -2.301,-1.278 -4.204,-3.214c-0.938,-0.942 -6.168,-6.196 -11.755,-11.753c-1.526,-1.501 -1.452,-1.423 -2.815,-3.025c-2.595,-4.053 -2.557,-3.93 -6.169,-7.049c-2.34,-0.712 -2.315,-0.811 -2.952,-3.027c-2.204,-3.734 -4.014,-5.347 -4.447,-5.733c-1.733,-1.206 -2.194,-0.797 -2.86,-3.138c-1.173,-2.434 -1.101,-2.415 -3.028,-4.208l-2.605,-1.803c-3.422,-5.393 -2.87,-5.641 -7.46,-10.204c-1.149,-1.329 -1.14,-1.186 -1.711,-2.793c-4.508,-5.895 -3.445,-6.616 -8.756,-11.789l-1.433,-2.998c-1.175,-2.595 -8.691,-12.679 -9.549,-15.064c-1.165,-3.24 -1.285,-3.094 -3.518,-5.566c-1.141,-1.291 -1.124,-1.138 -1.718,-2.808c-3.393,-6.845 -3.789,-6.536 -7.128,-13.333c-1.136,-1.293 -1.116,-1.18 -1.698,-2.829c-0.969,-1.361 -0.97,-1.272 -1.439,-2.963c-1.379,-1.986 -1.048,-1.993 -1.492,-4.407c-0.247,-0.859 -1.167,-0.272 -4.766,-10.108c-0.837,-2.288 -1.876,-1.78 -2.596,-6.09c-0.234,-1.397 -0.303,-1.812 -7.127,-16.202c-2.186,-2.478 -1.435,-2.69 -1.662,-5.853c-5.934,-16.937 -6.002,-17.373 -6.249,-18.95c-2.338,-3.371 -2.312,-3.349 -2.448,-7.536c-2.35,-9.084 -2.127,-9 -5.215,-17.849c-0.55,-2.105 -0.518,-1.998 -0.776,-4.183l-0.679,-3.16c-0.536,-2.105 -0.505,-1.998 -0.731,-4.195c-0.195,-2.716 -0.655,-2.619 -4.844,-33.697c-0.997,-7.396 -0.957,-7.241 -1.34,-14.72c-0.86,-2.204 -0.942,-2.107 -1.239,-4.475Zm458.446,-282.092c1.147,-8.499 13.872,-13.842 20.916,-24.908c1.417,-1.666 1.326,-1.56 2.803,-3.034c0.235,-0.235 1.47,-1.468 2.937,-2.94l1.46,-1.478c3.385,-3.39 3.126,-3.572 7.18,-6.113c2.554,-2.174 84.316,-83.843 87.401,-87.374c3.895,-4.457 5.035,-2.987 9.155,-7.13c3.373,-3.391 3.093,-3.692 3.496,-3.776c7.493,-1.555 5.598,-5.568 16.061,-9.051c4.49,-1.495 10.796,-8.69 14.361,-3.841c1.444,4.972 0.716,4.94 0.588,10.041c0.368,7.575 1.251,17.539 6.719,29.632c0.722,2.749 0.547,2.644 0.738,5.591c0.468,1.45 4.354,13.476 7.166,17.646c1.547,1.86 1.337,1.902 1.627,4.381c2.59,6.348 3.48,5.669 3.64,6.223c0.175,0.606 1.161,4.021 3.738,6.935c1.013,1.465 0.971,1.35 1.341,3.02c3.591,7.851 12.658,19.646 13.327,20.394c2.306,0.723 2.269,0.855 2.871,3.094c1.883,4.142 9.892,12.875 12.99,14.879c1.239,1.045 1.266,0.886 1.963,2.437c3.564,4.096 15.896,13.781 17.335,14.911c1.287,1.011 0.875,1.242 1.928,2.421c0.408,0.457 0.8,-0.211 6.444,4.133c9.88,7.604 13.63,8.171 14.988,8.376c1.591,1.355 1.485,1.256 3.037,2.776c5.382,3.827 5.63,3.197 11.731,5.848l2.647,0.632c1.434,0.877 11.54,7.053 19.386,8.102c2.133,0.225 2.028,0.2 4.173,0.724c13.037,5.874 27.171,6.572 29.595,6.692c5.35,-0.164 5.327,-0.389 10.295,1.379l10.272,-0.05l13.218,0.002l10.27,0.049c5.015,-1.752 4.979,-1.516 10.296,-1.366c15.451,-0.855 20.98,-3.739 29.594,-6.712c2.065,-0.496 1.958,-0.484 4.176,-0.718c1.222,-0.319 10.378,-2.711 14.767,-5.587c2.039,-1.336 2.367,-0.42 4.254,-1.81c2,-1.399 2.07,-1.033 4.451,-1.456c14.554,-5.727 46.747,-27.856 55.632,-38.18c1.465,-1.533 2.761,-2.756 3.008,-2.988c3.184,-2.654 3.094,-2.566 5.818,-5.811c1.458,-1.541 2.753,-2.766 2.999,-2.999c3.196,-2.682 3.117,-2.586 5.812,-5.818c0.234,-0.246 1.462,-1.539 3.005,-2.994c3.906,-3.853 3.887,-3.797 4.352,-4.347c1.706,-2.851 1.694,-2.807 4.468,-4.461c3.929,-3.897 3.913,-3.846 4.343,-4.357c1.457,-1.542 2.751,-2.768 2.997,-3.002c3.193,-2.673 3.11,-2.58 5.813,-5.817c0.234,-0.246 1.462,-1.539 3.005,-2.993c3.931,-3.877 3.913,-3.825 4.355,-4.345c1.657,-2.776 1.613,-2.762 4.464,-4.465c3.934,-3.897 3.918,-3.847 4.345,-4.354c1.456,-1.541 2.748,-2.77 2.994,-3.004c3.191,-2.668 3.106,-2.577 5.816,-5.814c0.233,-0.246 1.46,-1.54 3.002,-2.997c3.932,-3.875 3.914,-3.822 4.357,-4.343c1.655,-2.774 1.611,-2.761 4.462,-4.468c3.903,-3.86 3.884,-3.804 4.347,-4.352c1.454,-1.543 2.748,-2.771 2.994,-3.005c3.184,-2.655 3.097,-2.566 5.818,-5.812c0.233,-0.246 1.458,-1.541 2.999,-2.999c3.919,-3.857 3.9,-3.802 4.359,-4.341c1.655,-2.776 1.611,-2.763 4.46,-4.47c3.906,-3.856 3.887,-3.8 4.35,-4.349c1.454,-1.543 2.746,-2.773 2.992,-3.007c3.185,-2.655 3.095,-2.568 5.818,-5.812c1.458,-1.541 2.753,-2.766 2.999,-2.999c3.195,-2.682 3.116,-2.585 5.812,-5.818c0.234,-0.246 1.464,-1.538 3.007,-2.992c3.905,-3.858 3.886,-3.802 4.349,-4.35c1.707,-2.849 1.694,-2.805 4.47,-4.46c3.915,-3.884 3.898,-3.831 4.341,-4.359c1.458,-1.541 2.753,-2.766 2.999,-2.999c3.193,-2.676 3.112,-2.581 5.812,-5.818c0.234,-0.246 1.462,-1.539 3.005,-2.994c3.906,-3.853 3.887,-3.797 4.352,-4.347c1.706,-2.851 1.694,-2.807 4.468,-4.462c3.929,-3.896 3.913,-3.846 4.343,-4.357c1.457,-1.542 2.75,-2.768 2.997,-3.002c3.194,-2.674 3.109,-2.582 5.814,-5.816c0.234,-0.246 1.463,-1.538 3.004,-2.994c3.937,-3.884 3.919,-3.833 4.354,-4.345c1.702,-2.851 1.689,-2.807 4.465,-4.464c3.926,-3.889 3.909,-3.837 4.345,-4.355c1.455,-1.543 2.747,-2.771 2.993,-3.005c3.186,-2.66 3.101,-2.568 5.817,-5.813c0.233,-0.246 1.46,-1.54 3.002,-2.997c3.932,-3.874 3.914,-3.822 4.357,-4.343c1.655,-2.774 1.61,-2.761 4.461,-4.468c3.903,-3.86 3.884,-3.804 4.347,-4.352c1.454,-1.543 2.748,-2.771 2.994,-3.005c3.183,-2.655 3.095,-2.567 5.818,-5.812c0.233,-0.246 1.459,-1.541 2.999,-2.999c3.195,-2.682 3.116,-2.585 5.812,-5.818c0.234,-0.246 1.464,-1.538 3.007,-2.991c3.917,-3.87 3.899,-3.816 4.35,-4.35c1.454,-1.543 2.746,-2.773 2.992,-3.007c3.185,-2.655 3.095,-2.568 5.818,-5.812c1.458,-1.541 2.753,-2.766 2.999,-2.999c3.197,-2.683 3.117,-2.587 5.813,-5.818c0.892,-1.294 0.22,-2.016 3.04,-2.962c4.043,-4.05 4.054,-3.957 4.37,-4.335c0.981,-3.295 1.107,-3.464 4.463,-4.445c4.017,-4.125 4.03,-3.996 4.345,-4.375c0.721,-2.285 0.757,-2.287 2.956,-3.018c4.914,-4.905 4.873,-4.787 5.771,-5.868c0.229,-0.248 1.439,-1.559 2.956,-3.016c0.396,-0.425 0.163,-0.411 4.495,-5.704c0.687,-2.264 0.698,-2.304 2.915,-3.038c4.89,-5.436 4.222,-5.801 8.777,-11.682c0.561,-1.608 0.553,-1.465 1.717,-2.785c2.626,-2.61 2.7,-2.469 4.282,-5.926c0.403,-1.719 0.394,-1.576 1.395,-3.009c4.186,-4.351 3.471,-4.759 6.01,-10.188c0.356,-1.69 0.34,-1.608 1.31,-3.023l0.28,-1.336c1.599,-2.235 1.099,-2.418 2.841,-4.464c1.826,-2.612 3.939,-8.113 4.22,-8.845l0.764,-4.093c1.264,-2.051 7.266,-15.131 8.111,-25.251c0.228,-2.422 -0.012,-2.439 1.283,-4.475l0.12,-2.876c0.287,-2.368 0.383,-2.265 1.255,-4.486c1.475,-13.874 7.414,-35.823 -1.969,-73.552c-0.751,-2.871 -0.537,-2.791 -0.696,-5.671c-0.322,-1.561 -3.061,-14.85 -5.775,-19.072c-1.561,-1.824 -1.366,-1.866 -1.687,-4.354c-1.374,-2.003 -1.132,-2.026 -1.33,-4.471c-0.9,-2.183 -8.14,-19.741 -13.118,-26.447c-1.53,-1.512 -1.453,-1.432 -2.809,-3.016c-1.002,-5.907 -1.614,-5.649 -5.975,-10.228c-1.122,-1.32 -1.12,-1.179 -1.688,-2.814c-3.237,-4.816 -2.69,-5.196 -7.117,-8.948c-1.954,-1.923 -1.784,-1.957 -3.172,-4.246c-4.02,-4.052 -3.937,-4.067 -4.317,-4.38c-2.261,-0.666 -2.311,-0.724 -2.945,-3.063c-1.872,-3.953 -1.913,-3.964 -5.796,-5.785c-2.294,-0.629 -2.377,-0.633 -3.059,-2.953c-2.644,-2.599 -2.451,-2.728 -5.596,-4.683c-1.612,-1.341 -1.55,-1.284 -3.035,-2.8c-2.48,-2.471 -20.474,-18.052 -51.451,-30.7c-6.799,-0.588 -8.664,-2.897 -8.822,-3.029c-7.365,-4.639 -18.84,-5.627 -20.54,-5.773c-2.429,-0.232 -2.446,0.007 -4.474,-1.29l-2.876,-0.113c-2.402,-0.295 -2.3,-0.394 -4.484,-1.247c-6.668,-0.578 -6.653,-0.438 -7.201,-0.624c-8.5,-2.89 -40.453,-2.868 -51.516,0.009c-1.252,0.326 -13.655,2.343 -14.844,2.537c-2.172,0.549 -2.058,0.511 -4.194,0.721c-2.086,0.385 -17.165,3.169 -25.247,8.111l-4.102,0.739c-0.974,0.386 -8.802,3.491 -11.677,5.938c-1.409,1.032 -1.296,0.99 -2.948,1.456c-1.947,1.359 -1.944,1.033 -4.406,1.48c-0.637,0.203 -25.401,14.77 -30.96,21.79c-1.901,2.001 -1.647,2.326 -4.299,3.11c-2.46,2.002 -2.551,1.711 -4.524,4.228c-1.501,1.543 -1.431,1.475 -3.022,2.822c-4.043,2.439 -4.001,2.445 -7.081,6.129c-0.69,2.267 -0.763,2.309 -2.994,2.98c-4.037,4.151 -4.065,3.963 -4.38,4.343c-0.889,3.325 -1.017,3.527 -4.443,4.462c-4.012,4.178 -4.046,3.98 -4.358,4.362c-0.65,2.267 -0.678,2.325 -2.971,3.004c-3.253,2.639 -3.151,2.543 -5.836,5.82c-0.684,2.269 -0.755,2.314 -2.988,2.985c-3.224,2.646 -3.114,2.555 -5.806,5.845c-0.694,2.19 -0.729,2.275 -3.002,2.977c-4.031,4.109 -4.044,3.982 -4.361,4.36c-0.701,2.269 -0.783,2.306 -2.975,3.003c-3.272,2.694 -3.163,2.606 -5.829,5.82c-0.69,2.195 -0.726,2.278 -2.988,2.991c-3.279,2.715 -3.178,2.62 -5.823,5.826c-0.695,2.193 -0.732,2.276 -3,2.978c-4.035,4.106 -4.047,3.979 -4.364,4.356c-0.994,3.37 -1.171,3.489 -4.46,4.447c-4.017,4.128 -4.03,3.997 -4.346,4.376c-0.707,2.262 -0.788,2.301 -2.985,2.994c-3.274,2.707 -3.172,2.614 -5.823,5.826c-0.694,2.191 -0.729,2.275 -2.997,2.982c-4.039,4.102 -4.051,3.975 -4.369,4.352c-0.97,3.3 -1.098,3.469 -4.456,4.45c-4.02,4.125 -4.033,3.994 -4.349,4.373c-0.706,2.268 -0.79,2.303 -2.983,2.995c-3.279,2.71 -3.174,2.618 -5.825,5.825c-0.693,2.197 -0.731,2.278 -2.994,2.985c-4.044,4.099 -4.056,3.97 -4.374,4.347c-0.962,3.295 -1.085,3.467 -4.449,4.458c-4.022,4.111 -4.035,3.992 -4.351,4.372c-1.133,3.788 -2.109,3.819 -7.31,2.291c-6.887,-4.359 -17.185,-6.62 -17.886,-6.726c-2.196,-0.197 -2.081,-0.192 -4.18,-0.662c-3.247,-1.502 -3.057,-1.693 -3.351,-1.768c-23.919,-6.108 -25.455,-6.203 -27.726,-6.343c-2.427,-0.218 -2.456,0.028 -4.477,-1.303c-31.02,-7.689 -59.369,-7.466 -64.569,-7.425c-19.835,0.14 -19.67,0.161 -39.661,-0.014c-33.664,-0.267 -39.394,3.036 -60.431,6.559c-2.16,0.58 -2.052,0.536 -4.2,0.793l-3.149,0.699c-2.868,0.763 -2.806,0.536 -5.676,0.677c-19.829,1.316 -32.301,10.747 -33.105,5.652c-0.554,-3.509 3.673,-3.644 9.35,-10.393c0.961,-2.796 1.672,-2.125 2.973,-3.014c1.131,-0.969 7.245,-6.208 13.159,-13.173c1.459,-1.541 2.753,-2.768 2.999,-3.002c3.159,-2.67 3.079,-2.574 5.814,-5.813c0.234,-0.246 1.461,-1.54 3.002,-3c7.094,-6.023 12.199,-12.027 13.163,-13.161c1.459,-1.54 2.752,-2.769 2.998,-3.003c3.162,-2.669 3.07,-2.581 5.824,-5.811c0.867,-1.261 0.183,-1.995 3.018,-2.971c3.2,-2.708 3.114,-2.604 5.816,-5.823c0.744,-2.167 0.751,-2.226 3.002,-2.986c4.03,-4.039 4.034,-3.98 4.353,-4.356c0.761,-2.246 0.816,-2.256 2.988,-3.001c3.19,-2.682 3.096,-2.585 5.82,-5.819c0.768,-2.243 0.822,-2.252 2.996,-2.994c3.205,-2.707 3.116,-2.604 5.818,-5.821c0.743,-2.17 0.752,-2.227 3.001,-2.987c4.032,-4.04 4.035,-3.98 4.355,-4.355c0.76,-2.249 0.817,-2.257 2.987,-3.001c3.188,-2.677 3.089,-2.584 5.821,-5.818c0.743,-2.174 0.751,-2.228 2.994,-2.996c3.192,-2.69 3.103,-2.589 5.819,-5.82c0.745,-2.173 0.755,-2.228 3.001,-2.988c4.033,-4.036 4.036,-3.978 4.356,-4.353c0.76,-2.251 0.819,-2.258 2.986,-3.002c3.189,-2.677 3.088,-2.585 5.824,-5.816c0.764,-2.243 0.819,-2.253 2.992,-2.997c3.196,-2.693 3.104,-2.594 5.82,-5.819c0.742,-2.171 0.749,-2.228 2.997,-2.992c0.834,-0.707 0.814,-0.561 1.564,-1.326c11.422,-11.641 11.425,-11.633 11.604,-11.843c0.765,-2.247 0.821,-2.254 2.992,-2.997c3.191,-2.685 3.097,-2.588 5.819,-5.82c0.744,-2.172 0.752,-2.227 2.998,-2.992c0.838,-0.709 0.818,-0.563 1.565,-1.325c11.605,-11.832 11.495,-11.714 11.605,-11.843c0.764,-2.25 0.822,-2.256 2.991,-2.998c3.196,-2.691 3.101,-2.595 5.819,-5.82c0.745,-2.174 0.755,-2.228 2.997,-2.994c3.202,-2.707 3.115,-2.603 5.817,-5.822c0.744,-2.168 0.751,-2.226 3.002,-2.986c4.03,-4.039 4.034,-3.981 4.353,-4.356c0.761,-2.246 0.817,-2.256 2.989,-3c3.19,-2.682 3.096,-2.586 5.821,-5.819c0.744,-2.175 0.754,-2.228 2.995,-2.995c3.192,-2.69 3.105,-2.588 5.819,-5.82c0.744,-2.171 0.752,-2.227 3,-2.989c4.033,-4.036 4.036,-3.978 4.356,-4.353c0.761,-2.251 0.819,-2.258 2.986,-3.002c3.184,-2.672 3.093,-2.575 5.806,-5.826c0.232,-0.248 1.449,-1.549 2.985,-3.018c3.16,-2.675 3.081,-2.578 5.813,-5.815c0.234,-0.246 1.464,-1.538 3.012,-2.992c0.838,-0.696 0.809,-0.557 1.576,-1.307c0.948,-0.928 9.855,-9.639 11.647,-11.806c0.673,-2.278 0.716,-2.315 2.992,-2.986c3.105,-2.476 3.501,-1.977 6.133,-5.593c1.773,-2.094 1.853,-1.887 4.133,-3.253c2.239,-1.81 13.527,-11.379 14.83,-13.019c1.952,-2.007 1.7,-2.316 4.321,-3.087c0.585,-0.471 0.542,-0.411 7.441,-5.721c1.464,-1.497 1.398,-1.44 3.021,-2.799c4.14,-1.442 4.056,-1.433 7.267,-4.544c1.536,-1.61 1.423,-1.494 2.997,-2.837c3.795,-1.219 3.778,-1.12 7.109,-3.347c11.546,-7.721 11.959,-7.014 12.934,-7.722c13.698,-9.951 31.657,-16.173 37.096,-20.128c1.981,-1.36 1.978,-1.052 4.391,-1.57c1.33,-0.275 1.226,-0.244 1.33,-0.275c0.427,-0.127 -0.064,-0.504 0.338,-0.675c17.332,-7.378 17.576,-6.843 18.925,-7.769c2.042,-1.409 2.072,-1.154 4.483,-1.364c7.308,-3.027 16.427,-6.172 17.869,-6.669c2.041,-0.516 1.931,-0.501 4.124,-0.785l0.275,-0.702c2.873,-0.665 2.75,-0.503 5.657,-0.666c21.963,-5.69 21.809,-6.185 23.722,-6.66c2.846,-0.751 2.782,-0.538 5.67,-0.708c17.142,-1.072 16.761,-3.084 33.769,-4.7c11.894,-1.13 11.79,-2.104 47.055,-2.104c55.761,-0 55.265,5.583 77.887,6.793c2.211,0.226 2.101,0.194 4.198,0.734c3.821,0.931 19.253,5.905 25.183,6.703c2.447,0.199 2.466,-0.039 4.476,1.295c5.096,1.922 5.2,1.161 10.18,3.267c0.288,0.122 0.285,0.112 11.821,4.144c3.221,0.185 3.477,-0.527 5.871,1.617c7.965,3.875 7.794,3.993 16.19,7.148l4.084,0.789c0.94,0.575 9.324,5.701 12.129,6.536c2.385,0.465 2.393,0.169 4.391,1.537l1.334,0.282c2.21,1.581 2.389,1.074 4.465,2.837c2.077,1.022 4.103,2.634 4.435,2.898c1.062,0.845 5.459,2.587 5.947,2.781l2.935,1.499c4.432,3.989 12.862,7.354 15.722,9.533c7.855,5.983 8.509,4.881 10.731,6.638c1.271,1.006 0.837,1.25 1.891,2.443c0.788,0.892 6.248,3.095 8.283,5.08c2.98,2.907 13.393,9.64 14.598,10.419l1.823,2.579c1.815,1.954 1.804,1.876 4.207,3.028c2.366,0.688 1.95,1.166 3.141,2.858c0.385,0.435 1.948,2.197 5.73,4.456c2.308,0.677 2.332,0.711 3.039,2.934c2.637,2.623 2.392,2.671 5.306,5.088c8.793,7.295 8.367,7.626 16.516,15.66c1.568,1.35 1.436,1.25 1.568,1.35c1.409,1.069 0.798,1.368 1.669,2.863c0.4,0.521 1.926,2.51 5.75,5.862c2.3,0.725 2.292,0.833 2.939,3.034c2.616,3.704 2.362,3.838 4.463,5.72c1.609,1.15 2.134,0.712 2.851,3.148c1.316,2.381 1.108,2.394 3.044,4.187c1.352,0.971 1.966,0.379 2.93,3.071c7.236,9.152 21.285,30.453 23.263,32.482c1.141,1.297 1.14,1.155 1.725,2.797c3.859,5.78 2.86,6.222 7.096,11.891c1.107,1.292 1.11,1.152 1.709,2.814c3.379,4.913 2.112,5.482 5.502,10.482c5.154,7.602 4.289,8.01 4.764,8.64c0.98,1.489 0.939,1.373 1.294,3.03c14.414,30.74 13.117,31.356 14.909,33.697c1.896,2.575 1.252,2.727 1.474,5.926c0.57,1.649 6.872,19.871 7.319,20.541c1.94,2.523 1.242,2.685 1.349,5.951c2.353,9.087 2.122,8.988 5.218,17.85c0.549,2.101 0.517,1.994 0.775,4.183l0.672,3.16c0.554,2.158 0.514,2.07 0.737,4.195c0.485,8.632 5.163,28.973 6.599,48.677c0.578,2.138 0.534,2.022 0.82,4.217l0.003,52.923c-0.309,2.394 -0.391,2.298 -1.237,4.484c-0.945,26.457 -5.278,31.556 -6.159,49.879c-0.244,2.438 -0.008,2.461 -1.324,4.48c-5.613,21.605 -5.567,21.572 -6.061,23.445c-0.186,3.199 0.46,3.333 -1.362,5.932c-0.285,2.142 -0.267,2.031 -0.798,4.124c-0.499,1.441 -3.394,9.794 -6.65,17.872c-0.198,2.112 -0.193,2.021 -0.679,4.123c-3.18,5.048 -1.635,5.797 -5.232,10.615c-2.775,3.716 -4.007,9.466 -4.194,10.339l-0.877,4.009c-2.379,3.592 -2.474,3.379 -4.447,7.355c-8.914,17.963 -8.918,17.807 -9.628,19.387c-0.475,1.742 -0.47,1.629 -1.518,2.936c-1.199,1.606 -1.126,1.463 -1.199,1.606c-4.466,8.708 -5.419,8.102 -5.712,8.896c-3.575,9.689 -6.36,8.091 -10.526,17.518c-0.57,1.635 -0.568,1.492 -1.711,2.8c-2.725,2.812 -5.507,7.574 -6.26,8.477c-4.364,5.235 -3.98,5.324 -8.196,10.776l-1.69,2.8c-0.469,0.466 -4.144,4.119 -5.64,6.036l-1.687,2.797c-3.476,3.426 -3.574,3.182 -6.007,7.253l-1.322,1.58l-2.742,1.733c-2.819,2.404 -2.902,2.278 -4.515,5.632c-0.608,2.282 -0.627,2.381 -2.947,3.047c-0.88,0.726 -0.87,0.559 -1.586,1.309c-9.077,9.515 -11.246,11.609 -11.517,11.93c-0.966,2.783 -1.665,2.118 -2.98,3.017c-3.215,2.728 -3.12,2.641 -5.812,5.82c-1.469,1.537 -2.77,2.756 -3.018,2.988c-3.242,2.715 -3.15,2.625 -5.818,5.808c-0.748,2.172 -0.75,2.225 -3.004,2.992c-4.349,4.345 -4.267,4.258 -4.348,4.353c-0.737,2.158 -0.726,2.221 -3.01,2.996c-3.247,2.585 -3.143,2.509 -5.86,5.774c-0.689,2.278 -0.769,2.316 -2.986,2.989c-3.261,2.708 -3.161,2.61 -5.824,5.831c-0.677,2.212 -0.714,2.293 -3.001,2.971c-4.035,4.166 -4.048,3.984 -4.367,4.361c-0.653,2.215 -0.681,2.304 -2.969,3.002c-3.266,2.703 -3.156,2.612 -5.833,5.823c-0.687,2.277 -0.766,2.316 -2.984,2.99c-3.263,2.71 -3.162,2.613 -5.826,5.829c-0.674,2.213 -0.712,2.294 -2.998,2.975c-0.865,0.726 -0.849,0.57 -1.574,1.322c-10.6,11.003 -10.748,10.842 -11.598,11.86c-0.687,2.283 -0.768,2.319 -2.98,2.994c-3.262,2.705 -3.161,2.608 -5.827,5.826c-0.675,2.213 -0.711,2.294 -2.994,2.98c-0.878,0.733 -0.861,0.575 -1.577,1.317c-10.606,10.998 -10.751,10.839 -11.603,11.856c-0.683,2.285 -0.763,2.322 -2.976,2.997c-3.262,2.701 -3.157,2.607 -5.829,5.826c-0.674,2.218 -0.713,2.296 -2.99,2.984c-3.26,2.718 -3.162,2.618 -5.823,5.833c-0.675,2.211 -0.711,2.293 -3.002,2.968c-4.027,4.169 -4.041,3.991 -4.359,4.369c-0.681,2.286 -0.762,2.323 -2.973,3c-3.259,2.693 -3.153,2.6 -5.831,5.823c-0.673,2.217 -0.712,2.296 -2.99,2.984c-3.263,2.719 -3.164,2.621 -5.823,5.833c-0.674,2.211 -0.71,2.293 -3,2.971c-4.032,4.167 -4.045,3.987 -4.364,4.364c-0.678,2.29 -0.76,2.326 -2.971,3c-3.267,2.704 -3.158,2.613 -5.833,5.823c-0.688,2.278 -0.767,2.316 -2.984,2.99c-3.261,2.709 -3.162,2.61 -5.823,5.831c-0.677,2.211 -0.714,2.292 -3,2.973c-4.037,4.16 -4.05,3.982 -4.369,4.359c-0.675,2.292 -0.758,2.328 -2.968,3.002c-3.266,2.703 -3.157,2.612 -5.833,5.823c-0.687,2.277 -0.766,2.316 -2.984,2.99c-3.264,2.71 -3.162,2.613 -5.826,5.829c-0.675,2.213 -0.712,2.294 -2.997,2.976c-0.87,0.73 -0.855,0.573 -1.575,1.32c-10.6,11.003 -10.748,10.842 -11.599,11.86c-0.687,2.283 -0.768,2.319 -2.98,2.994c-3.256,2.697 -3.152,2.602 -5.826,5.827c-0.675,2.212 -0.711,2.293 -2.994,2.98c-0.878,0.733 -0.861,0.575 -1.577,1.317c-6.161,6.389 -11.372,11.709 -11.539,11.908c-0.77,2.249 -0.821,2.252 -2.995,3.002c-3.219,2.701 -3.123,2.605 -5.811,5.814c-0.232,0.248 -1.45,1.549 -2.986,3.021c-3.189,2.706 -3.11,2.608 -5.813,5.813c-0.234,0.246 -1.464,1.538 -3.004,2.999c-3.882,3.819 -3.854,3.754 -4.358,4.342c-0.752,2.153 -0.749,2.209 -3.006,2.989c-3.279,2.728 -3.215,2.602 -5.875,5.771c-0.692,2.302 -0.751,2.31 -2.996,2.978c-7.417,6.057 -6.697,6.861 -7.46,7.184c-0.538,0.227 -2.457,1.039 -5.711,4.542c-0.503,1.682 -0.498,1.526 -1.561,2.88c-1.331,1.099 -1.249,1.066 -2.967,1.523c-2.399,1.109 -2.393,1.009 -4.241,2.991c-1.021,1.525 -0.428,2.083 -3.018,2.971c-0.202,0.16 -0.395,-0.206 -2.757,1.666c-17.459,13.835 -17.746,13.237 -19.19,14.51c-0.559,1.66 -0.612,1.487 -1.743,2.638c-5.827,1.766 -5.593,2.034 -10.225,5.97c-1.345,1.138 -1.231,1.111 -2.843,1.656c-4.468,2.979 -4.685,2.409 -8.939,5.653c-1.269,1.107 -1.129,1.114 -2.81,1.706l-1.307,0.243c-0.546,1.47 -0.551,1.317 -1.804,2.376c-4.89,1.5 -4.888,1.395 -5.656,1.881c-5.726,3.626 -5.515,3.835 -6.018,4.132c-1.834,1.573 -1.878,1.367 -4.379,1.647c-0.932,0.381 -0.922,0.173 -1.799,0.735c-0.885,0.567 -5.216,3.341 -11.46,6.429c-1.843,1.56 -1.887,1.351 -4.387,1.623c-1.32,0.518 -12.705,4.981 -16.119,7.374c-1.971,1.386 -2.049,1.005 -4.469,1.394c-13.538,5.552 -13.579,5.275 -14.619,5.993c-2,1.45 -2.039,1.194 -4.491,1.404c-11.708,1.907 -23.278,7.21 -25.203,8.092c-2.127,0.533 -2.029,0.5 -4.192,0.689c-7.692,0.49 -20.227,4.82 -31.063,6.623c-2.16,0.578 -2.051,0.533 -4.2,0.787l-2.893,0.061c-3.476,2.554 -3.772,1.203 -7.403,1.315c-9.212,0.353 -9.135,0.09 -13.366,0.805c-32.026,5.408 -82.068,-0.411 -92.433,-0.802c-3.627,-0.111 -3.925,1.256 -7.399,-1.321l-2.897,-0.059c-2.414,-0.287 -2.311,-0.39 -4.491,-1.251c-15.679,-1.633 -14.981,-4.788 -30.772,-6.152c-2.136,-0.178 -2.034,-0.141 -4.196,-0.683c-8.907,-4.105 -19.341,-5.638 -44.318,-15.466c-2.419,-0.411 -2.489,-0.048 -4.467,-1.415c-1.617,-1.111 -1.469,-1.057 -1.617,-1.111c-10.284,-3.757 -10.099,-3.936 -20.086,-8.498c-3.355,-1.532 -3.056,-1.816 -6.296,-3.488c-1.634,-0.843 -20.401,-10.53 -20.426,-10.541c-1.677,-0.477 -1.563,-0.461 -2.912,-1.563c-6.321,-4.734 -10.775,-6.792 -11.78,-7.257c-1.723,-0.472 -1.609,-0.466 -2.916,-1.558c-6.229,-6.088 -8.845,-5.516 -16.292,-11.539l-2.763,-1.739c-1.583,-1.297 -1.443,-1.211 -1.583,-1.297c-0.649,-0.398 -0.69,0.175 -1.331,-0.219c-1.567,-1.352 -1.49,-1.274 -3.014,-2.832c-3.394,-3.42 -3.059,-3.817 -7.382,-5.76c-2.276,-0.607 -2.382,-0.596 -3.096,-2.899c-4.878,-5.507 -5.775,-4.34 -11.009,-9.522c-3.414,-3.379 -3.393,-3.375 -3.655,-3.594c-1.525,-0.89 -1.814,-0.302 -2.859,-1.669c-0.101,-0.132 0,0 -1.37,-1.551c-6.724,-6.758 -17.565,-17.579 -19.094,-19.105c-2.226,-2.195 -2.233,-2.045 -4.301,-4.483c-1.965,-5.886 -4.134,-4.366 -7.737,-10.012c-2.044,-3.203 -5.088,-5.651 -5.603,-6.064c-1.968,-1.905 -2.303,-1.658 -3.057,-4.361c-2.591,-5.26 -6.59,-8.198 -7.225,-8.865c-1.092,-1.301 -1.102,-1.16 -1.61,-2.854c-3.039,-3.682 -2.47,-4.033 -5.731,-7.435c-1.1,-1.321 -1.121,-1.248 -1.598,-2.89c-1.052,-2.258 -0.874,-2.254 -2.038,-3.96c-3.613,-5.298 -4.904,-4.411 -6.983,-10.617c-1.013,-3.024 -5.174,-8.188 -5.702,-8.844c-1.976,-1.939 -2.287,-1.745 -2.858,-4.527c-0.187,-0.927 -0.644,-3.192 -5.826,-10.284c-0.87,-1.19 -2.349,-6.086 -2.374,-6.137c-5.415,-10.939 -5.99,-10.541 -6.454,-11.487c-1.566,-1.854 -1.352,-1.896 -1.634,-4.424Z" style="fill:#566b8d;fill-opacity:1;"/></g></svg>