<?xml version="1.0" encoding="UTF-8" standalone="no"?><!DOCTYPE svg PUBLIC "-//W3C//DTD SVG 1.1//EN" "http://www.w3.org/Graphics/SVG/1.1/DTD/svg11.dtd"><svg width="100%" height="100%" viewBox="0 0 2084 2084" version="1.1" xmlns="http://www.w3.org/2000/svg" xmlns:xlink="http://www.w3.org/1999/xlink" xml:space="preserve" xmlns:serif="http://www.serif.com/" style="fill-rule:evenodd;clip-rule:evenodd;stroke-linejoin:round;stroke-miterlimit:2;"><rect id="link-admin" x="0" y="0" width="2083.333" height="2083.333" style="fill:none;"/><g id="Link"><path id="Link1" serif:id="Link" d="M104.167,1514.214l0.01,-66.153c0.297,-3.646 0.031,-3.52 1.01,-7.103c1.83,-24.872 7.441,-44.648 8.238,-60.853c0.272,-2.656 0.22,-2.545 0.916,-5.247c0.613,-2.533 0.914,-2.418 8.364,-31.483c0.197,-2.784 0.185,-2.644 0.781,-5.243l0.858,-0.35c0.37,-2.696 0.348,-2.558 1.009,-5.149c0.619,-1.804 4.175,-12.157 8.305,-22.345l0.867,-5.15c4.15,-6.654 5.827,-11.383 9.25,-20.213c4.439,-11.452 4.352,-11.28 4.477,-11.471c0.73,-1.118 19.904,-39.15 20.64,-40.187c6.743,-9.506 15.775,-25.037 17.069,-27.261c1.078,-1.853 0.617,-1.892 1.293,-3.962c1.699,-2.004 1.563,-1.865 3.541,-3.749c3.27,-3.361 3.327,-3.129 5.372,-7.4c0.921,-3.384 1.363,-3.06 3.802,-5.464c0.572,-0.745 6.754,-8.798 7.156,-9.3c0.996,-3.345 1.431,-3.008 3.85,-5.406c3.515,-2.87 9.959,-11.665 12.854,-14.695c1.79,-1.873 4.99,-7.032 12.86,-14.688c0.944,-0.919 0.77,-0.94 1.623,-1.981c0.88,-2.842 0.962,-2.89 3.691,-3.784c2.744,-2.376 16.233,-16.335 16.395,-16.525c1.82,-1.935 3.446,-3.464 3.756,-3.755c1.232,-1.048 6.276,-6.105 7.264,-7.263c0.291,-0.31 1.818,-1.937 3.754,-3.757c1.291,-1.101 6.416,-6.253 7.276,-7.259c1.843,-1.914 3.462,-3.435 3.771,-3.726c0.924,-0.788 0.812,-0.736 5.434,-5.435c1.824,-1.926 3.44,-3.462 3.747,-3.754c4.03,-3.398 3.906,-3.302 7.269,-7.266c1.827,-1.923 3.442,-3.458 3.75,-3.75c4.052,-3.438 3.941,-3.327 7.266,-7.269c0.292,-0.308 1.828,-1.924 3.754,-3.748c0.917,-0.781 0.806,-0.731 5.437,-5.434c1.825,-1.924 3.439,-3.461 3.746,-3.754c4.034,-3.399 3.909,-3.306 7.268,-7.267c1.824,-1.926 3.442,-3.46 3.75,-3.752c4.052,-3.426 3.936,-3.322 7.267,-7.267c0.292,-0.308 1.829,-1.923 3.754,-3.747c1.418,-1.206 8.928,-7.595 16.451,-16.455c1.824,-1.926 3.441,-3.461 3.749,-3.753c4.054,-3.427 3.938,-3.324 7.268,-7.267c0.292,-0.308 1.826,-1.925 3.752,-3.75c8.867,-7.529 15.248,-15.033 16.454,-16.451c1.824,-1.925 3.44,-3.462 3.748,-3.754c4.05,-3.419 3.93,-3.32 7.267,-7.267c0.292,-0.308 1.826,-1.926 3.752,-3.75c4.054,-3.437 3.944,-3.326 7.267,-7.269c0.293,-0.307 1.83,-1.922 3.754,-3.746c0.925,-0.789 0.813,-0.738 5.433,-5.437c1.824,-1.925 3.44,-3.461 3.748,-3.754c4.038,-3.406 3.916,-3.308 7.269,-7.266c0.292,-0.308 1.827,-1.924 3.75,-3.751c4.051,-3.437 3.941,-3.326 7.266,-7.269c0.292,-0.308 1.829,-1.923 3.754,-3.747c0.945,-0.804 0.83,-0.752 5.434,-5.434c1.824,-1.926 3.44,-3.462 3.747,-3.754c4.03,-3.398 3.906,-3.302 7.269,-7.266c1.827,-1.923 3.443,-3.458 3.751,-3.75c4.053,-3.434 3.94,-3.327 7.266,-7.269c0.292,-0.308 1.828,-1.924 3.754,-3.748c0.919,-0.781 0.807,-0.731 5.437,-5.433c1.825,-1.924 3.439,-3.462 3.746,-3.754c4.035,-3.4 3.91,-3.306 7.269,-7.267c1.824,-1.926 3.442,-3.46 3.75,-3.752c4.052,-3.426 3.936,-3.322 7.267,-7.267c0.292,-0.308 1.829,-1.923 3.754,-3.748c1.418,-1.206 8.922,-7.587 16.451,-16.454c1.824,-1.926 3.442,-3.46 3.75,-3.752c4.049,-3.419 3.929,-3.319 7.267,-7.268c0.292,-0.308 1.826,-1.925 3.753,-3.749c8.86,-7.523 15.249,-15.033 16.455,-16.451c1.824,-1.925 3.44,-3.462 3.747,-3.754c4.535,-3.828 4.505,-3.699 7.78,-8.718l3.213,-2.33c1.175,-1.003 6.229,-6.041 7.266,-7.261c0.291,-0.309 1.822,-1.934 3.755,-3.754c0.817,-0.7 4.936,-4.849 5.437,-5.433c1.84,-1.913 3.462,-3.436 3.771,-3.726c4.071,-3.433 3.933,-3.343 7.281,-7.264c1.238,-1.812 0.465,-2.592 3.808,-3.682c4.018,-3.29 3.916,-3.13 7.286,-7.27c0.841,-2.923 0.967,-2.925 3.835,-3.678c3.031,-1.365 3.029,-1.243 5.285,-3.742l2.047,-3.514c1.688,-1.38 1.598,-1.36 3.685,-1.924c3,-1.422 2.988,-1.318 5.25,-3.784l2.102,-3.456l1.957,-1.691c6.919,-4.001 7.01,-3.714 12.798,-9.266c1.658,-1.401 1.481,-1.399 3.524,-2.085c8.63,-6.753 8.645,-6.46 9.328,-7.103c1.805,-1.861 1.718,-1.789 3.76,-3.528c5.233,-1.738 5.168,-1.684 9.124,-5.622c1.567,-1.414 1.39,-1.426 3.498,-2.149c1.234,-0.627 8.933,-4.535 14.812,-8.945c1.894,-1.865 1.806,-1.781 3.752,-3.557l1.644,-0.366c1.834,-1.226 1.69,-1.179 3.802,-1.615c5.588,-2.623 12.671,-7.213 12.855,-7.303c2.339,-1.907 2.383,-1.457 5.437,-2.139c1.397,-0.564 0.868,-1.203 16.602,-8.882c2.336,-1.896 2.466,-1.463 5.452,-2.111c1.18,-0.451 13.405,-6.161 14.736,-7.098c2.3,-1.946 2.35,-1.7 5.428,-2.125l0.392,-0.826l5.184,-0.91c14.239,-5.479 17.346,-7.408 18.739,-8.272c2.561,-0.631 2.425,-0.615 5.165,-0.894c15.021,-2.614 29.1,-9.013 31.51,-10.108c2.645,-0.66 2.507,-0.619 5.236,-0.87c18.68,-1.725 17.863,-5.539 38.465,-7.717c2.758,-1.073 2.633,-1.184 5.611,-1.551l3.62,-0.084c4.338,-3.151 4.678,-1.492 9.251,-1.638c18.309,-0.757 68.662,-6.824 93.515,-2.858c10.818,1.726 35.629,2.731 38.733,2.857c5.345,0.187 5.564,-0.98 9.255,1.632l3.617,0.09c2.691,0.327 2.554,0.272 5.251,0.986c19.683,3.22 19.268,4.645 38.824,8.276c3.553,0.151 3.48,-0.148 7.036,0.826c4.035,2.574 27.305,9.439 29.714,10.15c2.678,0.295 2.546,0.265 5.212,0.911c9.382,4.254 9.325,4.093 18.718,8.165c4.058,0.353 4.309,-0.452 7.29,2.14c34.326,16.245 34.642,15.263 44.341,21.521c2.46,1.587 2.84,0.592 5.244,2.368c4.359,3.222 4.22,3.195 9.203,5.408c2.099,0.609 2.003,0.638 3.647,1.942c3.663,2.13 14.733,8.567 44.161,29.241c3.361,0.939 3.035,1.375 5.432,3.819c3.756,4.67 3.712,4.761 9.231,7.188c2.855,0.778 2.974,0.777 3.846,3.656c3.959,4.476 5.022,3.105 9.045,7.398c4.43,4.728 4.044,4.968 9.302,8.982c1.889,1.112 2.251,0.373 3.56,2.096l1.712,1.941c2.051,2.063 15.461,15.552 25.718,25.706c2.709,2.28 3.416,1.782 3.994,5.3l1.632,1.943c0.201,0.237 0.289,-0.066 2.889,2.604c11.105,11.408 9.375,12.687 10.522,13.426c4.053,2.609 3.824,2.816 5.719,7.298c0.503,1.189 4.116,4.148 4.509,4.47c2.051,1.699 1.963,1.616 3.699,3.589c1.353,2.277 13.111,22.066 18.479,27.471c1.443,1.625 1.419,1.483 2.106,3.535c0.607,1.244 4.196,8.597 8.921,14.828c1.412,1.623 1.389,1.481 2.086,3.549c0.237,0.606 7.033,13.942 8.964,16.633c1.323,1.679 1.309,1.535 1.933,3.661c2.673,6.118 2.795,5.954 6.516,11.412c2.127,3.12 0.374,3.759 2.578,6.963c2.036,2.445 1.695,2.531 2.061,5.547c-1.199,5.695 -13.45,14.512 -20.148,22.317c-1.829,1.922 -3.443,3.46 -3.75,3.753c-2.548,2.183 -22.825,22.738 -24.793,24.733c-1.896,1.922 -1.708,1.904 -3.179,4.194c-1.747,2.066 -1.659,1.962 -3.519,3.783c-0.442,0.439 -3.241,3.222 -5.498,5.52c-2.602,3.076 -2.519,2.964 -5.513,5.508c-2.206,2.173 -5.083,5.054 -5.523,5.495c-1.43,1.433 -2.207,2.21 -3.673,3.673c-0.441,0.44 -3.3,3.295 -5.494,5.524c-2.573,3.023 -2.463,2.934 -5.509,5.513c-0.445,0.437 -2.78,2.73 -5.509,5.509c-2.606,3.08 -2.523,2.968 -5.512,5.509c-2.221,2.186 -5.084,5.053 -5.524,5.494c-1.43,1.433 -2.207,2.21 -3.673,3.673c-0.441,0.44 -3.321,3.317 -5.495,5.523c-2.607,3.064 -2.511,2.969 -5.515,5.506c-2.538,2.503 -5.074,5.063 -5.513,5.506c-2.587,2.96 -2.448,2.829 -5.51,5.51c-10.186,10.076 -9.846,10.255 -20.22,20.184c-3.31,3.168 -3.584,2.631 -6.993,5.796c-1.141,1.641 -0.327,2.506 -3.802,3.694c-3.002,2.429 -6.956,6.486 -7.533,7.079c-1.649,1.366 -1.47,1.382 -3.603,2.023c-0.845,0.402 -3.941,1.876 -9.243,7.173c-1.636,1.432 -1.494,1.408 -3.547,2.093c-6.733,3.263 -6.321,3.817 -12.99,7.088c-2.321,2.042 -2.33,1.885 -5.298,2.571c-0.849,0.211 -1.27,1.337 -2.118,1.548c-0.235,0.059 -0.172,-0.144 -2.319,-1.948c-2.556,-4.227 -1.354,-4.412 -1.429,-11.385c-0.222,-3.17 -1.686,-24.081 -8.423,-38.82c-0.644,-2.603 -0.618,-2.457 -0.877,-5.234c-0.147,-1.328 1.317,-1.694 -6.421,-18.678c-1.61,-3.534 -1.794,-3.39 -1.857,-3.717c-0.345,-1.796 0.049,-1.779 -1.001,-3.201c-1.776,-2.545 -1.27,-2.647 -1.773,-5.584c-0.474,-1.215 -4.06,-10.399 -7.306,-14.578c-3.164,-3.057 -3.02,-3.095 -3.746,-7.423c-0.853,-1.799 -1.081,-1.426 -13.764,-20.733c-2.96,-4.506 -4.07,-3.531 -6.465,-8.54c-0.621,-1.3 -1.829,-0.192 -11.887,-13.533c-1.247,-1.654 -1.288,-1.398 -2.699,-2.929c-2.127,-0.695 -1.925,-0.737 -3.523,-2.051l-2.069,-3.507c-0.874,-1.028 -1.223,-0.625 -12.583,-11.224c-6.715,-6.266 -16.416,-12.562 -17.923,-13.54c-12.65,-8.21 -12.03,-9.376 -18.723,-10.477c-1.984,-1.697 -1.905,-1.625 -3.804,-3.457c-5.065,-3.46 -50.767,-25.556 -84.412,-27.522c-6.696,0.213 -6.654,0.496 -12.87,-1.712l-12.839,0.078l-12.85,0.006l-14.676,-0.081c-6.218,2.199 -6.188,1.919 -12.869,1.735c-3.034,0.148 -29.344,1.434 -37.022,8.419c-3.554,0.972 -3.45,0.683 -7.025,0.86c-12.014,1.553 -13.394,6.313 -21.79,7.753c-3.392,2.572 -3.289,2.559 -7.553,3.292c-1.406,0.541 -9.994,3.848 -16.569,8.955c-2.263,1.922 -2.389,1.502 -5.361,2.167c-0.771,0.254 -5.675,3.45 -7.515,5.147c-1.628,1.393 -1.452,1.393 -3.516,2.123c-4.022,2.083 -27.014,19.751 -36.61,29.321c-0.943,2.802 -0.989,2.8 -3.786,3.688c-4.126,3.322 -3.986,3.221 -7.3,7.258c-0.858,2.871 -0.919,2.892 -3.736,3.736c-4.157,3.369 -4.035,3.247 -7.265,7.292c-0.835,2.82 -0.874,2.893 -3.759,3.716c-0.478,0.39 -0.244,0.428 -5.46,5.445c-1.175,4.174 -1.393,4.395 -5.571,5.555c-0.473,0.397 -0.256,0.421 -5.435,5.474c-0.835,2.794 -0.89,2.883 -3.725,3.742c-4.111,3.364 -3.983,3.245 -7.282,7.286c-0.858,2.825 -0.941,2.887 -3.746,3.72c-0.476,0.393 -0.267,0.42 -5.465,5.443c-1.168,4.167 -1.38,4.392 -5.565,5.56c-0.473,0.396 -0.263,0.42 -5.438,5.47c-0.835,2.796 -0.891,2.884 -3.723,3.744c-4.114,3.358 -3.982,3.244 -7.286,7.282c-0.859,2.835 -0.948,2.891 -3.742,3.725c-0.476,0.392 -0.265,0.42 -5.472,5.437c-1.167,4.188 -1.394,4.398 -5.559,5.566c-0.474,0.395 -0.265,0.421 -5.444,5.465c-0.832,2.8 -0.889,2.887 -3.718,3.749c-4.109,3.348 -3.976,3.235 -7.29,7.277c-0.856,2.837 -0.945,2.893 -3.737,3.731c-0.477,0.392 -0.266,0.42 -5.479,5.43c-1.157,4.178 -1.377,4.395 -5.551,5.575c-0.475,0.394 -0.266,0.42 -5.45,5.457c-0.83,2.805 -0.889,2.89 -3.715,3.752c-4.119,3.355 -3.986,3.243 -7.291,7.277c-0.857,2.842 -0.95,2.895 -3.734,3.734c-4.116,3.373 -3.988,3.253 -7.277,7.291c-0.862,2.826 -0.947,2.885 -3.752,3.715c-0.475,0.394 -0.266,0.42 -5.457,5.45c-1.179,4.174 -1.396,4.394 -5.575,5.551c-0.473,0.397 -0.26,0.421 -5.43,5.479c-0.838,2.791 -0.894,2.881 -3.731,3.737c-4.119,3.376 -3.99,3.256 -7.277,7.29c-0.863,2.829 -0.949,2.886 -3.749,3.718c-0.476,0.393 -0.267,0.42 -5.465,5.444c-1.168,4.164 -1.378,4.392 -5.566,5.559c-0.473,0.396 -0.261,0.421 -5.437,5.472c-0.835,2.794 -0.89,2.883 -3.725,3.742c-4.111,3.364 -3.983,3.245 -7.282,7.286c-0.86,2.832 -0.948,2.889 -3.744,3.723c-0.476,0.392 -0.267,0.42 -5.47,5.438c-1.168,4.185 -1.394,4.397 -5.56,5.565c-0.474,0.395 -0.264,0.42 -5.443,5.465c-0.834,2.806 -0.895,2.889 -3.72,3.746c-4.114,3.358 -3.982,3.244 -7.286,7.282c-0.859,2.836 -0.948,2.891 -3.742,3.725c-0.476,0.392 -0.261,0.42 -5.474,5.435c-1.161,4.18 -1.382,4.396 -5.555,5.57c-0.474,0.395 -0.268,0.42 -5.445,5.463c-0.832,2.8 -0.89,2.887 -3.718,3.75c-4.116,3.353 -3.984,3.239 -7.291,7.276c-0.855,2.837 -0.945,2.893 -3.736,3.731c-4.11,3.374 -3.984,3.25 -7.275,7.293c-0.86,2.82 -0.941,2.883 -3.756,3.709c-0.474,0.395 -0.26,0.42 -5.453,5.457c-0.827,2.808 -0.887,2.893 -3.712,3.753c-4.108,3.343 -3.974,3.232 -7.292,7.276c-0.839,2.792 -0.895,2.881 -3.732,3.736c-3.998,3.276 -3.936,3.133 -7.269,7.293c-0.836,2.821 -0.877,2.893 -3.76,3.716c-0.478,0.389 -0.232,0.432 -5.454,5.447c-1.169,4.283 -1.422,4.443 -5.578,5.554c-0.476,0.392 -0.213,0.433 -5.433,5.468c-0.832,2.804 -0.84,2.878 -3.727,3.744c-4.608,3.776 -4.725,3.631 -7.625,8.876l-3.298,2.241c-3.552,3.059 -3.656,2.891 -5.607,7.09c-0.757,2.873 -0.767,2.987 -3.64,3.839c-0.585,0.528 -0.531,0.546 -7.307,9.095c-0.662,2.03 -0.656,1.852 -2.085,3.515c-2.796,3.01 -5.746,5.727 -9.03,12.918c-0.505,2.166 -0.498,1.988 -1.75,3.754c-5.214,5.386 -4.344,5.879 -7.493,12.747c-0.45,2.184 -0.417,2.044 -1.591,3.801c-0.6,2.044 -0.545,1.903 -1.842,3.67c-3.231,3.945 -6.918,13.389 -7.394,14.609l-0.948,5.116c-6.156,9.93 -9.658,28.954 -10.138,31.562c-0.277,2.762 -0.238,2.625 -0.904,5.245l-0.844,3.947c-0.337,2.76 -0.297,2.628 -0.991,5.244c-7.547,43.94 -4.584,44.156 -0.608,82.76c1.1,2.723 1.243,2.591 1.602,5.607l0.122,3.599c2.26,3.384 1.402,3.506 1.625,7.424c0.213,1.981 1.62,15.085 7.221,23.842c0.055,0.064 3.066,2.384 3.775,11.029c1.122,2.73 9.978,24.273 16.393,33.062c1.894,1.879 1.803,1.781 3.508,3.771c1.331,7.648 2.216,7.252 7.479,12.779c1.398,1.652 1.396,1.475 2.104,3.522c0.563,0.995 2.8,4.944 8.906,11.178c1.925,1.906 1.828,1.807 3.503,3.792c2.498,3.98 2.639,3.722 5.843,7.005c2.903,0.85 2.915,0.981 3.684,3.82c2.352,4.917 2.399,4.927 7.24,7.258c2.875,0.764 2.986,0.796 3.826,3.672c0.392,0.474 0.411,0.373 5.486,5.383l3.479,2.122c3.215,4.112 11.897,9.987 13.015,10.744l3.502,2.125c6.906,5.352 6.405,6 14.733,9.133c0.252,0.095 6.886,6.91 34.904,18.198c2.957,0.478 3.036,0.005 5.578,1.696c3.098,0.419 3.146,0.178 5.441,2.109c5.295,3.32 21.894,6.799 23.845,7.208c3.612,0.229 3.511,-0.021 7.083,0.9l3.94,0.865c2.72,0.318 2.585,0.276 5.248,0.973c34.805,6.129 34.862,5.166 69.972,2.491c2.032,-0.155 11.761,-1.746 12.782,-1.913c2.74,-1.052 2.613,-1.171 5.608,-1.548l3.947,-0.844c2.644,-0.667 2.51,-0.627 5.243,-0.913c12.777,-1.112 28.996,-8.559 31.563,-10.127l5.123,-0.934c0.912,-0.361 7.776,-3.077 11.046,-5.313c1.585,-1.372 1.444,-1.354 3.552,-2.112c1.757,-1.285 1.616,-1.234 3.686,-1.814c2.482,-1.736 2.492,-1.325 5.48,-1.894c0.881,-0.299 8.74,-5.024 11.056,-7.213l3.744,-1.776c0.666,-0.301 3.809,-1.725 7.419,-5.329c1.629,-1.435 1.452,-1.432 3.49,-2.143l2.005,-1.549l3.513,-2.09c0.73,-0.582 8.704,-6.943 9.103,-7.31c0.887,-2.86 1.017,-2.854 3.767,-3.679c4.662,-2.765 6.666,-5.017 7.147,-5.558c1.837,-1.919 3.474,-3.43 3.786,-3.718c4.064,-3.321 3.983,-3.158 7.333,-7.207c0.87,-2.749 0.922,-2.846 3.743,-3.731c0.474,-0.394 0.311,-0.411 5.469,-5.433c1.226,-4.195 1.436,-4.353 5.555,-5.579c3.159,-2.418 2.903,-2.488 5.382,-5.501c1.816,-1.934 3.432,-3.471 3.739,-3.763c4.035,-3.365 3.914,-3.265 7.273,-7.265c1.148,-1.677 0.327,-2.545 3.797,-3.704c0.636,-0.522 0.508,-0.543 7.277,-7.268c0.876,-2.849 0.928,-2.875 3.758,-3.716c0.475,-0.393 0.275,-0.42 5.451,-5.447c0.841,-2.841 0.876,-2.888 3.719,-3.757c4.072,-3.307 3.947,-3.188 7.287,-7.271c0.862,-2.86 0.915,-2.888 3.735,-3.743c4.072,-3.322 3.952,-3.197 7.274,-7.283c0.867,-2.834 0.906,-2.875 3.753,-3.725c0.475,-0.392 0.3,-0.417 5.448,-5.448c1.227,-4.133 1.402,-4.332 5.561,-5.565c0.46,-0.41 0.355,-0.407 5.383,-5.515c0.289,-0.31 1.806,-1.935 3.718,-3.776c0.894,-0.759 6.11,-5.912 7.257,-7.278c0.29,-0.31 1.816,-1.941 3.759,-3.754c3.577,-3.023 3.458,-3.001 5.936,-6.882c2.152,-2.569 2.237,-2.346 5.064,-4.149c1.594,-1.376 12.692,-12.596 13.786,-13.701c0.216,-0.218 2.203,-2.227 2.658,-2.761c1.831,-1.928 3.466,-3.44 3.778,-3.729c0.63,-0.533 2.05,-1.732 7.214,-7.37c1.052,-2.754 1.564,-2.224 3.83,-3.626c3.687,-3.068 4.492,-2.397 5.805,-6.979c2.709,-2.932 3.097,-2.419 7.005,-1.221c6.466,3.994 23.892,7.899 26.026,8.378c3.992,0.107 4.232,-0.835 7.447,1.668c0.438,0.293 8.571,2.88 9.32,3.119c17.173,5.463 26.765,6.047 29.144,6.192c3.624,0.189 3.545,-0.085 7.093,0.854c41.537,10.377 79.59,10.101 86.562,10.051c19.393,-0.049 19.195,-0.067 38.558,0.005c6.939,0.039 46.607,0.259 86.235,-9.281c3.324,-2.293 3.502,-1.426 7.42,-1.622c26.641,-2.226 42.983,-15.39 38.851,-5.202c-0.659,1.624 -10.298,6.63 -13.113,12.749c-0.478,1.039 -1.09,0.202 -10.548,9.654c-6.943,6.939 -6.288,7.342 -13.757,13.64c-0.953,0.804 0.122,1.596 -11.021,11.019c-1.118,0.945 -0.041,1.708 -12.43,13.433c-1.032,0.977 -0.764,0.944 -1.616,1.996c-0.811,2.871 -0.871,2.926 -3.722,3.755c-4.051,3.231 -3.934,3.092 -7.28,7.276c-0.824,2.85 -0.876,2.912 -3.75,3.727c-4.023,3.247 -3.983,3.178 -7.264,7.295c-0.836,2.869 -0.904,2.915 -3.767,3.707c-3.04,2.484 -2.943,2.377 -5.444,5.459c-0.804,2.868 -0.857,2.928 -3.716,3.76c-4.2,3.346 -4.05,3.24 -7.287,7.27c-0.817,2.843 -0.862,2.913 -3.741,3.736c-4.035,3.249 -3.927,3.098 -7.266,7.291c-0.836,2.863 -0.901,2.912 -3.765,3.71c-3.038,2.477 -2.94,2.371 -5.451,5.451c-0.798,2.864 -0.847,2.929 -3.71,3.765c-4.192,3.339 -4.043,3.231 -7.291,7.266c-0.823,2.879 -0.892,2.925 -3.736,3.741c-4.045,3.249 -3.936,3.101 -7.27,7.287c-0.83,2.85 -0.885,2.91 -3.756,3.719c-0.478,0.391 -0.229,0.428 -5.475,5.434c-0.81,2.864 -0.858,2.915 -3.702,3.759c-4.116,3.348 -3.977,3.24 -7.3,7.272c-0.833,2.875 -0.895,2.909 -3.722,3.742c-4.004,3.275 -3.898,3.135 -7.281,7.288c-0.837,2.828 -0.875,2.888 -3.748,3.716c-0.558,0.462 -6.608,5.47 -6.879,5.89c-3.915,6.071 -4.974,5.002 -9.594,10.584c-0.828,2.872 -0.887,2.911 -3.716,3.748c-4.142,3.376 -4.006,3.266 -7.287,7.283c-0.833,2.825 -0.867,2.888 -3.744,3.72c-0.559,0.461 -6.609,5.459 -6.883,5.886c-3.893,6.041 -4.946,4.983 -9.596,10.583c-0.824,2.872 -0.881,2.912 -3.713,3.75c-4.14,3.376 -4.003,3.267 -7.287,7.283c-0.833,2.825 -0.866,2.888 -3.741,3.724c-4.128,3.396 -4,3.275 -7.273,7.298c-0.844,2.845 -0.895,2.892 -3.759,3.702c-0.474,0.396 -0.21,0.426 -5.45,5.464c-0.821,2.866 -0.873,2.911 -3.71,3.752c-4.137,3.37 -4,3.262 -7.291,7.278c-0.826,2.814 -0.848,2.886 -3.733,3.733c-4.137,3.388 -4.006,3.273 -7.279,7.291c-0.842,2.841 -0.89,2.891 -3.754,3.708c-0.475,0.395 -0.213,0.425 -5.459,5.455c-0.805,2.814 -0.813,2.895 -3.697,3.759c-4.014,3.335 -3.892,3.208 -7.29,7.285c-0.86,2.847 -0.958,2.896 -3.73,3.738c-4.019,3.337 -3.902,3.204 -7.282,7.286c-0.843,2.765 -0.889,2.867 -3.749,3.716c-0.396,0.333 -0.314,0.344 -4.526,4.615c-5.98,6.063 -6.571,5.292 -11.949,11.857c-0.81,2.895 -0.908,2.93 -3.811,3.692c-4.157,1.934 -3.992,2.039 -7.052,5.629l-2.144,3.444c-1.616,1.336 -1.514,1.372 -3.585,1.992c-0.672,0.483 -4.994,3.584 -7.469,7.155l-3.511,2.092c-2.469,1.922 -5.269,4.78 -5.702,5.222c-1.828,1.872 -1.723,1.779 -3.76,3.543c-6.061,3.785 -6.428,3.145 -10.917,7.495c-6.693,6.485 -8.183,4.462 -14.709,11c-1.593,1.406 -1.416,1.414 -3.509,2.13c-1.457,0.629 -5.938,2.563 -16.664,10.769c-1.709,1.375 -1.565,1.351 -3.641,1.959c-9.454,4.205 -8.209,6.429 -18.002,9.795c-4.187,1.439 -11.137,6.932 -12.032,7.639c-0.532,0.42 -15.315,6.506 -17.764,8.137c-1.653,1.42 -1.51,1.39 -3.543,2.115c-2.45,1.715 -2.448,1.319 -5.501,1.952c-5.655,1.014 -10.628,3.969 -11.475,4.472c-7.479,4.444 -12.417,5.143 -14.257,6.45c-2.508,1.797 -2.553,1.478 -5.613,1.712c-1.335,0.199 -9.832,2.171 -16.883,6.468l-5.056,1.1l-0.385,0.778c-2.668,0.685 -2.536,0.65 -5.153,0.987c-3.235,2.323 -3.415,1.486 -7.423,1.688c-2.345,0.604 -25.175,6.483 -29.306,7.585c-3.33,2.214 -3.486,1.398 -7.435,1.622c-31.115,4.617 -30.875,5.969 -62.347,7.744c-2.757,1.064 -2.637,1.166 -5.605,1.532l-60.64,0.003c-3.638,-0.302 -3.531,-0.033 -7.109,-1.023c-36.181,-2.243 -42.14,-7.149 -62.685,-8.239c-2.772,-0.28 -2.636,-0.241 -5.246,-0.92c-2.533,-0.613 -2.429,-0.798 -31.481,-8.375c-2.651,-0.208 -2.506,-0.184 -5.238,-0.785c-3.056,-1.425 -25.622,-9.318 -27.86,-10.1c-4.064,-0.24 -4.365,0.619 -7.342,-2.018c-8.566,-4.151 -17.556,-7.755 -20.233,-8.937c-2.965,-0.565 -2.968,-0.119 -5.579,-1.824c-0.648,-0.452 -0.888,0.228 -8.727,-4.626c-0.445,-0.276 -3.004,-1.86 -5.959,-2.706c-3.036,-0.583 -3.043,-0.221 -5.499,-1.904c-3.256,-2.644 -3.864,-1.422 -7.252,-3.901c-8.669,-6.342 -11.196,-5.989 -12.965,-7.109c-2.095,-0.611 -1.918,-0.589 -3.677,-1.87c-10.412,-9.587 -12.744,-6.024 -23.704,-14.976c-2.641,-2.157 -2.501,-2.082 -5.594,-3.482c-2.095,-0.602 -1.999,-0.633 -3.627,-1.982c-4.976,-4.918 -26.215,-19.098 -29.562,-21.758c-3.237,-1.117 -2.51,-1.808 -3.8,-3.691c-2.303,-2.464 -2.293,-2.352 -5.27,-3.776c-2.872,-0.81 -2.949,-0.811 -3.916,-3.58c-3.074,-3.504 -2.914,-3.607 -7.104,-5.609c-2.879,-0.764 -2.986,-0.793 -3.848,-3.641c-3.452,-3.987 -3.356,-3.855 -7.342,-7.211c-2.878,-1.815 -2.876,-1.598 -5.255,-4.018c-1.173,-1.178 -7.71,-7.746 -14.693,-14.692c-1.908,-1.876 -1.815,-1.779 -3.518,-3.781c-3.244,-5.067 -3.196,-4.912 -7.711,-8.812c-2.925,-0.89 -2.894,-1.013 -3.69,-3.784c-2.755,-4.667 -5.018,-6.684 -5.559,-7.167c-2.166,-1.507 -2.742,-0.997 -3.575,-3.923c-1.466,-3.043 -1.376,-3.019 -3.785,-5.26l-3.256,-2.254c-4.278,-6.741 -3.588,-7.051 -9.326,-12.756c-1.436,-1.661 -1.426,-1.483 -2.139,-3.492c-5.635,-7.369 -4.306,-8.27 -10.944,-14.736l-1.791,-3.747c-1.468,-3.244 -10.864,-15.849 -11.936,-18.83c-1.456,-4.05 -1.606,-3.867 -4.397,-6.958c-1.426,-1.614 -1.406,-1.422 -2.147,-3.51c-4.242,-8.556 -4.737,-8.171 -8.91,-16.666c-1.42,-1.616 -1.395,-1.475 -2.123,-3.537c-1.211,-1.702 -1.212,-1.59 -1.799,-3.703c-1.723,-2.483 -1.31,-2.491 -1.865,-5.508c-0.308,-1.074 -1.459,-0.34 -5.957,-12.636c-1.046,-2.86 -2.344,-2.225 -3.246,-7.612c-0.292,-1.746 -0.379,-2.265 -8.909,-20.253c-2.732,-3.098 -1.794,-3.363 -2.077,-7.316c-7.418,-21.172 -7.503,-21.716 -7.811,-23.687c-2.923,-4.214 -2.89,-4.187 -3.061,-9.42c-2.937,-11.355 -2.659,-11.25 -6.519,-22.312c-0.688,-2.631 -0.647,-2.497 -0.97,-5.229l-0.849,-3.95c-0.67,-2.631 -0.631,-2.498 -0.914,-5.244c-0.244,-3.396 -0.819,-3.274 -6.054,-42.121c-1.246,-9.245 -1.196,-9.051 -1.676,-18.4c-1.075,-2.754 -1.177,-2.634 -1.548,-5.594Zm573.058,-352.615c1.433,-10.624 17.34,-17.303 26.145,-31.135c1.772,-2.083 1.658,-1.95 3.503,-3.792c0.294,-0.294 1.838,-1.835 3.671,-3.675l1.825,-1.848c4.231,-4.237 3.908,-4.465 8.974,-7.642c3.193,-2.718 105.395,-104.804 109.252,-109.217c4.869,-5.571 6.293,-3.734 11.444,-8.912c4.216,-4.238 3.866,-4.615 4.37,-4.72c9.366,-1.943 6.997,-6.959 20.076,-11.314c5.613,-1.868 13.495,-10.862 17.951,-4.801c1.805,6.215 0.895,6.175 0.735,12.551c0.46,9.469 1.563,21.923 8.399,37.039c0.902,3.436 0.683,3.304 0.923,6.989c0.586,1.812 5.443,16.846 8.957,22.057c1.933,2.325 1.671,2.377 2.034,5.477c3.238,7.935 4.35,7.086 4.55,7.779c0.219,0.757 1.452,5.026 4.672,8.669c1.266,1.831 1.214,1.688 1.676,3.775c4.489,9.814 15.822,24.558 16.659,25.492c2.883,0.903 2.836,1.068 3.588,3.867c2.354,5.178 12.365,16.094 16.238,18.599c1.549,1.306 1.583,1.108 2.453,3.047c4.454,5.12 19.87,17.226 21.669,18.638c1.609,1.264 1.094,1.552 2.411,3.026c0.51,0.571 1,-0.264 8.055,5.166c12.35,9.505 17.038,10.214 18.735,10.47c1.989,1.694 1.857,1.57 3.796,3.47c6.727,4.784 7.038,3.997 14.663,7.31l3.309,0.79c1.793,1.096 14.425,8.816 24.233,10.127c2.667,0.282 2.535,0.25 5.217,0.905c16.296,7.343 33.963,8.215 36.994,8.364c6.687,-0.205 6.659,-0.486 12.868,1.723l12.84,-0.062l16.523,0.002l12.838,0.062c6.269,-2.19 6.224,-1.896 12.87,-1.707c19.313,-1.068 26.225,-4.673 36.993,-8.39c2.581,-0.621 2.447,-0.605 5.219,-0.897c1.528,-0.399 12.972,-3.388 18.459,-6.984c2.548,-1.67 2.959,-0.524 5.317,-2.263c2.5,-1.748 2.588,-1.291 5.564,-1.82c18.193,-7.159 58.434,-34.82 69.54,-47.725c1.832,-1.916 3.451,-3.444 3.759,-3.735c3.98,-3.317 3.868,-3.208 7.273,-7.264c1.823,-1.926 3.441,-3.458 3.749,-3.749c3.996,-3.353 3.896,-3.233 7.265,-7.273c0.292,-0.308 1.828,-1.924 3.756,-3.742c4.882,-4.816 4.858,-4.746 5.44,-5.434c2.133,-3.564 2.117,-3.508 5.585,-5.577c4.912,-4.871 4.892,-4.808 5.429,-5.446c1.821,-1.927 3.438,-3.46 3.746,-3.752c3.991,-3.342 3.887,-3.225 7.266,-7.272c0.292,-0.307 1.828,-1.923 3.756,-3.742c4.914,-4.847 4.892,-4.781 5.443,-5.432c2.071,-3.469 2.017,-3.453 5.58,-5.581c4.917,-4.872 4.897,-4.809 5.432,-5.443c1.821,-1.926 3.436,-3.462 3.743,-3.755c3.989,-3.335 3.882,-3.221 7.271,-7.268c0.292,-0.308 1.825,-1.925 3.752,-3.746c4.915,-4.844 4.893,-4.778 5.446,-5.429c2.069,-3.468 2.013,-3.452 5.577,-5.585c4.879,-4.824 4.856,-4.754 5.434,-5.44c1.818,-1.928 3.434,-3.464 3.742,-3.756c3.98,-3.319 3.871,-3.207 7.273,-7.265c0.291,-0.308 1.822,-1.926 3.749,-3.749c4.899,-4.822 4.875,-4.753 5.448,-5.426c2.068,-3.47 2.014,-3.454 5.575,-5.587c4.882,-4.82 4.858,-4.75 5.438,-5.436c1.817,-1.929 3.432,-3.466 3.74,-3.758c3.981,-3.319 3.869,-3.21 7.273,-7.265c1.823,-1.926 3.441,-3.457 3.749,-3.749c3.994,-3.353 3.896,-3.232 7.265,-7.273c0.292,-0.307 1.83,-1.922 3.758,-3.74c4.882,-4.823 4.858,-4.753 5.436,-5.438c2.134,-3.561 2.117,-3.506 5.587,-5.575c4.894,-4.855 4.873,-4.789 5.426,-5.448c1.823,-1.927 3.441,-3.457 3.749,-3.749c3.991,-3.345 3.89,-3.226 7.265,-7.273c0.292,-0.308 1.828,-1.924 3.756,-3.742c4.882,-4.816 4.858,-4.746 5.44,-5.434c2.133,-3.564 2.117,-3.508 5.585,-5.577c4.912,-4.87 4.892,-4.807 5.429,-5.446c1.821,-1.927 3.438,-3.46 3.746,-3.752c3.992,-3.343 3.887,-3.228 7.268,-7.271c0.292,-0.307 1.828,-1.922 3.755,-3.743c4.921,-4.855 4.899,-4.791 5.443,-5.432c2.128,-3.564 2.112,-3.509 5.581,-5.58c4.908,-4.861 4.886,-4.797 5.432,-5.443c1.818,-1.928 3.434,-3.464 3.742,-3.756c3.982,-3.324 3.876,-3.21 7.272,-7.266c0.292,-0.308 1.825,-1.925 3.752,-3.746c4.915,-4.843 4.892,-4.777 5.446,-5.429c2.068,-3.468 2.013,-3.452 5.577,-5.585c4.879,-4.824 4.856,-4.754 5.434,-5.44c1.818,-1.928 3.434,-3.464 3.742,-3.756c3.979,-3.318 3.868,-3.208 7.273,-7.265c0.292,-0.308 1.823,-1.926 3.749,-3.749c3.994,-3.353 3.896,-3.232 7.265,-7.273c0.292,-0.307 1.83,-1.922 3.758,-3.739c4.896,-4.838 4.873,-4.77 5.437,-5.437c1.817,-1.929 3.432,-3.466 3.74,-3.758c3.981,-3.319 3.869,-3.21 7.273,-7.265c1.823,-1.926 3.441,-3.458 3.749,-3.749c3.996,-3.353 3.896,-3.234 7.266,-7.272c1.115,-1.617 0.275,-2.52 3.8,-3.703c5.053,-5.062 5.068,-4.946 5.463,-5.418c1.226,-4.119 1.383,-4.33 5.579,-5.556c5.021,-5.157 5.038,-4.995 5.432,-5.469c0.901,-2.856 0.947,-2.859 3.695,-3.772c6.142,-6.132 6.091,-5.983 7.214,-7.335c0.286,-0.31 1.799,-1.948 3.694,-3.77c0.495,-0.531 0.204,-0.514 5.619,-7.13c0.859,-2.83 0.872,-2.88 3.644,-3.798c6.112,-6.795 5.278,-7.252 10.972,-14.602c0.701,-2.01 0.691,-1.832 2.146,-3.481c3.282,-3.263 3.375,-3.086 5.353,-7.408c0.503,-2.149 0.492,-1.97 1.743,-3.761c5.233,-5.438 4.338,-5.949 7.512,-12.736c0.445,-2.112 0.425,-2.011 1.638,-3.778l0.35,-1.669c1.999,-2.794 1.374,-3.022 3.552,-5.58c2.283,-3.265 4.923,-10.142 5.275,-11.057l0.956,-5.117c1.579,-2.564 9.083,-18.913 10.139,-31.563c0.286,-3.028 -0.015,-3.049 1.603,-5.593l0.149,-3.595c0.359,-2.959 0.478,-2.831 1.569,-5.608c1.843,-17.343 9.267,-44.779 -2.461,-91.94c-0.939,-3.588 -0.671,-3.489 -0.87,-7.088c-0.402,-1.952 -3.827,-18.563 -7.218,-23.84c-1.952,-2.28 -1.707,-2.333 -2.109,-5.442c-1.717,-2.504 -1.415,-2.533 -1.662,-5.589c-1.125,-2.729 -10.175,-24.676 -16.398,-33.058c-1.913,-1.89 -1.816,-1.79 -3.511,-3.77c-1.252,-7.383 -2.017,-7.061 -7.469,-12.785c-1.403,-1.651 -1.4,-1.473 -2.11,-3.518c-4.046,-6.019 -3.362,-6.495 -8.897,-11.185c-2.443,-2.404 -2.23,-2.446 -3.966,-5.307c-5.025,-5.065 -4.921,-5.084 -5.396,-5.475c-2.826,-0.833 -2.889,-0.905 -3.681,-3.828c-2.34,-4.941 -2.392,-4.955 -7.246,-7.231c-2.867,-0.786 -2.971,-0.791 -3.824,-3.691c-3.305,-3.249 -3.063,-3.409 -6.995,-5.854c-2.015,-1.677 -1.938,-1.606 -3.793,-3.499c-3.099,-3.088 -25.592,-22.565 -64.314,-38.375c-8.498,-0.736 -10.83,-3.621 -11.027,-3.786c-9.206,-5.799 -23.549,-7.034 -25.675,-7.217c-3.036,-0.29 -3.057,0.008 -5.592,-1.613l-3.596,-0.141c-3.002,-0.369 -2.875,-0.492 -5.605,-1.559c-8.334,-0.722 -8.317,-0.547 -9.001,-0.78c-10.626,-3.613 -50.567,-3.585 -64.395,0.012c-1.565,0.407 -17.069,2.929 -18.556,3.171c-2.715,0.686 -2.573,0.639 -5.243,0.901c-2.608,0.481 -21.456,3.961 -31.559,10.138l-5.128,0.924c-1.218,0.483 -11.002,4.364 -14.596,7.423c-1.761,1.29 -1.62,1.238 -3.685,1.82c-2.434,1.699 -2.43,1.291 -5.507,1.85c-0.797,0.253 -31.751,18.463 -38.701,27.237c-2.377,2.501 -2.059,2.908 -5.373,3.887c-3.075,2.503 -3.189,2.139 -5.655,5.285c-1.876,1.929 -1.789,1.843 -3.777,3.527c-5.053,3.048 -5.001,3.056 -8.851,7.661c-0.862,2.834 -0.954,2.886 -3.742,3.724c-5.046,5.189 -5.082,4.954 -5.475,5.429c-1.111,4.156 -1.272,4.409 -5.554,5.578c-5.015,5.222 -5.058,4.975 -5.447,5.453c-0.813,2.834 -0.847,2.906 -3.714,3.755c-4.066,3.299 -3.938,3.179 -7.295,7.274c-0.855,2.837 -0.944,2.893 -3.736,3.732c-4.03,3.308 -3.893,3.194 -7.257,7.307c-0.868,2.738 -0.912,2.844 -3.752,3.721c-5.039,5.137 -5.055,4.978 -5.451,5.45c-0.876,2.836 -0.979,2.883 -3.719,3.754c-4.09,3.368 -3.954,3.258 -7.287,7.275c-0.863,2.744 -0.908,2.847 -3.736,3.739c-4.099,3.393 -3.972,3.275 -7.279,7.283c-0.868,2.742 -0.915,2.844 -3.75,3.723c-5.043,5.133 -5.059,4.973 -5.456,5.445c-1.243,4.213 -1.463,4.361 -5.575,5.558c-5.021,5.16 -5.038,4.996 -5.432,5.47c-0.884,2.828 -0.986,2.876 -3.731,3.742c-4.093,3.384 -3.965,3.267 -7.279,7.283c-0.867,2.739 -0.911,2.844 -3.746,3.727c-5.049,5.127 -5.064,4.968 -5.461,5.44c-1.213,4.125 -1.373,4.336 -5.57,5.562c-5.025,5.156 -5.042,4.992 -5.437,5.466c-0.883,2.834 -0.988,2.879 -3.729,3.744c-4.098,3.387 -3.968,3.272 -7.281,7.281c-0.866,2.746 -0.914,2.847 -3.742,3.731c-5.055,5.124 -5.069,4.963 -5.468,5.434c-1.203,4.118 -1.357,4.334 -5.561,5.572c-5.027,5.138 -5.044,4.991 -5.438,5.465c-1.417,4.735 -2.636,4.774 -9.137,2.863c-8.609,-5.449 -21.482,-8.275 -22.357,-8.408c-2.744,-0.247 -2.602,-0.24 -5.225,-0.828c-4.058,-1.878 -3.821,-2.116 -4.189,-2.21c-29.899,-7.635 -31.818,-7.754 -34.657,-7.929c-3.034,-0.272 -3.069,0.035 -5.596,-1.628c-38.776,-9.611 -74.212,-9.333 -80.711,-9.282c-24.794,0.175 -24.587,0.201 -49.577,-0.018c-42.08,-0.334 -49.242,3.795 -75.539,8.199c-2.7,0.726 -2.565,0.669 -5.25,0.992l-3.937,0.873c-3.585,0.954 -3.508,0.67 -7.095,0.847c-24.787,1.645 -40.376,13.434 -41.382,7.065c-0.692,-4.386 4.591,-4.555 11.687,-12.992c1.202,-3.495 2.09,-2.657 3.717,-3.767c1.414,-1.212 9.056,-7.76 16.449,-16.467c1.824,-1.926 3.441,-3.461 3.749,-3.753c3.949,-3.337 3.849,-3.218 7.268,-7.267c0.292,-0.308 1.826,-1.925 3.752,-3.75c8.867,-7.529 15.248,-15.033 16.454,-16.451c1.824,-1.925 3.44,-3.462 3.748,-3.754c3.952,-3.336 3.838,-3.227 7.28,-7.263c1.083,-1.576 0.229,-2.494 3.773,-3.714c4.001,-3.385 3.893,-3.254 7.27,-7.279c0.93,-2.709 0.939,-2.782 3.753,-3.733c5.038,-5.048 5.043,-4.975 5.441,-5.445c0.951,-2.807 1.02,-2.82 3.736,-3.751c3.987,-3.352 3.869,-3.231 7.275,-7.273c0.96,-2.804 1.028,-2.814 3.745,-3.743c4.006,-3.384 3.896,-3.255 7.273,-7.276c0.929,-2.713 0.939,-2.784 3.751,-3.734c5.04,-5.05 5.044,-4.975 5.444,-5.444c0.95,-2.811 1.022,-2.822 3.734,-3.751c3.985,-3.347 3.861,-3.23 7.276,-7.273c0.928,-2.717 0.939,-2.786 3.743,-3.745c3.99,-3.362 3.878,-3.236 7.273,-7.275c0.931,-2.716 0.943,-2.785 3.751,-3.736c5.041,-5.045 5.045,-4.972 5.445,-5.441c0.951,-2.814 1.024,-2.823 3.733,-3.753c3.987,-3.346 3.86,-3.232 7.28,-7.27c0.955,-2.804 1.023,-2.817 3.74,-3.747c3.994,-3.367 3.88,-3.242 7.275,-7.274c0.927,-2.714 0.936,-2.785 3.747,-3.739c1.043,-0.884 1.017,-0.701 1.955,-1.657c14.277,-14.551 14.281,-14.541 14.505,-14.804c0.956,-2.809 1.026,-2.818 3.74,-3.747c3.989,-3.357 3.871,-3.235 7.274,-7.275c0.93,-2.715 0.94,-2.784 3.747,-3.74c1.047,-0.887 1.022,-0.704 1.956,-1.656c14.506,-14.79 14.369,-14.642 14.506,-14.803c0.955,-2.812 1.028,-2.82 3.739,-3.747c3.995,-3.364 3.876,-3.243 7.274,-7.275c0.931,-2.718 0.943,-2.785 3.746,-3.742c4.003,-3.383 3.894,-3.254 7.271,-7.278c0.93,-2.71 0.939,-2.782 3.753,-3.733c5.038,-5.049 5.042,-4.976 5.441,-5.445c0.952,-2.808 1.021,-2.819 3.736,-3.75c3.988,-3.352 3.869,-3.232 7.276,-7.273c0.931,-2.718 0.943,-2.785 3.744,-3.744c3.99,-3.363 3.881,-3.235 7.274,-7.275c0.93,-2.714 0.94,-2.784 3.75,-3.736c5.041,-5.045 5.046,-4.972 5.445,-5.441c0.951,-2.814 1.024,-2.823 3.733,-3.753c3.979,-3.34 3.866,-3.219 7.257,-7.282c0.29,-0.31 1.812,-1.937 3.732,-3.773c3.95,-3.343 3.851,-3.223 7.266,-7.268c0.293,-0.308 1.83,-1.923 3.766,-3.74c1.048,-0.87 1.011,-0.697 1.97,-1.634c1.186,-1.16 12.318,-12.049 14.559,-14.757c0.841,-2.847 0.895,-2.893 3.74,-3.732c3.882,-3.095 4.376,-2.471 7.667,-6.992c2.216,-2.617 2.316,-2.359 5.166,-4.067c2.799,-2.263 16.909,-14.224 18.538,-16.274c2.44,-2.509 2.124,-2.894 5.401,-3.858c0.731,-0.588 0.678,-0.514 9.301,-7.152c1.83,-1.871 1.748,-1.8 3.776,-3.498c5.175,-1.802 5.07,-1.792 9.084,-5.68c1.92,-2.013 1.779,-1.868 3.746,-3.546c4.744,-1.524 4.723,-1.4 8.886,-4.184c14.433,-9.651 14.949,-8.767 16.167,-9.652c17.122,-12.438 39.572,-20.216 46.371,-25.16c2.476,-1.701 2.473,-1.315 5.488,-1.963c1.663,-0.344 1.533,-0.305 1.663,-0.344c0.534,-0.159 -0.079,-0.63 0.422,-0.844c21.665,-9.223 21.969,-8.554 23.656,-9.711c2.552,-1.761 2.591,-1.443 5.604,-1.705c9.135,-3.784 20.533,-7.714 22.337,-8.336c2.551,-0.645 2.414,-0.627 5.155,-0.982l0.344,-0.877c3.591,-0.831 3.438,-0.629 7.071,-0.833c27.454,-7.113 27.261,-7.731 29.653,-8.325c3.558,-0.939 3.478,-0.672 7.087,-0.885c21.428,-1.34 20.951,-3.854 42.212,-5.875c14.867,-1.413 14.737,-2.631 58.819,-2.631c69.701,-0 69.081,6.978 97.358,8.492c2.763,0.282 2.627,0.243 5.247,0.918c4.776,1.164 24.066,7.382 31.479,8.379c3.058,0.249 3.083,-0.048 5.595,1.619c6.37,2.403 6.5,1.451 12.725,4.084c0.36,0.152 0.356,0.14 14.777,5.18c4.026,0.231 4.346,-0.659 7.339,2.021c9.956,4.844 9.742,4.992 20.237,8.935l5.105,0.986c1.176,0.719 11.655,7.126 15.162,8.17c2.982,0.581 2.991,0.212 5.488,1.921l1.667,0.353c2.763,1.977 2.986,1.343 5.582,3.546c2.596,1.278 5.129,3.292 5.543,3.622c1.328,1.056 6.823,3.234 7.434,3.476l3.669,1.874c5.54,4.986 16.077,9.193 19.653,11.916c9.819,7.478 10.636,6.101 13.414,8.298c1.589,1.257 1.047,1.562 2.364,3.054c0.985,1.116 7.81,3.869 10.354,6.35c3.725,3.633 16.742,12.05 18.248,13.024l2.278,3.224c2.269,2.442 2.254,2.345 5.259,3.785c2.958,0.86 2.438,1.457 3.926,3.572c0.482,0.543 2.435,2.746 7.163,5.57c2.885,0.846 2.915,0.889 3.798,3.667c3.296,3.279 2.99,3.339 6.632,6.36c10.991,9.118 10.459,9.533 20.645,19.574c1.96,1.687 1.795,1.562 1.96,1.687c1.761,1.336 0.997,1.711 2.086,3.579c0.5,0.651 2.408,3.138 7.188,7.328c2.875,0.906 2.865,1.042 3.674,3.793c3.269,4.63 2.952,4.798 5.579,7.149c2.011,1.438 2.667,0.89 3.563,3.935c1.644,2.976 1.385,2.993 3.805,5.234c1.69,1.214 2.457,0.474 3.662,3.838c9.046,11.44 26.607,38.066 29.079,40.603c1.426,1.621 1.425,1.444 2.157,3.496c4.824,7.225 3.576,7.778 8.87,14.864c1.384,1.615 1.387,1.439 2.136,3.517c4.223,6.141 2.64,6.853 6.877,13.103c6.442,9.502 5.361,10.012 5.955,10.8c1.225,1.861 1.174,1.716 1.617,3.788c18.018,38.425 16.397,39.195 18.636,42.121c2.37,3.219 1.565,3.409 1.842,7.407c0.713,2.061 8.591,24.839 9.149,25.676c2.425,3.154 1.553,3.356 1.686,7.439c2.941,11.358 2.652,11.236 6.522,22.313c0.686,2.626 0.646,2.493 0.968,5.228l0.84,3.949c0.692,2.698 0.642,2.587 0.921,5.244c0.606,10.789 6.454,36.216 8.249,60.846c0.722,2.672 0.668,2.527 1.024,5.271l0.004,66.153c-0.387,2.993 -0.489,2.872 -1.546,5.605c-1.181,33.071 -6.598,39.445 -7.699,62.348c-0.305,3.047 -0.01,3.076 -1.655,5.6c-7.016,27.006 -6.958,26.965 -7.576,29.307c-0.233,3.999 0.575,4.166 -1.703,7.415c-0.357,2.678 -0.334,2.539 -0.998,5.155c-0.624,1.802 -4.242,12.243 -8.313,22.34c-0.248,2.64 -0.241,2.526 -0.849,5.154c-3.975,6.311 -2.043,7.246 -6.541,13.268c-3.469,4.645 -5.008,11.832 -5.242,12.923l-1.097,5.011c-2.974,4.489 -3.093,4.224 -5.559,9.193c-11.143,22.454 -11.148,22.259 -12.035,24.233c-0.594,2.177 -0.588,2.036 -1.897,3.671c-1.499,2.007 -1.407,1.829 -1.499,2.007c-5.583,10.885 -6.774,10.128 -7.14,11.12c-4.469,12.111 -7.95,10.113 -13.158,21.898c-0.713,2.043 -0.71,1.866 -2.138,3.5c-3.406,3.515 -6.884,9.467 -7.825,10.597c-5.454,6.543 -4.976,6.655 -10.245,13.47l-2.112,3.5c-0.586,0.582 -5.18,5.149 -7.05,7.545l-2.109,3.496c-4.345,4.282 -4.467,3.977 -7.508,9.066l-1.652,1.975l-3.428,2.167c-3.524,3.005 -3.628,2.847 -5.644,7.04c-0.76,2.852 -0.783,2.976 -3.684,3.808c-1.1,0.908 -1.088,0.698 -1.982,1.636c-11.346,11.894 -14.058,14.511 -14.397,14.913c-1.207,3.478 -2.081,2.648 -3.724,3.771c-4.018,3.41 -3.899,3.301 -7.264,7.274c-1.836,1.921 -3.463,3.445 -3.772,3.735c-4.053,3.393 -3.938,3.281 -7.273,7.26c-0.935,2.715 -0.938,2.782 -3.755,3.74c-5.436,5.431 -5.334,5.322 -5.434,5.441c-0.921,2.698 -0.907,2.776 -3.763,3.745c-4.058,3.231 -3.929,3.136 -7.326,7.217c-0.862,2.847 -0.961,2.895 -3.732,3.736c-4.076,3.386 -3.952,3.263 -7.279,7.288c-0.846,2.765 -0.893,2.866 -3.752,3.714c-5.043,5.207 -5.06,4.98 -5.459,5.452c-0.816,2.769 -0.851,2.88 -3.711,3.753c-4.082,3.378 -3.945,3.265 -7.291,7.278c-0.859,2.846 -0.957,2.895 -3.73,3.738c-4.079,3.387 -3.953,3.266 -7.282,7.286c-0.843,2.766 -0.89,2.868 -3.747,3.718c-1.081,0.908 -1.062,0.713 -1.967,1.652c-13.25,13.754 -13.435,13.552 -14.498,14.825c-0.858,2.854 -0.96,2.899 -3.725,3.743c-4.078,3.381 -3.952,3.26 -7.284,7.283c-0.843,2.766 -0.888,2.867 -3.742,3.726c-1.097,0.917 -1.077,0.719 -1.971,1.646c-13.257,13.748 -13.438,13.549 -14.504,14.82c-0.853,2.856 -0.954,2.902 -3.721,3.746c-4.077,3.377 -3.946,3.259 -7.286,7.282c-0.842,2.772 -0.891,2.87 -3.738,3.73c-4.074,3.397 -3.952,3.273 -7.278,7.291c-0.843,2.763 -0.888,2.867 -3.753,3.71c-5.033,5.212 -5.051,4.989 -5.448,5.461c-0.851,2.858 -0.952,2.904 -3.716,3.75c-4.073,3.367 -3.941,3.25 -7.288,7.279c-0.842,2.772 -0.89,2.87 -3.737,3.73c-4.079,3.399 -3.955,3.276 -7.278,7.291c-0.843,2.763 -0.888,2.867 -3.75,3.714c-5.04,5.208 -5.057,4.983 -5.455,5.455c-0.847,2.862 -0.95,2.907 -3.714,3.75c-4.084,3.38 -3.948,3.266 -7.291,7.278c-0.86,2.847 -0.958,2.896 -3.73,3.737c-4.076,3.386 -3.952,3.263 -7.279,7.288c-0.846,2.764 -0.892,2.866 -3.75,3.716c-5.046,5.201 -5.063,4.977 -5.461,5.448c-0.844,2.865 -0.947,2.91 -3.71,3.753c-4.082,3.379 -3.946,3.265 -7.291,7.278c-0.859,2.846 -0.957,2.895 -3.73,3.738c-4.079,3.388 -3.953,3.267 -7.282,7.286c-0.844,2.766 -0.89,2.867 -3.746,3.721c-1.088,0.912 -1.068,0.716 -1.968,1.65c-13.25,13.753 -13.435,13.552 -14.498,14.825c-0.858,2.854 -0.96,2.899 -3.726,3.742c-4.069,3.371 -3.94,3.252 -7.283,7.284c-0.844,2.765 -0.889,2.867 -3.743,3.725c-1.097,0.917 -1.077,0.719 -1.971,1.646c-7.701,7.986 -14.215,14.637 -14.424,14.885c-0.962,2.812 -1.027,2.816 -3.744,3.752c-4.024,3.376 -3.904,3.257 -7.264,7.268c-0.29,0.31 -1.812,1.937 -3.732,3.776c-3.986,3.383 -3.887,3.26 -7.267,7.266c-0.293,0.307 -1.831,1.922 -3.755,3.749c-4.853,4.774 -4.817,4.692 -5.448,5.427c-0.94,2.691 -0.937,2.761 -3.757,3.736c-4.098,3.41 -4.018,3.252 -7.343,7.213c-0.865,2.878 -0.939,2.888 -3.745,3.722c-9.271,7.571 -8.371,8.577 -9.325,8.98c-0.672,0.284 -3.072,1.299 -7.138,5.677c-0.629,2.103 -0.623,1.907 -1.951,3.599c-1.663,1.374 -1.561,1.333 -3.709,1.904c-2.998,1.386 -2.992,1.261 -5.301,3.738c-1.276,1.907 -0.535,2.604 -3.772,3.714c-0.252,0.2 -0.494,-0.257 -3.447,2.082c-21.824,17.294 -22.182,16.547 -23.987,18.138c-0.699,2.075 -0.765,1.859 -2.179,3.297c-7.284,2.207 -6.991,2.543 -12.781,7.462c-1.682,1.422 -1.539,1.389 -3.553,2.07c-5.585,3.724 -5.856,3.011 -11.174,7.066c-1.586,1.384 -1.411,1.392 -3.512,2.133l-1.634,0.304c-0.682,1.837 -0.689,1.647 -2.255,2.97c-6.113,1.875 -6.11,1.743 -7.069,2.351c-7.158,4.532 -6.894,4.794 -7.522,5.165c-2.292,1.967 -2.348,1.709 -5.473,2.058c-1.166,0.476 -1.153,0.216 -2.249,0.918c-1.106,0.709 -6.52,4.176 -14.324,8.036c-2.304,1.95 -2.359,1.689 -5.483,2.028c-1.65,0.647 -15.881,6.226 -20.149,9.218c-2.464,1.732 -2.561,1.256 -5.586,1.742c-16.923,6.94 -16.974,6.594 -18.274,7.491c-2.501,1.812 -2.548,1.493 -5.614,1.755c-14.635,2.384 -29.097,9.012 -31.504,10.115c-2.659,0.666 -2.537,0.624 -5.24,0.861c-9.615,0.613 -25.284,6.026 -38.829,8.279c-2.7,0.722 -2.564,0.666 -5.25,0.984l-3.617,0.077c-4.344,3.193 -4.714,1.503 -9.253,1.643c-11.515,0.442 -11.418,0.113 -16.707,1.006c-40.033,6.76 -102.585,-0.514 -115.541,-1.003c-4.534,-0.139 -4.907,1.569 -9.249,-1.651l-3.621,-0.074c-3.017,-0.359 -2.889,-0.488 -5.614,-1.564c-19.599,-2.041 -18.726,-5.985 -38.465,-7.69c-2.67,-0.223 -2.542,-0.177 -5.245,-0.854c-11.134,-5.131 -24.176,-7.047 -55.397,-19.333c-3.024,-0.514 -3.111,-0.06 -5.584,-1.769c-2.021,-1.388 -1.837,-1.321 -2.021,-1.388c-12.855,-4.696 -12.623,-4.919 -25.108,-10.622c-4.194,-1.916 -3.82,-2.27 -7.869,-4.36c-2.042,-1.054 -25.501,-13.163 -25.532,-13.176c-2.096,-0.596 -1.953,-0.576 -3.64,-1.954c-7.901,-5.917 -13.469,-8.491 -14.725,-9.071c-2.154,-0.59 -2.012,-0.583 -3.645,-1.948c-7.786,-7.61 -11.056,-6.895 -20.366,-14.424l-3.454,-2.174c-1.979,-1.621 -1.804,-1.514 -1.979,-1.621c-0.811,-0.498 -0.863,0.218 -1.664,-0.273c-1.959,-1.69 -1.863,-1.593 -3.768,-3.541c-4.242,-4.275 -3.823,-4.771 -9.228,-7.2c-2.845,-0.759 -2.978,-0.745 -3.869,-3.624c-6.098,-6.884 -7.218,-5.425 -13.762,-11.903c-4.267,-4.224 -4.241,-4.219 -4.569,-4.492c-1.906,-1.112 -2.267,-0.377 -3.573,-2.086c-0.126,-0.164 0,0 -1.713,-1.939c-8.405,-8.448 -21.956,-21.974 -23.868,-23.882c-2.783,-2.743 -2.791,-2.556 -5.376,-5.604c-2.456,-7.357 -5.168,-5.458 -9.672,-12.515c-2.555,-4.004 -6.361,-7.063 -7.004,-7.581c-2.46,-2.381 -2.879,-2.073 -3.822,-5.452c-3.239,-6.575 -8.237,-10.247 -9.032,-11.081c-1.365,-1.627 -1.378,-1.45 -2.013,-3.568c-3.799,-4.602 -3.087,-5.041 -7.164,-9.293c-1.375,-1.652 -1.402,-1.559 -1.998,-3.613c-1.315,-2.822 -1.093,-2.818 -2.547,-4.95c-4.517,-6.622 -6.13,-5.513 -8.729,-13.271c-1.266,-3.78 -6.467,-10.236 -7.127,-11.055c-2.47,-2.424 -2.859,-2.181 -3.572,-5.658c-0.234,-1.159 -0.805,-3.99 -7.283,-12.854c-1.087,-1.488 -2.936,-7.607 -2.968,-7.671c-6.768,-13.674 -7.487,-13.176 -8.068,-14.359c-1.958,-2.318 -1.69,-2.37 -2.043,-5.53Z" style="fill:#566b8d;fill-opacity:1;"/></g></svg>