<?xml version="1.0" encoding="UTF-8" standalone="no"?><!DOCTYPE svg PUBLIC "-//W3C//DTD SVG 1.1//EN" "http://www.w3.org/Graphics/SVG/1.1/DTD/svg11.dtd"><svg width="100%" height="100%" viewBox="0 0 2084 2084" version="1.1" xmlns="http://www.w3.org/2000/svg" xmlns:xlink="http://www.w3.org/1999/xlink" xml:space="preserve" xmlns:serif="http://www.serif.com/" style="fill-rule:evenodd;clip-rule:evenodd;stroke-linejoin:round;stroke-miterlimit:2;"><rect id="link-page" x="0" y="0" width="2083.333" height="2083.333" style="fill:none;"/><clipPath id="_clip1"><rect x="0" y="0" width="2083.333" height="2083.333"/></clipPath><g clip-path="url(#_clip1)"><g id="page"><path d="M1796.35,372.543c8.271,8.293 12.916,19.527 12.916,31.24c0,164.411 0,1387.535 0,1636.72c0,11.733 -4.661,22.985 -12.957,31.281c-8.296,8.296 -19.548,12.957 -31.281,12.957c-223.172,0 -1223.551,0 -1446.723,0c-11.733,-0 -22.985,-4.661 -31.281,-12.957c-8.296,-8.296 -12.957,-19.548 -12.957,-31.281l0,-1996.265c-0,-11.733 4.661,-22.985 12.957,-31.281c8.296,-8.296 19.548,-12.957 31.281,-12.957l1088.117,0c11.753,0 23.022,4.677 31.322,12.998c58.779,58.933 299.926,300.711 358.606,359.545Zm-480.642,-296.991c0,0 -732.513,-0 -921.851,-0c-11.733,0 -22.985,4.661 -31.281,12.957c-8.296,8.296 -12.957,19.548 -12.957,31.281c-0,259.863 -0,1585.297 -0,1845.161c-0,11.733 4.661,22.985 12.957,31.281c8.296,8.296 19.548,12.957 31.281,12.957c208.033,0 1087.585,0 1295.618,0c24.432,-0 44.238,-19.806 44.238,-44.238c0,-250.136 0,-1476.131 0,-1476.131c0,0 -266.253,0 -373.767,0c-24.432,0 -44.238,-19.806 -44.238,-44.238c-0,-106.619 -0,-369.03 -0,-369.03Zm76.77,0l-1.217,-0c-0,0 0,201.894 0,293.477c0,24.432 19.806,44.238 44.238,44.238c91.838,-0 294.695,-0 294.695,-0l-337.715,-337.715Z" style="fill:#566b8d;"/></g><g id="Link"><path id="Link1" serif:id="Link" d="M457.235,1612.788l0.006,-41.175c0.185,-2.269 0.019,-2.191 0.629,-4.421c1.139,-15.481 4.631,-27.79 5.127,-37.876c0.169,-1.653 0.137,-1.584 0.57,-3.266c0.382,-1.577 0.569,-1.505 5.206,-19.596c0.122,-1.733 0.115,-1.646 0.486,-3.264l0.534,-0.218c0.23,-1.678 0.217,-1.592 0.628,-3.205c0.386,-1.123 2.599,-7.567 5.169,-13.908l0.54,-3.205c2.583,-4.142 3.627,-7.085 5.757,-12.581c2.763,-7.128 2.709,-7.021 2.787,-7.14c0.454,-0.696 12.389,-24.368 12.847,-25.014c4.197,-5.917 9.819,-15.583 10.624,-16.968c0.671,-1.153 0.384,-1.178 0.805,-2.466c1.057,-1.247 0.973,-1.161 2.204,-2.334c2.036,-2.092 2.071,-1.947 3.344,-4.606c0.573,-2.106 0.849,-1.905 2.366,-3.401c0.356,-0.463 4.204,-5.476 4.454,-5.788c0.62,-2.082 0.891,-1.872 2.396,-3.365c2.188,-1.786 6.199,-7.261 8.001,-9.147c1.114,-1.166 3.106,-4.377 8.004,-9.142c0.588,-0.572 0.479,-0.585 1.01,-1.233c0.547,-1.769 0.599,-1.799 2.297,-2.356c1.708,-1.479 10.104,-10.167 10.205,-10.286c1.133,-1.204 2.145,-2.156 2.338,-2.337c0.767,-0.652 3.907,-3.8 4.521,-4.521c0.181,-0.193 1.132,-1.205 2.336,-2.338c0.804,-0.685 3.993,-3.892 4.529,-4.518c1.147,-1.191 2.155,-2.138 2.347,-2.319c0.575,-0.49 0.505,-0.458 3.382,-3.383c1.136,-1.199 2.141,-2.155 2.333,-2.337c2.508,-2.115 2.431,-2.056 4.525,-4.522c1.137,-1.197 2.143,-2.152 2.334,-2.334c2.522,-2.14 2.453,-2.071 4.523,-4.525c0.182,-0.191 1.138,-1.197 2.336,-2.333c0.571,-0.486 0.502,-0.455 3.384,-3.382c1.136,-1.197 2.141,-2.154 2.332,-2.337c2.511,-2.116 2.433,-2.058 4.524,-4.523c1.135,-1.199 2.142,-2.154 2.334,-2.336c2.522,-2.133 2.45,-2.068 4.523,-4.523c0.182,-0.191 1.138,-1.197 2.337,-2.332c0.883,-0.751 5.557,-4.727 10.24,-10.242c1.136,-1.199 2.142,-2.154 2.334,-2.336c2.524,-2.133 2.451,-2.069 4.524,-4.523c0.182,-0.192 1.137,-1.198 2.336,-2.334c5.519,-4.686 9.491,-9.357 10.242,-10.24c1.135,-1.198 2.141,-2.155 2.333,-2.337c2.521,-2.128 2.446,-2.066 4.523,-4.523c0.182,-0.192 1.137,-1.199 2.336,-2.334c2.523,-2.139 2.455,-2.07 4.523,-4.524c0.182,-0.191 1.139,-1.196 2.337,-2.332c0.576,-0.491 0.506,-0.459 3.382,-3.384c1.135,-1.198 2.141,-2.154 2.333,-2.336c2.513,-2.12 2.437,-2.059 4.525,-4.522c0.182,-0.192 1.137,-1.197 2.334,-2.334c2.521,-2.14 2.453,-2.07 4.522,-4.525c0.182,-0.191 1.138,-1.197 2.337,-2.333c0.588,-0.501 0.517,-0.468 3.383,-3.383c1.136,-1.199 2.141,-2.155 2.333,-2.337c2.508,-2.115 2.431,-2.056 4.525,-4.522c1.137,-1.197 2.143,-2.152 2.334,-2.334c2.523,-2.138 2.453,-2.071 4.522,-4.525c0.182,-0.191 1.138,-1.197 2.336,-2.333c0.572,-0.486 0.503,-0.455 3.384,-3.382c1.136,-1.197 2.14,-2.155 2.332,-2.337c2.511,-2.116 2.434,-2.058 4.524,-4.523c1.135,-1.199 2.142,-2.154 2.334,-2.336c2.522,-2.133 2.45,-2.068 4.523,-4.523c0.182,-0.191 1.138,-1.197 2.337,-2.333c0.883,-0.751 5.553,-4.722 10.24,-10.242c1.136,-1.199 2.142,-2.154 2.334,-2.336c2.52,-2.128 2.446,-2.066 4.523,-4.524c0.182,-0.192 1.137,-1.198 2.336,-2.334c5.515,-4.683 9.491,-9.357 10.242,-10.24c1.135,-1.198 2.141,-2.155 2.332,-2.337c2.822,-2.383 2.804,-2.303 4.843,-5.426l2,-1.45c0.732,-0.624 3.877,-3.76 4.522,-4.52c0.181,-0.192 1.134,-1.204 2.337,-2.337c0.508,-0.436 3.072,-3.018 3.384,-3.381c1.145,-1.191 2.155,-2.139 2.347,-2.319c2.534,-2.137 2.448,-2.081 4.532,-4.521c0.771,-1.128 0.289,-1.613 2.37,-2.292c2.501,-2.048 2.438,-1.948 4.535,-4.525c0.523,-1.819 0.602,-1.821 2.387,-2.29c1.887,-0.849 1.885,-0.774 3.29,-2.329l1.274,-2.187c1.051,-0.859 0.995,-0.847 2.294,-1.198c1.867,-0.885 1.86,-0.82 3.268,-2.355l1.309,-2.151l1.218,-1.052c4.307,-2.49 4.363,-2.312 7.966,-5.767c1.032,-0.872 0.922,-0.871 2.193,-1.297c5.371,-4.203 5.381,-4.021 5.806,-4.421c1.123,-1.158 1.07,-1.113 2.34,-2.196c3.257,-1.082 3.216,-1.048 5.679,-3.5c0.976,-0.88 0.865,-0.888 2.177,-1.338c0.768,-0.39 5.56,-2.823 9.22,-5.567c1.179,-1.161 1.124,-1.109 2.336,-2.214l1.023,-0.228c1.141,-0.763 1.052,-0.734 2.367,-1.005c3.478,-1.633 7.887,-4.49 8.001,-4.545c1.456,-1.187 1.483,-0.907 3.384,-1.332c0.869,-0.351 0.54,-0.749 10.333,-5.528c1.454,-1.18 1.535,-0.91 3.393,-1.314c0.735,-0.281 8.344,-3.835 9.172,-4.418c1.432,-1.211 1.463,-1.058 3.378,-1.323l0.244,-0.514l3.226,-0.566c8.863,-3.411 10.797,-4.611 11.664,-5.149c1.594,-0.393 1.51,-0.383 3.215,-0.556c9.349,-1.627 18.112,-5.61 19.612,-6.292c1.647,-0.411 1.561,-0.385 3.259,-0.541c11.627,-1.073 11.118,-3.448 23.942,-4.803c1.717,-0.668 1.639,-0.737 3.492,-0.965l2.253,-0.052c2.7,-1.962 2.912,-0.928 5.758,-1.019c11.396,-0.471 42.737,-4.248 58.206,-1.779c6.733,1.075 22.176,1.7 24.109,1.778c3.327,0.116 3.463,-0.61 5.761,1.016l2.251,0.056c1.675,0.204 1.589,0.169 3.268,0.614c12.251,2.004 11.993,2.891 24.165,5.151c2.211,0.094 2.166,-0.092 4.379,0.514c2.511,1.602 16.995,5.875 18.495,6.317c1.667,0.183 1.585,0.165 3.244,0.567c5.839,2.648 5.804,2.547 11.65,5.082c2.526,0.22 2.682,-0.281 4.537,1.332c21.365,10.112 21.562,9.5 27.599,13.395c1.531,0.988 1.768,0.368 3.264,1.474c2.713,2.005 2.627,1.988 5.728,3.366c1.307,0.379 1.246,0.397 2.27,1.208c2.28,1.326 9.17,5.333 27.487,18.2c2.092,0.584 1.889,0.856 3.381,2.377c2.338,2.907 2.31,2.964 5.745,4.474c1.777,0.484 1.851,0.484 2.394,2.275c2.464,2.786 3.126,1.933 5.63,4.605c2.757,2.943 2.517,3.093 5.79,5.59c1.176,0.692 1.401,0.232 2.216,1.305l1.065,1.208c1.277,1.284 9.623,9.68 16.007,16c1.686,1.419 2.126,1.109 2.486,3.299l1.016,1.209c0.125,0.148 0.18,-0.041 1.798,1.621c6.912,7.101 5.835,7.897 6.549,8.357c2.522,1.624 2.38,1.753 3.56,4.542c0.313,0.74 2.562,2.582 2.807,2.782c1.277,1.058 1.222,1.006 2.303,2.234c0.842,1.417 8.16,13.735 11.502,17.098c0.898,1.012 0.883,0.923 1.311,2.201c0.378,0.774 2.612,5.351 5.553,9.23c0.879,1.01 0.864,0.922 1.298,2.209c0.147,0.377 4.378,8.678 5.58,10.353c0.824,1.045 0.815,0.956 1.203,2.279c1.664,3.808 1.74,3.706 4.056,7.103c1.324,1.942 0.233,2.34 1.604,4.334c1.267,1.522 1.055,1.575 1.283,3.453c-0.746,3.545 -8.372,9.033 -12.541,13.891c-1.139,1.196 -2.143,2.154 -2.334,2.336c-1.586,1.359 -14.207,14.153 -15.432,15.394c-1.18,1.196 -1.063,1.185 -1.979,2.611c-1.087,1.286 -1.033,1.221 -2.19,2.355c-0.275,0.274 -2.017,2.005 -3.422,3.436c-1.62,1.915 -1.568,1.845 -3.432,3.428c-1.373,1.353 -3.164,3.146 -3.438,3.42c-0.89,0.892 -1.373,1.375 -2.286,2.286c-0.274,0.274 -2.054,2.051 -3.42,3.438c-1.601,1.882 -1.533,1.826 -3.429,3.431c-0.277,0.272 -1.73,1.699 -3.429,3.429c-1.622,1.917 -1.57,1.847 -3.431,3.429c-1.382,1.361 -3.164,3.145 -3.439,3.42c-0.89,0.892 -1.373,1.375 -2.286,2.286c-0.275,0.274 -2.067,2.065 -3.42,3.438c-1.622,1.907 -1.563,1.848 -3.433,3.427c-1.58,1.558 -3.158,3.151 -3.431,3.427c-1.61,1.842 -1.524,1.761 -3.43,3.429c-6.34,6.271 -6.129,6.383 -12.585,12.563c-2.061,1.972 -2.231,1.638 -4.353,3.608c-0.71,1.021 -0.203,1.56 -2.367,2.299c-1.868,1.512 -4.329,4.037 -4.689,4.406c-1.026,0.85 -0.915,0.86 -2.243,1.259c-0.526,0.25 -2.453,1.168 -5.753,4.465c-1.019,0.891 -0.93,0.876 -2.208,1.303c-4.191,2.031 -3.934,2.376 -8.085,4.411c-1.444,1.271 -1.45,1.173 -3.297,1.6c-0.528,0.132 -0.79,0.832 -1.318,0.964c-0.146,0.036 -0.107,-0.09 -1.444,-1.213c-1.591,-2.631 -0.843,-2.746 -0.889,-7.086c-0.138,-1.973 -1.05,-14.988 -5.243,-24.163c-0.401,-1.62 -0.385,-1.529 -0.546,-3.258c-0.091,-0.827 0.819,-1.054 -3.997,-11.626c-1.002,-2.2 -1.117,-2.11 -1.156,-2.313c-0.214,-1.118 0.031,-1.107 -0.623,-1.992c-1.105,-1.584 -0.79,-1.648 -1.103,-3.476c-0.295,-0.756 -2.527,-6.472 -4.547,-9.074c-1.969,-1.903 -1.88,-1.927 -2.332,-4.62c-0.531,-1.12 -0.673,-0.888 -8.567,-12.905c-1.842,-2.804 -2.534,-2.198 -4.024,-5.316c-0.387,-0.809 -1.138,-0.119 -7.399,-8.423c-0.776,-1.03 -0.802,-0.87 -1.68,-1.823c-1.324,-0.432 -1.198,-0.459 -2.193,-1.276l-1.288,-2.183c-0.544,-0.64 -0.762,-0.389 -7.832,-6.986c-4.18,-3.9 -10.217,-7.819 -11.156,-8.428c-7.874,-5.11 -7.488,-5.836 -11.653,-6.521c-1.235,-1.057 -1.186,-1.012 -2.367,-2.151c-3.152,-2.154 -31.599,-15.906 -52.54,-17.13c-4.168,0.133 -4.142,0.309 -8.01,-1.066l-7.991,0.048l-7.998,0.004l-9.135,-0.05c-3.87,1.369 -3.852,1.194 -8.01,1.08c-1.888,0.092 -18.264,0.893 -23.043,5.24c-2.212,0.605 -2.147,0.425 -4.373,0.535c-7.478,0.967 -8.337,3.93 -13.563,4.825c-2.111,1.601 -2.047,1.593 -4.701,2.049c-0.875,0.337 -6.221,2.395 -10.313,5.574c-1.408,1.196 -1.487,0.935 -3.337,1.349c-0.48,0.158 -3.532,2.147 -4.678,3.203c-1.014,0.867 -0.904,0.867 -2.188,1.321c-2.503,1.297 -16.814,12.294 -22.787,18.25c-0.587,1.744 -0.616,1.743 -2.356,2.296c-2.568,2.068 -2.481,2.005 -4.543,4.518c-0.534,1.787 -0.572,1.8 -2.325,2.325c-2.588,2.097 -2.511,2.021 -4.522,4.539c-0.519,1.755 -0.544,1.8 -2.339,2.313c-0.297,0.243 -0.152,0.266 -3.398,3.389c-0.732,2.598 -0.867,2.736 -3.468,3.458c-0.294,0.247 -0.16,0.262 -3.383,3.407c-0.519,1.739 -0.554,1.795 -2.319,2.329c-2.559,2.094 -2.479,2.02 -4.532,4.535c-0.534,1.758 -0.586,1.797 -2.332,2.316c-0.296,0.244 -0.166,0.262 -3.402,3.388c-0.727,2.593 -0.859,2.734 -3.464,3.461c-0.295,0.246 -0.164,0.262 -3.385,3.405c-0.52,1.741 -0.555,1.795 -2.318,2.331c-2.56,2.09 -2.478,2.019 -4.535,4.532c-0.535,1.765 -0.59,1.799 -2.329,2.319c-0.296,0.244 -0.165,0.261 -3.406,3.384c-0.726,2.607 -0.868,2.738 -3.46,3.465c-0.295,0.246 -0.165,0.262 -3.388,3.401c-0.518,1.743 -0.554,1.797 -2.314,2.334c-2.557,2.084 -2.475,2.013 -4.537,4.53c-0.533,1.766 -0.588,1.801 -2.326,2.322c-0.297,0.244 -0.165,0.261 -3.41,3.38c-0.72,2.601 -0.857,2.736 -3.455,3.47c-0.295,0.246 -0.165,0.262 -3.392,3.397c-0.516,1.746 -0.553,1.799 -2.312,2.335c-2.564,2.088 -2.481,2.018 -4.538,4.529c-0.533,1.769 -0.591,1.802 -2.324,2.324c-2.562,2.099 -2.482,2.025 -4.529,4.538c-0.536,1.759 -0.589,1.796 -2.335,2.312c-0.296,0.245 -0.166,0.261 -3.397,3.392c-0.734,2.598 -0.869,2.735 -3.47,3.455c-0.294,0.247 -0.162,0.262 -3.38,3.41c-0.522,1.737 -0.556,1.793 -2.322,2.326c-2.564,2.101 -2.484,2.027 -4.53,4.537c-0.537,1.761 -0.591,1.796 -2.334,2.314c-0.296,0.245 -0.166,0.262 -3.401,3.388c-0.727,2.592 -0.858,2.734 -3.465,3.46c-0.294,0.247 -0.163,0.262 -3.384,3.406c-0.519,1.739 -0.554,1.795 -2.319,2.329c-2.559,2.094 -2.479,2.02 -4.532,4.535c-0.535,1.763 -0.59,1.798 -2.331,2.318c-0.296,0.244 -0.166,0.261 -3.405,3.385c-0.727,2.605 -0.868,2.737 -3.461,3.464c-0.295,0.246 -0.165,0.262 -3.388,3.402c-0.519,1.746 -0.557,1.798 -2.316,2.332c-2.56,2.09 -2.478,2.019 -4.535,4.532c-0.535,1.765 -0.59,1.799 -2.329,2.319c-0.296,0.244 -0.162,0.262 -3.407,3.383c-0.722,2.602 -0.86,2.736 -3.457,3.467c-0.295,0.246 -0.167,0.262 -3.389,3.4c-0.518,1.743 -0.554,1.797 -2.314,2.334c-2.562,2.087 -2.479,2.016 -4.538,4.529c-0.532,1.766 -0.588,1.801 -2.325,2.322c-2.558,2.1 -2.48,2.023 -4.528,4.539c-0.535,1.755 -0.586,1.795 -2.338,2.309c-0.295,0.246 -0.162,0.262 -3.394,3.397c-0.515,1.748 -0.552,1.8 -2.311,2.336c-2.557,2.081 -2.474,2.012 -4.539,4.529c-0.522,1.738 -0.557,1.793 -2.323,2.325c-2.489,2.039 -2.45,1.95 -4.524,4.54c-0.52,1.756 -0.546,1.8 -2.34,2.313c-0.298,0.242 -0.144,0.269 -3.394,3.39c-0.728,2.666 -0.885,2.765 -3.472,3.457c-0.296,0.244 -0.133,0.27 -3.382,3.403c-0.518,1.745 -0.523,1.791 -2.32,2.33c-2.868,2.35 -2.941,2.26 -4.746,5.525l-2.053,1.395c-2.211,1.904 -2.276,1.799 -3.49,4.413c-0.471,1.788 -0.477,1.859 -2.265,2.39c-0.364,0.329 -0.331,0.34 -4.548,5.661c-0.412,1.264 -0.408,1.152 -1.298,2.188c-1.74,1.874 -3.576,3.565 -5.621,8.04c-0.315,1.348 -0.31,1.238 -1.089,2.337c-3.245,3.352 -2.704,3.659 -4.664,7.934c-0.28,1.359 -0.26,1.273 -0.991,2.366c-0.373,1.272 -0.339,1.184 -1.147,2.284c-2.011,2.456 -4.306,8.334 -4.602,9.093l-0.59,3.185c-3.832,6.181 -6.011,18.022 -6.31,19.645c-0.172,1.719 -0.148,1.634 -0.563,3.264l-0.526,2.456c-0.21,1.718 -0.185,1.635 -0.617,3.264c-4.697,27.349 -2.853,27.484 -0.379,51.512c0.685,1.695 0.774,1.612 0.997,3.49l0.076,2.24c1.406,2.106 0.873,2.182 1.012,4.621c0.132,1.233 1.008,9.389 4.494,14.84c0.034,0.04 1.908,1.484 2.35,6.865c0.699,1.7 6.211,15.108 10.203,20.578c1.179,1.169 1.122,1.108 2.183,2.347c0.828,4.76 1.379,4.514 4.655,7.954c0.87,1.028 0.869,0.918 1.31,2.192c0.351,0.619 1.743,3.077 5.543,6.957c1.198,1.187 1.138,1.125 2.18,2.36c1.555,2.477 1.643,2.317 3.637,4.36c1.807,0.529 1.815,0.611 2.293,2.377c1.464,3.06 1.493,3.067 4.506,4.518c1.79,0.476 1.858,0.496 2.381,2.286c0.244,0.295 0.256,0.232 3.415,3.351l2.165,1.321c2.001,2.559 7.405,6.216 8.101,6.687l2.18,1.323c4.299,3.331 3.987,3.735 9.17,5.685c0.157,0.059 4.286,4.301 21.725,11.327c1.84,0.297 1.89,0.003 3.472,1.056c1.928,0.261 1.958,0.111 3.387,1.313c3.296,2.066 13.627,4.232 14.841,4.486c2.248,0.143 2.186,-0.013 4.409,0.56l2.452,0.539c1.693,0.198 1.609,0.172 3.267,0.606c21.664,3.815 21.699,3.215 43.553,1.551c1.265,-0.096 7.32,-1.087 7.956,-1.19c1.705,-0.655 1.626,-0.729 3.491,-0.964l2.457,-0.525c1.646,-0.415 1.562,-0.39 3.263,-0.568c7.953,-0.692 18.048,-5.327 19.646,-6.303l3.188,-0.581c0.568,-0.225 4.84,-1.915 6.875,-3.307c0.987,-0.854 0.899,-0.843 2.211,-1.314c1.093,-0.8 1.006,-0.768 2.295,-1.129c1.545,-1.08 1.551,-0.825 3.411,-1.179c0.548,-0.186 5.44,-3.127 6.882,-4.49l2.33,-1.106c0.414,-0.188 2.371,-1.074 4.618,-3.317c1.014,-0.893 0.904,-0.891 2.172,-1.334l1.248,-0.964l2.186,-1.301c0.454,-0.363 5.418,-4.322 5.666,-4.55c0.552,-1.78 0.633,-1.777 2.345,-2.29c2.902,-1.721 4.149,-3.123 4.449,-3.46c1.144,-1.195 2.163,-2.135 2.357,-2.314c2.529,-2.067 2.479,-1.965 4.564,-4.486c0.542,-1.711 0.574,-1.772 2.33,-2.322c0.295,-0.245 0.194,-0.256 3.404,-3.381c0.763,-2.611 0.894,-2.709 3.458,-3.473c1.966,-1.505 1.807,-1.548 3.35,-3.424c1.13,-1.204 2.136,-2.16 2.327,-2.342c2.511,-2.094 2.436,-2.032 4.527,-4.522c0.715,-1.044 0.204,-1.584 2.363,-2.306c0.396,-0.325 0.316,-0.338 4.53,-4.524c0.545,-1.773 0.578,-1.79 2.339,-2.313c0.296,-0.244 0.171,-0.261 3.393,-3.39c0.524,-1.768 0.545,-1.797 2.315,-2.339c2.534,-2.058 2.457,-1.984 4.536,-4.525c0.537,-1.78 0.57,-1.797 2.325,-2.33c2.534,-2.068 2.46,-1.99 4.527,-4.533c0.539,-1.764 0.564,-1.789 2.336,-2.319c0.296,-0.244 0.187,-0.26 3.391,-3.391c0.764,-2.572 0.873,-2.697 3.461,-3.464c0.287,-0.255 0.221,-0.253 3.35,-3.433c0.18,-0.193 1.124,-1.204 2.314,-2.35c0.556,-0.472 3.803,-3.68 4.517,-4.53c0.181,-0.193 1.13,-1.208 2.34,-2.336c2.226,-1.882 2.152,-1.868 3.695,-4.284c1.34,-1.599 1.392,-1.46 3.152,-2.583c0.992,-0.856 7.9,-7.84 8.581,-8.528c0.134,-0.136 1.371,-1.386 1.654,-1.718c1.14,-1.2 2.158,-2.141 2.352,-2.321c0.392,-0.331 1.276,-1.078 4.49,-4.587c0.655,-1.714 0.974,-1.384 2.384,-2.257c2.295,-1.91 2.796,-1.492 3.613,-4.344c1.686,-1.825 1.927,-1.506 4.36,-0.76c4.025,2.486 14.871,4.917 16.199,5.215c2.485,0.067 2.634,-0.52 4.635,1.038c0.273,0.182 5.335,1.793 5.801,1.941c10.689,3.4 16.659,3.764 18.14,3.854c2.256,0.118 2.206,-0.053 4.415,0.532c25.854,6.459 49.539,6.287 53.878,6.256c12.071,-0.031 11.947,-0.042 23.999,0.003c4.319,0.024 29.009,0.161 53.675,-5.777c2.069,-1.428 2.179,-0.888 4.619,-1.01c16.582,-1.386 26.754,-9.579 24.182,-3.238c-0.41,1.011 -6.41,4.126 -8.162,7.935c-0.298,0.647 -0.678,0.126 -6.565,6.009c-4.322,4.319 -3.914,4.57 -8.562,8.49c-0.593,0.5 0.076,0.993 -6.859,6.858c-0.696,0.588 -0.025,1.063 -7.737,8.361c-0.643,0.608 -0.475,0.587 -1.006,1.242c-0.505,1.787 -0.542,1.821 -2.317,2.337c-2.521,2.011 -2.449,1.924 -4.531,4.529c-0.513,1.774 -0.545,1.812 -2.334,2.32c-2.504,2.021 -2.479,1.978 -4.521,4.541c-0.52,1.786 -0.563,1.814 -2.345,2.307c-1.892,1.546 -1.832,1.48 -3.388,3.398c-0.5,1.785 -0.534,1.822 -2.313,2.341c-2.614,2.083 -2.521,2.017 -4.535,4.525c-0.508,1.77 -0.537,1.813 -2.329,2.325c-2.512,2.022 -2.444,1.928 -4.523,4.538c-0.52,1.782 -0.561,1.813 -2.344,2.309c-1.891,1.542 -1.83,1.476 -3.393,3.393c-0.497,1.783 -0.527,1.823 -2.309,2.344c-2.609,2.078 -2.516,2.011 -4.538,4.523c-0.512,1.792 -0.555,1.82 -2.325,2.329c-2.518,2.022 -2.45,1.93 -4.525,4.535c-0.517,1.774 -0.551,1.811 -2.338,2.315c-0.297,0.243 -0.142,0.266 -3.408,3.382c-0.504,1.783 -0.534,1.814 -2.304,2.34c-2.562,2.084 -2.475,2.017 -4.544,4.526c-0.519,1.789 -0.557,1.811 -2.317,2.329c-2.492,2.038 -2.426,1.951 -4.532,4.536c-0.521,1.76 -0.545,1.798 -2.333,2.313c-0.347,0.288 -4.113,3.404 -4.282,3.666c-2.437,3.779 -3.096,3.113 -5.972,6.588c-0.515,1.788 -0.552,1.812 -2.313,2.333c-2.578,2.101 -2.494,2.033 -4.535,4.533c-0.519,1.758 -0.54,1.797 -2.33,2.316c-0.348,0.287 -4.113,3.398 -4.284,3.663c-2.423,3.76 -3.079,3.101 -5.973,6.587c-0.513,1.787 -0.548,1.813 -2.311,2.334c-2.577,2.101 -2.492,2.033 -4.536,4.533c-0.518,1.758 -0.539,1.798 -2.328,2.318c-2.569,2.114 -2.49,2.039 -4.527,4.543c-0.525,1.771 -0.557,1.8 -2.339,2.304c-0.295,0.246 -0.131,0.265 -3.392,3.401c-0.511,1.784 -0.544,1.812 -2.309,2.336c-2.575,2.098 -2.49,2.03 -4.538,4.53c-0.514,1.752 -0.528,1.797 -2.324,2.323c-2.575,2.109 -2.493,2.037 -4.53,4.538c-0.524,1.768 -0.554,1.799 -2.337,2.308c-0.295,0.246 -0.132,0.265 -3.398,3.395c-0.501,1.751 -0.506,1.802 -2.301,2.34c-2.498,2.076 -2.423,1.997 -4.538,4.535c-0.535,1.772 -0.596,1.802 -2.322,2.326c-2.501,2.077 -2.429,1.994 -4.532,4.535c-0.525,1.721 -0.553,1.785 -2.333,2.313c-0.246,0.207 -0.195,0.214 -2.817,2.872c-3.722,3.773 -4.09,3.294 -7.437,7.38c-0.504,1.802 -0.565,1.824 -2.372,2.298c-2.587,1.204 -2.485,1.269 -4.389,3.503l-1.335,2.143c-1.006,0.832 -0.942,0.854 -2.231,1.24c-0.418,0.3 -3.108,2.231 -4.649,4.454l-2.185,1.302c-1.537,1.196 -3.28,2.975 -3.549,3.25c-1.138,1.165 -1.073,1.107 -2.34,2.205c-3.772,2.356 -4.001,1.958 -6.795,4.665c-4.166,4.037 -5.094,2.778 -9.156,6.846c-0.992,0.875 -0.882,0.88 -2.184,1.325c-0.907,0.391 -3.696,1.595 -10.372,6.703c-1.064,0.856 -0.974,0.841 -2.267,1.22c-5.885,2.617 -5.11,4.001 -11.205,6.096c-2.606,0.896 -6.932,4.315 -7.489,4.755c-0.331,0.262 -9.532,4.05 -11.057,5.064c-1.029,0.884 -0.94,0.865 -2.206,1.316c-1.525,1.067 -1.523,0.821 -3.424,1.215c-3.52,0.631 -6.615,2.47 -7.142,2.783c-4.655,2.766 -7.728,3.201 -8.874,4.015c-1.561,1.119 -1.589,0.92 -3.494,1.065c-0.831,0.124 -6.12,1.351 -10.508,4.026l-3.147,0.685l-0.239,0.484c-1.661,0.426 -1.579,0.405 -3.207,0.614c-2.013,1.446 -2.126,0.925 -4.62,1.051c-1.46,0.376 -15.67,4.035 -18.241,4.721c-2.073,1.378 -2.17,0.87 -4.628,1.01c-19.367,2.874 -19.217,3.715 -38.807,4.82c-1.716,0.662 -1.641,0.726 -3.489,0.953l-37.744,0.002c-2.264,-0.188 -2.198,-0.021 -4.425,-0.637c-22.52,-1.396 -26.229,-4.45 -39.017,-5.128c-1.725,-0.174 -1.64,-0.15 -3.266,-0.572c-1.577,-0.381 -1.512,-0.497 -19.594,-5.213c-1.65,-0.129 -1.56,-0.115 -3.26,-0.489c-1.902,-0.887 -15.948,-5.8 -17.341,-6.287c-2.529,-0.15 -2.717,0.385 -4.57,-1.256c-5.332,-2.583 -10.928,-4.827 -12.594,-5.563c-1.846,-0.352 -1.848,-0.074 -3.473,-1.135c-0.403,-0.281 -0.553,0.142 -5.432,-2.879c-0.277,-0.172 -1.87,-1.158 -3.709,-1.684c-1.89,-0.363 -1.894,-0.137 -3.423,-1.185c-2.027,-1.646 -2.405,-0.885 -4.514,-2.428c-5.396,-3.948 -6.969,-3.728 -8.07,-4.425c-1.304,-0.38 -1.194,-0.366 -2.289,-1.164c-6.481,-5.967 -7.932,-3.75 -14.754,-9.322c-1.644,-1.343 -1.557,-1.296 -3.482,-2.167c-1.304,-0.374 -1.244,-0.394 -2.258,-1.234c-3.097,-3.061 -16.317,-11.887 -18.4,-13.543c-2.015,-0.695 -1.562,-1.125 -2.365,-2.297c-1.433,-1.534 -1.427,-1.464 -3.28,-2.35c-1.788,-0.504 -1.835,-0.505 -2.438,-2.228c-1.913,-2.181 -1.813,-2.245 -4.422,-3.491c-1.792,-0.476 -1.859,-0.494 -2.395,-2.266c-2.149,-2.482 -2.089,-2.4 -4.57,-4.488c-1.792,-1.13 -1.79,-0.995 -3.271,-2.501c-0.73,-0.733 -4.799,-4.821 -9.145,-9.145c-1.187,-1.168 -1.13,-1.107 -2.19,-2.354c-2.019,-3.154 -1.989,-3.058 -4.8,-5.485c-1.82,-0.554 -1.801,-0.631 -2.297,-2.355c-1.715,-2.905 -3.123,-4.16 -3.46,-4.461c-1.348,-0.938 -1.707,-0.62 -2.225,-2.442c-0.913,-1.894 -0.857,-1.879 -2.356,-3.274l-2.027,-1.403c-2.663,-4.196 -2.233,-4.389 -5.805,-7.939c-0.894,-1.034 -0.887,-0.923 -1.331,-2.173c-3.507,-4.586 -2.68,-5.148 -6.812,-9.172l-1.115,-2.332c-0.914,-2.019 -6.762,-9.865 -7.429,-11.721c-0.906,-2.521 -0.999,-2.407 -2.737,-4.331c-0.887,-1.005 -0.875,-0.885 -1.337,-2.185c-2.64,-5.326 -2.948,-5.086 -5.546,-10.374c-0.884,-1.006 -0.869,-0.918 -1.321,-2.201c-0.754,-1.059 -0.754,-0.99 -1.12,-2.305c-1.073,-1.546 -0.816,-1.55 -1.161,-3.429c-0.192,-0.669 -0.908,-0.211 -3.708,-7.865c-0.651,-1.78 -1.459,-1.385 -2.02,-4.738c-0.182,-1.087 -0.236,-1.41 -5.545,-12.606c-1.701,-1.928 -1.116,-2.093 -1.293,-4.553c-4.617,-13.178 -4.67,-13.516 -4.862,-14.743c-1.819,-2.623 -1.799,-2.606 -1.905,-5.863c-1.828,-7.067 -1.655,-7.002 -4.058,-13.887c-0.428,-1.637 -0.403,-1.554 -0.604,-3.255l-0.528,-2.459c-0.417,-1.637 -0.393,-1.555 -0.569,-3.264c-0.152,-2.113 -0.509,-2.038 -3.768,-26.217c-0.776,-5.754 -0.744,-5.634 -1.043,-11.453c-0.669,-1.714 -0.733,-1.639 -0.964,-3.482Zm356.686,-219.477c0.892,-6.613 10.793,-10.77 16.273,-19.379c1.103,-1.297 1.032,-1.214 2.181,-2.361c0.183,-0.183 1.144,-1.142 2.285,-2.287l1.136,-1.15c2.634,-2.637 2.432,-2.779 5.586,-4.756c1.987,-1.691 65.601,-65.233 68.001,-67.979c3.031,-3.468 3.917,-2.324 7.123,-5.547c2.624,-2.638 2.406,-2.873 2.72,-2.938c5.829,-1.21 4.355,-4.332 12.496,-7.042c3.493,-1.163 8.4,-6.761 11.173,-2.989c1.123,3.868 0.557,3.844 0.458,7.812c0.286,5.893 0.973,13.646 5.228,23.054c0.562,2.139 0.425,2.057 0.574,4.35c0.364,1.128 3.388,10.485 5.575,13.729c1.203,1.447 1.04,1.48 1.266,3.409c2.015,4.939 2.708,4.411 2.832,4.842c0.136,0.471 0.904,3.128 2.908,5.396c0.788,1.14 0.756,1.051 1.043,2.35c2.794,6.109 9.848,15.285 10.369,15.867c1.794,0.562 1.765,0.665 2.233,2.407c1.465,3.223 7.697,10.017 10.107,11.576c0.964,0.813 0.985,0.69 1.527,1.896c2.773,3.187 12.368,10.722 13.487,11.601c1.002,0.787 0.681,0.966 1.5,1.883c0.317,0.355 0.622,-0.164 5.013,3.216c7.687,5.916 10.605,6.357 11.661,6.517c1.238,1.054 1.156,0.977 2.363,2.16c4.187,2.978 4.381,2.488 9.127,4.55l2.06,0.492c1.116,0.682 8.978,5.487 15.083,6.303c1.66,0.175 1.578,0.156 3.247,0.563c10.143,4.57 21.14,5.113 23.026,5.206c4.162,-0.128 4.145,-0.302 8.01,1.073l7.992,-0.039l10.284,0.001l7.991,0.038c3.902,-1.363 3.874,-1.18 8.011,-1.062c12.021,-0.665 16.323,-2.909 23.025,-5.222c1.607,-0.386 1.523,-0.377 3.249,-0.558c0.951,-0.248 8.074,-2.109 11.489,-4.347c1.586,-1.039 1.842,-0.326 3.309,-1.409c1.556,-1.088 1.611,-0.803 3.463,-1.133c11.324,-4.456 36.371,-21.673 43.283,-29.706c1.14,-1.192 2.148,-2.144 2.34,-2.325c2.477,-2.065 2.407,-1.997 4.527,-4.522c1.135,-1.199 2.142,-2.152 2.333,-2.334c2.487,-2.087 2.425,-2.012 4.522,-4.527c0.182,-0.191 1.138,-1.197 2.338,-2.329c3.039,-2.998 3.024,-2.954 3.386,-3.382c1.328,-2.218 1.318,-2.184 3.476,-3.471c3.057,-3.032 3.045,-2.992 3.379,-3.39c1.133,-1.2 2.14,-2.154 2.332,-2.335c2.484,-2.08 2.42,-2.008 4.522,-4.526c0.182,-0.191 1.138,-1.197 2.338,-2.329c3.058,-3.017 3.045,-2.976 3.388,-3.381c1.289,-2.159 1.255,-2.149 3.473,-3.474c3.061,-3.032 3.048,-2.993 3.381,-3.388c1.133,-1.199 2.138,-2.155 2.33,-2.337c2.483,-2.076 2.416,-2.005 4.525,-4.523c0.182,-0.192 1.136,-1.198 2.335,-2.331c3.059,-3.015 3.045,-2.974 3.39,-3.379c1.288,-2.158 1.253,-2.149 3.471,-3.476c3.037,-3.003 3.022,-2.959 3.382,-3.386c1.132,-1.2 2.138,-2.156 2.329,-2.338c2.477,-2.066 2.41,-1.996 4.527,-4.522c0.181,-0.192 1.134,-1.199 2.333,-2.333c3.049,-3.001 3.034,-2.958 3.391,-3.378c1.287,-2.16 1.253,-2.15 3.47,-3.478c3.039,-3 3.024,-2.957 3.385,-3.383c1.131,-1.201 2.136,-2.157 2.328,-2.339c2.478,-2.066 2.408,-1.998 4.527,-4.522c1.135,-1.199 2.142,-2.152 2.333,-2.333c2.486,-2.087 2.425,-2.012 4.522,-4.527c0.182,-0.191 1.139,-1.197 2.339,-2.328c3.038,-3.002 3.024,-2.958 3.383,-3.385c1.328,-2.216 1.318,-2.182 3.478,-3.47c3.046,-3.022 3.033,-2.981 3.378,-3.391c1.134,-1.199 2.142,-2.152 2.333,-2.333c2.484,-2.082 2.421,-2.008 4.522,-4.527c0.182,-0.191 1.138,-1.197 2.338,-2.329c3.039,-2.998 3.024,-2.954 3.386,-3.382c1.328,-2.218 1.318,-2.184 3.476,-3.471c3.057,-3.032 3.045,-2.992 3.379,-3.39c1.133,-1.2 2.14,-2.154 2.331,-2.335c2.485,-2.081 2.419,-2.009 4.523,-4.525c0.182,-0.191 1.138,-1.197 2.337,-2.33c3.063,-3.022 3.049,-2.982 3.388,-3.381c1.324,-2.218 1.314,-2.184 3.474,-3.473c3.055,-3.026 3.041,-2.985 3.381,-3.388c1.132,-1.2 2.138,-2.156 2.329,-2.338c2.478,-2.069 2.413,-1.998 4.526,-4.522c0.182,-0.192 1.136,-1.198 2.335,-2.332c3.059,-3.014 3.045,-2.973 3.39,-3.379c1.287,-2.158 1.253,-2.149 3.471,-3.476c3.037,-3.003 3.022,-2.959 3.382,-3.386c1.132,-1.2 2.138,-2.156 2.329,-2.338c2.477,-2.065 2.408,-1.997 4.527,-4.522c0.182,-0.192 1.135,-1.199 2.334,-2.333c2.486,-2.087 2.425,-2.012 4.522,-4.527c0.182,-0.191 1.139,-1.196 2.339,-2.327c3.047,-3.011 3.033,-2.969 3.384,-3.384c1.131,-1.201 2.136,-2.157 2.328,-2.339c2.478,-2.066 2.408,-1.998 4.527,-4.522c1.135,-1.199 2.142,-2.152 2.333,-2.334c2.487,-2.087 2.425,-2.013 4.523,-4.526c0.694,-1.006 0.171,-1.568 2.365,-2.305c3.145,-3.151 3.154,-3.079 3.4,-3.373c0.763,-2.564 0.861,-2.695 3.473,-3.458c3.125,-3.21 3.136,-3.109 3.381,-3.404c0.561,-1.778 0.589,-1.78 2.3,-2.348c3.823,-3.816 3.791,-3.724 4.49,-4.565c0.178,-0.193 1.119,-1.213 2.3,-2.347c0.308,-0.331 0.127,-0.32 3.497,-4.438c0.535,-1.761 0.543,-1.793 2.268,-2.364c3.804,-4.23 3.285,-4.514 6.829,-9.089c0.436,-1.251 0.43,-1.14 1.336,-2.167c2.043,-2.031 2.101,-1.921 3.332,-4.611c0.313,-1.337 0.306,-1.226 1.085,-2.341c3.257,-3.385 2.7,-3.703 4.676,-7.927c0.277,-1.315 0.265,-1.251 1.019,-2.352l0.218,-1.039c1.244,-1.739 0.855,-1.881 2.211,-3.473c1.421,-2.032 3.064,-6.313 3.283,-6.882l0.595,-3.185c0.983,-1.596 5.653,-11.772 6.311,-19.646c0.178,-1.884 -0.009,-1.898 0.998,-3.481l0.093,-2.238c0.224,-1.842 0.298,-1.762 0.976,-3.49c1.147,-10.795 5.768,-27.871 -1.532,-57.226c-0.585,-2.234 -0.418,-2.172 -0.542,-4.412c-0.25,-1.215 -2.382,-11.554 -4.493,-14.839c-1.215,-1.419 -1.063,-1.452 -1.313,-3.387c-1.069,-1.558 -0.881,-1.577 -1.035,-3.479c-0.7,-1.699 -6.333,-15.359 -10.206,-20.576c-1.19,-1.177 -1.13,-1.114 -2.186,-2.347c-0.779,-4.596 -1.256,-4.395 -4.649,-7.957c-0.873,-1.027 -0.871,-0.917 -1.313,-2.19c-2.518,-3.747 -2.093,-4.043 -5.538,-6.962c-1.521,-1.496 -1.388,-1.523 -2.468,-3.303c-3.127,-3.152 -3.063,-3.164 -3.359,-3.408c-1.759,-0.518 -1.798,-0.563 -2.291,-2.383c-1.457,-3.075 -1.489,-3.084 -4.51,-4.501c-1.785,-0.489 -1.849,-0.493 -2.38,-2.298c-2.057,-2.022 -1.907,-2.122 -4.354,-3.644c-1.254,-1.044 -1.206,-0.999 -2.361,-2.178c-1.929,-1.922 -15.929,-14.045 -40.031,-23.886c-5.29,-0.458 -6.741,-2.254 -6.864,-2.357c-5.73,-3.61 -14.658,-4.378 -15.981,-4.492c-1.89,-0.181 -1.903,0.005 -3.481,-1.004l-2.238,-0.088c-1.869,-0.23 -1.789,-0.306 -3.489,-0.97c-5.188,-0.449 -5.177,-0.341 -5.603,-0.485c-6.614,-2.249 -31.474,-2.231 -40.081,0.007c-0.974,0.253 -10.624,1.823 -11.549,1.973c-1.69,0.427 -1.601,0.398 -3.263,0.561c-1.623,0.3 -13.355,2.466 -19.643,6.31l-3.192,0.575c-0.758,0.301 -6.848,2.716 -9.085,4.62c-1.096,0.803 -1.008,0.771 -2.294,1.133c-1.515,1.058 -1.512,0.804 -3.428,1.151c-0.496,0.158 -19.763,11.492 -24.088,16.953c-1.479,1.557 -1.282,1.81 -3.345,2.42c-1.914,1.558 -1.985,1.331 -3.52,3.29c-1.168,1.201 -1.114,1.147 -2.351,2.195c-3.145,1.897 -3.113,1.902 -5.509,4.768c-0.537,1.764 -0.594,1.797 -2.329,2.318c-3.141,3.229 -3.163,3.083 -3.408,3.379c-0.692,2.587 -0.791,2.744 -3.457,3.472c-3.122,3.25 -3.148,3.097 -3.39,3.394c-0.506,1.764 -0.527,1.809 -2.311,2.337c-2.531,2.054 -2.451,1.979 -4.541,4.528c-0.532,1.766 -0.587,1.801 -2.325,2.323c-2.508,2.059 -2.423,1.988 -4.517,4.548c-0.54,1.704 -0.567,1.77 -2.336,2.316c-3.136,3.197 -3.146,3.098 -3.393,3.392c-0.545,1.765 -0.609,1.794 -2.315,2.337c-2.546,2.096 -2.461,2.028 -4.535,4.528c-0.537,1.708 -0.565,1.772 -2.325,2.327c-2.551,2.112 -2.472,2.038 -4.53,4.533c-0.54,1.706 -0.57,1.77 -2.334,2.317c-3.139,3.195 -3.149,3.095 -3.396,3.389c-0.774,2.622 -0.911,2.715 -3.47,3.46c-3.125,3.212 -3.136,3.11 -3.381,3.405c-0.55,1.76 -0.613,1.79 -2.322,2.329c-2.547,2.106 -2.468,2.034 -4.53,4.533c-0.54,1.705 -0.567,1.77 -2.332,2.32c-3.143,3.191 -3.152,3.092 -3.399,3.386c-0.755,2.567 -0.854,2.699 -3.467,3.462c-3.128,3.209 -3.138,3.107 -3.384,3.402c-0.55,1.764 -0.615,1.792 -2.321,2.33c-2.551,2.108 -2.47,2.037 -4.532,4.532c-0.539,1.709 -0.569,1.772 -2.329,2.322c-3.147,3.189 -3.155,3.089 -3.403,3.382c-0.749,2.563 -0.844,2.697 -3.461,3.468c-3.129,3.198 -3.14,3.106 -3.385,3.402c-0.882,2.947 -1.641,2.971 -5.687,1.782c-5.358,-3.391 -13.371,-5.15 -13.916,-5.233c-1.708,-0.153 -1.619,-0.149 -3.252,-0.515c-2.526,-1.169 -2.379,-1.317 -2.607,-1.375c-18.61,-4.752 -19.805,-4.826 -21.571,-4.935c-1.888,-0.169 -1.911,0.022 -3.483,-1.014c-24.135,-5.982 -46.191,-5.809 -50.237,-5.777c-15.432,0.109 -15.304,0.125 -30.858,-0.011c-26.191,-0.208 -30.65,2.362 -47.017,5.103c-1.681,0.452 -1.596,0.417 -3.268,0.617l-2.45,0.544c-2.232,0.594 -2.183,0.417 -4.416,0.527c-15.428,1.024 -25.131,8.361 -25.757,4.397c-0.431,-2.73 2.858,-2.835 7.275,-8.086c0.748,-2.176 1.301,-1.654 2.313,-2.345c0.88,-0.754 5.637,-4.83 10.238,-10.249c1.136,-1.199 2.142,-2.154 2.334,-2.336c2.458,-2.077 2.396,-2.003 4.524,-4.523c0.182,-0.192 1.137,-1.198 2.336,-2.334c5.519,-4.686 9.491,-9.357 10.242,-10.24c1.135,-1.198 2.141,-2.155 2.333,-2.337c2.46,-2.076 2.389,-2.008 4.531,-4.521c0.674,-0.981 0.143,-1.552 2.348,-2.312c2.49,-2.107 2.423,-2.026 4.525,-4.53c0.579,-1.686 0.584,-1.732 2.336,-2.323c3.136,-3.142 3.139,-3.097 3.387,-3.389c0.592,-1.747 0.635,-1.755 2.325,-2.335c2.482,-2.086 2.408,-2.011 4.528,-4.527c0.597,-1.745 0.64,-1.752 2.331,-2.33c2.493,-2.106 2.425,-2.026 4.527,-4.529c0.578,-1.688 0.585,-1.733 2.335,-2.324c3.137,-3.143 3.14,-3.096 3.388,-3.388c0.591,-1.75 0.636,-1.756 2.324,-2.335c2.48,-2.083 2.403,-2.011 4.529,-4.527c0.578,-1.691 0.584,-1.734 2.33,-2.331c2.484,-2.093 2.414,-2.014 4.527,-4.528c0.58,-1.691 0.587,-1.733 2.335,-2.325c3.138,-3.14 3.14,-3.095 3.389,-3.387c0.592,-1.751 0.637,-1.757 2.323,-2.336c2.481,-2.082 2.403,-2.011 4.531,-4.525c0.594,-1.745 0.637,-1.753 2.328,-2.332c2.486,-2.095 2.415,-2.018 4.528,-4.528c0.577,-1.689 0.583,-1.733 2.332,-2.328c0.649,-0.55 0.633,-0.436 1.217,-1.031c8.886,-9.057 8.889,-9.05 9.028,-9.215c0.595,-1.748 0.639,-1.754 2.328,-2.332c2.483,-2.089 2.41,-2.014 4.528,-4.528c0.579,-1.69 0.585,-1.733 2.332,-2.328c0.652,-0.552 0.636,-0.438 1.217,-1.031c9.029,-9.206 8.944,-9.114 9.029,-9.214c0.594,-1.75 0.64,-1.755 2.327,-2.332c2.487,-2.094 2.413,-2.019 4.527,-4.528c0.579,-1.692 0.587,-1.734 2.331,-2.329c2.491,-2.106 2.424,-2.025 4.526,-4.53c0.579,-1.686 0.584,-1.732 2.336,-2.324c3.136,-3.143 3.138,-3.097 3.387,-3.389c0.592,-1.748 0.636,-1.755 2.325,-2.334c2.482,-2.087 2.408,-2.012 4.529,-4.527c0.579,-1.692 0.587,-1.734 2.33,-2.33c2.484,-2.093 2.415,-2.014 4.527,-4.528c0.579,-1.689 0.585,-1.733 2.334,-2.326c3.138,-3.14 3.141,-3.095 3.389,-3.387c0.592,-1.751 0.637,-1.757 2.324,-2.336c2.477,-2.079 2.406,-2.003 4.517,-4.533c0.18,-0.193 1.128,-1.206 2.323,-2.348c2.459,-2.081 2.397,-2.006 4.523,-4.524c0.182,-0.191 1.139,-1.197 2.344,-2.328c0.652,-0.541 0.629,-0.434 1.226,-1.017c0.738,-0.722 7.667,-7.5 9.062,-9.185c0.523,-1.772 0.557,-1.801 2.328,-2.323c2.416,-1.926 2.724,-1.538 4.772,-4.352c1.379,-1.629 1.441,-1.468 3.216,-2.531c1.742,-1.408 10.525,-8.853 11.539,-10.129c1.519,-1.561 1.322,-1.802 3.361,-2.402c0.455,-0.366 0.422,-0.32 5.789,-4.451c1.139,-1.165 1.088,-1.12 2.35,-2.177c3.221,-1.122 3.156,-1.115 5.654,-3.535c1.195,-1.253 1.107,-1.163 2.332,-2.207c2.953,-0.949 2.94,-0.871 5.531,-2.604c8.983,-6.007 9.304,-5.457 10.063,-6.008c10.657,-7.742 24.63,-12.583 28.862,-15.66c1.541,-1.058 1.539,-0.818 3.416,-1.222c1.035,-0.214 0.954,-0.19 1.035,-0.214c0.332,-0.099 -0.049,-0.392 0.263,-0.525c13.485,-5.741 13.674,-5.324 14.724,-6.045c1.588,-1.096 1.612,-0.898 3.488,-1.061c5.686,-2.355 12.781,-4.802 13.903,-5.189c1.588,-0.401 1.503,-0.39 3.209,-0.611l0.214,-0.546c2.235,-0.518 2.14,-0.391 4.401,-0.518c17.088,-4.427 16.968,-4.812 18.457,-5.182c2.215,-0.584 2.165,-0.419 4.411,-0.551c13.337,-0.834 13.04,-2.399 26.274,-3.657c9.254,-0.879 9.173,-1.637 36.61,-1.637c43.384,-0 42.998,4.343 60.598,5.285c1.72,0.176 1.635,0.151 3.266,0.571c2.973,0.724 14.98,4.595 19.593,5.215c1.904,0.155 1.919,-0.03 3.483,1.008c3.965,1.496 4.046,0.903 7.921,2.542c0.224,0.095 0.222,0.087 9.197,3.224c2.506,0.144 2.705,-0.41 4.568,1.258c6.197,3.015 6.064,3.107 12.596,5.561l3.177,0.614c0.732,0.447 7.255,4.435 9.437,5.085c1.856,0.362 1.862,0.132 3.416,1.196l1.038,0.22c1.72,1.23 1.859,0.836 3.474,2.207c1.616,0.795 3.192,2.049 3.45,2.254c0.827,0.657 4.247,2.013 4.627,2.164l2.284,1.166c3.448,3.104 10.007,5.722 12.232,7.417c6.112,4.655 6.62,3.798 8.349,5.165c0.989,0.782 0.652,0.972 1.471,1.901c0.613,0.694 4.861,2.408 6.444,3.953c2.318,2.261 10.421,7.5 11.358,8.106l1.418,2.007c1.412,1.52 1.403,1.459 3.273,2.356c1.841,0.535 1.517,0.907 2.444,2.223c0.3,0.338 1.515,1.709 4.458,3.467c1.796,0.527 1.815,0.553 2.364,2.283c2.052,2.041 1.861,2.078 4.128,3.959c6.841,5.675 6.51,5.933 12.85,12.184c1.22,1.05 1.117,0.972 1.22,1.05c1.096,0.832 0.621,1.065 1.299,2.228c0.311,0.405 1.499,1.953 4.474,4.561c1.79,0.564 1.784,0.648 2.287,2.361c2.035,2.882 1.837,2.986 3.473,4.45c1.252,0.895 1.66,0.554 2.218,2.449c1.024,1.852 0.862,1.863 2.368,3.258c1.052,0.756 1.53,0.295 2.279,2.389c5.63,7.121 16.561,23.693 18.099,25.272c0.888,1.009 0.887,0.899 1.342,2.176c3.003,4.497 2.226,4.841 5.521,9.251c0.862,1.005 0.863,0.896 1.329,2.189c2.629,3.822 1.643,4.265 4.281,8.155c4.01,5.914 3.337,6.232 3.707,6.722c0.763,1.158 0.731,1.068 1.007,2.358c11.215,23.917 10.206,24.396 11.599,26.217c1.475,2.003 0.974,2.122 1.147,4.61c0.444,1.283 5.347,15.46 5.695,15.982c1.509,1.963 0.967,2.089 1.05,4.63c1.831,7.07 1.651,6.993 4.06,13.888c0.427,1.635 0.402,1.552 0.603,3.254l0.523,2.458c0.431,1.679 0.4,1.61 0.573,3.264c0.377,6.716 4.017,22.542 5.134,37.872c0.45,1.663 0.416,1.573 0.638,3.281l0.002,41.175c-0.241,1.863 -0.304,1.788 -0.962,3.489c-0.735,20.584 -4.107,24.552 -4.792,38.807c-0.19,1.897 -0.006,1.914 -1.03,3.486c-4.367,16.809 -4.331,16.784 -4.715,18.241c-0.145,2.489 0.358,2.593 -1.06,4.615c-0.222,1.667 -0.208,1.58 -0.621,3.208c-0.389,1.121 -2.641,7.62 -5.174,13.905c-0.154,1.643 -0.15,1.572 -0.529,3.208c-2.474,3.928 -1.272,4.51 -4.071,8.259c-2.159,2.891 -3.117,7.365 -3.263,8.044l-0.683,3.119c-1.851,2.794 -1.925,2.629 -3.46,5.722c-6.936,13.976 -6.939,13.855 -7.491,15.083c-0.369,1.355 -0.366,1.267 -1.181,2.285c-0.933,1.249 -0.876,1.138 -0.933,1.249c-3.475,6.775 -4.216,6.304 -4.444,6.921c-2.782,7.538 -4.948,6.295 -8.19,13.63c-0.444,1.272 -0.442,1.161 -1.331,2.178c-2.12,2.188 -4.285,5.893 -4.87,6.596c-3.395,4.073 -3.097,4.142 -6.376,8.384l-1.315,2.179c-0.365,0.363 -3.224,3.205 -4.388,4.696l-1.313,2.176c-2.704,2.665 -2.781,2.476 -4.673,5.643l-1.028,1.229l-2.134,1.349c-2.193,1.87 -2.258,1.772 -3.513,4.382c-0.473,1.775 -0.488,1.852 -2.293,2.37c-0.684,0.565 -0.677,0.435 -1.234,1.018c-7.062,7.403 -8.75,9.032 -8.961,9.282c-0.751,2.165 -1.295,1.648 -2.318,2.347c-2.501,2.123 -2.427,2.055 -4.522,4.528c-1.143,1.196 -2.155,2.144 -2.348,2.325c-2.523,2.112 -2.451,2.042 -4.527,4.519c-0.582,1.69 -0.584,1.731 -2.337,2.328c-3.383,3.381 -3.32,3.313 -3.383,3.387c-0.574,1.679 -0.565,1.728 -2.342,2.331c-2.526,2.011 -2.446,1.952 -4.56,4.492c-0.536,1.772 -0.598,1.802 -2.323,2.325c-2.537,2.107 -2.46,2.031 -4.531,4.536c-0.527,1.721 -0.556,1.784 -2.335,2.311c-3.139,3.241 -3.15,3.1 -3.398,3.393c-0.508,1.723 -0.53,1.793 -2.31,2.336c-2.541,2.103 -2.456,2.032 -4.538,4.53c-0.535,1.772 -0.596,1.802 -2.321,2.326c-2.539,2.108 -2.46,2.033 -4.533,4.535c-0.525,1.722 -0.554,1.785 -2.332,2.314c-0.673,0.565 -0.661,0.444 -1.224,1.028c-8.247,8.561 -8.362,8.435 -9.024,9.228c-0.534,1.776 -0.598,1.804 -2.319,2.329c-2.538,2.105 -2.46,2.029 -4.534,4.533c-0.525,1.721 -0.553,1.785 -2.329,2.319c-0.683,0.57 -0.67,0.447 -1.227,1.025c-8.252,8.557 -8.364,8.433 -9.028,9.224c-0.531,1.778 -0.594,1.806 -2.316,2.332c-2.538,2.102 -2.456,2.029 -4.535,4.532c-0.524,1.726 -0.555,1.787 -2.326,2.321c-2.536,2.114 -2.46,2.037 -4.53,4.538c-0.525,1.72 -0.553,1.784 -2.336,2.309c-3.133,3.244 -3.144,3.105 -3.391,3.399c-0.53,1.779 -0.593,1.807 -2.313,2.334c-2.535,2.096 -2.453,2.023 -4.536,4.531c-0.524,1.725 -0.554,1.787 -2.326,2.322c-2.539,2.115 -2.462,2.039 -4.53,4.538c-0.525,1.72 -0.553,1.784 -2.334,2.312c-3.137,3.242 -3.147,3.102 -3.395,3.395c-0.527,1.782 -0.592,1.81 -2.312,2.334c-2.542,2.104 -2.457,2.033 -4.538,4.53c-0.535,1.772 -0.596,1.802 -2.322,2.326c-2.537,2.107 -2.46,2.031 -4.531,4.536c-0.526,1.721 -0.555,1.784 -2.334,2.313c-3.141,3.237 -3.151,3.098 -3.399,3.391c-0.525,1.783 -0.59,1.811 -2.309,2.336c-2.541,2.103 -2.456,2.032 -4.538,4.53c-0.535,1.772 -0.596,1.802 -2.321,2.326c-2.539,2.109 -2.46,2.033 -4.532,4.535c-0.525,1.722 -0.554,1.785 -2.332,2.316c-0.677,0.568 -0.665,0.446 -1.225,1.027c-8.247,8.56 -8.362,8.435 -9.024,9.227c-0.534,1.776 -0.598,1.804 -2.319,2.329c-2.533,2.098 -2.452,2.024 -4.533,4.534c-0.525,1.721 -0.553,1.784 -2.329,2.319c-0.683,0.57 -0.67,0.447 -1.227,1.025c-4.793,4.97 -8.848,9.11 -8.978,9.265c-0.599,1.75 -0.639,1.752 -2.331,2.336c-2.505,2.101 -2.43,2.027 -4.521,4.524c-0.181,0.193 -1.128,1.205 -2.323,2.35c-2.481,2.105 -2.419,2.029 -4.523,4.523c-0.182,0.191 -1.139,1.196 -2.337,2.333c-3.02,2.972 -2.998,2.921 -3.391,3.378c-0.585,1.675 -0.583,1.719 -2.338,2.325c-2.551,2.122 -2.501,2.024 -4.571,4.49c-0.539,1.791 -0.584,1.798 -2.331,2.317c-5.771,4.712 -5.21,5.338 -5.804,5.589c-0.418,0.177 -1.912,0.808 -4.443,3.534c-0.391,1.309 -0.388,1.187 -1.214,2.24c-1.035,0.855 -0.972,0.829 -2.309,1.185c-1.866,0.863 -1.862,0.785 -3.3,2.327c-0.794,1.187 -0.333,1.621 -2.348,2.312c-0.157,0.125 -0.307,-0.16 -2.145,1.296c-13.584,10.764 -13.807,10.299 -14.93,11.289c-0.435,1.291 -0.476,1.157 -1.356,2.052c-4.534,1.374 -4.351,1.583 -7.955,4.645c-1.047,0.885 -0.958,0.865 -2.212,1.289c-3.476,2.318 -3.645,1.874 -6.955,4.398c-0.987,0.861 -0.878,0.867 -2.186,1.327l-1.017,0.189c-0.424,1.144 -0.429,1.025 -1.404,1.849c-3.805,1.167 -3.803,1.085 -4.4,1.463c-4.455,2.821 -4.291,2.984 -4.682,3.215c-1.427,1.224 -1.461,1.064 -3.407,1.281c-0.725,0.296 -0.717,0.135 -1.4,0.572c-0.689,0.441 -4.058,2.599 -8.916,5.002c-1.434,1.214 -1.468,1.051 -3.413,1.262c-1.027,0.403 -9.885,3.875 -12.541,5.738c-1.534,1.078 -1.594,0.782 -3.477,1.085c-10.533,4.319 -10.565,4.104 -11.374,4.662c-1.556,1.128 -1.586,0.929 -3.494,1.092c-9.109,1.484 -18.111,5.61 -19.609,6.296c-1.655,0.414 -1.579,0.389 -3.262,0.536c-5.985,0.382 -15.737,3.75 -24.168,5.153c-1.68,0.45 -1.596,0.415 -3.268,0.613l-2.251,0.048c-2.704,1.987 -2.934,0.936 -5.759,1.023c-7.167,0.275 -7.107,0.07 -10.399,0.626c-24.917,4.208 -63.851,-0.32 -71.916,-0.624c-2.822,-0.086 -3.054,0.977 -5.757,-1.028l-2.254,-0.046c-1.878,-0.224 -1.798,-0.304 -3.494,-0.974c-12.199,-1.27 -11.656,-3.725 -23.941,-4.786c-1.662,-0.139 -1.582,-0.11 -3.264,-0.532c-6.93,-3.194 -15.048,-4.386 -34.481,-12.033c-1.882,-0.32 -1.936,-0.037 -3.475,-1.101c-1.258,-0.864 -1.143,-0.822 -1.258,-0.864c-8.001,-2.923 -7.857,-3.062 -15.628,-6.612c-2.61,-1.192 -2.378,-1.413 -4.898,-2.714c-1.271,-0.656 -15.873,-8.193 -15.892,-8.201c-1.305,-0.371 -1.216,-0.358 -2.266,-1.216c-4.918,-3.683 -8.384,-5.285 -9.165,-5.646c-1.341,-0.367 -1.252,-0.363 -2.268,-1.213c-4.846,-4.736 -6.882,-4.291 -12.676,-8.978l-2.15,-1.353c-1.232,-1.009 -1.123,-0.942 -1.232,-1.009c-0.505,-0.31 -0.537,0.136 -1.036,-0.17c-1.219,-1.052 -1.159,-0.991 -2.345,-2.204c-2.641,-2.661 -2.38,-2.969 -5.743,-4.481c-1.771,-0.473 -1.854,-0.464 -2.408,-2.256c-3.795,-4.285 -4.493,-3.377 -8.566,-7.408c-2.656,-2.629 -2.64,-2.626 -2.844,-2.796c-1.186,-0.692 -1.411,-0.235 -2.224,-1.298c-0.078,-0.102 0,0 -1.066,-1.207c-5.232,-5.258 -13.666,-13.677 -14.856,-14.865c-1.732,-1.708 -1.737,-1.591 -3.346,-3.488c-1.529,-4.579 -3.217,-3.397 -6.02,-7.79c-1.591,-2.492 -3.959,-4.396 -4.36,-4.718c-1.531,-1.482 -1.792,-1.29 -2.379,-3.393c-2.016,-4.092 -5.127,-6.378 -5.622,-6.897c-0.85,-1.012 -0.858,-0.903 -1.253,-2.221c-2.364,-2.865 -1.922,-3.137 -4.459,-5.784c-0.856,-1.028 -0.872,-0.971 -1.244,-2.249c-0.818,-1.757 -0.68,-1.754 -1.585,-3.081c-2.811,-4.122 -3.815,-3.432 -5.433,-8.26c-0.788,-2.353 -4.025,-6.371 -4.436,-6.881c-1.537,-1.509 -1.779,-1.357 -2.223,-3.522c-0.145,-0.721 -0.501,-2.483 -4.533,-8.001c-0.677,-0.926 -1.828,-4.735 -1.847,-4.774c-4.213,-8.511 -4.66,-8.201 -5.022,-8.937c-1.219,-1.443 -1.052,-1.475 -1.272,-3.442Z" style="fill:#566b8d;fill-opacity:1;"/></g></g></svg>