<?xml version="1.0" encoding="UTF-8" standalone="no"?><!DOCTYPE svg PUBLIC "-//W3C//DTD SVG 1.1//EN" "http://www.w3.org/Graphics/SVG/1.1/DTD/svg11.dtd"><svg width="100%" height="100%" viewBox="0 0 2084 2084" version="1.1" xmlns="http://www.w3.org/2000/svg" xmlns:xlink="http://www.w3.org/1999/xlink" xml:space="preserve" xmlns:serif="http://www.serif.com/" style="fill-rule:evenodd;clip-rule:evenodd;stroke-linejoin:round;stroke-miterlimit:2;"><rect id="material-page" x="0" y="0" width="2083.333" height="2083.333" style="fill:none;"/><clipPath id="_clip1"><rect x="0" y="0" width="2083.333" height="2083.333"/></clipPath><g clip-path="url(#_clip1)"><g id="page"><path d="M1796.35,372.543c8.271,8.293 12.916,19.527 12.916,31.24c0,164.411 0,1387.535 0,1636.72c0,11.733 -4.661,22.985 -12.957,31.281c-8.296,8.296 -19.548,12.957 -31.281,12.957c-223.172,0 -1223.551,0 -1446.723,0c-11.733,-0 -22.985,-4.661 -31.281,-12.957c-8.296,-8.296 -12.957,-19.548 -12.957,-31.281c0,-272.779 0,-1723.487 0,-1996.265c-0,-11.733 4.661,-22.985 12.957,-31.281c8.296,-8.296 19.548,-12.957 31.281,-12.957c193.261,0 959.525,0 1088.117,0c11.753,0 23.022,4.677 31.322,12.998c58.779,58.933 299.926,300.711 358.606,359.545Zm-480.642,-296.991c0,-0 -732.513,-0 -921.851,-0c-11.733,0 -22.985,4.661 -31.281,12.957c-8.296,8.296 -12.957,19.548 -12.957,31.281c-0,259.863 -0,1585.297 -0,1845.161c-0,11.733 4.661,22.985 12.957,31.281c8.296,8.296 19.548,12.957 31.281,12.957c208.033,0 1087.585,0 1295.618,0c24.432,-0 44.238,-19.806 44.238,-44.238c0,-250.136 0,-1476.131 0,-1476.131c-0,-0 -266.253,-0 -373.767,0c-24.432,0 -44.238,-19.806 -44.238,-44.238c-0,-106.619 -0,-369.03 -0,-369.03Zm76.77,0l-1.217,-0c0,-0 0,201.894 0,293.477c0,24.432 19.806,44.238 44.238,44.238c91.838,-0 294.695,-0 294.695,-0l-337.715,-337.715Z" style="fill:#566b8d;"/></g><g id="Material"><path id="Material1" serif:id="Material" d="M668.723,1348.426l653.835,0l0,-296.627c-0,-2.451 0.481,-4.879 1.416,-7.145l55.071,-133.499c2.883,-6.989 9.685,-11.561 17.245,-11.591c7.561,-0.03 14.398,4.487 17.337,11.453l56.323,133.499c0.972,2.305 1.473,4.781 1.473,7.283l0,296.628l48.044,-0c4.685,0 8.969,1.72 12.254,4.562c0.743,0.643 1.437,1.345 2.074,2.1c0.786,0.932 1.483,1.941 2.077,3.016l63.965,110.769c3.347,5.797 3.348,12.939 0.001,18.737c-3.347,5.797 -9.532,9.369 -16.226,9.369l-45.409,0l0,386.473c-0,10.348 -8.388,18.736 -18.736,18.736l-955.601,0c-10.348,0 -18.736,-8.388 -18.736,-18.736l0,-386.473l-45.409,0c-6.694,-0 -12.879,-3.571 -16.226,-9.369c-3.347,-5.797 -3.346,-12.94 0.001,-18.737l63.965,-110.769c0.594,-1.074 1.291,-2.084 2.077,-3.016c0.637,-0.755 1.33,-1.457 2.074,-2.1c3.285,-2.843 7.569,-4.562 12.254,-4.562l67.907,0l-0,-413.407c0,-7.022 2.785,-13.758 7.744,-18.73l172.523,-172.975c4.976,-4.989 11.733,-7.793 18.779,-7.793l525.247,0c7.034,-0 13.78,2.794 18.754,7.768c4.974,4.974 7.768,11.72 7.768,18.754l0,80.53l-36.95,89.572l-0,-133.151c0,-7.034 -2.794,-13.78 -7.768,-18.754c-4.974,-4.974 -11.72,-7.768 -18.754,-7.768l-445.96,0l-0,175.593c-0,14.648 -11.875,26.523 -26.523,26.523l-177.91,0l0,373.839Zm-123.593,88.909l0,-0.262l-12.955,22.434l12.955,-0l0,-0.037l37.472,0l0,0.037l295.709,-0l42.507,-73.609l-338.215,-0l0,0.03l-8.282,0l-29.19,51.407Zm426.877,427.381l528.724,0l0,-367.738l-483.315,0c-6.693,-0 -12.878,-3.57 -16.225,-9.367l-29.184,-50.539l-0,427.643Zm501.648,-59.882l0,33.624l-42.38,0l0,-33.624l42.38,0Zm-69.878,0l0,33.624l-172.541,0l0,-33.624l172.541,0Zm69.878,-58.122l0,33.624l-185.827,0l0,-33.624l185.827,0Zm-891.054,-249.733l0,367.738l351.934,0l-0,-427.643l-29.184,50.539c-3.347,5.796 -9.532,9.367 -16.225,9.367l-306.525,0Zm851.35,-148.552l0,-292.837l-37.392,-88.63l-36.529,88.552l-0,292.915l73.922,0Zm-598.342,-575.955l-165.165,165.165l139.238,0c7.034,0 13.78,-2.794 18.754,-7.768c4.974,-4.974 7.768,-11.72 7.768,-18.754l0,-138.643l-0.595,0Zm665.122,613.457l0,-0.03l-48.044,-0l-466.961,-0l42.507,73.609l472.499,0l0,-0.037l37.472,0l0,0.037l12.955,0l-8.556,-14.816l-33.367,-58.763l-8.504,0Zm-533.764,-271.57l0,207.019l-264.058,0l0,-207.019l264.058,0Zm320.861,-86.698l0,33.624l-584.919,0l0,-33.624l584.919,0Zm0,86.698l0,33.624l-285.51,0l0,-33.624l285.51,0Zm0,86.698l0,33.624l-285.51,0l0,-33.624l285.51,0Zm0,86.698l0,33.624l-285.51,0l0,-33.624l285.51,0Zm22.151,-346.79l0,33.624l-397.968,0l0,-33.624l397.968,0Zm-0,-86.698l0,33.624l-397.968,0l0,-33.624l397.968,0Z" style="fill:#586c8d;"/></g></g></svg>