<?xml version="1.0" encoding="UTF-8" standalone="no"?><!DOCTYPE svg PUBLIC "-//W3C//DTD SVG 1.1//EN" "http://www.w3.org/Graphics/SVG/1.1/DTD/svg11.dtd"><svg width="100%" height="100%" viewBox="0 0 2088 2084" version="1.1" xmlns="http://www.w3.org/2000/svg" xmlns:xlink="http://www.w3.org/1999/xlink" xml:space="preserve" xmlns:serif="http://www.serif.com/" style="fill-rule:evenodd;clip-rule:evenodd;stroke-linejoin:round;stroke-miterlimit:2;"><rect id="mediagrid-admin" x="2.71" y="-0" width="2083.333" height="2083.333" style="fill:none;"/><g id="MediaGrid"><path d="M1981.877,251.606l0,294.879c0,81.374 -66.065,147.439 -147.439,147.439l-294.879,0c-81.374,0 -147.439,-66.065 -147.439,-147.439l0,-294.879c0,-81.374 66.065,-147.439 147.439,-147.439l294.879,0c81.374,0 147.439,66.065 147.439,147.439Zm-33.425,-0c0,-62.926 -51.088,-114.015 -114.015,-114.015l-294.879,0c-62.926,0 -114.015,51.088 -114.015,114.015l0,294.879c0,62.926 51.088,114.015 114.015,114.015l294.879,0c62.926,0 114.015,-51.088 114.015,-114.015l0,-294.879Z" style="fill:#566b8d;"/><path d="M1981.877,894.227l0,294.879c0,81.374 -66.065,147.439 -147.439,147.439l-294.879,0c-81.374,0 -147.439,-66.065 -147.439,-147.439l0,-294.879c0,-81.374 66.065,-147.439 147.439,-147.439l294.879,0c81.374,0 147.439,66.065 147.439,147.439Zm-33.425,-0c0,-62.926 -51.088,-114.015 -114.015,-114.015l-294.879,0c-62.926,0 -114.015,51.088 -114.015,114.015l0,294.879c0,62.926 51.088,114.015 114.015,114.015l294.879,0c62.926,0 114.015,-51.088 114.015,-114.015l0,-294.879Z" style="fill:#566b8d;"/><path d="M1981.877,1536.849l0,294.879c0,81.374 -66.065,147.439 -147.439,147.439l-294.879,0c-81.374,0 -147.439,-66.065 -147.439,-147.439l0,-294.879c0,-81.374 66.065,-147.439 147.439,-147.439l294.879,0c81.374,0 147.439,66.065 147.439,147.439Zm-33.425,-0c0,-62.926 -51.088,-114.015 -114.015,-114.015l-294.879,0c-62.926,0 -114.015,51.088 -114.015,114.015l0,294.879c0,62.926 51.088,114.015 114.015,114.015l294.879,0c62.926,0 114.015,-51.088 114.015,-114.015l0,-294.879Z" style="fill:#566b8d;"/><g><path d="M1622.417,1610.673l-121.036,209.555l242.524,0l-121.488,-209.555Z" style="fill:#566b8d;fill-rule:nonzero;"/><path d="M1770.999,1676.155l-101.165,144.069l202.781,0l-101.616,-144.069Z" style="fill:#566b8d;fill-rule:nonzero;"/><circle cx="1739.838" cy="1579.51" r="31.163" style="fill:#566b8d;"/></g><g><path d="M979.796,1610.673l-121.036,209.555l242.524,0l-121.488,-209.555Z" style="fill:#566b8d;fill-rule:nonzero;"/><path d="M1128.378,1676.155l-101.165,144.069l202.781,0l-101.616,-144.069Z" style="fill:#566b8d;fill-rule:nonzero;"/><circle cx="1097.217" cy="1579.51" r="31.163" style="fill:#566b8d;"/></g><g><path d="M337.174,1610.673l-121.036,209.555l242.524,0l-121.488,-209.555Z" style="fill:#566b8d;fill-rule:nonzero;"/><path d="M485.757,1676.155l-101.165,144.069l202.781,0l-101.616,-144.069Z" style="fill:#566b8d;fill-rule:nonzero;"/><circle cx="454.595" cy="1579.51" r="31.163" style="fill:#566b8d;"/></g><g><path d="M1622.417,968.052l-121.036,209.555l242.524,0l-121.488,-209.555Z" style="fill:#566b8d;fill-rule:nonzero;"/><path d="M1770.999,1033.534l-101.165,144.069l202.781,0l-101.616,-144.069Z" style="fill:#566b8d;fill-rule:nonzero;"/><circle cx="1739.838" cy="936.889" r="31.163" style="fill:#566b8d;"/></g><g><path d="M979.796,968.052l-121.036,209.555l242.524,0l-121.488,-209.555Z" style="fill:#566b8d;fill-rule:nonzero;"/><path d="M1128.378,1033.534l-101.165,144.069l202.781,0l-101.616,-144.069Z" style="fill:#566b8d;fill-rule:nonzero;"/><circle cx="1097.217" cy="936.889" r="31.163" style="fill:#566b8d;"/></g><g><path d="M337.174,968.052l-121.036,209.555l242.524,0l-121.488,-209.555Z" style="fill:#566b8d;fill-rule:nonzero;"/><path d="M485.757,1033.534l-101.165,144.069l202.781,0l-101.616,-144.069Z" style="fill:#566b8d;fill-rule:nonzero;"/><circle cx="454.595" cy="936.889" r="31.163" style="fill:#566b8d;"/></g><g><path d="M1622.417,325.43l-121.036,209.555l242.524,0l-121.488,-209.555Z" style="fill:#566b8d;fill-rule:nonzero;"/><path d="M1770.999,390.913l-101.165,144.069l202.781,0l-101.616,-144.069Z" style="fill:#566b8d;fill-rule:nonzero;"/><circle cx="1739.838" cy="294.268" r="31.163" style="fill:#566b8d;"/></g><g><path d="M979.796,325.43l-121.036,209.555l242.524,0l-121.488,-209.555Z" style="fill:#566b8d;fill-rule:nonzero;"/><path d="M1128.378,390.913l-101.165,144.069l202.781,0l-101.616,-144.069Z" style="fill:#566b8d;fill-rule:nonzero;"/><circle cx="1097.217" cy="294.268" r="31.163" style="fill:#566b8d;"/></g><g><path d="M337.174,325.43l-121.036,209.555l242.524,0l-121.488,-209.555Z" style="fill:#566b8d;fill-rule:nonzero;"/><path d="M485.757,390.913l-101.165,144.069l202.781,0l-101.616,-144.069Z" style="fill:#566b8d;fill-rule:nonzero;"/><circle cx="454.595" cy="294.268" r="31.163" style="fill:#566b8d;"/></g><path d="M1339.255,251.606l0,294.879c0,81.374 -66.065,147.439 -147.439,147.439l-294.879,0c-81.374,0 -147.439,-66.065 -147.439,-147.439l0,-294.879c0,-81.374 66.065,-147.439 147.439,-147.439l294.879,0c81.374,0 147.439,66.065 147.439,147.439Zm-33.425,-0c0,-62.926 -51.088,-114.015 -114.015,-114.015l-294.879,0c-62.926,0 -114.015,51.088 -114.015,114.015l0,294.879c0,62.926 51.088,114.015 114.015,114.015l294.879,0c62.926,0 114.015,-51.088 114.015,-114.015l0,-294.879Z" style="fill:#566b8d;"/><path d="M1339.255,894.227l0,294.879c0,81.374 -66.065,147.439 -147.439,147.439l-294.879,0c-81.374,0 -147.439,-66.065 -147.439,-147.439l0,-294.879c0,-81.374 66.065,-147.439 147.439,-147.439l294.879,0c81.374,0 147.439,66.065 147.439,147.439Zm-33.425,-0c0,-62.926 -51.088,-114.015 -114.015,-114.015l-294.879,0c-62.926,0 -114.015,51.088 -114.015,114.015l0,294.879c0,62.926 51.088,114.015 114.015,114.015l294.879,0c62.926,0 114.015,-51.088 114.015,-114.015l0,-294.879Z" style="fill:#566b8d;"/><path d="M1339.255,1536.849l0,294.879c0,81.374 -66.065,147.439 -147.439,147.439l-294.879,0c-81.374,0 -147.439,-66.065 -147.439,-147.439l0,-294.879c0,-81.374 66.065,-147.439 147.439,-147.439l294.879,0c81.374,0 147.439,66.065 147.439,147.439Zm-33.425,-0c0,-62.926 -51.088,-114.015 -114.015,-114.015l-294.879,0c-62.926,0 -114.015,51.088 -114.015,114.015l0,294.879c0,62.926 51.088,114.015 114.015,114.015l294.879,0c62.926,0 114.015,-51.088 114.015,-114.015l0,-294.879Z" style="fill:#566b8d;"/><path d="M696.634,251.606l0,294.879c0,81.374 -66.065,147.439 -147.439,147.439l-294.879,0c-81.374,0 -147.439,-66.065 -147.439,-147.439l0,-294.879c0,-81.374 66.065,-147.439 147.439,-147.439l294.879,0c81.374,0 147.439,66.065 147.439,147.439Zm-33.425,-0c-0,-62.926 -51.088,-114.015 -114.015,-114.015l-294.879,0c-62.926,0 -114.015,51.088 -114.015,114.015l0,294.879c0,62.926 51.088,114.015 114.015,114.015l294.879,0c62.926,0 114.015,-51.088 114.015,-114.015l-0,-294.879Z" style="fill:#566b8d;"/><path d="M696.634,894.227l0,294.879c0,81.374 -66.065,147.439 -147.439,147.439l-294.879,0c-81.374,0 -147.439,-66.065 -147.439,-147.439l0,-294.879c0,-81.374 66.065,-147.439 147.439,-147.439l294.879,0c81.374,0 147.439,66.065 147.439,147.439Zm-33.425,-0c-0,-62.926 -51.088,-114.015 -114.015,-114.015l-294.879,0c-62.926,0 -114.015,51.088 -114.015,114.015l0,294.879c0,62.926 51.088,114.015 114.015,114.015l294.879,0c62.926,0 114.015,-51.088 114.015,-114.015l-0,-294.879Z" style="fill:#566b8d;"/><path d="M696.634,1536.849l0,294.879c0,81.374 -66.065,147.439 -147.439,147.439l-294.879,0c-81.374,0 -147.439,-66.065 -147.439,-147.439l0,-294.879c0,-81.374 66.065,-147.439 147.439,-147.439l294.879,0c81.374,0 147.439,66.065 147.439,147.439Zm-33.425,-0c-0,-62.926 -51.088,-114.015 -114.015,-114.015l-294.879,0c-62.926,0 -114.015,51.088 -114.015,114.015l0,294.879c0,62.926 51.088,114.015 114.015,114.015l294.879,0c62.926,0 114.015,-51.088 114.015,-114.015l-0,-294.879Z" style="fill:#566b8d;"/></g></svg>