<?xml version="1.0" encoding="UTF-8" standalone="no"?><!DOCTYPE svg PUBLIC "-//W3C//DTD SVG 1.1//EN" "http://www.w3.org/Graphics/SVG/1.1/DTD/svg11.dtd"><svg width="100%" height="100%" viewBox="0 0 2084 2084" version="1.1" xmlns="http://www.w3.org/2000/svg" xmlns:xlink="http://www.w3.org/1999/xlink" xml:space="preserve" xmlns:serif="http://www.serif.com/" style="fill-rule:evenodd;clip-rule:evenodd;stroke-linejoin:round;stroke-miterlimit:2;"><rect id="medialist-element" x="0" y="-0" width="2083.333" height="2083.333" style="fill:none;"/><g id="element"><path d="M1784.418,140.539c87.221,0 158.375,71.153 158.375,158.375l0,1485.504c0,87.221 -71.153,158.375 -158.375,158.375l-1485.504,0c-87.221,0 -158.375,-71.153 -158.375,-158.375l0,-1485.504c0,-87.221 71.153,-158.375 158.375,-158.375l1485.504,0m0,-78.039l-1485.504,0c-130.831,0 -236.414,106.042 -236.414,236.414l0,1485.504c0,130.831 106.042,236.415 236.414,236.415l1485.504,0c130.831,0 236.415,-106.042 236.415,-236.415l0,-1485.504c0,-130.831 -105.584,-236.414 -236.415,-236.414Z" style="fill:#566b8d;fill-rule:nonzero;"/></g><g id="MediaList"><g><g><path d="M317.561,575.707c0,-18.852 12.728,-33.515 28.088,-33.515l578.097,0c15.8,0 28.088,15.187 28.088,33.515l0,337.611c0,18.852 -12.727,33.515 -28.088,33.515l-578.097,-0c-15.8,0 -28.088,-15.187 -28.088,-33.515l0,-337.611m-25.895,0l0,337.611c0,35.61 24.578,64.412 53.983,64.412l578.097,0c29.844,0 53.983,-29.326 53.983,-64.412l0,-337.611c0,-35.609 -24.578,-64.411 -53.983,-64.411l-578.097,0c-29.405,0 -53.983,28.802 -53.983,64.411Z" style="fill:#566b8d;fill-rule:nonzero;"/></g><g><path d="M576.085,677.7l-109.851,190.189l220.111,0l-110.26,-190.189Z" style="fill:#566b8d;fill-rule:nonzero;"/><path d="M710.935,737.131l-91.816,130.755l184.04,0l-92.225,-130.755Z" style="fill:#566b8d;fill-rule:nonzero;"/><circle cx="682.654" cy="649.417" r="28.283" style="fill:#566b8d;"/></g></g><g><g><path d="M317.561,1170.015c0,-18.852 12.728,-33.515 28.088,-33.515l578.097,0c15.8,0 28.088,15.187 28.088,33.515l0,337.611c0,18.852 -12.727,33.515 -28.088,33.515l-578.097,0c-15.8,0 -28.088,-15.187 -28.088,-33.515l0,-337.611m-25.895,0l0,337.611c0,35.61 24.578,64.412 53.983,64.412l578.097,0c29.844,0 53.983,-29.326 53.983,-64.412l0,-337.611c0,-35.609 -24.578,-64.411 -53.983,-64.411l-578.097,0c-29.405,0 -53.983,28.802 -53.983,64.411Z" style="fill:#566b8d;fill-rule:nonzero;"/></g><g><path d="M576.085,1272.008l-109.851,190.189l220.111,0l-110.26,-190.189Z" style="fill:#566b8d;fill-rule:nonzero;"/><path d="M710.935,1331.438l-91.816,130.755l184.04,0l-92.225,-130.755Z" style="fill:#566b8d;fill-rule:nonzero;"/><circle cx="682.654" cy="1243.725" r="28.283" style="fill:#566b8d;"/></g></g><g><g><path d="M1131.498,575.707c0,-18.852 12.728,-33.515 28.088,-33.515l578.097,0c15.8,0 28.088,15.187 28.088,33.515l0,337.611c0,18.852 -12.727,33.515 -28.088,33.515l-578.097,-0c-15.8,0 -28.088,-15.187 -28.088,-33.515l0,-337.611m-25.895,0l-0,337.611c0,35.61 24.578,64.412 53.983,64.412l578.097,0c29.844,0 53.983,-29.326 53.983,-64.412l0,-337.611c0,-35.609 -24.578,-64.411 -53.983,-64.411l-578.097,0c-29.405,0 -53.983,28.802 -53.983,64.411Z" style="fill:#566b8d;fill-rule:nonzero;"/></g><g><path d="M1390.022,677.7l-109.851,190.189l220.111,0l-110.26,-190.189Z" style="fill:#566b8d;fill-rule:nonzero;"/><path d="M1524.873,737.131l-91.816,130.755l184.04,0l-92.225,-130.755Z" style="fill:#566b8d;fill-rule:nonzero;"/><circle cx="1496.591" cy="649.417" r="28.283" style="fill:#566b8d;"/></g></g><g><g><path d="M1131.498,1170.015c0,-18.852 12.728,-33.515 28.088,-33.515l578.097,0c15.8,0 28.088,15.187 28.088,33.515l0,337.611c0,18.852 -12.727,33.515 -28.088,33.515l-578.097,0c-15.8,0 -28.088,-15.187 -28.088,-33.515l0,-337.611m-25.895,0l-0,337.611c0,35.61 24.578,64.412 53.983,64.412l578.097,0c29.844,0 53.983,-29.326 53.983,-64.412l0,-337.611c0,-35.609 -24.578,-64.411 -53.983,-64.411l-578.097,0c-29.405,0 -53.983,28.802 -53.983,64.411Z" style="fill:#566b8d;fill-rule:nonzero;"/></g><g><path d="M1390.022,1272.008l-109.851,190.189l220.111,0l-110.26,-190.189Z" style="fill:#566b8d;fill-rule:nonzero;"/><path d="M1524.873,1331.438l-91.816,130.755l184.04,0l-92.225,-130.755Z" style="fill:#566b8d;fill-rule:nonzero;"/><circle cx="1496.591" cy="1243.725" r="28.283" style="fill:#566b8d;"/></g></g></g></svg>