<?xml version="1.0" encoding="UTF-8" standalone="no"?><!DOCTYPE svg PUBLIC "-//W3C//DTD SVG 1.1//EN" "http://www.w3.org/Graphics/SVG/1.1/DTD/svg11.dtd"><svg width="100%" height="100%" viewBox="0 0 2084 2084" version="1.1" xmlns="http://www.w3.org/2000/svg" xmlns:xlink="http://www.w3.org/1999/xlink" xml:space="preserve" xmlns:serif="http://www.serif.com/" style="fill-rule:evenodd;clip-rule:evenodd;stroke-linejoin:round;stroke-miterlimit:2;"><rect id="medialist-page" x="0" y="-0" width="2083.333" height="2083.333" style="fill:none;"/><clipPath id="_clip1"><rect x="0" y="-0" width="2083.333" height="2083.333"/></clipPath><g clip-path="url(#_clip1)"><g id="MediaList"><g><g><path d="M478.238,956.441c0,-14.663 9.899,-26.067 21.847,-26.067l449.631,0c12.289,0 21.847,11.812 21.847,26.067l0,262.586c0,14.663 -9.899,26.067 -21.847,26.067l-449.631,0c-12.289,0 -21.847,-11.812 -21.847,-26.067l0,-262.586m-20.14,0l0,262.586c0,27.696 19.116,50.098 41.987,50.098l449.631,0c23.212,0 41.987,-22.809 41.987,-50.098l0,-262.586c0,-27.696 -19.116,-50.097 -41.987,-50.097l-449.631,0c-22.871,0 -41.987,22.402 -41.987,50.097Z" style="fill:#566b8d;fill-rule:nonzero;"/></g><g><path d="M679.311,1035.768l-85.439,147.925l171.198,0l-85.758,-147.925Z" style="fill:#566b8d;fill-rule:nonzero;"/><path d="M784.195,1081.992l-71.412,101.698l143.143,0l-71.73,-101.698Z" style="fill:#566b8d;fill-rule:nonzero;"/><circle cx="762.199" cy="1013.771" r="21.998" style="fill:#566b8d;"/></g></g><g><g><path d="M478.238,1418.68c0,-14.663 9.899,-26.067 21.847,-26.067l449.631,0c12.289,0 21.847,11.812 21.847,26.067l0,262.586c0,14.663 -9.899,26.067 -21.847,26.067l-449.631,0c-12.289,0 -21.847,-11.812 -21.847,-26.067l0,-262.586m-20.14,0l0,262.586c0,27.696 19.116,50.098 41.987,50.098l449.631,0c23.212,0 41.987,-22.809 41.987,-50.098l0,-262.586c0,-27.696 -19.116,-50.097 -41.987,-50.097l-449.631,0c-22.871,0 -41.987,22.402 -41.987,50.097Z" style="fill:#566b8d;fill-rule:nonzero;"/></g><g><path d="M679.311,1498.008l-85.439,147.925l171.198,0l-85.758,-147.925Z" style="fill:#566b8d;fill-rule:nonzero;"/><path d="M784.195,1544.232l-71.412,101.698l143.143,0l-71.73,-101.698Z" style="fill:#566b8d;fill-rule:nonzero;"/><circle cx="762.199" cy="1476.01" r="21.998" style="fill:#566b8d;"/></g></g><g><g><path d="M1111.3,956.441c0,-14.663 9.899,-26.067 21.847,-26.067l449.631,0c12.289,0 21.847,11.812 21.847,26.067l0,262.586c0,14.663 -9.899,26.067 -21.847,26.067l-449.631,0c-12.289,0 -21.847,-11.812 -21.847,-26.067l0,-262.586m-20.14,0l0,262.586c0,27.696 19.116,50.098 41.987,50.098l449.631,0c23.212,0 41.987,-22.809 41.987,-50.098l0,-262.586c0,-27.696 -19.116,-50.097 -41.987,-50.097l-449.631,0c-22.871,0 -41.987,22.402 -41.987,50.097Z" style="fill:#566b8d;fill-rule:nonzero;"/></g><g><path d="M1312.374,1035.768l-85.439,147.925l171.198,0l-85.758,-147.925Z" style="fill:#566b8d;fill-rule:nonzero;"/><path d="M1417.257,1081.992l-71.412,101.698l143.143,0l-71.73,-101.698Z" style="fill:#566b8d;fill-rule:nonzero;"/><circle cx="1395.261" cy="1013.771" r="21.998" style="fill:#566b8d;"/></g></g><g><g><path d="M1111.3,1418.68c0,-14.663 9.899,-26.067 21.847,-26.067l449.631,0c12.289,0 21.847,11.812 21.847,26.067l0,262.586c0,14.663 -9.899,26.067 -21.847,26.067l-449.631,0c-12.289,0 -21.847,-11.812 -21.847,-26.067l0,-262.586m-20.14,0l0,262.586c0,27.696 19.116,50.098 41.987,50.098l449.631,0c23.212,0 41.987,-22.809 41.987,-50.098l0,-262.586c0,-27.696 -19.116,-50.097 -41.987,-50.097l-449.631,0c-22.871,0 -41.987,22.402 -41.987,50.097Z" style="fill:#566b8d;fill-rule:nonzero;"/></g><g><path d="M1312.374,1498.008l-85.439,147.925l171.198,0l-85.758,-147.925Z" style="fill:#566b8d;fill-rule:nonzero;"/><path d="M1417.257,1544.232l-71.412,101.698l143.143,0l-71.73,-101.698Z" style="fill:#566b8d;fill-rule:nonzero;"/><circle cx="1395.261" cy="1476.01" r="21.998" style="fill:#566b8d;"/></g></g></g><g id="page"><path d="M1796.114,371.135c8.271,8.293 12.916,19.527 12.916,31.24c0,164.411 0,1387.535 0,1636.72c0,11.733 -4.661,22.985 -12.957,31.281c-8.296,8.296 -19.548,12.957 -31.281,12.957l-1446.723,0c-11.733,-0 -22.985,-4.661 -31.281,-12.957c-8.296,-8.296 -12.957,-19.548 -12.957,-31.281c-0,-272.779 -0,-1723.487 -0,-1996.265c-0,-11.733 4.661,-22.985 12.957,-31.281c8.296,-8.296 19.548,-12.957 31.281,-12.957c193.261,0 959.525,-0 1088.117,-0c11.753,0 23.022,4.677 31.322,12.998c58.779,58.933 299.926,300.711 358.606,359.545Zm-480.642,-296.991c0,0 -732.513,-0 -921.851,-0c-11.733,0 -22.985,4.661 -31.281,12.957c-8.296,8.296 -12.957,19.548 -12.957,31.281c-0,259.863 -0,1585.297 -0,1845.161c-0,11.733 4.661,22.985 12.957,31.281c8.296,8.296 19.548,12.957 31.281,12.957c208.033,0 1087.585,0 1295.618,0c24.432,-0 44.238,-19.806 44.238,-44.238c0,-250.136 0,-1476.131 0,-1476.131c0,0 -266.253,0 -373.767,0c-24.432,0 -44.238,-19.806 -44.238,-44.238c-0,-106.619 -0,-369.03 -0,-369.03Zm76.77,0l-1.217,-0c0,0 0,201.894 0,293.477c0,24.432 19.806,44.238 44.238,44.238c91.838,-0 294.695,-0 294.695,-0l-337.715,-337.715Z" style="fill:#566b8d;"/></g></g></svg>