<?xml version="1.0" encoding="UTF-8" standalone="no"?><!DOCTYPE svg PUBLIC "-//W3C//DTD SVG 1.1//EN" "http://www.w3.org/Graphics/SVG/1.1/DTD/svg11.dtd"><svg width="100%" height="100%" viewBox="0 0 2084 2084" version="1.1" xmlns="http://www.w3.org/2000/svg" xmlns:xlink="http://www.w3.org/1999/xlink" xml:space="preserve" xmlns:serif="http://www.serif.com/" style="fill-rule:evenodd;clip-rule:evenodd;stroke-linejoin:round;stroke-miterlimit:2;"><rect id="partner-page" x="0" y="0" width="2083.333" height="2083.333" style="fill:none;"/><clipPath id="_clip1"><rect x="0" y="0" width="2083.333" height="2083.333"/></clipPath><g clip-path="url(#_clip1)"><g id="page"><path d="M1796.35,372.543c8.271,8.293 12.916,19.527 12.916,31.24c0,164.411 0,1387.535 0,1636.72c0,11.733 -4.661,22.985 -12.957,31.281c-8.296,8.296 -19.548,12.957 -31.281,12.957c-223.172,0 -1223.551,0 -1446.723,0c-11.733,-0 -22.985,-4.661 -31.281,-12.957c-8.296,-8.296 -12.957,-19.548 -12.957,-31.281l0,-1996.265c-0,-11.733 4.661,-22.985 12.957,-31.281c8.296,-8.296 19.548,-12.957 31.281,-12.957l1088.117,0c11.753,0 23.022,4.677 31.322,12.998c58.779,58.933 299.926,300.711 358.606,359.545Zm-480.642,-296.991c0,0 -732.513,-0 -921.851,-0c-11.733,0 -22.985,4.661 -31.281,12.957c-8.296,8.296 -12.957,19.548 -12.957,31.281c-0,259.863 -0,1585.297 -0,1845.161c-0,11.733 4.661,22.985 12.957,31.281c8.296,8.296 19.548,12.957 31.281,12.957c208.033,0 1087.585,0 1295.618,0c24.432,-0 44.238,-19.806 44.238,-44.238c0,-250.136 0,-1476.131 0,-1476.131l-373.767,0c-24.432,0 -44.238,-19.806 -44.238,-44.238c-0,-106.619 -0,-369.03 -0,-369.03Zm76.77,0l-1.217,-0c0,0 0,201.894 0,293.477c0,24.432 19.806,44.238 44.238,44.238c91.838,-0 294.695,-0 294.695,-0l-337.715,-337.715Z" style="fill:#566b8d;"/></g><g id="Partner"><path id="Partner1" serif:id="Partner" d="M458.241,1013.055c0.043,-16.486 -1.495,-36.876 6.322,-55.967c17.694,-43.212 54.627,-53.271 60.965,-54.997c13.029,-3.548 13.171,-3.072 239.092,-3.072c168.853,0 194.943,-1.622 223.408,8.309c51.769,18.062 50.951,23.452 55.142,21.265c39.495,-20.609 61.526,-29.628 119.998,-29.629c29.48,-0.001 363.749,-0.01 368.5,0.066c4.584,0.073 34.487,0.551 54.476,17.784c29.31,25.27 34.999,38.604 37.711,72.766c0.748,9.418 1.69,315.671 -0.2,397.216c-0.398,17.169 -11.309,46.46 -33.462,63.617c-34.146,26.446 -50.14,21.204 -149.997,21.692c-4.773,0.023 -3.751,2.166 -8.258,8.488c-3.244,4.55 -21.499,30.151 -55.798,42.022c-34.593,11.972 -62.144,13.958 -106.904,-4.353c-6.678,-2.732 -4.122,4.263 -6.871,12.212c-1.456,4.21 -8.742,28.971 -25.804,48.572c-62.922,72.289 -135.037,45.648 -153.182,40.748c-3.917,-1.058 -3.963,5.312 -4.829,8.788c-1.376,5.525 -9.984,40.085 -32.183,63.481c-56.073,59.095 -130.622,50.798 -178.051,19.512c-5.575,-3.678 -29.84,-25.628 -31.324,-27.369c-6.881,-8.075 -6.819,-8.024 -146.403,-147.608c-62.361,-62.361 -62.437,-63.397 -67.095,-63.457c-49.817,-0.642 -86.265,3.063 -112.168,-9.683c-5.427,-2.67 -37.891,-18.645 -49.379,-57.254c-4.985,-16.754 -3.7,-17.155 -3.706,-393.149Zm1100.255,364.565c0.161,-24.843 0.043,-24.722 0.043,-158.104l0,-164.646c0,-70.264 2.679,-78.735 -16.613,-88.44c-6.275,-3.157 -6.667,-2.721 -169.683,-2.721c-230.996,0 -231.117,-0.318 -246.939,2.499c-7.946,1.414 -52.64,9.371 -88.325,48.744c-17.48,19.287 -120.116,118.181 -125.538,127.743c-32.515,57.345 21.578,101.579 67.292,81.627c13.132,-5.732 32.03,-26.761 32.413,-27.338c2.701,-4.072 2.899,-3.75 42.759,-43.61c51.781,-51.781 52.321,-51.072 56.815,-55.57c31.077,-31.104 85.077,-23.728 107.353,-2.448c15.981,15.267 15.793,15.38 195.561,195.148c44.504,44.504 48.313,69.656 49.076,113.222c0.05,2.869 7.128,2.133 7.542,2.133c72.099,0.119 82.951,3.435 88.245,-28.239Zm-594.762,147.174l-3.144,-3.389c-9.205,-9.209 -33.759,-32.962 -5.297,-58.964c3.932,-3.592 18.284,-10.88 31.713,-4.34c13.196,6.426 12.399,7.693 59.999,55.292c31.126,31.126 59.365,66.659 113.271,43.913c18.813,-7.938 72.07,-61.792 11.86,-122.002l-10.454,-10.453c-23.953,-23.77 -24.419,-23.167 -29.374,-28.122c-11.887,-11.887 -11.959,-11.781 -14.882,-15.172c-15.666,-15.659 -44.596,-39.267 -13.127,-68.037c6.837,-6.25 25.942,-8.834 34.178,-2.738c4.023,2.978 4.776,2.1 24.24,21.564c121.656,121.656 120.992,123.644 140.121,130.603c51.987,18.914 121.15,-36.243 80.776,-104.685c-2.317,-3.929 -13.548,-15.159 -14.798,-16.409c-175.622,-175.622 -175.624,-175.597 -183.471,-183.716c-16.353,-16.353 -21.149,-19.942 -37.752,-3.846c-22.494,21.806 -104.08,106.73 -120.021,117.945c-5.402,3.801 -9.749,8.797 -24.909,14.506c-5.82,2.192 -60.432,27.847 -119.992,-12.893c-16.83,-11.512 -26.654,-27.67 -28.386,-30.52c-0.393,-0.647 -29.452,-38.74 -15.355,-97.025c10.424,-43.098 49.216,-74.888 61.987,-87.117l36.588,-36.588l3.095,-3.012c20.894,-21.969 20.269,-22.487 42.815,-42.778c1.934,-1.74 0.607,-2.201 -1.864,-2.995c-31.604,-10.154 -32.149,-8.799 -125.461,-8.799l-297.931,0c-42.823,0.02 -33.883,25.843 -33.883,89.854c0,328.415 -0.217,328.565 1.733,334.348c3.021,8.963 13.822,16.103 21.733,16.688c34.725,2.571 95.871,-5.414 111.176,6.825c11.663,9.327 10.36,10.586 131.844,132.149c17.372,17.383 16.796,17.765 34.143,35.113c81.143,81.143 80.82,84.158 105.706,88.81c63.945,11.955 116.743,-61.592 57.321,-121.166c-15.441,-15.48 -22.885,-21.531 -24.198,-22.844Z" style="fill:#5a6b8d;fill-opacity:1;"/></g></g></svg>