<?xml version="1.0" encoding="UTF-8" standalone="no"?><!DOCTYPE svg PUBLIC "-//W3C//DTD SVG 1.1//EN" "http://www.w3.org/Graphics/SVG/1.1/DTD/svg11.dtd"><svg width="100%" height="100%" viewBox="0 0 2084 2084" version="1.1" xmlns="http://www.w3.org/2000/svg" xmlns:xlink="http://www.w3.org/1999/xlink" xml:space="preserve" xmlns:serif="http://www.serif.com/" style="fill-rule:evenodd;clip-rule:evenodd;stroke-linejoin:round;stroke-miterlimit:2;"><rect id="project-element" x="0" y="0" width="2083.333" height="2083.333" style="fill:none;"/><g id="element"><path d="M1784.418,140.539c87.221,0 158.375,71.153 158.375,158.375l0,1485.504c0,87.221 -71.153,158.375 -158.375,158.375l-1485.504,0c-87.221,0 -158.375,-71.153 -158.375,-158.375l0,-1485.504c0,-87.221 71.153,-158.375 158.375,-158.375l1485.504,0m0,-78.039l-1485.504,0c-130.831,0 -236.414,106.042 -236.414,236.414l0,1485.504c0,130.831 106.042,236.415 236.414,236.415l1485.504,0c130.831,0 236.415,-106.042 236.415,-236.415l0,-1485.504c0,-130.831 -105.584,-236.414 -236.415,-236.414Z" style="fill:#566b8d;fill-rule:nonzero;"/></g><g id="Project"><path id="Project1" serif:id="Project" d="M1410.642,1460.683l0,231.564c0,57.336 -46.55,103.886 -103.886,103.886l-831.084,0c-57.336,0 -103.886,-46.55 -103.886,-103.886l0,-1186.882c0,-57.336 46.55,-103.886 103.886,-103.886l162.219,0l0,100.471l-162.219,0c-1.885,0 -3.415,1.53 -3.415,3.415l0,1186.882c0,1.885 1.53,3.415 3.415,3.415l831.084,0c1.885,0 3.415,-1.53 3.415,-3.415l0,-124.766l100.471,-106.798Zm-100.471,-587.62l0,-367.698c0,-1.885 -1.53,-3.415 -3.415,-3.415l-162.219,0l0,-100.471l162.219,0c57.336,0 103.886,46.55 103.886,103.886l0,125.406l-100.471,242.292Zm-217.442,-508.501l0,136.858c0,37.767 -30.662,68.429 -68.429,68.429l-266.172,0c-37.767,0 -68.429,-30.662 -68.429,-68.429l0,-136.858c0,-37.767 30.662,-68.429 68.429,-68.429l266.172,0c37.767,0 68.429,30.662 68.429,68.429Zm-302.559,32.042l0,72.775l202.089,0l0.001,-72.775l-202.09,0Zm921.377,172.487l-342.403,825.726l-171.939,182.766l6.421,-250.849l342.403,-825.726l165.517,68.083Zm-911.266,62.063l8.48,41.284c16.412,2.511 32.497,6.821 47.965,12.852l27.986,-31.513c15.661,7.12 30.594,15.742 44.591,25.744l-13.298,39.993c12.957,10.381 24.732,22.156 35.113,35.113l39.993,-13.298c10.002,13.997 18.624,28.93 25.744,44.591l-31.513,27.986c6.031,15.468 10.341,31.554 12.852,47.965l41.284,8.48c1.664,17.123 1.664,34.366 0,51.489l-41.284,8.48c-2.511,16.412 -6.821,32.497 -12.852,47.965l31.513,27.986c-7.12,15.661 -15.742,30.594 -25.744,44.591l-39.993,-13.298c-10.381,12.957 -22.156,24.732 -35.113,35.113l13.298,39.993c-13.997,10.002 -28.93,18.624 -44.591,25.744l-27.986,-31.513c-15.468,6.031 -31.554,10.341 -47.965,12.852l-8.48,41.284c-17.123,1.664 -34.366,1.664 -51.489,0l-8.48,-41.284c-16.412,-2.511 -32.497,-6.821 -47.965,-12.852l-27.986,31.513c-15.661,-7.12 -30.594,-15.742 -44.591,-25.744l13.298,-39.993c-12.957,-10.381 -24.732,-22.156 -35.113,-35.113l-39.993,13.298c-10.002,-13.997 -18.624,-28.93 -25.744,-44.591l31.513,-27.986c-6.031,-15.468 -10.341,-31.554 -12.852,-47.965l-41.284,-8.48c-1.664,-17.123 -1.664,-34.366 0,-51.489l41.284,-8.48c2.511,-16.412 6.821,-32.497 12.852,-47.965l-31.513,-27.986c7.12,-15.661 15.742,-30.594 25.744,-44.591l39.993,13.298c10.381,-12.957 22.156,-24.732 35.113,-35.113l-13.298,-39.993c13.997,-10.002 28.93,-18.624 44.591,-25.744l27.986,31.513c15.468,-6.031 31.554,-10.341 47.965,-12.852l8.48,-41.284c17.123,-1.664 34.366,-1.664 51.489,0Zm-25.744,211.704c-29.383,0 -53.238,23.855 -53.238,53.238c0,29.383 23.855,53.238 53.238,53.238c29.383,0 53.238,-23.855 53.238,-53.238c0,-29.383 -23.855,-53.238 -53.238,-53.238Zm320.566,186.47l8.355,23.059c16.177,5.07 31.036,13.648 43.515,25.123l24.147,-4.294c11.54,13.228 20.399,28.573 26.085,45.181l-15.792,18.765c3.698,16.545 3.698,33.702 0,50.247l15.792,18.765c-5.686,16.608 -14.545,31.953 -26.085,45.181l-24.147,-4.294c-12.479,11.475 -27.338,20.054 -43.515,25.123l-8.355,23.059c-17.226,3.38 -34.945,3.38 -52.171,0l-8.355,-23.059c-16.177,-5.07 -31.036,-13.648 -43.515,-25.123l-24.147,4.294c-11.54,-13.228 -20.399,-28.573 -26.085,-45.181l15.792,-18.765c-3.698,-16.545 -3.698,-33.702 0,-50.247l-15.792,-18.765c5.686,-16.608 14.545,-31.953 26.085,-45.181l24.147,4.294c12.479,-11.475 27.338,-20.054 43.515,-25.123l8.355,-23.059c17.226,-3.38 34.945,-3.38 52.171,0Zm-26.085,105.859c-14.956,0 -27.098,12.142 -27.098,27.098c0,14.956 12.142,27.098 27.098,27.098c14.956,0 27.098,-12.142 27.098,-27.098c0,-14.956 -12.142,-27.098 -27.098,-27.098Zm56.301,236.556l0,65.937l-593.057,0l0,-65.937l593.057,0Zm-56.301,139.902l0,65.937l-536.756,0l0,-65.937l536.756,0Z" style="fill:#586c8d;"/></g></svg>