<?xml version="1.0" encoding="UTF-8" standalone="no"?>
<!DOCTYPE svg PUBLIC "-//W3C//DTD SVG 1.1//EN" "http://www.w3.org/Graphics/SVG/1.1/DTD/svg11.dtd">
<svg width="100%" height="100%" viewBox="0 0 500 500" version="1.1" xmlns="http://www.w3.org/2000/svg" xmlns:xlink="http://www.w3.org/1999/xlink" xml:space="preserve" xmlns:serif="http://www.serif.com/" style="fill-rule:evenodd;clip-rule:evenodd;stroke-linecap:round;stroke-linejoin:round;stroke-miterlimit:1.5;">
    <g transform="matrix(1,0,0,1,-3868.83,-1.00629)">
        <g id="subpages" transform="matrix(1,0,0,1,3868.83,1.00629)">
            <rect x="0" y="0" width="500" height="500" style="fill:none;"/>
            <g transform="matrix(0.239924,0,0,0.239924,0.0225514,-0.0898274)">
                <path d="M1715.83,223.75C1795,223.75 1859.58,288.333 1859.58,367.5L1859.58,1715.83C1859.58,1795 1795,1859.58 1715.83,1859.58L367.5,1859.58C288.333,1859.58 223.75,1795 223.75,1715.83L223.75,367.5C223.75,288.333 288.333,223.75 367.5,223.75L1715.83,223.75M1715.83,152.917L367.5,152.917C248.75,152.917 152.917,249.167 152.917,367.5L152.917,1715.83C152.917,1834.58 249.167,1930.41 367.5,1930.41L1715.83,1930.41C1834.58,1930.41 1930.41,1834.16 1930.41,1715.83L1930.41,367.5C1930.41,248.75 1834.58,152.917 1715.83,152.917Z" style="fill:rgb(86,107,141);fill-rule:nonzero;"/>
            </g>
            <g transform="matrix(0.228761,0,0,0.320281,-185.038,-343.64)">
                <path d="M2108.29,1373.77C2116.96,1379.99 2121.84,1388.41 2121.84,1397.18C2121.84,1447.64 2121.84,1623.93 2121.84,1697.98C2121.84,1706.77 2116.95,1715.2 2108.24,1721.42C2099.54,1727.64 2087.73,1731.13 2075.43,1731.13C1990.94,1731.13 1812.98,1731.13 1728.5,1731.13C1716.19,1731.13 1704.38,1727.64 1695.68,1721.42C1686.98,1715.2 1682.09,1706.77 1682.09,1697.98C1682.09,1618.41 1682.09,1417.33 1682.09,1337.76C1682.09,1328.96 1686.98,1320.53 1695.68,1314.32C1704.38,1308.1 1716.19,1304.61 1728.5,1304.61C1801.84,1304.61 1941.45,1304.61 1992.44,1304.61C2004.77,1304.61 2016.6,1308.11 2025.3,1314.35C2046.49,1329.52 2087.13,1358.62 2108.29,1373.77ZM1980.46,1320.07C1980.46,1320.07 1828.94,1320.07 1750.14,1320.07C1724.51,1320.07 1703.73,1334.91 1703.73,1353.21C1703.73,1427.77 1703.73,1607.97 1703.73,1682.52C1703.73,1700.83 1724.51,1715.67 1750.14,1715.67C1826.43,1715.67 1977.49,1715.67 2053.78,1715.67C2066.09,1715.67 2077.9,1712.18 2086.6,1705.96C2095.3,1699.75 2100.2,1691.32 2100.2,1682.52C2100.2,1602.37 2100.2,1404.62 2100.2,1404.62L2026.87,1404.62C2001.24,1404.62 1980.46,1389.78 1980.46,1371.47L1980.46,1320.07ZM2002.45,1320.07L2002.1,1320.07C2002.1,1320.07 2002.1,1338.28 2002.1,1356.01C2002.1,1374.32 2022.88,1389.16 2048.51,1389.16C2073.47,1389.16 2099.19,1389.16 2099.19,1389.16L2002.45,1320.07Z" style="fill:rgb(86,107,141);"/>
            </g>
            <g transform="matrix(1,0,0,1,0,10.0235)">
                <g transform="matrix(0.180334,0,0,0.252479,-92.9875,-30.4509)">
                    <path d="M2104.65,1371.17C2115.66,1379.05 2121.84,1389.73 2121.84,1400.86C2121.84,1453.56 2121.84,1612.55 2121.84,1689.08C2121.84,1700.23 2115.63,1710.93 2104.59,1718.81C2093.55,1726.7 2078.58,1731.13 2062.96,1731.13C1978.83,1731.13 1825.1,1731.13 1740.96,1731.13C1708.45,1731.13 1682.09,1712.3 1682.09,1689.08C1682.09,1607.43 1682.09,1428.31 1682.09,1346.66C1682.09,1323.43 1708.45,1304.61 1740.96,1304.61L1987.27,1304.61C2002.91,1304.61 2017.91,1309.05 2028.96,1316.96C2049.62,1331.76 2084.01,1356.39 2104.65,1371.17ZM1980.46,1320.07C1980.46,1320.07 1843.86,1320.07 1762.6,1320.07C1746.99,1320.07 1732.01,1324.5 1720.97,1332.38C1709.93,1340.27 1703.73,1350.96 1703.73,1362.12C1703.73,1438.14 1703.73,1597.6 1703.73,1673.62C1703.73,1684.78 1709.93,1695.47 1720.97,1703.36C1732.01,1711.24 1746.99,1715.67 1762.6,1715.67C1837.57,1715.67 1966.35,1715.67 2041.32,1715.67C2056.93,1715.67 2071.91,1711.24 2082.95,1703.36C2093.99,1695.47 2100.2,1684.78 2100.2,1673.62C2100.2,1588.67 2100.2,1404.62 2100.2,1404.62L2039.34,1404.62C2006.82,1404.62 1980.46,1385.79 1980.46,1362.57C1980.46,1341.35 1980.46,1320.07 1980.46,1320.07ZM2002.45,1320.07L2002.1,1320.07C2002.1,1320.07 2002.1,1332.67 2002.1,1347.11C2002.1,1370.33 2028.46,1389.16 2060.98,1389.16C2081.36,1389.16 2099.19,1389.16 2099.19,1389.16L2002.45,1320.07Z" style="fill:rgb(86,107,141);"/>
                </g>
                <g transform="matrix(0.180334,0,0,0.252479,-213.923,-30.4509)">
                    <path d="M2104.65,1371.17C2115.66,1379.05 2121.84,1389.73 2121.84,1400.86C2121.84,1453.56 2121.84,1612.55 2121.84,1689.08C2121.84,1700.23 2115.63,1710.93 2104.59,1718.81C2093.55,1726.7 2078.58,1731.13 2062.96,1731.13C1978.83,1731.13 1825.1,1731.13 1740.96,1731.13C1708.45,1731.13 1682.09,1712.3 1682.09,1689.08C1682.09,1607.43 1682.09,1428.31 1682.09,1346.66C1682.09,1323.43 1708.45,1304.61 1740.96,1304.61C1814.13,1304.61 1935.63,1304.61 1987.27,1304.61C2002.91,1304.61 2017.91,1309.05 2028.96,1316.96C2049.62,1331.76 2084.01,1356.39 2104.65,1371.17ZM1980.46,1320.07C1980.46,1320.07 1843.86,1320.07 1762.6,1320.07C1746.99,1320.07 1732.01,1324.5 1720.97,1332.38C1709.93,1340.27 1703.73,1350.96 1703.73,1362.12C1703.73,1438.14 1703.73,1597.6 1703.73,1673.62C1703.73,1684.78 1709.93,1695.47 1720.97,1703.36C1732.01,1711.24 1746.99,1715.67 1762.6,1715.67C1837.57,1715.67 1966.35,1715.67 2041.32,1715.67C2056.93,1715.67 2071.91,1711.24 2082.95,1703.36C2093.99,1695.47 2100.2,1684.78 2100.2,1673.62C2100.2,1588.67 2100.2,1404.62 2100.2,1404.62L2039.34,1404.62C2006.82,1404.62 1980.46,1385.79 1980.46,1362.57C1980.46,1341.35 1980.46,1320.07 1980.46,1320.07ZM2002.45,1320.07L2002.1,1320.07C2002.1,1320.07 2002.1,1332.67 2002.1,1347.11C2002.1,1370.33 2028.46,1389.16 2060.98,1389.16C2081.36,1389.16 2099.19,1389.16 2099.19,1389.16L2002.45,1320.07Z" style="fill:rgb(86,107,141);"/>
                </g>
                <g transform="matrix(0.180334,0,0,0.252479,27.9479,-30.4509)">
                    <path d="M2104.65,1371.17C2115.66,1379.05 2121.84,1389.73 2121.84,1400.86C2121.84,1453.56 2121.84,1612.55 2121.84,1689.08C2121.84,1700.23 2115.63,1710.93 2104.59,1718.81C2093.55,1726.7 2078.58,1731.13 2062.96,1731.13C1978.83,1731.13 1825.1,1731.13 1740.96,1731.13C1708.45,1731.13 1682.09,1712.3 1682.09,1689.08C1682.09,1607.43 1682.09,1428.31 1682.09,1346.66C1682.09,1323.43 1708.45,1304.61 1740.96,1304.61C1814.13,1304.61 1935.63,1304.61 1987.27,1304.61C2002.91,1304.61 2017.91,1309.05 2028.96,1316.96C2049.62,1331.76 2084.01,1356.39 2104.65,1371.17ZM1980.46,1320.07C1980.46,1320.07 1843.86,1320.07 1762.6,1320.07C1746.99,1320.07 1732.01,1324.5 1720.97,1332.38C1709.93,1340.27 1703.73,1350.96 1703.73,1362.12C1703.73,1438.14 1703.73,1597.6 1703.73,1673.62C1703.73,1684.78 1709.93,1695.47 1720.97,1703.36C1732.01,1711.24 1746.99,1715.67 1762.6,1715.67C1837.57,1715.67 1966.35,1715.67 2041.32,1715.67C2056.93,1715.67 2071.91,1711.24 2082.95,1703.36C2093.99,1695.47 2100.2,1684.78 2100.2,1673.62C2100.2,1588.67 2100.2,1404.62 2100.2,1404.62L2039.34,1404.62C2006.82,1404.62 1980.46,1385.79 1980.46,1362.57C1980.46,1341.35 1980.46,1320.07 1980.46,1320.07ZM2002.45,1320.07L2002.1,1320.07C2002.1,1320.07 2002.1,1332.67 2002.1,1347.11C2002.1,1370.33 2028.46,1389.16 2060.98,1389.16C2081.36,1389.16 2099.19,1389.16 2099.19,1389.16L2002.45,1320.07Z" style="fill:rgb(86,107,141);"/>
                </g>
            </g>
            <g transform="matrix(1,0,0,1,0,-1.75969)">
                <g transform="matrix(1.00001,-0.00295323,-0.00295323,1.73845,-3868.17,-164.613)">
                    <path d="M4118.89,238.027L4118.77,266.354" style="fill:none;stroke:rgb(86,107,141);stroke-width:11.81px;"/>
                </g>
                <g transform="matrix(1,0,0,1,-3868.83,-1.00629)">
                    <path d="M4118.77,266.354L3997.89,266.354L3997.89,287.272" style="fill:none;stroke:rgb(86,107,141);stroke-width:16.72px;"/>
                </g>
                <g transform="matrix(-1,0,0,1,4368.72,-1.00629)">
                    <path d="M4118.77,266.354L3997.89,266.354L3997.89,287.272" style="fill:none;stroke:rgb(86,107,141);stroke-width:16.72px;"/>
                </g>
            </g>
        </g>
    </g>
</svg>
