<?xml version="1.0" encoding="UTF-8" standalone="no"?><!DOCTYPE svg PUBLIC "-//W3C//DTD SVG 1.1//EN" "http://www.w3.org/Graphics/SVG/1.1/DTD/svg11.dtd"><svg width="100%" height="100%" viewBox="0 0 2084 2084" version="1.1" xmlns="http://www.w3.org/2000/svg" xmlns:xlink="http://www.w3.org/1999/xlink" xml:space="preserve" xmlns:serif="http://www.serif.com/" style="fill-rule:evenodd;clip-rule:evenodd;stroke-linejoin:round;stroke-miterlimit:2;"><rect id="team-page" x="0" y="-0" width="2083.333" height="2083.333" style="fill:none;"/><clipPath id="_clip1"><rect x="0" y="-0" width="2083.333" height="2083.333"/></clipPath><g clip-path="url(#_clip1)"><g id="Team"><path d="M658.308,2033.546c18.177,-147.085 73.444,-274.563 150.079,-359.769c37.729,-41.95 80.649,-73.778 126.966,-93.178c-116.581,-43.243 -199.752,-155.518 -199.752,-287.067c0,-168.922 137.143,-306.066 306.066,-306.066c168.922,0 306.066,137.143 306.066,306.066c-0,131.548 -83.171,243.824 -199.752,287.067c46.317,19.401 89.236,51.229 126.966,93.178c76.635,85.207 131.902,212.684 150.079,359.769l-41.012,0c-17.575,-135.825 -68.34,-253.593 -139.343,-332.539c-56.991,-63.365 -126.985,-101.41 -203.003,-101.41c-76.018,0 -146.012,38.045 -203.003,101.41c-71.003,78.946 -121.768,196.714 -139.343,332.539l-41.012,0Zm383.358,-474.67c146.448,0 265.344,-118.897 265.344,-265.344c0,-146.448 -118.897,-265.344 -265.344,-265.344c-146.448,0 -265.344,118.897 -265.344,265.344c0,146.448 118.897,265.344 265.344,265.344Z" style="fill:#566b8d;"/><path d="M1757.057,1608.414c-22.047,-49.904 -66.301,-109.71 -98.235,-145.216c-54.321,-60.398 -121.037,-96.66 -193.495,-96.66c-39.608,0 -66.519,10.836 -101.609,30.526c9.112,-28.07 14.502,-57.81 15.589,-88.638c29.877,12.433 51.663,19.298 86.02,19.298c139.588,0 252.916,-113.328 252.916,-252.916c0,-139.588 -113.328,-252.916 -252.916,-252.916c-121.681,0 -221.469,77.073 -245.567,191.632c-11.317,-7.207 -23.109,-13.732 -35.318,-19.519c32.01,-126.36 144.633,-210.927 280.885,-210.927c161.01,0 291.73,130.72 291.73,291.73c-0,125.387 -79.275,232.404 -190.395,273.621c44.148,18.492 85.057,48.829 121.019,88.814c19.063,21.195 53.354,61.196 69.377,87.496l0,83.676Z" style="fill:#566b8d;"/><path d="M326.276,1608.414c22.047,-49.904 66.301,-109.71 98.235,-145.216c54.321,-60.398 121.037,-96.66 193.495,-96.66c39.608,0 67.165,12.127 102.255,31.818c-9.112,-28.07 -14.502,-57.81 -15.589,-88.638c-29.877,12.433 -52.309,18.006 -86.665,18.006c-139.588,0 -252.916,-113.328 -252.916,-252.916c0,-139.588 113.328,-252.916 252.916,-252.916c121.681,0 220.823,73.397 244.921,187.955c11.317,-7.207 23.109,-13.732 35.318,-19.519c-32.01,-126.36 -143.987,-207.25 -280.239,-207.25c-161.01,0 -291.73,130.72 -291.73,291.73c0,125.387 79.275,232.404 190.395,273.621c-44.148,18.492 -85.057,48.829 -121.019,88.814c-19.063,21.195 -53.354,61.196 -69.377,87.496l-0,83.676Z" style="fill:#566b8d;"/><rect x="1096.307" y="1744.738" width="161.791" height="67.614" style="fill:#566b8d;"/><rect x="1486.095" y="1524.738" width="161.791" height="67.614" style="fill:#566b8d;"/><rect x="612.261" y="1535.998" width="161.791" height="67.614" style="fill:#566b8d;"/></g><g id="page"><path d="M1796.35,371.135c8.271,8.293 12.916,19.527 12.916,31.24c0,164.411 0,1387.535 0,1636.72c0,11.733 -4.661,22.985 -12.957,31.281c-8.296,8.296 -19.548,12.957 -31.281,12.957l-1446.723,0c-11.733,-0 -22.985,-4.661 -31.281,-12.957c-8.296,-8.296 -12.957,-19.548 -12.957,-31.281c-0,-272.779 -0,-1723.487 -0,-1996.265c-0,-11.733 4.661,-22.985 12.957,-31.281c8.296,-8.296 19.548,-12.957 31.281,-12.957c193.261,0 959.525,-0 1088.117,-0c11.753,0 23.022,4.677 31.322,12.998c58.779,58.933 299.926,300.711 358.606,359.545Zm-480.642,-296.991c0,0 -732.513,-0 -921.851,-0c-11.733,0 -22.985,4.661 -31.281,12.957c-8.296,8.296 -12.957,19.548 -12.957,31.281c-0,259.863 -0,1585.297 -0,1845.161c-0,11.733 4.661,22.985 12.957,31.281c8.296,8.296 19.548,12.957 31.281,12.957c208.033,0 1087.585,0 1295.618,0c24.432,-0 44.238,-19.806 44.238,-44.238c0,-250.136 0,-1476.131 0,-1476.131c0,0 -266.253,0 -373.767,0c-24.432,0 -44.238,-19.806 -44.238,-44.238c-0,-106.619 -0,-369.03 -0,-369.03Zm76.77,0l-1.217,-0c0,0 0,201.894 0,293.477c0,24.432 19.806,44.238 44.238,44.238c91.838,-0 294.695,-0 294.695,-0l-337.715,-337.715Z" style="fill:#566b8d;"/></g></g></svg>