<?xml version="1.0" encoding="UTF-8" standalone="no"?>
<!DOCTYPE svg PUBLIC "-//W3C//DTD SVG 1.1//EN" "http://www.w3.org/Graphics/SVG/1.1/DTD/svg11.dtd">
<svg width="100%" height="100%" viewBox="0 0 500 500" version="1.1" xmlns="http://www.w3.org/2000/svg" xmlns:xlink="http://www.w3.org/1999/xlink" xml:space="preserve" xmlns:serif="http://www.serif.com/" style="fill-rule:evenodd;clip-rule:evenodd;stroke-linejoin:round;stroke-miterlimit:2;">
    <g transform="matrix(1,0,0,1,-1664.07,-2400.92)">
        <g id="team-admin" transform="matrix(1,0,0,1,1114.07,2400.92)">
            <rect x="550" y="0" width="500" height="500" style="fill:none;"/>
            <clipPath id="_clip1">
                <rect x="550" y="0" width="500" height="500"/>
            </clipPath>
            <g clip-path="url(#_clip1)">
                <g transform="matrix(1.27256,0,0,1.27256,-195.371,-62.576)">
                    <path d="M676.905,453.216C681.897,412.825 697.074,377.818 718.119,354.42C728.48,342.9 740.266,334.159 752.985,328.832C720.97,316.957 698.131,286.125 698.131,250C698.131,203.612 735.792,165.951 782.18,165.951C828.568,165.951 866.229,203.612 866.229,250C866.229,286.125 843.389,316.957 811.375,328.832C824.094,334.159 835.88,342.9 846.241,354.42C867.286,377.818 882.463,412.825 887.454,453.216L876.192,453.216C871.366,415.917 857.425,383.577 837.927,361.898C822.277,344.497 803.055,334.049 782.18,334.049C761.304,334.049 742.083,344.497 726.433,361.898C706.935,383.577 692.994,415.917 688.168,453.216L676.905,453.216ZM782.18,322.867C822.396,322.867 855.047,290.216 855.047,250C855.047,209.784 822.396,177.133 782.18,177.133C741.964,177.133 709.313,209.784 709.313,250C709.313,290.216 741.964,322.867 782.18,322.867Z" style="fill:rgb(86,107,141);"/>
                </g>
                <g transform="matrix(1.21296,0,0,1.21296,-0.697172,-124.11)">
                    <path d="M866.229,403.735C859.877,389.358 847.127,372.127 837.927,361.898C822.277,344.497 803.055,334.049 782.18,334.049C770.769,334.049 763.015,337.171 752.906,342.844C755.531,334.757 757.084,326.188 757.397,317.307C766.005,320.889 772.281,322.867 782.18,322.867C822.396,322.867 855.047,290.216 855.047,250C855.047,209.784 822.396,177.133 782.18,177.133C747.123,177.133 718.373,199.339 711.431,232.344C708.17,230.267 704.773,228.387 701.255,226.72C710.478,190.315 742.925,165.951 782.18,165.951C828.568,165.951 866.229,203.612 866.229,250C866.229,286.125 843.389,316.957 811.375,328.832C824.094,334.159 835.88,342.9 846.241,354.42C851.733,360.526 861.613,372.051 866.229,379.628L866.229,403.735Z" style="fill:rgb(86,107,141);"/>
                </g>
                <g transform="matrix(-1.21296,0,0,1.21296,1600.7,-124.11)">
                    <path d="M866.229,403.735C859.877,389.358 847.127,372.127 837.927,361.898C822.277,344.497 803.055,334.049 782.18,334.049C770.769,334.049 762.829,337.543 752.72,343.216C755.345,335.129 756.898,326.56 757.211,317.679C765.819,321.261 772.281,322.867 782.18,322.867C822.396,322.867 855.047,290.216 855.047,250C855.047,209.784 822.396,177.133 782.18,177.133C747.123,177.133 718.559,198.279 711.617,231.284C708.356,229.208 704.959,227.328 701.441,225.661C710.664,189.256 742.925,165.951 782.18,165.951C828.568,165.951 866.229,203.612 866.229,250C866.229,286.125 843.389,316.957 811.375,328.832C824.094,334.159 835.88,342.9 846.241,354.42C851.733,360.526 861.613,372.051 866.229,379.628L866.229,403.735Z" style="fill:rgb(86,107,141);"/>
                </g>
                <g transform="matrix(1.27256,0,0,1.27256,-218.048,-68.1401)">
                    <rect x="815.005" y="378.279" width="44.43" height="18.568" style="fill:rgb(86,107,141);"/>
                </g>
                <g transform="matrix(1.27256,0,0,1.27256,-81.8334,-145.021)">
                    <rect x="815.005" y="378.279" width="44.43" height="18.568" style="fill:rgb(86,107,141);"/>
                </g>
                <g transform="matrix(1.27256,0,0,1.27256,-387.203,-141.086)">
                    <rect x="815.005" y="378.279" width="44.43" height="18.568" style="fill:rgb(86,107,141);"/>
                </g>
            </g>
        </g>
    </g>
</svg>
