<?xml version="1.0" encoding="UTF-8" standalone="no"?><!DOCTYPE svg PUBLIC "-//W3C//DTD SVG 1.1//EN" "http://www.w3.org/Graphics/SVG/1.1/DTD/svg11.dtd"><svg width="100%" height="100%" viewBox="0 0 2084 2084" version="1.1" xmlns="http://www.w3.org/2000/svg" xmlns:xlink="http://www.w3.org/1999/xlink" xml:space="preserve" xmlns:serif="http://www.serif.com/" style="fill-rule:evenodd;clip-rule:evenodd;stroke-linejoin:round;stroke-miterlimit:2;"><rect id="Accordeon" x="0" y="0" width="2083.33" height="2083.33" style="fill:none;"/><g><path d="M1715.38,223.305c79.142,0 143.705,64.563 143.705,143.705l-0,1347.9c-0,79.142 -64.563,143.705 -143.705,143.705l-1347.9,-0c-79.142,-0 -143.705,-64.563 -143.705,-143.705l0,-1347.9c0,-79.142 64.563,-143.705 143.705,-143.705l1347.9,0m0,-70.811l-1347.9,0c-118.713,0 -214.515,96.22 -214.515,214.516l-0,1347.9c-0,118.713 96.219,214.516 214.515,214.516l1347.9,0c118.713,0 214.517,-96.219 214.517,-214.516l-0,-1347.9c-0,-118.713 -95.804,-214.516 -214.517,-214.516Z" style="fill:#566b8d;fill-rule:nonzero;"/><g><rect x="353.064" y="729.846" width="1084.08" height="77.365" style="fill:#566b8d;"/><path d="M1437.15,729.846l0,368.256l-1084.08,-0l-0,-368.256l1084.08,0Zm-46.594,46.594l-990.896,-0l0,275.068l990.896,-0l0,-275.068Z" style="fill:#566b8d;"/><path d="M1643.79,830.114l-86.481,-123.17l172.962,-0l-86.481,123.17Z" style="fill:#566b8d;"/></g><g><rect x="353.064" y="1251.23" width="1084.08" height="77.365" style="fill:#566b8d;"/><path d="M1705.37,1289.91l-123.17,86.481l0,-172.961l123.17,86.48Z" style="fill:#566b8d;"/></g><g><rect x="353.064" y="476.455" width="1084.08" height="77.365" style="fill:#566b8d;"/><path d="M1705.37,515.137l-123.17,86.481l0,-172.962l123.17,86.481Z" style="fill:#566b8d;"/></g><g><rect x="353.064" y="1529.51" width="1084.08" height="77.365" style="fill:#566b8d;"/><path d="M1705.37,1568.2l-123.17,86.481l0,-172.962l123.17,86.481Z" style="fill:#566b8d;"/></g></g></svg>