<svg xmlns="http://www.w3.org/2000/svg" xml:space="preserve" style="fill-rule:evenodd;clip-rule:evenodd;stroke-linejoin:round;stroke-miterlimit:2" viewBox="0 0 2084 2084"><path d="M0 0h2083.33v2083.33H0z" style="fill:none"/><path d="M1715.38 223.305c79.142 0 143.705 64.563 143.705 143.705v1347.9c0 79.142-64.563 143.705-143.705 143.705H367.48c-79.142 0-143.705-64.563-143.705-143.705V367.01c0-79.142 64.563-143.705 143.705-143.705zm0-70.811H367.48c-118.713 0-214.515 96.22-214.515 214.516v1347.9c0 118.713 96.219 214.516 214.515 214.516h1347.9c118.713 0 214.517-96.219 214.517-214.516V367.01c0-118.713-95.804-214.516-214.517-214.516" style="fill:#566b8d;fill-rule:nonzero"/><path d="M353.064 729.846h1084.08v77.365H353.064z" style="fill:#566b8d"/><path d="M1437.15 729.846v368.256H353.07V729.846zm-46.594 46.594H399.66v275.068h990.896zM1643.79 830.114l-86.481-123.17h172.962zM353.064 1251.23h1084.08v77.365H353.064zM1705.37 1289.91l-123.17 86.481V1203.43zM353.064 476.455h1084.08v77.365H353.064zM1705.37 515.137l-123.17 86.481V428.656zM353.064 1529.51h1084.08v77.365H353.064zM1705.37 1568.2l-123.17 86.481v-172.962z" style="fill:#566b8d"/></svg>
