<svg xmlns="http://www.w3.org/2000/svg" xml:space="preserve" style="fill-rule:evenodd;clip-rule:evenodd;stroke-linejoin:round;stroke-miterlimit:2" viewBox="0 0 500 500"><path d="M0 0h500v500H0z" style="fill:none"/><path d="M1715.83 223.75c79.17 0 143.75 64.583 143.75 143.75v1348.33c0 79.17-64.58 143.75-143.75 143.75H367.5c-79.167 0-143.75-64.58-143.75-143.75V367.5c0-79.167 64.583-143.75 143.75-143.75zm0-70.833H367.5c-118.75 0-214.583 96.25-214.583 214.583v1348.33c0 118.75 96.25 214.58 214.583 214.58h1348.33c118.75 0 214.58-96.25 214.58-214.58V367.5c0-118.75-95.83-214.583-214.58-214.583" style="fill:#566b8d;fill-rule:nonzero" transform="translate(.023 -.09)scale(.23992)"/><path d="M4685.93 101.674c82.12 0 148.79 66.673 148.79 148.795 0 82.123-66.67 148.796-148.79 148.796-82.13 0-148.8-66.673-148.8-148.796s66.67-148.795 148.8-148.795m18.22 268.292a120.9 120.9 0 0 0 79.16-47.921l-42.66-64.319zm-100.24-30.696a120.93 120.93 0 0 0 86.85 31.961l23.64-73.471zm186.51-28.039a120.92 120.92 0 0 0 12.34-91.71l-76.86-7.118zm-225.06-69.502a120.96 120.96 0 0 0 29.17 87.82l72.18-27.332zm232.19-37.64a120.9 120.9 0 0 0-65.52-65.341l-52.2 56.858zm-75.9-69.099a120.91 120.91 0 0 0-92.14 8.594l10.34 76.487zm-103.85 15.629a120.91 120.91 0 0 0-50.64 77.452l66.29 39.531z" style="fill:#566b8d" transform="translate(-4435.98 -.638)"/></svg>
