<?xml version="1.0" encoding="UTF-8" standalone="no"?>
<!DOCTYPE svg PUBLIC "-//W3C//DTD SVG 1.1//EN" "http://www.w3.org/Graphics/SVG/1.1/DTD/svg11.dtd">
<svg width="100%" height="100%" viewBox="0 0 500 500" version="1.1" xmlns="http://www.w3.org/2000/svg" xmlns:xlink="http://www.w3.org/1999/xlink" xml:space="preserve" xmlns:serif="http://www.serif.com/" style="fill-rule:evenodd;clip-rule:evenodd;stroke-linejoin:round;stroke-miterlimit:2;">
    <g transform="matrix(1,0,0,1,-4435.98,-632.637)">
        <g id="box" transform="matrix(1,0,0,1,4435.98,632.637)">
            <rect x="0" y="0" width="500" height="500" style="fill:none;"/>
            <g>
                <g transform="matrix(0.239924,0,0,0.239924,0.0225514,-0.0898274)">
                    <path d="M1715.83,223.75C1795,223.75 1859.58,288.333 1859.58,367.5L1859.58,1715.83C1859.58,1795 1795,1859.58 1715.83,1859.58L367.5,1859.58C288.333,1859.58 223.75,1795 223.75,1715.83L223.75,367.5C223.75,288.333 288.333,223.75 367.5,223.75L1715.83,223.75M1715.83,152.917L367.5,152.917C248.75,152.917 152.917,249.167 152.917,367.5L152.917,1715.83C152.917,1834.58 249.167,1930.41 367.5,1930.41L1715.83,1930.41C1834.58,1930.41 1930.41,1834.16 1930.41,1715.83L1930.41,367.5C1930.41,248.75 1834.58,152.917 1715.83,152.917Z" style="fill:rgb(86,107,141);fill-rule:nonzero;"/>
                </g>
                <g transform="matrix(1,0,0,1.35081,-4442.01,-1041.72)">
                    <path d="M4725.95,891.999L4834.68,891.999L4834.68,1056.71L4549.23,1056.71L4549.23,891.999L4657.96,891.999L4657.96,959.549L4691.95,944.743L4725.95,959.549L4725.95,891.999ZM4658.02,1015.92L4579.23,1015.92L4579.23,1034.5L4658.02,1034.5L4658.02,1015.92Z" style="fill:rgb(86,107,141);"/>
                </g>
                <g transform="matrix(1,0,0,0.290323,-4442.01,-144.994)">
                    <path d="M4769.31,891.999L4834.68,1027.1L4549.23,1027.1L4614.6,891.999L4769.31,891.999Z" style="fill:rgb(86,107,141);"/>
                </g>
                <g transform="matrix(1.28339,0,0,1,-5764.03,-632.637)">
                    <rect x="4655.96" y="795.833" width="60.513" height="6.656" style="fill:rgb(86,107,141);"/>
                </g>
            </g>
        </g>
    </g>
</svg>
