<svg xmlns="http://www.w3.org/2000/svg" xml:space="preserve" style="fill-rule:evenodd;clip-rule:evenodd;stroke-linejoin:round;stroke-miterlimit:2" viewBox="0 0 500 500"><path d="M0 0h500v500H0z" style="fill:none"/><path d="M1715.83 223.75c79.17 0 143.75 64.583 143.75 143.75v1348.33c0 79.17-64.58 143.75-143.75 143.75H367.5c-79.167 0-143.75-64.58-143.75-143.75V367.5c0-79.167 64.583-143.75 143.75-143.75zm0-70.833H367.5c-118.75 0-214.583 96.25-214.583 214.583v1348.33c0 118.75 96.25 214.58 214.583 214.58h1348.33c118.75 0 214.58-96.25 214.58-214.58V367.5c0-118.75-95.83-214.583-214.58-214.583" style="fill:#566b8d;fill-rule:nonzero" transform="translate(.023 -.09)scale(.23992)"/><path d="M4725.95 891.999h108.73v164.711h-285.45V891.999h108.73v67.55l33.99-14.806 34 14.806zm-67.93 123.921h-78.79v18.58h78.79z" style="fill:#566b8d" transform="matrix(1 0 0 1.35081 -4442.01 -1041.72)"/><path d="m4769.31 891.999 65.37 135.101h-285.45l65.37-135.101z" style="fill:#566b8d" transform="matrix(1 0 0 .29032 -4442.01 -144.994)"/><path d="M4655.96 795.833h60.513v6.656h-60.513z" style="fill:#566b8d" transform="matrix(1.28339 0 0 1 -5764.03 -632.637)"/></svg>
