<svg xmlns="http://www.w3.org/2000/svg" xml:space="preserve" style="fill-rule:evenodd;clip-rule:evenodd;stroke-linejoin:round;stroke-miterlimit:2" viewBox="0 0 2084 2084"><path d="M0 0h2083.33v2083.33H0z" style="fill:none"/><path d="M1715.38 223.305c79.142 0 143.705 64.563 143.705 143.705v1347.9c0 79.142-64.563 143.705-143.705 143.705H367.48c-79.142 0-143.705-64.563-143.705-143.705V367.01c0-79.142 64.563-143.705 143.705-143.705zm0-70.811H367.48c-118.713 0-214.515 96.22-214.515 214.516v1347.9c0 118.713 96.219 214.516 214.515 214.516h1347.9c118.713 0 214.517-96.219 214.517-214.516V367.01c0-118.713-95.804-214.516-214.517-214.516" style="fill:#566b8d;fill-rule:nonzero"/><path d="M425.706 1579.95c-28.247 0-51.176-22.84-51.286-51.087l-3.79-973.023a52.26 52.26 0 0 1 52.257-52.46h1233.77c28.781 0 52.144 23.272 52.256 52.053l3.79 973.031a51.288 51.288 0 0 1-51.286 51.486zm-12.405-89.969c0 28.324 22.962 51.286 51.287 51.286H807.82v-207.909H413.301zm1209.63 51.286c28.325 0 51.286-22.962 51.286-51.286v-156.623h-394.518v207.909zm51.286-701.093h-394.518v207.91h394.518zm-1260.92 246.592v207.909h394.519v-207.909zm1257.63-491.817c-.501-28.499-23.746-51.34-52.25-51.34H462.287a52.257 52.257 0 0 0-52.249 53.174l3.259 185.622h1260.92zm-824.428 946.318h394.518v-207.909H846.499zm827.719-246.592v-207.909H1279.7v207.909zm-433.201-454.501H846.499v207.91h394.518zm0 246.592H846.499v207.909h394.518zm-433.2-246.592H413.298v207.91h394.519z" style="fill:#566b8d"/><path d="M600.109 826.368h43.607v727.906h-43.607zM1019.86 826.368h43.607v727.906h-43.607zM1347.81 1123.87l70.443 122.01-18.883 10.902-70.442-122.01z" style="fill:#566b8d"/><path d="m1399.37 1123.87 18.883 10.902-70.443 122.01-18.882-10.902zM1464.32 826.368h43.607v727.906h-43.607zM521.727 571.301h88.053v190.782h-88.053zM635.406 571.301h88.053v190.782h-88.053zM827.122 571.301h88.053v190.782h-88.053zM1132.52 571.301h88.053v190.782h-88.053zM1359.87 571.301h88.053v190.782h-88.053zM940.801 571.301h88.053v190.782h-88.053zM1246.2 571.301h88.053v190.782H1246.2zM1473.55 571.301h88.053v190.782h-88.053zM749.084 712.202h52.413v49.881h-52.413zM1054.48 712.202h52.413v49.881h-52.413zM400.293 826.368H827.98v239.961H400.293z" style="fill:#566b8d"/><path d="M1486.13 1314.31h213.843v239.961H1486.13z" style="fill:#566b8d"/></svg>
