<?xml version="1.0" encoding="UTF-8" standalone="no"?><!DOCTYPE svg PUBLIC "-//W3C//DTD SVG 1.1//EN" "http://www.w3.org/Graphics/SVG/1.1/DTD/svg11.dtd"><svg width="100%" height="100%" viewBox="0 0 2084 2084" version="1.1" xmlns="http://www.w3.org/2000/svg" xmlns:xlink="http://www.w3.org/1999/xlink" xml:space="preserve" xmlns:serif="http://www.serif.com/" style="fill-rule:evenodd;clip-rule:evenodd;stroke-linejoin:round;stroke-miterlimit:2;"><rect id="calendar" x="0" y="0" width="2083.33" height="2083.33" style="fill:none;"/><g><path d="M1715.38,223.305c79.142,0 143.705,64.563 143.705,143.705l-0,1347.9c-0,79.142 -64.563,143.705 -143.705,143.705l-1347.9,-0c-79.142,-0 -143.705,-64.563 -143.705,-143.705l0,-1347.9c0,-79.142 64.563,-143.705 143.705,-143.705l1347.9,0m0,-70.811l-1347.9,0c-118.713,0 -214.515,96.22 -214.515,214.516l-0,1347.9c-0,118.713 96.219,214.516 214.515,214.516l1347.9,0c118.713,0 214.517,-96.219 214.517,-214.516l-0,-1347.9c-0,-118.713 -95.804,-214.516 -214.517,-214.516Z" style="fill:#566b8d;fill-rule:nonzero;"/><g><g><path d="M425.706,1579.95c-28.247,-0 -51.176,-22.84 -51.286,-51.087c-0.705,-180.899 -3.077,-789.973 -3.79,-973.023c-0.054,-13.894 5.428,-27.238 15.234,-37.083c9.806,-9.844 23.128,-15.377 37.023,-15.377c214.098,-0 1020.42,-0 1233.77,-0c28.781,-0 52.144,23.272 52.256,52.053c0.711,182.418 3.083,791.501 3.79,973.031c0.053,13.636 -5.327,26.732 -14.95,36.394c-9.624,9.661 -22.699,15.092 -36.336,15.092c-212.936,-0 -1023.52,-0 -1235.71,-0Zm-12.405,-89.969c0,28.324 22.962,51.286 51.287,51.286c106.801,0 343.232,0 343.232,0l-0,-207.909l-394.519,-0l0,156.623Zm1209.63,51.286c28.325,0 51.286,-22.962 51.286,-51.286c0,-61.565 0,-156.623 0,-156.623l-394.518,-0l-0,207.909l343.232,0Zm51.286,-701.093l-394.518,0l-0,207.91l394.518,-0l0,-207.91Zm-1260.92,246.592l0,207.909l394.519,0l-0,-207.909l-394.519,0Zm1257.63,-491.817c-0.501,-28.499 -23.746,-51.34 -52.25,-51.34c-203.191,-0 -949.96,-0 -1156.39,-0c-14.018,-0 -27.449,5.632 -37.274,15.631c-9.825,10 -15.221,23.527 -14.975,37.543c1.236,70.368 3.259,185.622 3.259,185.622l1260.92,-0c0,-0 -2.059,-117.277 -3.291,-187.456Zm-824.428,946.318l394.518,0l0,-207.909l-394.518,-0l0,207.909Zm827.719,-246.592l0,-207.909l-394.518,0l-0,207.909l394.518,0Zm-433.201,-454.501l-394.518,0l0,207.91l394.518,-0l0,-207.91Zm0,246.592l-394.518,0l0,207.909l394.518,0l0,-207.909Zm-433.2,-246.592l-394.519,0l0,207.91l394.519,-0l-0,-207.91Z" style="fill:#566b8d;"/></g><rect x="600.109" y="826.368" width="43.607" height="727.906" style="fill:#566b8d;"/><rect x="1019.86" y="826.368" width="43.607" height="727.906" style="fill:#566b8d;"/><g><path d="M1347.81,1123.87l70.443,122.01l-18.883,10.902l-70.442,-122.01l18.882,-10.902Z" style="fill:#566b8d;"/><path d="M1399.37,1123.87l18.883,10.902l-70.443,122.01l-18.882,-10.902l70.442,-122.01Z" style="fill:#566b8d;"/></g><rect x="1464.32" y="826.368" width="43.607" height="727.906" style="fill:#566b8d;"/><rect x="521.727" y="571.301" width="88.053" height="190.782" style="fill:#566b8d;"/><rect x="635.406" y="571.301" width="88.053" height="190.782" style="fill:#566b8d;"/><rect x="827.122" y="571.301" width="88.053" height="190.782" style="fill:#566b8d;"/><rect x="1132.52" y="571.301" width="88.053" height="190.782" style="fill:#566b8d;"/><rect x="1359.87" y="571.301" width="88.053" height="190.782" style="fill:#566b8d;"/><rect x="940.801" y="571.301" width="88.053" height="190.782" style="fill:#566b8d;"/><rect x="1246.2" y="571.301" width="88.053" height="190.782" style="fill:#566b8d;"/><rect x="1473.55" y="571.301" width="88.053" height="190.782" style="fill:#566b8d;"/><rect x="749.084" y="712.202" width="52.413" height="49.881" style="fill:#566b8d;"/><rect x="1054.48" y="712.202" width="52.413" height="49.881" style="fill:#566b8d;"/></g></g><rect x="400.293" y="826.368" width="427.687" height="239.961" style="fill:#566b8d;"/><rect x="1486.13" y="1314.31" width="213.843" height="239.961" style="fill:#566b8d;"/></svg>