<svg xmlns="http://www.w3.org/2000/svg" xml:space="preserve" style="fill-rule:evenodd;clip-rule:evenodd;stroke-linejoin:round;stroke-miterlimit:2" viewBox="0 0 2084 2084"><path d="M0 0h2083.33v2083.33H0z" style="fill:none"/><path d="M1715.38 223.305c79.142 0 143.705 64.563 143.705 143.705v1347.9c0 79.142-64.563 143.705-143.705 143.705H367.48c-79.142 0-143.705-64.563-143.705-143.705V367.01c0-79.142 64.563-143.705 143.705-143.705zm0-70.811H367.48c-118.713 0-214.515 96.22-214.515 214.516v1347.9c0 118.713 96.219 214.516 214.515 214.516h1347.9c118.713 0 214.517-96.219 214.517-214.516V367.01c0-118.713-95.804-214.516-214.517-214.516" style="fill:#566b8d;fill-rule:nonzero"/><path d="M348.939 750.425h1385.46v77.365H348.939zM348.939 608.036h1385.46v77.365H348.939zM348.939 892.815h1385.46v77.365H348.939zM348.939 1035.2h1077.53v77.365H348.939zM1094.23 1294.47v120.549c0 33.266-27.008 60.275-60.274 60.275h-624.74c-33.266 0-60.274-27.009-60.274-60.275V1294.47c0-33.267 27.008-60.275 60.274-60.275h624.74c33.266 0 60.274 27.008 60.274 60.275m-46.593 0c0-7.551-6.131-13.681-13.681-13.681h-624.74c-7.551 0-13.681 6.13-13.681 13.681v120.549c0 7.551 6.13 13.681 13.681 13.681h624.74c7.55 0 13.681-6.13 13.681-13.681z" style="fill:#566b8d"/><path d="m1027.8 1354.75-102.729 51.365v-102.729z" style="fill:#566b8d"/></svg>
