<?xml version="1.0" encoding="UTF-8" standalone="no"?><!DOCTYPE svg PUBLIC "-//W3C//DTD SVG 1.1//EN" "http://www.w3.org/Graphics/SVG/1.1/DTD/svg11.dtd"><svg width="100%" height="100%" viewBox="0 0 2084 2084" version="1.1" xmlns="http://www.w3.org/2000/svg" xmlns:xlink="http://www.w3.org/1999/xlink" xml:space="preserve" xmlns:serif="http://www.serif.com/" style="fill-rule:evenodd;clip-rule:evenodd;stroke-linejoin:round;stroke-miterlimit:2;"><rect id="cards-admin" x="0" y="0" width="2083.33" height="2083.33" style="fill:none;"/><path d="M1248.65,1892.84c-29.789,41.637 -73.28,69.342 -123.17,72.468l-670.785,42.028c-96.851,6.068 -183.747,-83.725 -191.096,-201.012l-69.672,-1111.99c-4.133,-65.969 17.789,-126.45 54.997,-167.825c-0.04,7.408 0.172,14.889 0.645,22.434l69.671,1111.99c10.226,163.211 137.99,281.493 272.764,273.049l656.646,-41.142Zm88.152,-105.837c-23.184,16.233 -49.933,26.289 -78.829,28.099l-670.785,42.028c-96.851,6.068 -183.747,-83.724 -191.096,-201.012l-69.671,-1111.99c-7.349,-117.285 67.659,-217.222 164.511,-223.29l290.329,-18.191l-206.712,1023.81c-33.667,166.745 63.712,319.5 201.404,347.301l560.849,113.237Zm-455.486,-1535.25c23.258,-115.191 121.576,-192.309 216.698,-173.103l658.806,133.015c95.122,19.206 155.817,128.429 132.559,243.62l-220.506,1092.13c-22.915,113.498 -120.155,192.598 -216.698,173.105l-658.805,-133.016c-95.122,-19.205 -155.817,-128.429 -132.559,-243.621l220.505,-1092.13Z" style="fill:#566b8d;"/></svg>