<?xml version="1.0" encoding="UTF-8" standalone="no"?><!DOCTYPE svg PUBLIC "-//W3C//DTD SVG 1.1//EN" "http://www.w3.org/Graphics/SVG/1.1/DTD/svg11.dtd"><svg width="100%" height="100%" viewBox="0 0 2084 2084" version="1.1" xmlns="http://www.w3.org/2000/svg" xmlns:xlink="http://www.w3.org/1999/xlink" xml:space="preserve" xmlns:serif="http://www.serif.com/" style="fill-rule:evenodd;clip-rule:evenodd;stroke-linejoin:round;stroke-miterlimit:2;"><rect id="map-page" x="0" y="0" width="2083.33" height="2083.33" style="fill:none;"/><clipPath id="_clip1"><rect x="0" y="0" width="2083.33" height="2083.33"/></clipPath><g clip-path="url(#_clip1)"><g><path d="M1796.11,371.135c8.271,8.292 12.916,19.527 12.916,31.24c0,164.41 0,1387.54 0,1636.72c0,11.733 -4.66,22.985 -12.957,31.281c-8.296,8.297 -19.548,12.957 -31.281,12.957c-223.172,0 -1223.55,0 -1446.72,0c-11.733,0 -22.985,-4.66 -31.281,-12.957c-8.296,-8.296 -12.957,-19.548 -12.957,-31.281c-0,-272.778 -0,-1723.49 -0,-1996.27c-0,-11.733 4.661,-22.985 12.957,-31.281c8.296,-8.297 19.548,-12.958 31.281,-12.958c193.261,0 959.525,0 1088.12,0c11.753,0 23.023,4.677 31.322,12.998c58.779,58.934 299.926,300.712 358.606,359.546Zm-480.641,-296.991c-0,-0 -732.513,-0 -921.852,-0c-11.732,-0 -22.984,4.661 -31.281,12.957c-8.296,8.296 -12.957,19.548 -12.957,31.281c0,259.863 0,1585.3 0,1845.16c0,11.732 4.661,22.985 12.957,31.281c8.297,8.296 19.549,12.957 31.281,12.957c208.033,-0 1087.59,-0 1295.62,-0c24.432,-0 44.238,-19.806 44.238,-44.238c-0,-250.136 -0,-1476.13 -0,-1476.13c-0,-0 -266.253,-0 -373.767,-0c-24.432,-0 -44.238,-19.807 -44.238,-44.239c-0,-106.619 -0,-369.029 -0,-369.029Zm76.769,-0l-1.217,-0c0,-0 0,201.894 0,293.477c0,24.432 19.806,44.238 44.238,44.238c91.838,0 294.695,0 294.695,0l-337.716,-337.715Z" style="fill:#566b8d;"/><path d="M1175.44,1867.21c-19.173,26.799 -47.165,44.63 -79.276,46.642l-431.738,27.051c-62.337,3.906 -118.266,-53.888 -122.996,-129.378l-44.843,-715.709c-2.66,-42.46 11.45,-81.387 35.398,-108.017c-0.025,4.767 0.111,9.583 0.415,14.439l44.843,715.709c6.582,105.048 88.814,181.178 175.559,175.743l422.638,-26.48Zm56.738,-68.12c-14.922,10.448 -32.139,16.92 -50.737,18.085l-431.738,27.051c-62.337,3.906 -118.266,-53.888 -122.996,-129.378l-44.843,-715.709c-4.729,-75.489 43.548,-139.811 105.885,-143.717l186.865,-11.708l-133.047,658.959c-21.669,107.322 41.007,205.64 129.631,223.534l360.98,72.883Zm-293.165,-988.136c14.969,-74.14 78.25,-123.776 139.473,-111.414l424.028,85.613c61.224,12.361 100.289,82.661 85.32,156.801l-141.925,702.929c-14.749,73.051 -77.335,123.962 -139.473,111.416l-424.028,-85.613c-61.224,-12.362 -100.289,-82.661 -85.32,-156.803l141.925,-702.929Z" style="fill:#566b8d;"/></g></g></svg>