<?xml version="1.0" encoding="UTF-8" standalone="no"?><!DOCTYPE svg PUBLIC "-//W3C//DTD SVG 1.1//EN" "http://www.w3.org/Graphics/SVG/1.1/DTD/svg11.dtd"><svg width="100%" height="100%" viewBox="0 0 2084 2084" version="1.1" xmlns="http://www.w3.org/2000/svg" xmlns:xlink="http://www.w3.org/1999/xlink" xml:space="preserve" xmlns:serif="http://www.serif.com/" style="fill-rule:evenodd;clip-rule:evenodd;stroke-linejoin:round;stroke-miterlimit:2;"><rect id="cards" x="0" y="0" width="2083.33" height="2083.33" style="fill:none;"/><g><path d="M1715.38,223.305c79.142,0 143.705,64.563 143.705,143.705l-0,1347.9c-0,79.142 -64.563,143.705 -143.705,143.705l-1347.9,-0c-79.142,-0 -143.705,-64.563 -143.705,-143.705l0,-1347.9c0,-79.142 64.563,-143.705 143.705,-143.705l1347.9,0m0,-70.811l-1347.9,0c-118.713,0 -214.515,96.22 -214.515,214.516l-0,1347.9c-0,118.713 96.219,214.516 214.515,214.516l1347.9,0c118.713,0 214.517,-96.219 214.517,-214.516l-0,-1347.9c-0,-118.713 -95.804,-214.516 -214.517,-214.516Z" style="fill:#566b8d;fill-rule:nonzero;"/></g><path d="M1188.62,1652.56c-21.38,29.884 -52.594,49.768 -88.4,52.011l-481.427,30.164c-69.512,4.355 -131.877,-60.09 -137.152,-144.268l-50.004,-798.081c-2.966,-47.346 12.767,-90.753 39.472,-120.449c-0.028,5.317 0.123,10.686 0.463,16.101l50.004,798.081c7.339,117.138 99.036,202.03 195.764,195.969l471.28,-29.528Zm63.267,-75.959c-16.639,11.65 -35.837,18.867 -56.576,20.166l-481.427,30.164c-69.511,4.356 -131.877,-60.089 -137.151,-144.267l-50.004,-798.081c-5.274,-84.177 48.56,-155.902 118.071,-160.257l208.371,-13.056l-148.359,734.799c-24.163,119.674 45.727,229.307 144.55,249.26l402.525,81.272Zm-326.905,-1101.86c16.692,-82.673 87.255,-138.021 155.525,-124.237l472.83,95.466c68.27,13.784 111.831,92.174 95.139,174.848l-158.259,783.829c-16.446,81.458 -86.236,138.228 -155.525,124.239l-472.83,-95.467c-68.27,-13.784 -111.831,-92.174 -95.139,-174.849l158.259,-783.829Z" style="fill:#566b8d;"/></svg>