<?xml version="1.0" encoding="UTF-8" standalone="no"?><!DOCTYPE svg PUBLIC "-//W3C//DTD SVG 1.1//EN" "http://www.w3.org/Graphics/SVG/1.1/DTD/svg11.dtd"><svg width="100%" height="100%" viewBox="0 0 2084 2084" version="1.1" xmlns="http://www.w3.org/2000/svg" xmlns:xlink="http://www.w3.org/1999/xlink" xml:space="preserve" xmlns:serif="http://www.serif.com/" style="fill-rule:evenodd;clip-rule:evenodd;stroke-linejoin:round;stroke-miterlimit:2;"><rect id="CitationList" x="0" y="0" width="2083.33" height="2083.33" style="fill:none;"/><g><path d="M1715.38,223.305c79.142,0 143.705,64.563 143.705,143.705l-0,1347.9c-0,79.142 -64.563,143.705 -143.705,143.705l-1347.9,-0c-79.142,-0 -143.705,-64.563 -143.705,-143.705l0,-1347.9c0,-79.142 64.563,-143.705 143.705,-143.705l1347.9,0m0,-70.811l-1347.9,0c-118.713,0 -214.515,96.22 -214.515,214.516l-0,1347.9c-0,118.713 96.219,214.516 214.515,214.516l1347.9,0c118.713,0 214.517,-96.219 214.517,-214.516l-0,-1347.9c-0,-118.713 -95.804,-214.516 -214.517,-214.516Z" style="fill:#566b8d;fill-rule:nonzero;"/><g><path d="M997.116,1110.29l-0,439.013l-697.089,-0l0,-439.013l697.089,0Zm-31.214,41.667l-631.047,0l-0,77.365l631.047,0l-0,-77.365Zm-148.593,119.032l-482.454,-0l-0,77.365l482.454,-0l-0,-77.365Z" style="fill:#566b8d;"/></g><g><path d="M1783.31,1110.29l0,439.013l-697.089,-0l0,-439.013l697.089,0Zm-179.807,160.699l-482.454,-0l-0,77.365l482.454,-0l-0,-77.365Zm148.593,-119.032l-631.047,0l-0,77.365l631.047,0l0,-77.365Z" style="fill:#566b8d;"/></g><g><rect x="300.027" y="694.725" width="1483.28" height="77.365" style="fill:#566b8d;"/><rect x="300.027" y="534.026" width="1483.28" height="77.365" style="fill:#566b8d;"/><rect x="300.027" y="855.423" width="1164.24" height="77.365" style="fill:#566b8d;"/></g></g></svg>