<svg xmlns="http://www.w3.org/2000/svg" xml:space="preserve" style="fill-rule:evenodd;clip-rule:evenodd;stroke-linejoin:round;stroke-miterlimit:2" viewBox="0 0 2084 2084"><path d="M0 0h2083.33v2083.33H0z" style="fill:none"/><path d="M1715.38 223.305c79.142 0 143.705 64.563 143.705 143.705v1347.9c0 79.142-64.563 143.705-143.705 143.705H367.48c-79.142 0-143.705-64.563-143.705-143.705V367.01c0-79.142 64.563-143.705 143.705-143.705zm0-70.811H367.48c-118.713 0-214.515 96.22-214.515 214.516v1347.9c0 118.713 96.219 214.516 214.515 214.516h1347.9c118.713 0 214.517-96.219 214.517-214.516V367.01c0-118.713-95.804-214.516-214.517-214.516" style="fill:#566b8d;fill-rule:nonzero"/><path d="M629.108 1002.28h824.881v77.365H629.108zM629.108 1121.31h630.954v77.365H629.108zM628.872 883.248h824.881v77.365H628.872zM1387.65 422.497h114.178l-72.631 340.674h-165.063zm215.946 0h114.179l-72.632 340.674H1480.08zm-908.393 1236.93H581.025l72.632-340.674h165.062zm-215.946 0H365.079l72.631-340.674h165.063z" style="fill:#566b8d"/></svg>
