<svg xmlns="http://www.w3.org/2000/svg" xml:space="preserve" style="fill-rule:evenodd;clip-rule:evenodd;stroke-linejoin:round;stroke-miterlimit:2" viewBox="0 0 2084 2084"><path d="M0 0h2083.33v2083.33H0z" style="fill:none"/><path d="M1715.38 223.305c79.142 0 143.705 64.563 143.705 143.705v1347.9c0 79.142-64.563 143.705-143.705 143.705H367.48c-79.142 0-143.705-64.563-143.705-143.705V367.01c0-79.142 64.563-143.705 143.705-143.705zm0-70.811H367.48c-118.713 0-214.515 96.22-214.515 214.516v1347.9c0 118.713 96.219 214.516 214.515 214.516h1347.9c118.713 0 214.517-96.219 214.517-214.516V367.01c0-118.713-95.804-214.516-214.517-214.516" style="fill:#566b8d;fill-rule:nonzero"/><path d="M997.116 1110.29v439.013H300.027V1110.29zm-31.214 41.667H334.855v77.365h631.047zm-148.593 119.032H334.855v77.365h482.454zM1783.31 1110.29v439.013h-697.089V1110.29zm-179.807 160.699h-482.454v77.365h482.454zm148.593-119.032h-631.047v77.365h631.047zM300.027 694.725h1483.28v77.365H300.027zM300.027 534.026h1483.28v77.365H300.027zM300.027 855.423h1164.24v77.365H300.027z" style="fill:#566b8d"/></svg>
