<?xml version="1.0" encoding="UTF-8" standalone="no"?><!DOCTYPE svg PUBLIC "-//W3C//DTD SVG 1.1//EN" "http://www.w3.org/Graphics/SVG/1.1/DTD/svg11.dtd"><svg width="100%" height="100%" viewBox="0 0 2084 2084" version="1.1" xmlns="http://www.w3.org/2000/svg" xmlns:xlink="http://www.w3.org/1999/xlink" xml:space="preserve" xmlns:serif="http://www.serif.com/" style="fill-rule:evenodd;clip-rule:evenodd;stroke-linejoin:round;stroke-miterlimit:2;"><rect id="Citation" x="0" y="0" width="2083.33" height="2083.33" style="fill:none;"/><g><path d="M1715.38,223.305c79.142,0 143.705,64.563 143.705,143.705l-0,1347.9c-0,79.142 -64.563,143.705 -143.705,143.705l-1347.9,-0c-79.142,-0 -143.705,-64.563 -143.705,-143.705l0,-1347.9c0,-79.142 64.563,-143.705 143.705,-143.705l1347.9,0m0,-70.811l-1347.9,0c-118.713,0 -214.515,96.22 -214.515,214.516l-0,1347.9c-0,118.713 96.219,214.516 214.515,214.516l1347.9,0c118.713,0 214.517,-96.219 214.517,-214.516l-0,-1347.9c-0,-118.713 -95.804,-214.516 -214.517,-214.516Z" style="fill:#566b8d;fill-rule:nonzero;"/><g><rect x="629.108" y="1002.28" width="824.881" height="77.365" style="fill:#566b8d;"/><rect x="629.108" y="1121.31" width="630.954" height="77.365" style="fill:#566b8d;"/><rect x="628.872" y="883.248" width="824.881" height="77.365" style="fill:#566b8d;"/></g><path d="M1387.65,422.497l114.178,0l-72.631,340.674l-165.063,0l123.516,-340.674Zm215.946,0l114.179,0l-72.632,340.674l-165.063,0l123.516,-340.674Zm-908.393,1236.93l-114.178,-0l72.632,-340.674l165.062,-0l-123.516,340.674Zm-215.946,-0l-114.178,-0l72.631,-340.674l165.063,-0l-123.516,340.674Z" style="fill:#566b8d;"/></g></svg>