<?xml version="1.0" encoding="UTF-8" standalone="no"?><!DOCTYPE svg PUBLIC "-//W3C//DTD SVG 1.1//EN" "http://www.w3.org/Graphics/SVG/1.1/DTD/svg11.dtd"><svg width="100%" height="100%" viewBox="0 0 2084 2084" version="1.1" xmlns="http://www.w3.org/2000/svg" xmlns:xlink="http://www.w3.org/1999/xlink" xml:space="preserve" xmlns:serif="http://www.serif.com/" style="fill-rule:evenodd;clip-rule:evenodd;stroke-linejoin:round;stroke-miterlimit:2;"><rect id="cards-page" x="0" y="0" width="2083.33" height="2083.33" style="fill:none;"/><clipPath id="_clip1"><rect x="0" y="0" width="2083.33" height="2083.33"/></clipPath><g clip-path="url(#_clip1)"><g><path d="M1796.11,371.135c8.271,8.292 12.916,19.527 12.916,31.24c0,164.41 0,1387.54 0,1636.72c0,11.733 -4.66,22.985 -12.957,31.281c-8.296,8.297 -19.548,12.957 -31.281,12.957c-223.172,0 -1223.55,0 -1446.72,0c-11.733,0 -22.985,-4.66 -31.281,-12.957c-8.296,-8.296 -12.957,-19.548 -12.957,-31.281c-0,-272.778 -0,-1723.49 -0,-1996.27c-0,-11.733 4.661,-22.985 12.957,-31.281c8.296,-8.297 19.548,-12.958 31.281,-12.958c193.261,0 959.525,0 1088.12,0c11.753,0 23.023,4.677 31.322,12.998c58.779,58.934 299.926,300.712 358.606,359.546Zm-480.641,-296.991c-0,-0 -732.513,-0 -921.852,-0c-11.732,-0 -22.984,4.661 -31.281,12.957c-8.296,8.296 -12.957,19.548 -12.957,31.281c0,259.863 0,1585.3 0,1845.16c0,11.732 4.661,22.985 12.957,31.281c8.297,8.296 19.549,12.957 31.281,12.957c208.033,-0 1087.59,-0 1295.62,-0c24.432,-0 44.238,-19.806 44.238,-44.238c-0,-250.136 -0,-1476.13 -0,-1476.13c-0,-0 -266.253,-0 -373.767,-0c-24.432,-0 -44.238,-19.807 -44.238,-44.239c-0,-106.619 -0,-369.029 -0,-369.029Zm76.769,-0l-1.217,-0c0,-0 0,201.894 0,293.477c0,24.432 19.806,44.238 44.238,44.238c91.838,0 294.695,0 294.695,0l-337.716,-337.715Z" style="fill:#566b8d;"/><path d="M1023.74,1051.5c3.802,-6.115 10.492,-9.833 17.693,-9.833c7.2,-0 13.891,3.718 17.692,9.833c59.819,96.218 250.803,403.411 250.803,403.411c0,0 210.942,-132.414 304.557,-191.179c7.202,-4.521 16.429,-4.211 23.311,0.783c6.883,4.994 10.04,13.669 7.976,21.918c-35.071,140.192 -132.812,530.908 -153.669,614.279c-2.319,9.273 -10.652,15.778 -20.21,15.778c-110.535,-0 -750.386,-0 -860.921,-0c-9.558,-0 -17.89,-6.505 -20.21,-15.778c-20.856,-83.371 -118.598,-474.087 -153.669,-614.279c-2.063,-8.249 1.094,-16.924 7.976,-21.918c6.882,-4.994 16.109,-5.304 23.311,-0.783c93.615,58.765 304.557,191.179 304.557,191.179c-0,0 190.984,-307.193 250.803,-403.411Z" style="fill:#566b8d;"/></g></g></svg>