<?xml version="1.0" encoding="UTF-8" standalone="no"?><!DOCTYPE svg PUBLIC "-//W3C//DTD SVG 1.1//EN" "http://www.w3.org/Graphics/SVG/1.1/DTD/svg11.dtd"><svg width="100%" height="100%" viewBox="0 0 2084 2084" version="1.1" xmlns="http://www.w3.org/2000/svg" xmlns:xlink="http://www.w3.org/1999/xlink" xml:space="preserve" xmlns:serif="http://www.serif.com/" style="fill-rule:evenodd;clip-rule:evenodd;stroke-linejoin:round;stroke-miterlimit:2;"><rect id="crown-admin" x="0" y="0" width="2083.33" height="2083.33" style="fill:none;"/><path d="M1023.97,362.743c3.802,-6.115 10.492,-9.833 17.693,-9.833c7.2,-0 13.891,3.718 17.692,9.833c79.744,128.266 401.87,646.399 401.87,646.399c0,0 371.193,-233.008 500.586,-314.232c7.202,-4.521 16.429,-4.211 23.312,0.782c6.882,4.994 10.039,13.669 7.975,21.919c-48.347,193.263 -221.08,883.753 -249.419,997.035c-2.32,9.273 -10.652,15.778 -20.211,15.778c-145.285,-0 -1218.33,-0 -1363.61,-0c-9.559,-0 -17.891,-6.505 -20.211,-15.778c-28.339,-113.282 -201.072,-803.772 -249.419,-997.035c-2.064,-8.25 1.093,-16.925 7.976,-21.919c6.882,-4.993 16.109,-5.303 23.311,-0.782c129.393,81.224 500.586,314.232 500.586,314.232c0,0 322.126,-518.133 401.87,-646.399Z" style="fill:#566b8d;"/></svg>