<?xml version="1.0" encoding="UTF-8" standalone="no"?><!DOCTYPE svg PUBLIC "-//W3C//DTD SVG 1.1//EN" "http://www.w3.org/Graphics/SVG/1.1/DTD/svg11.dtd"><svg width="100%" height="100%" viewBox="0 0 2084 2084" version="1.1" xmlns="http://www.w3.org/2000/svg" xmlns:xlink="http://www.w3.org/1999/xlink" xml:space="preserve" xmlns:serif="http://www.serif.com/" style="fill-rule:evenodd;clip-rule:evenodd;stroke-linejoin:round;stroke-miterlimit:2;"><rect id="crown" x="0" y="0" width="2083.33" height="2083.33" style="fill:none;"/><g><path d="M1715.38,223.305c79.142,0 143.705,64.563 143.705,143.705l-0,1347.9c-0,79.142 -64.563,143.705 -143.705,143.705l-1347.9,-0c-79.142,-0 -143.705,-64.563 -143.705,-143.705l0,-1347.9c0,-79.142 64.563,-143.705 143.705,-143.705l1347.9,0m0,-70.811l-1347.9,0c-118.713,0 -214.515,96.22 -214.515,214.516l-0,1347.9c-0,118.713 96.219,214.516 214.515,214.516l1347.9,0c118.713,0 214.517,-96.219 214.517,-214.516l-0,-1347.9c-0,-118.713 -95.804,-214.516 -214.517,-214.516Z" style="fill:#566b8d;fill-rule:nonzero;"/><path d="M1023.97,565.252c3.802,-6.115 10.492,-9.834 17.693,-9.834c7.2,0 13.891,3.719 17.692,9.834c64.063,103.043 280.156,450.624 280.156,450.624c-0,0 241.408,-151.539 342.646,-215.089c7.201,-4.52 16.428,-4.211 23.311,0.783c6.882,4.994 10.039,13.669 7.975,21.918c-37.894,151.478 -149.823,598.909 -172.273,688.65c-2.319,9.272 -10.652,15.777 -20.21,15.777c-117.932,-0 -840.663,-0 -958.594,-0c-9.559,-0 -17.891,-6.505 -20.211,-15.777c-22.449,-89.741 -134.379,-537.172 -172.273,-688.65c-2.064,-8.249 1.093,-16.924 7.976,-21.918c6.882,-4.994 16.109,-5.303 23.311,-0.783c101.237,63.55 342.645,215.089 342.645,215.089c0,0 216.093,-347.581 280.156,-450.624Z" style="fill:#566b8d;"/></g></svg>