<?xml version="1.0" encoding="UTF-8" standalone="no"?><!DOCTYPE svg PUBLIC "-//W3C//DTD SVG 1.1//EN" "http://www.w3.org/Graphics/SVG/1.1/DTD/svg11.dtd"><svg width="100%" height="100%" viewBox="0 0 2084 2084" version="1.1" xmlns="http://www.w3.org/2000/svg" xmlns:xlink="http://www.w3.org/1999/xlink" xml:space="preserve" xmlns:serif="http://www.serif.com/" style="fill-rule:evenodd;clip-rule:evenodd;stroke-linejoin:round;stroke-miterlimit:2;"><rect id="Fullwidth" x="0" y="0" width="2083.33" height="2083.33" style="fill:none;"/><g><path d="M1715.38,223.305c79.142,0 143.705,64.563 143.705,143.705l-0,1347.9c-0,79.142 -64.563,143.705 -143.705,143.705l-1347.9,-0c-79.142,-0 -143.705,-64.563 -143.705,-143.705l0,-1347.9c0,-79.142 64.563,-143.705 143.705,-143.705l1347.9,0m0,-70.811l-1347.9,0c-118.713,0 -214.515,96.22 -214.515,214.516l-0,1347.9c-0,118.713 96.219,214.516 214.515,214.516l1347.9,0c118.713,0 214.517,-96.219 214.517,-214.516l-0,-1347.9c-0,-118.713 -95.804,-214.516 -214.517,-214.516Z" style="fill:#566b8d;fill-rule:nonzero;"/><g><rect x="336.001" y="1371.84" width="1411.73" height="77.365" style="fill:#566b8d;"/><rect x="336.001" y="1490.87" width="1079.84" height="77.365" style="fill:#566b8d;"/><rect x="335.598" y="1252.8" width="1411.73" height="77.365" style="fill:#566b8d;"/></g><g><path d="M937.208,711.558l-195.769,338.942l392.268,0l-196.499,-338.942Z" style="fill:#566b8d;fill-rule:nonzero;"/><path d="M1177.54,817.477l-163.628,233.023l327.986,0l-164.358,-233.023Z" style="fill:#566b8d;fill-rule:nonzero;"/><circle cx="1127.13" cy="661.154" r="50.403" style="fill:#566b8d;"/></g><path d="M1747.33,515.102l-0,631.048l-1411.73,-0l-0,-631.048l1411.73,-0Zm-46.594,46.593l-1318.55,0l0,537.861l1318.55,0l0,-537.861Z" style="fill:#566b8d;"/></g></svg>