<svg xmlns="http://www.w3.org/2000/svg" xml:space="preserve" style="fill-rule:evenodd;clip-rule:evenodd;stroke-linejoin:round;stroke-miterlimit:2" viewBox="0 0 2084 2084"><path d="M0 0h2083.33v2083.33H0z" style="fill:none"/><path d="M1715.38 223.305c79.142 0 143.705 64.563 143.705 143.705v1347.9c0 79.142-64.563 143.705-143.705 143.705H367.48c-79.142 0-143.705-64.563-143.705-143.705V367.01c0-79.142 64.563-143.705 143.705-143.705zm0-70.811H367.48c-118.713 0-214.515 96.22-214.515 214.516v1347.9c0 118.713 96.219 214.516 214.515 214.516h1347.9c118.713 0 214.517-96.219 214.517-214.516V367.01c0-118.713-95.804-214.516-214.517-214.516" style="fill:#566b8d;fill-rule:nonzero"/><path d="M336.001 1371.84h1411.73v77.365H336.001zM336.001 1490.87h1079.84v77.365H336.001zM335.598 1252.8h1411.73v77.365H335.598z" style="fill:#566b8d"/><path d="M937.208 711.558 741.439 1050.5h392.268z" style="fill:#566b8d;fill-rule:nonzero"/><path d="M1177.54 817.477 1013.912 1050.5h327.986z" style="fill:#566b8d;fill-rule:nonzero"/><circle cx="1127.13" cy="661.154" r="50.403" style="fill:#566b8d"/><path d="M1747.33 515.102v631.048H335.6V515.102zm-46.594 46.593H382.186v537.861h1318.55z" style="fill:#566b8d"/></svg>
