<?xml version="1.0" encoding="UTF-8" standalone="no"?><!DOCTYPE svg PUBLIC "-//W3C//DTD SVG 1.1//EN" "http://www.w3.org/Graphics/SVG/1.1/DTD/svg11.dtd"><svg width="100%" height="100%" viewBox="0 0 2084 2084" version="1.1" xmlns="http://www.w3.org/2000/svg" xmlns:xlink="http://www.w3.org/1999/xlink" xml:space="preserve" xmlns:serif="http://www.serif.com/" style="fill-rule:evenodd;clip-rule:evenodd;stroke-linejoin:round;stroke-miterlimit:2;"><rect id="grid" x="0" y="0" width="2083.33" height="2083.33" style="fill:none;"/><g><path d="M1715.38,223.305c79.142,0 143.705,64.563 143.705,143.705l-0,1347.9c-0,79.142 -64.563,143.705 -143.705,143.705l-1347.9,-0c-79.142,-0 -143.705,-64.563 -143.705,-143.705l0,-1347.9c0,-79.142 64.563,-143.705 143.705,-143.705l1347.9,0m0,-70.811l-1347.9,0c-118.713,0 -214.515,96.22 -214.515,214.516l-0,1347.9c-0,118.713 96.219,214.516 214.515,214.516l1347.9,0c118.713,0 214.517,-96.219 214.517,-214.516l-0,-1347.9c-0,-118.713 -95.804,-214.516 -214.517,-214.516Z" style="fill:#566b8d;fill-rule:nonzero;"/></g><g><path d="M1745.13,448.833l0,221.266c0,61.061 -49.573,110.634 -110.633,110.634l-221.267,-0c-61.06,-0 -110.633,-49.573 -110.633,-110.634l-0,-221.266c-0,-61.061 49.573,-110.634 110.633,-110.634l221.267,0c61.06,0 110.633,49.573 110.633,110.634Zm-33.424,-0c-0,-42.613 -34.597,-77.209 -77.209,-77.209l-221.267,-0c-42.613,-0 -77.209,34.596 -77.209,77.209l0,221.266c0,42.613 34.596,77.209 77.209,77.209l221.267,0c42.612,0 77.209,-34.596 77.209,-77.209l-0,-221.266Z" style="fill:#566b8d;"/><path d="M1745.13,931.033l0,221.267c0,61.06 -49.573,110.633 -110.633,110.633l-221.267,0c-61.06,0 -110.633,-49.573 -110.633,-110.633l-0,-221.267c-0,-61.06 49.573,-110.633 110.633,-110.633l221.267,-0c61.06,-0 110.633,49.573 110.633,110.633Zm-33.424,0c-0,-42.612 -34.597,-77.208 -77.209,-77.208l-221.267,-0c-42.613,-0 -77.209,34.596 -77.209,77.208l0,221.267c0,42.613 34.596,77.209 77.209,77.209l221.267,-0c42.612,-0 77.209,-34.596 77.209,-77.209l-0,-221.267Z" style="fill:#566b8d;"/><path d="M1745.13,1413.23l0,221.267c0,61.06 -49.573,110.633 -110.633,110.633l-221.267,0c-61.06,0 -110.633,-49.573 -110.633,-110.633l-0,-221.267c-0,-61.06 49.573,-110.633 110.633,-110.633l221.267,-0c61.06,-0 110.633,49.573 110.633,110.633Zm-33.424,0c-0,-42.613 -34.597,-77.209 -77.209,-77.209l-221.267,0c-42.613,0 -77.209,34.596 -77.209,77.209l0,221.267c0,42.612 34.596,77.209 77.209,77.209l221.267,-0c42.612,-0 77.209,-34.597 77.209,-77.209l-0,-221.267Z" style="fill:#566b8d;"/><path d="M1262.93,448.833l0,221.266c0,61.061 -49.573,110.634 -110.633,110.634l-221.267,-0c-61.06,-0 -110.633,-49.573 -110.633,-110.634l-0,-221.266c-0,-61.061 49.573,-110.634 110.633,-110.634l221.267,0c61.06,0 110.633,49.573 110.633,110.634Zm-33.424,-0c-0,-42.613 -34.596,-77.209 -77.209,-77.209l-221.267,-0c-42.612,-0 -77.208,34.596 -77.208,77.209l-0,221.266c-0,42.613 34.596,77.209 77.208,77.209l221.267,0c42.613,0 77.209,-34.596 77.209,-77.209l-0,-221.266Z" style="fill:#566b8d;"/><path d="M1262.93,931.033l0,221.267c0,61.06 -49.573,110.633 -110.633,110.633l-221.267,0c-61.06,0 -110.633,-49.573 -110.633,-110.633l-0,-221.267c-0,-61.06 49.573,-110.633 110.633,-110.633l221.267,-0c61.06,-0 110.633,49.573 110.633,110.633Zm-33.424,0c-0,-42.612 -34.596,-77.208 -77.209,-77.208l-221.267,-0c-42.612,-0 -77.208,34.596 -77.208,77.208l-0,221.267c-0,42.613 34.596,77.209 77.208,77.209l221.267,-0c42.613,-0 77.209,-34.596 77.209,-77.209l-0,-221.267Z" style="fill:#566b8d;"/><path d="M1262.93,1413.23l0,221.267c0,61.06 -49.573,110.633 -110.633,110.633l-221.267,0c-61.06,0 -110.633,-49.573 -110.633,-110.633l-0,-221.267c-0,-61.06 49.573,-110.633 110.633,-110.633l221.267,-0c61.06,-0 110.633,49.573 110.633,110.633Zm-33.424,0c-0,-42.613 -34.596,-77.209 -77.209,-77.209l-221.267,0c-42.612,0 -77.208,34.596 -77.208,77.209l-0,221.267c-0,42.612 34.596,77.209 77.208,77.209l221.267,-0c42.613,-0 77.209,-34.597 77.209,-77.209l-0,-221.267Z" style="fill:#566b8d;"/><path d="M780.733,448.833l-0,221.266c-0,61.061 -49.573,110.634 -110.634,110.634l-221.266,-0c-61.061,-0 -110.634,-49.573 -110.634,-110.634l0,-221.266c0,-61.061 49.573,-110.634 110.634,-110.634l221.266,0c61.061,0 110.634,49.573 110.634,110.634Zm-33.425,-0c0,-42.613 -34.596,-77.209 -77.209,-77.209l-221.266,-0c-42.613,-0 -77.209,34.596 -77.209,77.209l-0,221.266c-0,42.613 34.596,77.209 77.209,77.209l221.266,0c42.613,0 77.209,-34.596 77.209,-77.209l0,-221.266Z" style="fill:#566b8d;"/><path d="M780.733,931.033l-0,221.267c-0,61.06 -49.573,110.633 -110.634,110.633l-221.266,0c-61.061,0 -110.634,-49.573 -110.634,-110.633l0,-221.267c0,-61.06 49.573,-110.633 110.634,-110.633l221.266,-0c61.061,-0 110.634,49.573 110.634,110.633Zm-33.425,0c0,-42.612 -34.596,-77.208 -77.209,-77.208l-221.266,-0c-42.613,-0 -77.209,34.596 -77.209,77.208l-0,221.267c-0,42.613 34.596,77.209 77.209,77.209l221.266,-0c42.613,-0 77.209,-34.596 77.209,-77.209l0,-221.267Z" style="fill:#566b8d;"/><path d="M780.733,1413.23l-0,221.267c-0,61.06 -49.573,110.633 -110.634,110.633l-221.266,0c-61.061,0 -110.634,-49.573 -110.634,-110.633l0,-221.267c0,-61.06 49.573,-110.633 110.634,-110.633l221.266,-0c61.061,-0 110.634,49.573 110.634,110.633Zm-33.425,0c0,-42.613 -34.596,-77.209 -77.209,-77.209l-221.266,0c-42.613,0 -77.209,34.596 -77.209,77.209l-0,221.267c-0,42.612 34.596,77.209 77.209,77.209l221.266,-0c42.613,-0 77.209,-34.597 77.209,-77.209l0,-221.267Z" style="fill:#566b8d;"/></g></svg>