<?xml version="1.0" encoding="UTF-8" standalone="no"?><!DOCTYPE svg PUBLIC "-//W3C//DTD SVG 1.1//EN" "http://www.w3.org/Graphics/SVG/1.1/DTD/svg11.dtd"><svg width="100%" height="100%" viewBox="0 0 2084 2084" version="1.1" xmlns="http://www.w3.org/2000/svg" xmlns:xlink="http://www.w3.org/1999/xlink" xml:space="preserve" xmlns:serif="http://www.serif.com/" style="fill-rule:evenodd;clip-rule:evenodd;stroke-linejoin:round;stroke-miterlimit:2;"><rect id="hero" x="0" y="0" width="2083.33" height="2083.33" style="fill:none;"/><g><path d="M1715.83,223.75c79.167,0 143.75,64.583 143.75,143.75l0,1348.33c0,79.167 -64.583,143.75 -143.75,143.75l-1348.33,0c-79.167,0 -143.75,-64.583 -143.75,-143.75l0,-1348.33c0,-79.167 64.583,-143.75 143.75,-143.75l1348.33,0m0,-70.833l-1348.33,-0c-118.75,-0 -214.583,96.25 -214.583,214.583l-0,1348.33c-0,118.75 96.25,214.584 214.583,214.584l1348.33,-0c118.75,-0 214.584,-96.25 214.584,-214.584l-0,-1348.33c-0,-118.75 -95.834,-214.583 -214.584,-214.583Z" style="fill:#566b8d;fill-rule:nonzero;"/></g><g><g><path d="M915.221,852.45l-236.975,410.286l474.834,-0l-237.859,-410.286Z" style="fill:#566b8d;fill-rule:nonzero;"/><path d="M1206.13,980.665l-198.068,282.071l397.022,-0l-198.954,-282.071Z" style="fill:#566b8d;fill-rule:nonzero;"/></g><rect x="538.794" y="1440.14" width="1005.75" height="77.365" style="fill:#566b8d;"/><rect x="538.794" y="1440.14" width="1005.75" height="77.365" style="fill:#566b8d;"/><rect x="673.492" y="1564.47" width="736.35" height="77.365" style="fill:#566b8d;"/><path d="M1661.75,634.124c28.751,0 51.112,23.16 51.112,51.112l-0,592.022c-0,28.75 -23.16,51.111 -51.112,51.111l-1240.16,0c-28.75,0 -51.111,-23.16 -51.111,-51.111l-0,-592.022c-0,-28.75 23.159,-51.112 51.111,-51.112l1240.16,0m0,-47.118l-1240.16,-0c-54.306,-0 -98.23,44.722 -98.23,98.23l0,592.022c0,54.306 44.723,98.23 98.23,98.23l1240.16,-0c54.306,-0 98.23,-44.723 98.23,-98.23l0,-592.022c0,-53.508 -43.924,-98.23 -98.23,-98.23Z" style="fill:#566b8d;fill-rule:nonzero;"/><path d="M1206.58,685.236l36.215,111.461l117.197,-0l-94.814,68.886l36.216,111.461l-94.814,-68.887l-94.815,68.887l36.216,-111.461l-94.814,-68.886l117.197,-0l36.216,-111.461Z" style="fill:#566b8d;"/></g></svg>