<svg xmlns="http://www.w3.org/2000/svg" xml:space="preserve" style="fill-rule:evenodd;clip-rule:evenodd;stroke-linejoin:round;stroke-miterlimit:2" viewBox="0 0 2084 2084"><path d="M0 0h2083.33v2083.33H0z" style="fill:none"/><path d="M1715.83 223.75c79.167 0 143.75 64.583 143.75 143.75v1348.33c0 79.167-64.583 143.75-143.75 143.75H367.5c-79.167 0-143.75-64.583-143.75-143.75V367.5c0-79.167 64.583-143.75 143.75-143.75zm0-70.833H367.5c-118.75 0-214.583 96.25-214.583 214.583v1348.33c0 118.75 96.25 214.584 214.583 214.584h1348.33c118.75 0 214.584-96.25 214.584-214.584V367.5c0-118.75-95.834-214.583-214.584-214.583" style="fill:#566b8d;fill-rule:nonzero"/><path d="m915.221 852.45-236.975 410.286h474.834z" style="fill:#566b8d;fill-rule:nonzero"/><path d="m1206.13 980.665-198.068 282.071h397.022z" style="fill:#566b8d;fill-rule:nonzero"/><path d="M538.794 1440.14h1005.75v77.365H538.794z" style="fill:#566b8d"/><path d="M538.794 1440.14h1005.75v77.365H538.794zM673.492 1564.47h736.35v77.365h-736.35z" style="fill:#566b8d"/><path d="M1661.75 634.124c28.751 0 51.112 23.16 51.112 51.112v592.022c0 28.75-23.16 51.111-51.112 51.111H421.59c-28.75 0-51.111-23.16-51.111-51.111V685.236c0-28.75 23.159-51.112 51.111-51.112zm0-47.118H421.59c-54.306 0-98.23 44.722-98.23 98.23v592.022c0 54.306 44.723 98.23 98.23 98.23h1240.16c54.306 0 98.23-44.723 98.23-98.23V685.236c0-53.508-43.924-98.23-98.23-98.23" style="fill:#566b8d;fill-rule:nonzero"/><path d="m1206.58 685.236 36.215 111.461h117.197l-94.814 68.886 36.216 111.461-94.814-68.887-94.815 68.887 36.216-111.461-94.814-68.886h117.197z" style="fill:#566b8d"/></svg>
