<svg xmlns="http://www.w3.org/2000/svg" xml:space="preserve" style="fill-rule:evenodd;clip-rule:evenodd;stroke-linejoin:round;stroke-miterlimit:2" viewBox="0 0 500 500"><path d="M0 0h500v500H0z" style="fill:none"/><path d="M1715.83 223.75c79.17 0 143.75 64.583 143.75 143.75v1348.33c0 79.17-64.58 143.75-143.75 143.75H367.5c-79.167 0-143.75-64.58-143.75-143.75V367.5c0-79.167 64.583-143.75 143.75-143.75zm0-70.833H367.5c-118.75 0-214.583 96.25-214.583 214.583v1348.33c0 118.75 96.25 214.58 214.583 214.58h1348.33c118.75 0 214.58-96.25 214.58-214.58V367.5c0-118.75-95.83-214.583-214.58-214.583" style="fill:#566b8d;fill-rule:nonzero" transform="translate(.023 -.09)scale(.23992)"/><path d="M1299.1 464.592c28.75 0 51.11 23.16 51.11 51.111V1567.63c0 28.75-23.16 51.11-51.11 51.11H784.232c-28.75 0-51.112-23.15-51.112-51.11V515.703c0-28.75 23.16-51.111 51.112-51.111zm0-47.119H784.232c-54.306 0-98.23 44.723-98.23 98.23V1567.63c0 54.31 44.723 98.23 98.23 98.23H1299.1c54.3 0 98.23-44.72 98.23-98.23V515.703c0-53.507-43.93-98.23-98.23-98.23" style="fill:#566b8d;fill-rule:nonzero" transform="matrix(0 -.30559 .25611 0 -16.842 568.154)"/><g transform="translate(-68.38 -68.492)scale(.30559)"><path d="M952.278 939.776 784.752 1229.82h335.678z" style="fill:#566b8d;fill-rule:nonzero"/><path d="m1157.93 1030.41-140.02 199.41h280.67z" style="fill:#566b8d;fill-rule:nonzero"/><circle cx="1114.8" cy="896.644" r="43.132" style="fill:#566b8d"/></g></svg>
