<?xml version="1.0" encoding="UTF-8" standalone="no"?>
<!DOCTYPE svg PUBLIC "-//W3C//DTD SVG 1.1//EN" "http://www.w3.org/Graphics/SVG/1.1/DTD/svg11.dtd">
<svg width="100%" height="100%" viewBox="0 0 500 500" version="1.1" xmlns="http://www.w3.org/2000/svg" xmlns:xlink="http://www.w3.org/1999/xlink" xml:space="preserve" xmlns:serif="http://www.serif.com/" style="fill-rule:evenodd;clip-rule:evenodd;stroke-linejoin:round;stroke-miterlimit:2;">
    <g transform="matrix(1,0,0,1,0,-1270.64)">
        <g id="horizontalmedia" transform="matrix(1,0,0,1,0,1270.64)">
            <rect x="0" y="0" width="500" height="500" style="fill:none;"/>
            <g transform="matrix(0.239924,0,0,0.239924,0.0225514,-0.0898274)">
                <path d="M1715.83,223.75C1795,223.75 1859.58,288.333 1859.58,367.5L1859.58,1715.83C1859.58,1795 1795,1859.58 1715.83,1859.58L367.5,1859.58C288.333,1859.58 223.75,1795 223.75,1715.83L223.75,367.5C223.75,288.333 288.333,223.75 367.5,223.75L1715.83,223.75M1715.83,152.917L367.5,152.917C248.75,152.917 152.917,249.167 152.917,367.5L152.917,1715.83C152.917,1834.58 249.167,1930.41 367.5,1930.41L1715.83,1930.41C1834.58,1930.41 1930.41,1834.16 1930.41,1715.83L1930.41,367.5C1930.41,248.75 1834.58,152.917 1715.83,152.917Z" style="fill:rgb(86,107,141);fill-rule:nonzero;"/>
            </g>
            <g transform="matrix(1.8712e-17,-0.30559,0.256114,1.56824e-17,-16.842,568.154)">
                <path d="M1299.1,464.592C1327.85,464.592 1350.21,487.752 1350.21,515.703L1350.21,1567.63C1350.21,1596.38 1327.05,1618.74 1299.1,1618.74L784.232,1618.74C755.482,1618.74 733.12,1595.59 733.12,1567.63L733.12,515.703C733.12,486.953 756.28,464.592 784.232,464.592L1299.1,464.592M1299.1,417.473L784.232,417.473C729.926,417.473 686.002,462.196 686.002,515.703L686.002,1567.63C686.002,1621.94 730.725,1665.86 784.232,1665.86L1299.1,1665.86C1353.4,1665.86 1397.33,1621.14 1397.33,1567.63L1397.33,515.703C1397.33,462.196 1353.4,417.473 1299.1,417.473Z" style="fill:rgb(86,107,141);fill-rule:nonzero;"/>
            </g>
            <g transform="matrix(0.30559,0,0,0.30559,-68.3794,-68.492)">
                <path d="M952.278,939.776L784.752,1229.82L1120.43,1229.82L952.278,939.776Z" style="fill:rgb(86,107,141);fill-rule:nonzero;"/>
                <path d="M1157.93,1030.41L1017.91,1229.82L1298.58,1229.82L1157.93,1030.41Z" style="fill:rgb(86,107,141);fill-rule:nonzero;"/>
                <circle cx="1114.8" cy="896.644" r="43.132" style="fill:rgb(86,107,141);"/>
            </g>
        </g>
    </g>
</svg>
