<svg xmlns="http://www.w3.org/2000/svg" xml:space="preserve" style="fill-rule:evenodd;clip-rule:evenodd;stroke-linejoin:round;stroke-miterlimit:2" viewBox="0 0 500 500"><path d="M0 0h500v500H0z" style="fill:none"/><path d="M411.692 53.593c18.994 0 34.489 15.495 34.489 34.489v323.497c0 18.994-15.495 34.489-34.489 34.489H88.195c-18.994 0-34.489-15.495-34.489-34.489V88.082c0-18.994 15.495-34.489 34.489-34.489zm0-16.994H88.195c-28.491 0-51.484 23.092-51.484 51.483v323.497c0 28.491 23.093 51.484 51.484 51.484h323.497c28.491 0 51.484-23.092 51.484-51.484V88.082c0-28.491-22.993-51.483-51.484-51.483" style="fill:#566b8d;fill-rule:nonzero"/><path d="M245.265 171.103V89.362h66.767l-30.967 19.986 30.747 21.743h-56.663V170.9l81.251 83.222h74.21v156.257H292.646V309.137h-86.649v101.242H89.091V254.122h76.155zM96.578 243.321l43.047-29.98h51.063l-29.979 29.98zm307.368-.22h-64.131l-29.979-29.979h51.063zm-160.755 75.408v91.87h-27.832v-91.87zm38.654 0v91.87h-27.831v-91.87z" style="fill:#566b8d"/></svg>
