<svg xmlns="http://www.w3.org/2000/svg" xml:space="preserve" style="fill-rule:evenodd;clip-rule:evenodd;stroke-linejoin:round;stroke-miterlimit:2" viewBox="0 0 500 500"><g><path d="M0 0h500v500H0z" style="fill:none"/><clipPath id="a"><path d="M0 0h500v500H0z"/></clipPath><g clip-path="url(#a)"><path d="M2118.14 1380.83c2.37 1.69 3.7 3.99 3.7 6.39v334.86c0 2.4-1.34 4.7-3.72 6.4-2.37 1.7-5.59 2.65-8.96 2.65h-414.4c-3.36 0-6.59-.95-8.96-2.65-2.38-1.7-3.71-4-3.71-6.4v-408.42c0-2.4 1.33-4.7 3.71-6.4 2.37-1.7 5.6-2.65 8.96-2.65h311.68c3.37 0 6.6.95 8.98 2.66 16.83 12.05 85.91 61.52 102.72 73.56m-137.68-60.76H1716.4c-3.36 0-6.58.95-8.96 2.65-2.38 1.69-3.71 3.99-3.71 6.4v377.5c0 2.4 1.33 4.71 3.71 6.4 2.38 1.7 5.6 2.65 8.96 2.65h371.12c7 0 12.68-4.05 12.68-9.05v-302h-107.07c-7 0-12.67-4.06-12.67-9.05zm21.99 0h-.35v60.04c0 5 5.68 9.05 12.67 9.05h84.42z" style="fill:#566b8d" transform="matrix(.83786 0 0 1.17306 -1343.63 -1530.72)"/><path d="M2970.65 1436.19v-81.74h66.77l-30.97 19.98 30.75 21.75h-56.67v39.81l81.26 83.22H3136v156.26h-117.97v-101.25h-86.65v101.25h-116.9v-156.26h76.15zm-148.68 72.22 43.04-29.98h51.07l-29.98 29.98zm307.36-.22h-64.13l-29.98-29.98h51.07zm-160.75 75.41v91.87h-27.83v-91.87zm38.65 0v91.87h-27.83v-91.87z" style="fill:#566b8d" transform="translate(-2228.64 -947.432)scale(.83309)"/></g></g></svg>
