<?xml version="1.0" encoding="UTF-8" standalone="no"?><!DOCTYPE svg PUBLIC "-//W3C//DTD SVG 1.1//EN" "http://www.w3.org/Graphics/SVG/1.1/DTD/svg11.dtd"><svg width="100%" height="100%" viewBox="0 0 500 500" version="1.1" xmlns="http://www.w3.org/2000/svg" xmlns:xlink="http://www.w3.org/1999/xlink" xml:space="preserve" xmlns:serif="http://www.serif.com/" style="fill-rule:evenodd;clip-rule:evenodd;stroke-linejoin:round;stroke-miterlimit:2;"><rect id="institution" x="0" y="0" width="500" height="500" style="fill:none;"/><g><path d="M411.692,53.593c18.994,0 34.489,15.495 34.489,34.489l-0,323.497c-0,18.994 -15.495,34.489 -34.489,34.489l-323.497,0c-18.994,0 -34.489,-15.495 -34.489,-34.489l-0,-323.497c-0,-18.994 15.495,-34.489 34.489,-34.489l323.497,0m-0,-16.994l-323.497,-0c-28.491,-0 -51.484,23.092 -51.484,51.483l0,323.497c0,28.491 23.093,51.484 51.484,51.484l323.497,0c28.491,0 51.484,-23.092 51.484,-51.484l-0,-323.497c-0,-28.491 -22.993,-51.483 -51.484,-51.483Z" style="fill:#566b8d;fill-rule:nonzero;"/><path d="M245.265,171.103l0,-81.741l66.767,0l-30.967,19.986l30.747,21.743l-56.663,0l-0,39.809l81.251,83.222l74.21,-0l0,156.257l-117.964,-0l0,-101.242l-86.649,-0l-0,101.242l-116.906,-0l0,-156.257l76.155,-0l80.019,-83.019Zm-148.687,72.218l43.047,-29.98l51.063,0l-29.979,29.98l-64.131,-0Zm307.368,-0.22l-64.131,-0l-29.979,-29.979l51.063,-0l43.047,29.979Zm-160.755,75.408l-0,91.87l-27.832,-0l0,-91.87l27.832,-0Zm38.654,-0l-0,91.87l-27.831,-0l-0,-91.87l27.831,-0Z" style="fill:#566b8d;"/></g></svg>