<?xml version="1.0" encoding="UTF-8" standalone="no"?><!DOCTYPE svg PUBLIC "-//W3C//DTD SVG 1.1//EN" "http://www.w3.org/Graphics/SVG/1.1/DTD/svg11.dtd"><svg width="100%" height="100%" viewBox="0 0 2084 2084" version="1.1" xmlns="http://www.w3.org/2000/svg" xmlns:xlink="http://www.w3.org/1999/xlink" xml:space="preserve" xmlns:serif="http://www.serif.com/" style="fill-rule:evenodd;clip-rule:evenodd;stroke-linejoin:round;stroke-miterlimit:2;"><rect id="intro" x="0" y="0" width="2083.33" height="2083.33" style="fill:none;"/><g><path d="M1715.38,223.305c79.142,0 143.705,64.563 143.705,143.705l-0,1347.9c-0,79.142 -64.563,143.705 -143.705,143.705l-1347.9,-0c-79.142,-0 -143.705,-64.563 -143.705,-143.705l0,-1347.9c0,-79.142 64.563,-143.705 143.705,-143.705l1347.9,0m0,-70.811l-1347.9,0c-118.713,0 -214.515,96.22 -214.515,214.516l-0,1347.9c-0,118.713 96.219,214.516 214.515,214.516l1347.9,0c118.713,0 214.517,-96.219 214.517,-214.516l-0,-1347.9c-0,-118.713 -95.804,-214.516 -214.517,-214.516Z" style="fill:#566b8d;fill-rule:nonzero;"/><g><rect x="348.939" y="1293.96" width="1385.46" height="77.365" style="fill:#566b8d;"/><rect x="348.939" y="1151.57" width="1385.46" height="77.365" style="fill:#566b8d;"/><rect x="348.939" y="1436.35" width="1385.46" height="77.365" style="fill:#566b8d;"/><rect x="348.939" y="1578.74" width="1077.53" height="77.365" style="fill:#566b8d;"/></g><path d="M1230.12,699.773l-377.371,272.546l0,-545.092l377.371,272.546Z" style="fill:#566b8d;"/></g></svg>