<svg xmlns="http://www.w3.org/2000/svg" xml:space="preserve" style="fill-rule:evenodd;clip-rule:evenodd;stroke-linejoin:round;stroke-miterlimit:2" viewBox="0 0 2084 2084"><path d="M0 0h2083.33v2083.33H0z" style="fill:none"/><path d="M1715.38 223.305c79.142 0 143.705 64.563 143.705 143.705v1347.9c0 79.142-64.563 143.705-143.705 143.705H367.48c-79.142 0-143.705-64.563-143.705-143.705V367.01c0-79.142 64.563-143.705 143.705-143.705zm0-70.811H367.48c-118.713 0-214.515 96.22-214.515 214.516v1347.9c0 118.713 96.219 214.516 214.515 214.516h1347.9c118.713 0 214.517-96.219 214.517-214.516V367.01c0-118.713-95.804-214.516-214.517-214.516" style="fill:#566b8d;fill-rule:nonzero"/><path d="M348.939 1293.96h1385.46v77.365H348.939zM348.939 1151.57h1385.46v77.365H348.939zM348.939 1436.35h1385.46v77.365H348.939zM348.939 1578.74h1077.53v77.365H348.939zM1230.12 699.773 852.749 972.319V427.227z" style="fill:#566b8d"/></svg>
