<svg xmlns="http://www.w3.org/2000/svg" xml:space="preserve" style="fill-rule:evenodd;clip-rule:evenodd;stroke-linejoin:round;stroke-miterlimit:2" viewBox="0 0 500 500"><path d="M0 0h500v500H0z" style="fill:none"/><path d="M411.8 53.7c19 0 34.5 15.5 34.5 34.5v323.6c0 19-15.5 34.5-34.5 34.5H88.2c-19 0-34.5-15.5-34.5-34.5V88.2c0-19 15.5-34.5 34.5-34.5zm0-17H88.2c-28.5 0-51.5 23.1-51.5 51.5v323.6c0 28.5 23.1 51.5 51.5 51.5h323.6c28.5 0 51.5-23.1 51.5-51.5V88.2c0-28.5-23-51.5-51.5-51.5" style="fill:#566b8d;fill-rule:nonzero"/><g transform="translate(257.698 -21.923)scale(.82449)"><path d="m151.9 204.1-26.8 46.4h53.7z" style="fill:#566b8d;fill-rule:nonzero"/><path d="m184.8 218.6-22.4 31.9h44.9z" style="fill:#566b8d;fill-rule:nonzero"/><circle cx="177.9" cy="197.2" r="6.9" style="fill:#566b8d"/></g><g transform="translate(257.698 158.488)scale(.82449)"><path d="m151.9 204.1-26.8 46.4h53.7z" style="fill:#566b8d;fill-rule:nonzero"/><path d="m184.8 218.6-22.4 31.9h44.9z" style="fill:#566b8d;fill-rule:nonzero"/><circle cx="177.9" cy="197.2" r="6.9" style="fill:#566b8d"/></g><g transform="translate(257.698 68.282)scale(.82449)"><path d="m151.9 204.1-26.8 46.4h53.7z" style="fill:#566b8d;fill-rule:nonzero"/><path d="m184.8 218.6-22.4 31.9h44.9z" style="fill:#566b8d;fill-rule:nonzero"/><circle cx="177.9" cy="197.2" r="6.9" style="fill:#566b8d"/></g><path d="M1723.81 208.376h148.541v18.568H1723.81z" style="fill:#566b8d" transform="matrix(.77107 0 0 1 -1257.791 -63.881)"/><path d="M1723.81 208.376h148.541v18.568H1723.81z" style="fill:#566b8d" transform="matrix(1.0178 0 0 .44567 -1547.671 51.628)"/><path d="M1723.81 208.376h148.541v18.568H1723.81z" style="fill:#566b8d" transform="matrix(1.0178 0 0 .44567 -1547.671 141.833)"/><path d="M1723.81 208.376h148.541v18.568H1723.81z" style="fill:#566b8d" transform="matrix(1.0178 0 0 .44567 -1547.671 232.038)"/><path d="M1723.81 208.376h148.541v18.568H1723.81z" style="fill:#566b8d" transform="matrix(1.0178 0 0 .44567 -1547.671 66.929)"/><path d="M1723.81 208.376h148.541v18.568H1723.81z" style="fill:#566b8d" transform="matrix(1.0178 0 0 .44567 -1547.671 157.135)"/><path d="M1723.81 208.376h148.541v18.568H1723.81z" style="fill:#566b8d" transform="matrix(1.0178 0 0 .44567 -1547.671 247.34)"/><path d="M1723.81 208.376h148.541v18.568H1723.81z" style="fill:#566b8d" transform="matrix(.5089 0 0 .44567 -670.42 83.471)"/><path d="M1723.81 208.376h148.541v18.568H1723.81z" style="fill:#566b8d" transform="matrix(.5089 0 0 .44567 -670.42 173.677)"/><path d="M1723.81 208.376h148.541v18.568H1723.81z" style="fill:#566b8d" transform="matrix(.5089 0 0 .44567 -670.42 263.882)"/><path d="M1723.81 208.376h148.541v18.568H1723.81z" style="fill:#566b8d" transform="matrix(.52322 0 0 1 -830.555 -34.255)"/></svg>
