<?xml version="1.0" encoding="UTF-8" standalone="no"?>
<!DOCTYPE svg PUBLIC "-//W3C//DTD SVG 1.1//EN" "http://www.w3.org/Graphics/SVG/1.1/DTD/svg11.dtd">
<svg width="100%" height="100%" viewBox="0 0 500 500" version="1.1" xmlns="http://www.w3.org/2000/svg" xmlns:xlink="http://www.w3.org/1999/xlink" xml:space="preserve" xmlns:serif="http://www.serif.com/" style="fill-rule:evenodd;clip-rule:evenodd;stroke-linejoin:round;stroke-miterlimit:2;">
    <g transform="matrix(1,0,0,1,-4984.32,-0.638161)">
        <g id="listteaser" transform="matrix(1,0,0,1,4984.32,0.638161)">
            <rect x="0" y="0" width="500" height="500" style="fill:none;"/>
            <g>
                <path d="M411.8,53.7C430.8,53.7 446.3,69.2 446.3,88.2L446.3,411.8C446.3,430.8 430.8,446.3 411.8,446.3L88.2,446.3C69.2,446.3 53.7,430.8 53.7,411.8L53.7,88.2C53.7,69.2 69.2,53.7 88.2,53.7L411.8,53.7M411.8,36.7L88.2,36.7C59.7,36.7 36.7,59.8 36.7,88.2L36.7,411.8C36.7,440.3 59.8,463.3 88.2,463.3L411.8,463.3C440.3,463.3 463.3,440.2 463.3,411.8L463.3,88.2C463.3,59.7 440.3,36.7 411.8,36.7Z" style="fill:rgb(86,107,141);fill-rule:nonzero;"/>
            </g>
            <g transform="matrix(1,0,0,1,-4,-11.1793)">
                <g>
                    <g transform="matrix(0.824489,0,0,0.824489,261.698,-10.7434)">
                        <path d="M151.9,204.1L125.1,250.5L178.8,250.5L151.9,204.1Z" style="fill:rgb(86,107,141);fill-rule:nonzero;"/>
                        <path d="M184.8,218.6L162.4,250.5L207.3,250.5L184.8,218.6Z" style="fill:rgb(86,107,141);fill-rule:nonzero;"/>
                        <circle cx="177.9" cy="197.2" r="6.9" style="fill:rgb(86,107,141);"/>
                    </g>
                    <g transform="matrix(0.824489,0,0,0.824489,261.698,169.667)">
                        <path d="M151.9,204.1L125.1,250.5L178.8,250.5L151.9,204.1Z" style="fill:rgb(86,107,141);fill-rule:nonzero;"/>
                        <path d="M184.8,218.6L162.4,250.5L207.3,250.5L184.8,218.6Z" style="fill:rgb(86,107,141);fill-rule:nonzero;"/>
                        <circle cx="177.9" cy="197.2" r="6.9" style="fill:rgb(86,107,141);"/>
                    </g>
                    <g transform="matrix(0.824489,0,0,0.824489,261.698,79.4618)">
                        <path d="M151.9,204.1L125.1,250.5L178.8,250.5L151.9,204.1Z" style="fill:rgb(86,107,141);fill-rule:nonzero;"/>
                        <path d="M184.8,218.6L162.4,250.5L207.3,250.5L184.8,218.6Z" style="fill:rgb(86,107,141);fill-rule:nonzero;"/>
                        <circle cx="177.9" cy="197.2" r="6.9" style="fill:rgb(86,107,141);"/>
                    </g>
                    <g transform="matrix(1,0,0,1,1.92877,-17.3912)">
                        <g transform="matrix(0.771067,0,0,1,-1255.72,-35.3108)">
                            <rect x="1723.81" y="208.376" width="148.541" height="18.568" style="fill:rgb(86,107,141);"/>
                        </g>
                        <g transform="matrix(1.0178,0,0,0.445666,-1545.6,80.199)">
                            <rect x="1723.81" y="208.376" width="148.541" height="18.568" style="fill:rgb(86,107,141);"/>
                        </g>
                        <g transform="matrix(1.0178,0,0,0.445666,-1545.6,170.404)">
                            <rect x="1723.81" y="208.376" width="148.541" height="18.568" style="fill:rgb(86,107,141);"/>
                        </g>
                        <g transform="matrix(1.0178,0,0,0.445666,-1545.6,260.609)">
                            <rect x="1723.81" y="208.376" width="148.541" height="18.568" style="fill:rgb(86,107,141);"/>
                        </g>
                        <g transform="matrix(1.0178,0,0,0.445666,-1545.6,95.4994)">
                            <rect x="1723.81" y="208.376" width="148.541" height="18.568" style="fill:rgb(86,107,141);"/>
                        </g>
                        <g transform="matrix(1.0178,0,0,0.445666,-1545.6,185.705)">
                            <rect x="1723.81" y="208.376" width="148.541" height="18.568" style="fill:rgb(86,107,141);"/>
                        </g>
                        <g transform="matrix(1.0178,0,0,0.445666,-1545.6,275.91)">
                            <rect x="1723.81" y="208.376" width="148.541" height="18.568" style="fill:rgb(86,107,141);"/>
                        </g>
                        <g transform="matrix(0.508899,0,0,0.445666,-668.349,112.042)">
                            <rect x="1723.81" y="208.376" width="148.541" height="18.568" style="fill:rgb(86,107,141);"/>
                        </g>
                        <g transform="matrix(0.508899,0,0,0.445666,-668.349,202.247)">
                            <rect x="1723.81" y="208.376" width="148.541" height="18.568" style="fill:rgb(86,107,141);"/>
                        </g>
                        <g transform="matrix(0.508899,0,0,0.445666,-668.349,292.452)">
                            <rect x="1723.81" y="208.376" width="148.541" height="18.568" style="fill:rgb(86,107,141);"/>
                        </g>
                        <g transform="matrix(0.523224,0,0,1,-828.484,-5.68453)">
                            <rect x="1723.81" y="208.376" width="148.541" height="18.568" style="fill:rgb(86,107,141);"/>
                        </g>
                    </g>
                </g>
            </g>
        </g>
    </g>
</svg>
