<svg xmlns="http://www.w3.org/2000/svg" xml:space="preserve" style="fill-rule:evenodd;clip-rule:evenodd;stroke-linejoin:round;stroke-miterlimit:2" viewBox="0 0 2084 2084"><path d="M0 0h2083.33v2083.33H0z" style="fill:none"/><path d="M884.484 171.168h723.347l-328.676 1138.71H140.445V744.009a898 898 0 0 0 14.982 22.876c67.941 100.416 170.33 209.521 307.921 326.601 26.751 22.763 66.064 22.763 92.815 0 137.591-117.08 239.979-226.185 307.92-326.601 74.609-110.27 109.822-213.085 109.822-306.933 0-114.999-30.323-211.051-89.42-288.786Zm978.325 0a79.613 79.613 0 0 1 79.609 79.609v1059.1H1385.3l328.676-1138.71h148.833Zm-777.13 1801.97H220.052c-43.966 0-79.608-35.642-79.608-79.608v-477.509h1115.4zm856.739-557.117v477.509a79.61 79.61 0 0 1-79.609 79.608h-670.985l170.166-557.117zM509.758 986.357Q333.429 836.312 246.36 707.625t-87.07-238.208q0-164.283 105.688-261.756 105.688-97.474 244.78-97.474t244.78 97.474 105.688 261.756q0 109.521-87.069 238.208T509.758 986.357m0-116.093Q643.374 747.6 707.992 647.389q64.617-100.212 64.617-177.972 0-119.379-76.117-195.496t-186.734-76.117-186.733 76.117q-76.118 76.117-76.118 195.496 0 77.76 64.618 177.972 64.617 100.21 198.233 222.875m.201-560.315c84.41 0 152.941 68.531 152.941 152.942 0 84.41-68.531 152.941-152.941 152.941-84.411 0-152.942-68.531-152.942-152.941 0-84.411 68.531-152.942 152.942-152.942" style="fill:#566b8d"/></svg>
