<svg xmlns="http://www.w3.org/2000/svg" xml:space="preserve" style="fill-rule:evenodd;clip-rule:evenodd;stroke-linejoin:round;stroke-miterlimit:2" viewBox="0 0 2084 2084"><path d="M0 0h2083.33v2083.33H0z" style="fill:none"/><clipPath id="a"><path d="M0 0h2083.33v2083.33H0z"/></clipPath><g clip-path="url(#a)"><path d="M1796.11 371.135a44.24 44.24 0 0 1 12.916 31.24v1636.72a44.234 44.234 0 0 1-44.238 44.238H318.068a44.234 44.234 0 0 1-44.238-44.238V42.825a44.24 44.24 0 0 1 44.238-44.239h1088.12a44.24 44.24 0 0 1 31.322 12.998l358.606 359.546ZM1315.469 74.144H393.617a44.24 44.24 0 0 0-44.238 44.238v1845.16a44.24 44.24 0 0 0 44.238 44.238h1295.62c24.432 0 44.238-19.806 44.238-44.238V487.412h-373.767c-24.432 0-44.238-19.807-44.238-44.239zm76.769 0h-1.217v293.477c0 24.432 19.806 44.238 44.238 44.238h294.695z" style="fill:#566b8d"/><path d="M946.007 766.437h439.796l-199.836 692.339H493.629v-344.05a546 546 0 0 0 9.11 13.909c41.308 61.053 103.56 127.389 187.216 198.574 16.265 13.84 40.167 13.84 56.431 0 83.656-71.185 145.908-137.521 187.217-198.574 45.362-67.044 66.771-129.556 66.771-186.615 0-69.92-18.436-128.32-54.367-175.583m594.823 0a48.4 48.4 0 0 1 48.402 48.403v643.936h-338.728l199.835-692.339zm-472.496 1095.6H542.031c-26.731 0-48.402-21.67-48.402-48.402v-290.326h678.166zm520.898-338.728v290.326a48.4 48.4 0 0 1-48.402 48.402h-407.96l103.461-338.728zm-871.061-261.236q-107.21-91.228-160.147-169.47-52.938-78.242-52.938-144.831 0-99.883 64.258-159.148 64.259-59.264 148.827-59.264 84.567 0 148.826 59.264t64.259 159.148q0 66.59-52.939 144.831-52.938 78.242-160.146 169.47m0-70.585q81.238-74.58 120.526-135.509t39.287-108.207q0-72.582-46.279-118.861t-113.534-46.28-113.535 46.28-46.279 118.861q0 47.279 39.287 108.207 39.288 60.93 120.527 135.509m.121-340.672c51.322 0 92.989 41.666 92.989 92.988s-41.667 92.989-92.989 92.989c-51.321 0-92.988-41.667-92.988-92.989s41.667-92.988 92.988-92.988" style="fill:#566b8d"/></g></svg>
