<svg xmlns="http://www.w3.org/2000/svg" xml:space="preserve" style="fill-rule:evenodd;clip-rule:evenodd;stroke-linejoin:round;stroke-miterlimit:2" viewBox="0 0 2084 2084"><path d="M0 0h2083.33v2083.33H0z" style="fill:none"/><path d="M1715.38 223.305c79.142 0 143.705 64.563 143.705 143.705v1347.9c0 79.142-64.563 143.705-143.705 143.705H367.48c-79.142 0-143.705-64.563-143.705-143.705V367.01c0-79.142 64.563-143.705 143.705-143.705zm0-70.811H367.48c-118.713 0-214.515 96.22-214.515 214.516v1347.9c0 118.713 96.219 214.516 214.515 214.516h1347.9c118.713 0 214.517-96.219 214.517-214.516V367.01c0-118.713-95.804-214.516-214.517-214.516" style="fill:#566b8d;fill-rule:nonzero"/><path d="M918.213 349.21h567.893l-258.041 893.99h-893.99V798.942a706 706 0 0 0 11.763 17.961c53.34 78.835 133.724 164.492 241.745 256.411 21.002 17.871 51.866 17.871 72.868 0 108.021-91.919 188.406-177.576 241.745-256.411 58.575-86.572 86.22-167.292 86.22-240.97 0-90.285-23.806-165.695-70.203-226.723M1686.29 349.21a62.5 62.5 0 0 1 62.5 62.5v831.49h-437.387l258.04-893.99zM1076.17 1763.92H396.576c-34.517 0-62.5-27.982-62.5-62.5v-374.887h875.69zM1748.79 1326.53v374.887a62.5 62.5 0 0 1-62.5 62.5h-526.783l133.595-437.387z" style="fill:#566b8d"/><path d="M624.017 898.066q104.901-96.302 155.631-174.977 50.731-78.676 50.731-139.724 0-93.722-59.759-153.482-59.759-59.758-146.603-59.758t-146.602 59.758q-59.76 59.76-59.759 153.482 0 61.048 50.73 139.724 50.731 78.675 155.631 174.977m0 91.143Q485.583 871.411 417.226 770.38q-68.358-101.031-68.357-187.015 0-128.976 82.974-205.502t192.174-76.526 192.174 76.526q82.975 76.526 82.975 205.502 0 85.984-68.357 187.015T624.017 989.209" style="fill:#566b8d;fill-rule:nonzero"/><circle cx="624.175" cy="578.241" r="120.073" style="fill:#566b8d"/></svg>
