<svg xmlns="http://www.w3.org/2000/svg" xml:space="preserve" style="fill-rule:evenodd;clip-rule:evenodd;stroke-linejoin:round;stroke-miterlimit:2" viewBox="0 0 2084 2084"><path d="M0 0h2083.33v2083.33H0z" style="fill:none"/><clipPath id="a"><path d="M0 0h2083.33v2083.33H0z"/></clipPath><g clip-path="url(#a)"><path d="M1796.11 371.135a44.24 44.24 0 0 1 12.916 31.24v1636.72a44.234 44.234 0 0 1-44.238 44.238H318.068a44.234 44.234 0 0 1-44.238-44.238V42.825a44.24 44.24 0 0 1 44.238-44.239h1088.12a44.24 44.24 0 0 1 31.322 12.998l358.606 359.546ZM1315.469 74.144H393.617a44.24 44.24 0 0 0-44.238 44.238v1845.16a44.24 44.24 0 0 0 44.238 44.238h1295.62c24.432 0 44.238-19.806 44.238-44.238V487.412h-373.767c-24.432 0-44.238-19.807-44.238-44.239zm76.769 0h-1.217v293.477c0 24.432 19.806 44.238 44.238 44.238h294.695z" style="fill:#566b8d"/><path d="M1041.67 1868.24q-232.168-197.558-346.81-366.997T580.219 1187.6q0-216.305 139.156-344.646t322.295-128.341 322.294 128.341q139.157 128.34 139.157 344.646 0 144.204-114.642 313.643T1041.67 1868.24m0-152.855q175.928-161.508 261.008-293.454t85.08-234.331q0-157.182-100.221-257.403T1041.67 829.975 795.803 930.197Q695.581 1030.418 695.581 1187.6q0 102.385 85.08 234.331t261.009 293.454m0-758.015c120.768 0 218.816 98.048 218.816 218.816s-98.048 218.816-218.816 218.816-218.816-98.048-218.816-218.816S920.902 957.37 1041.67 957.37" style="fill:#566b8d"/></g></svg>
