<svg xmlns="http://www.w3.org/2000/svg" xml:space="preserve" style="fill-rule:evenodd;clip-rule:evenodd;stroke-linejoin:round;stroke-miterlimit:2" viewBox="0 0 2084 2084"><path d="M0 0h2083.33v2083.33H0z" style="fill:none"/><path d="M1041.43 2000.46q-386.199-328.629-576.9-610.482T273.83 868.25q0-359.811 231.479-573.301Q736.789 81.461 1041.43 81.461t536.12 213.488q231.48 213.49 231.479 573.301 0 239.875-190.7 521.728-190.701 281.853-576.899 610.482m0-254.267q292.647-268.66 434.173-488.146t141.526-389.797q0-261.463-166.713-428.176T1041.43 273.361q-242.274 0-408.987 166.713T465.73 868.25q0 170.312 141.526 389.797t434.174 488.146m0-1260.92c200.891 0 363.989 163.098 363.989 363.989s-163.098 363.989-363.989 363.989-363.99-163.098-363.99-363.989 163.099-363.989 363.99-363.989" style="fill:#566b8d"/></svg>
