<svg xmlns="http://www.w3.org/2000/svg" xml:space="preserve" style="fill-rule:evenodd;clip-rule:evenodd;stroke-linejoin:round;stroke-miterlimit:2" viewBox="0 0 2084 2084"><path d="M0 0h2083.33v2083.33H0z" style="fill:none"/><path d="M1715.38 223.305c79.142 0 143.705 64.563 143.705 143.705v1347.9c0 79.142-64.563 143.705-143.705 143.705H367.48c-79.142 0-143.705-64.563-143.705-143.705V367.01c0-79.142 64.563-143.705 143.705-143.705zm0-70.811H367.48c-118.713 0-214.515 96.22-214.515 214.516v1347.9c0 118.713 96.219 214.516 214.515 214.516h1347.9c118.713 0 214.517-96.219 214.517-214.516V367.01c0-118.713-95.804-214.516-214.517-214.516" style="fill:#566b8d;fill-rule:nonzero"/><path d="M1041.43 1544.86q209.099-191.96 310.22-348.784t101.122-278.513q0-186.818-119.118-305.936T1041.43 492.509 749.205 611.627Q630.088 730.745 630.088 917.563q0 121.688 101.121 278.513 101.122 156.823 310.221 348.784m0 181.676q-275.942-234.809-412.199-436.194-136.257-201.387-136.258-372.779 0-257.09 165.394-409.628 165.394-152.54 383.063-152.54t383.062 152.54q165.394 152.538 165.394 409.628 0 171.392-136.257 372.779-136.257 201.386-412.199 436.194" style="fill:#566b8d;fill-rule:nonzero"/><circle cx="1041.43" cy="903.994" r="260.073" style="fill:#566b8d"/></svg>
