<svg xmlns="http://www.w3.org/2000/svg" xml:space="preserve" style="fill-rule:evenodd;clip-rule:evenodd;stroke-linejoin:round;stroke-miterlimit:2" viewBox="0 0 500 500"><path d="M0 0h500v500H0z" style="fill:none"/><path d="M1715.83 223.75c79.17 0 143.75 64.583 143.75 143.75v1348.33c0 79.17-64.58 143.75-143.75 143.75H367.5c-79.167 0-143.75-64.58-143.75-143.75V367.5c0-79.167 64.583-143.75 143.75-143.75zm0-70.833H367.5c-118.75 0-214.583 96.25-214.583 214.583v1348.33c0 118.75 96.25 214.58 214.583 214.58h1348.33c118.75 0 214.58-96.25 214.58-214.58V367.5c0-118.75-95.83-214.583-214.58-214.583" style="fill:#566b8d;fill-rule:nonzero" transform="translate(.023 -.09)scale(.23992)"/><path d="M1338.79 1375.56h2.78l19 4.05 19-4.05 19 4.05 19.01-4.05v43.67h-229.8v-43.56l18.48 3.94 19-4.05 19.01 4.05 18.75-4 18.76 4 19-4.05 19.01 4.05zm-53.35 20.38h-73.63v18.76h73.63zm108.11 7.07h-83.31v4.63h83.31zm0-7.07h-83.31v4.63h83.31zm0-11.58h-181.74v7.2h181.74zm0 25.72h-83.31v4.62h83.31z" style="fill:#566b8d" transform="matrix(1.42206 0 0 6.66561 -1602.49 -9064.48)"/></svg>
