<?xml version="1.0" encoding="UTF-8" standalone="no"?>
<!DOCTYPE svg PUBLIC "-//W3C//DTD SVG 1.1//EN" "http://www.w3.org/Graphics/SVG/1.1/DTD/svg11.dtd">
<svg width="100%" height="100%" viewBox="0 0 500 500" version="1.1" xmlns="http://www.w3.org/2000/svg" xmlns:xlink="http://www.w3.org/1999/xlink" xml:space="preserve" xmlns:serif="http://www.serif.com/" style="fill-rule:evenodd;clip-rule:evenodd;stroke-linejoin:round;stroke-miterlimit:2;">
    <g transform="matrix(1,0,0,1,-1110.56,-1830.01)">
        <g id="news-page" transform="matrix(1,0,0,1,1110.56,1830.01)">
            <rect x="0" y="0" width="500" height="500" style="fill:none;"/>
            <clipPath id="_clip1">
                <rect x="0" y="0" width="500" height="500"/>
            </clipPath>
            <g clip-path="url(#_clip1)">
                <g>
                    <g transform="matrix(0.83786,0,0,1.17306,-1343.63,-1530.72)">
                        <path d="M2118.14,1380.83C2120.51,1382.52 2121.84,1384.82 2121.84,1387.22C2121.84,1420.86 2121.84,1671.1 2121.84,1722.08C2121.84,1724.48 2120.5,1726.78 2118.12,1728.48C2115.75,1730.18 2112.53,1731.13 2109.16,1731.13L1694.76,1731.13C1691.4,1731.13 1688.17,1730.18 1685.8,1728.48C1683.42,1726.78 1682.09,1724.48 1682.09,1722.08C1682.09,1666.27 1682.09,1369.47 1682.09,1313.66C1682.09,1311.26 1683.42,1308.96 1685.8,1307.26C1688.17,1305.56 1691.4,1304.61 1694.76,1304.61L2006.44,1304.61C2009.81,1304.61 2013.04,1305.56 2015.42,1307.27C2032.25,1319.32 2101.33,1368.79 2118.14,1380.83ZM1980.46,1320.07C1980.46,1320.07 1770.64,1320.07 1716.4,1320.07C1713.04,1320.07 1709.82,1321.02 1707.44,1322.72C1705.06,1324.41 1703.73,1326.71 1703.73,1329.12C1703.73,1382.28 1703.73,1653.46 1703.73,1706.62C1703.73,1709.02 1705.06,1711.33 1707.44,1713.02C1709.82,1714.72 1713.04,1715.67 1716.4,1715.67C1775.99,1715.67 2027.93,1715.67 2087.52,1715.67C2094.52,1715.67 2100.2,1711.62 2100.2,1706.62C2100.2,1655.45 2100.2,1404.62 2100.2,1404.62L1993.13,1404.62C1986.13,1404.62 1980.46,1400.56 1980.46,1395.57C1980.46,1373.75 1980.46,1320.07 1980.46,1320.07ZM2002.45,1320.07L2002.1,1320.07C2002.1,1320.07 2002.1,1361.37 2002.1,1380.11C2002.1,1385.11 2007.78,1389.16 2014.77,1389.16C2041.08,1389.16 2099.19,1389.16 2099.19,1389.16L2002.45,1320.07Z" style="fill:rgb(86,107,141);"/>
                    </g>
                    <g transform="matrix(1.19728,0,0,5.61201,-1309.67,-7510.07)">
                        <path d="M1338.79,1375.56L1341.57,1375.56L1360.57,1379.61L1379.57,1375.56L1398.57,1379.61L1417.58,1375.56L1417.58,1419.23L1187.78,1419.23L1187.78,1375.67L1206.26,1379.61L1225.26,1375.56L1244.27,1379.61L1263.02,1375.61L1281.78,1379.61L1300.78,1375.56L1319.79,1379.61L1338.79,1375.56ZM1285.44,1395.94L1211.81,1395.94L1211.81,1414.7L1285.44,1414.7L1285.44,1395.94ZM1393.55,1403.01L1310.24,1403.01L1310.24,1407.64L1393.55,1407.64L1393.55,1403.01ZM1393.55,1395.94L1310.24,1395.94L1310.24,1400.57L1393.55,1400.57L1393.55,1395.94ZM1393.55,1384.36L1211.81,1384.36L1211.81,1391.56L1393.55,1391.56L1393.55,1384.36ZM1393.55,1410.08L1310.24,1410.08L1310.24,1414.7L1393.55,1414.7L1393.55,1410.08Z" style="fill:rgb(86,107,141);"/>
                    </g>
                </g>
            </g>
        </g>
    </g>
</svg>
