<svg xmlns="http://www.w3.org/2000/svg" xml:space="preserve" style="fill-rule:evenodd;clip-rule:evenodd;stroke-linejoin:round;stroke-miterlimit:2" viewBox="0 0 500 500"><path d="M0 0h500v500H0z" style="fill:none"/><path d="M1338.79 1375.56h2.78l19 4.05 19-4.05 19 4.05 19.01-4.05v43.67h-229.8v-43.56l18.48 3.94 19-4.05 19.01 4.05 18.75-4 18.76 4 19-4.05 19.01 4.05zm-53.35 20.38h-73.63v18.76h73.63zm108.11 7.07h-83.31v4.63h83.31zm0-7.07h-83.31v4.63h83.31zm0-11.58h-181.74v7.2h181.74zm0 25.72h-83.31v4.62h83.31z" style="fill:#566b8d" transform="matrix(1.81828 0 0 8.52281 -2118.62 -11659.7)"/></svg>
