<svg xmlns="http://www.w3.org/2000/svg" xml:space="preserve" style="fill-rule:evenodd;clip-rule:evenodd;stroke-linejoin:round;stroke-miterlimit:2" viewBox="0 0 2084 2084"><path d="M0 0h2083.33v2083.33H0z" style="fill:none"/><path d="M1715.83 223.75c79.167 0 143.75 64.583 143.75 143.75v1348.33c0 79.167-64.583 143.75-143.75 143.75H367.5c-79.167 0-143.75-64.583-143.75-143.75V367.5c0-79.167 64.583-143.75 143.75-143.75zm0-70.833H367.5c-118.75 0-214.583 96.25-214.583 214.583v1348.33c0 118.75 96.25 214.584 214.583 214.584h1348.33c118.75 0 214.584-96.25 214.584-214.584V367.5c0-118.75-95.834-214.583-214.584-214.583" style="fill:#566b8d;fill-rule:nonzero"/><path d="M474.775 1889.1c26.879-217.502 108.606-406.01 221.929-532.009 55.792-62.033 119.26-109.099 187.751-137.787-172.394-63.945-295.383-229.973-295.383-424.5 0-249.794 202.801-452.595 452.595-452.595 249.793 0 452.594 202.801 452.594 452.595 0 194.527-122.989 360.555-295.382 424.5 68.491 28.688 131.958 75.754 187.75 137.787 113.324 125.999 195.05 314.507 221.929 532.009h-60.647c-25.989-200.851-101.057-375-206.054-491.741-84.275-93.702-187.779-149.961-300.19-149.961-112.412 0-215.916 56.259-300.191 149.961C636.48 1514.1 561.411 1688.249 535.422 1889.1zm566.892-701.918c216.559 0 392.378-175.819 392.378-392.378 0-216.56-175.819-392.379-392.378-392.379-216.56 0-392.379 175.819-392.379 392.379 0 216.559 175.819 392.378 392.379 392.378" style="fill:#566b8d"/><path d="M1086.69 1492.16h291.414v121.785H1086.69z" style="fill:#566b8d"/></svg>
