<?xml version="1.0" encoding="UTF-8" standalone="no"?><!DOCTYPE svg PUBLIC "-//W3C//DTD SVG 1.1//EN" "http://www.w3.org/Graphics/SVG/1.1/DTD/svg11.dtd"><svg width="100%" height="100%" viewBox="0 0 2084 2084" version="1.1" xmlns="http://www.w3.org/2000/svg" xmlns:xlink="http://www.w3.org/1999/xlink" xml:space="preserve" xmlns:serif="http://www.serif.com/" style="fill-rule:evenodd;clip-rule:evenodd;stroke-linejoin:round;stroke-miterlimit:2;"><rect id="person" x="-0" y="0" width="2083.33" height="2083.33" style="fill:none;"/><path d="M1715.83,223.75c79.167,0 143.75,64.583 143.75,143.75l0,1348.33c0,79.167 -64.583,143.75 -143.75,143.75l-1348.33,0c-79.167,0 -143.75,-64.583 -143.75,-143.75l0,-1348.33c0,-79.167 64.583,-143.75 143.75,-143.75l1348.33,0m0,-70.833l-1348.33,-0c-118.75,-0 -214.583,96.25 -214.583,214.583l-0,1348.33c-0,118.75 96.25,214.584 214.583,214.584l1348.33,-0c118.75,-0 214.584,-96.25 214.584,-214.584l-0,-1348.33c-0,-118.75 -95.834,-214.583 -214.584,-214.583Z" style="fill:#566b8d;fill-rule:nonzero;"/><path d="M474.775,1889.1c26.879,-217.502 108.606,-406.01 221.929,-532.009c55.792,-62.033 119.26,-109.099 187.751,-137.787c-172.394,-63.945 -295.383,-229.973 -295.383,-424.5c0,-249.794 202.801,-452.595 452.595,-452.595c249.793,0 452.594,202.801 452.594,452.595c0,194.527 -122.989,360.555 -295.382,424.5c68.491,28.688 131.958,75.754 187.75,137.787c113.324,125.999 195.05,314.507 221.929,532.009l-60.647,0c-25.989,-200.851 -101.057,-375 -206.054,-491.741c-84.275,-93.702 -187.779,-149.961 -300.19,-149.961c-112.412,0 -215.916,56.259 -300.191,149.961c-104.996,116.741 -180.065,290.89 -206.054,491.741l-60.647,0Zm566.892,-701.918c216.559,-0 392.378,-175.819 392.378,-392.378c-0,-216.56 -175.819,-392.379 -392.378,-392.379c-216.56,0 -392.379,175.819 -392.379,392.379c0,216.559 175.819,392.378 392.379,392.378Z" style="fill:#566b8d;"/><rect x="1086.69" y="1492.16" width="291.414" height="121.785" style="fill:#566b8d;"/></svg>