<?xml version="1.0" encoding="UTF-8" standalone="no"?>
<!DOCTYPE svg PUBLIC "-//W3C//DTD SVG 1.1//EN" "http://www.w3.org/Graphics/SVG/1.1/DTD/svg11.dtd">
<svg width="100%" height="100%" viewBox="0 0 500 500" version="1.1" xmlns="http://www.w3.org/2000/svg" xmlns:xlink="http://www.w3.org/1999/xlink" xml:space="preserve" xmlns:serif="http://www.serif.com/" style="fill-rule:evenodd;clip-rule:evenodd;stroke-linejoin:round;stroke-miterlimit:2;">
    <g transform="matrix(1,0,0,1,-3868.89,-632.637)">
        <g id="security" transform="matrix(1,0,0,1,3868.89,632.637)">
            <rect x="0" y="0" width="500" height="500" style="fill:none;"/>
            <g>
                <g transform="matrix(0.239924,0,0,0.239924,0.0225514,-0.0898274)">
                    <path d="M1715.83,223.75C1795,223.75 1859.58,288.333 1859.58,367.5L1859.58,1715.83C1859.58,1795 1795,1859.58 1715.83,1859.58L367.5,1859.58C288.333,1859.58 223.75,1795 223.75,1715.83L223.75,367.5C223.75,288.333 288.333,223.75 367.5,223.75L1715.83,223.75M1715.83,152.917L367.5,152.917C248.75,152.917 152.917,249.167 152.917,367.5L152.917,1715.83C152.917,1834.58 249.167,1930.41 367.5,1930.41L1715.83,1930.41C1834.58,1930.41 1930.41,1834.16 1930.41,1715.83L1930.41,367.5C1930.41,248.75 1834.58,152.917 1715.83,152.917Z" style="fill:rgb(86,107,141);fill-rule:nonzero;"/>
                </g>
                <g transform="matrix(0.988674,0,0,0.847095,-3820.78,-492.787)">
                    <path d="M4210.56,790.604C4227.92,790.604 4242,807.034 4242,827.302L4242,999.731C4242,1020 4227.92,1036.43 4210.56,1036.43L4024.28,1036.43C4006.92,1036.43 3992.84,1020 3992.84,999.731L3992.84,827.302C3992.84,807.034 4006.92,790.604 4024.28,790.604L4210.56,790.604ZM4096.73,938.175L4096.73,995.708L4142.46,995.708L4142.46,938.175C4153.15,929.641 4160.17,915.295 4160.17,899.05C4160.17,872.91 4141.99,851.687 4119.59,851.687C4097.19,851.687 4079.01,872.91 4079.01,899.05C4079.01,915.295 4086.03,929.641 4096.73,938.175Z" style="fill:rgb(86,107,141);"/>
                    <path d="M4210.56,790.604C4227.92,790.604 4242,807.034 4242,827.302L4242,999.731C4242,1020 4227.92,1036.43 4210.56,1036.43L4024.28,1036.43C4006.92,1036.43 3992.84,1020 3992.84,999.731L3992.84,827.302C3992.84,807.034 4006.92,790.604 4024.28,790.604L4210.56,790.604ZM4210.56,810.344L4024.28,810.344C4016.26,810.344 4009.75,817.936 4009.75,827.302L4009.75,999.731C4009.75,1009.1 4016.26,1016.69 4024.28,1016.69L4210.56,1016.69C4218.58,1016.69 4225.09,1009.1 4225.09,999.731L4225.09,827.302C4225.09,817.936 4218.58,810.344 4210.56,810.344ZM4079.81,947.487C4068.89,935.272 4062.1,918.079 4062.1,899.05C4062.1,862.015 4087.86,831.947 4119.59,831.947C4151.32,831.947 4177.09,862.015 4177.09,899.05C4177.09,918.079 4170.29,935.273 4159.37,947.487L4159.37,995.708C4159.37,1006.61 4151.8,1015.45 4142.46,1015.45L4096.73,1015.45C4087.38,1015.45 4079.81,1006.61 4079.81,995.708L4079.81,947.487ZM4096.73,938.175L4096.73,995.708L4142.46,995.708L4142.46,938.175C4153.15,929.641 4160.17,915.295 4160.17,899.05C4160.17,872.91 4141.99,851.687 4119.59,851.687C4097.19,851.687 4079.01,872.91 4079.01,899.05C4079.01,915.295 4086.03,929.641 4096.73,938.175Z" style="fill:rgb(86,107,141);"/>
                </g>
                <g transform="matrix(0.820655,0,0,0.820655,-3128.04,-468.012)">
                    <path d="M4188.87,818.437L4048.9,818.438C4038.34,818.438 4029.79,809.878 4029.79,799.32C4029.79,750.111 4069.68,710.219 4118.89,710.219C4168.1,710.219 4207.99,750.111 4207.99,799.32C4207.99,809.878 4199.43,818.437 4188.87,818.437ZM4062.36,798.062L4175.41,798.062C4174.74,760.687 4156.42,742.78 4118.89,742.78C4081.35,742.78 4063.03,760.686 4062.36,798.062Z" style="fill:rgb(86,107,141);"/>
                </g>
            </g>
        </g>
    </g>
</svg>
