<svg xmlns="http://www.w3.org/2000/svg" xml:space="preserve" style="fill-rule:evenodd;clip-rule:evenodd;stroke-linejoin:round;stroke-miterlimit:2" viewBox="0 0 500 500"><path d="M0 0h500v500H0z" style="fill:none"/><path d="M1715.83 223.75c79.17 0 143.75 64.583 143.75 143.75v1348.33c0 79.17-64.58 143.75-143.75 143.75H367.5c-79.167 0-143.75-64.58-143.75-143.75V367.5c0-79.167 64.583-143.75 143.75-143.75zm0-70.833H367.5c-118.75 0-214.583 96.25-214.583 214.583v1348.33c0 118.75 96.25 214.58 214.583 214.58h1348.33c118.75 0 214.58-96.25 214.58-214.58V367.5c0-118.75-95.83-214.583-214.58-214.583" style="fill:#566b8d;fill-rule:nonzero" transform="translate(.023 -.09)scale(.23992)"/><path d="M4210.56 790.604c17.36 0 31.44 16.43 31.44 36.698v172.429c0 20.269-14.08 36.699-31.44 36.699h-186.28c-17.36 0-31.44-16.43-31.44-36.699V827.302c0-20.268 14.08-36.698 31.44-36.698zm-113.83 147.571v57.533h45.73v-57.533c10.69-8.534 17.71-22.88 17.71-39.125 0-26.14-18.18-47.363-40.58-47.363s-40.58 21.223-40.58 47.363c0 16.245 7.02 30.591 17.72 39.125" style="fill:#566b8d" transform="matrix(.98867 0 0 .8471 -3820.78 -492.787)"/><path d="M4210.56 790.604c17.36 0 31.44 16.43 31.44 36.698v172.429c0 20.269-14.08 36.699-31.44 36.699h-186.28c-17.36 0-31.44-16.43-31.44-36.699V827.302c0-20.268 14.08-36.698 31.44-36.698zm0 19.74h-186.28c-8.02 0-14.53 7.592-14.53 16.958v172.429c0 9.369 6.51 16.959 14.53 16.959h186.28c8.02 0 14.53-7.59 14.53-16.959V827.302c0-9.366-6.51-16.958-14.53-16.958m-130.75 137.143c-10.92-12.215-17.71-29.408-17.71-48.437 0-37.035 25.76-67.103 57.49-67.103s57.5 30.068 57.5 67.103c0 19.029-6.8 36.223-17.72 48.437v48.221c0 10.902-7.57 19.742-16.91 19.742h-45.73c-9.35 0-16.92-8.84-16.92-19.742zm16.92-9.312v57.533h45.73v-57.533c10.69-8.534 17.71-22.88 17.71-39.125 0-26.14-18.18-47.363-40.58-47.363s-40.58 21.223-40.58 47.363c0 16.245 7.02 30.591 17.72 39.125" style="fill:#566b8d" transform="matrix(.98867 0 0 .8471 -3820.78 -492.787)"/><path d="m4188.87 818.437-139.97.001c-10.56 0-19.11-8.56-19.11-19.118 0-49.209 39.89-89.101 89.1-89.101s89.1 39.892 89.1 89.101c0 10.558-8.56 19.117-19.12 19.117m-126.51-20.375h113.05c-.67-37.375-18.99-55.282-56.52-55.282-37.54 0-55.86 17.906-56.53 55.282" style="fill:#566b8d" transform="translate(-3128.04 -468.012)scale(.82066)"/></svg>
