<?xml version="1.0" encoding="UTF-8" standalone="no"?><!DOCTYPE svg PUBLIC "-//W3C//DTD SVG 1.1//EN" "http://www.w3.org/Graphics/SVG/1.1/DTD/svg11.dtd"><svg width="100%" height="100%" viewBox="0 0 2084 2084" version="1.1" xmlns="http://www.w3.org/2000/svg" xmlns:xlink="http://www.w3.org/1999/xlink" xml:space="preserve" xmlns:serif="http://www.serif.com/" style="fill-rule:evenodd;clip-rule:evenodd;stroke-linejoin:round;stroke-miterlimit:2;"><g><path d="M1715.83,223.75c79.167,0 143.75,64.583 143.75,143.75l0,1348.33c0,79.167 -64.583,143.75 -143.75,143.75l-1348.33,0c-79.167,0 -143.75,-64.583 -143.75,-143.75l0,-1348.33c0,-79.167 64.583,-143.75 143.75,-143.75l1348.33,0m0,-70.833l-1348.33,-0c-118.75,-0 -214.583,96.25 -214.583,214.583l-0,1348.33c-0,118.75 96.25,214.584 214.583,214.584l1348.33,-0c118.75,-0 214.584,-96.25 214.584,-214.584l-0,-1348.33c-0,-118.75 -95.834,-214.583 -214.584,-214.583Z" style="fill:#566b8d;fill-rule:nonzero;"/></g><g><g><path d="M1299.1,743.659c28.75,0 51.111,23.16 51.111,51.112l-0,493.792c-0,28.75 -23.16,51.111 -51.111,51.111l-514.868,0c-28.75,0 -51.112,-23.16 -51.112,-51.111l0,-493.792c0,-28.751 23.16,-51.112 51.112,-51.112l514.868,0m-0,-47.118l-514.868,-0c-54.306,-0 -98.23,44.722 -98.23,98.23l-0,493.792c-0,54.306 44.723,98.23 98.23,98.23l514.868,-0c54.305,-0 98.229,-44.723 98.229,-98.23l0,-493.792c0,-53.508 -43.924,-98.23 -98.229,-98.23Z" style="fill:#566b8d;fill-rule:nonzero;"/><path d="M1299.1,743.659c28.75,0 51.111,23.16 51.111,51.112l-0,493.792c-0,28.75 -23.16,51.111 -51.111,51.111l-514.868,0c-28.75,0 -51.112,-23.16 -51.112,-51.111l0,-493.792c0,-28.751 23.16,-51.112 51.112,-51.112l514.868,0m-0,-47.118l-514.868,-0c-54.306,-0 -98.23,44.722 -98.23,98.23l-0,493.792c-0,54.306 44.723,98.23 98.23,98.23l514.868,-0c54.305,-0 98.229,-44.723 98.229,-98.23l0,-493.792c0,-53.508 -43.924,-98.23 -98.229,-98.23Z" style="fill:#566b8d;fill-rule:nonzero;"/><path d="M1896.4,743.659c28.75,0 -19.813,23.16 -19.813,51.112l0,493.792c0,28.75 47.764,51.111 19.813,51.111l-299.351,0c-28.75,0 -51.111,-23.16 -51.111,-51.111l-0,-493.792c-0,-28.751 23.16,-51.112 51.111,-51.112l299.351,0m-0,-47.118l-299.351,-0c-54.306,-0 -98.23,44.722 -98.23,98.23l0,493.792c0,54.306 44.723,98.23 98.23,98.23l299.351,-0c54.306,-0 27.306,-44.723 27.306,-98.23l-0,-493.792c-0,-53.508 27,-98.23 -27.306,-98.23Z" style="fill:#566b8d;fill-rule:nonzero;"/><path d="M186.935,743.659c-28.751,0 19.812,23.16 19.812,51.112l-0,493.792c-0,28.75 -47.764,51.111 -19.812,51.111l299.35,0c28.75,0 51.112,-23.16 51.112,-51.111l-0,-493.792c-0,-28.751 -23.16,-51.112 -51.112,-51.112l-299.35,0m-0,-47.118l299.35,-0c54.306,-0 98.23,44.722 98.23,98.23l-0,493.792c-0,54.306 -44.723,98.23 -98.23,98.23l-299.35,-0c-54.306,-0 -27.307,-44.723 -27.307,-98.23l0,-493.792c0,-53.508 -26.999,-98.23 27.307,-98.23Z" style="fill:#566b8d;fill-rule:nonzero;"/></g><g><path d="M952.278,939.776l-167.526,290.045l335.677,-0l-168.151,-290.045Z" style="fill:#566b8d;fill-rule:nonzero;"/><path d="M1157.93,1030.41l-140.022,199.406l280.668,-0l-140.646,-199.406Z" style="fill:#566b8d;fill-rule:nonzero;"/><circle cx="1114.8" cy="896.644" r="43.132" style="fill:#566b8d;"/></g></g></svg>