<svg xmlns="http://www.w3.org/2000/svg" xml:space="preserve" style="fill-rule:evenodd;clip-rule:evenodd;stroke-linejoin:round;stroke-miterlimit:2" viewBox="0 0 2084 2084"><path d="M1715.83 223.75c79.167 0 143.75 64.583 143.75 143.75v1348.33c0 79.167-64.583 143.75-143.75 143.75H367.5c-79.167 0-143.75-64.583-143.75-143.75V367.5c0-79.167 64.583-143.75 143.75-143.75zm0-70.833H367.5c-118.75 0-214.583 96.25-214.583 214.583v1348.33c0 118.75 96.25 214.584 214.583 214.584h1348.33c118.75 0 214.584-96.25 214.584-214.584V367.5c0-118.75-95.834-214.583-214.584-214.583" style="fill:#566b8d;fill-rule:nonzero"/><path d="M1299.1 743.659c28.75 0 51.111 23.16 51.111 51.112v493.792c0 28.75-23.16 51.111-51.111 51.111H784.232c-28.75 0-51.112-23.16-51.112-51.111V794.771c0-28.751 23.16-51.112 51.112-51.112zm0-47.118H784.232c-54.306 0-98.23 44.722-98.23 98.23v493.792c0 54.306 44.723 98.23 98.23 98.23H1299.1c54.305 0 98.229-44.723 98.229-98.23V794.771c0-53.508-43.924-98.23-98.229-98.23" style="fill:#566b8d;fill-rule:nonzero"/><path d="M1299.1 743.659c28.75 0 51.111 23.16 51.111 51.112v493.792c0 28.75-23.16 51.111-51.111 51.111H784.232c-28.75 0-51.112-23.16-51.112-51.111V794.771c0-28.751 23.16-51.112 51.112-51.112zm0-47.118H784.232c-54.306 0-98.23 44.722-98.23 98.23v493.792c0 54.306 44.723 98.23 98.23 98.23H1299.1c54.305 0 98.229-44.723 98.229-98.23V794.771c0-53.508-43.924-98.23-98.229-98.23M1896.4 743.659c28.75 0-19.813 23.16-19.813 51.112v493.792c0 28.75 47.764 51.111 19.813 51.111h-299.351c-28.75 0-51.111-23.16-51.111-51.111V794.771c0-28.751 23.16-51.112 51.111-51.112zm0-47.118h-299.351c-54.306 0-98.23 44.722-98.23 98.23v493.792c0 54.306 44.723 98.23 98.23 98.23H1896.4c54.306 0 27.306-44.723 27.306-98.23V794.771c0-53.508 27-98.23-27.306-98.23M186.935 743.659c-28.751 0 19.812 23.16 19.812 51.112v493.792c0 28.75-47.764 51.111-19.812 51.111h299.35c28.75 0 51.112-23.16 51.112-51.111V794.771c0-28.751-23.16-51.112-51.112-51.112zm0-47.118h299.35c54.306 0 98.23 44.722 98.23 98.23v493.792c0 54.306-44.723 98.23-98.23 98.23h-299.35c-54.306 0-27.307-44.723-27.307-98.23V794.771c0-53.508-26.999-98.23 27.307-98.23" style="fill:#566b8d;fill-rule:nonzero"/><path d="m952.278 939.776-167.526 290.045h335.677z" style="fill:#566b8d;fill-rule:nonzero"/><path d="m1157.93 1030.41-140.022 199.406h280.668z" style="fill:#566b8d;fill-rule:nonzero"/><circle cx="1114.8" cy="896.644" r="43.132" style="fill:#566b8d"/></svg>
