<svg xmlns="http://www.w3.org/2000/svg" xml:space="preserve" style="fill-rule:evenodd;clip-rule:evenodd;stroke-linejoin:round;stroke-miterlimit:2" viewBox="0 0 2084 2084"><path d="M0 0h2083.33v2083.33H0z" style="fill:none"/><path d="M1715.38 223.305c79.142 0 143.705 64.563 143.705 143.705v1347.9c0 79.142-64.563 143.705-143.705 143.705H367.48c-79.142 0-143.705-64.563-143.705-143.705V367.01c0-79.142 64.563-143.705 143.705-143.705zm0-70.811H367.48c-118.713 0-214.515 96.22-214.515 214.516v1347.9c0 118.713 96.219 214.516 214.515 214.516h1347.9c118.713 0 214.517-96.219 214.517-214.516V367.01c0-118.713-95.804-214.516-214.517-214.516" style="fill:#566b8d;fill-rule:nonzero"/><path d="M1238.56 401.472a44.24 44.24 0 0 1 12.917 31.24V834.13a44.24 44.24 0 0 1-44.239 44.238H876.559a44.24 44.24 0 0 1-44.238-44.238V353.409a44.24 44.24 0 0 1 44.238-44.239h251.583a44.24 44.24 0 0 1 31.322 12.998zm-121.84-71.674H897.187c-24.432 0-44.238 19.806-44.238 44.239v439.464c0 24.433 19.806 44.239 44.238 44.239h289.423a44.24 44.24 0 0 0 44.238-44.239V442.633h-69.889c-24.432 0-44.239-19.806-44.239-44.238zm20.961 0h-.333v47.969c0 24.432 19.807 44.238 44.239 44.238h48.3zM1193.96 1357.35a44.24 44.24 0 0 1 12.916 31.24v303.203a44.24 44.24 0 0 1-44.238 44.238H920.692c-24.433 0-44.239-19.806-44.239-44.238v-360.225c0-24.432 19.806-44.238 44.239-44.238h185.073a44.24 44.24 0 0 1 31.322 12.998zm-93.313-53.759H936.953a44.24 44.24 0 0 0-44.238 44.238v327.703a44.236 44.236 0 0 0 44.238 44.238h209.424a44.24 44.24 0 0 0 44.238-44.238v-282.993h-45.73c-24.432 0-44.238-19.806-44.238-44.238zm16.523 0h-.262v28.449c0 24.432 19.806 44.238 44.238 44.238h28.711zM690.064 1357.35a44.24 44.24 0 0 1 12.916 31.24v303.203a44.234 44.234 0 0 1-44.238 44.238H416.796c-24.432 0-44.238-19.806-44.238-44.238v-360.225c0-24.432 19.806-44.238 44.238-44.238h185.073a44.24 44.24 0 0 1 31.322 12.998zm-93.312-53.759H433.057a44.24 44.24 0 0 0-44.238 44.238v327.703a44.24 44.24 0 0 0 44.238 44.238h209.424a44.24 44.24 0 0 0 44.238-44.238v-282.993H640.99c-24.432 0-44.238-19.806-44.238-44.238zm16.523 0h-.262v28.449c0 24.432 19.806 44.238 44.238 44.238h28.711zM1697.86 1357.35a44.24 44.24 0 0 1 12.916 31.24v303.203a44.234 44.234 0 0 1-44.238 44.238h-241.946c-24.432 0-44.238-19.806-44.238-44.238v-360.225c0-24.432 19.806-44.238 44.238-44.238h185.073a44.24 44.24 0 0 1 31.322 12.998zm-93.312-53.759h-163.695a44.24 44.24 0 0 0-44.238 44.238v327.703a44.24 44.24 0 0 0 44.238 44.238h209.424a44.24 44.24 0 0 0 44.238-44.238v-282.993h-45.729c-24.432 0-44.238-19.806-44.238-44.238zm16.523 0h-.262v28.449c0 24.432 19.806 44.238 44.238 44.238h28.711zM1007.07 980.114c.077-19.227 15.749-34.774 34.975-34.697s34.773 15.749 34.696 34.975l-.82 205.191c-.077 19.226-15.749 34.773-34.975 34.696-19.227-.076-34.774-15.748-34.697-34.975z" style="fill:#566b8d"/><path d="M1041.43 1063.45c19.226 0 34.836 15.609 34.836 34.836s-15.61 34.836-34.836 34.836H572.604v52.325c0 19.226-15.609 34.836-34.836 34.836s-34.836-15.61-34.836-34.836v-87.161c0-19.239 15.597-34.836 34.836-34.836z" style="fill:#566b8d"/><path d="M1041.43 1133.12c-19.227 0-34.836-15.609-34.836-34.836s15.609-34.836 34.836-34.836h503.661c19.24 0 34.836 15.597 34.836 34.836v87.161c0 19.226-15.609 34.836-34.836 34.836s-34.836-15.61-34.836-34.836v-52.325z" style="fill:#566b8d"/></svg>
