<svg xmlns="http://www.w3.org/2000/svg" xml:space="preserve" style="fill-rule:evenodd;clip-rule:evenodd;stroke-linejoin:round;stroke-miterlimit:2" viewBox="0 0 2084 2084"><path d="M0 0h2083.33v2083.33H0z" style="fill:none"/><path d="M1715.38 223.305c79.142 0 143.705 64.563 143.705 143.705v1347.9c0 79.142-64.563 143.705-143.705 143.705H367.48c-79.142 0-143.705-64.563-143.705-143.705V367.01c0-79.142 64.563-143.705 143.705-143.705zm0-70.811H367.48c-118.713 0-214.515 96.22-214.515 214.516v1347.9c0 118.713 96.219 214.516 214.515 214.516h1347.9c118.713 0 214.517-96.219 214.517-214.516V367.01c0-118.713-95.804-214.516-214.517-214.516" style="fill:#566b8d;fill-rule:nonzero"/><path d="M372.524 1498.53V583.391h1338.29v915.139zm38.683-38.683h394.518v-207.909H411.207zm1260.92 0v-207.909h-394.519v207.909zm0-701.092h-394.519v207.909h394.519zm-1260.92 246.591v207.91h394.518v-207.91zm1260.92-381.726H411.207v77.365h1260.92zm-827.719 836.227h394.518v-207.909H844.408zm827.719-246.591v-207.91h-394.519v207.91zm-433.201-454.501H844.408v207.909h394.518zm0 246.591H844.408v207.91h394.518zM805.725 758.755H411.207v207.909h394.518z" style="fill:#566b8d"/></svg>
