<?xml version="1.0" encoding="UTF-8" standalone="no"?><!DOCTYPE svg PUBLIC "-//W3C//DTD SVG 1.1//EN" "http://www.w3.org/Graphics/SVG/1.1/DTD/svg11.dtd"><svg width="100%" height="100%" viewBox="0 0 2084 2084" version="1.1" xmlns="http://www.w3.org/2000/svg" xmlns:xlink="http://www.w3.org/1999/xlink" xml:space="preserve" xmlns:serif="http://www.serif.com/" style="fill-rule:evenodd;clip-rule:evenodd;stroke-linejoin:round;stroke-miterlimit:2;"><rect id="table" x="0" y="0" width="2083.33" height="2083.33" style="fill:none;"/><g><path d="M1715.38,223.305c79.142,0 143.705,64.563 143.705,143.705l-0,1347.9c-0,79.142 -64.563,143.705 -143.705,143.705l-1347.9,-0c-79.142,-0 -143.705,-64.563 -143.705,-143.705l0,-1347.9c0,-79.142 64.563,-143.705 143.705,-143.705l1347.9,0m0,-70.811l-1347.9,0c-118.713,0 -214.515,96.22 -214.515,214.516l-0,1347.9c-0,118.713 96.219,214.516 214.515,214.516l1347.9,0c118.713,0 214.517,-96.219 214.517,-214.516l-0,-1347.9c-0,-118.713 -95.804,-214.516 -214.517,-214.516Z" style="fill:#566b8d;fill-rule:nonzero;"/><g><path d="M372.524,1498.53l0,-915.139l1338.29,-0l0,915.139l-1338.29,-0Zm38.683,-38.683l394.518,0l0,-207.909l-394.518,0l-0,207.909Zm1260.92,0l-0,-207.909l-394.519,0l0,207.909l394.519,0Zm-0,-701.092l-394.519,-0l0,207.909l394.519,-0l-0,-207.909Zm-1260.92,246.591l-0,207.91l394.518,-0l0,-207.91l-394.518,0Zm1260.92,-381.726l-1260.92,-0l-0,77.365l1260.92,-0l-0,-77.365Zm-827.719,836.227l394.518,0l-0,-207.909l-394.518,0l-0,207.909Zm827.719,-246.591l-0,-207.91l-394.519,0l0,207.91l394.519,-0Zm-433.201,-454.501l-394.518,-0l-0,207.909l394.518,-0l-0,-207.909Zm-0,246.591l-394.518,0l-0,207.91l394.518,-0l-0,-207.91Zm-433.201,-246.591l-394.518,-0l-0,207.909l394.518,-0l0,-207.909Z" style="fill:#566b8d;"/></g></g></svg>