<?xml version="1.0" encoding="UTF-8" standalone="no"?><!DOCTYPE svg PUBLIC "-//W3C//DTD SVG 1.1//EN" "http://www.w3.org/Graphics/SVG/1.1/DTD/svg11.dtd"><svg width="100%" height="100%" viewBox="0 0 2084 2084" version="1.1" xmlns="http://www.w3.org/2000/svg" xmlns:xlink="http://www.w3.org/1999/xlink" xml:space="preserve" xmlns:serif="http://www.serif.com/" style="fill-rule:evenodd;clip-rule:evenodd;stroke-linejoin:round;stroke-miterlimit:2;"><rect id="table" x="0" y="0" width="2083.33" height="2083.33" style="fill:none;"/><g><path d="M1715.38,223.305c79.142,0 143.705,64.563 143.705,143.705l-0,1347.9c-0,79.142 -64.563,143.705 -143.705,143.705l-1347.9,-0c-79.142,-0 -143.705,-64.563 -143.705,-143.705l0,-1347.9c0,-79.142 64.563,-143.705 143.705,-143.705l1347.9,0m0,-70.811l-1347.9,0c-118.713,0 -214.515,96.22 -214.515,214.516l-0,1347.9c-0,118.713 96.219,214.516 214.515,214.516l1347.9,0c118.713,0 214.517,-96.219 214.517,-214.516l-0,-1347.9c-0,-118.713 -95.804,-214.516 -214.517,-214.516Z" style="fill:#566b8d;fill-rule:nonzero;"/><g><g><rect x="372.524" y="1459.85" width="1338.29" height="38.683" style="fill:#566b8d;"/><rect x="372.524" y="1213.26" width="1338.29" height="38.683" style="fill:#566b8d;"/><rect x="372.524" y="966.666" width="1338.29" height="38.683" style="fill:#566b8d;"/><rect x="372.524" y="720.074" width="1338.29" height="38.683" style="fill:#566b8d;"/><path d="M844.408,1498.53l-38.683,-0l0,-915.139l38.683,-0l-0,915.139Z" style="fill:#566b8d;"/><path d="M1277.61,1498.53l-38.682,-0l-0,-915.139l38.682,-0l0,915.139Z" style="fill:#566b8d;"/><path d="M1710.81,1498.53l-38.682,-0l-0,-915.139l38.682,-0l0,915.139Z" style="fill:#566b8d;"/><path d="M411.207,1498.53l-38.683,-0l0,-915.139l38.683,-0l-0,915.139Z" style="fill:#566b8d;"/></g><rect x="372.524" y="583.393" width="1318.94" height="157.823" style="fill:#566b8d;"/><rect x="411.207" y="623.622" width="1260.92" height="77.365" style="fill:#fff;"/></g></g></svg>