<svg xmlns="http://www.w3.org/2000/svg" xml:space="preserve" style="fill-rule:evenodd;clip-rule:evenodd;stroke-linejoin:round;stroke-miterlimit:2" viewBox="0 0 2084 2084"><path d="M0 0h2083.33v2083.33H0z" style="fill:none"/><path d="M1715.83 223.75c79.167 0 143.75 64.583 143.75 143.75v1348.33c0 79.167-64.583 143.75-143.75 143.75H367.5c-79.167 0-143.75-64.583-143.75-143.75V367.5c0-79.167 64.583-143.75 143.75-143.75zm0-70.833H367.5c-118.75 0-214.583 96.25-214.583 214.583v1348.33c0 118.75 96.25 214.584 214.583 214.584h1348.33c118.75 0 214.584-96.25 214.584-214.584V367.5c0-118.75-95.834-214.583-214.584-214.583" style="fill:#566b8d;fill-rule:nonzero"/><path d="M603.023 1906.62c20.798-168.297 84.035-314.159 171.722-411.653 43.17-48 92.279-84.418 145.276-106.616-133.394-49.479-228.559-177.947-228.559-328.466 0-193.283 156.922-350.205 350.205-350.205s350.204 156.922 350.204 350.205c0 150.519-95.165 278.987-228.558 328.466 52.996 22.198 102.105 58.616 145.276 106.616 87.686 97.494 150.924 243.356 171.722 411.653h-46.927c-20.11-155.413-78.195-290.165-159.439-380.495-65.209-72.504-145.297-116.035-232.278-116.035s-167.07 43.531-232.279 116.035c-81.243 90.33-139.329 225.082-159.439 380.495zm438.644-543.124c167.567 0 303.611-136.044 303.611-303.611s-136.044-303.611-303.611-303.611c-167.568 0-303.611 136.044-303.611 303.611s136.043 303.611 303.611 303.611" style="fill:#566b8d"/><path d="M1878.12 1414.68c-26.467-59.907-59.646-112.42-97.98-155.043-65.21-72.504-145.298-116.035-232.279-116.035-47.547 0-93.034 13.007-135.157 36.644 10.938-33.696 17.409-69.397 18.714-106.404 35.866 14.925 75.199 23.166 116.443 23.166 167.567 0 303.611-136.043 303.611-303.611s-136.044-303.61-303.611-303.61c-146.071 0-268.187 103.377-297.115 240.897a390 390 0 0 0-42.397-23.431c38.426-151.687 175.949-264.06 339.512-264.06 193.283 0 350.204 156.921 350.204 350.204 0 150.52-95.165 278.987-228.558 328.466 52.996 22.199 102.105 58.617 145.276 106.616 22.884 25.444 44.103 54.182 63.337 85.753zM200.438 1414.68c26.466-59.907 59.645-112.42 97.98-155.043 65.21-72.504 145.298-116.035 232.279-116.035 47.547 0 93.034 13.007 135.157 36.644-10.938-33.696-17.41-69.397-18.714-106.404-35.866 14.925-75.2 23.166-116.443 23.166-167.567 0-303.611-136.043-303.611-303.611s136.044-303.61 303.611-303.61c146.071 0 268.187 103.377 297.115 240.897a390 390 0 0 1 42.397-23.431c-38.426-151.687-175.949-264.06-339.512-264.06-193.283 0-350.204 156.921-350.204 350.204 0 150.52 95.165 278.987 228.558 328.466-52.996 22.199-102.106 58.617-145.276 106.616-22.884 25.444-44.103 54.182-63.337 85.753zM1104.19 1576.16h185.124v77.365H1104.19z" style="fill:#566b8d"/><path d="M1626.4 1337.32h185.124v77.365H1626.4zM572.077 1337.32h185.124v77.365H572.077z" style="fill:#566b8d"/></svg>
