<svg xmlns="http://www.w3.org/2000/svg" xml:space="preserve" style="fill-rule:evenodd;clip-rule:evenodd;stroke-linejoin:round;stroke-miterlimit:2" viewBox="0 0 500 500"><g transform="translate(-550)"><path d="M550 0h500v500H550z" style="fill:none"/><clipPath id="a"><path d="M550 0h500v500H550z"/></clipPath><g clip-path="url(#a)"><path d="M676.905 453.216c4.992-40.391 20.169-75.398 41.214-98.796 10.361-11.52 22.147-20.261 34.866-25.588-32.015-11.875-54.854-42.707-54.854-78.832 0-46.388 37.661-84.049 84.049-84.049s84.049 37.661 84.049 84.049c0 36.125-22.84 66.957-54.854 78.832 12.719 5.327 24.505 14.068 34.866 25.588 21.045 23.398 36.222 58.405 41.213 98.796h-11.262c-4.826-37.299-18.767-69.639-38.265-91.318-15.65-17.401-34.872-27.849-55.747-27.849-20.876 0-40.097 10.448-55.747 27.849-19.498 21.679-33.439 54.019-38.265 91.318zM782.18 322.867c40.216 0 72.867-32.651 72.867-72.867s-32.651-72.867-72.867-72.867-72.867 32.651-72.867 72.867 32.651 72.867 72.867 72.867" style="fill:#566b8d" transform="translate(-195.371 -62.576)scale(1.27256)"/><path d="M866.229 403.735c-6.352-14.377-19.102-31.608-28.302-41.837-15.65-17.401-34.872-27.849-55.747-27.849-11.411 0-19.165 3.122-29.274 8.795a93.3 93.3 0 0 0 4.491-25.537c8.608 3.582 14.884 5.56 24.783 5.56 40.216 0 72.867-32.651 72.867-72.867s-32.651-72.867-72.867-72.867c-35.057 0-63.807 22.206-70.749 55.211a93 93 0 0 0-10.176-5.624c9.223-36.405 41.67-60.769 80.925-60.769 46.388 0 84.049 37.661 84.049 84.049 0 36.125-22.84 66.957-54.854 78.832 12.719 5.327 24.505 14.068 34.866 25.588 5.492 6.106 15.372 17.631 19.988 25.208z" style="fill:#566b8d" transform="translate(-.697 -124.11)scale(1.21296)"/><path d="M866.229 403.735c-6.352-14.377-19.102-31.608-28.302-41.837-15.65-17.401-34.872-27.849-55.747-27.849-11.411 0-19.351 3.494-29.46 9.167a93.3 93.3 0 0 0 4.491-25.537c8.608 3.582 15.07 5.188 24.969 5.188 40.216 0 72.867-32.651 72.867-72.867s-32.651-72.867-72.867-72.867c-35.057 0-63.621 21.146-70.563 54.151a94 94 0 0 0-10.176-5.623c9.223-36.405 41.484-59.71 80.739-59.71 46.388 0 84.049 37.661 84.049 84.049 0 36.125-22.84 66.957-54.854 78.832 12.719 5.327 24.505 14.068 34.866 25.588 5.492 6.106 15.372 17.631 19.988 25.208z" style="fill:#566b8d" transform="matrix(-1.21296 0 0 1.21296 1600.7 -124.11)"/><path d="M815.005 378.279h44.43v18.568h-44.43z" style="fill:#566b8d" transform="translate(-218.048 -68.14)scale(1.27256)"/><path d="M815.005 378.279h44.43v18.568h-44.43z" style="fill:#566b8d" transform="translate(-81.833 -145.021)scale(1.27256)"/><path d="M815.005 378.279h44.43v18.568h-44.43z" style="fill:#566b8d" transform="translate(-387.203 -141.086)scale(1.27256)"/></g></g></svg>
