<?xml version="1.0" encoding="UTF-8" standalone="no"?>
<!DOCTYPE svg PUBLIC "-//W3C//DTD SVG 1.1//EN" "http://www.w3.org/Graphics/SVG/1.1/DTD/svg11.dtd">
<svg width="100%" height="100%" viewBox="0 0 500 500" version="1.1" xmlns="http://www.w3.org/2000/svg" xmlns:xlink="http://www.w3.org/1999/xlink" xml:space="preserve" xmlns:serif="http://www.serif.com/" style="fill-rule:evenodd;clip-rule:evenodd;stroke-linejoin:round;stroke-miterlimit:2;">
    <g transform="matrix(1,0,0,1,-1664.07,-1830.01)">
        <g id="team-page" transform="matrix(1,0,0,1,1114.07,1830.01)">
            <rect x="550" y="0" width="500" height="500" style="fill:none;"/>
            <clipPath id="_clip1">
                <rect x="550" y="0" width="500" height="500"/>
            </clipPath>
            <g clip-path="url(#_clip1)">
                <g transform="matrix(0.835813,0,0,0.835813,131.212,101.119)">
                    <g transform="matrix(1,0,0,1,17.8201,4.37239)">
                        <path d="M676.905,453.216C681.897,412.825 697.074,377.818 718.119,354.42C728.48,342.9 740.266,334.159 752.985,328.832C720.97,316.957 698.131,286.125 698.131,250C698.131,203.612 735.792,165.951 782.18,165.951C828.568,165.951 866.229,203.612 866.229,250C866.229,286.125 843.389,316.957 811.375,328.832C824.094,334.159 835.88,342.9 846.241,354.42C867.286,377.818 882.463,412.825 887.454,453.216L876.192,453.216C871.366,415.917 857.425,383.577 837.927,361.898C822.277,344.497 803.055,334.049 782.18,334.049C761.304,334.049 742.083,344.497 726.433,361.898C706.935,383.577 692.994,415.917 688.168,453.216L676.905,453.216ZM782.18,322.867C822.396,322.867 855.047,290.216 855.047,250C855.047,209.784 822.396,177.133 782.18,177.133C741.964,177.133 709.313,209.784 709.313,250C709.313,290.216 741.964,322.867 782.18,322.867Z" style="fill:rgb(86,107,141);"/>
                    </g>
                    <g transform="matrix(1,0,0,1,139.306,-59.5837)">
                        <path d="M861.442,399.108C855.09,384.73 847.127,372.127 837.927,361.898C822.277,344.497 803.055,334.049 782.18,334.049C770.769,334.049 759.852,337.171 749.742,342.844C752.367,334.757 753.921,326.188 754.234,317.307C762.841,320.889 772.281,322.867 782.18,322.867C822.396,322.867 855.047,290.216 855.047,250C855.047,209.784 822.396,177.133 782.18,177.133C747.123,177.133 717.815,201.944 710.872,234.949C707.612,232.873 704.215,230.993 700.697,229.325C709.919,192.92 742.925,165.951 782.18,165.951C828.568,165.951 866.229,203.612 866.229,250C866.229,286.125 843.389,316.957 811.375,328.832C824.094,334.159 835.88,342.9 846.241,354.42C851.733,360.526 856.826,367.423 861.442,375L861.442,399.108Z" style="fill:rgb(86,107,141);"/>
                    </g>
                    <g transform="matrix(-1,0,0,1,1459.55,-59.5837)">
                        <path d="M861.442,399.108C855.09,384.73 847.127,372.127 837.927,361.898C822.277,344.497 803.055,334.049 782.18,334.049C770.769,334.049 759.852,337.171 749.742,342.844C752.367,334.757 753.921,326.188 754.234,317.307C762.841,320.889 772.281,322.867 782.18,322.867C822.396,322.867 855.047,290.216 855.047,250C855.047,209.784 822.396,177.133 782.18,177.133C747.123,177.133 717.815,201.944 710.872,234.949C707.612,232.873 704.215,230.993 700.697,229.325C709.919,192.92 742.925,165.951 782.18,165.951C828.568,165.951 866.229,203.612 866.229,250C866.229,286.125 843.389,316.957 811.375,328.832C824.094,334.159 835.88,342.9 846.241,354.42C851.733,360.526 856.826,367.423 861.442,375L861.442,399.108Z" style="fill:rgb(86,107,141);"/>
                    </g>
                    <rect x="815.005" y="378.279" width="44.43" height="18.568" style="fill:rgb(86,107,141);"/>
                    <g transform="matrix(1,0,0,1,125.332,-57.3224)">
                        <rect x="815.005" y="378.279" width="44.43" height="18.568" style="fill:rgb(86,107,141);"/>
                    </g>
                    <g transform="matrix(1,0,0,1,-127.706,-57.3224)">
                        <rect x="815.005" y="378.279" width="44.43" height="18.568" style="fill:rgb(86,107,141);"/>
                    </g>
                </g>
                <g transform="matrix(0.83786,0,0,1.17306,-793.634,-1530.72)">
                    <path d="M2118.14,1380.83C2120.51,1382.52 2121.84,1384.82 2121.84,1387.22C2121.84,1420.86 2121.84,1671.1 2121.84,1722.08C2121.84,1724.48 2120.5,1726.78 2118.12,1728.48C2115.75,1730.18 2112.53,1731.13 2109.16,1731.13L1694.76,1731.13C1691.4,1731.13 1688.17,1730.18 1685.8,1728.48C1683.42,1726.78 1682.09,1724.48 1682.09,1722.08C1682.09,1666.27 1682.09,1369.47 1682.09,1313.66C1682.09,1311.26 1683.42,1308.96 1685.8,1307.26C1688.17,1305.56 1691.4,1304.61 1694.76,1304.61L2006.44,1304.61C2009.81,1304.61 2013.04,1305.56 2015.42,1307.27C2032.25,1319.32 2101.33,1368.79 2118.14,1380.83ZM1980.46,1320.07C1980.46,1320.07 1770.64,1320.07 1716.4,1320.07C1713.04,1320.07 1709.82,1321.02 1707.44,1322.72C1705.06,1324.41 1703.73,1326.71 1703.73,1329.12C1703.73,1382.28 1703.73,1653.46 1703.73,1706.62C1703.73,1709.02 1705.06,1711.33 1707.44,1713.02C1709.82,1714.72 1713.04,1715.67 1716.4,1715.67C1775.99,1715.67 2027.93,1715.67 2087.52,1715.67C2094.52,1715.67 2100.2,1711.62 2100.2,1706.62C2100.2,1655.45 2100.2,1404.62 2100.2,1404.62L1993.13,1404.62C1986.13,1404.62 1980.46,1400.56 1980.46,1395.57C1980.46,1373.75 1980.46,1320.07 1980.46,1320.07ZM2002.45,1320.07L2002.1,1320.07C2002.1,1320.07 2002.1,1361.37 2002.1,1380.11C2002.1,1385.11 2007.78,1389.16 2014.77,1389.16C2041.08,1389.16 2099.19,1389.16 2099.19,1389.16L2002.45,1320.07Z" style="fill:rgb(86,107,141);"/>
                </g>
            </g>
        </g>
    </g>
</svg>
