<svg xmlns="http://www.w3.org/2000/svg" xml:space="preserve" style="fill-rule:evenodd;clip-rule:evenodd;stroke-linejoin:round;stroke-miterlimit:2" viewBox="0 0 500 500"><g transform="translate(-550)"><path d="M550 0h500v500H550z" style="fill:none"/><clipPath id="a"><path d="M550 0h500v500H550z"/></clipPath><g clip-path="url(#a)"><path d="M676.905 453.216c4.992-40.391 20.169-75.398 41.214-98.796 10.361-11.52 22.147-20.261 34.866-25.588-32.015-11.875-54.854-42.707-54.854-78.832 0-46.388 37.661-84.049 84.049-84.049s84.049 37.661 84.049 84.049c0 36.125-22.84 66.957-54.854 78.832 12.719 5.327 24.505 14.068 34.866 25.588 21.045 23.398 36.222 58.405 41.213 98.796h-11.262c-4.826-37.299-18.767-69.639-38.265-91.318-15.65-17.401-34.872-27.849-55.747-27.849-20.876 0-40.097 10.448-55.747 27.849-19.498 21.679-33.439 54.019-38.265 91.318zM782.18 322.867c40.216 0 72.867-32.651 72.867-72.867s-32.651-72.867-72.867-72.867-72.867 32.651-72.867 72.867 32.651 72.867 72.867 72.867" style="fill:#566b8d" transform="translate(146.106 104.774)scale(.83581)"/><path d="M861.442 399.108c-6.352-14.378-14.315-26.981-23.515-37.21-15.65-17.401-34.872-27.849-55.747-27.849-11.411 0-22.328 3.122-32.438 8.795a93.3 93.3 0 0 0 4.492-25.537c8.607 3.582 18.047 5.56 27.946 5.56 40.216 0 72.867-32.651 72.867-72.867s-32.651-72.867-72.867-72.867c-35.057 0-64.365 24.811-71.308 57.816a94 94 0 0 0-10.175-5.624c9.222-36.405 42.228-63.374 81.483-63.374 46.388 0 84.049 37.661 84.049 84.049 0 36.125-22.84 66.957-54.854 78.832 12.719 5.327 24.505 14.068 34.866 25.588 5.492 6.106 10.585 13.003 15.201 20.58z" style="fill:#566b8d" transform="translate(247.646 51.318)scale(.83581)"/><path d="M861.442 399.108c-6.352-14.378-14.315-26.981-23.515-37.21-15.65-17.401-34.872-27.849-55.747-27.849-11.411 0-22.328 3.122-32.438 8.795a93.3 93.3 0 0 0 4.492-25.537c8.607 3.582 18.047 5.56 27.946 5.56 40.216 0 72.867-32.651 72.867-72.867s-32.651-72.867-72.867-72.867c-35.057 0-64.365 24.811-71.308 57.816a94 94 0 0 0-10.175-5.624c9.222-36.405 42.228-63.374 81.483-63.374 46.388 0 84.049 37.661 84.049 84.049 0 36.125-22.84 66.957-54.854 78.832 12.719 5.327 24.505 14.068 34.866 25.588 5.492 6.106 10.585 13.003 15.201 20.58z" style="fill:#566b8d" transform="matrix(-.83581 0 0 .83581 1351.123 51.318)"/><path d="M815.005 378.279h44.43v18.568h-44.43z" style="fill:#566b8d" transform="translate(131.212 101.119)scale(.83581)"/><path d="M815.005 378.279h44.43v18.568h-44.43z" style="fill:#566b8d" transform="translate(235.966 53.208)scale(.83581)"/><path d="M815.005 378.279h44.43v18.568h-44.43z" style="fill:#566b8d" transform="translate(24.474 53.208)scale(.83581)"/><path d="M2118.14 1380.83c2.37 1.69 3.7 3.99 3.7 6.39v334.86c0 2.4-1.34 4.7-3.72 6.4-2.37 1.7-5.59 2.65-8.96 2.65h-414.4c-3.36 0-6.59-.95-8.96-2.65-2.38-1.7-3.71-4-3.71-6.4v-408.42c0-2.4 1.33-4.7 3.71-6.4 2.37-1.7 5.6-2.65 8.96-2.65h311.68c3.37 0 6.6.95 8.98 2.66 16.83 12.05 85.91 61.52 102.72 73.56m-137.68-60.76H1716.4c-3.36 0-6.58.95-8.96 2.65-2.38 1.69-3.71 3.99-3.71 6.4v377.5c0 2.4 1.33 4.71 3.71 6.4 2.38 1.7 5.6 2.65 8.96 2.65h371.12c7 0 12.68-4.05 12.68-9.05v-302h-107.07c-7 0-12.67-4.06-12.67-9.05zm21.99 0h-.35v60.04c0 5 5.68 9.05 12.67 9.05h84.42z" style="fill:#566b8d" transform="matrix(.83786 0 0 1.17306 -793.634 -1530.72)"/></g></g></svg>
