<?xml version="1.0" encoding="UTF-8" standalone="no"?><!DOCTYPE svg PUBLIC "-//W3C//DTD SVG 1.1//EN" "http://www.w3.org/Graphics/SVG/1.1/DTD/svg11.dtd"><svg width="100%" height="100%" viewBox="0 0 2084 2084" version="1.1" xmlns="http://www.w3.org/2000/svg" xmlns:xlink="http://www.w3.org/1999/xlink" xml:space="preserve" xmlns:serif="http://www.serif.com/" style="fill-rule:evenodd;clip-rule:evenodd;stroke-linejoin:round;stroke-miterlimit:2;"><rect id="team" x="0" y="0" width="2083.33" height="2083.33" style="fill:none;"/><path d="M1715.83,223.75c79.167,0 143.75,64.583 143.75,143.75l0,1348.33c0,79.167 -64.583,143.75 -143.75,143.75l-1348.33,0c-79.167,0 -143.75,-64.583 -143.75,-143.75l0,-1348.33c0,-79.167 64.583,-143.75 143.75,-143.75l1348.33,0m0,-70.833l-1348.33,-0c-118.75,-0 -214.583,96.25 -214.583,214.583l-0,1348.33c-0,118.75 96.25,214.584 214.583,214.584l1348.33,-0c118.75,-0 214.584,-96.25 214.584,-214.584l-0,-1348.33c-0,-118.75 -95.834,-214.583 -214.584,-214.583Z" style="fill:#566b8d;fill-rule:nonzero;"/><path d="M603.023,1906.62c20.798,-168.297 84.035,-314.159 171.722,-411.653c43.17,-48 92.279,-84.418 145.276,-106.616c-133.394,-49.479 -228.559,-177.947 -228.559,-328.466c0,-193.283 156.922,-350.205 350.205,-350.205c193.283,0 350.204,156.922 350.204,350.205c0,150.519 -95.165,278.987 -228.558,328.466c52.996,22.198 102.105,58.616 145.276,106.616c87.686,97.494 150.924,243.356 171.722,411.653l-46.927,-0c-20.11,-155.413 -78.195,-290.165 -159.439,-380.495c-65.209,-72.504 -145.297,-116.035 -232.278,-116.035c-86.981,-0 -167.07,43.531 -232.279,116.035c-81.243,90.33 -139.329,225.082 -159.439,380.495l-46.926,-0Zm438.644,-543.124c167.567,-0 303.611,-136.044 303.611,-303.611c-0,-167.567 -136.044,-303.611 -303.611,-303.611c-167.568,0 -303.611,136.044 -303.611,303.611c-0,167.567 136.043,303.611 303.611,303.611Z" style="fill:#566b8d;"/><path d="M1878.12,1414.68c-26.467,-59.907 -59.646,-112.42 -97.98,-155.043c-65.21,-72.504 -145.298,-116.035 -232.279,-116.035c-47.547,-0 -93.034,13.007 -135.157,36.644c10.938,-33.696 17.409,-69.397 18.714,-106.404c35.866,14.925 75.199,23.166 116.443,23.166c167.567,0 303.611,-136.043 303.611,-303.611c-0,-167.567 -136.044,-303.61 -303.611,-303.61c-146.071,-0 -268.187,103.377 -297.115,240.897c-13.585,-8.651 -27.741,-16.484 -42.397,-23.431c38.426,-151.687 175.949,-264.06 339.512,-264.06c193.283,-0 350.204,156.921 350.204,350.204c0,150.52 -95.165,278.987 -228.558,328.466c52.996,22.199 102.105,58.617 145.276,106.616c22.884,25.444 44.103,54.182 63.337,85.753l-0,100.448Z" style="fill:#566b8d;"/><path d="M200.438,1414.68c26.466,-59.907 59.645,-112.42 97.98,-155.043c65.21,-72.504 145.298,-116.035 232.279,-116.035c47.547,-0 93.034,13.007 135.157,36.644c-10.938,-33.696 -17.41,-69.397 -18.714,-106.404c-35.866,14.925 -75.2,23.166 -116.443,23.166c-167.567,0 -303.611,-136.043 -303.611,-303.611c0,-167.567 136.044,-303.61 303.611,-303.61c146.071,-0 268.187,103.377 297.115,240.897c13.585,-8.651 27.74,-16.484 42.397,-23.431c-38.426,-151.687 -175.949,-264.06 -339.512,-264.06c-193.283,-0 -350.204,156.921 -350.204,350.204c-0,150.52 95.165,278.987 228.558,328.466c-52.996,22.199 -102.106,58.617 -145.276,106.616c-22.884,25.444 -44.103,54.182 -63.337,85.753l0,100.448Z" style="fill:#566b8d;"/><rect x="1104.19" y="1576.16" width="185.124" height="77.365" style="fill:#566b8d;"/><rect x="1626.4" y="1337.32" width="185.124" height="77.365" style="fill:#566b8d;"/><rect x="572.077" y="1337.32" width="185.124" height="77.365" style="fill:#566b8d;"/></svg>