<?xml version="1.0" encoding="UTF-8" standalone="no"?><!DOCTYPE svg PUBLIC "-//W3C//DTD SVG 1.1//EN" "http://www.w3.org/Graphics/SVG/1.1/DTD/svg11.dtd"><svg width="100%" height="100%" viewBox="0 0 500 500" version="1.1" xmlns="http://www.w3.org/2000/svg" xmlns:xlink="http://www.w3.org/1999/xlink" xml:space="preserve" xmlns:serif="http://www.serif.com/" style="fill-rule:evenodd;clip-rule:evenodd;stroke-linejoin:round;stroke-miterlimit:2;"><rect id="teaser" x="0" y="0" width="500" height="500" style="fill:none;"/><g><path d="M411.692,53.593c18.994,0 34.489,15.495 34.489,34.489l-0,323.497c-0,18.994 -15.495,34.489 -34.489,34.489l-323.497,0c-18.994,0 -34.489,-15.495 -34.489,-34.489l-0,-323.497c-0,-18.994 15.495,-34.489 34.489,-34.489l323.497,0m-0,-16.994l-323.497,-0c-28.491,-0 -51.484,23.092 -51.484,51.483l0,323.497c0,28.491 23.093,51.484 51.484,51.484l323.497,0c28.491,0 51.484,-23.092 51.484,-51.484l-0,-323.497c-0,-28.491 -22.993,-51.483 -51.484,-51.483Z" style="fill:#566b8d;fill-rule:nonzero;"/></g><g><g><g><path d="M71.622,168.496l-0,80.456c-0,8.486 5.857,15.35 12.864,15.35l137.768,0c7.112,0 12.865,-6.988 12.865,-15.35l-0,-80.456c-0,-8.487 -5.858,-15.35 -12.865,-15.35l-137.768,-0c-7.007,-0 -12.864,6.863 -12.864,15.35Z" style="fill:#566b8d;fill-rule:nonzero;"/></g><g><path d="M139.402,192.802l-26.179,45.324l52.455,-0l-26.276,-45.324Z" style="fill:#fff;fill-rule:nonzero;"/><path d="M171.538,206.965l-21.88,31.16l43.859,0l-21.979,-31.16Z" style="fill:#fff;fill-rule:nonzero;"/><circle cx="164.799" cy="186.062" r="6.74" style="fill:#fff;"/></g></g><rect x="78.182" y="276.512" width="150.376" height="15.308" style="fill:#566b8d;"/><rect x="78.182" y="304.029" width="150.376" height="15.308" style="fill:#566b8d;"/><rect x="103.695" y="331.547" width="99.35" height="15.308" style="fill:#566b8d;"/></g><g><g><g><path d="M264.881,168.496l0,80.456c0,8.486 5.858,15.35 12.865,15.35l137.768,0c7.112,0 12.864,-6.988 12.864,-15.35l0,-80.456c0,-8.487 -5.857,-15.35 -12.864,-15.35l-137.768,-0c-7.007,-0 -12.865,6.863 -12.865,15.35Z" style="fill:#566b8d;fill-rule:nonzero;"/></g><g><path d="M332.662,192.802l-26.179,45.324l52.455,-0l-26.276,-45.324Z" style="fill:#fff;fill-rule:nonzero;"/><path d="M364.798,206.965l-21.881,31.16l43.859,0l-21.978,-31.16Z" style="fill:#fff;fill-rule:nonzero;"/><circle cx="358.058" cy="186.062" r="6.74" style="fill:#fff;"/></g></g><rect x="271.442" y="276.512" width="150.376" height="15.308" style="fill:#566b8d;"/><rect x="271.442" y="304.029" width="150.376" height="15.308" style="fill:#566b8d;"/><rect x="296.955" y="331.547" width="99.35" height="15.308" style="fill:#566b8d;"/></g></svg>