<svg xmlns="http://www.w3.org/2000/svg" xml:space="preserve" style="fill-rule:evenodd;clip-rule:evenodd;stroke-linejoin:round;stroke-miterlimit:2" viewBox="0 0 500 500"><path d="M0 0h500v500H0z" style="fill:none"/><path d="M411.692 53.593c18.994 0 34.489 15.495 34.489 34.489v323.497c0 18.994-15.495 34.489-34.489 34.489H88.195c-18.994 0-34.489-15.495-34.489-34.489V88.082c0-18.994 15.495-34.489 34.489-34.489zm0-16.994H88.195c-28.491 0-51.484 23.092-51.484 51.483v323.497c0 28.491 23.093 51.484 51.484 51.484h323.497c28.491 0 51.484-23.092 51.484-51.484V88.082c0-28.491-22.993-51.483-51.484-51.483" style="fill:#566b8d;fill-rule:nonzero"/><path d="M71.622 168.496v80.456c0 8.486 5.857 15.35 12.864 15.35h137.768c7.112 0 12.865-6.988 12.865-15.35v-80.456c0-8.487-5.858-15.35-12.865-15.35H84.486c-7.007 0-12.864 6.863-12.864 15.35" style="fill:#566b8d;fill-rule:nonzero"/><path d="m139.402 192.802-26.179 45.324h52.455z" style="fill:#fff;fill-rule:nonzero"/><path d="m171.538 206.965-21.88 31.16h43.859z" style="fill:#fff;fill-rule:nonzero"/><circle cx="164.799" cy="186.062" r="6.74" style="fill:#fff"/><path d="M78.182 276.512h150.376v15.308H78.182zM78.182 304.029h150.376v15.308H78.182zM103.695 331.547h99.35v15.308h-99.35z" style="fill:#566b8d"/><path d="M264.881 168.496v80.456c0 8.486 5.858 15.35 12.865 15.35h137.768c7.112 0 12.864-6.988 12.864-15.35v-80.456c0-8.487-5.857-15.35-12.864-15.35H277.746c-7.007 0-12.865 6.863-12.865 15.35" style="fill:#566b8d;fill-rule:nonzero"/><path d="m332.662 192.802-26.179 45.324h52.455z" style="fill:#fff;fill-rule:nonzero"/><path d="m364.798 206.965-21.881 31.16h43.859z" style="fill:#fff;fill-rule:nonzero"/><circle cx="358.058" cy="186.062" r="6.74" style="fill:#fff"/><path d="M271.442 276.512h150.376v15.308H271.442zM271.442 304.029h150.376v15.308H271.442zM296.955 331.547h99.35v15.308h-99.35z" style="fill:#566b8d"/></svg>
