<svg xmlns="http://www.w3.org/2000/svg" xml:space="preserve" style="fill-rule:evenodd;clip-rule:evenodd;stroke-linejoin:round;stroke-miterlimit:2" viewBox="0 0 2084 2084"><path d="M0 0h2083.33v2083.33H0z" style="fill:none"/><path d="M1715.83 223.75c79.167 0 143.75 64.583 143.75 143.75v1348.33c0 79.167-64.583 143.75-143.75 143.75H367.5c-79.167 0-143.75-64.583-143.75-143.75V367.5c0-79.167 64.583-143.75 143.75-143.75zm0-70.833H367.5c-118.75 0-214.583 96.25-214.583 214.583v1348.33c0 118.75 96.25 214.584 214.583 214.584h1348.33c118.75 0 214.584-96.25 214.584-214.584V367.5c0-118.75-95.834-214.583-214.584-214.583" style="fill:#566b8d;fill-rule:nonzero"/><path d="m1267.46 884.228-258.856 448.169h518.679z" style="fill:#566b8d;fill-rule:nonzero"/><path d="m1585.24 1024.28-216.358 308.116h433.681z" style="fill:#566b8d;fill-rule:nonzero"/><circle cx="1518.59" cy="817.582" r="66.646" style="fill:#566b8d"/><path d="M314.106 784.717h618.921v77.365H314.106zM314.106 930.228h618.921v77.365H314.106zM314.106 1075.74h618.921v77.365H314.106zM314.106 1221.25h419.982v77.365H314.106z" style="fill:#566b8d"/></svg>
