<?xml version="1.0" encoding="UTF-8" standalone="no"?><!DOCTYPE svg PUBLIC "-//W3C//DTD SVG 1.1//EN" "http://www.w3.org/Graphics/SVG/1.1/DTD/svg11.dtd"><svg width="100%" height="100%" viewBox="0 0 2084 2084" version="1.1" xmlns="http://www.w3.org/2000/svg" xmlns:xlink="http://www.w3.org/1999/xlink" xml:space="preserve" xmlns:serif="http://www.serif.com/" style="fill-rule:evenodd;clip-rule:evenodd;stroke-linejoin:round;stroke-miterlimit:2;"><rect id="textimage" x="0" y="0" width="2083.33" height="2083.33" style="fill:none;"/><g><path d="M1715.83,223.75c79.167,0 143.75,64.583 143.75,143.75l0,1348.33c0,79.167 -64.583,143.75 -143.75,143.75l-1348.33,0c-79.167,0 -143.75,-64.583 -143.75,-143.75l0,-1348.33c0,-79.167 64.583,-143.75 143.75,-143.75l1348.33,0m0,-70.833l-1348.33,-0c-118.75,-0 -214.583,96.25 -214.583,214.583l-0,1348.33c-0,118.75 96.25,214.584 214.583,214.584l1348.33,-0c118.75,-0 214.584,-96.25 214.584,-214.584l-0,-1348.33c-0,-118.75 -95.834,-214.583 -214.584,-214.583Z" style="fill:#566b8d;fill-rule:nonzero;"/></g><g><g><path d="M1267.46,884.228l-258.856,448.169l518.679,0l-259.823,-448.169Z" style="fill:#566b8d;fill-rule:nonzero;"/><path d="M1585.24,1024.28l-216.358,308.116l433.681,0l-217.323,-308.116Z" style="fill:#566b8d;fill-rule:nonzero;"/><circle cx="1518.59" cy="817.582" r="66.646" style="fill:#566b8d;"/></g><g><rect x="314.106" y="784.717" width="618.921" height="77.365" style="fill:#566b8d;"/><rect x="314.106" y="930.228" width="618.921" height="77.365" style="fill:#566b8d;"/><rect x="314.106" y="1075.74" width="618.921" height="77.365" style="fill:#566b8d;"/><rect x="314.106" y="1221.25" width="419.982" height="77.365" style="fill:#566b8d;"/></g></g></svg>