<svg xmlns="http://www.w3.org/2000/svg" xml:space="preserve" style="fill-rule:evenodd;clip-rule:evenodd;stroke-linejoin:round;stroke-miterlimit:2" viewBox="0 0 500 500"><path d="M0 0h500v500H0z" style="fill:none"/><path d="m3428.68 286.28.25-50.596c0-.795 1.44-1.434 1.44-1.434l112.06-43.384 112.06 44.052-113.09 36.067-109.59-34.848-.24 49.708c2.23.504 7.66 2.293 8.07 7.81.52 6.956-2.83 7.987-2.83 7.987s3.86 9.274 5.66 21.897c1.45 10.089 2.84 28.338 2.84 28.338h-28.6s-.51-5.925.78-22.413c1.28-16.487 7.47-28.853 7.47-28.853s-2.58-.257-3.35-6.44c-.55-4.408 4.26-6.851 7.07-7.891m46.51-29.722 67.24 21.383 66.47-20.867.77 29.883c-33.14 1.907-52.92 11.228-67.5 23.444-13.9-12.995-35.04-21.699-67.49-23.701z" style="fill:#566b8d" transform="matrix(1.89047 0 0 2.11473 -6433.83 -323.83)"/></svg>
