<?xml version="1.0" encoding="UTF-8" standalone="no"?>
<!DOCTYPE svg PUBLIC "-//W3C//DTD SVG 1.1//EN" "http://www.w3.org/Graphics/SVG/1.1/DTD/svg11.dtd">
<svg width="100%" height="100%" viewBox="0 0 500 500" version="1.1" xmlns="http://www.w3.org/2000/svg" xmlns:xlink="http://www.w3.org/1999/xlink" xml:space="preserve" xmlns:serif="http://www.serif.com/" style="fill-rule:evenodd;clip-rule:evenodd;stroke-linejoin:round;stroke-miterlimit:2;">
    <g transform="matrix(1,0,0,1,-2214.85,-1832.92)">
        <g id="tutorial-page" transform="matrix(1,0,0,1,2214.85,1832.92)">
            <rect x="0" y="0" width="500" height="500" style="fill:none;"/>
            <clipPath id="_clip1">
                <rect x="0" y="0" width="500" height="500"/>
            </clipPath>
            <g clip-path="url(#_clip1)">
                <g>
                    <g transform="matrix(1.24633,0,0,1.39418,-4156.46,-54.5936)">
                        <path d="M3428.68,286.28L3428.93,235.684C3428.93,234.889 3430.37,234.25 3430.37,234.25L3542.43,190.866L3654.49,234.918L3541.4,270.985L3431.81,236.137L3431.57,285.845C3433.8,286.349 3439.23,288.138 3439.64,293.655C3440.16,300.611 3436.81,301.642 3436.81,301.642C3436.81,301.642 3440.67,310.916 3442.47,323.539C3443.92,333.628 3445.31,351.877 3445.31,351.877L3416.71,351.877C3416.71,351.877 3416.2,345.952 3417.49,329.464C3418.77,312.977 3424.96,300.611 3424.96,300.611C3424.96,300.611 3422.38,300.354 3421.61,294.171C3421.06,289.763 3425.87,287.32 3428.68,286.28ZM3475.19,256.558L3542.43,277.941L3608.9,257.074L3609.67,286.957C3576.53,288.864 3556.75,298.185 3542.17,310.401C3528.27,297.406 3507.13,288.702 3474.68,286.7L3475.19,256.558Z" style="fill:rgb(86,107,141);"/>
                    </g>
                    <g transform="matrix(0.83786,0,0,1.17306,-1343.63,-1530.72)">
                        <path d="M2118.14,1380.83C2120.51,1382.52 2121.84,1384.82 2121.84,1387.22C2121.84,1420.86 2121.84,1671.1 2121.84,1722.08C2121.84,1724.48 2120.5,1726.78 2118.12,1728.48C2115.75,1730.18 2112.53,1731.13 2109.16,1731.13L1694.76,1731.13C1691.4,1731.13 1688.17,1730.18 1685.8,1728.48C1683.42,1726.78 1682.09,1724.48 1682.09,1722.08C1682.09,1666.27 1682.09,1369.47 1682.09,1313.66C1682.09,1311.26 1683.42,1308.96 1685.8,1307.26C1688.17,1305.56 1691.4,1304.61 1694.76,1304.61L2006.44,1304.61C2009.81,1304.61 2013.04,1305.56 2015.42,1307.27C2032.25,1319.32 2101.33,1368.79 2118.14,1380.83ZM1980.46,1320.07C1980.46,1320.07 1770.64,1320.07 1716.4,1320.07C1713.04,1320.07 1709.82,1321.02 1707.44,1322.72C1705.06,1324.41 1703.73,1326.71 1703.73,1329.12C1703.73,1382.28 1703.73,1653.46 1703.73,1706.62C1703.73,1709.02 1705.06,1711.33 1707.44,1713.02C1709.82,1714.72 1713.04,1715.67 1716.4,1715.67C1775.99,1715.67 2027.93,1715.67 2087.52,1715.67C2094.52,1715.67 2100.2,1711.62 2100.2,1706.62C2100.2,1655.45 2100.2,1404.62 2100.2,1404.62L1993.13,1404.62C1986.13,1404.62 1980.46,1400.56 1980.46,1395.57C1980.46,1373.75 1980.46,1320.07 1980.46,1320.07ZM2002.45,1320.07L2002.1,1320.07C2002.1,1320.07 2002.1,1361.37 2002.1,1380.11C2002.1,1385.11 2007.78,1389.16 2014.77,1389.16C2041.08,1389.16 2099.19,1389.16 2099.19,1389.16L2002.45,1320.07Z" style="fill:rgb(86,107,141);"/>
                    </g>
                </g>
            </g>
        </g>
    </g>
</svg>
