<svg xmlns="http://www.w3.org/2000/svg" xml:space="preserve" style="fill-rule:evenodd;clip-rule:evenodd;stroke-linejoin:round;stroke-miterlimit:2" viewBox="0 0 500 500"><g><path d="M0 0h500v500H0z" style="fill:none"/><clipPath id="a"><path d="M0 0h500v500H0z"/></clipPath><g clip-path="url(#a)"><path d="m3428.68 286.28.25-50.596c0-.795 1.44-1.434 1.44-1.434l112.06-43.384 112.06 44.052-113.09 36.067-109.59-34.848-.24 49.708c2.23.504 7.66 2.293 8.07 7.81.52 6.956-2.83 7.987-2.83 7.987s3.86 9.274 5.66 21.897c1.45 10.089 2.84 28.338 2.84 28.338h-28.6s-.51-5.925.78-22.413c1.28-16.487 7.47-28.853 7.47-28.853s-2.58-.257-3.35-6.44c-.55-4.408 4.26-6.851 7.07-7.891m46.51-29.722 67.24 21.383 66.47-20.867.77 29.883c-33.14 1.907-52.92 11.228-67.5 23.444-13.9-12.995-35.04-21.699-67.49-23.701z" style="fill:#566b8d" transform="matrix(1.24633 0 0 1.39418 -4156.46 -54.594)"/><path d="M2118.14 1380.83c2.37 1.69 3.7 3.99 3.7 6.39v334.86c0 2.4-1.34 4.7-3.72 6.4-2.37 1.7-5.59 2.65-8.96 2.65h-414.4c-3.36 0-6.59-.95-8.96-2.65-2.38-1.7-3.71-4-3.71-6.4v-408.42c0-2.4 1.33-4.7 3.71-6.4 2.37-1.7 5.6-2.65 8.96-2.65h311.68c3.37 0 6.6.95 8.98 2.66 16.83 12.05 85.91 61.52 102.72 73.56m-137.68-60.76H1716.4c-3.36 0-6.58.95-8.96 2.65-2.38 1.69-3.71 3.99-3.71 6.4v377.5c0 2.4 1.33 4.71 3.71 6.4 2.38 1.7 5.6 2.65 8.96 2.65h371.12c7 0 12.68-4.05 12.68-9.05v-302h-107.07c-7 0-12.67-4.06-12.67-9.05zm21.99 0h-.35v60.04c0 5 5.68 9.05 12.67 9.05h84.42z" style="fill:#566b8d" transform="matrix(.83786 0 0 1.17306 -1343.63 -1530.72)"/></g></g></svg>
