<svg xmlns="http://www.w3.org/2000/svg" xml:space="preserve" style="fill-rule:evenodd;clip-rule:evenodd;stroke-linejoin:round;stroke-miterlimit:2" viewBox="0 0 2084 2084"><path d="M0 0h2083.33v2083.33H0z" style="fill:none"/><path d="M1715.38 223.305c79.142 0 143.705 64.563 143.705 143.705v1347.9c0 79.142-64.563 143.705-143.705 143.705H367.48c-79.142 0-143.705-64.563-143.705-143.705V367.01c0-79.142 64.563-143.705 143.705-143.705zm0-70.811H367.48c-118.713 0-214.515 96.22-214.515 214.516v1347.9c0 118.713 96.219 214.516 214.515 214.516h1347.9c118.713 0 214.517-96.219 214.517-214.516V367.01c0-118.713-95.804-214.516-214.517-214.516" style="fill:#566b8d;fill-rule:nonzero"/><path d="m381.834 1144.63 1.488-349.443c.023-5.495 8.943-9.909 8.943-9.909l691.867-299.639 691.909 304.257-698.272 249.1L401.11 798.314l-1.461 343.313c13.768 3.483 47.312 15.841 49.835 53.945 3.181 48.041-17.496 55.158-17.496 55.158s23.858 64.054 34.993 151.239c8.898 69.681 17.496 195.721 17.496 195.721H307.921s-3.181-40.924 4.772-154.798 46.127-199.279 46.127-199.279-15.906-1.779-20.678-44.482c-3.401-30.439 26.333-47.317 43.692-54.501m287.152-205.274 415.146 147.68 410.373-144.121 4.772 206.396c-204.572 13.167-326.739 77.544-416.736 161.915-85.835-89.749-216.375-149.863-416.736-163.694z" style="fill:#566b8d"/></svg>
