<?xml version="1.0" encoding="UTF-8" standalone="no"?><!DOCTYPE svg PUBLIC "-//W3C//DTD SVG 1.1//EN" "http://www.w3.org/Graphics/SVG/1.1/DTD/svg11.dtd"><svg width="100%" height="100%" viewBox="0 0 2084 2084" version="1.1" xmlns="http://www.w3.org/2000/svg" xmlns:xlink="http://www.w3.org/1999/xlink" xml:space="preserve" xmlns:serif="http://www.serif.com/" style="fill-rule:evenodd;clip-rule:evenodd;stroke-linejoin:round;stroke-miterlimit:2;"><rect id="tutorial" x="0" y="0" width="2083.33" height="2083.33" style="fill:none;"/><g><path d="M1715.38,223.305c79.142,0 143.705,64.563 143.705,143.705l-0,1347.9c-0,79.142 -64.563,143.705 -143.705,143.705l-1347.9,-0c-79.142,-0 -143.705,-64.563 -143.705,-143.705l0,-1347.9c0,-79.142 64.563,-143.705 143.705,-143.705l1347.9,0m0,-70.811l-1347.9,0c-118.713,0 -214.515,96.22 -214.515,214.516l-0,1347.9c-0,118.713 96.219,214.516 214.515,214.516l1347.9,0c118.713,0 214.517,-96.219 214.517,-214.516l-0,-1347.9c-0,-118.713 -95.804,-214.516 -214.517,-214.516Z" style="fill:#566b8d;fill-rule:nonzero;"/><path d="M381.834,1144.63l1.488,-349.443c0.023,-5.495 8.943,-9.909 8.943,-9.909l691.867,-299.639l691.909,304.257l-698.272,249.1l-676.659,-240.682l-1.461,343.313c13.768,3.483 47.312,15.841 49.835,53.945c3.181,48.041 -17.496,55.158 -17.496,55.158c-0,0 23.858,64.054 34.993,151.239c8.898,69.681 17.496,195.721 17.496,195.721l-176.556,-0c0,-0 -3.181,-40.924 4.772,-154.798c7.953,-113.874 46.127,-199.279 46.127,-199.279c0,0 -15.906,-1.779 -20.678,-44.482c-3.401,-30.439 26.333,-47.317 43.692,-54.501Zm287.152,-205.274l415.146,147.68l410.373,-144.121l4.772,206.396c-204.572,13.167 -326.739,77.544 -416.736,161.915c-85.835,-89.749 -216.375,-149.863 -416.736,-163.694l3.181,-208.176Z" style="fill:#566b8d;"/></g></svg>