<svg xmlns="http://www.w3.org/2000/svg" xml:space="preserve" style="fill-rule:evenodd;clip-rule:evenodd;stroke-linejoin:round;stroke-miterlimit:2" viewBox="0 0 2084 2084"><path d="M0 0h2083.33v2083.33H0z" style="fill:none"/><path d="M1715.38 223.305c79.142 0 143.705 64.563 143.705 143.705v1347.9c0 79.142-64.563 143.705-143.705 143.705H367.48c-79.142 0-143.705-64.563-143.705-143.705V367.01c0-79.142 64.563-143.705 143.705-143.705zm0-70.811H367.48c-118.713 0-214.515 96.22-214.515 214.516v1347.9c0 118.713 96.219 214.516 214.515 214.516h1347.9c118.713 0 214.517-96.219 214.517-214.516V367.01c0-118.713-95.804-214.516-214.517-214.516" style="fill:#566b8d;fill-rule:nonzero"/><path d="M425.61 713.175c0-36.607 24.715-65.079 54.542-65.079h1122.56c30.68 0 54.543 29.49 54.543 65.079v655.578c0 36.607-24.714 65.081-54.543 65.081H480.152c-30.68 0-54.542-29.49-54.542-65.081zm-50.283 0v655.578c0 69.148 47.726 125.076 104.825 125.076h1122.56c57.952 0 104.825-56.946 104.825-125.076V713.175c0-69.146-47.725-125.074-104.825-125.074H480.152c-57.099 0-104.825 55.928-104.825 125.074" style="fill:#566b8d;fill-rule:nonzero"/><path d="m1261.98 1005.74-377.371 272.545V733.194zM532.58 1355.02h1081.43v36.601H532.58z" style="fill:#566b8d"/><circle cx="483.57" cy="1373.32" r="27.515" style="fill:#566b8d"/></svg>
