<?xml version="1.0" encoding="UTF-8" standalone="no"?><!DOCTYPE svg PUBLIC "-//W3C//DTD SVG 1.1//EN" "http://www.w3.org/Graphics/SVG/1.1/DTD/svg11.dtd"><svg width="100%" height="100%" viewBox="0 0 2084 2084" version="1.1" xmlns="http://www.w3.org/2000/svg" xmlns:xlink="http://www.w3.org/1999/xlink" xml:space="preserve" xmlns:serif="http://www.serif.com/" style="fill-rule:evenodd;clip-rule:evenodd;stroke-linejoin:round;stroke-miterlimit:2;"><rect id="video" x="0" y="0" width="2083.33" height="2083.33" style="fill:none;"/><g><path d="M1715.38,223.305c79.142,0 143.705,64.563 143.705,143.705l-0,1347.9c-0,79.142 -64.563,143.705 -143.705,143.705l-1347.9,-0c-79.142,-0 -143.705,-64.563 -143.705,-143.705l0,-1347.9c0,-79.142 64.563,-143.705 143.705,-143.705l1347.9,0m0,-70.811l-1347.9,0c-118.713,0 -214.515,96.22 -214.515,214.516l-0,1347.9c-0,118.713 96.219,214.516 214.515,214.516l1347.9,0c118.713,0 214.517,-96.219 214.517,-214.516l-0,-1347.9c-0,-118.713 -95.804,-214.516 -214.517,-214.516Z" style="fill:#566b8d;fill-rule:nonzero;"/></g><g><path d="M425.61,713.175c-0,-36.607 24.715,-65.079 54.542,-65.079l1122.56,0c30.68,0 54.543,29.49 54.543,65.079l-0,655.578c-0,36.607 -24.714,65.081 -54.543,65.081l-1122.56,-0c-30.68,-0 -54.542,-29.49 -54.542,-65.081l-0,-655.578m-50.283,0l0,655.578c0,69.148 47.726,125.076 104.825,125.076l1122.56,-0c57.952,-0 104.825,-56.946 104.825,-125.076l0,-655.578c0,-69.146 -47.725,-125.074 -104.825,-125.074l-1122.56,0c-57.099,0 -104.825,55.928 -104.825,125.074Z" style="fill:#566b8d;fill-rule:nonzero;"/></g><path d="M1261.98,1005.74l-377.371,272.545l-0,-545.091l377.371,272.546Z" style="fill:#566b8d;"/><rect x="532.58" y="1355.02" width="1081.43" height="36.601" style="fill:#566b8d;"/><circle cx="483.57" cy="1373.32" r="27.515" style="fill:#566b8d;"/></svg>