<svg xmlns="http://www.w3.org/2000/svg" xml:space="preserve" style="fill-rule:evenodd;clip-rule:evenodd;stroke-linejoin:round;stroke-miterlimit:2" viewBox="0 0 500 500"><path d="M0 0h500v500H0z" style="fill:none"/><path d="M411.8 53.7c19 0 34.5 15.5 34.5 34.5v323.6c0 19-15.5 34.5-34.5 34.5H88.2c-19 0-34.5-15.5-34.5-34.5V88.2c0-19 15.5-34.5 34.5-34.5zm0-17H88.2c-28.5 0-51.5 23.1-51.5 51.5v323.6c0 28.5 23.1 51.5 51.5 51.5h323.6c28.5 0 51.5-23.1 51.5-51.5V88.2c0-28.5-23-51.5-51.5-51.5" style="fill:#566b8d;fill-rule:nonzero"/><path d="M1723.81 208.376h148.541v18.568H1723.81z" style="fill:#566b8d" transform="matrix(1.55967 0 0 .68294 -2494.24 -19.642)"/><path d="M1723.81 208.376h148.541v18.568H1723.81z" style="fill:#566b8d" transform="matrix(1.29197 0 0 .68294 -1993.01 29.94)"/><path d="M1723.81 208.376h148.541v18.568H1723.81z" style="fill:#566b8d" transform="matrix(1.18494 0 0 .68294 -1792.61 5.15)"/><path d="M1723.81 208.376h148.541v18.568H1723.81z" style="fill:#566b8d" transform="matrix(1.18494 0 0 .68294 -1792.61 54.732)"/><path d="M1723.81 208.376h148.541v18.568H1723.81z" style="fill:#566b8d" transform="matrix(1.4489 0 0 .68294 -2286.84 79.524)"/><text x="5082.61" y="817.376" style="font-family:&quot;BookAntiqua&quot;,&quot;Book Antiqua&quot;,serif;font-size:12px;fill:#566b8d" transform="translate(-43023.3 -6736.95)scale(8.47898)">A</text><path d="M1723.81 208.376h148.541v18.568H1723.81z" style="fill:#566b8d" transform="matrix(2.36987 0 0 .30483 -4011.23 48.487)"/><path d="M1723.81 208.376h148.541v18.568H1723.81z" style="fill:#566b8d" transform="matrix(1.4489 0 0 .68294 -2286.836 133.841)"/><path d="M1723.81 208.376h148.541v18.568H1723.81z" style="fill:#566b8d" transform="matrix(1.32889 0 0 .68294 -2062.146 183.424)"/><path d="M1723.81 208.376h148.541v18.568H1723.81z" style="fill:#566b8d" transform="matrix(1.55967 0 0 .68294 -2494.246 158.632)"/><path d="M1723.81 208.376h148.541v18.568H1723.81z" style="fill:#566b8d" transform="matrix(1.4489 0 0 .68294 -2286.836 208.215)"/><text x="5082.61" y="817.376" style="font-family:&quot;BookAntiqua&quot;,&quot;Book Antiqua&quot;,serif;font-size:12px;fill:#566b8d" transform="translate(-43023.306 -6583.469)scale(8.47898)">B</text><path d="M1723.81 208.376h148.541v18.568H1723.81z" style="fill:#566b8d" transform="matrix(2.36987 0 0 .30483 -4011.236 202.367)"/></svg>
