<?xml version="1.0" encoding="UTF-8" standalone="no"?>
<!DOCTYPE svg PUBLIC "-//W3C//DTD SVG 1.1//EN" "http://www.w3.org/Graphics/SVG/1.1/DTD/svg11.dtd">
<svg width="100%" height="100%" viewBox="0 0 500 500" version="1.1" xmlns="http://www.w3.org/2000/svg" xmlns:xlink="http://www.w3.org/1999/xlink" xml:space="preserve" xmlns:serif="http://www.serif.com/" style="fill-rule:evenodd;clip-rule:evenodd;stroke-linejoin:round;stroke-miterlimit:2;">
    <g transform="matrix(1,0,0,1,-4984.32,-632.678)">
        <g id="wordlist" transform="matrix(1,0,0,1,4984.32,632.678)">
            <rect x="0" y="0" width="500" height="500" style="fill:none;"/>
            <g>
                <path d="M411.8,53.7C430.8,53.7 446.3,69.2 446.3,88.2L446.3,411.8C446.3,430.8 430.8,446.3 411.8,446.3L88.2,446.3C69.2,446.3 53.7,430.8 53.7,411.8L53.7,88.2C53.7,69.2 69.2,53.7 88.2,53.7L411.8,53.7M411.8,36.7L88.2,36.7C59.7,36.7 36.7,59.8 36.7,88.2L36.7,411.8C36.7,440.3 59.8,463.3 88.2,463.3L411.8,463.3C440.3,463.3 463.3,440.2 463.3,411.8L463.3,88.2C463.3,59.7 440.3,36.7 411.8,36.7Z" style="fill:rgb(86,107,141);fill-rule:nonzero;"/>
            </g>
            <g>
                <g>
                    <g transform="matrix(1.55967,0,0,0.682936,-2494.24,-19.6417)">
                        <rect x="1723.81" y="208.376" width="148.541" height="18.568" style="fill:rgb(86,107,141);"/>
                    </g>
                    <g transform="matrix(1.29197,0,0,0.682936,-1993.01,29.9409)">
                        <rect x="1723.81" y="208.376" width="148.541" height="18.568" style="fill:rgb(86,107,141);"/>
                    </g>
                    <g transform="matrix(1.18494,0,0,0.682936,-1792.61,5.14959)">
                        <rect x="1723.81" y="208.376" width="148.541" height="18.568" style="fill:rgb(86,107,141);"/>
                    </g>
                    <g transform="matrix(1.18494,0,0,0.682936,-1792.61,54.7322)">
                        <rect x="1723.81" y="208.376" width="148.541" height="18.568" style="fill:rgb(86,107,141);"/>
                    </g>
                    <g transform="matrix(1.4489,0,0,0.682936,-2286.84,79.5236)">
                        <rect x="1723.81" y="208.376" width="148.541" height="18.568" style="fill:rgb(86,107,141);"/>
                    </g>
                    <g transform="matrix(8.47898,0,0,8.47898,-43023.3,-6736.95)">
                        <g transform="matrix(12,0,0,12,5091.94,817.376)">
                        </g>
                        <text x="5082.61px" y="817.376px" style="font-family:'BookAntiqua', 'Book Antiqua', serif;font-size:12px;fill:rgb(86,107,141);">A</text>
                    </g>
                    <g transform="matrix(2.36987,0,0,0.304828,-4011.23,48.4869)">
                        <rect x="1723.81" y="208.376" width="148.541" height="18.568" style="fill:rgb(86,107,141);"/>
                    </g>
                </g>
                <g transform="matrix(1,0,0,1,-2.20577,-11.8288)">
                    <g transform="matrix(1.4489,0,0,0.682936,-2284.63,145.67)">
                        <rect x="1723.81" y="208.376" width="148.541" height="18.568" style="fill:rgb(86,107,141);"/>
                    </g>
                    <g transform="matrix(1.32889,0,0,0.682936,-2059.94,195.253)">
                        <rect x="1723.81" y="208.376" width="148.541" height="18.568" style="fill:rgb(86,107,141);"/>
                    </g>
                    <g transform="matrix(1.55967,0,0,0.682936,-2492.04,170.461)">
                        <rect x="1723.81" y="208.376" width="148.541" height="18.568" style="fill:rgb(86,107,141);"/>
                    </g>
                    <g transform="matrix(1.4489,0,0,0.682936,-2284.63,220.044)">
                        <rect x="1723.81" y="208.376" width="148.541" height="18.568" style="fill:rgb(86,107,141);"/>
                    </g>
                    <g transform="matrix(8.47898,0,0,8.47898,-43021.1,-6571.64)">
                        <g transform="matrix(12,0,0,12,5089.94,817.376)">
                        </g>
                        <text x="5082.61px" y="817.376px" style="font-family:'BookAntiqua', 'Book Antiqua', serif;font-size:12px;fill:rgb(86,107,141);">B</text>
                    </g>
                    <g transform="matrix(2.36987,0,0,0.304828,-4009.03,214.196)">
                        <rect x="1723.81" y="208.376" width="148.541" height="18.568" style="fill:rgb(86,107,141);"/>
                    </g>
                </g>
            </g>
        </g>
    </g>
</svg>
