<?xml version="1.0" encoding="UTF-8" standalone="no"?><!DOCTYPE svg PUBLIC "-//W3C//DTD SVG 1.1//EN" "http://www.w3.org/Graphics/SVG/1.1/DTD/svg11.dtd"><svg width="100%" height="100%" viewBox="0 0 2084 2084" version="1.1" xmlns="http://www.w3.org/2000/svg" xmlns:xlink="http://www.w3.org/1999/xlink" xml:space="preserve" xmlns:serif="http://www.serif.com/" style="fill-rule:evenodd;clip-rule:evenodd;stroke-linejoin:round;stroke-miterlimit:2;"><rect id="accordeon-element" x="0" y="0" width="2083.333" height="2083.333" style="fill:none;"/><g id="element"><path d="M1784.418,140.539c87.221,0 158.375,71.153 158.375,158.375l0,1485.504c0,87.221 -71.153,158.375 -158.375,158.375l-1485.504,0c-87.221,0 -158.375,-71.153 -158.375,-158.375l0,-1485.504c0,-87.221 71.153,-158.375 158.375,-158.375l1485.504,0m0,-78.039l-1485.504,0c-130.831,0 -236.414,106.042 -236.414,236.414l0,1485.504c0,130.831 106.042,236.415 236.414,236.415l1485.504,0c130.831,0 236.415,-106.042 236.415,-236.415l0,-1485.504c0,-130.831 -105.584,-236.414 -236.415,-236.414Z" style="fill:#566b8d;fill-rule:nonzero;"/></g><g id="Accordeon"><path id="Accordeon1" serif:id="Accordeon" d="M1576.021,1155.125l-152.195,-147.06l49.284,-51.816l134.769,130.222l133.731,-133.189l50.056,51.059l-182.601,181.861l-0.422,0.444l-0.012,-0.012l-0.87,0.866l-31.74,-32.376Zm47.486,-554.394l-132.143,-134.79l50.657,-50.452l180.426,184.041l0.447,0.432l-0.012,0.012l0.86,0.877l-32.127,31.997l-145.899,153.394l-51.409,-49.674l129.199,-135.836Zm0,881.603l-132.143,-134.79l50.657,-50.452l180.426,184.041l0.447,0.432l-0.012,0.012l0.86,0.877l-32.127,31.997l-145.899,153.394l-51.409,-49.674l129.199,-135.836Zm-1330.197,-845.45l0,-71.65l999.182,0l0,71.65l-999.182,0Zm1017.922,221.397l-0,367.157l-1017.988,-0l0,-367.157l1017.988,0Zm-946.772,71.78l0,223.597l875.556,-0l0,-223.597l-875.556,0Zm-72.794,588.427l-0,-71.65l999.182,0l-0,71.65l-999.182,0Z" style="fill:#586c8d;"/></g></svg>