<?xml version="1.0" encoding="UTF-8" standalone="no"?><!DOCTYPE svg PUBLIC "-//W3C//DTD SVG 1.1//EN" "http://www.w3.org/Graphics/SVG/1.1/DTD/svg11.dtd"><svg width="100%" height="100%" viewBox="0 0 2084 2084" version="1.1" xmlns="http://www.w3.org/2000/svg" xmlns:xlink="http://www.w3.org/1999/xlink" xml:space="preserve" xmlns:serif="http://www.serif.com/" style="fill-rule:evenodd;clip-rule:evenodd;stroke-linejoin:round;stroke-miterlimit:2;"><rect id="accordeon-element" x="0" y="0" width="2083.333" height="2083.333" style="fill:none;"/><g id="element"><path d="M1784.418,140.539c87.221,0 158.375,71.153 158.375,158.375l0,1485.504c0,87.221 -71.153,158.375 -158.375,158.375l-1485.504,0c-87.221,0 -158.375,-71.153 -158.375,-158.375l0,-1485.504c0,-87.221 71.153,-158.375 158.375,-158.375l1485.504,0m0,-78.039l-1485.504,0c-130.831,0 -236.414,106.042 -236.414,236.414l0,1485.504c0,130.831 106.042,236.415 236.414,236.415l1485.504,0c130.831,0 236.415,-106.042 236.415,-236.415l0,-1485.504c0,-130.831 -105.584,-236.414 -236.415,-236.414Z" style="fill:#566b8d;fill-rule:nonzero;"/></g><g id="Accordeon"><g><rect x="291.667" y="702.044" width="1180.742" height="84.263" style="fill:#566b8d;"/><path d="M1472.409,702.044l0,401.09l-1180.742,0l0,-401.09l1180.742,0Zm-46.594,46.594l-1087.555,0l0,307.902l1087.555,-0l-0,-307.902Z" style="fill:#566b8d;"/><path d="M1697.475,811.251l-94.192,-134.152l188.383,0l-94.192,134.152Z" style="fill:#566b8d;"/></g><g><rect x="291.667" y="1269.911" width="1180.742" height="84.263" style="fill:#566b8d;"/><path d="M1764.551,1312.042l-134.152,94.192l0,-188.383l134.152,94.192Z" style="fill:#566b8d;"/></g><g><rect x="291.667" y="426.059" width="1180.742" height="84.263" style="fill:#566b8d;"/><path d="M1764.551,468.191l-134.152,94.192l0,-188.383l134.152,94.192Z" style="fill:#566b8d;"/></g><g><rect x="291.667" y="1573.011" width="1180.742" height="84.263" style="fill:#566b8d;"/><path d="M1764.551,1615.142l-134.152,94.192l0,-188.383l134.152,94.192Z" style="fill:#566b8d;"/></g></g></svg>