<?xml version="1.0" encoding="UTF-8" standalone="no"?><!DOCTYPE svg PUBLIC "-//W3C//DTD SVG 1.1//EN" "http://www.w3.org/Graphics/SVG/1.1/DTD/svg11.dtd"><svg width="100%" height="100%" viewBox="0 0 2084 2084" version="1.1" xmlns="http://www.w3.org/2000/svg" xmlns:xlink="http://www.w3.org/1999/xlink" xml:space="preserve" xmlns:serif="http://www.serif.com/" style="fill-rule:evenodd;clip-rule:evenodd;stroke-linejoin:round;stroke-miterlimit:2;"><rect id="accordeon-admin" x="0" y="-0" width="2083.333" height="2083.333" style="fill:none;"/><g id="Accordeon"><path id="Accordeon1" serif:id="Accordeon" d="M1709.61,1183.49l-190.243,-183.825l61.605,-64.77l168.461,162.778l167.164,-166.487l62.57,63.823l-228.251,227.326l-0.528,0.555l-0.015,-0.014l-1.087,1.083l-39.675,-40.47Zm59.357,-692.993l-165.178,-168.488l63.322,-63.065l225.533,230.051l0.558,0.54l-0.014,0.015l1.075,1.096l-40.159,39.996l-182.373,191.742l-64.261,-62.093l161.499,-169.795Zm0,1102.004l-165.178,-168.488l63.322,-63.065l225.533,230.051l0.558,0.54l-0.014,0.015l1.075,1.096l-40.159,39.996l-182.373,191.742l-64.261,-62.093l161.499,-169.795Zm-1662.746,-1056.812l0,-89.562l1248.978,0l0,89.562l-1248.978,0Zm1272.402,276.746l-0,458.946l-1272.485,-0l0,-458.946l1272.485,0Zm-1183.465,89.725l0,279.496l1094.445,-0l0,-279.496l-1094.445,0Zm-90.992,735.533l-0,-89.562l1248.978,0l-0,89.562l-1248.978,0Z" style="fill:#586c8d;"/></g></svg>