<?xml version="1.0" encoding="UTF-8" standalone="no"?><!DOCTYPE svg PUBLIC "-//W3C//DTD SVG 1.1//EN" "http://www.w3.org/Graphics/SVG/1.1/DTD/svg11.dtd"><svg width="100%" height="100%" viewBox="0 0 2084 2084" version="1.1" xmlns="http://www.w3.org/2000/svg" xmlns:xlink="http://www.w3.org/1999/xlink" xml:space="preserve" xmlns:serif="http://www.serif.com/" style="fill-rule:evenodd;clip-rule:evenodd;stroke-linejoin:round;stroke-miterlimit:2;"><rect id="accordeon-admin" x="0" y="-0" width="2083.333" height="2083.333" style="fill:none;"/><g id="Accordeon"><g><rect x="104.167" y="617.138" width="1475.928" height="105.329" style="fill:#566b8d;"/><path d="M1580.094,617.138l0,501.362l-1475.928,0l0,-501.362l1475.928,0Zm-46.594,46.594l-1382.74,0l0,408.175l1382.74,0l0,-408.175Z" style="fill:#566b8d;"/><path d="M1861.427,753.647l-117.74,-167.69l235.479,0l-117.74,167.69Z" style="fill:#566b8d;"/></g><g><rect x="104.167" y="1326.972" width="1475.928" height="105.329" style="fill:#566b8d;"/><path d="M1945.272,1379.636l-167.69,117.74l0,-235.479l167.69,117.74Z" style="fill:#566b8d;"/></g><g><rect x="104.167" y="272.157" width="1475.928" height="105.329" style="fill:#566b8d;"/><path d="M1945.272,324.822l-167.69,117.74l0,-235.479l167.69,117.74Z" style="fill:#566b8d;"/></g><g><rect x="104.167" y="1705.847" width="1475.928" height="105.329" style="fill:#566b8d;"/><path d="M1945.272,1758.511l-167.69,117.74l0,-235.479l167.69,117.74Z" style="fill:#566b8d;"/></g></g></svg>