<?xml version="1.0" encoding="UTF-8" standalone="no"?><!DOCTYPE svg PUBLIC "-//W3C//DTD SVG 1.1//EN" "http://www.w3.org/Graphics/SVG/1.1/DTD/svg11.dtd"><svg width="100%" height="100%" viewBox="0 0 2084 2084" version="1.1" xmlns="http://www.w3.org/2000/svg" xmlns:xlink="http://www.w3.org/1999/xlink" xml:space="preserve" xmlns:serif="http://www.serif.com/" style="fill-rule:evenodd;clip-rule:evenodd;stroke-linejoin:round;stroke-miterlimit:2;"><rect id="aperture-element" x="0" y="-0" width="2083.333" height="2083.333" style="fill:none;"/><g id="element"><path d="M1784.418,140.539c87.221,0 158.375,71.153 158.375,158.375l0,1485.504c0,87.221 -71.153,158.375 -158.375,158.375l-1485.504,0c-87.221,0 -158.375,-71.153 -158.375,-158.375l0,-1485.504c0,-87.221 71.153,-158.375 158.375,-158.375l1485.504,0m0,-78.039l-1485.504,0c-130.831,0 -236.414,106.042 -236.414,236.414l0,1485.504c0,130.831 106.042,236.415 236.414,236.415l1485.504,0c130.831,0 236.415,-106.042 236.415,-236.415l0,-1485.504c0,-130.831 -105.584,-236.414 -236.415,-236.414Z" style="fill:#566b8d;fill-rule:nonzero;"/></g><g id="Aperture"><path id="Aperture1" serif:id="Aperture" d="M1041.667,296.132c413.936,0 750,336.064 750,750c0,413.936 -336.064,750 -750,750c-413.936,0 -750,-336.064 -750,-750c0,-413.936 336.064,-750 750,-750Zm91.853,1352.321c159.772,-24.417 303.3,-111.302 399.011,-241.543l-215.041,-324.202l-183.97,565.745Zm-505.234,-154.723c118.77,109.621 276.223,167.571 437.72,161.102l119.177,-370.333l-556.897,209.231Zm940.094,-141.329c81.201,-139.748 103.561,-306.03 62.161,-462.265l-387.379,-35.878l325.218,498.142Zm-1134.404,-350.321c-11.635,161.207 41.246,320.434 147.01,442.652l363.828,-137.764l-510.838,-304.888Zm1170.341,-189.726c-62.062,-149.236 -180.866,-267.706 -330.277,-329.347l-263.09,286.589l593.367,42.758Zm-382.591,-348.293c-154.423,-47.716 -321.476,-32.134 -464.409,43.32l52.101,385.532l412.309,-428.852Zm-523.46,78.778c-133.481,91.137 -225.291,231.567 -255.233,390.396l334.137,199.254l-78.904,-589.649Z" style="fill:#566b8d;"/></g></svg>