<?xml version="1.0" encoding="UTF-8" standalone="no"?><!DOCTYPE svg PUBLIC "-//W3C//DTD SVG 1.1//EN" "http://www.w3.org/Graphics/SVG/1.1/DTD/svg11.dtd"><svg width="100%" height="100%" viewBox="0 0 2084 2084" version="1.1" xmlns="http://www.w3.org/2000/svg" xmlns:xlink="http://www.w3.org/1999/xlink" xml:space="preserve" xmlns:serif="http://www.serif.com/" style="fill-rule:evenodd;clip-rule:evenodd;stroke-linejoin:round;stroke-miterlimit:2;"><rect id="aperture-admin" x="0" y="-0" width="2083.333" height="2083.333" style="fill:none;"/><g id="Aperture"><path id="Aperture1" serif:id="Aperture" d="M1041.667,104.167c517.42,0 937.5,420.08 937.5,937.5c0,517.42 -420.08,937.5 -937.5,937.5c-517.42,0 -937.5,-420.08 -937.5,-937.5c0,-517.42 420.08,-937.5 937.5,-937.5Zm114.816,1690.402c199.715,-30.521 379.125,-139.128 498.764,-301.929l-268.801,-405.253l-229.962,707.181Zm-631.542,-193.404c148.463,137.026 345.279,209.464 547.15,201.377l148.971,-462.916l-696.122,261.539Zm1175.118,-176.661c101.501,-174.686 129.451,-382.538 77.702,-577.831l-484.224,-44.847l406.522,622.678Zm-1418.005,-437.902c-14.544,201.509 51.558,400.543 183.762,553.315l454.785,-172.205l-638.547,-381.11Zm1462.926,-237.158c-77.578,-186.545 -226.083,-334.633 -412.846,-411.684l-328.862,358.237l741.708,53.448Zm-478.239,-435.366c-193.028,-59.645 -401.845,-40.167 -580.512,54.149l65.126,481.915l515.386,-536.065Zm-654.325,98.472c-166.851,113.921 -281.614,289.458 -319.041,487.995l417.671,249.067l-98.63,-737.062Z" style="fill:#566b8d;"/></g></svg>