<?xml version="1.0" encoding="UTF-8" standalone="no"?><!DOCTYPE svg PUBLIC "-//W3C//DTD SVG 1.1//EN" "http://www.w3.org/Graphics/SVG/1.1/DTD/svg11.dtd"><svg width="100%" height="100%" viewBox="0 0 2084 2084" version="1.1" xmlns="http://www.w3.org/2000/svg" xmlns:xlink="http://www.w3.org/1999/xlink" xml:space="preserve" xmlns:serif="http://www.serif.com/" style="fill-rule:evenodd;clip-rule:evenodd;stroke-linejoin:round;stroke-miterlimit:2;"><rect id="aperture-page" x="0" y="-0" width="2083.333" height="2083.333" style="fill:none;"/><clipPath id="_clip1"><rect x="0" y="-0" width="2083.333" height="2083.333"/></clipPath><g clip-path="url(#_clip1)"><g id="Aperture"><path id="Aperture1" serif:id="Aperture" d="M1041.431,735.52c321.95,0 583.333,261.383 583.333,583.333c0,321.95 -261.383,583.333 -583.333,583.333c-321.95,0 -583.333,-261.383 -583.333,-583.333c0,-321.95 261.383,-583.333 583.333,-583.333Zm71.441,1051.805c124.267,-18.991 235.9,-86.568 310.342,-187.867l-167.254,-252.157l-143.088,440.024Zm-392.959,-120.34c92.377,85.261 214.84,130.333 340.449,125.301l92.693,-288.037l-433.142,162.735Zm731.184,-109.923c63.156,-108.693 80.547,-238.023 48.348,-359.539l-301.295,-27.905l252.947,387.444Zm-882.314,-272.472c-9.049,125.384 32.08,249.226 114.341,344.285l282.977,-107.15l-397.318,-237.135Zm910.265,-147.565c-48.271,-116.073 -140.674,-208.216 -256.882,-256.159l-204.625,222.903l461.507,33.256Zm-297.571,-270.894c-120.107,-37.112 -250.037,-24.993 -361.207,33.693l40.523,299.858l320.684,-333.551Zm-407.135,61.272c-103.819,70.884 -175.227,180.107 -198.515,303.641l259.884,154.975l-61.37,-458.616Z" style="fill:#566b8d;"/></g><g id="page"><path d="M1796.114,372.543c8.271,8.293 12.916,19.527 12.916,31.24c0,164.411 0,1387.535 0,1636.72c0,11.733 -4.661,22.985 -12.957,31.281c-8.296,8.296 -19.548,12.957 -31.281,12.957c-223.172,0 -1223.551,0 -1446.723,0c-11.733,-0 -22.985,-4.661 -31.281,-12.957c-8.296,-8.296 -12.957,-19.548 -12.957,-31.281c-0,-272.779 -0,-1723.487 0,-1996.265c-0,-11.733 4.661,-22.985 12.957,-31.281c8.296,-8.296 19.548,-12.957 31.281,-12.957c193.261,-0 959.525,-0 1088.117,-0c11.753,0 23.022,4.677 31.322,12.998c58.779,58.933 299.926,300.711 358.606,359.545Zm-480.642,-296.991c0,0 -732.513,-0 -921.851,-0c-11.733,0 -22.985,4.661 -31.281,12.957c-8.296,8.296 -12.957,19.548 -12.957,31.281c-0,259.863 -0,1585.297 -0,1845.161c-0,11.733 4.661,22.985 12.957,31.281c8.296,8.296 19.548,12.957 31.281,12.957c208.033,0 1087.585,0 1295.618,0c24.432,-0 44.238,-19.806 44.238,-44.238c0,-250.136 0,-1476.131 0,-1476.131c0,0 -266.253,0 -373.767,0c-24.432,0 -44.238,-19.806 -44.238,-44.238c-0,-106.619 -0,-369.03 -0,-369.03Zm76.77,0l-1.217,-0c0,0 0,201.894 0,293.477c0,24.432 19.806,44.238 44.238,44.238c91.838,-0 294.695,-0 294.695,-0l-337.715,-337.715Z" style="fill:#566b8d;"/></g></g></svg>