<?xml version="1.0" encoding="UTF-8" standalone="no"?><!DOCTYPE svg PUBLIC "-//W3C//DTD SVG 1.1//EN" "http://www.w3.org/Graphics/SVG/1.1/DTD/svg11.dtd"><svg width="100%" height="100%" viewBox="0 0 2084 2084" version="1.1" xmlns="http://www.w3.org/2000/svg" xmlns:xlink="http://www.w3.org/1999/xlink" xml:space="preserve" xmlns:serif="http://www.serif.com/" style="fill-rule:evenodd;clip-rule:evenodd;stroke-linejoin:round;stroke-miterlimit:2;"><rect id="calendar-page" x="0" y="0" width="2083.333" height="2083.333" style="fill:none;"/><clipPath id="_clip1"><rect x="0" y="0" width="2083.333" height="2083.333"/></clipPath><g clip-path="url(#_clip1)"><g id="page"><path d="M1796.35,371.135c8.271,8.293 12.916,19.527 12.916,31.24c0,164.411 0,1387.535 0,1636.72c0,11.733 -4.661,22.985 -12.957,31.281c-8.296,8.296 -19.548,12.957 -31.281,12.957c-223.172,-0 -1223.551,0 -1446.723,0c-11.733,-0 -22.985,-4.661 -31.281,-12.957c-8.296,-8.296 -12.957,-19.548 -12.957,-31.281c-0,-272.779 -0,-1723.487 -0,-1996.265c-0,-11.733 4.661,-22.985 12.957,-31.281c8.296,-8.296 19.548,-12.957 31.281,-12.957c193.261,-0 959.525,-0 1088.117,-0c11.753,0 23.022,4.677 31.322,12.998c58.779,58.933 299.926,300.711 358.606,359.545Zm-480.642,-296.991c0,0 -732.513,-0 -921.851,-0c-11.733,0 -22.985,4.661 -31.281,12.957c-8.296,8.296 -12.957,19.548 -12.957,31.281c-0,259.863 -0,1585.297 -0,1845.161c-0,11.733 4.661,22.985 12.957,31.281c8.296,8.296 19.548,12.957 31.281,12.957c208.033,0 1087.585,0 1295.618,0c24.432,-0 44.238,-19.806 44.238,-44.238c0,-250.136 0,-1476.131 0,-1476.131c0,0 -266.253,0 -373.767,0c-24.432,0 -44.238,-19.806 -44.238,-44.238c-0,-106.619 -0,-369.03 -0,-369.03Zm76.77,0l-1.217,-0c0,0 0,201.894 0,293.477c0,24.432 19.806,44.238 44.238,44.238c91.838,-0 294.695,-0 294.695,-0l-337.715,-337.715Z" style="fill:#566b8d;"/></g><g id="Calendar"><g><path d="M512.978,1786.746c-28.247,0 -51.176,-22.84 -51.286,-51.087c-0.634,-162.69 -2.6,-667.635 -3.241,-832.236c-0.054,-13.895 5.428,-27.239 15.234,-37.083c9.806,-9.844 23.129,-15.378 37.023,-15.378c193.498,0 865.933,0 1058.758,0c28.781,-0 52.145,23.273 52.257,52.054c0.639,164.04 2.606,668.993 3.241,832.244c0.053,13.636 -5.327,26.733 -14.95,36.394c-9.624,9.661 -22.699,15.092 -36.335,15.092c-192.526,0 -868.845,0 -1060.7,0Zm-17.463,-84.91c0,28.325 22.962,51.286 51.286,51.286c95.645,-0 291.64,-0 291.64,-0l0,-180.72l-342.926,0c0,0 0,76.004 0,129.434Zm1044.739,51.286c28.325,-0 51.286,-22.962 51.286,-51.286c0,-53.43 0,-129.434 0,-129.434l-342.926,0l0,180.72c0,0 195.994,0 291.64,0Zm51.286,-609.409l-342.926,0l0,180.72l342.926,0l-0,-180.72Zm-1096.026,214.344l0,180.72l342.926,0l-0,-180.72l-342.926,0Zm1093.282,-420.787c-0.5,-28.499 -23.746,-51.34 -52.249,-51.34c-183.414,0 -805.19,0 -991.495,-0c-14.019,0 -27.449,5.632 -37.274,15.632c-9.825,9.999 -15.221,23.527 -14.975,37.543c1.08,61.499 2.711,154.393 2.711,154.393l1096.026,0c-0,0 -1.664,-94.76 -2.743,-156.228Zm-716.733,815.852l342.926,0l0,-180.72l-342.926,0l0,180.72Zm719.476,-214.344l-0,-180.72l-342.926,0l0,180.72l342.926,0Zm-376.55,-395.065l-342.926,0l0,180.72l342.926,0l0,-180.72Zm0,214.344l-342.926,0l0,180.72l342.926,0l0,-180.72Zm-376.55,-214.344l-342.926,0l0,180.72l342.926,0l-0,-180.72Z" style="fill:#566b8d;"/></g><rect x="657.893" y="1131.71" width="37.905" height="632.716" style="fill:#566b8d;"/><rect x="1022.755" y="1131.71" width="37.905" height="632.716" style="fill:#566b8d;"/><g><path d="M1307.811,1390.303l61.231,106.054l-16.413,9.476l-61.231,-106.054l16.413,-9.476Z" style="fill:#566b8d;"/><path d="M1352.628,1390.303l16.413,9.476l-61.231,106.054l-16.413,-9.476l61.231,-106.054Z" style="fill:#566b8d;"/></g><rect x="1409.09" y="1131.71" width="37.905" height="632.716" style="fill:#566b8d;"/><rect x="589.761" y="909.999" width="76.538" height="165.833" style="fill:#566b8d;"/><rect x="688.574" y="909.999" width="76.538" height="165.833" style="fill:#566b8d;"/><rect x="855.219" y="909.999" width="76.538" height="165.833" style="fill:#566b8d;"/><rect x="1120.677" y="909.999" width="76.538" height="165.833" style="fill:#566b8d;"/><rect x="1318.302" y="909.999" width="76.538" height="165.833" style="fill:#566b8d;"/><rect x="954.032" y="909.999" width="76.538" height="165.833" style="fill:#566b8d;"/><rect x="1219.489" y="909.999" width="76.538" height="165.833" style="fill:#566b8d;"/><rect x="1417.114" y="909.999" width="76.538" height="165.833" style="fill:#566b8d;"/><path d="M832.945,1032.474l0,43.358l-45.558,0l0,-43.358l45.558,0Zm-24.915,21.679l2.136,2.136l2.136,-2.136l-2.136,-2.136l-2.136,2.136Z" style="fill:#566b8d;"/><path d="M1098.402,1032.474l0,43.358l-45.558,0l0,-43.358l45.558,0Zm-24.915,21.679l2.136,2.136l2.136,-2.136l-2.136,-2.136l-2.136,2.136Z" style="fill:#566b8d;"/><rect x="484.208" y="1131.71" width="371.757" height="208.58" style="fill:#566b8d;"/><rect x="1428.043" y="1555.846" width="185.878" height="208.58" style="fill:#566b8d;"/></g></g></svg>