<?xml version="1.0" encoding="UTF-8" standalone="no"?><!DOCTYPE svg PUBLIC "-//W3C//DTD SVG 1.1//EN" "http://www.w3.org/Graphics/SVG/1.1/DTD/svg11.dtd"><svg width="100%" height="100%" viewBox="0 0 2084 2084" version="1.1" xmlns="http://www.w3.org/2000/svg" xmlns:xlink="http://www.w3.org/1999/xlink" xml:space="preserve" xmlns:serif="http://www.serif.com/" style="fill-rule:evenodd;clip-rule:evenodd;stroke-linejoin:round;stroke-miterlimit:2;"><rect id="calendar-element" x="0" y="0" width="2083.333" height="2083.333" style="fill:none;"/><g id="element"><path d="M1784.418,140.539c87.221,0 158.375,71.153 158.375,158.375l0,1485.504c0,87.221 -71.153,158.375 -158.375,158.375l-1485.504,0c-87.221,0 -158.375,-71.153 -158.375,-158.375l0,-1485.504c0,-87.221 71.153,-158.375 158.375,-158.375l1485.504,0m0,-78.039l-1485.504,0c-130.831,0 -236.414,106.042 -236.414,236.414l0,1485.504c0,130.831 106.042,236.415 236.414,236.415l1485.504,0c130.831,0 236.415,-106.042 236.415,-236.415l0,-1485.504c0,-130.831 -105.584,-236.414 -236.415,-236.414Z" style="fill:#566b8d;fill-rule:nonzero;"/></g><g id="Calendar"><g><path d="M347.317,1643.242c-28.247,0 -51.176,-22.84 -51.286,-51.086c-0.765,-196.291 -3.509,-900.959 -4.283,-1099.603c-0.054,-13.895 5.428,-27.239 15.234,-37.083c9.806,-9.844 23.129,-15.378 37.023,-15.378c231.507,0 1160.434,0 1391.122,0c28.781,-0 52.145,23.272 52.257,52.054c0.771,197.953 3.516,902.63 4.283,1099.611c0.053,13.636 -5.327,26.733 -14.951,36.394c-9.624,9.661 -22.699,15.092 -36.335,15.092c-230.184,0 -1163.695,0 -1393.064,0Zm-7.856,-94.517c-0,13.602 5.403,26.647 15.021,36.265c9.618,9.618 22.663,15.021 36.265,15.021c116.219,0 389.618,0 389.618,0l0,-232.355l-440.905,0c0,-0 -0,112.642 0,181.068Zm1357.889,51.286c13.602,0 26.647,-5.403 36.265,-15.021c9.618,-9.618 15.021,-22.663 15.021,-36.265c-0,-68.427 -0,-181.068 -0,-181.068l-440.905,0l0,232.355c0,-0 273.4,0 389.618,-0Zm51.286,-783.526l-440.905,0l0,232.355l440.905,0l-0,-232.355Zm-1409.176,275.585l0,232.355l440.905,0l-0,-232.355l-440.905,0Zm1405.391,-555.681c-0.5,-28.499 -23.746,-51.34 -52.249,-51.34c-219.907,0 -1081.209,0 -1304.645,0c-14.019,0 -27.449,5.632 -37.274,15.632c-9.825,9.999 -15.221,23.527 -14.975,37.543c1.367,77.85 3.752,213.698 3.752,213.698l1409.176,0c0,-0 -2.423,-138.005 -3.785,-215.533Zm-921.256,1063.621l440.905,0l0,-232.355l-440.905,0l0,232.355Zm925.04,-275.585l-0,-232.355l-440.905,0l0,232.355l440.905,0Zm-484.135,-507.94l-440.905,0l0,232.355l440.905,0l0,-232.355Zm0,275.585l-440.905,0l0,232.355l440.905,0l0,-232.355Zm-484.135,-275.585l-440.905,0l0,232.355l440.905,0l-0,-232.355Z" style="fill:#566b8d;"/></g><rect x="548.232" y="801.054" width="48.735" height="813.492" style="fill:#566b8d;"/><rect x="1017.34" y="801.054" width="48.735" height="813.492" style="fill:#566b8d;"/><g><path d="M1383.841,1133.53l78.725,136.356l-21.103,12.184l-78.725,-136.356l21.103,-12.184Z" style="fill:#566b8d;"/><path d="M1441.463,1133.53l21.103,12.184l-78.725,136.356l-21.103,-12.184l78.725,-136.356Z" style="fill:#566b8d;"/></g><rect x="1514.057" y="801.054" width="48.735" height="813.492" style="fill:#566b8d;"/><path d="M559.041,515.997l0,213.214l-98.406,0l0,-213.214l98.406,0Zm-46.594,46.594l-5.219,0l0,120.026l5.219,-0l-0,-120.026Z" style="fill:#566b8d;"/><path d="M686.085,515.997l0,213.214l-98.406,0l0,-213.214l98.406,0Zm-46.594,46.594l-5.219,0l0,120.026l5.219,-0l-0,-120.026Z" style="fill:#566b8d;"/><path d="M900.344,515.997l0,213.214l-98.406,0l0,-213.214l98.406,0Zm-46.594,46.594l-5.219,0l0,120.026l5.219,-0l-0,-120.026Z" style="fill:#566b8d;"/><path d="M1241.646,515.997l0,213.214l-98.406,0l0,-213.214l98.406,0Zm-46.594,46.594l-5.219,0l0,120.026l5.219,-0l-0,-120.026Z" style="fill:#566b8d;"/><path d="M1495.735,515.997l0,213.214l-98.406,0l0,-213.214l98.406,0Zm-46.594,46.594l-5.219,0l0,120.026l5.219,-0l-0,-120.026Z" style="fill:#566b8d;"/><path d="M1027.388,515.997l0,213.214l-98.406,0l0,-213.214l98.406,0Zm-46.594,46.594l-5.219,0l0,120.026l5.219,-0l-0,-120.026Z" style="fill:#566b8d;"/><path d="M1368.691,515.997l0,213.214l-98.406,0l0,-213.214l98.406,0Zm-46.594,46.594l-5.219,0l0,120.026l5.219,-0l-0,-120.026Z" style="fill:#566b8d;"/><path d="M1622.78,515.997l0,213.214l-98.406,0l0,-213.214l98.406,0Zm-46.594,46.594l-5.219,0l0,120.026l5.219,-0l-0,-120.026Z" style="fill:#566b8d;"/><rect x="714.724" y="673.465" width="58.575" height="55.746" style="fill:#566b8d;"/><rect x="1056.026" y="673.465" width="58.575" height="55.746" style="fill:#566b8d;"/><rect x="324.923" y="801.054" width="477.973" height="268.174" style="fill:#566b8d;"/><rect x="1538.425" y="1346.371" width="238.987" height="268.174" style="fill:#566b8d;"/></g></svg>