<?xml version="1.0" encoding="UTF-8" standalone="no"?><!DOCTYPE svg PUBLIC "-//W3C//DTD SVG 1.1//EN" "http://www.w3.org/Graphics/SVG/1.1/DTD/svg11.dtd"><svg width="100%" height="100%" viewBox="0 0 2084 2084" version="1.1" xmlns="http://www.w3.org/2000/svg" xmlns:xlink="http://www.w3.org/1999/xlink" xml:space="preserve" xmlns:serif="http://www.serif.com/" style="fill-rule:evenodd;clip-rule:evenodd;stroke-linejoin:round;stroke-miterlimit:2;"><rect id="calltoaction-element" x="0" y="0" width="2083.333" height="2083.333" style="fill:none;"/><g id="element"><path d="M1784.418,140.539c87.221,0 158.375,71.153 158.375,158.375l0,1485.504c0,87.221 -71.153,158.375 -158.375,158.375l-1485.504,0c-87.221,0 -158.375,-71.153 -158.375,-158.375l0,-1485.504c0,-87.221 71.153,-158.375 158.375,-158.375l1485.504,0m0,-78.039l-1485.504,0c-130.831,0 -236.414,106.042 -236.414,236.414l-0,1485.504c0,130.831 106.042,236.415 236.414,236.415l1485.504,0c130.831,0 236.415,-106.042 236.415,-236.415l0,-1485.504c0,-130.831 -105.584,-236.414 -236.415,-236.414Z" style="fill:#566b8d;fill-rule:nonzero;"/></g><g id="CallToAction"><g><rect x="291.667" y="669.433" width="1500" height="83.761" style="fill:#566b8d;"/><rect x="291.667" y="515.272" width="1500" height="83.761" style="fill:#566b8d;"/><rect x="291.667" y="823.595" width="1500" height="83.761" style="fill:#566b8d;"/><rect x="291.667" y="977.756" width="1166.618" height="83.761" style="fill:#566b8d;"/></g><g><path d="M1450.437,1286.918l0,187.429c0,51.722 -41.992,93.715 -93.715,93.715l-971.341,0c-51.722,0 -93.715,-41.992 -93.715,-93.715l0,-187.429c0,-51.722 41.992,-93.715 93.715,-93.715l971.341,0c51.722,0 93.715,41.992 93.715,93.715Zm-46.594,0c0,-26.007 -21.114,-47.121 -47.121,-47.121l-971.341,0c-26.007,0 -47.121,21.114 -47.121,47.121l0,187.429c0,26.007 21.114,47.121 47.121,47.121l971.341,0c26.007,0 47.121,-21.114 47.121,-47.121l0,-187.429Z" style="fill:#566b8d;"/><path d="M1347.161,1380.633l-159.722,79.861l0,-159.722l159.722,79.861Z" style="fill:#566b8d;"/></g></g></svg>