<?xml version="1.0" encoding="UTF-8" standalone="no"?><!DOCTYPE svg PUBLIC "-//W3C//DTD SVG 1.1//EN" "http://www.w3.org/Graphics/SVG/1.1/DTD/svg11.dtd"><svg width="100%" height="100%" viewBox="0 0 2084 2084" version="1.1" xmlns="http://www.w3.org/2000/svg" xmlns:xlink="http://www.w3.org/1999/xlink" xml:space="preserve" xmlns:serif="http://www.serif.com/" style="fill-rule:evenodd;clip-rule:evenodd;stroke-linejoin:round;stroke-miterlimit:2;"><rect id="calltoaction-admin" x="0" y="-0" width="2083.333" height="2083.333" style="fill:none;"/><g id="CallToAction"><g><rect x="104.167" y="576.375" width="1875" height="104.702" style="fill:#566b8d;"/><rect x="104.167" y="383.673" width="1875" height="104.702" style="fill:#566b8d;"/><rect x="104.167" y="769.077" width="1875" height="104.702" style="fill:#566b8d;"/><rect x="104.167" y="961.779" width="1458.272" height="104.702" style="fill:#566b8d;"/></g><g><path d="M1552.629,1348.231l0,234.286c0,64.653 -52.49,117.143 -117.143,117.143l-1214.176,0c-64.653,0 -117.143,-52.49 -117.143,-117.143l0,-234.286c0,-64.653 52.49,-117.143 117.143,-117.143l1214.176,0c64.653,0 117.143,52.49 117.143,117.143Zm-46.594,-0c0,-38.937 -31.612,-70.549 -70.55,-70.549l-1214.176,0c-38.937,0 -70.55,31.612 -70.55,70.549l0,234.286c0,38.937 31.612,70.549 70.55,70.549l1214.176,0c38.937,0 70.55,-31.612 70.55,-70.549l0,-234.286Z" style="fill:#566b8d;"/><path d="M1423.535,1465.374l-199.653,99.826l0,-199.653l199.653,99.826Z" style="fill:#566b8d;"/></g></g></svg>