<?xml version="1.0" encoding="UTF-8" standalone="no"?><!DOCTYPE svg PUBLIC "-//W3C//DTD SVG 1.1//EN" "http://www.w3.org/Graphics/SVG/1.1/DTD/svg11.dtd"><svg width="100%" height="100%" viewBox="0 0 2088 2084" version="1.1" xmlns="http://www.w3.org/2000/svg" xmlns:xlink="http://www.w3.org/1999/xlink" xml:space="preserve" xmlns:serif="http://www.serif.com/" style="fill-rule:evenodd;clip-rule:evenodd;stroke-linejoin:round;stroke-miterlimit:2;"><rect id="cards-admin" x="3.327" y="0" width="2083.333" height="2083.333" style="fill:none;"/><g id="Cards"><path id="Cards1" serif:id="Cards" d="M1243.721,1867.761c-28.911,40.411 -71.121,67.3 -119.542,70.333l-651.025,40.79c-93.999,5.89 -178.335,-81.258 -185.467,-195.091l-67.619,-1079.23c-4.012,-64.026 17.264,-122.724 53.377,-162.881c-0.039,7.19 0.167,14.45 0.625,21.773l67.619,1079.23c9.925,158.403 133.925,273.201 264.728,265.005l637.303,-39.93Zm85.555,-102.719c-22.501,15.754 -48.462,25.514 -76.507,27.271l-651.025,40.79c-93.999,5.89 -178.335,-81.258 -185.467,-195.091l-67.619,-1079.23c-7.132,-113.83 65.667,-210.823 159.665,-216.713l281.777,-17.655l-200.623,993.655c-32.675,161.834 61.835,310.089 195.472,337.07l544.328,109.902Zm-442.068,-1490.026c22.572,-111.798 117.994,-186.644 210.314,-168.004l639.399,129.097c92.32,18.64 151.227,124.646 128.655,236.443l-214.01,1059.957c-22.241,110.155 -116.616,186.924 -210.315,168.006l-639.399,-129.097c-92.32,-18.64 -151.227,-124.646 -128.654,-236.445l214.01,-1059.957Z" style="fill:#566b8d;"/></g></svg>