<?xml version="1.0" encoding="UTF-8" standalone="no"?><!DOCTYPE svg PUBLIC "-//W3C//DTD SVG 1.1//EN" "http://www.w3.org/Graphics/SVG/1.1/DTD/svg11.dtd"><svg width="100%" height="100%" viewBox="0 0 2084 2084" version="1.1" xmlns="http://www.w3.org/2000/svg" xmlns:xlink="http://www.w3.org/1999/xlink" xml:space="preserve" xmlns:serif="http://www.serif.com/" style="fill-rule:evenodd;clip-rule:evenodd;stroke-linejoin:round;stroke-miterlimit:2;"><rect id="cards-page" x="0" y="0" width="2083.333" height="2083.333" style="fill:none;"/><clipPath id="_clip1"><rect x="0" y="0" width="2083.333" height="2083.333"/></clipPath><g clip-path="url(#_clip1)"><g id="Cards"><path id="Cards1" serif:id="Cards" d="M1165.319,1832.868c-17.989,25.145 -44.253,41.875 -74.382,43.763l-405.082,25.38c-58.488,3.665 -110.964,-50.561 -115.402,-121.39l-42.074,-671.521c-2.496,-39.838 10.742,-76.362 33.212,-101.348c-0.024,4.474 0.104,8.991 0.389,13.548l42.074,671.521c6.175,98.562 83.331,169.992 164.72,164.892l396.544,-24.846Zm53.234,-63.914c-14,9.803 -30.154,15.875 -47.604,16.969l-405.082,25.38c-58.488,3.665 -110.964,-50.561 -115.402,-121.39l-42.074,-671.521c-4.438,-70.828 40.859,-131.179 99.347,-134.844l175.328,-10.985l-124.832,618.274c-20.331,100.696 38.475,192.944 121.627,209.733l338.693,68.384Zm-275.065,-927.127c14.045,-69.563 73.419,-116.134 130.862,-104.536l397.848,80.327c57.444,11.598 94.097,77.557 80.052,147.12l-133.162,659.529c-13.839,68.541 -72.561,116.308 -130.862,104.537l-397.848,-80.327c-57.444,-11.598 -94.097,-77.557 -80.051,-147.122l133.162,-659.529Z" style="fill:#566b8d;"/></g><g id="page"><path d="M1796.35,372.543c8.271,8.293 12.916,19.527 12.916,31.24c0,164.411 0,1387.535 0,1636.72c0,11.733 -4.661,22.985 -12.957,31.281c-8.296,8.296 -19.548,12.957 -31.281,12.957c-223.172,0 -1223.551,0 -1446.723,0c-11.733,-0 -22.985,-4.661 -31.281,-12.957c-8.296,-8.296 -12.957,-19.548 -12.957,-31.281c-0,-272.779 -0,-1723.487 -0,-1996.265c-0,-11.733 4.661,-22.985 12.957,-31.281c8.296,-8.296 19.548,-12.957 31.281,-12.957c193.261,-0 959.525,-0 1088.117,-0c11.753,0 23.022,4.677 31.322,12.998c58.779,58.933 299.926,300.711 358.606,359.545Zm-480.642,-296.991c0,0 -732.513,-0 -921.851,-0c-11.733,0 -22.985,4.661 -31.281,12.957c-8.296,8.296 -12.957,19.548 -12.957,31.281c-0,259.863 -0,1585.297 -0,1845.161c-0,11.733 4.661,22.985 12.957,31.281c8.296,8.296 19.548,12.957 31.281,12.957c208.033,0 1087.585,0 1295.618,0c24.432,-0 44.238,-19.806 44.238,-44.238c0,-250.136 0,-1476.131 0,-1476.131c0,0 -266.253,0 -373.767,0c-24.432,0 -44.238,-19.806 -44.238,-44.238c-0,-106.619 -0,-369.03 -0,-369.03Zm76.77,0l-1.217,-0c-0,0 0,201.894 0,293.477c0,24.432 19.806,44.238 44.238,44.238c91.838,-0 294.695,-0 294.695,-0l-337.715,-337.715Z" style="fill:#566b8d;"/></g></g></svg>