<?xml version="1.0" encoding="UTF-8" standalone="no"?><!DOCTYPE svg PUBLIC "-//W3C//DTD SVG 1.1//EN" "http://www.w3.org/Graphics/SVG/1.1/DTD/svg11.dtd"><svg width="100%" height="100%" viewBox="0 0 2084 2088" version="1.1" xmlns="http://www.w3.org/2000/svg" xmlns:xlink="http://www.w3.org/1999/xlink" xml:space="preserve" xmlns:serif="http://www.serif.com/" style="fill-rule:evenodd;clip-rule:evenodd;stroke-linejoin:round;stroke-miterlimit:2;"><rect id="cards-element" x="0" y="0.642" width="2083.333" height="2083.333" style="fill:none;"/><g id="Element"><path d="M1784.418,141.181c87.221,0 158.375,71.153 158.375,158.375l0,1485.504c0,87.221 -71.153,158.375 -158.375,158.375l-1485.504,0c-87.221,0 -158.375,-71.153 -158.375,-158.375l0,-1485.504c0,-87.221 71.153,-158.375 158.375,-158.375l1485.504,0m0,-78.039l-1485.504,0c-130.831,0 -236.414,106.042 -236.414,236.414l0,1485.504c0,130.831 106.042,236.415 236.414,236.415l1485.504,0c130.831,0 236.415,-106.042 236.415,-236.415l0,-1485.504c0,-130.831 -105.584,-236.414 -236.415,-236.414Z" style="fill:#566b8d;fill-rule:nonzero;"/></g><g id="Cards"><path id="Cards1" serif:id="Cards" d="M1200.649,1706.709c-23.129,32.329 -56.897,53.84 -95.634,56.267l-520.82,32.632c-75.199,4.712 -142.668,-65.007 -148.374,-156.073l-54.095,-863.384c-3.209,-51.22 13.812,-98.18 42.702,-130.305c-0.031,5.752 0.133,11.56 0.5,17.419l54.096,863.384c7.94,126.723 107.14,218.561 211.783,212.004l509.843,-31.944Zm68.444,-82.175c-18.001,12.603 -38.77,20.411 -61.206,21.817l-520.82,32.632c-75.199,4.712 -142.668,-65.007 -148.374,-156.073l-54.095,-863.384c-5.706,-91.064 52.533,-168.659 127.732,-173.37l225.421,-14.124l-160.499,794.924c-26.14,129.467 49.468,248.071 156.377,269.656l435.462,87.922Zm-353.655,-1192.021c18.058,-89.438 94.395,-149.315 168.251,-134.403l511.519,103.278c73.856,14.912 120.982,99.717 102.924,189.155l-171.208,847.966c-17.793,88.124 -93.293,149.539 -168.252,134.405l-511.519,-103.278c-73.856,-14.912 -120.982,-99.717 -102.923,-189.156l171.208,-847.966Z" style="fill:#566b8d;"/></g></svg>