<?xml version="1.0" encoding="UTF-8" standalone="no"?><!DOCTYPE svg PUBLIC "-//W3C//DTD SVG 1.1//EN" "http://www.w3.org/Graphics/SVG/1.1/DTD/svg11.dtd"><svg width="100%" height="100%" viewBox="0 0 2084 2084" version="1.1" xmlns="http://www.w3.org/2000/svg" xmlns:xlink="http://www.w3.org/1999/xlink" xml:space="preserve" xmlns:serif="http://www.serif.com/" style="fill-rule:evenodd;clip-rule:evenodd;stroke-linejoin:round;stroke-miterlimit:2;"><rect id="citation-element" x="0" y="-0" width="2083.333" height="2083.333" style="fill:none;"/><g id="element"><path d="M1784.418,140.539c87.221,0 158.375,71.153 158.375,158.375l0,1485.504c0,87.221 -71.153,158.375 -158.375,158.375l-1485.504,0c-87.221,0 -158.375,-71.153 -158.375,-158.375l0,-1485.504c0,-87.221 71.153,-158.375 158.375,-158.375l1485.504,0m0,-78.039l-1485.504,0c-130.831,0 -236.414,106.042 -236.414,236.414l0,1485.504c0,130.831 106.042,236.415 236.414,236.415l1485.504,0c130.831,0 236.415,-106.042 236.415,-236.415l0,-1485.504c0,-130.831 -105.584,-236.414 -236.415,-236.414Z" style="fill:#566b8d;fill-rule:nonzero;"/></g><g id="Citation"><g><rect x="584.444" y="998.772" width="914.707" height="85.79" style="fill:#566b8d;"/><rect x="584.444" y="1130.766" width="699.662" height="85.79" style="fill:#566b8d;"/><rect x="584.182" y="866.778" width="914.707" height="85.79" style="fill:#566b8d;"/></g><path d="M1425.592,355.853l126.612,0l-80.541,377.772l-183.037,0l136.966,-377.772Zm239.462,0l126.612,0l-80.541,377.772l-183.037,0l136.966,-377.772Zm-1007.314,1371.628l-126.612,0l80.541,-377.772l183.037,0l-136.966,377.772Zm-239.462,0l-126.612,0l80.541,-377.772l183.037,0l-136.966,377.772Z" style="fill:#566b8d;"/></g></svg>