<?xml version="1.0" encoding="UTF-8" standalone="no"?><!DOCTYPE svg PUBLIC "-//W3C//DTD SVG 1.1//EN" "http://www.w3.org/Graphics/SVG/1.1/DTD/svg11.dtd"><svg width="100%" height="100%" viewBox="0 0 2084 2084" version="1.1" xmlns="http://www.w3.org/2000/svg" xmlns:xlink="http://www.w3.org/1999/xlink" xml:space="preserve" xmlns:serif="http://www.serif.com/" style="fill-rule:evenodd;clip-rule:evenodd;stroke-linejoin:round;stroke-miterlimit:2;"><rect id="citationlist-admin" x="0" y="-0" width="2083.333" height="2083.333" style="fill:none;"/><g id="CitationList"><g><path d="M985.35,1128.418l0,554.952l-881.184,0l0,-554.952l881.184,0Zm-39.457,52.67l-797.701,0l0,97.797l797.701,0l0,-97.797Zm-187.835,150.467l-609.866,0l0,97.797l609.866,0l0,-97.797Z" style="fill:#566b8d;"/></g><g><path d="M1979.167,1128.418l0,554.952l-881.184,0l0,-554.952l881.184,0Zm-227.293,203.137l-609.866,0l0,97.797l609.866,0l0,-97.797Zm187.835,-150.467l-797.701,0l0,97.797l797.701,0l0,-97.797Z" style="fill:#566b8d;"/></g><g><rect x="104.167" y="603.1" width="1875" height="97.797" style="fill:#566b8d;"/><rect x="104.167" y="399.963" width="1875" height="97.797" style="fill:#566b8d;"/><rect x="104.167" y="806.238" width="1471.708" height="97.797" style="fill:#566b8d;"/></g></g></svg>