<?xml version="1.0" encoding="UTF-8" standalone="no"?><!DOCTYPE svg PUBLIC "-//W3C//DTD SVG 1.1//EN" "http://www.w3.org/Graphics/SVG/1.1/DTD/svg11.dtd"><svg width="100%" height="100%" viewBox="0 0 2084 2084" version="1.1" xmlns="http://www.w3.org/2000/svg" xmlns:xlink="http://www.w3.org/1999/xlink" xml:space="preserve" xmlns:serif="http://www.serif.com/" style="fill-rule:evenodd;clip-rule:evenodd;stroke-linejoin:round;stroke-miterlimit:2;"><rect id="citationlist-element" x="0" y="0" width="2083.333" height="2083.333" style="fill:none;"/><g id="element"><path d="M1784.418,140.539c87.221,0 158.375,71.153 158.375,158.375l0,1485.504c0,87.221 -71.153,158.375 -158.375,158.375l-1485.504,0c-87.221,0 -158.375,-71.153 -158.375,-158.375l0,-1485.504c0,-87.221 71.153,-158.375 158.375,-158.375l1485.504,0m0,-78.039l-1485.504,0c-130.831,0 -236.414,106.042 -236.414,236.414l0,1485.504c0,130.831 106.042,236.415 236.414,236.415l1485.504,0c130.831,0 236.415,-106.042 236.415,-236.415l0,-1485.504c0,-130.831 -105.584,-236.414 -236.415,-236.414Z" style="fill:#566b8d;fill-rule:nonzero;"/></g><g id="CitationList"><g><path d="M996.614,1111.068l0,443.962l-704.947,0l0,-443.962l704.947,0Zm-31.566,42.136l-638.161,0l0,78.237l638.161,0l0,-78.237Zm-150.268,120.374l-487.893,0l0,78.237l487.893,0l0,-78.237Z" style="fill:#566b8d;"/></g><g><path d="M1791.667,1111.068l0,443.962l-704.947,0l0,-443.962l704.947,0Zm-181.834,162.51l-487.893,0l0,78.237l487.893,0l0,-78.237Zm150.268,-120.374l-638.161,0l0,78.237l638.161,0l0,-78.237Z" style="fill:#566b8d;"/></g><g><rect x="291.667" y="690.814" width="1500" height="78.237" style="fill:#566b8d;"/><rect x="291.667" y="528.304" width="1500" height="78.237" style="fill:#566b8d;"/><rect x="291.667" y="853.324" width="1177.367" height="78.237" style="fill:#566b8d;"/></g></g></svg>