<?xml version="1.0" encoding="UTF-8" standalone="no"?><!DOCTYPE svg PUBLIC "-//W3C//DTD SVG 1.1//EN" "http://www.w3.org/Graphics/SVG/1.1/DTD/svg11.dtd"><svg width="100%" height="100%" viewBox="0 0 2084 2084" version="1.1" xmlns="http://www.w3.org/2000/svg" xmlns:xlink="http://www.w3.org/1999/xlink" xml:space="preserve" xmlns:serif="http://www.serif.com/" style="fill-rule:evenodd;clip-rule:evenodd;stroke-linejoin:round;stroke-miterlimit:2;"><rect id="clock-admin" x="0" y="0" width="2083.333" height="2083.333" style="fill:none;"/><g id="Clock"><path id="Clock1" serif:id="Clock" d="M1041.667,104.167c517.42,0 937.5,420.08 937.5,937.5c0,517.42 -420.08,937.5 -937.5,937.5c-517.42,0 -937.5,-420.08 -937.5,-937.5c0,-517.42 420.08,-937.5 937.5,-937.5Zm0,145.833c-436.933,0 -791.667,354.734 -791.667,791.667c0,436.933 354.734,791.667 791.667,791.667c436.933,0 791.667,-354.734 791.667,-791.667c0,-436.933 -354.734,-791.667 -791.667,-791.667Zm-72.917,170.302c0,-40.244 32.673,-72.917 72.917,-72.917c40.244,0 72.917,32.673 72.917,72.917l0,598.407l242.754,347.299c23.056,32.985 14.994,78.483 -17.99,101.538c-32.985,23.056 -78.483,14.994 -101.538,-17.99l-255.906,-366.115c-8.561,-12.248 -13.152,-26.831 -13.152,-41.774l0,-621.364Z" style="fill:#566b8d;"/></g></svg>