<?xml version="1.0" encoding="UTF-8" standalone="no"?><!DOCTYPE svg PUBLIC "-//W3C//DTD SVG 1.1//EN" "http://www.w3.org/Graphics/SVG/1.1/DTD/svg11.dtd"><svg width="100%" height="100%" viewBox="0 0 2084 2084" version="1.1" xmlns="http://www.w3.org/2000/svg" xmlns:xlink="http://www.w3.org/1999/xlink" xml:space="preserve" xmlns:serif="http://www.serif.com/" style="fill-rule:evenodd;clip-rule:evenodd;stroke-linejoin:round;stroke-miterlimit:2;"><rect id="timeline-element" x="0" y="0" width="2083.333" height="2083.333" style="fill:none;"/><g id="element"><path d="M1784.418,140.539c87.221,0 158.375,71.153 158.375,158.375l0,1485.504c0,87.221 -71.153,158.375 -158.375,158.375l-1485.504,0c-87.221,0 -158.375,-71.153 -158.375,-158.375l0,-1485.504c0,-87.221 71.153,-158.375 158.375,-158.375l1485.504,0m0,-78.039l-1485.504,0c-130.831,0 -236.414,106.042 -236.414,236.414l0,1485.504c0,130.831 106.042,236.415 236.414,236.415l1485.504,0c130.831,0 236.415,-106.042 236.415,-236.415l0,-1485.504c0,-130.831 -105.584,-236.414 -236.415,-236.414Z" style="fill:#566b8d;fill-rule:nonzero;"/></g><g id="Clock"><path id="Clock1" serif:id="Clock" d="M1041.667,296.132c413.936,0 750,336.064 750,750c0,413.936 -336.064,750 -750,750c-413.936,0 -750,-336.064 -750,-750c0,-413.936 336.064,-750 750,-750Zm0,116.667c-349.546,0 -633.333,283.787 -633.333,633.333c0,349.546 283.787,633.333 633.333,633.333c349.546,0 633.333,-283.787 633.333,-633.333c0,-349.546 -283.787,-633.333 -633.333,-633.333Zm-58.333,136.242c0,-32.195 26.138,-58.333 58.333,-58.333c32.195,0 58.333,26.138 58.333,58.333l0,478.725l194.203,277.839c18.445,26.388 11.996,62.786 -14.392,81.231c-26.388,18.445 -62.786,11.996 -81.231,-14.392l-204.725,-292.892c-6.849,-9.798 -10.522,-21.464 -10.522,-33.419l0,-497.091Z" style="fill:#566b8d;"/></g></svg>