<?xml version="1.0" encoding="UTF-8" standalone="no"?><!DOCTYPE svg PUBLIC "-//W3C//DTD SVG 1.1//EN" "http://www.w3.org/Graphics/SVG/1.1/DTD/svg11.dtd"><svg width="100%" height="100%" viewBox="0 0 2084 2084" version="1.1" xmlns="http://www.w3.org/2000/svg" xmlns:xlink="http://www.w3.org/1999/xlink" xml:space="preserve" xmlns:serif="http://www.serif.com/" style="fill-rule:evenodd;clip-rule:evenodd;stroke-linejoin:round;stroke-miterlimit:2;"><rect id="counter-page" x="0" y="0" width="2083.333" height="2083.333" style="fill:none;"/><clipPath id="_clip1"><rect x="0" y="0" width="2083.333" height="2083.333"/></clipPath><g clip-path="url(#_clip1)"><g id="page"><path d="M1796.35,372.543c8.271,8.293 12.916,19.527 12.916,31.24c0,164.411 0,1387.535 0,1636.72c0,11.733 -4.661,22.985 -12.957,31.281c-8.296,8.296 -19.548,12.957 -31.281,12.957c-223.172,0 -1223.551,0 -1446.723,0c-11.733,-0 -22.985,-4.661 -31.281,-12.957c-8.296,-8.296 -12.957,-19.548 -12.957,-31.281c-0,-272.779 -0,-1723.487 -0,-1996.265c-0,-11.733 4.661,-22.985 12.957,-31.281c8.296,-8.296 19.548,-12.957 31.281,-12.957c193.261,0 959.525,0 1088.117,0c11.753,0 23.022,4.677 31.322,12.998c58.779,58.933 299.926,300.711 358.606,359.545Zm-480.642,-296.991c0,-0 -732.513,-0 -921.851,-0c-11.733,0 -22.985,4.661 -31.281,12.957c-8.296,8.296 -12.957,19.548 -12.957,31.281c-0,259.863 -0,1585.297 -0,1845.161c-0,11.733 4.661,22.985 12.957,31.281c8.296,8.296 19.548,12.957 31.281,12.957c208.033,0 1087.585,0 1295.618,0c24.432,-0 44.238,-19.806 44.238,-44.238c0,-250.136 0,-1476.131 0,-1476.131c0,-0 -266.253,-0 -373.767,0c-24.432,0 -44.238,-19.806 -44.238,-44.238c-0,-106.619 0,-369.03 -0,-369.03Zm76.77,0l-1.217,-0c0,-0 0,201.894 0,293.477c0,24.432 19.806,44.238 44.238,44.238l294.695,-0l-337.715,-337.715Z" style="fill:#566b8d;"/></g><g id="Counter"><path id="Counter1" serif:id="Counter" d="M458.241,1046.229c0.118,-2.914 -0.863,-3.175 1.091,-5.753l0.041,-1.114c0.146,-2.253 -0.019,-2.203 0.576,-4.398l0.535,-1.323c0.177,-1.688 0.156,-1.605 0.594,-3.209c0.278,-0.448 2.241,-3.609 2.733,-6.004l0.693,-3.128c0.509,-0.843 4.668,-7.734 6.549,-10.414c0.071,-0.101 0.738,-1.052 0.823,-1.309c0.381,-1.84 0.066,-1.929 1.247,-3.407c2.381,-3.194 1.895,-3.862 4.571,-4.628c7.556,-6.346 7.899,-8.041 8.091,-8.989c1.768,-2.369 2.139,-1.799 4.487,-3.545c1.502,-1.222 1.551,-0.864 3.413,-1.242c1.014,-0.328 0.44,-1.208 11.444,-6.82c1.564,-1.065 1.565,-0.829 3.408,-1.242c2.384,-0.493 5.557,-2.453 6.006,-2.731c1.58,-0.421 1.489,-0.406 3.209,-0.58l1.349,-0.505c2.246,-0.441 2.132,-0.335 4.392,-0.441c13.901,-0.85 13.916,-0.763 1009.295,-0.762c12.59,0 12.524,0.083 25.117,0.771c2.271,0.117 2.156,0.013 4.389,0.455l1.352,0.482c1.717,0.175 1.626,0.159 3.209,0.582c4.94,3.06 9.638,3.258 13.971,6.301c1.273,0.436 1.162,0.434 2.186,1.322c3.155,2.33 3.13,2.334 6.847,3.44c0.836,0.672 4.193,2.708 5.842,4.421c0.815,1.056 0.804,0.967 1.202,2.26c0.501,0.586 0.505,0.445 6.805,6.824c4.08,1.194 2.866,2.622 5.581,5.872l0.205,1.026l1.04,2.359c1.016,2.199 6.736,10.777 7.462,13.914c0.713,3.082 0.901,2.935 2.302,5.727c0.43,1.603 0.41,1.523 0.617,3.2l0.529,1.328c0.454,1.672 0.419,1.588 0.614,3.256l0.066,2.241c1.393,2.026 0.9,2.135 1.076,4.62c-0.12,18.268 -0.088,18.238 -0.062,228.35c2.951,7.118 0.915,28.289 1.269,86.779c0.212,35.083 0.028,89.735 0.026,98.19c-0.027,122.375 0.706,122.586 -1.29,127.883l0.046,5.709c-0.16,2.825 0.76,3.052 -1.089,5.757l-0.043,1.112c-0.171,2.224 0.001,2.166 -0.604,4.395l-0.469,0.224c-0.259,1.702 -0.246,1.618 -0.672,3.196l-0.443,0.246l-0.676,3.142c-2.127,4.111 -1.543,4.323 -3.982,8.285c-3.966,6.44 -4.323,7.271 -4.614,7.946c-0.161,1.903 0.048,1.923 -1.195,3.467l-1.164,1.118c-0.98,1.221 -0.918,1.112 -0.98,1.221c-0.431,0.749 -0.539,0.57 -1.131,1.195l-0.13,1.06l-1.189,1.104l-2.212,1.25c-0.707,0.611 -0.643,0.59 -5.667,5.671c-0.442,1.32 -0.461,1.197 -1.255,2.211l-1.116,1.179c-1.63,1.346 -1.829,0.89 -3.465,2.248l-1.082,1.195c-1.457,1.279 -1.517,1.093 -3.503,1.168c-0.602,0.257 -2.273,0.972 -6.952,4.309c-0.666,0.475 -0.905,-0.051 -9.276,4.288l-3.144,0.67l-0.244,0.448c-1.612,0.438 -1.526,0.422 -3.183,0.69c-1.989,1.482 -2.118,0.944 -4.631,1.058l-1.113,0.036c-2.55,1.706 -2.744,0.866 -5.761,0.958c-23.256,-0.042 -1007.867,-0.04 -1023.002,-0c-3.221,-0.022 -3.433,0.839 -5.772,-0.939l-1.106,-0.051c-2.525,-0.112 -2.654,0.425 -4.629,-1.061c-1.669,-0.264 -1.58,-0.253 -3.146,-0.696c-4.145,-2.507 -8.959,-3.203 -10.419,-4.257c-5.235,-3.78 -8.442,-5.119 -9.233,-5.449c-2.788,-0.087 -2.735,-0.316 -4.607,-2.337c-2.701,-2.049 -3.668,-1.225 -4.643,-4.548c-0.498,-0.588 -0.508,-0.459 -6.819,-6.809c-1.283,-0.396 -1.194,-0.383 -2.26,-1.2c-2.7,-2.572 -2.098,-2.983 -4.428,-5.84c-1.112,-3.748 -0.872,-3.874 -3.44,-6.844c-0.877,-1.006 -0.88,-0.895 -1.325,-2.188c-3.549,-6.86 -2.796,-7.131 -6.292,-13.973c-0.438,-1.603 -0.416,-1.52 -0.595,-3.208l-0.06,-1.104c-1.412,-2.076 -0.895,-2.18 -1.05,-4.617l-0.042,-1.114c-1.923,-2.572 -0.965,-2.816 -1.089,-5.752c0.122,-16.639 0.133,-524.877 -0.004,-544.62Zm53.961,227.206c1.07,2.218 1.575,2.005 1.495,4.566c-0.021,0.683 -0.416,297.273 0.104,309.501c0.862,2.808 0.663,2.75 0.663,5.587c0.24,1.185 1.978,3.206 2.191,3.454c0.896,0.963 0.903,0.853 1.333,2.164c2.059,2.54 1.978,2.471 4.501,4.477c1.234,0.412 1.147,0.387 2.169,1.33c0.885,0.549 1.794,2.679 6.838,3.362c4.708,-0.404 4.835,-0.882 9.126,1.164l1000.155,-0c4.368,-1.781 4.428,-1.343 9.125,-1.169c1.87,-0.247 1.835,-0.101 3.449,-1.023l2.2,-1.29l1.178,-1.057c0.958,-0.884 0.891,-0.897 2.183,-1.316c2.57,-2.042 2.505,-1.988 4.483,-4.485c0.416,-1.286 0.401,-1.199 1.309,-2.188l1.065,-1.172l1.283,-2.203c0.941,-1.595 0.794,-1.559 1.04,-3.444c-0.581,-14.759 -0.635,-522.609 0.02,-542.307c-0.094,-0.603 -0.535,-3.431 -3.374,-6.846l-1.317,-2.169c-0.324,-0.393 -0.345,-0.232 -4.49,-4.52l-2.167,-1.318c-0.284,-0.162 -2.222,-1.263 -3.473,-2.159c-2.962,-0.11 -2.853,-0.124 -5.688,-1.039c-3.525,0.075 -3.467,0.061 -6.831,-1.238l-1000.151,-0c-3.362,1.289 -3.284,1.291 -6.939,1.598c-2.773,0.848 -2.715,0.667 -5.577,0.695c-1.261,0.261 -3.205,1.962 -3.451,2.177c-0.974,0.887 -0.864,0.893 -2.172,1.327c-2.578,2.053 -2.49,1.998 -4.491,4.486c-0.43,1.295 -0.433,1.184 -1.332,2.166l-1.008,1.207l-1.158,2.257c-1.725,10.53 -1.535,10.508 -2.296,12.51l-0,216.919Zm720.381,174.245c20.945,-24.41 51.545,-39.769 88.194,-42.834c0.879,41.509 7.83,111.292 7.83,111.292c0,0 9.015,-79.519 9.015,-119.279c0,-39.76 -9.015,-119.279 -9.015,-119.279c0,0 -4.712,47.301 -6.867,87.182c-17.034,-1.683 -32.501,-6.176 -46.281,-13.655c-1.849,8.279 -2.817,17.926 -2.817,29.102l-77.357,0c0,-37.67 8.97,-68.948 25.766,-92.451c-15.232,-35.014 -23.29,-82.508 -23.29,-143.787c0,-26.617 1.533,-50.52 4.524,-71.853l82.881,0c-2.57,19.996 -3.86,44.185 -3.86,73.09c0,13.369 0.27,25.734 0.809,37.147c43.853,-7.171 60.146,-29.959 64.171,-68.695l51.378,0c-0.615,-15.492 -1.698,-29.301 -3.251,-41.543l32.766,0c-1.182,17.755 -2.07,35.531 -2.07,48.847c0,39.76 7.921,119.279 7.921,119.279c0,0 9.015,-79.519 9.015,-119.279c0,-13.316 -1.011,-31.092 -2.356,-48.847l32.28,0c1.837,0.664 2.547,0.933 3.521,1.027c2.95,20.746 4.471,43.9 4.471,69.588c0,65.127 -9.774,115.201 -27.837,151.226c10.402,17.354 16.079,38.851 16.079,64.59c0,34.321 -9.329,60.618 -32.291,87.703c16.416,18.627 26.102,42.578 26.102,70.04c0,16.948 -3.352,33.767 -10.056,48.809l-34.02,0c0.48,-9.053 0.773,-17.514 0.773,-24.682c0,-39.76 -9.015,-119.279 -9.015,-119.279c0,0 -7.921,79.519 -7.921,119.279c0,7.168 0.257,15.628 0.679,24.682l-27.566,0c7.423,-9.433 9.768,-21.028 9.768,-33.337c0,-2.461 -0.058,-4.855 -0.176,-7.181l-41.894,0c-16.136,12.676 -29.71,26.96 -38.667,40.518l-93.893,0c4.966,-9.647 11.074,-19.263 18.562,-29.006l-26.495,0c0,-24.37 5.236,-46.301 14.786,-64.963c-0.127,-2.459 -0.198,-4.775 -0.198,-6.892c0,-22.461 7.921,-67.383 7.921,-67.383c0,0 5.616,27.984 7.982,50.821Zm9.021,-356.369c0,0 -7.921,79.519 -7.921,119.279c0,39.76 7.921,119.279 7.921,119.279c0,0 9.015,-79.519 9.015,-119.279c0,-39.76 -9.015,-119.279 -9.015,-119.279Zm47.111,149.216c0.174,0.828 0.35,1.647 0.53,2.457c4.011,-0.976 8.136,-1.795 12.375,-2.457l-12.905,0Zm195.588,-45.638c0,0 4.945,79.519 4.945,119.279c0,39.76 -4.945,119.279 -4.945,119.279c0,0 -4.345,-79.519 -4.345,-119.279c0,-39.76 4.345,-119.279 4.345,-119.279Zm-893.386,370.213c22.209,-35.332 60.577,-55.016 111.762,-55.016c56.37,0 100.444,18.015 122.892,55.016l-234.654,0Zm194.689,-82.061l-80.452,0l0,-284.056l-84.165,0l0,-55.697c70.55,0 94.066,-23.517 99.017,-71.169l65.599,0l0,410.922Zm321.672,-410.922l0,186.024l26.92,0l0,19.82l19.494,0l0,62.505l-46.414,0l0,89.734l-4.261,0c28.561,21.589 46.653,57.87 46.653,106.427c0,9.882 -0.725,19.386 -2.13,28.473l-80.222,0c1.293,-7.619 1.9,-15.908 1.9,-24.76c0,-42.701 -18.566,-68.074 -56.316,-68.074c-29.086,0 -46.414,12.377 -57.554,35.275l-82.927,0l5.804,-167.075l-11.064,0l0,-69.931l118.269,-198.418l121.848,0Zm-180.493,205.461c0,0 -4.51,38.805 -4.51,58.208c0,19.403 4.51,58.208 4.51,58.208c0,0 5.133,-38.805 5.133,-58.208c0,-19.403 -5.133,-58.208 -5.133,-58.208Zm160.868,122.142c0,0 -4.51,38.805 -4.51,58.208c0,19.403 4.51,58.208 4.51,58.208c0,0 5.133,-38.805 5.133,-58.208c0,-19.403 -5.133,-58.208 -5.133,-58.208Zm-60.826,7.603l0,-66.857l-74.434,0l-3.233,95.906c20.701,-21.884 48.751,-28.506 77.667,-29.049Zm21.527,-322.984c0,0 -4.51,38.805 -4.51,58.208c0,19.403 4.51,58.208 4.51,58.208c0,0 5.133,-38.805 5.133,-58.208c0,-19.403 -5.133,-58.208 -5.133,-58.208Zm-19.67,173.802l0,-124.993l-72.645,124.993l72.645,0Z" style="fill:#586c8d;fill-opacity:1;"/></g></g></svg>