<?xml version="1.0" encoding="UTF-8" standalone="no"?><!DOCTYPE svg PUBLIC "-//W3C//DTD SVG 1.1//EN" "http://www.w3.org/Graphics/SVG/1.1/DTD/svg11.dtd"><svg width="100%" height="100%" viewBox="0 0 2084 2084" version="1.1" xmlns="http://www.w3.org/2000/svg" xmlns:xlink="http://www.w3.org/1999/xlink" xml:space="preserve" xmlns:serif="http://www.serif.com/" style="fill-rule:evenodd;clip-rule:evenodd;stroke-linejoin:round;stroke-miterlimit:2;"><rect id="counter-element" x="0" y="0" width="2083.333" height="2083.333" style="fill:none;"/><g id="element"><path d="M1784.418,140.539c87.221,0 158.375,71.153 158.375,158.375l0,1485.504c0,87.221 -71.153,158.375 -158.375,158.375l-1485.504,0c-87.221,0 -158.375,-71.153 -158.375,-158.375l0,-1485.504c0,-87.221 71.153,-158.375 158.375,-158.375l1485.504,0m0,-78.039l-1485.504,0c-130.831,0 -236.414,106.042 -236.414,236.414l0,1485.504c0,130.831 106.042,236.415 236.414,236.415l1485.504,0c130.831,0 236.415,-106.042 236.415,-236.415l0,-1485.504c0,-130.831 -105.584,-236.414 -236.415,-236.414Z" style="fill:#566b8d;fill-rule:nonzero;"/></g><g id="Counter"><path id="Counter1" serif:id="Counter" d="M291.851,691.149c0.152,-3.746 -1.109,-4.083 1.403,-7.397l0.053,-1.433c0.188,-2.896 -0.024,-2.833 0.741,-5.654l0.688,-1.701c0.228,-2.171 0.2,-2.064 0.764,-4.126c0.358,-0.576 2.882,-4.64 3.514,-7.719l0.891,-4.021c0.654,-1.083 6.002,-9.943 8.42,-13.39c0.091,-0.13 0.949,-1.353 1.058,-1.684c0.49,-2.365 0.084,-2.48 1.604,-4.38c3.062,-4.107 2.436,-4.966 5.877,-5.951c9.715,-8.159 10.156,-10.338 10.402,-11.557c2.273,-3.045 2.751,-2.313 5.769,-4.557c1.932,-1.571 1.995,-1.111 4.388,-1.597c1.304,-0.422 0.565,-1.553 14.714,-8.769c2.011,-1.37 2.013,-1.066 4.381,-1.597c3.066,-0.633 7.145,-3.154 7.722,-3.511c2.031,-0.541 1.915,-0.522 4.126,-0.746l1.734,-0.649c2.888,-0.567 2.741,-0.431 5.647,-0.567c17.873,-1.093 17.892,-0.981 1297.665,-0.98c16.188,0 16.102,0.107 32.294,0.991c2.919,0.151 2.773,0.017 5.644,0.585l1.738,0.62c2.207,0.225 2.091,0.205 4.125,0.748c6.351,3.934 12.391,4.189 17.962,8.102c1.636,0.561 1.494,0.558 2.811,1.7c4.057,2.995 4.025,3 8.803,4.423c1.075,0.864 5.391,3.482 7.511,5.684c1.048,1.357 1.033,1.243 1.545,2.905c0.644,0.753 0.65,0.572 8.749,8.774c5.245,1.535 3.685,3.372 7.175,7.55l0.264,1.319l1.337,3.033c1.306,2.827 8.661,13.856 9.594,17.889c0.916,3.963 1.158,3.774 2.96,7.363c0.552,2.061 0.527,1.959 0.793,4.114l0.68,1.707c0.584,2.149 0.539,2.041 0.79,4.186l0.085,2.881c1.791,2.604 1.157,2.744 1.383,5.94c-0.155,23.487 -0.113,23.448 -0.079,293.592c3.795,9.152 1.177,36.372 1.631,111.573c0.273,45.106 0.036,115.374 0.034,126.244c-0.035,157.339 0.908,157.611 -1.659,164.421l0.06,7.34c-0.205,3.632 0.977,3.925 -1.4,7.401l-0.055,1.43c-0.22,2.859 0.001,2.784 -0.777,5.651l-0.603,0.287c-0.333,2.189 -0.317,2.08 -0.865,4.109l-0.57,0.316l-0.869,4.04c-2.735,5.285 -1.983,5.559 -5.119,10.652c-5.099,8.281 -5.559,9.349 -5.932,10.217c-0.207,2.446 0.062,2.473 -1.536,4.457l-1.496,1.437c-1.26,1.57 -1.18,1.43 -1.26,1.57c-0.554,0.963 -0.693,0.732 -1.454,1.536l-0.167,1.363l-1.529,1.42l-2.844,1.607c-0.909,0.786 -0.827,0.759 -7.286,7.292c-0.568,1.697 -0.593,1.54 -1.613,2.842l-1.435,1.516c-2.096,1.731 -2.351,1.145 -4.455,2.89l-1.392,1.536c-1.873,1.644 -1.95,1.405 -4.504,1.502c-0.774,0.331 -2.923,1.25 -8.939,5.54c-0.856,0.61 -1.164,-0.065 -11.926,5.513l-4.043,0.861l-0.313,0.576c-2.072,0.563 -1.962,0.543 -4.093,0.887c-2.557,1.905 -2.724,1.213 -5.955,1.36l-1.431,0.046c-3.279,2.193 -3.527,1.113 -7.407,1.232c-29.901,-0.054 -1295.829,-0.052 -1315.288,-0c-4.141,-0.028 -4.414,1.078 -7.421,-1.207l-1.422,-0.065c-3.246,-0.144 -3.412,0.546 -5.951,-1.365c-2.146,-0.339 -2.032,-0.325 -4.045,-0.895c-5.329,-3.224 -11.518,-4.118 -13.396,-5.473c-6.731,-4.86 -10.854,-6.581 -11.872,-7.006c-3.585,-0.112 -3.516,-0.406 -5.923,-3.005c-3.472,-2.635 -4.715,-1.575 -5.97,-5.848c-0.641,-0.756 -0.653,-0.591 -8.768,-8.755c-1.65,-0.509 -1.535,-0.493 -2.905,-1.542c-3.471,-3.307 -2.697,-3.835 -5.693,-7.508c-1.43,-4.819 -1.122,-4.98 -4.423,-8.8c-1.127,-1.293 -1.131,-1.151 -1.703,-2.813c-4.563,-8.82 -3.595,-9.169 -8.089,-17.966c-0.563,-2.061 -0.535,-1.954 -0.766,-4.124l-0.077,-1.419c-1.815,-2.67 -1.151,-2.803 -1.35,-5.937l-0.054,-1.433c-2.472,-3.306 -1.241,-3.621 -1.4,-7.396c0.157,-21.393 0.171,-674.841 -0.005,-700.226Zm69.378,292.122c1.376,2.852 2.025,2.578 1.922,5.87c-0.028,0.878 -0.535,382.209 0.134,397.929c1.108,3.61 0.853,3.536 0.853,7.184c0.309,1.523 2.543,4.122 2.817,4.441c1.152,1.239 1.161,1.097 1.714,2.782c2.648,3.266 2.543,3.177 5.787,5.757c1.587,0.529 1.475,0.497 2.789,1.711c1.138,0.706 2.306,3.444 8.792,4.323c6.053,-0.52 6.216,-1.134 11.733,1.496l1285.914,-0.001c5.616,-2.29 5.693,-1.727 11.733,-1.503c2.404,-0.318 2.359,-0.13 4.434,-1.316l2.829,-1.659l1.515,-1.359c1.232,-1.136 1.145,-1.154 2.807,-1.691c3.304,-2.626 3.22,-2.556 5.764,-5.767c0.535,-1.654 0.516,-1.542 1.683,-2.814l1.37,-1.507l1.65,-2.833c1.21,-2.05 1.021,-2.004 1.338,-4.428c-0.746,-18.976 -0.816,-671.926 0.026,-697.251c-0.121,-0.776 -0.688,-4.411 -4.339,-8.802l-1.693,-2.789c-0.417,-0.506 -0.444,-0.298 -5.772,-5.812l-2.786,-1.695c-0.366,-0.208 -2.857,-1.624 -4.465,-2.776c-3.808,-0.142 -3.668,-0.159 -7.313,-1.336c-4.532,0.096 -4.457,0.078 -8.783,-1.592l-1285.908,-0c-4.323,1.657 -4.223,1.66 -8.921,2.055c-3.565,1.091 -3.491,0.857 -7.17,0.894c-1.622,0.336 -4.121,2.522 -4.437,2.798c-1.252,1.14 -1.111,1.148 -2.793,1.706c-3.315,2.64 -3.201,2.569 -5.774,5.768c-0.553,1.665 -0.557,1.523 -1.712,2.785l-1.295,1.552l-1.489,2.902c-2.217,13.539 -1.973,13.51 -2.952,16.084l-0,278.896Zm926.204,224.029c26.93,-31.385 66.272,-51.132 113.392,-55.072c1.13,53.369 10.067,143.089 10.067,143.089c0,0 11.59,-102.239 11.59,-153.359c0,-51.12 -11.59,-153.359 -11.59,-153.359c0,0 -6.058,60.816 -8.829,112.091c-21.901,-2.164 -41.787,-7.941 -59.505,-17.556c-2.377,10.644 -3.622,23.048 -3.622,37.417l-99.459,0c0,-48.432 11.533,-88.647 33.127,-118.865c-19.584,-45.018 -29.944,-106.081 -29.944,-184.869c0,-34.222 1.97,-64.955 5.817,-92.382l106.562,0c-3.304,25.71 -4.963,56.809 -4.963,93.973c0,17.189 0.347,33.087 1.04,47.761c56.383,-9.22 77.331,-38.518 82.506,-88.322l66.057,0c-0.79,-19.918 -2.183,-37.672 -4.18,-53.412l42.127,0c-1.519,22.827 -2.662,45.682 -2.662,62.803c0,51.12 10.184,153.359 10.184,153.359c0,0 11.59,-102.239 11.59,-153.359c0,-17.121 -1.3,-39.975 -3.029,-62.803l41.503,0c2.362,0.854 3.275,1.199 4.527,1.321c3.793,26.673 5.748,56.442 5.748,89.47c0,83.735 -12.566,148.115 -35.791,194.433c13.375,22.313 20.673,49.951 20.673,83.044c0,44.127 -11.995,77.938 -41.517,112.762c21.106,23.949 33.56,54.743 33.56,90.052c0,21.79 -4.31,43.414 -12.929,62.754l-43.74,0c0.618,-11.64 0.994,-22.517 0.994,-31.733c0,-51.12 -11.59,-153.359 -11.59,-153.359c0,0 -10.184,102.239 -10.184,153.359c0,9.216 0.331,20.093 0.874,31.733l-35.442,0c9.543,-12.128 12.559,-27.036 12.559,-42.862c0,-3.165 -0.075,-6.242 -0.227,-9.233l-53.864,0c-20.746,16.298 -38.198,34.663 -49.715,52.095l-120.719,0c6.384,-12.403 14.238,-24.767 23.866,-37.293l-34.065,0c0,-31.333 6.732,-59.53 19.011,-83.523c-0.164,-3.162 -0.254,-6.14 -0.254,-8.861c0,-28.878 10.184,-86.635 10.184,-86.635c0,0 7.22,35.979 10.263,65.341Zm11.599,-458.188c0,0 -10.184,102.239 -10.184,153.359c0,51.12 10.184,153.359 10.184,153.359c0,0 11.59,-102.239 11.59,-153.359c0,-51.12 -11.59,-153.359 -11.59,-153.359Zm60.571,191.849c0.223,1.065 0.45,2.118 0.682,3.158c5.156,-1.254 10.461,-2.308 15.911,-3.158l-16.592,0Zm251.471,-58.678c0,0 6.357,102.239 6.357,153.359c0,51.12 -6.357,153.359 -6.357,153.359c0,0 -5.586,-102.239 -5.586,-153.359c0,-51.12 5.586,-153.359 5.586,-153.359Zm-1148.639,475.988c28.555,-45.427 77.885,-70.735 143.694,-70.735c72.475,0 129.142,23.162 158.003,70.735l-301.698,0Zm250.315,-105.507l-103.438,0l0,-365.215l-108.212,0l0,-71.611c90.707,0 120.943,-30.236 127.308,-91.503l84.342,0l0,528.328Zm413.578,-528.328l0,239.173l34.612,0l0,25.483l25.064,0l0,80.363l-59.676,0l0,115.373l-5.479,0c36.721,27.758 59.982,74.404 59.982,136.835c0,12.706 -0.933,24.925 -2.739,36.608l-103.142,0c1.662,-9.796 2.443,-20.453 2.443,-31.834c0,-54.902 -23.87,-87.524 -72.406,-87.524c-37.397,0 -59.676,15.914 -73.998,45.353l-106.62,0l7.462,-214.811l-14.226,0l0,-89.911l152.06,-255.108l156.662,0Zm-232.063,264.164c0,0 -5.799,49.893 -5.799,74.839c0,24.946 5.799,74.839 5.799,74.839c0,0 6.6,-49.893 6.6,-74.839c0,-24.946 -6.6,-74.839 -6.6,-74.839Zm206.83,157.039c0,0 -5.799,49.893 -5.799,74.839c0,24.946 5.799,74.839 5.799,74.839c0,0 6.6,-49.893 6.6,-74.839c0,-24.946 -6.6,-74.839 -6.6,-74.839Zm-78.205,9.775l0,-85.959l-95.701,0l-4.156,123.308c26.616,-28.137 62.68,-36.65 99.857,-37.349Zm27.678,-415.265c0,0 -5.799,49.893 -5.799,74.839c0,24.946 5.799,74.839 5.799,74.839c0,0 6.6,-49.893 6.6,-74.839c0,-24.946 -6.6,-74.839 -6.6,-74.839Zm-25.29,223.459l0,-160.705l-93.401,160.705l93.401,0Z" style="fill:#586c8d;fill-opacity:1;"/></g></svg>