<?xml version="1.0" encoding="UTF-8" standalone="no"?><!DOCTYPE svg PUBLIC "-//W3C//DTD SVG 1.1//EN" "http://www.w3.org/Graphics/SVG/1.1/DTD/svg11.dtd"><svg width="100%" height="100%" viewBox="0 0 2088 2084" version="1.1" xmlns="http://www.w3.org/2000/svg" xmlns:xlink="http://www.w3.org/1999/xlink" xml:space="preserve" xmlns:serif="http://www.serif.com/" style="fill-rule:evenodd;clip-rule:evenodd;stroke-linejoin:round;stroke-miterlimit:2;"><rect id="crown-admin" x="3.327" y="0" width="2083.333" height="2083.333" style="fill:none;"/><g id="Crown"><path id="Crown1" serif:id="Crown" d="M1027.118,373.419c3.802,-6.115 10.492,-9.834 17.693,-9.834c7.201,0 13.891,3.718 17.693,9.834c78.979,127.037 395.454,636.079 395.454,636.079c0,0 364.239,-228.644 492.26,-309.006c7.202,-4.521 16.429,-4.211 23.311,0.783c6.882,4.994 10.039,13.669 7.976,21.918c-47.837,191.224 -217.301,868.644 -245.352,980.779c-2.32,9.273 -10.652,15.777 -20.211,15.777c-143.951,-0 -1198.31,-0 -1342.261,-0c-9.559,-0 -17.891,-6.505 -20.21,-15.777c-28.052,-112.135 -197.516,-789.555 -245.352,-980.779c-2.064,-8.249 1.093,-16.924 7.976,-21.918c6.882,-4.994 16.109,-5.304 23.311,-0.783c128.021,80.362 492.26,309.006 492.26,309.006c0,0 316.474,-509.042 395.454,-636.079Z" style="fill:#566b8d;"/></g></svg>