<?xml version="1.0" encoding="UTF-8" standalone="no"?><!DOCTYPE svg PUBLIC "-//W3C//DTD SVG 1.1//EN" "http://www.w3.org/Graphics/SVG/1.1/DTD/svg11.dtd"><svg width="100%" height="100%" viewBox="0 0 2084 2088" version="1.1" xmlns="http://www.w3.org/2000/svg" xmlns:xlink="http://www.w3.org/1999/xlink" xml:space="preserve" xmlns:serif="http://www.serif.com/" style="fill-rule:evenodd;clip-rule:evenodd;stroke-linejoin:round;stroke-miterlimit:2;"><rect id="crown-element" x="0" y="3.868" width="2083.333" height="2083.333" style="fill:none;"/><g id="element"><path d="M1784.418,144.407c87.221,0 158.375,71.153 158.375,158.375l0,1485.504c0,87.221 -71.153,158.375 -158.375,158.375l-1485.504,0c-87.221,0 -158.375,-71.153 -158.375,-158.375l0,-1485.504c0,-87.221 71.153,-158.375 158.375,-158.375l1485.504,0m0,-78.039l-1485.504,0c-130.831,0 -236.414,106.042 -236.414,236.414l0,1485.504c0,130.831 106.042,236.415 236.414,236.415l1485.504,0c130.831,0 236.415,-106.042 236.415,-236.415l0,-1485.504c0,-130.831 -105.584,-236.414 -236.415,-236.414Z" style="fill:#566b8d;fill-rule:nonzero;"/></g><g id="Crown"><path id="Crown1" serif:id="Crown" d="M1023.974,519.231c3.802,-6.115 10.492,-9.834 17.693,-9.834c7.201,0 13.891,3.718 17.693,9.834c68.546,110.254 312.824,503.171 312.824,503.171c0,-0 275.75,-173.096 385.038,-241.699c7.202,-4.521 16.429,-4.211 23.311,0.783c6.882,4.994 10.039,13.669 7.976,21.918c-40.879,163.413 -168.846,674.952 -192.98,771.422c-2.32,9.273 -10.652,15.778 -20.211,15.777c-125.749,0 -941.554,0 -1067.303,0c-9.559,0 -17.891,-6.505 -20.211,-15.777c-24.133,-96.47 -152.1,-608.009 -192.98,-771.422c-2.064,-8.249 1.093,-16.924 7.976,-21.918c6.882,-4.994 16.109,-5.303 23.311,-0.783c109.288,68.603 385.038,241.699 385.038,241.699c0,-0 244.279,-392.917 312.824,-503.171Z" style="fill:#566b8d;"/></g></svg>