<?xml version="1.0" encoding="UTF-8" standalone="no"?><!DOCTYPE svg PUBLIC "-//W3C//DTD SVG 1.1//EN" "http://www.w3.org/Graphics/SVG/1.1/DTD/svg11.dtd"><svg width="100%" height="100%" viewBox="0 0 2084 2084" version="1.1" xmlns="http://www.w3.org/2000/svg" xmlns:xlink="http://www.w3.org/1999/xlink" xml:space="preserve" xmlns:serif="http://www.serif.com/" style="fill-rule:evenodd;clip-rule:evenodd;stroke-linejoin:round;stroke-miterlimit:2;"><rect id="district-element" x="0" y="0" width="2083.333" height="2083.333" style="fill:none;"/><g id="element"><path d="M1784.418,140.539c87.221,0 158.375,71.153 158.375,158.375l0,1485.504c0,87.221 -71.153,158.375 -158.375,158.375l-1485.504,0c-87.221,0 -158.375,-71.153 -158.375,-158.375l0,-1485.504c0,-87.221 71.153,-158.375 158.375,-158.375l1485.504,0m0,-78.039l-1485.504,0c-130.831,0 -236.414,106.042 -236.414,236.414l0,1485.504c0,130.831 106.042,236.415 236.414,236.415l1485.504,0c130.831,0 236.415,-106.042 236.415,-236.415l0,-1485.504c0,-130.831 -105.584,-236.414 -236.415,-236.414Z" style="fill:#566b8d;fill-rule:nonzero;"/></g><g id="District"><path id="District1" serif:id="District" d="M806.519,1178.217c-118.346,-100.705 -206.739,-194.242 -265.177,-280.613c-58.438,-86.371 -87.657,-166.31 -87.657,-239.817c0,-110.261 35.467,-198.101 106.401,-263.523c70.934,-65.421 153.078,-98.132 246.432,-98.132c93.354,0 175.498,32.711 246.432,98.132c70.934,65.421 106.401,153.262 106.401,263.523c0,73.507 -29.219,153.446 -87.657,239.817c-58.438,86.371 -146.83,179.908 -265.177,280.613Zm0,-116.876c89.679,-82.328 156.202,-157.121 199.572,-224.38c43.369,-67.259 65.054,-126.983 65.054,-179.173c0,-80.123 -25.544,-145.728 -76.631,-196.815c-51.087,-51.087 -113.752,-76.631 -187.994,-76.631c-74.242,0 -136.907,25.544 -187.994,76.631c-51.087,51.087 -76.631,116.692 -76.631,196.815c0,52.19 21.685,111.914 65.054,179.173c43.369,67.259 109.893,142.052 199.572,224.38Zm0,-579.592c92.341,0 167.311,74.969 167.311,167.311c0,92.341 -74.969,167.311 -167.311,167.311c-92.341,0 -167.311,-74.969 -167.311,-167.311c0,-92.341 74.969,-167.311 167.311,-167.311Zm439.341,496.245l-46.584,6.642c-27.368,3.902 -52.755,-15.149 -56.657,-42.517c-3.902,-27.368 15.149,-52.755 42.517,-56.657l436.473,-62.233c16.834,-2.4 33.736,3.904 44.886,16.742c11.15,12.838 15.026,30.456 10.293,46.788l-68.337,235.792l95.286,199.783c5.267,11.042 6.31,23.631 2.933,35.389l-76.663,266.927c-4.151,14.452 -14.574,26.275 -28.392,32.204c-13.818,5.929 -29.569,5.336 -42.902,-1.614l-193.998,-101.124l-96.248,212.58c-10.126,22.365 -34.97,34.095 -58.674,27.701l-267.3,-72.102l-307.422,37.481c-12.561,1.531 -25.235,-1.748 -35.477,-9.179l-204.196,-148.156c-19.283,-13.991 -26.043,-39.629 -16.165,-61.309l51.341,-112.682l-33.777,-115.729c-4.432,-15.184 -1.431,-31.569 8.094,-44.196l120.295,-159.48c16.647,-22.07 48.081,-26.473 70.151,-9.825c22.07,16.647 26.473,48.081 9.825,70.151l-34.228,45.378l497.256,73.853l177.672,-310.606Zm353.766,389.536l5.517,-19.21l-95.316,-199.846c-5.285,-11.08 -6.316,-23.715 -2.899,-35.506l52.058,-179.621l-250.297,35.688l-187.314,327.463l478.252,71.031Zm-1063.041,-107.246l-36.582,48.499l31.949,109.465c3.364,11.525 2.476,23.876 -2.502,34.801l-42.08,92.355l155.119,112.548l230.5,-28.102l168.503,-294.577l-504.906,-74.989Zm398.433,362.004l5.036,-0.614c6.397,-0.78 12.885,-0.318 19.107,1.36l235.609,63.554l100.521,-222.019c5.678,-12.54 16.266,-22.191 29.277,-26.685c13.011,-4.494 27.298,-3.435 39.505,2.928l186.575,97.254l35.03,-121.97l-491.001,-72.924l-159.658,279.115Z" style="fill:#566b8d;"/></g></svg>