<?xml version="1.0" encoding="UTF-8" standalone="no"?><!DOCTYPE svg PUBLIC "-//W3C//DTD SVG 1.1//EN" "http://www.w3.org/Graphics/SVG/1.1/DTD/svg11.dtd"><svg width="100%" height="100%" viewBox="0 0 2084 2084" version="1.1" xmlns="http://www.w3.org/2000/svg" xmlns:xlink="http://www.w3.org/1999/xlink" xml:space="preserve" xmlns:serif="http://www.serif.com/" style="fill-rule:evenodd;clip-rule:evenodd;stroke-linejoin:round;stroke-miterlimit:2;"><rect id="district-admin" x="0" y="0" width="2083.333" height="2083.333" style="fill:none;"/><g id="District"><path id="District1" serif:id="District" d="M749.204,1206.772c-147.933,-125.881 -258.423,-242.803 -331.471,-350.766c-73.048,-107.963 -109.571,-207.887 -109.571,-299.771c0,-137.826 44.334,-247.627 133.002,-329.403c88.668,-81.777 191.348,-122.665 308.04,-122.665c116.692,0 219.373,40.888 308.04,122.665c88.668,81.777 133.002,191.578 133.002,329.403c0,91.884 -36.524,191.807 -109.571,299.771c-73.048,107.963 -183.538,224.886 -331.471,350.766Zm0,-146.095c112.098,-102.91 195.253,-196.402 249.465,-280.475c54.211,-84.074 81.317,-158.729 81.317,-223.967c0,-100.153 -31.93,-182.16 -95.789,-246.019c-63.859,-63.859 -142.19,-95.789 -234.993,-95.789c-92.803,0 -171.134,31.93 -234.993,95.789c-63.859,63.859 -95.789,145.866 -95.789,246.019c0,65.237 27.106,139.893 81.317,223.967c54.211,84.074 137.366,177.565 249.465,280.475Zm0,-724.49c115.427,0 209.138,93.712 209.138,209.138c0,115.427 -93.712,209.138 -209.138,209.138c-115.427,0 -209.138,-93.712 -209.138,-209.138c0,-115.427 93.712,-209.138 209.138,-209.138Zm549.176,620.307l-58.23,8.303c-34.21,4.878 -65.944,-18.936 -70.821,-53.146c-4.878,-34.21 18.936,-65.944 53.146,-70.821l545.591,-77.792c21.042,-3 42.17,4.88 56.108,20.927c13.938,16.047 18.783,38.07 12.866,58.485l-85.421,294.74l119.108,249.729c6.583,13.803 7.887,29.538 3.666,44.237l-95.828,333.658c-5.188,18.065 -18.218,32.844 -35.491,40.255c-17.273,7.411 -36.961,6.67 -53.628,-2.018l-242.498,-126.405l-120.31,265.726c-12.658,27.957 -43.713,42.618 -73.343,34.626l-334.124,-90.128l-384.277,46.851c-15.701,1.914 -31.544,-2.185 -44.346,-11.474l-255.246,-185.195c-24.104,-17.489 -32.554,-49.536 -20.206,-76.636l64.177,-140.852l-42.222,-144.661c-5.54,-18.98 -1.789,-39.461 10.118,-55.246l150.369,-199.35c20.809,-27.588 60.101,-33.091 87.689,-12.282c27.588,20.809 33.091,60.101 12.282,87.689l-42.785,56.722l621.57,92.316l222.09,-388.258Zm442.207,486.92l6.896,-24.012l-119.145,-249.807c-6.606,-13.85 -7.895,-29.644 -3.624,-44.382l65.072,-224.527l-312.871,44.61l-234.143,409.329l597.815,88.788Zm-1328.801,-134.058l-45.728,60.623l39.936,136.831c4.205,14.407 3.095,29.845 -3.128,43.502l-52.6,115.444l193.899,140.685l288.124,-35.128l210.628,-368.221l-631.133,-93.737Zm498.042,452.504l6.295,-0.767c7.996,-0.975 16.106,-0.398 23.883,1.7l294.511,79.442l125.651,-277.523c7.097,-15.675 20.332,-27.738 36.596,-33.356c16.264,-5.618 34.123,-4.294 49.381,3.659l233.218,121.568l43.788,-152.462l-613.751,-91.155l-199.573,348.894Z" style="fill:#566b8d;"/></g></svg>