<?xml version="1.0" encoding="UTF-8" standalone="no"?><!DOCTYPE svg PUBLIC "-//W3C//DTD SVG 1.1//EN" "http://www.w3.org/Graphics/SVG/1.1/DTD/svg11.dtd"><svg width="100%" height="100%" viewBox="0 0 2084 2084" version="1.1" xmlns="http://www.w3.org/2000/svg" xmlns:xlink="http://www.w3.org/1999/xlink" xml:space="preserve" xmlns:serif="http://www.serif.com/" style="fill-rule:evenodd;clip-rule:evenodd;stroke-linejoin:round;stroke-miterlimit:2;"><rect id="documentpile-page" x="0" y="0" width="2083.333" height="2083.333" style="fill:none;"/><clipPath id="_clip1"><rect x="0" y="0" width="2083.333" height="2083.333"/></clipPath><g clip-path="url(#_clip1)"><g id="page"><path d="M1796.35,372.543c8.271,8.293 12.916,19.527 12.916,31.24c0,164.411 0,1387.535 0,1636.72c0,11.733 -4.661,22.985 -12.957,31.281c-8.296,8.296 -19.548,12.957 -31.281,12.957c-223.172,0 -1223.551,0 -1446.723,0c-11.733,-0 -22.985,-4.661 -31.281,-12.957c-8.296,-8.296 -12.957,-19.548 -12.957,-31.281c0,-272.779 0,-1723.487 0,-1996.265c-0,-11.733 4.661,-22.985 12.957,-31.281c8.296,-8.296 19.548,-12.957 31.281,-12.957c193.261,-0 959.525,-0 1088.117,-0c11.753,0 23.022,4.677 31.322,12.998c58.779,58.933 299.926,300.711 358.606,359.545Zm-480.642,-296.991c0,0 -732.513,-0 -921.851,-0c-11.733,0 -22.985,4.661 -31.281,12.957c-8.296,8.296 -12.957,19.548 -12.957,31.281c-0,259.863 -0,1585.297 -0,1845.161c-0,11.733 4.661,22.985 12.957,31.281c8.296,8.296 19.548,12.957 31.281,12.957c208.033,0 1087.585,0 1295.618,0c24.432,-0 44.238,-19.806 44.238,-44.238c0,-250.136 0,-1476.131 0,-1476.131c0,0 -266.253,0 -373.767,0c-24.432,0 -44.238,-19.806 -44.238,-44.238c-0,-106.619 -0,-369.03 -0,-369.03Zm76.77,0l-1.217,-0c0,0 0,201.894 0,293.477c0,24.432 19.806,44.238 44.238,44.238c91.838,-0 294.695,-0 294.695,-0l-337.715,-337.715Z" style="fill:#566b8d;"/></g><g id="DocumentPile"><path id="DocumentPile1" serif:id="DocumentPile" d="M490.701,946.744c0.053,-7.291 -0.985,-7.526 2.262,-13.849c0.588,-1.71 0.597,-1.753 2.441,-2.265c10.889,-5.148 11.841,-5.753 12.807,-6.367c1.752,-0.472 1.665,-0.378 3.391,-1.154c1.642,-0.393 1.553,-0.376 3.259,-0.512c1.378,-0.315 5.281,-0.269 15.075,-5.155l3.144,-0.692l0.242,-0.474c1.605,-0.423 1.52,-0.409 3.193,-0.64l0.231,-0.517c1.648,-0.397 1.559,-0.379 3.254,-0.532c3.328,-0.564 3.319,-0.513 3.594,-0.609c1.638,-0.568 19.315,-6.702 20.356,-7.42c2.038,-1.527 2.17,-0.971 4.619,-1.1c11.043,-3.328 11.34,-4.285 17.328,-6.317c3.377,-1.003 3.206,-1.552 6.672,-1.679c5.45,-1.591 5.409,-1.459 10.505,-4.021l3.143,-0.687l0.245,-0.481l3.185,-0.658l0.24,-0.489c1.664,-0.426 1.583,-0.405 3.205,-0.604l0.221,-0.544c1.655,-0.375 1.573,-0.365 3.259,-0.499c2.937,-0.425 2.953,-0.325 3.172,-0.459c2.796,-1.709 -2.568,-28.435 -3.865,-40.708c-0.432,-1.676 -0.405,-1.61 -0.621,-3.279l-0.526,-5.865c-0.617,-2.224 -0.451,-2.137 -0.646,-4.422l-0.055,-5.678c-1.613,-2.314 -1.979,-4.041 -0.019,-6.95c0.53,-7.723 0.894,-7.964 6.997,-12.763l1.205,-1.092c2.02,-1.518 2.133,-0.96 4.651,-1.04c2.189,-0.308 2.176,-0.111 27.422,-3.45c1.198,-0.159 9.772,-1.293 15.01,-1.747c2.188,-0.599 2.137,-0.447 4.422,-0.64l4.527,-0.073c2.875,-1.884 3.068,-0.898 5.76,-1.044l2.279,0.036c3.888,-1.381 3.86,-1.201 8.009,-1.091c18.554,-0.746 34.694,-4.061 45.856,-5.184c1.687,-0.449 1.604,-0.415 3.277,-0.632l5.87,-0.515c2.226,-0.631 2.15,-0.454 4.419,-0.631l3.422,0.044c3.383,-1.158 3.359,-0.976 6.867,-1.117c9.817,-0.304 9.807,0.071 11.604,-0.75c0.834,-0.381 0.854,-7.595 0.856,-8.259c0.04,-14.344 -0.062,-14.268 -0.042,-28.578c0.165,-2.455 -0.317,-2.552 1.022,-4.631c0.872,-3.275 0.87,-3.253 0.942,-3.536c0.118,-0.466 -0.325,-0.367 -0.247,-0.803c0.286,-1.613 6.419,-7.871 8.714,-8.194c10.547,-1.483 609.342,-0.802 619.504,-0.353c6.203,0.274 5.484,2.012 10.319,5.921c1.163,0.683 2.112,-0.28 3.612,3.314c3.099,3.495 4.848,4.642 5.336,4.962c1.252,1.035 1.191,0.978 2.384,2.16c2.432,2.913 1.896,3.399 5.614,5.843c1.286,1.061 1.221,1.006 2.391,2.151c0.896,0.914 0.899,0.807 1.411,2.037c3.091,3.479 4.861,4.625 5.35,4.941l1.232,1.027c0.905,0.911 0.907,0.804 1.42,2.029c3.084,3.477 4.857,4.629 5.346,4.946l1.232,1.026c0.908,0.911 0.91,0.804 1.424,2.026c3.074,3.475 4.853,4.633 5.341,4.951c1.289,1.07 1.23,1.02 2.378,2.167c2.384,2.868 1.843,3.371 5.62,5.835c1.243,1.03 1.186,0.975 2.381,2.163c2.409,2.894 1.871,3.387 5.617,5.839c1.262,1.043 1.201,0.988 2.383,2.16c2.425,2.906 1.887,3.395 5.615,5.842c1.283,1.06 1.218,1.004 2.39,2.152c0.896,0.914 0.899,0.808 1.409,2.039c3.099,3.481 4.863,4.623 5.353,4.94l1.232,1.027c0.905,0.912 0.907,0.805 1.419,2.029c3.085,3.477 4.858,4.628 5.347,4.945l1.232,1.026c0.908,0.911 0.91,0.804 1.424,2.026c3.075,3.476 4.853,4.632 5.342,4.95l1.233,1.024c0.909,0.909 0.911,0.802 1.427,2.023c3.068,3.474 4.849,4.637 5.337,4.955c1.241,1.028 1.185,0.973 2.38,2.164c2.4,2.886 1.863,3.381 5.617,5.839c1.263,1.044 1.203,0.989 2.383,2.161c2.418,2.9 1.881,3.39 5.615,5.842c1.283,1.061 1.219,1.005 2.39,2.152c0.896,0.915 0.899,0.808 1.408,2.039c3.1,3.481 4.864,4.623 5.353,4.939l1.232,1.027c0.904,0.911 0.907,0.804 1.418,2.031c3.086,3.476 4.86,4.627 5.348,4.944l1.233,1.025c0.906,0.91 0.908,0.803 1.423,2.027c3.075,3.476 4.853,4.632 5.342,4.95l1.233,1.024c0.909,0.909 0.911,0.802 1.427,2.023c3.068,3.475 4.85,4.636 5.338,4.954c1.24,1.028 1.184,0.973 2.379,2.165c2.393,2.875 1.853,3.374 5.619,5.837c1.263,1.046 1.203,0.99 2.382,2.162c2.422,2.906 1.884,3.398 5.617,5.839c1.27,1.042 1.206,0.984 2.398,2.145c0.897,0.916 0.891,0.83 1.36,2.087c6.034,6.707 6.145,6.469 6.653,7.056c1.67,1.948 1.26,2.093 0.806,4.688c0.895,15.599 0.251,848.157 0.343,849.049c-0.099,1.375 -0.063,1.291 -0.763,2.432c-0.832,4.434 -2.325,5.201 -3.855,6.707c-1.031,0.813 -0.921,0.83 -2.278,1.181c-7.496,3.533 -19.212,3.884 -22.884,3.454c-14.548,-1.708 -40.159,-0.414 -205.699,-0.89c-41.791,-0.12 -41.599,1.605 -56.138,2.665c-1.659,0.454 -1.569,0.42 -3.276,0.642c-2.467,0.056 -2.462,-0.338 -4.731,0.51c-2.181,0.608 -2.149,0.443 -4.415,0.605l-2.28,-0.034c-3.863,1.383 -3.835,1.212 -8.009,1.103c-20.792,0.728 -31.162,3.837 -46.998,5.178c-1.679,0.456 -1.593,0.421 -3.278,0.639l-4.526,0.092c-2.3,1.512 -2.404,0.86 -5.763,1.035l-2.279,-0.029c-3.887,1.391 -3.862,1.209 -8.01,1.098c-19.919,0.684 -42.828,5.114 -55.002,6.313c-3.838,1.108 -3.8,0.526 -5.564,0.622l-2.277,-0.024c-4.013,1.408 -4.003,0.998 -8.011,1.1c-23.626,0.786 -32.006,3.547 -40.167,6.311c-2.973,1.547 -6.122,1.683 -6.672,1.707c-7.148,1.995 -6.827,2.666 -13.897,5.154l-3.175,0.689l-0.25,0.469c-3.115,1.618 -3.077,1.556 -6.678,1.686c-3.317,0.591 -3.308,0.541 -3.583,0.638c-14.41,5.095 -15.937,6.042 -17.194,6.822c-1.568,0.407 -1.486,0.399 -3.182,0.586c-2.027,1.504 -2.158,0.962 -4.594,1.111c-1.164,0.39 -15.749,5.624 -15.95,5.765c-1.511,1.104 -1.534,0.935 -3.45,1.131c-1.999,1.489 -2.122,0.953 -4.608,1.076c-7.069,2.339 -6.847,2.75 -13.903,5.171l-3.182,0.673l-0.242,0.481c-1.582,0.398 -1.502,0.393 -3.202,0.614l-0.228,0.525c-1.669,0.367 -1.583,0.361 -3.253,0.508c-1.926,0.533 -10.166,2.708 -17.346,6.354c-1.585,0.428 -1.505,0.417 -3.168,0.626l-0.222,0.538c-1.628,0.377 -1.538,0.367 -3.263,0.492c-1.44,0.332 -11.492,2.653 -17.346,6.348c-1.774,0.478 -1.691,0.387 -3.388,1.164c-2.24,0.54 -2.144,0.407 -4.39,0.538c-11.601,3.688 -16.023,5.669 -17.372,6.272l-3.153,0.666l-0.24,0.488c-1.612,0.373 -1.532,0.369 -3.247,0.545c-1.415,0.425 -13.857,4.159 -17.351,6.321c-1.582,0.427 -1.507,0.421 -3.16,0.65l-0.233,0.508c-1.662,0.411 -1.581,0.391 -3.224,0.557c-1.553,1.141 -1.584,0.922 -3.47,1.047c-7.933,1.96 -11.797,3.903 -13.915,5.237c-1.563,0.425 -1.474,0.417 -3.159,0.645l-0.231,0.518c-1.647,0.418 -1.564,0.398 -3.218,0.574c-1.97,1.497 -2.093,0.966 -4.601,1.094c-0.473,0.136 -5.031,1.445 -5.891,1.751c-10.716,3.811 -10.511,4.23 -11.444,4.547l-3.196,0.633l-0.233,0.507c-1.631,0.37 -1.563,0.368 -3.244,0.543c-10.515,2.851 -13.739,4.702 -18.468,6.317c-2.264,0.468 -2.188,0.348 -4.409,0.471l-2.289,-0.004c-1.687,-0.157 -1.605,-0.143 -3.256,-0.483l-0.259,-0.443c-1.811,-0.436 -1.86,-0.147 -3.357,-1.399c-0.372,-0.36 -0.977,-0.947 -4.575,-4.573c-1.585,-1.472 -2.309,-1.264 -2.516,-5.666c-0.435,-1.011 -3.152,-7.337 -5.052,-12.799c-0.439,-1.632 -0.422,-1.545 -0.682,-3.181l-0.48,-0.24c-0.43,-1.652 -0.409,-1.57 -0.616,-3.203l-0.538,-0.223c-0.377,-1.643 -0.368,-1.558 -0.503,-3.259c-1.946,-10.714 -4.728,-9.915 -6.023,-19.288c-0.677,-0.868 -2.745,-2.103 -3.003,-2.257l-1.12,-0.018c-3.86,1.387 -3.834,1.213 -8.01,1.095c-11.553,0.397 -11.42,0.661 -22.849,2.26c-18.268,2.555 -20.402,-6.696 -23.636,-11.703c-0.605,-2.151 -0.42,-2.095 -0.519,-4.382c-0.71,-21.221 -5.13,-43.382 -6.278,-57.292c-0.455,-1.669 -0.421,-1.581 -0.638,-3.275l-0.066,-4.533c-1.965,-2.841 -0.923,-3.063 -1.051,-5.757c-0.606,-23.218 -4.917,-40.527 -6.25,-56.145c-0.614,-2.224 -0.45,-2.137 -0.646,-4.421l-0.066,-4.53c-1.93,-2.849 -0.911,-3.122 -1.039,-5.759l0.035,-2.279c-1.403,-3.909 -1.013,-3.881 -1.091,-8.009c-0.754,-19.637 -3.87,-32.686 -5.191,-45.857c-0.454,-1.67 -0.419,-1.582 -0.638,-3.276l-0.088,-5.671c-1.516,-2.298 -0.862,-2.403 -1.035,-5.761l0.031,-2.28c-1.384,-3.918 -1,-3.889 -1.085,-8.009c-0.358,-9.573 -0.938,-22.597 -5.212,-32.192c-0.434,-1.615 -0.412,-1.531 -0.603,-3.202c-0.422,-1.071 -1.536,-4.391 -1.665,-4.775l-0.592,-3.224c-3.408,-10.534 -3.89,-10.294 -7.41,-20.774l-0.57,-3.238c-3.182,-10.676 -3.938,-10.297 -7.438,-20.758c-0.401,-1.673 -0.382,-1.591 -0.559,-3.244c-0.382,-1.427 -2.761,-10.329 -6.299,-17.359c-0.422,-1.569 -0.413,-1.48 -0.651,-3.157l-0.506,-0.232c-0.402,-1.688 -0.382,-1.606 -0.537,-3.252c-0.238,-0.922 -1.178,-4.56 -3.588,-11.349c-4.142,-11.669 -3.832,-11.725 -4.443,-12.602c-1.504,-1.963 -0.986,-2.088 -1.127,-4.612c-1.184,-4.807 -1.614,-4.565 -3.187,-9.202c-0.224,-0.659 -0.531,-0.528 -3.112,-8.129c-1.023,-3.383 -1.562,-3.207 -1.662,-6.677c-1.8,-6.155 -2.763,-9.105 -5.183,-13.928l-0.681,-3.146l-0.483,-0.244c-1.654,-3.159 -1.582,-3.123 -1.665,-6.68c-0.083,-0.364 0.009,-0.753 -0.074,-1.117c-0.269,-1.18 -6.525,-18.908 -6.853,-19.394c-1.5,-2.028 -0.969,-2.149 -1.123,-4.62c-0.177,-0.759 -0.198,-0.724 -3.425,-10.266c-1.233,-3.646 -1.597,-3.429 -2.844,-7.069c-1.542,-2.973 -1.675,-6.12 -1.699,-6.67c-1.569,-6.82 -4.616,-12.871 -5.151,-13.932l-0.687,-3.144l-0.479,-0.244c-0.422,-1.622 -0.407,-1.536 -0.634,-3.194l-0.511,-0.233c-0.395,-1.634 -0.378,-1.544 -0.533,-3.254c-1.172,-6.725 -5.999,-18.418 -7.472,-20.774c-0.415,-1.572 -0.403,-1.485 -0.589,-3.182c-1.497,-1.998 -0.958,-2.125 -1.088,-4.601c-2.887,-8.842 -3.328,-8.603 -6.292,-17.341c-0.995,-3.379 -1.548,-3.204 -1.688,-6.664c-2.157,-5.333 -1.485,-5.476 -4.02,-10.512c-0.414,-1.578 -0.401,-1.493 -0.635,-3.186c-1.092,-3.212 -1.306,-3.07 -1.67,-3.662c-0.423,-1.612 -0.41,-1.533 -0.617,-3.169l-0.538,-0.224c-0.362,-1.621 -0.359,-1.53 -0.5,-3.257c-0.498,-1.659 -5.563,-18.522 -6.948,-20.507c-1.494,-2.037 -0.96,-2.156 -1.101,-4.619c-1.233,-3.874 -6.788,-19.211 -6.91,-19.374c-1.522,-2.042 -0.961,-2.147 -1.077,-4.638c-3.917,-13.788 -6.649,-19.207 -7.445,-20.784c-0.396,-1.631 -0.385,-1.552 -0.548,-3.215c-0.445,-1.709 -3.973,-15.271 -7.474,-20.776c-0.416,-1.578 -0.403,-1.49 -0.573,-3.184c-1.46,-1.959 -0.958,-2.073 -1.103,-4.598c-0.431,-1.287 -4.963,-14.799 -5.797,-15.94c-1.148,-1.554 -0.95,-1.586 -1.152,-3.444c-1.521,-2.048 -0.935,-2.161 -1.015,-4.631c-0.4,-1.423 -3.615,-12.867 -6.337,-17.352c-0.414,-1.572 -0.409,-1.495 -0.631,-3.164l-0.521,-0.23c-0.367,-1.653 -0.362,-1.566 -0.511,-3.252c-0.383,-1.427 -3.398,-12.666 -6.351,-17.348c-0.47,-1.761 -0.375,-1.677 -1.158,-3.391c-0.373,-1.625 -0.363,-1.535 -0.488,-3.262c-1.753,-7.504 -5.229,-15.218 -6.336,-18.463l-0.657,-3.187l-0.485,-0.241l-0.546,-3.244c-0.394,-1.424 -3.517,-12.693 -6.311,-17.356c-0.423,-1.564 -0.414,-1.474 -0.658,-3.158l-0.505,-0.233c-0.378,-1.606 -0.37,-1.523 -0.529,-3.253c-1.032,-4.016 -2.381,-9.605 -6.317,-17.354c-0.424,-1.562 -0.415,-1.473 -0.649,-3.159l-0.516,-0.229c-0.395,-1.59 -0.386,-1.506 -0.562,-3.221c-1.458,-1.964 -0.96,-2.077 -1.12,-4.594c-2.898,-8.804 -3.305,-8.539 -6.282,-17.339l-0.626,-3.197l-0.505,-0.236l-0.56,-3.237c-0.266,-1.078 -0.114,-1.06 -0.609,-2.463c-4.902,-13.882 -5.304,-13.653 -5.716,-14.858c-0.413,-1.643 -0.399,-1.556 -0.609,-3.206l-0.532,-0.226c-0.366,-1.637 -0.361,-1.548 -0.527,-3.249c-3.449,-11.81 -4.87,-12.429 -6.308,-18.459c-0.442,-1.67 -0.408,-1.584 -0.602,-3.263Zm40.25,5.936c-0.084,0.079 -0.164,0.671 -1.109,1.032c-0.681,0.26 -0.366,0.507 -0.79,1.095c0.748,2.76 0.721,2.652 0.809,5.62c0.508,1.692 5.115,17.033 7.481,20.777c0.389,1.603 0.381,1.518 0.52,3.221c0.314,1.201 1.14,4.355 4.756,14.776c1.822,5.25 1.885,5.337 2.175,5.733c1.498,1.996 0.97,2.107 1.104,4.618c3.12,9.894 3.779,9.646 3.973,10.525c1.057,4.783 1.559,4.557 2.325,6.811c1.625,3.125 1.555,3.089 1.684,6.676c0.449,1.708 3.983,15.163 7.463,20.779c0.403,1.598 0.388,1.508 0.543,3.221c0.278,1.285 0.147,1.222 0.535,2.474c4.494,14.467 6.093,16.979 6.934,18.3c0.423,1.587 0.409,1.499 0.587,3.181c1.506,2.006 0.959,2.136 1.081,4.604c4.935,15.113 5.536,16.104 6.303,17.367c0.413,1.596 0.407,1.523 0.623,3.166l0.525,0.228l0.508,3.251c0.397,1.424 3.607,12.949 6.353,17.35c0.419,1.576 0.408,1.495 0.614,3.172l0.549,0.217c0.375,1.631 0.365,1.541 0.484,3.263c1.044,4.433 4.094,13.738 6.369,17.342c0.423,1.561 0.414,1.479 0.617,3.171c1.453,1.984 0.939,2.114 1.063,4.614c3.637,12.917 5.531,16.099 6.286,17.369l0.667,3.153l0.488,0.239c0.395,1.692 0.379,1.603 0.544,3.246c0.383,1.427 3.415,12.71 6.317,17.355c0.42,1.567 0.412,1.479 0.638,3.161l0.52,0.229c0.391,1.659 0.373,1.571 0.514,3.257c1.038,4.582 4.072,13.754 6.348,17.343c1.213,4.424 1.498,4.273 1.722,7.755l0.516,0.227l0.557,3.24c1.342,5.338 1.744,5.1 3.487,10.258c1.247,3.692 1.607,3.436 2.835,7.068c0.403,1.587 0.392,1.502 0.61,3.206l0.531,0.22c0.361,1.642 0.356,1.553 0.522,3.251c2.333,8.064 2.561,8.725 5.19,13.927l0.665,3.151l0.493,0.239c0.402,1.604 0.391,1.518 0.594,3.21l0.548,0.218c0.383,1.681 0.369,1.592 0.509,3.256c2.689,10.114 5.919,17.304 7.458,21.899l0.584,3.234c3.23,13.426 4.878,12.779 5.126,13.941c1.102,5.162 1.652,4.918 2.292,6.823l0.584,3.235c2.139,7.198 2.036,7.175 5.132,13.939l0.695,3.143l0.472,0.244c0.426,1.638 0.411,1.551 0.639,3.195l0.509,0.231c0.399,1.674 0.38,1.592 0.535,3.253c0.288,1.295 0.811,3.65 4.961,15.824c0.224,0.658 2.481,7.28 3.063,8.129c1.504,1.966 0.988,2.092 1.138,4.609c2.322,9.469 4.791,10.049 5.889,18.189c0.871,1.305 0.824,1.23 1.578,2.62c-0.173,4.07 0.322,3.956 1.29,7.89c2.246,9.129 2.919,9.299 3.568,8.892c0.886,-0.556 0.963,-1.596 -0.995,-11.287l-0.814,-3.442l-0.576,-5.66c-1.654,-2.603 -1.038,-2.7 -1.117,-5.74c-0.645,-21.987 -4.76,-39.787 -6.269,-55.003c-0.618,-2.228 -0.45,-2.146 -0.641,-4.421l-0.067,-4.527c-1.909,-2.853 -0.901,-3.123 -1.025,-5.761c-0.594,-19.872 -4.838,-40.947 -6.27,-55.003c-0.615,-2.233 -0.452,-2.183 -0.639,-4.419l-0.062,-4.531c-1.963,-2.843 -0.926,-3.076 -1.059,-5.757l0.044,-2.28c-1.433,-3.939 -1.023,-3.921 -1.094,-8.009c-0.937,-25.701 -4.689,-32.724 -5.906,-54.805c-1.908,-2.858 -0.908,-3.136 -1.044,-5.76l0.036,-2.279c-1.396,-3.917 -1.009,-3.89 -1.094,-8.01c-0.713,-18.572 -4.006,-34.246 -5.18,-45.856c-0.454,-1.686 -0.419,-1.602 -0.631,-3.277l-0.514,-5.869c-0.641,-2.229 -0.46,-2.147 -0.637,-4.42l0.042,-3.422c-1.357,-3.887 -1.181,-3.868 -1.083,-8.01c-0.083,-13.729 -4.033,-32.912 -5.173,-45.856c-0.449,-1.677 -0.416,-1.593 -0.635,-3.278l-0.513,-5.869c-0.631,-2.229 -0.454,-2.146 -0.635,-4.419l0.03,-3.42c-1.153,-3.358 -0.975,-3.333 -1.118,-6.867c-0.654,-21.227 -4.925,-42.417 -6.276,-56.146c-1.107,-3.872 -0.534,-3.859 -0.634,-5.563l-0.031,-4.537c-1.842,-2.511 -1.118,-2.688 -1.057,-6.894c-0.265,-9.51 -0.041,-9.469 -0.607,-12.677c-0.971,-5.502 -3.233,-25.136 -4.144,-27.122c-1.07,-2.334 -12.568,3.443 -13.579,3.951l-3.149,0.673l-0.242,0.485c-1.626,0.407 -1.54,0.393 -3.206,0.603l-0.223,0.537c-1.633,0.362 -1.544,0.358 -3.252,0.516c-4.116,1.183 -9.947,2.7 -13.921,5.205c-1.591,0.42 -1.504,0.404 -3.2,0.598c-3.129,1.218 -3.154,0.972 -3.39,1.133c-2.039,1.514 -2.165,0.974 -4.618,1.126c-0.702,0.167 -0.666,0.184 -10.259,3.454c-3.693,1.258 -3.448,1.588 -7.072,2.824l-3.185,0.657c-0.389,0.238 -0.102,0.576 -1.27,0.776c-11.741,2.015 -15.719,6.193 -22.743,7.202Zm291.782,900.142c1.862,2.618 1.837,2.617 1.997,5.85l1.037,3.426c2.522,1.579 2.652,0.897 5.66,1.077c2.098,-0.267 12.638,-3.403 17.336,-6.384c1.606,-0.431 1.517,-0.414 3.176,-0.599c2.007,-1.466 2.123,-0.944 4.608,-1.082c16.204,-5.715 16.639,-5.782 18.15,-6.016c2.609,-1.894 2.623,-1.815 5.856,-1.972c2.56,-1.01 12.381,-3.291 17.365,-6.293c1.566,-0.416 1.488,-0.409 3.156,-0.656l0.235,-0.5c1.622,-0.381 1.536,-0.372 3.248,-0.539c1.601,-0.219 1.558,-0.293 19.268,-6.071c0.113,-0.037 0,-0 1.295,-0.724c1.63,-0.759 1.601,-0.619 3.333,-0.362c7.447,-2.232 7.445,-1.989 14.934,-4.211c2.024,-0.601 1.806,-2.831 -1.09,-2.287c-6.297,1.183 -6.099,1.855 -12.568,2.407c-0.393,0.199 -0.26,0.513 -5.721,1.135l-1.136,0.049c-4.448,1.61 -4.432,1.213 -9.148,1.112c-21.867,1.037 -29.674,4.283 -45.641,4.913c-1.708,0.656 -1.633,0.718 -3.491,0.956l-5.666,0.097c-2.272,0.983 -2.23,0.847 -4.622,1.021l-2.28,-0.037c-3.987,1.435 -3.977,1.014 -8.009,1.092c-24.369,0.936 -25.303,2.459 -24.75,4.392c1.319,4.617 2.581,4.139 3.469,10.204Zm-12.976,-103.843c1.287,0.81 4.207,1.836 4.583,1.968c8.273,0.114 713.842,0.118 730.173,0.001c6.428,-2.771 12.615,0.476 15.852,-2.012c0.11,-10.903 -0.416,-10.856 0.781,-21.686c0.085,-0.77 -0.052,-42.956 -0.082,-43.439c-1.416,-22.543 -0.154,-739.71 -0.634,-740.469c-0.73,-1.154 -1.158,-0.986 -62.731,-0.986c-98.589,-0 -104.734,1.086 -108.133,-7.253c-3.447,-8.456 -2.949,-8.713 -2.949,-116.367c0,-48.628 0.378,-50.078 -2.068,-50.173c-8.44,-0.328 -8.4,-0.776 -9.133,-0.756c-19.625,0.526 -564.327,-0.759 -565.448,0.824c-0.413,0.583 -0.011,914.823 -0.211,980.347Zm91.183,-199.971c0.163,-10.068 2.573,-10.976 5.033,-13.481c3.457,-3.521 3.555,-3.345 7.94,-5.547c2.379,-0.679 2.382,-0.416 7.805,-0.629l33.149,0.004l411.405,-0.002l68.575,0.001c5.908,-0.003 6.038,-1.203 11.475,0.996c10.548,0.17 10.537,-0.068 11.397,0.235c1.096,0.386 6.579,2.314 11.019,9.462c0.446,1.653 0.411,1.57 0.592,3.221l-0.004,5.743c-0.189,1.647 -0.154,1.564 -0.604,3.219c-2.763,4.43 -2.693,4.455 -3.009,4.778c-7.218,7.378 -14.255,6.013 -18.297,6.022c-39.77,0.089 -279.732,0.629 -497.123,0.108c-38.619,-0.092 -41.185,1.215 -48.735,-10.905c-0.444,-1.63 -0.416,-1.558 -0.617,-3.223Zm0.008,-296.015c0.207,-1.671 0.181,-1.599 0.622,-3.221c0.362,-0.706 3.263,-5.183 3.957,-6.045l1.417,-2.033c7.981,-5.008 8.73,-3.711 121.058,-3.711c428.741,-0 429.054,-0.193 431.918,1.459c0.32,0.184 0.01,0.431 0.312,0.525c0.562,0.175 0.457,0.148 0.984,0.319c2.492,1.496 2.442,1.41 4.377,3.652c2.835,4.363 2.888,4.315 3.134,4.694c0.44,1.646 0.407,1.561 0.599,3.218c-0.422,10.014 -0.898,10.25 -8.181,17.176c-1.433,1.197 -1.469,0.951 -3.342,1.426c-1.659,0.283 -1.423,1.039 -4.67,1.058c-42.696,0.246 -42.652,-0.295 -533.703,0.007c-2.275,-0.195 -2.195,-0.027 -4.422,-0.65c-0.562,-0.13 -3.743,-0.864 -6.937,-1.971l-1.415,-1.999c-3.766,-4.338 -4.525,-3.904 -5.083,-7.196c-0.565,-3.335 -0.141,-3.311 -0.625,-6.707Zm-0.001,-255.957c0.053,-5.919 -1.561,-6.355 1.738,-11.221c0.141,-0.208 1.062,-1.566 1.673,-2.653l1.357,-2.151l1.217,-1.014c9.91,-3.387 10.016,-2.757 36.502,-2.757c149.205,0 149.9,-0.727 156.685,3.585c1.781,0.554 1.805,0.602 2.297,2.424c2.799,6.842 5.716,11.439 0.038,19.592c-1.092,1.778 -0.945,1.825 -2.527,3.213c-3.676,2.396 -3.74,2.161 -7.865,3.789c-1.079,0.771 -0.946,0.938 -2.322,1.126c-0.161,0.022 -55.219,0.08 -112.022,-0.046l-17.145,0.004c-30.654,0.06 -30.696,0.499 -35.437,-1.129l-11.429,-0c-1.649,-0.203 -1.581,-0.17 -3.22,-0.623c-5.217,-3.186 -8.391,-8.077 -8.942,-8.924c-0.43,-1.63 -0.404,-1.558 -0.601,-3.214Zm0.002,73.141l0.001,-6.896c0.209,-1.665 0.184,-1.594 0.614,-3.212c3.98,-6.504 5.079,-7.657 13.338,-10.361c2.237,-0.732 122.533,0 239.953,-0.386c52.563,-0.173 53.596,0.287 59.462,5.946c0.883,1.023 0.87,0.934 1.305,2.216c0.741,1.149 0.715,1.058 1.012,2.372c0.093,1.197 0.93,12.007 -1.017,14.974c-0.625,1.82 -0.973,1.5 -2.289,2.422c-1.144,0.952 -3.324,2.942 -3.609,3.202c-1.434,1.212 -1.473,0.961 -3.334,1.436l-0.265,0.433c-1.639,0.444 -1.547,0.41 -3.259,0.623l-285.72,-0.004c-1.716,-0.224 -1.623,-0.19 -3.262,-0.636c-4.52,-1.547 -4.199,-2.062 -10.448,-6.429c-0.869,-0.981 -0.876,-0.872 -1.348,-2.188l-0.538,-0.299c-0.42,-1.617 -0.396,-1.546 -0.597,-3.211Zm-0.002,279.957c0.204,-1.641 0.169,-1.559 0.623,-3.221c6.908,-11.323 8.664,-9.671 13.164,-11.047c6.325,-1.934 478.504,-0.849 520.112,-0.753c22.645,0.052 26.176,2.046 30.867,5.878c0.876,0.996 0.881,0.885 1.334,2.189c4.192,6.439 1.263,15.062 0.836,16.063c-0.187,0.439 -0.474,-0.092 -0.591,0.271c-0.026,0.08 0,-0 -0.245,1.026c-0.479,1.297 -0.504,1.174 -1.425,2.079c-5.721,3.807 -5.702,5.964 -12.487,6.048c-0.207,0.003 -515.843,0.075 -532.561,-0.02c-19.923,-0.113 -19.507,-16.597 -19.628,-18.513Zm12.931,-176.393c-8.538,-2.915 -20.468,-14.487 -7.274,-28.399c0.356,-1.874 0.527,-1.942 2.497,-2.197c6.692,-2.631 6.869,-2.29 98.331,-2.29c444.698,0 444.795,-0.118 449.187,0.964c0.568,0.14 5,1.232 6.891,2.456c2.043,0.662 1.864,0.89 3.248,2.507c1.654,2.671 0.907,2.983 2.585,5.58c0.395,0.518 2.998,3.934 0.031,8.139c-0.81,5.287 -4.11,7.734 -8.156,11.518c-1.515,1.104 -1.52,0.848 -3.44,1.25l-0.23,0.49c-2.231,0.615 -2.183,0.439 -4.413,0.595c-66.754,-0.304 -492.058,-0.027 -534.845,0c-2.274,-0.174 -2.192,-0.003 -4.412,-0.613Zm551.822,286.114c-2.155,1.449 -2.081,2.959 -9.182,5.6c-1.012,0.376 -1.06,0.406 -522.226,0.4c-17.376,-0 -23.027,0.754 -29.71,-6.002c-5.422,-5.481 -6.046,-21.681 9.3,-27.005c2.242,-0.581 2.182,-0.429 4.407,-0.61c42.605,-0.132 281.374,-0.871 532.564,-0.001c1.663,0.215 1.582,0.182 3.271,0.624c2.434,0.584 3.57,0.352 11.491,5.394l1.434,2.058c0.066,0.238 0.171,0.144 1.664,2.599c0.436,1.638 0.403,1.551 0.604,3.217c-0.026,0.629 -0.25,6.042 -0.617,7.847c-0.421,2.068 -1.122,1.687 -1.647,3.711l-1.355,2.169Z" style="fill:#566b8d;fill-opacity:1;"/></g></g></svg>