<?xml version="1.0" encoding="UTF-8" standalone="no"?><!DOCTYPE svg PUBLIC "-//W3C//DTD SVG 1.1//EN" "http://www.w3.org/Graphics/SVG/1.1/DTD/svg11.dtd"><svg width="100%" height="100%" viewBox="0 0 2084 2084" version="1.1" xmlns="http://www.w3.org/2000/svg" xmlns:xlink="http://www.w3.org/1999/xlink" xml:space="preserve" xmlns:serif="http://www.serif.com/" style="fill-rule:evenodd;clip-rule:evenodd;stroke-linejoin:round;stroke-miterlimit:2;"><rect id="documentlist-page" x="0" y="0" width="2083.333" height="2083.333" style="fill:none;"/><clipPath id="_clip1"><rect x="0" y="0" width="2083.333" height="2083.333"/></clipPath><g clip-path="url(#_clip1)"><g id="page"><path d="M1796.35,372.543c8.271,8.293 12.916,19.527 12.916,31.24c0,164.411 0,1387.535 0,1636.72c0,11.733 -4.661,22.985 -12.957,31.281c-8.296,8.296 -19.548,12.957 -31.281,12.957c-223.172,0 -1223.551,0 -1446.723,0c-11.733,-0 -22.985,-4.661 -31.281,-12.957c-8.296,-8.296 -12.957,-19.548 -12.957,-31.281l0,-1996.265c-0,-11.733 4.661,-22.985 12.957,-31.281c8.296,-8.296 19.548,-12.957 31.281,-12.957l1088.117,0c11.753,0 23.022,4.677 31.322,12.998c58.779,58.933 299.926,300.711 358.606,359.545Zm-480.642,-296.991c0,0 -732.513,-0 -921.851,-0c-11.733,0 -22.985,4.661 -31.281,12.957c-8.296,8.296 -12.957,19.548 -12.957,31.281c-0,259.863 -0,1585.297 -0,1845.161c-0,11.733 4.661,22.985 12.957,31.281c8.296,8.296 19.548,12.957 31.281,12.957c208.033,0 1087.585,0 1295.618,0c24.432,-0 44.238,-19.806 44.238,-44.238c0,-250.136 0,-1476.131 0,-1476.131c0,0 -266.253,0 -373.767,0c-24.432,0 -44.238,-19.806 -44.238,-44.238c-0,-106.619 -0,-369.03 -0,-369.03Zm76.77,0l-1.217,-0c0,0 0,201.894 0,293.477c0,24.432 19.806,44.238 44.238,44.238c91.838,-0 294.695,-0 294.695,-0l-337.715,-337.715Z" style="fill:#566b8d;"/></g><g id="DocumentList"><path id="DocumentList1" serif:id="DocumentList" d="M573.966,1706.623c-1.894,-2.798 -0.919,-3.043 -1.062,-5.767c0.1,-21.967 0.066,-762.584 0.017,-772.487c0.19,-1.708 0.157,-1.616 0.589,-3.258c3.755,-8.383 13.294,-16.154 32.674,-35.635c13.663,-13.734 13.663,-13.643 14.758,-14.915c0.525,-1.727 0.561,-1.787 2.322,-2.322c1.141,-0.982 22.945,-22.969 26.346,-26.178c0.582,-0.549 0.461,-0.535 1.042,-1.21c0.536,-1.761 0.596,-1.797 2.322,-2.322c4.609,-3.968 4.597,-3.891 8.321,-8.783c0.724,-0.951 5.428,-5.086 5.914,-5.513c1.55,-1.362 11.084,-10.688 13.154,-13.092c0.536,-1.761 0.596,-1.797 2.322,-2.322c1.142,-0.983 22.938,-22.962 26.346,-26.178c0.582,-0.549 0.461,-0.535 1.042,-1.21c0.536,-1.761 0.595,-1.797 2.322,-2.322c2.388,-2.055 38.989,-38.773 42.365,-42.159c2.058,-2.064 2.21,-1.729 4.568,-3.444c1.091,-0.801 1.037,-0.786 2.31,-1.111c1.18,-0.485 1.127,-0.395 2.293,0.018c4.925,-1.291 542.902,-1.09 551.92,0.039c6.216,0.779 22.167,7.055 24.05,7.795c2.716,0.243 2.63,0.424 4.554,2.407c2.722,2.089 2.795,1.813 5.428,3.857c6.455,5.011 6.46,5.014 7.045,5.419c1.256,1.046 1.193,0.987 2.379,2.163c2.113,2.101 2.115,1.99 3.565,4.486c4.632,5.726 4.51,5.696 9.007,11.515l1.21,1.084c1.253,1.442 1.075,1.5 1.186,3.472c0.943,2.335 6.046,12.739 7.423,24.182c0.457,1.629 0.423,1.534 0.649,3.271l-0.023,4.568c3.31,9.568 -0.696,46.572 2.087,51.453c7.845,1.953 7.903,-0.033 19.433,-0.181c1.92,-0.025 21.42,-0.276 24.003,0.122c5.03,0.773 4.983,0.956 14.858,1.055c2.482,0.115 2.599,-0.448 4.616,1.058l1.117,0.028c1.648,0.177 1.566,0.142 3.246,0.586c7.549,2.613 16.188,7.008 17.328,7.514c1.35,0.297 1.24,0.292 2.349,1.051l1.034,0.2c1.22,1.102 1.133,1.016 2.317,2.243c1.71,1.316 7.435,6.196 8.075,6.742c4.007,1.199 4.148,3.662 4.703,4.546c1.355,1.682 5.99,5.748 9.151,11.452c1.675,3.023 2.917,4.346 3.228,4.677c0.904,1.009 0.886,0.954 1.325,2.205c1.886,2.604 1.977,2.571 2.162,5.8c5.82,13.608 5.908,27.302 5.923,29.726c0.083,13.018 -0.12,835.878 0.103,860.409c1.629,4.31 1.496,13.3 -0.002,17.252c-0.036,2.193 1.37,15.118 -5.99,33.116c-0.394,2.684 -0.361,2.702 -2.141,4.69c-0.468,0.668 -0.072,0.827 -5.22,8.751c-1.582,2.435 -1.753,2.232 -2.94,4.858c-0.354,1.353 -0.332,1.295 -1.169,2.319l-2.208,1.267c-3.102,2.729 -2.18,3.621 -5.688,5.756c-0.106,0.065 0,-0 -1.121,1.078l-1.303,2.155c-1.008,0.853 -0.92,0.846 -2.247,1.23c-3.149,1.828 -5.376,4.033 -5.791,4.443c-0.975,0.863 -0.866,0.872 -2.186,1.331c-0.292,0.149 -2.277,1.163 -3.507,2.129c-1.494,1.26 -1.544,0.919 -3.376,1.301c-1.043,0.246 -0.679,0.893 -12.482,4.864c-4.548,1.53 -4.571,1.184 -9.243,2.125c-2.272,0.958 -2.227,0.831 -4.632,1.032l-9.108,0.057c-2.17,1.515 -2.543,0.994 -363.423,0.994c-282.581,0 -282.752,0.122 -284.571,-1.019l-9.115,-0.048c-1.716,-0.22 -1.624,-0.186 -3.273,-0.638c-3.052,-0.366 -21.072,-2.528 -35.698,-14.224l-2.13,-1.374c-1.512,-1.46 -1.498,-1.298 -3.421,-2.308c-1.236,-1.035 -1.185,-0.985 -2.375,-2.177l-1.141,-1.145c-2.071,-2.092 -2.079,-1.984 -3.506,-4.531c-3.14,-3.704 -3.396,-3.361 -6.339,-7.196c-1.571,-2.048 -1.035,-2.261 -2.724,-4.279c-0.961,-0.958 -1.018,-0.852 -1.218,-2.29c-1.932,-4.349 -4.717,-8.66 -5.182,-9.38l-0.693,-3.138l-0.451,-0.252c-0.443,-1.651 -0.421,-1.568 -0.66,-3.192l-0.507,-0.226c-0.43,-1.634 -0.404,-1.56 -0.57,-3.251c-1.148,-3.357 -0.974,-3.338 -1.069,-6.879c-1.06,-28.588 -1.148,-28.503 -1.196,-57.14c-0.008,-4.958 -3.153,-2.152 -54.683,-3.294c-2.503,-0.144 -2.61,0.36 -4.615,-1.049l-2.248,-0.057c-2.252,-0.134 -2.198,0.043 -4.41,-0.563c-6.306,-2.847 -6.706,-1.604 -17.09,-6.898c-0.726,-0.37 -0.672,-0.284 -1.379,-0.584c-2.765,-0.161 -2.676,-0.381 -4.561,-2.375c-2.055,-1.177 -4.32,-2.967 -4.678,-3.249l-2.161,-1.347c-1.732,-1.763 -1.85,-1.545 -3.492,-3.328c-2.907,-0.815 -2.474,-1.429 -4.552,-3.485l-1.145,-1.141c-1.507,-1.517 -1.757,-1.323 -2.369,-3.391c-3.276,-4.085 -3.179,-4.044 -6.328,-8.332c-1.31,-1.783 -1.36,-1.917 -1.431,-2.108c-0.071,-0.189 -0.401,-1.073 -1.334,-2.143c-0.424,-0.418 -1.116,-0.063 -1.35,-3.382c-4.392,-8.983 -4.106,-9.037 -7.282,-18.564c-0.451,-1.674 -0.416,-1.59 -0.621,-3.256l-0.073,-2.244Zm42.779,6.686l2.039,2.41l0.216,1.02l1.132,2.279c2.481,3.166 2.652,2.909 5.538,5.821c0.912,0.92 1.058,0.555 2.257,1.184c1.261,1.08 1.175,0.997 2.338,2.216c6.42,6.13 17.756,6.715 19.398,6.799c18,-0.278 649.198,-0.069 654.766,0.006c7.797,-0.348 8.101,0.554 14.755,-3.554c1.441,-0.889 4.784,-2.295 6.947,-4.372l2.166,-1.319c3.842,-3.101 6.296,-6.195 6.773,-6.797c0.163,-1.872 -0.04,-1.899 1.237,-3.403c0.904,-0.825 0.777,-0.822 2.006,-1.272c1.602,-7.296 6.109,-6.487 5.942,-29.476c-0.767,-105.499 0.798,-868.26 -0.838,-874.208c-0.498,-1.81 0.13,-2.245 -1.198,-5.707c-0.395,-1.03 -4.283,-11.169 -5.851,-12.484c-2.273,-1.907 -1.399,-2.532 -3.429,-4.567c-15.589,-15.63 -24.243,-13.678 -63.931,-13.678c-38.39,0.001 -479.139,0.009 -479.872,0.13c-1.246,0.205 -1.034,0.908 -1.034,43.2c0,32.73 -0.093,32.642 0.031,52.568c0.004,3.821 0.769,5.385 -1.086,8.041l-0.049,4.538c-0.216,1.698 -0.181,1.609 -0.638,3.267l-0.515,2.456c-0.203,1.654 -0.175,1.57 -0.617,3.213c-2.37,5.177 -6.234,14.434 -6.361,15.071c-0.299,1.335 -0.302,1.268 -1.035,2.36c-4.539,5.36 -3.585,5.923 -8.056,11.419c-0.856,2.923 -1.521,2.438 -3.546,4.495l-1.136,1.15l-1.143,1.143l-1.15,1.136c-1.152,1.133 -2.11,2.095 -2.293,2.279c-1.006,0.874 -0.896,0.879 -2.198,1.274c-4.455,3.672 -4.681,3.262 -9.2,6.765l-1.119,1.166c-1.435,1.259 -1.495,1.082 -3.445,1.227c-6.712,2.655 -12.852,5.743 -13.946,6.293c-1.597,0.422 -1.511,0.405 -3.202,0.615l-1.329,0.527c-1.659,0.45 -1.571,0.416 -3.26,0.617l-2.246,0.052c-2.728,1.964 -2.971,0.952 -5.764,1.086c-8.21,-0.072 -101.007,-0.884 -102.624,0.185c-1.025,0.677 -0.917,1.164 -0.917,681.808c0,64.727 -0.728,65.018 3.274,76.459c0.134,0.383 1.002,2.864 2.212,4.562Zm115.015,-212.325c-6.634,-10.278 -2.813,-20.88 -0.857,-24.032l1.022,-1.223c1.492,-1.527 1.518,-1.394 3.31,-2.493c1.139,-0.356 3.409,-2.747 8.059,-3.462c1.082,-0.772 0.949,-0.939 2.323,-1.099c0.241,-0.028 326.863,-0.027 349.694,-0.001l109.707,0.001c5.55,0.179 5.732,-0.58 8.061,1.092c5.151,0.82 9.559,5.292 10.224,5.966c1.201,1.194 1.118,1.107 2.179,2.344c0.763,2.341 5.144,12.321 -1.111,22.755c-0.834,1.002 -0.772,0.99 -2,1.434c-0.248,0.155 -0.006,0.685 -0.255,0.839c-0.172,0.108 -0.164,0.092 -2.219,1.237c-1.041,0.86 -0.952,0.844 -2.235,1.263c-1.552,1.036 -1.556,0.81 -3.464,1.165c-6.422,1.954 -6.572,1.217 -158.879,1.217l-185.119,0.07c-116.821,0 -116.818,0.192 -132.526,-1.522l-2.438,-2.024c-1.262,-0.412 -1.206,-0.396 -2.238,-1.27c-0.834,-1.013 -0.829,-0.924 -1.24,-2.256Zm187.335,-563.406c-0.942,-3.251 -3.381,-9.727 2.606,-19.431c1.389,-1.669 1.219,-1.85 3.221,-2.545l1.242,-0.974c2.253,-2.449 2.408,-2.289 5.728,-2.357c15.869,-0.847 15.873,-0.44 17.238,-0.645c7.391,-1.109 7.339,0.213 14.774,0.225c16.458,0.026 188.418,0.292 205.723,-0.101c21.717,-0.493 21.644,-0.161 43.393,0.558c2.513,0.102 2.65,-0.422 4.634,1.061c1.346,0.366 1.238,0.36 2.328,1.099l1.006,0.241l1.227,1.041c1.492,1.507 1.742,1.303 2.381,3.399c0.094,0.144 4.035,8.345 3.14,12.627c-1.778,8.506 -1.59,8.835 -7.838,14.919c-1.028,0.877 -0.913,0.859 -2.203,1.33c-1.06,0.189 -2.137,1.022 -2.299,1.148c-2.053,1.503 -2.151,0.952 -4.658,1.069l-8.007,-0.024l-6.851,0.001c-5.558,2.137 -7.969,2.201 -13.724,0.003l-247.969,0.051c-2.507,-0.144 -2.628,0.387 -4.657,-1.115c-1.308,-0.469 -1.219,-0.458 -2.225,-1.305c-2.34,-1.778 -2.528,-1.43 -4.555,-3.457c-0.184,-0.182 -1.148,-1.138 -2.329,-2.249c-0.505,-0.577 -1.116,-0.372 -1.324,-4.568Zm-188.418,227.379c-0.332,-1.96 -0.296,-1.956 -0.358,-2.116c-3.912,-10.084 -2.934,-10.44 0.582,-20.71l2.032,-1.396c6.557,-5.453 7.978,-5.503 12.844,-6.229c3.903,-1.026 3.877,-0.526 5.581,-0.639l43.43,0.006c410.308,0.277 410.465,-0.252 413.726,0.901c7.468,0.42 7.403,0.882 13.646,5.005c2.13,1.766 2.841,1.287 3.506,4.55c1.555,5.296 3.733,9.196 0.066,18.352c-0.332,1.887 0.017,1.99 -1.205,3.459l-1.168,1.124c-1.174,1.154 -1.125,1.112 -2.396,2.134c-3.445,1.154 -3.349,1.065 -6.671,2.699c-2.665,1.311 -2.769,1.146 -294.952,1.146c-173.491,-0 -173.9,0.726 -184.025,-3.636c-2.176,-0.567 -1.97,-0.79 -3.493,-2.293c-0.846,-1.067 -0.8,-1.013 -1.144,-2.356Zm0.235,446.696c-2.356,-6.729 -3.216,-6.585 -2.803,-13.67c0.311,-5.338 2.245,-4.878 2.679,-10.263c0.934,-0.927 0.876,-0.923 2.167,-1.299c8.619,-7.075 9.646,-5.816 53.83,-5.815c236.803,0.004 237.127,-0.233 239.892,1.551c2.726,1.758 2.12,2.453 4.967,4.042c0.865,0.483 0.978,-0.02 1.802,0.542c0.489,0.334 -0.149,0.585 0.293,0.887c1.088,1.227 1.025,1.155 2.111,2.407l0.236,1.02c1.075,1.564 0.783,1.619 1.075,3.505c0.032,0.529 1.69,10.33 -2.219,16.125c-0.685,2.067 -0.93,1.871 -2.431,3.365l-1.252,0.981c-0.342,0.126 -8.619,4.717 -15.93,4.824c-0.136,0.002 -258.349,0.079 -259.403,-0.071c-14.347,-2.045 -15.404,0.437 -22.873,-5.754c-1.197,-1.19 -1.117,-1.102 -2.141,-2.378Zm0.007,-557.645c-0.584,-1.69 -4.125,-8.794 -2.544,-17.098c0.809,-4.248 5.203,-8.532 5.824,-9.137c2.075,-2.023 3.624,-1.985 5.7,-3.459c1.475,-1.24 1.528,-1.052 3.445,-1.262l6.867,0.009c5.793,-2.07 37.478,-2.12 43.438,-0.002l417.09,-0.025c2.223,0.165 2.174,-0.007 4.369,0.602c5.164,3.178 5.273,2.981 9.388,7.538c0.967,0.975 1.014,0.878 1.221,2.297c4.229,10.423 0.365,16.54 0.116,17.288c-1.17,3.513 -1.352,3.351 -4.785,6.785c-1.148,1.164 -1.089,1.112 -2.354,2.182c-6.295,0.842 -6.108,1.596 -12.531,1.694c-0.506,0.008 -454.725,0.003 -454.805,0.003c-1.214,-0.014 -11.112,-0.126 -14.954,-2.592c-1.327,-0.444 -1.218,-0.454 -2.212,-1.293l-1.147,-1.142c-1.131,-1.154 -1.088,-1.1 -2.126,-2.388Zm-0.29,221.809c-1.562,-3.907 -5.095,-9.641 0.045,-21.812c0.345,-1.339 0.299,-1.285 1.139,-2.356l1.145,-1.153c1.553,-1.237 1.605,-0.877 3.435,-1.241c0.471,-0.153 0.368,-0.206 5.694,-2.415c2.884,-1.196 2.955,-1.069 441.218,-1.069c23.428,0 23.634,-0.779 37.666,3.787c1.29,1.031 1.201,0.952 2.404,2.135l1.169,1.123c1.242,1.478 1.057,1.545 1.173,3.482c1.4,3.44 4.215,8.72 -0.05,18.352c-0.878,4.077 -2.173,3.039 -3.245,3.708c-0.742,0.658 -5.872,5.206 -10.576,6.47c-3.298,0.886 -427.859,0.336 -465.064,0.288c-1.872,-0.249 -1.794,-0.313 -3.511,-0.969c-7.025,-1.455 -8.954,-4.144 -10.202,-4.946c-1.712,-1.401 -2.132,-1.117 -2.439,-3.386Zm1.15,113.169c-7.333,-10.788 -2.05,-20.555 -0.883,-24.033l0.987,-1.25c1.171,-1.191 1.127,-1.147 2.366,-2.193l2.229,-1.225c1.49,-1.245 1.538,-0.899 3.42,-1.256c5.299,-1.629 5.463,-1.383 285.714,-1.383c188.595,-0 189.106,-0.374 194.223,2.737c1.272,1.087 1.208,1.031 2.358,2.19l1.14,1.148c1.191,1.176 1.134,1.116 2.177,2.356c3.972,12.748 1.174,16.962 0.259,19.441c-0.357,1.878 -0.035,1.975 -1.277,3.417l-1.176,1.114c-1.195,1.188 -1.107,1.107 -2.36,2.182c-4.067,2.522 -4.143,2.195 -4.472,2.435c-4.07,3.478 -13.314,2.446 -19.464,2.407c-14.313,-0.046 -14.207,-0.027 -28.572,0.002c-33.55,0.115 -327.839,1.121 -419.377,0.096c-1.92,-0.021 -1.904,-0.036 -3.468,-1.192l-2.255,-0.054c-1.632,-0.189 -1.564,-0.155 -3.215,-0.602c-3.08,-1.558 -5.616,-3.562 -6.07,-3.921c-1.109,-0.784 -1.596,-0.313 -2.283,-2.417Zm-2.143,-484.621c1.014,-0.857 0.891,-0.85 2.202,-1.283c1.886,-1.502 2.478,-0.817 9.075,-9.086c0.432,-1.316 0.438,-1.207 1.288,-2.197c5.044,-6.651 7.825,-19.971 7.385,-27.446c-2.566,-43.568 2.363,-58.203 -0.797,-62.271c-0.288,-0.371 -0.283,0.12 -4.228,4.084c-23.654,23.771 -23.269,24.117 -27.107,26.62c-2.809,1.832 -1.639,2.864 -4.204,4.916c-1.06,0.848 -1.608,1.286 -12.163,11.835c-1.612,1.831 -1.517,1.751 -3.43,3.427c-0.55,0.547 -3.435,3.422 -6.856,6.856c-1.676,1.913 -1.596,1.818 -3.427,3.43c-0.9,0.901 -0.691,0.998 -1.554,1.875c-3.975,4.035 -4.021,3.896 -8.005,8.004c-4.56,4.702 -30.785,29.708 -33.968,34.612c-0.91,0.967 -0.8,0.978 -2.027,1.359c-1.236,0.891 -2.129,0.78 -1.241,2.1c1.172,1.742 1.657,0.694 5.653,0.65c61.164,-0.672 63.779,3.203 83.404,-7.486Zm9.35,905.042l0,7.998l-0.068,5.704c1.467,3.871 1.055,3.864 1.091,8.002c0.134,1.094 0.904,7.38 5.659,12.56c0.188,0.178 1.175,1.111 2.36,2.216c0.85,1.018 0.825,0.961 1.209,2.261c0.478,0.599 3.621,4.539 6.837,6.713c2.66,0.591 2.606,0.612 4.467,2.486c9.069,6.442 15.731,5.45 101.664,5.45c566.528,0 566.58,0.108 573.625,-0.921c4.194,-0.612 4.055,-0.76 7.987,-2.235c1.428,-1.177 1.451,-0.914 3.334,-1.386c0.119,-0.026 -0.136,-0.263 1.229,-0.905c1.006,-0.863 0.947,-0.851 2.222,-1.274c0.869,-0.429 4.191,-2.729 5.805,-4.396c1.13,-1.173 1.069,-1.112 2.258,-2.312l1.151,-1.134c2.863,-2.226 4.273,-5.19 4.524,-5.716c0.291,-1.341 0.299,-1.271 1.028,-2.348c0.367,-1.303 0.339,-1.216 1.113,-2.293c5.387,-7.108 4.373,-24.061 4.373,-85.605c-0,-813.704 0.143,-813.779 -1.177,-818.072c-0.994,-3.235 -0.851,-3.202 -2.591,-6.007l-0.653,-3.142c-0.204,-1.247 -4.972,-8.529 -8.19,-12.212c-0.127,-0.146 -0.171,0.047 -1.953,-1.424c-2.083,-0.68 -1.824,-0.931 -3.331,-2.428c-7.166,-4.091 -6.778,-4.817 -14.835,-6.812c-4.089,-0.064 -4.085,0.344 -7.999,-1.119c-22.881,0.043 -22.798,0.049 -45.685,-0.041c-0.99,1.655 -0.884,1.801 -0.884,301.614l-0,315.387c0,178.879 0.1,178.963 -1.229,182.848l0.019,4.569c-0.21,1.707 -0.176,1.617 -0.632,3.266c-1.594,9.985 -4.51,13.16 -7.484,21.887c-0.313,1.377 -0.314,1.269 -1.05,2.352c-0.042,0.049 -4.075,6.877 -8.134,11.375c-4.642,5.143 -4.179,5.407 -9.203,10.229c-1.566,1.537 -1.543,1.376 -3.296,2.473c-2.813,2.354 -2.85,2.203 -5.797,4.444c-2.28,2.245 -1.726,3.539 -6.768,3.652c-7.32,3.767 -7.282,3.699 -14.941,6.734c-0.741,0.294 -0.646,0.292 -1.333,0.602c-1.638,0.426 -1.563,0.401 -3.248,0.571l-1.115,0.038c-2.027,1.501 -2.148,0.94 -4.619,1.06c-41.558,0.825 -573.792,-0.431 -574.979,0.733c-0.934,0.915 -0.758,1.156 -0.758,34.558Z" style="fill:#566b8d;fill-opacity:1;"/></g></g></svg>