<?xml version="1.0" encoding="UTF-8" standalone="no"?><!DOCTYPE svg PUBLIC "-//W3C//DTD SVG 1.1//EN" "http://www.w3.org/Graphics/SVG/1.1/DTD/svg11.dtd"><svg width="100%" height="100%" viewBox="0 0 2084 2084" version="1.1" xmlns="http://www.w3.org/2000/svg" xmlns:xlink="http://www.w3.org/1999/xlink" xml:space="preserve" xmlns:serif="http://www.serif.com/" style="fill-rule:evenodd;clip-rule:evenodd;stroke-linejoin:round;stroke-miterlimit:2;"><rect id="document-page" x="0" y="0" width="2083.333" height="2083.333" style="fill:none;"/><clipPath id="_clip1"><rect x="0" y="0" width="2083.333" height="2083.333"/></clipPath><g clip-path="url(#_clip1)"><g id="page"><path d="M1796.35,372.543c8.271,8.293 12.916,19.527 12.916,31.24c0,164.411 0,1387.535 0,1636.72c0,11.733 -4.661,22.985 -12.957,31.281c-8.296,8.296 -19.548,12.957 -31.281,12.957c-223.172,0 -1223.551,0 -1446.723,0c-11.733,-0 -22.985,-4.661 -31.281,-12.957c-8.296,-8.296 -12.957,-19.548 -12.957,-31.281l0,-1996.265c-0,-11.733 4.661,-22.985 12.957,-31.281c8.296,-8.296 19.548,-12.957 31.281,-12.957l1088.117,0c11.753,0 23.022,4.677 31.322,12.998c58.779,58.933 299.926,300.711 358.606,359.545Zm-480.642,-296.991c0,0 -732.513,-0 -921.851,-0c-11.733,0 -22.985,4.661 -31.281,12.957c-8.296,8.296 -12.957,19.548 -12.957,31.281c-0,259.863 -0,1585.297 -0,1845.161c-0,11.733 4.661,22.985 12.957,31.281c8.296,8.296 19.548,12.957 31.281,12.957c208.033,0 1087.585,0 1295.618,0c24.432,-0 44.238,-19.806 44.238,-44.238c0,-250.136 0,-1476.131 0,-1476.131l-373.767,0c-24.432,0 -44.238,-19.806 -44.238,-44.238c-0,-106.619 -0,-369.03 -0,-369.03Zm76.77,0l-1.217,-0c0,0 0,201.894 0,293.477c0,24.432 19.806,44.238 44.238,44.238c91.838,-0 294.695,-0 294.695,-0l-337.715,-337.715Z" style="fill:#566b8d;"/></g><g id="Document"><path id="Document1" serif:id="Document" d="M1464.004,942.531c4.629,4.643 7.228,10.929 7.228,17.484l0,915.944c0,6.566 -2.609,12.862 -7.252,17.505c-4.643,4.643 -10.938,7.252 -17.505,7.252l-809.619,0c-6.566,0 -12.862,-2.609 -17.505,-7.252c-4.643,-4.643 -7.252,-10.938 -7.252,-17.505l0,-1117.154c0,-6.566 2.609,-12.862 7.252,-17.505c4.643,-4.643 10.938,-7.252 17.505,-7.252l608.934,0c6.578,0 12.885,2.616 17.53,7.273l200.683,201.21Zm-226.015,-166.201l-0.681,0l0,164.235c0,13.673 11.083,24.756 24.756,24.756l164.916,0l-188.991,-188.991Zm-42.963,0l-515.887,0c-6.566,0 -12.864,2.607 -17.507,7.249c-4.643,4.643 -7.249,10.941 -7.249,17.507l0,1032.591c0,6.566 2.607,12.864 7.249,17.507c4.643,4.643 10.941,7.249 17.507,7.249l725.055,0c13.673,0 24.756,-11.083 24.756,-24.756l0,-826.074l-209.168,0c-13.673,0 -24.756,-11.085 -24.756,-24.756l0,-206.517Zm-470.224,959.574l0,-54.136l545.489,0l0,54.136l-545.489,0Zm0,-198.951l0,-54.136l633.727,0l0,54.136l-633.727,0Zm0,-400.334l-0,-54.136l633.727,0l-0,54.136l-633.727,0Zm-0,200.087l0,-54.136l545.489,0l0,54.136l-545.489,0Z" style="fill:#586c8d;"/></g></g></svg>