<?xml version="1.0" encoding="UTF-8" standalone="no"?><!DOCTYPE svg PUBLIC "-//W3C//DTD SVG 1.1//EN" "http://www.w3.org/Graphics/SVG/1.1/DTD/svg11.dtd"><svg width="100%" height="100%" viewBox="0 0 2084 2084" version="1.1" xmlns="http://www.w3.org/2000/svg" xmlns:xlink="http://www.w3.org/1999/xlink" xml:space="preserve" xmlns:serif="http://www.serif.com/" style="fill-rule:evenodd;clip-rule:evenodd;stroke-linejoin:round;stroke-miterlimit:2;"><rect id="documentpile-admin" x="0" y="0" width="2083.333" height="2083.333" style="fill:none;"/><g id="DocumentPile"><path id="DocumentPile1" serif:id="DocumentPile" d="M156.186,443.632c0.085,-11.718 -1.584,-12.095 3.635,-22.258c0.946,-2.748 0.96,-2.817 3.924,-3.641c17.5,-8.273 19.03,-9.246 20.582,-10.232c2.816,-0.759 2.676,-0.608 5.449,-1.855c2.639,-0.631 2.496,-0.605 5.238,-0.823c2.215,-0.507 8.488,-0.433 24.228,-8.285l5.053,-1.112l0.39,-0.762c2.58,-0.68 2.442,-0.658 5.132,-1.028l0.371,-0.831c2.649,-0.638 2.506,-0.609 5.23,-0.854c5.348,-0.906 5.333,-0.825 5.776,-0.979c2.632,-0.913 31.042,-10.771 32.715,-11.926c3.276,-2.454 3.487,-1.56 7.424,-1.767c17.748,-5.349 18.224,-6.887 27.848,-10.152c5.427,-1.612 5.152,-2.494 10.723,-2.699c8.759,-2.556 8.693,-2.344 16.883,-6.462l5.052,-1.103l0.394,-0.773l5.119,-1.058l0.386,-0.786c2.675,-0.685 2.544,-0.651 5.151,-0.971l0.355,-0.874c2.659,-0.603 2.528,-0.586 5.237,-0.802c4.72,-0.683 4.746,-0.523 5.097,-0.738c4.493,-2.746 -4.128,-45.699 -6.211,-65.424c-0.695,-2.694 -0.651,-2.588 -0.997,-5.27l-0.845,-9.427c-0.992,-3.574 -0.726,-3.435 -1.038,-7.106l-0.089,-9.126c-2.592,-3.719 -3.18,-6.494 -0.031,-11.169c0.852,-12.412 1.437,-12.799 11.246,-20.512l1.936,-1.755c3.247,-2.44 3.428,-1.543 7.474,-1.671c3.519,-0.496 3.497,-0.178 44.072,-5.545c1.926,-0.255 15.705,-2.077 24.124,-2.807c3.517,-0.963 3.435,-0.718 7.107,-1.028l7.276,-0.118c4.621,-3.028 4.93,-1.443 9.257,-1.677l3.663,0.058c6.248,-2.22 6.204,-1.93 12.871,-1.754c29.819,-1.199 55.758,-6.526 73.697,-8.331c2.711,-0.722 2.578,-0.668 5.267,-1.016l9.434,-0.828c3.578,-1.015 3.456,-0.729 7.102,-1.014l5.499,0.071c5.437,-1.862 5.398,-1.568 11.036,-1.796c15.777,-0.488 15.762,0.114 18.649,-1.206c1.341,-0.613 1.373,-12.207 1.376,-13.274c0.064,-23.053 -0.1,-22.931 -0.067,-45.928c0.265,-3.945 -0.51,-4.101 1.642,-7.442c1.402,-5.263 1.398,-5.228 1.514,-5.684c0.19,-0.748 -0.522,-0.589 -0.397,-1.291c0.459,-2.592 10.316,-12.65 14.004,-13.169c16.951,-2.383 979.3,-1.289 995.632,-0.567c9.969,0.441 8.813,3.234 16.585,9.516c1.869,1.098 3.395,-0.451 5.804,5.326c4.98,5.617 7.792,7.461 8.576,7.974c2.012,1.664 1.914,1.571 3.831,3.471c3.909,4.682 3.047,5.462 9.023,9.39c2.066,1.706 1.962,1.616 3.843,3.457c1.44,1.469 1.445,1.297 2.268,3.274c4.968,5.591 7.813,7.433 8.599,7.942l1.98,1.65c1.455,1.464 1.458,1.293 2.282,3.261c4.957,5.589 7.807,7.439 8.592,7.949l1.981,1.649c1.46,1.464 1.462,1.292 2.289,3.255c4.94,5.584 7.799,7.446 8.584,7.957c2.072,1.719 1.977,1.639 3.821,3.482c3.831,4.609 2.963,5.417 9.033,9.378c1.998,1.655 1.907,1.566 3.826,3.477c3.871,4.65 3.007,5.443 9.027,9.384c2.028,1.677 1.93,1.587 3.83,3.472c3.897,4.671 3.033,5.456 9.024,9.389c2.061,1.703 1.957,1.613 3.841,3.458c1.44,1.47 1.444,1.298 2.264,3.277c4.981,5.594 7.816,7.43 8.602,7.939l1.98,1.65c1.455,1.465 1.458,1.293 2.281,3.262c4.959,5.589 7.808,7.438 8.593,7.948l1.98,1.649c1.46,1.464 1.462,1.292 2.289,3.256c4.942,5.587 7.8,7.445 8.585,7.955l1.982,1.646c1.461,1.461 1.464,1.29 2.293,3.252c4.931,5.584 7.794,7.452 8.578,7.963c1.995,1.653 1.904,1.564 3.825,3.478c3.858,4.638 2.994,5.434 9.028,9.384c2.03,1.678 1.933,1.59 3.829,3.472c3.886,4.661 3.023,5.448 9.024,9.388c2.063,1.705 1.959,1.615 3.841,3.459c1.44,1.47 1.444,1.299 2.264,3.277c4.983,5.594 7.817,7.429 8.604,7.938l1.98,1.65c1.453,1.464 1.457,1.292 2.279,3.264c4.959,5.586 7.81,7.436 8.596,7.945l1.981,1.648c1.457,1.463 1.46,1.291 2.287,3.257c4.942,5.586 7.8,7.445 8.585,7.955l1.982,1.646c1.461,1.461 1.464,1.29 2.293,3.252c4.931,5.585 7.794,7.451 8.578,7.962c1.993,1.653 1.902,1.564 3.823,3.48c3.846,4.62 2.978,5.423 9.03,9.381c2.03,1.681 1.933,1.592 3.828,3.474c3.893,4.671 3.028,5.46 9.027,9.384c2.041,1.674 1.939,1.582 3.854,3.448c1.441,1.472 1.432,1.333 2.185,3.353c9.697,10.779 9.876,10.397 10.693,11.339c2.684,3.131 2.025,3.364 1.296,7.535c1.438,25.071 0.403,1363.11 0.552,1364.544c-0.159,2.209 -0.1,2.074 -1.227,3.908c-1.338,7.125 -3.737,8.359 -6.195,10.778c-1.656,1.307 -1.48,1.334 -3.661,1.899c-12.048,5.678 -30.877,6.243 -36.778,5.55c-23.381,-2.744 -64.542,-0.665 -330.587,-1.43c-67.164,-0.193 -66.856,2.579 -90.221,4.283c-2.667,0.73 -2.522,0.675 -5.265,1.032c-3.965,0.09 -3.957,-0.543 -7.603,0.819c-3.505,0.977 -3.454,0.712 -7.096,0.973l-3.665,-0.055c-6.208,2.223 -6.164,1.947 -12.872,1.772c-33.415,1.17 -50.082,6.167 -75.532,8.322c-2.699,0.733 -2.56,0.677 -5.268,1.027l-7.274,0.148c-3.696,2.43 -3.863,1.382 -9.262,1.664l-3.662,-0.047c-6.246,2.236 -6.206,1.942 -12.873,1.765c-32.013,1.099 -68.831,8.219 -88.396,10.146c-6.168,1.781 -6.108,0.845 -8.942,1l-3.66,-0.038c-6.45,2.262 -6.433,1.603 -12.875,1.767c-37.97,1.263 -51.438,5.701 -64.554,10.143c-4.777,2.486 -9.839,2.705 -10.723,2.743c-11.488,3.207 -10.971,4.285 -22.334,8.284l-5.103,1.107l-0.402,0.753c-5.007,2.601 -4.944,2.5 -10.732,2.71c-5.332,0.949 -5.317,0.869 -5.758,1.025c-23.158,8.188 -25.612,9.71 -27.633,10.964c-2.52,0.655 -2.389,0.641 -5.114,0.941c-3.257,2.418 -3.468,1.546 -7.383,1.786c-1.871,0.627 -25.31,9.038 -25.635,9.266c-2.429,1.774 -2.465,1.502 -5.544,1.818c-3.212,2.393 -3.41,1.532 -7.405,1.729c-11.361,3.76 -11.003,4.419 -22.344,8.311l-5.114,1.082l-0.389,0.773c-2.542,0.64 -2.413,0.631 -5.146,0.987l-0.366,0.845c-2.682,0.59 -2.544,0.581 -5.228,0.817c-3.095,0.857 -16.338,4.352 -27.877,10.211c-2.548,0.687 -2.418,0.669 -5.092,1.007l-0.357,0.865c-2.617,0.606 -2.472,0.589 -5.244,0.79c-2.314,0.534 -18.469,4.263 -27.877,10.201c-2.851,0.768 -2.718,0.622 -5.445,1.871c-3.599,0.868 -3.446,0.654 -7.056,0.865c-18.644,5.928 -25.752,9.11 -27.919,10.081l-5.067,1.07l-0.386,0.784c-2.59,0.599 -2.463,0.593 -5.218,0.877c-2.274,0.682 -22.271,6.683 -27.886,10.159c-2.543,0.686 -2.422,0.676 -5.078,1.044l-0.375,0.816c-2.672,0.66 -2.541,0.628 -5.181,0.895c-2.496,1.834 -2.546,1.482 -5.576,1.683c-12.75,3.15 -18.96,6.273 -22.363,8.417c-2.511,0.683 -2.368,0.67 -5.076,1.037l-0.371,0.832c-2.648,0.672 -2.513,0.64 -5.171,0.922c-3.167,2.406 -3.363,1.553 -7.394,1.758c-0.759,0.218 -8.085,2.322 -9.468,2.814c-17.223,6.124 -16.893,6.799 -18.392,7.308l-5.137,1.018l-0.375,0.815c-2.622,0.594 -2.512,0.592 -5.214,0.872c-16.899,4.582 -22.08,7.556 -29.681,10.153c-3.639,0.753 -3.516,0.559 -7.085,0.757l-3.68,-0.007c-2.712,-0.253 -2.579,-0.23 -5.232,-0.776l-0.417,-0.713c-2.911,-0.7 -2.989,-0.236 -5.395,-2.248c-0.597,-0.579 -1.57,-1.523 -7.353,-7.35c-2.548,-2.366 -3.71,-2.031 -4.044,-9.106c-0.698,-1.625 -5.066,-11.791 -8.12,-20.57c-0.706,-2.623 -0.679,-2.483 -1.095,-5.112l-0.772,-0.386c-0.691,-2.655 -0.657,-2.523 -0.99,-5.147l-0.865,-0.358c-0.606,-2.641 -0.591,-2.504 -0.808,-5.238c-3.127,-17.219 -7.598,-15.935 -9.68,-30.998c-1.088,-1.396 -4.412,-3.38 -4.827,-3.628l-1.801,-0.028c-6.204,2.228 -6.162,1.949 -12.874,1.76c-18.567,0.639 -18.353,1.063 -36.722,3.632c-29.36,4.105 -32.788,-10.762 -37.986,-18.808c-0.973,-3.457 -0.675,-3.367 -0.834,-7.042c-1.141,-34.105 -8.244,-69.721 -10.089,-92.077c-0.731,-2.682 -0.676,-2.541 -1.025,-5.263l-0.106,-7.285c-3.157,-4.565 -1.483,-4.923 -1.689,-9.253c-0.974,-37.315 -7.902,-65.132 -10.045,-90.233c-0.987,-3.573 -0.723,-3.434 -1.038,-7.105l-0.106,-7.28c-3.102,-4.579 -1.465,-5.017 -1.67,-9.255l0.057,-3.663c-2.254,-6.282 -1.629,-6.238 -1.753,-12.872c-1.211,-31.559 -6.219,-52.531 -8.343,-73.699c-0.729,-2.684 -0.674,-2.543 -1.025,-5.265l-0.142,-9.114c-2.436,-3.694 -1.385,-3.862 -1.663,-9.258l0.049,-3.664c-2.224,-6.297 -1.608,-6.25 -1.744,-12.872c-0.576,-15.385 -1.508,-36.316 -8.377,-51.737c-0.697,-2.595 -0.663,-2.461 -0.969,-5.146c-0.678,-1.721 -2.468,-7.057 -2.675,-7.674l-0.951,-5.182c-5.478,-16.93 -6.251,-16.544 -11.909,-33.386l-0.917,-5.203c-5.113,-17.157 -6.328,-16.549 -11.955,-33.362c-0.645,-2.689 -0.614,-2.557 -0.899,-5.213c-0.613,-2.294 -4.437,-16.6 -10.123,-27.898c-0.678,-2.522 -0.663,-2.379 -1.047,-5.074l-0.814,-0.373c-0.647,-2.713 -0.614,-2.581 -0.863,-5.226c-0.383,-1.482 -1.893,-7.328 -5.767,-18.24c-6.657,-18.753 -6.158,-18.844 -7.141,-20.253c-2.417,-3.155 -1.584,-3.356 -1.811,-7.413c-1.903,-7.725 -2.593,-7.336 -5.122,-14.788c-0.36,-1.06 -0.854,-0.849 -5.002,-13.065c-1.644,-5.438 -2.51,-5.154 -2.671,-10.731c-2.893,-9.893 -4.44,-14.633 -8.33,-22.385l-1.094,-5.056l-0.776,-0.392c-2.659,-5.076 -2.542,-5.019 -2.676,-10.736c-0.133,-0.585 0.015,-1.211 -0.119,-1.796c-0.432,-1.896 -10.487,-30.387 -11.013,-31.168c-2.41,-3.26 -1.557,-3.453 -1.806,-7.425c-0.285,-1.22 -0.318,-1.163 -5.505,-16.499c-1.982,-5.86 -2.567,-5.51 -4.571,-11.361c-2.478,-4.778 -2.693,-9.836 -2.73,-10.72c-2.522,-10.961 -7.419,-20.685 -8.278,-22.391l-1.103,-5.053l-0.77,-0.393c-0.678,-2.607 -0.654,-2.468 -1.019,-5.134l-0.821,-0.374c-0.634,-2.625 -0.607,-2.481 -0.856,-5.23c-1.884,-10.808 -9.642,-29.6 -12.009,-33.387c-0.667,-2.527 -0.648,-2.386 -0.947,-5.115c-2.406,-3.211 -1.54,-3.414 -1.748,-7.394c-4.64,-14.211 -5.348,-13.826 -10.111,-27.87c-1.599,-5.43 -2.489,-5.15 -2.713,-10.71c-3.466,-8.571 -2.387,-8.8 -6.461,-16.894c-0.665,-2.536 -0.645,-2.399 -1.02,-5.121c-1.755,-5.161 -2.099,-4.934 -2.683,-5.885c-0.68,-2.592 -0.66,-2.464 -0.992,-5.092l-0.865,-0.36c-0.582,-2.605 -0.578,-2.459 -0.804,-5.234c-0.801,-2.666 -8.94,-29.767 -11.167,-32.958c-2.401,-3.273 -1.542,-3.465 -1.769,-7.424c-1.982,-6.226 -10.91,-30.874 -11.105,-31.137c-2.445,-3.281 -1.545,-3.451 -1.731,-7.453c-6.296,-22.159 -10.687,-30.868 -11.964,-33.402c-0.637,-2.621 -0.619,-2.494 -0.881,-5.166c-0.715,-2.747 -6.385,-24.543 -12.012,-33.39c-0.669,-2.535 -0.648,-2.394 -0.921,-5.117c-2.346,-3.148 -1.54,-3.332 -1.773,-7.389c-0.693,-2.068 -7.976,-23.784 -9.316,-25.618c-1.844,-2.497 -1.527,-2.549 -1.851,-5.534c-2.445,-3.292 -1.503,-3.473 -1.631,-7.443c-0.642,-2.286 -5.81,-20.679 -10.184,-27.886c-0.666,-2.527 -0.657,-2.402 -1.015,-5.085l-0.837,-0.37c-0.59,-2.657 -0.582,-2.517 -0.821,-5.227c-0.616,-2.294 -5.462,-20.357 -10.207,-27.881c-0.755,-2.831 -0.602,-2.694 -1.861,-5.449c-0.599,-2.611 -0.584,-2.467 -0.784,-5.243c-2.818,-12.061 -8.404,-24.458 -10.183,-29.673l-1.055,-5.123l-0.78,-0.388l-0.877,-5.214c-0.634,-2.288 -5.652,-20.399 -10.143,-27.893c-0.68,-2.513 -0.665,-2.369 -1.057,-5.076l-0.812,-0.375c-0.608,-2.581 -0.595,-2.448 -0.851,-5.228c-1.659,-6.455 -3.827,-15.436 -10.152,-27.891c-0.681,-2.51 -0.668,-2.367 -1.043,-5.076l-0.829,-0.369c-0.635,-2.556 -0.62,-2.421 -0.903,-5.176c-2.343,-3.156 -1.544,-3.339 -1.801,-7.384c-4.658,-14.149 -5.311,-13.724 -10.096,-27.867l-1.006,-5.139l-0.812,-0.379l-0.901,-5.203c-0.428,-1.732 -0.182,-1.704 -0.978,-3.958c-7.878,-22.311 -8.525,-21.942 -9.186,-23.879c-0.664,-2.641 -0.64,-2.501 -0.979,-5.152l-0.854,-0.363c-0.588,-2.631 -0.58,-2.488 -0.847,-5.222c-5.543,-18.98 -7.827,-19.974 -10.138,-29.667c-0.711,-2.684 -0.656,-2.546 -0.968,-5.244Zm64.687,9.539c-0.135,0.126 -0.263,1.079 -1.782,1.659c-1.095,0.418 -0.588,0.815 -1.27,1.76c1.201,4.436 1.159,4.262 1.301,9.032c0.817,2.719 8.22,27.374 12.022,33.392c0.626,2.577 0.613,2.439 0.836,5.177c0.505,1.931 1.832,7 7.643,23.748c2.928,8.438 3.03,8.578 3.495,9.214c2.408,3.208 1.56,3.387 1.774,7.422c5.013,15.902 6.074,15.502 6.386,16.915c1.699,7.688 2.506,7.324 3.736,10.947c2.612,5.022 2.5,4.964 2.706,10.729c0.721,2.745 6.401,24.37 11.995,33.394c0.648,2.568 0.623,2.423 0.872,5.177c0.447,2.065 0.236,1.964 0.861,3.976c7.222,23.251 9.793,27.288 11.145,29.41c0.68,2.551 0.657,2.409 0.944,5.112c2.42,3.224 1.541,3.432 1.737,7.4c7.932,24.288 8.898,25.881 10.13,27.912c0.665,2.565 0.655,2.447 1.001,5.089l0.844,0.367l0.816,5.225c0.637,2.288 5.797,20.811 10.21,27.884c0.673,2.533 0.656,2.403 0.987,5.097l0.883,0.349c0.603,2.621 0.587,2.476 0.777,5.244c1.678,7.124 6.58,22.078 10.236,27.87c0.68,2.508 0.665,2.377 0.991,5.096c2.335,3.189 1.509,3.398 1.709,7.415c5.845,20.76 8.888,25.874 10.103,27.915l1.073,5.067l0.785,0.384c0.634,2.72 0.609,2.577 0.874,5.218c0.616,2.293 5.488,20.428 10.153,27.892c0.676,2.519 0.662,2.376 1.025,5.081l0.836,0.368c0.628,2.667 0.599,2.525 0.826,5.234c1.669,7.363 6.544,22.104 10.203,27.873c1.949,7.11 2.407,6.867 2.768,12.463l0.829,0.365l0.895,5.208c2.157,8.58 2.803,8.196 5.604,16.486c2.004,5.933 2.583,5.522 4.556,11.359c0.648,2.55 0.63,2.413 0.98,5.153l0.854,0.354c0.581,2.639 0.572,2.497 0.839,5.225c3.749,12.96 4.115,14.022 8.341,22.383l1.07,5.064l0.793,0.384c0.647,2.578 0.628,2.44 0.955,5.159l0.881,0.35c0.615,2.702 0.593,2.558 0.817,5.233c4.321,16.255 9.513,27.811 11.986,35.194l0.938,5.197c5.19,21.578 7.839,20.538 8.238,22.406c1.771,8.296 2.656,7.903 3.683,10.966l0.938,5.199c3.438,11.569 3.272,11.532 8.247,22.402l1.117,5.052l0.759,0.393c0.685,2.633 0.66,2.493 1.027,5.134l0.818,0.372c0.642,2.69 0.61,2.559 0.86,5.229c0.463,2.081 1.304,5.866 7.973,25.432c0.36,1.057 3.988,11.7 4.922,13.064c2.417,3.159 1.588,3.362 1.829,7.408c3.732,15.217 7.7,16.15 9.465,29.232c1.4,2.097 1.324,1.976 2.536,4.21c-0.278,6.541 0.518,6.358 2.073,12.68c3.609,14.672 4.691,14.945 5.735,14.29c1.424,-0.893 1.547,-2.564 -1.599,-18.139l-1.308,-5.531l-0.926,-9.096c-2.657,-4.184 -1.669,-4.339 -1.796,-9.225c-1.037,-35.336 -7.65,-63.943 -10.076,-88.398c-0.992,-3.582 -0.723,-3.449 -1.03,-7.105l-0.108,-7.276c-3.069,-4.585 -1.448,-5.019 -1.647,-9.258c-0.955,-31.938 -7.775,-65.808 -10.076,-88.397c-0.989,-3.588 -0.727,-3.508 -1.027,-7.102l-0.1,-7.282c-3.155,-4.569 -1.488,-4.944 -1.702,-9.253l0.071,-3.664c-2.303,-6.33 -1.644,-6.302 -1.758,-12.872c-1.506,-41.305 -7.536,-52.592 -9.491,-88.08c-3.067,-4.594 -1.459,-5.04 -1.677,-9.258l0.058,-3.662c-2.243,-6.296 -1.621,-6.252 -1.758,-12.873c-1.146,-29.848 -6.438,-55.038 -8.325,-73.697c-0.729,-2.71 -0.673,-2.574 -1.015,-5.267l-0.827,-9.432c-1.03,-3.583 -0.739,-3.451 -1.024,-7.103l0.068,-5.499c-2.18,-6.248 -1.898,-6.216 -1.741,-12.874c-0.134,-22.065 -6.481,-52.895 -8.314,-73.697c-0.722,-2.696 -0.668,-2.56 -1.02,-5.268l-0.824,-9.433c-1.015,-3.583 -0.73,-3.45 -1.02,-7.102l0.047,-5.497c-1.853,-5.396 -1.566,-5.356 -1.796,-11.037c-1.051,-34.114 -7.915,-68.171 -10.087,-90.235c-1.778,-6.223 -0.858,-6.202 -1.02,-8.941l-0.049,-7.292c-2.961,-4.035 -1.796,-4.321 -1.699,-11.079c-0.426,-15.284 -0.066,-15.218 -0.976,-20.374c-1.561,-8.843 -5.196,-40.397 -6.66,-43.588c-1.72,-3.751 -20.199,5.534 -21.823,6.35l-5.06,1.081l-0.388,0.779c-2.614,0.654 -2.475,0.632 -5.152,0.969l-0.358,0.864c-2.625,0.582 -2.482,0.575 -5.226,0.83c-6.615,1.901 -15.987,4.34 -22.374,8.365c-2.557,0.675 -2.417,0.649 -5.143,0.962c-5.029,1.958 -5.069,1.562 -5.449,1.82c-3.277,2.434 -3.48,1.565 -7.422,1.81c-1.128,0.269 -1.07,0.296 -16.488,5.551c-5.935,2.023 -5.541,2.552 -11.366,4.539l-5.118,1.056c-0.625,0.382 -0.164,0.926 -2.041,1.247c-18.87,3.238 -25.263,9.953 -36.551,11.575Zm468.936,1446.657c2.992,4.208 2.952,4.206 3.21,9.402l1.667,5.507c4.053,2.538 4.263,1.442 9.096,1.731c3.372,-0.429 20.311,-5.469 27.862,-10.26c2.581,-0.692 2.438,-0.666 5.104,-0.963c3.226,-2.356 3.412,-1.517 7.405,-1.738c26.041,-9.185 26.741,-9.293 29.17,-9.669c4.193,-3.044 4.216,-2.917 9.411,-3.17c4.114,-1.623 19.898,-5.289 27.909,-10.113c2.517,-0.669 2.392,-0.658 5.072,-1.054l0.378,-0.803c2.606,-0.613 2.468,-0.597 5.22,-0.867c2.573,-0.352 2.504,-0.471 30.966,-9.757c0.181,-0.059 0,-0 2.081,-1.163c2.62,-1.221 2.574,-0.995 5.356,-0.582c11.968,-3.588 11.966,-3.197 24.001,-6.767c3.254,-0.965 2.903,-4.55 -1.752,-3.676c-10.12,1.902 -9.801,2.982 -20.198,3.868c-0.632,0.32 -0.418,0.825 -9.195,1.824l-1.826,0.079c-7.149,2.588 -7.123,1.95 -14.702,1.787c-35.144,1.667 -47.69,6.884 -73.351,7.897c-2.745,1.054 -2.624,1.154 -5.611,1.536l-9.107,0.157c-3.651,1.579 -3.584,1.361 -7.429,1.641l-3.664,-0.059c-6.407,2.306 -6.392,1.63 -12.872,1.756c-39.165,1.504 -40.665,3.952 -39.777,7.059c2.12,7.42 4.148,6.652 5.576,16.399Zm-20.855,-166.89c2.068,1.302 6.761,2.95 7.366,3.163c13.296,0.183 1147.245,0.19 1173.492,0.002c10.331,-4.454 20.275,0.764 25.476,-3.234c0.177,-17.523 -0.669,-17.447 1.256,-34.852c0.137,-1.238 -0.083,-69.037 -0.132,-69.812c-2.276,-36.23 -0.247,-1188.82 -1.019,-1190.039c-1.173,-1.854 -1.861,-1.584 -100.818,-1.584c-158.446,-0 -168.323,1.745 -173.785,-11.656c-5.539,-13.59 -4.739,-14.003 -4.739,-187.018c0,-78.152 0.607,-80.482 -3.324,-80.635c-13.565,-0.527 -13.501,-1.247 -14.678,-1.215c-31.54,0.845 -906.954,-1.22 -908.755,1.324c-0.663,0.937 -0.017,1470.251 -0.339,1575.557Zm146.544,-321.383c0.262,-16.181 4.135,-17.64 8.088,-21.666c5.556,-5.659 5.714,-5.376 12.761,-8.916c3.823,-1.091 3.828,-0.668 12.543,-1.012l53.275,0.006l661.187,-0.004l110.21,0.001c9.495,-0.005 9.704,-1.933 18.442,1.6c16.952,0.273 16.934,-0.109 18.317,0.377c1.762,0.62 10.574,3.719 17.708,15.207c0.717,2.657 0.661,2.523 0.952,5.176l-0.007,9.229c-0.304,2.646 -0.248,2.513 -0.971,5.173c-4.441,7.119 -4.328,7.161 -4.836,7.68c-11.601,11.857 -22.91,9.664 -29.406,9.678c-63.916,0.144 -449.569,1.011 -798.948,0.174c-62.066,-0.149 -66.19,1.952 -78.325,-17.526c-0.713,-2.62 -0.669,-2.503 -0.991,-5.179Zm0.013,-475.738c0.333,-2.685 0.291,-2.57 1,-5.176c0.582,-1.135 5.244,-8.329 6.36,-9.714l2.278,-3.268c12.826,-8.048 14.031,-5.964 194.558,-5.964c689.048,-0 689.55,-0.31 694.155,2.344c0.514,0.296 0.015,0.693 0.501,0.845c0.903,0.281 0.734,0.238 1.581,0.512c4.006,2.404 3.925,2.266 7.034,5.869c4.556,7.011 4.642,6.935 5.037,7.544c0.708,2.645 0.653,2.509 0.962,5.172c-0.678,16.094 -1.443,16.473 -13.148,27.604c-2.303,1.924 -2.361,1.528 -5.372,2.292c-2.666,0.455 -2.287,1.669 -7.505,1.7c-68.618,0.396 -68.548,-0.474 -857.738,0.012c-3.656,-0.314 -3.528,-0.043 -7.107,-1.044c-0.903,-0.209 -6.016,-1.389 -11.148,-3.167l-2.274,-3.213c-6.053,-6.972 -7.272,-6.275 -8.169,-11.565c-0.909,-5.36 -0.227,-5.321 -1.005,-10.779Zm-0.001,-411.36c0.085,-9.513 -2.509,-10.214 2.794,-18.034c0.226,-0.334 1.707,-2.517 2.689,-4.265l2.181,-3.457l1.956,-1.63c15.926,-5.443 16.096,-4.43 58.664,-4.43c239.793,0 240.911,-1.168 251.816,5.762c2.862,0.89 2.901,0.967 3.692,3.896c4.498,10.997 9.187,18.384 0.062,31.487c-1.755,2.857 -1.518,2.934 -4.062,5.164c-5.908,3.851 -6.011,3.472 -12.64,6.09c-1.734,1.239 -1.52,1.508 -3.731,1.81c-0.259,0.035 -88.746,0.129 -180.036,-0.074l-27.554,0.006c-49.266,0.096 -49.333,0.802 -56.952,-1.815l-18.367,-0.001c-2.65,-0.327 -2.541,-0.273 -5.175,-1.002c-8.385,-5.12 -13.486,-12.98 -14.371,-14.343c-0.691,-2.62 -0.649,-2.504 -0.966,-5.165Zm0.003,117.548l0.002,-11.083c0.335,-2.676 0.296,-2.562 0.986,-5.163c6.397,-10.452 8.163,-12.307 21.436,-16.651c3.595,-1.177 196.929,0 385.639,-0.621c84.476,-0.278 86.136,0.461 95.565,9.556c1.419,1.644 1.398,1.501 2.098,3.562c1.191,1.846 1.149,1.701 1.626,3.812c0.149,1.924 1.494,19.297 -1.635,24.065c-1.004,2.924 -1.564,2.41 -3.679,3.892c-1.838,1.531 -5.342,4.728 -5.8,5.146c-2.304,1.948 -2.367,1.545 -5.358,2.307l-0.426,0.696c-2.634,0.713 -2.486,0.659 -5.237,1.001l-459.192,-0.007c-2.758,-0.359 -2.609,-0.305 -5.242,-1.022c-7.265,-2.487 -6.749,-3.314 -16.792,-10.332c-1.396,-1.577 -1.408,-1.401 -2.166,-3.516l-0.865,-0.481c-0.676,-2.599 -0.637,-2.485 -0.959,-5.161Zm-0.004,449.931c0.328,-2.637 0.272,-2.505 1.002,-5.176c11.103,-18.197 13.925,-15.542 21.156,-17.753c10.165,-3.109 769.024,-1.364 835.895,-1.21c36.394,0.084 42.068,3.289 49.607,9.446c1.408,1.6 1.416,1.423 2.143,3.518c6.738,10.349 2.03,24.207 1.344,25.815c-0.301,0.705 -0.761,-0.147 -0.949,0.435c-0.042,0.129 0,-0 -0.394,1.649c-0.77,2.084 -0.81,1.887 -2.29,3.341c-9.194,6.118 -9.163,9.585 -20.068,9.72c-0.333,0.004 -829.034,0.121 -855.902,-0.031c-32.019,-0.182 -31.35,-26.674 -31.545,-29.753Zm20.783,-283.489c-13.722,-4.684 -32.895,-23.283 -11.691,-45.642c0.572,-3.012 0.847,-3.121 4.014,-3.531c10.754,-4.228 11.039,-3.681 158.032,-3.681c714.693,0 714.85,-0.19 721.907,1.549c0.913,0.225 8.036,1.98 11.074,3.947c3.283,1.064 2.996,1.431 5.22,4.029c2.658,4.293 1.457,4.794 4.154,8.968c0.634,0.832 4.819,6.322 0.05,13.08c-1.301,8.497 -6.606,12.429 -13.109,18.511c-2.434,1.774 -2.442,1.362 -5.528,2.009l-0.369,0.788c-3.585,0.989 -3.508,0.706 -7.092,0.957c-107.283,-0.488 -790.807,-0.044 -859.573,0.001c-3.655,-0.28 -3.523,-0.004 -7.09,-0.985Zm886.857,459.827c-3.464,2.328 -3.344,4.756 -14.756,8.999c-1.626,0.604 -1.703,0.653 -839.292,0.642c-27.925,-0 -37.008,1.212 -47.748,-9.646c-8.713,-8.81 -9.717,-34.845 14.946,-43.401c3.603,-0.934 3.506,-0.689 7.083,-0.981c68.472,-0.212 452.209,-1.399 855.906,-0.002c2.673,0.346 2.542,0.293 5.257,1.002c3.912,0.938 5.738,0.566 18.468,8.669l2.305,3.307c0.105,0.383 0.275,0.232 2.675,4.177c0.701,2.632 0.648,2.492 0.971,5.171c-0.042,1.011 -0.402,9.711 -0.992,12.611c-0.676,3.323 -1.803,2.711 -2.647,5.964l-2.177,3.486Z" style="fill:#566b8d;fill-opacity:1;"/></g></svg>