<?xml version="1.0" encoding="UTF-8" standalone="no"?><!DOCTYPE svg PUBLIC "-//W3C//DTD SVG 1.1//EN" "http://www.w3.org/Graphics/SVG/1.1/DTD/svg11.dtd"><svg width="100%" height="100%" viewBox="0 0 2084 2084" version="1.1" xmlns="http://www.w3.org/2000/svg" xmlns:xlink="http://www.w3.org/1999/xlink" xml:space="preserve" xmlns:serif="http://www.serif.com/" style="fill-rule:evenodd;clip-rule:evenodd;stroke-linejoin:round;stroke-miterlimit:2;"><rect id="documentpile-element" x="0" y="0" width="2083.333" height="2083.333" style="fill:none;"/><g id="element"><path d="M1784.418,140.539c87.221,0 158.375,71.153 158.375,158.375l0,1485.504c0,87.221 -71.153,158.375 -158.375,158.375l-1485.504,0c-87.221,0 -158.375,-71.153 -158.375,-158.375l0,-1485.504c0,-87.221 71.153,-158.375 158.375,-158.375l1485.504,0m0,-78.039l-1485.504,0c-130.831,0 -236.414,106.042 -236.414,236.414l0,1485.504c0,130.831 106.042,236.415 236.414,236.415l1485.504,0c130.831,0 236.415,-106.042 236.415,-236.415l0,-1485.504c0,-130.831 -105.584,-236.414 -236.415,-236.414Z" style="fill:#566b8d;fill-rule:nonzero;"/></g><g id="DocumentPile"><path id="DocumentPile1" serif:id="DocumentPile" d="M336.432,573.168c0.068,-9.332 -1.261,-9.633 2.895,-17.727c0.753,-2.189 0.765,-2.244 3.125,-2.9c13.938,-6.589 15.157,-7.364 16.393,-8.149c2.243,-0.604 2.131,-0.484 4.34,-1.477c2.102,-0.503 1.988,-0.482 4.172,-0.656c1.764,-0.403 6.76,-0.345 19.296,-6.599l4.025,-0.885l0.31,-0.607c2.055,-0.542 1.945,-0.524 4.087,-0.819l0.295,-0.662c2.11,-0.508 1.996,-0.485 4.166,-0.68c4.26,-0.722 4.248,-0.657 4.6,-0.779c2.096,-0.727 24.723,-8.579 26.056,-9.498c2.609,-1.955 2.777,-1.243 5.912,-1.407c14.136,-4.26 14.515,-5.485 22.179,-8.085c4.322,-1.284 4.104,-1.986 8.54,-2.149c6.976,-2.036 6.924,-1.867 13.446,-5.147l4.024,-0.879l0.314,-0.615l4.077,-0.843l0.308,-0.626c2.13,-0.546 2.026,-0.518 4.103,-0.774l0.283,-0.696c2.118,-0.48 2.013,-0.467 4.171,-0.638c3.759,-0.544 3.78,-0.417 4.06,-0.588c3.578,-2.187 -3.287,-36.397 -4.947,-52.106c-0.554,-2.146 -0.519,-2.061 -0.794,-4.198l-0.673,-7.508c-0.79,-2.847 -0.578,-2.736 -0.827,-5.66l-0.071,-7.268c-2.064,-2.962 -2.533,-5.172 -0.025,-8.896c0.678,-9.885 1.144,-10.194 8.957,-16.337l1.542,-1.398c2.586,-1.943 2.73,-1.229 5.953,-1.331c2.803,-0.395 2.785,-0.142 35.101,-4.416c1.534,-0.203 12.508,-1.654 19.213,-2.236c2.801,-0.767 2.735,-0.572 5.66,-0.819l5.795,-0.094c3.68,-2.412 3.927,-1.149 7.373,-1.336l2.918,0.046c4.976,-1.768 4.941,-1.537 10.251,-1.397c23.749,-0.955 44.408,-5.198 58.695,-6.635c2.159,-0.575 2.053,-0.532 4.195,-0.809l7.514,-0.659c2.85,-0.808 2.752,-0.581 5.656,-0.808l4.38,0.056c4.33,-1.483 4.299,-1.249 8.79,-1.43c12.566,-0.389 12.553,0.091 14.853,-0.96c1.068,-0.488 1.094,-9.722 1.096,-10.572c0.051,-18.36 -0.079,-18.263 -0.054,-36.579c0.211,-3.142 -0.406,-3.267 1.308,-5.927c1.116,-4.191 1.114,-4.163 1.206,-4.527c0.151,-0.596 -0.415,-0.469 -0.316,-1.028c0.366,-2.065 8.216,-10.075 11.153,-10.488c13.5,-1.898 779.956,-1.027 792.963,-0.451c7.94,0.351 7.019,2.576 13.209,7.579c1.488,0.875 2.704,-0.359 4.623,4.242c3.966,4.474 6.206,5.942 6.83,6.351c1.602,1.325 1.524,1.251 3.051,2.764c3.113,3.729 2.427,4.351 7.186,7.479c1.646,1.359 1.563,1.287 3.061,2.753c1.147,1.17 1.151,1.033 1.806,2.608c3.957,4.453 6.223,5.92 6.849,6.325l1.577,1.314c1.159,1.166 1.161,1.029 1.818,2.597c3.948,4.451 6.217,5.924 6.843,6.331l1.578,1.313c1.163,1.166 1.165,1.029 1.823,2.593c3.935,4.448 6.212,5.93 6.836,6.337c1.65,1.369 1.574,1.306 3.044,2.774c3.051,3.671 2.36,4.315 7.194,7.469c1.591,1.318 1.518,1.248 3.047,2.769c3.083,3.704 2.395,4.335 7.19,7.474c1.615,1.335 1.537,1.264 3.05,2.765c3.104,3.72 2.416,4.346 7.187,7.478c1.642,1.357 1.559,1.285 3.059,2.754c1.147,1.171 1.15,1.034 1.804,2.61c3.967,4.456 6.225,5.917 6.851,6.323l1.577,1.314c1.159,1.167 1.161,1.03 1.817,2.598c3.949,4.451 6.218,5.924 6.844,6.33l1.577,1.313c1.163,1.166 1.165,1.029 1.823,2.593c3.936,4.45 6.212,5.93 6.837,6.336l1.579,1.311c1.164,1.164 1.166,1.027 1.826,2.59c3.927,4.447 6.207,5.935 6.832,6.342c1.589,1.316 1.516,1.246 3.047,2.77c3.073,3.694 2.385,4.328 7.19,7.474c1.616,1.337 1.54,1.266 3.05,2.766c3.095,3.712 2.407,4.339 7.187,7.477c1.643,1.358 1.56,1.286 3.059,2.755c1.147,1.171 1.15,1.034 1.803,2.61c3.968,4.455 6.226,5.917 6.852,6.322l1.577,1.314c1.158,1.166 1.16,1.029 1.815,2.599c3.95,4.449 6.22,5.922 6.846,6.328l1.578,1.313c1.16,1.165 1.163,1.028 1.822,2.594c3.936,4.449 6.212,5.929 6.838,6.336l1.579,1.311c1.164,1.164 1.166,1.027 1.826,2.59c3.928,4.448 6.208,5.934 6.832,6.342c1.587,1.316 1.515,1.246 3.045,2.772c3.063,3.679 2.372,4.319 7.192,7.471c1.617,1.339 1.54,1.268 3.049,2.767c3.1,3.72 2.412,4.349 7.189,7.474c1.626,1.333 1.544,1.26 3.07,2.746c1.148,1.172 1.14,1.062 1.741,2.671c7.723,8.585 7.866,8.28 8.516,9.031c2.138,2.494 1.613,2.679 1.032,6.001c1.146,19.967 0.321,1085.639 0.44,1086.78c-0.127,1.76 -0.08,1.652 -0.977,3.113c-1.066,5.675 -2.976,6.657 -4.934,8.584c-1.319,1.041 -1.179,1.062 -2.915,1.512c-9.595,4.522 -24.592,4.972 -29.292,4.42c-18.622,-2.186 -51.404,-0.529 -263.294,-1.139c-53.492,-0.154 -53.247,2.054 -71.856,3.411c-2.124,0.582 -2.009,0.538 -4.194,0.822c-3.158,0.072 -3.151,-0.432 -6.056,0.652c-2.791,0.778 -2.751,0.567 -5.652,0.775l-2.919,-0.044c-4.944,1.771 -4.909,1.551 -10.252,1.411c-26.613,0.932 -39.888,4.912 -60.157,6.628c-2.149,0.584 -2.039,0.539 -4.195,0.818l-5.794,0.118c-2.944,1.935 -3.077,1.101 -7.377,1.325l-2.917,-0.038c-4.975,1.781 -4.943,1.547 -10.252,1.406c-25.496,0.876 -54.82,6.546 -70.403,8.081c-4.912,1.419 -4.864,0.673 -7.122,0.796l-2.915,-0.03c-5.137,1.802 -5.123,1.277 -10.254,1.408c-30.241,1.006 -40.967,4.541 -51.413,8.079c-3.805,1.98 -7.836,2.154 -8.54,2.185c-9.149,2.554 -8.738,3.413 -17.788,6.597l-4.065,0.882l-0.32,0.6c-3.987,2.071 -3.938,1.991 -8.547,2.158c-4.246,0.756 -4.235,0.692 -4.586,0.816c-18.444,6.521 -20.399,7.734 -22.008,8.732c-2.007,0.521 -1.902,0.511 -4.073,0.75c-2.594,1.926 -2.762,1.232 -5.88,1.422c-1.491,0.499 -20.158,7.199 -20.417,7.38c-1.935,1.413 -1.963,1.196 -4.416,1.448c-2.558,1.906 -2.716,1.22 -5.898,1.377c-9.048,2.994 -8.764,3.52 -17.796,6.619l-4.073,0.862l-0.31,0.616c-2.025,0.51 -1.922,0.503 -4.098,0.786l-0.292,0.673c-2.136,0.47 -2.026,0.462 -4.164,0.651c-2.465,0.683 -13.012,3.466 -22.203,8.133c-2.029,0.547 -1.926,0.533 -4.055,0.802l-0.284,0.689c-2.084,0.482 -1.969,0.469 -4.177,0.629c-1.843,0.425 -14.71,3.396 -22.203,8.125c-2.271,0.612 -2.165,0.495 -4.337,1.49c-2.867,0.691 -2.745,0.52 -5.619,0.689c-14.849,4.721 -20.51,7.256 -22.236,8.029l-4.036,0.852l-0.308,0.625c-2.063,0.477 -1.962,0.472 -4.156,0.698c-1.811,0.544 -17.737,5.323 -22.209,8.091c-2.025,0.546 -1.929,0.538 -4.044,0.831l-0.299,0.65c-2.128,0.526 -2.023,0.5 -4.126,0.713c-1.988,1.46 -2.028,1.18 -4.441,1.341c-10.154,2.509 -15.101,4.996 -17.811,6.704c-2,0.544 -1.886,0.534 -4.043,0.826l-0.296,0.663c-2.109,0.535 -2.002,0.51 -4.119,0.734c-2.522,1.916 -2.679,1.237 -5.889,1.4c-0.605,0.174 -6.439,1.849 -7.541,2.241c-13.717,4.878 -13.454,5.415 -14.648,5.821l-4.091,0.811l-0.299,0.649c-2.088,0.473 -2.001,0.472 -4.153,0.694c-13.459,3.649 -17.585,6.018 -23.639,8.086c-2.898,0.6 -2.8,0.445 -5.643,0.603l-2.931,-0.006c-2.16,-0.201 -2.054,-0.183 -4.167,-0.618l-0.332,-0.568c-2.319,-0.558 -2.381,-0.188 -4.297,-1.79c-0.476,-0.461 -1.251,-1.213 -5.856,-5.854c-2.029,-1.884 -2.955,-1.618 -3.221,-7.253c-0.556,-1.295 -4.035,-9.391 -6.467,-16.383c-0.562,-2.089 -0.541,-1.978 -0.872,-4.072l-0.615,-0.308c-0.55,-2.114 -0.523,-2.009 -0.788,-4.099l-0.689,-0.285c-0.483,-2.103 -0.47,-1.994 -0.644,-4.172c-2.491,-13.714 -6.052,-12.691 -7.71,-24.688c-0.866,-1.111 -3.514,-2.692 -3.844,-2.89l-1.434,-0.023c-4.941,1.775 -4.907,1.552 -10.253,1.402c-14.787,0.509 -14.617,0.847 -29.247,2.892c-23.383,3.27 -26.114,-8.571 -30.254,-14.979c-0.775,-2.753 -0.538,-2.682 -0.664,-5.609c-0.909,-27.162 -6.566,-55.529 -8.035,-73.334c-0.583,-2.136 -0.538,-2.024 -0.817,-4.192l-0.084,-5.802c-2.515,-3.636 -1.181,-3.921 -1.345,-7.369c-0.776,-29.719 -6.293,-51.874 -8,-71.866c-0.786,-2.846 -0.576,-2.735 -0.827,-5.659l-0.085,-5.798c-2.471,-3.647 -1.167,-3.996 -1.33,-7.371l0.045,-2.917c-1.795,-5.003 -1.297,-4.968 -1.396,-10.252c-0.965,-25.135 -4.953,-41.838 -6.645,-58.697c-0.581,-2.138 -0.537,-2.025 -0.816,-4.193l-0.113,-7.259c-1.94,-2.942 -1.103,-3.076 -1.325,-7.374l0.039,-2.918c-1.771,-5.015 -1.28,-4.978 -1.389,-10.252c-0.459,-12.253 -1.201,-28.924 -6.672,-41.206c-0.555,-2.067 -0.528,-1.96 -0.771,-4.099c-0.54,-1.37 -1.966,-5.621 -2.131,-6.112l-0.757,-4.127c-4.363,-13.483 -4.979,-13.177 -9.485,-26.59l-0.73,-4.144c-4.072,-13.665 -5.04,-13.18 -9.521,-26.571c-0.514,-2.142 -0.489,-2.036 -0.716,-4.152c-0.488,-1.827 -3.534,-13.221 -8.063,-22.219c-0.54,-2.009 -0.528,-1.895 -0.834,-4.041l-0.648,-0.297c-0.515,-2.161 -0.489,-2.055 -0.687,-4.162c-0.305,-1.18 -1.508,-5.836 -4.593,-14.527c-5.302,-14.936 -4.904,-15.008 -5.687,-16.13c-1.925,-2.513 -1.262,-2.673 -1.442,-5.904c-1.516,-6.152 -2.066,-5.843 -4.079,-11.778c-0.286,-0.844 -0.68,-0.676 -3.984,-10.405c-1.309,-4.331 -1.999,-4.105 -2.128,-8.547c-2.304,-7.879 -3.536,-11.654 -6.634,-17.828l-0.872,-4.027l-0.618,-0.313c-2.117,-4.043 -2.025,-3.997 -2.132,-8.551c-0.106,-0.466 0.012,-0.964 -0.094,-1.43c-0.344,-1.51 -8.352,-24.202 -8.772,-24.824c-1.919,-2.596 -1.24,-2.75 -1.438,-5.914c-0.227,-0.972 -0.253,-0.926 -4.384,-13.141c-1.579,-4.667 -2.045,-4.389 -3.64,-9.048c-1.974,-3.805 -2.145,-7.834 -2.174,-8.538c-2.009,-8.73 -5.909,-16.475 -6.593,-17.833l-0.879,-4.025l-0.613,-0.313c-0.54,-2.076 -0.521,-1.966 -0.812,-4.089l-0.654,-0.298c-0.505,-2.091 -0.484,-1.976 -0.682,-4.165c-1.501,-8.608 -7.679,-23.574 -9.565,-26.591c-0.531,-2.012 -0.516,-1.901 -0.754,-4.073c-1.916,-2.558 -1.226,-2.719 -1.392,-5.889c-3.695,-11.318 -4.26,-11.012 -8.053,-22.197c-1.274,-4.325 -1.982,-4.102 -2.161,-8.53c-2.761,-6.826 -1.901,-7.009 -5.146,-13.455c-0.53,-2.02 -0.513,-1.911 -0.812,-4.078c-1.398,-4.111 -1.671,-3.929 -2.137,-4.687c-0.542,-2.064 -0.525,-1.963 -0.79,-4.056l-0.689,-0.286c-0.464,-2.075 -0.46,-1.958 -0.64,-4.169c-0.638,-2.123 -7.12,-23.708 -8.894,-26.249c-1.913,-2.607 -1.228,-2.76 -1.409,-5.913c-1.578,-4.958 -8.689,-24.589 -8.845,-24.799c-1.948,-2.613 -1.231,-2.748 -1.379,-5.936c-5.014,-17.648 -8.511,-24.584 -9.529,-26.603c-0.507,-2.088 -0.493,-1.986 -0.702,-4.115c-0.569,-2.188 -5.085,-19.547 -9.567,-26.593c-0.533,-2.019 -0.516,-1.907 -0.734,-4.075c-1.868,-2.508 -1.226,-2.653 -1.412,-5.885c-0.552,-1.647 -6.352,-18.942 -7.42,-20.403c-1.469,-1.989 -1.216,-2.03 -1.474,-4.408c-1.947,-2.622 -1.197,-2.766 -1.299,-5.928c-0.512,-1.821 -4.628,-16.47 -8.111,-22.21c-0.53,-2.013 -0.524,-1.913 -0.808,-4.05l-0.666,-0.294c-0.47,-2.116 -0.463,-2.004 -0.654,-4.163c-0.49,-1.827 -4.35,-16.213 -8.129,-22.206c-0.601,-2.254 -0.48,-2.146 -1.482,-4.34c-0.477,-2.08 -0.465,-1.965 -0.624,-4.176c-2.244,-9.606 -6.693,-19.479 -8.11,-23.633l-0.841,-4.08l-0.621,-0.309l-0.699,-4.152c-0.505,-1.822 -4.501,-16.247 -8.078,-22.216c-0.541,-2.001 -0.53,-1.887 -0.842,-4.043l-0.646,-0.298c-0.484,-2.056 -0.474,-1.949 -0.678,-4.164c-1.322,-5.141 -3.048,-12.294 -8.085,-22.213c-0.543,-1.999 -0.532,-1.885 -0.83,-4.043l-0.66,-0.294c-0.506,-2.035 -0.494,-1.928 -0.719,-4.123c-1.866,-2.513 -1.229,-2.659 -1.434,-5.881c-3.71,-11.269 -4.23,-10.93 -8.041,-22.194l-0.801,-4.093l-0.647,-0.302l-0.717,-4.144c-0.341,-1.38 -0.145,-1.357 -0.779,-3.152c-6.274,-17.769 -6.789,-17.476 -7.316,-19.018c-0.529,-2.104 -0.51,-1.992 -0.779,-4.103l-0.681,-0.289c-0.468,-2.095 -0.462,-1.981 -0.675,-4.159c-4.415,-15.117 -6.233,-15.908 -8.074,-23.628c-0.566,-2.138 -0.522,-2.028 -0.771,-4.176Zm51.52,7.598c-0.108,0.1 -0.21,0.859 -1.419,1.322c-0.872,0.333 -0.468,0.649 -1.011,1.402c0.957,3.533 0.923,3.394 1.036,7.194c0.65,2.166 6.547,21.802 9.575,26.595c0.498,2.052 0.488,1.943 0.666,4.123c0.403,1.538 1.459,5.575 6.087,18.914c2.332,6.72 2.413,6.832 2.784,7.339c1.918,2.555 1.242,2.698 1.413,5.911c3.993,12.665 4.837,12.347 5.086,13.472c1.353,6.123 1.996,5.833 2.976,8.719c2.08,4 1.991,3.953 2.155,8.545c0.574,2.187 5.098,19.409 9.553,26.596c0.516,2.045 0.496,1.93 0.695,4.123c0.356,1.645 0.188,1.564 0.685,3.167c5.752,18.518 7.8,21.733 8.876,23.423c0.542,2.032 0.523,1.919 0.752,4.072c1.928,2.567 1.227,2.733 1.384,5.894c6.317,19.344 7.086,20.612 8.068,22.23c0.529,2.043 0.521,1.949 0.797,4.053l0.672,0.292l0.65,4.162c0.508,1.823 4.617,16.575 8.132,22.208c0.536,2.017 0.523,1.913 0.786,4.06l0.703,0.278c0.48,2.087 0.468,1.972 0.619,4.176c1.337,5.674 5.241,17.584 8.153,22.197c0.541,1.998 0.53,1.893 0.789,4.058c1.86,2.54 1.202,2.707 1.361,5.906c4.655,16.534 7.079,20.607 8.046,22.232l0.854,4.035l0.625,0.306c0.505,2.166 0.485,2.052 0.696,4.155c0.491,1.826 4.371,16.269 8.086,22.215c0.538,2.006 0.527,1.892 0.816,4.047l0.666,0.293c0.5,2.124 0.477,2.011 0.658,4.169c1.329,5.864 5.212,17.605 8.126,22.199c1.552,5.663 1.917,5.469 2.204,9.926l0.66,0.291l0.712,4.148c1.718,6.833 2.233,6.528 4.463,13.13c1.596,4.725 2.057,4.398 3.628,9.047c0.516,2.031 0.502,1.922 0.78,4.104l0.68,0.282c0.463,2.102 0.456,1.988 0.668,4.162c2.986,10.322 3.278,11.168 6.643,17.827l0.852,4.033l0.631,0.305c0.515,2.053 0.5,1.944 0.761,4.109l0.702,0.279c0.49,2.152 0.472,2.037 0.651,4.168c3.442,12.946 7.576,22.15 9.547,28.03l0.747,4.139c4.134,17.186 6.244,16.357 6.561,17.845c1.41,6.607 2.115,6.295 2.934,8.733l0.747,4.141c2.738,9.214 2.606,9.184 6.568,17.842l0.89,4.024l0.604,0.313c0.546,2.097 0.526,1.986 0.818,4.089l0.652,0.296c0.511,2.143 0.486,2.038 0.685,4.164c0.369,1.658 1.039,4.672 6.35,20.255c0.287,0.842 3.176,9.319 3.92,10.405c1.925,2.516 1.265,2.677 1.456,5.9c2.972,12.12 6.132,12.862 7.538,23.282c1.115,1.67 1.054,1.574 2.02,3.353c-0.222,5.209 0.412,5.064 1.651,10.099c2.875,11.685 3.737,11.903 4.568,11.382c1.134,-0.711 1.232,-2.042 -1.274,-14.447l-1.042,-4.405l-0.738,-7.244c-2.117,-3.332 -1.329,-3.456 -1.43,-7.347c-0.826,-28.143 -6.093,-50.927 -8.025,-70.404c-0.79,-2.852 -0.576,-2.747 -0.82,-5.658l-0.086,-5.795c-2.444,-3.651 -1.154,-3.997 -1.311,-7.374c-0.761,-25.437 -6.193,-52.412 -8.025,-70.403c-0.788,-2.858 -0.579,-2.794 -0.818,-5.657l-0.08,-5.8c-2.513,-3.639 -1.185,-3.938 -1.355,-7.369l0.057,-2.918c-1.834,-5.041 -1.31,-5.019 -1.4,-10.252c-1.199,-32.897 -6.002,-41.886 -7.559,-70.15c-2.443,-3.659 -1.162,-4.014 -1.336,-7.373l0.047,-2.917c-1.786,-5.014 -1.291,-4.979 -1.4,-10.252c-0.913,-23.772 -5.128,-43.834 -6.63,-58.695c-0.581,-2.159 -0.536,-2.05 -0.808,-4.195l-0.658,-7.512c-0.821,-2.854 -0.588,-2.749 -0.816,-5.657l0.054,-4.38c-1.736,-4.976 -1.511,-4.951 -1.387,-10.253c-0.106,-17.574 -5.162,-42.128 -6.622,-58.696c-0.575,-2.147 -0.532,-2.039 -0.812,-4.196l-0.657,-7.513c-0.808,-2.853 -0.582,-2.747 -0.812,-5.656l0.038,-4.378c-1.476,-4.298 -1.248,-4.266 -1.431,-8.79c-0.837,-27.17 -6.304,-54.294 -8.034,-71.867c-1.416,-4.956 -0.683,-4.94 -0.812,-7.121l-0.039,-5.808c-2.358,-3.214 -1.431,-3.441 -1.353,-8.824c-0.34,-12.173 -0.052,-12.12 -0.777,-16.227c-1.243,-7.043 -4.139,-32.174 -5.304,-34.715c-1.37,-2.988 -16.087,4.408 -17.381,5.058l-4.03,0.861l-0.309,0.62c-2.082,0.521 -1.971,0.504 -4.104,0.772l-0.285,0.688c-2.091,0.463 -1.977,0.458 -4.162,0.661c-5.269,1.514 -12.733,3.456 -17.819,6.662c-2.036,0.538 -1.925,0.517 -4.096,0.766c-4.005,1.56 -4.037,1.244 -4.34,1.45c-2.61,1.938 -2.771,1.246 -5.911,1.441c-0.899,0.214 -0.852,0.236 -13.132,4.421c-4.727,1.611 -4.413,2.032 -9.052,3.615l-4.076,0.841c-0.498,0.304 -0.131,0.737 -1.625,0.994c-15.029,2.579 -20.12,7.927 -29.111,9.219Zm373.48,1152.179c2.383,3.351 2.351,3.35 2.557,7.488l1.328,4.386c3.228,2.021 3.395,1.149 7.245,1.379c2.686,-0.342 16.176,-4.356 22.191,-8.171c2.055,-0.551 1.941,-0.53 4.065,-0.767c2.569,-1.876 2.718,-1.208 5.898,-1.384c20.741,-7.315 21.297,-7.401 23.232,-7.701c3.34,-2.424 3.358,-2.323 7.495,-2.525c3.277,-1.292 15.848,-4.213 22.228,-8.055c2.005,-0.533 1.905,-0.524 4.04,-0.84l0.301,-0.64c2.076,-0.488 1.966,-0.476 4.157,-0.69c2.05,-0.28 1.994,-0.375 24.662,-7.771c0.144,-0.047 0,-0 1.657,-0.926c2.086,-0.972 2.05,-0.793 4.266,-0.464c9.532,-2.857 9.53,-2.546 19.115,-5.39c2.591,-0.769 2.312,-3.624 -1.395,-2.927c-8.06,1.515 -7.806,2.375 -16.086,3.08c-0.503,0.255 -0.333,0.657 -7.323,1.453l-1.454,0.063c-5.694,2.061 -5.673,1.553 -11.709,1.423c-27.99,1.328 -37.983,5.483 -58.42,6.289c-2.186,0.839 -2.09,0.919 -4.469,1.223l-7.253,0.125c-2.908,1.258 -2.855,1.084 -5.917,1.307l-2.918,-0.047c-5.103,1.836 -5.09,1.299 -10.252,1.398c-31.193,1.198 -32.387,3.147 -31.68,5.622c1.688,5.91 3.303,5.298 4.441,13.061Zm-16.61,-132.918c1.647,1.037 5.385,2.35 5.866,2.519c10.59,0.146 913.715,0.151 934.619,0.001c8.228,-3.547 16.148,0.609 20.29,-2.576c0.141,-13.956 -0.533,-13.896 1,-27.758c0.109,-0.986 -0.066,-54.984 -0.105,-55.601c-1.813,-28.855 -0.197,-946.826 -0.811,-947.798c-0.934,-1.477 -1.482,-1.262 -80.296,-1.262c-126.193,-0 -134.06,1.39 -138.41,-9.283c-4.412,-10.824 -3.775,-11.153 -3.775,-148.949c0,-62.244 0.484,-64.099 -2.647,-64.221c-10.804,-0.42 -10.752,-0.993 -11.691,-0.968c-25.12,0.673 -722.336,-0.972 -723.771,1.055c-0.528,0.746 -0.014,1170.97 -0.27,1254.84Zm116.714,-255.963c0.208,-12.887 3.294,-14.049 6.442,-17.256c4.425,-4.507 4.551,-4.282 10.164,-7.101c3.045,-0.869 3.049,-0.532 9.99,-0.806l42.431,0.005l526.598,-0.003l87.776,0.001c7.562,-0.004 7.728,-1.539 14.688,1.275c13.501,0.217 13.487,-0.087 14.588,0.301c1.403,0.494 8.421,2.962 14.104,12.111c0.571,2.116 0.526,2.01 0.758,4.123l-0.005,7.351c-0.242,2.108 -0.197,2.002 -0.774,4.12c-3.537,5.67 -3.447,5.703 -3.852,6.116c-9.24,9.444 -18.246,7.697 -23.42,7.708c-50.905,0.114 -358.055,0.805 -636.316,0.138c-49.432,-0.118 -52.717,1.555 -62.381,-13.958c-0.568,-2.087 -0.533,-1.994 -0.789,-4.125Zm0.01,-378.898c0.265,-2.139 0.232,-2.047 0.797,-4.122c0.463,-0.904 4.176,-6.634 5.065,-7.737l1.814,-2.603c10.215,-6.41 11.175,-4.75 154.954,-4.75c548.787,-0 549.187,-0.247 552.854,1.867c0.409,0.236 0.012,0.552 0.399,0.673c0.719,0.224 0.584,0.189 1.259,0.408c3.19,1.914 3.126,1.805 5.602,4.674c3.629,5.584 3.697,5.523 4.011,6.008c0.563,2.107 0.52,1.998 0.766,4.119c-0.54,12.818 -1.15,13.12 -10.472,21.985c-1.835,1.533 -1.88,1.217 -4.278,1.825c-2.123,0.362 -1.822,1.33 -5.977,1.354c-54.65,0.315 -54.594,-0.378 -683.139,0.009c-2.912,-0.25 -2.809,-0.035 -5.66,-0.832c-0.719,-0.166 -4.791,-1.106 -8.879,-2.522l-1.811,-2.559c-4.821,-5.553 -5.792,-4.998 -6.506,-9.211c-0.724,-4.269 -0.181,-4.238 -0.8,-8.585Zm-0.001,-327.625c0.068,-7.577 -1.998,-8.134 2.225,-14.363c0.18,-0.266 1.359,-2.005 2.142,-3.396l1.737,-2.753l1.557,-1.298c12.684,-4.335 12.82,-3.528 46.723,-3.528c190.981,0 191.872,-0.93 200.557,4.589c2.28,0.709 2.31,0.77 2.941,3.103c3.582,8.758 7.317,14.642 0.049,25.077c-1.398,2.275 -1.209,2.336 -3.235,4.113c-4.706,3.067 -4.787,2.766 -10.067,4.85c-1.381,0.986 -1.211,1.201 -2.972,1.441c-0.206,0.028 -70.681,0.102 -143.388,-0.059l-21.945,0.005c-39.237,0.077 -39.291,0.639 -45.359,-1.445l-14.629,-0.001c-2.111,-0.26 -2.024,-0.218 -4.122,-0.798c-6.678,-4.078 -10.741,-10.338 -11.445,-11.423c-0.55,-2.086 -0.517,-1.994 -0.769,-4.113Zm0.002,93.62l0.002,-8.827c0.267,-2.131 0.235,-2.04 0.786,-4.112c5.095,-8.325 6.501,-9.801 17.072,-13.262c2.863,-0.937 156.842,0 307.139,-0.495c67.28,-0.221 68.602,0.367 76.112,7.611c1.13,1.31 1.113,1.195 1.671,2.837c0.949,1.47 0.915,1.354 1.295,3.036c0.119,1.532 1.19,15.369 -1.302,19.166c-0.8,2.329 -1.246,1.919 -2.93,3.1c-1.464,1.219 -4.255,3.766 -4.619,4.099c-1.835,1.552 -1.886,1.231 -4.267,1.838l-0.34,0.554c-2.098,0.568 -1.98,0.525 -4.171,0.798l-365.72,-0.005c-2.196,-0.286 -2.078,-0.243 -4.175,-0.814c-5.786,-1.98 -5.375,-2.64 -13.374,-8.229c-1.112,-1.256 -1.122,-1.116 -1.725,-2.8l-0.689,-0.383c-0.538,-2.07 -0.507,-1.979 -0.764,-4.11Zm-0.003,358.344c0.261,-2.1 0.217,-1.995 0.798,-4.123c8.843,-14.493 11.09,-12.378 16.849,-14.14c8.096,-2.476 612.483,-1.086 665.742,-0.964c28.986,0.067 33.505,2.619 39.509,7.524c1.121,1.274 1.128,1.133 1.707,2.802c5.366,8.242 1.617,19.279 1.07,20.56c-0.24,0.562 -0.606,-0.117 -0.756,0.347c-0.033,0.103 0,-0 -0.314,1.314c-0.613,1.66 -0.645,1.503 -1.824,2.661c-7.322,4.873 -7.298,7.634 -15.983,7.742c-0.266,0.003 -660.278,0.096 -681.676,-0.025c-25.502,-0.145 -24.969,-21.244 -25.124,-23.697Zm16.552,-225.782c-10.928,-3.731 -26.199,-18.543 -9.311,-36.351c0.456,-2.398 0.674,-2.486 3.197,-2.812c8.565,-3.367 8.792,-2.932 125.864,-2.932c569.212,0 569.337,-0.151 574.958,1.234c0.727,0.179 6.4,1.577 8.82,3.143c2.615,0.847 2.386,1.139 4.157,3.209c2.117,3.419 1.16,3.818 3.308,7.142c0.505,0.663 3.838,5.035 0.04,10.417c-1.037,6.767 -5.261,9.899 -10.44,14.743c-1.939,1.413 -1.945,1.085 -4.403,1.6l-0.294,0.628c-2.856,0.788 -2.794,0.562 -5.649,0.762c-85.445,-0.389 -629.832,-0.035 -684.6,0c-2.911,-0.223 -2.806,-0.003 -5.647,-0.784Zm706.331,366.225c-2.758,1.854 -2.663,3.788 -11.753,7.167c-1.295,0.481 -1.356,0.52 -668.447,0.511c-22.241,-0 -29.475,0.965 -38.028,-7.683c-6.94,-7.016 -7.739,-27.752 11.904,-34.566c2.87,-0.744 2.793,-0.549 5.641,-0.781c54.534,-0.169 360.158,-1.114 681.68,-0.002c2.129,0.276 2.024,0.233 4.187,0.798c3.116,0.747 4.57,0.451 14.709,6.905l1.836,2.634c0.084,0.305 0.219,0.184 2.13,3.327c0.559,2.096 0.516,1.985 0.774,4.118c-0.033,0.805 -0.32,7.734 -0.79,10.044c-0.539,2.646 -1.436,2.159 -2.108,4.75l-1.734,2.777Z" style="fill:#566b8d;fill-opacity:1;"/></g></svg>