<?xml version="1.0" encoding="UTF-8" standalone="no"?><!DOCTYPE svg PUBLIC "-//W3C//DTD SVG 1.1//EN" "http://www.w3.org/Graphics/SVG/1.1/DTD/svg11.dtd"><svg width="100%" height="100%" viewBox="0 0 2084 2084" version="1.1" xmlns="http://www.w3.org/2000/svg" xmlns:xlink="http://www.w3.org/1999/xlink" xml:space="preserve" xmlns:serif="http://www.serif.com/" style="fill-rule:evenodd;clip-rule:evenodd;stroke-linejoin:round;stroke-miterlimit:2;"><rect id="doubleimage-admin" x="0" y="0" width="2083.333" height="2083.333" style="fill:none;"/><g id="DoubleImage"><g id="Image"><path d="M431.948,898.229l-235.836,408.314l472.553,0l-236.716,-408.314Z" style="fill:#566b8d;fill-rule:nonzero;"/><path d="M721.457,1025.82l-197.117,280.716l395.113,0l-197.996,-280.716Z" style="fill:#566b8d;fill-rule:nonzero;"/><circle cx="660.74" cy="837.51" r="60.72" style="fill:#566b8d;"/></g><g id="Image1" serif:id="Image"><path d="M1399.717,898.229l-235.836,408.314l472.553,0l-236.716,-408.314Z" style="fill:#566b8d;fill-rule:nonzero;"/><path d="M1689.226,1025.82l-197.117,280.716l395.113,0l-197.996,-280.716Z" style="fill:#566b8d;fill-rule:nonzero;"/><circle cx="1628.509" cy="837.51" r="60.72" style="fill:#566b8d;"/></g><path d="M160.782,244.994c0,-41.218 27.828,-73.276 61.412,-73.276l671.175,0c34.544,0 61.412,33.204 61.412,73.276l-0,1593.344c0,41.218 -27.827,73.277 -61.412,73.277l-671.175,-0c-34.544,0 -61.412,-33.204 -61.412,-73.277l0,-1593.344m-56.616,0l-0,1593.344c0,77.857 53.737,140.829 118.028,140.829l671.175,0c65.251,0 118.028,-64.118 118.028,-140.829l0,-1593.344c0,-77.855 -53.737,-140.827 -118.028,-140.827l-671.175,-0c-64.291,0 -118.028,62.972 -118.028,140.827Z" style="fill:#566b8d;fill-rule:nonzero;"/><path d="M1128.551,244.994c0,-41.218 27.828,-73.276 61.412,-73.276l671.175,0c34.544,0 61.412,33.204 61.412,73.276l-0,1593.344c0,41.218 -27.827,73.277 -61.412,73.277l-671.175,-0c-34.544,0 -61.412,-33.204 -61.412,-73.277l0,-1593.344m-56.616,0l0,1593.344c0,77.857 53.737,140.829 118.028,140.829l671.175,0c65.251,0 118.028,-64.118 118.028,-140.829l0,-1593.344c0,-77.855 -53.737,-140.827 -118.028,-140.827l-671.175,-0c-64.291,0 -118.028,62.972 -118.028,140.827Z" style="fill:#566b8d;fill-rule:nonzero;"/></g></svg>