<?xml version="1.0" encoding="UTF-8" standalone="no"?><!DOCTYPE svg PUBLIC "-//W3C//DTD SVG 1.1//EN" "http://www.w3.org/Graphics/SVG/1.1/DTD/svg11.dtd"><svg width="100%" height="100%" viewBox="0 0 2084 2084" version="1.1" xmlns="http://www.w3.org/2000/svg" xmlns:xlink="http://www.w3.org/1999/xlink" xml:space="preserve" xmlns:serif="http://www.serif.com/" style="fill-rule:evenodd;clip-rule:evenodd;stroke-linejoin:round;stroke-miterlimit:2;"><rect id="download-element" x="0" y="0" width="2083.333" height="2083.333" style="fill:none;"/><g id="element"><path d="M1784.418,140.539c87.221,0 158.375,71.153 158.375,158.375l0,1485.504c0,87.221 -71.153,158.375 -158.375,158.375l-1485.504,0c-87.221,0 -158.375,-71.153 -158.375,-158.375l0,-1485.504c0,-87.221 71.153,-158.375 158.375,-158.375l1485.504,0m0,-78.039l-1485.504,0c-130.831,0 -236.414,106.042 -236.414,236.414l0,1485.504c0,130.831 106.042,236.415 236.414,236.415l1485.504,0c130.831,0 236.415,-106.042 236.415,-236.415l0,-1485.504c0,-130.831 -105.584,-236.414 -236.415,-236.414Z" style="fill:#566b8d;fill-rule:nonzero;"/></g><g id="Download"><path id="Download1" serif:id="Download" d="M330.72,1450.756c0,-38.427 31.198,-69.624 69.624,-69.624c38.427,0 69.624,31.198 69.624,69.624l0,201.662l1143.397,0l0,-201.662c-0,-38.427 31.198,-69.624 69.624,-69.624c38.427,-0 69.624,31.198 69.624,69.624l0,271.287c-0,38.452 -31.172,69.624 -69.624,69.624l-1282.645,0c-38.452,-0 -69.624,-31.172 -69.624,-69.624l0,-271.287Zm905.533,-426.886l247.466,0l-442.052,506.22l-442.052,-506.22l247.466,0l0,-732.203l389.172,0l0,732.203Z" style="fill:#586c8d;"/></g></svg>