<?xml version="1.0" encoding="UTF-8" standalone="no"?><!DOCTYPE svg PUBLIC "-//W3C//DTD SVG 1.1//EN" "http://www.w3.org/Graphics/SVG/1.1/DTD/svg11.dtd"><svg width="100%" height="100%" viewBox="0 0 2084 2084" version="1.1" xmlns="http://www.w3.org/2000/svg" xmlns:xlink="http://www.w3.org/1999/xlink" xml:space="preserve" xmlns:serif="http://www.serif.com/" style="fill-rule:evenodd;clip-rule:evenodd;stroke-linejoin:round;stroke-miterlimit:2;"><rect id="download-admin" x="0" y="0" width="2083.333" height="2083.333" style="fill:none;"/><g id="Download"><path id="Download1" serif:id="Download" d="M152.983,1553.028c0,-48.033 38.997,-87.03 87.03,-87.03c48.033,0 87.03,38.997 87.03,87.03l0,252.078l1429.246,0l0,-252.078c-0,-48.033 38.997,-87.03 87.03,-87.03c48.033,-0 87.03,38.997 87.03,87.03l0,339.108c-0,48.066 -38.965,87.03 -87.03,87.03l-1603.306,0c-48.066,-0 -87.03,-38.965 -87.03,-87.03l0,-339.108Zm1131.916,-533.607l309.332,0l-552.565,632.775l-552.565,-632.775l309.332,0l0,-915.254l486.465,0l0,915.254Z" style="fill:#586c8d;"/></g></svg>