<?xml version="1.0" encoding="UTF-8" standalone="no"?><!DOCTYPE svg PUBLIC "-//W3C//DTD SVG 1.1//EN" "http://www.w3.org/Graphics/SVG/1.1/DTD/svg11.dtd"><svg width="100%" height="100%" viewBox="0 0 2084 2084" version="1.1" xmlns="http://www.w3.org/2000/svg" xmlns:xlink="http://www.w3.org/1999/xlink" xml:space="preserve" xmlns:serif="http://www.serif.com/" style="fill-rule:evenodd;clip-rule:evenodd;stroke-linejoin:round;stroke-miterlimit:2;"><rect id="download-page" x="0" y="0" width="2083.333" height="2083.333" style="fill:none;"/><clipPath id="_clip1"><rect x="0" y="0" width="2083.333" height="2083.333"/></clipPath><g clip-path="url(#_clip1)"><g id="page"><path d="M1796.35,372.543c8.271,8.293 12.916,19.527 12.916,31.24c0,164.411 0,1387.535 0,1636.72c0,11.733 -4.661,22.985 -12.957,31.281c-8.296,8.296 -19.548,12.957 -31.281,12.957c-223.172,0 -1223.551,0 -1446.723,0c-11.733,-0 -22.985,-4.661 -31.281,-12.957c-8.296,-8.296 -12.957,-19.548 -12.957,-31.281l0,-1996.265c-0,-11.733 4.661,-22.985 12.957,-31.281c8.296,-8.296 19.548,-12.957 31.281,-12.957c193.261,0 959.525,0 1088.117,0c11.753,0 23.022,4.677 31.322,12.998c58.779,58.933 299.926,300.711 358.606,359.545Zm-480.642,-296.991c0,-0 -732.513,-0 -921.851,-0c-11.733,0 -22.985,4.661 -31.281,12.957c-8.296,8.296 -12.957,19.548 -12.957,31.281c-0,259.863 -0,1585.297 -0,1845.161c-0,11.733 4.661,22.985 12.957,31.281c8.296,8.296 19.548,12.957 31.281,12.957c208.033,0 1087.585,0 1295.618,0c24.432,-0 44.238,-19.806 44.238,-44.238c0,-250.136 0,-1476.131 0,-1476.131c0,-0 -266.253,-0 -373.767,0c-24.432,0 -44.238,-19.806 -44.238,-44.238c0,-106.619 0,-369.03 -0,-369.03Zm76.77,0l-1.217,-0c0,-0 0,201.894 0,293.477c0,24.432 19.806,44.238 44.238,44.238l294.695,-0l-337.715,-337.715Z" style="fill:#566b8d;"/></g><g id="Download"><path id="Download1" serif:id="Download" d="M488.708,1637.034c0,-29.887 24.265,-54.152 54.152,-54.152c29.887,0 54.152,24.265 54.152,54.152l0,156.849l889.308,0l0,-156.849c-0,-29.887 24.265,-54.152 54.152,-54.152c29.887,-0 54.152,24.265 54.152,54.152l0,211.001c-0,29.907 -24.245,54.152 -54.152,54.152l-997.613,0c-29.907,-0 -54.152,-24.245 -54.152,-54.152l0,-211.001Zm704.303,-332.022l192.473,0l-343.818,393.727l-343.818,-393.727l192.473,0l0,-569.491l302.689,0l0,569.491Z" style="fill:#586c8d;"/></g></g></svg>