<?xml version="1.0" encoding="UTF-8" standalone="no"?><!DOCTYPE svg PUBLIC "-//W3C//DTD SVG 1.1//EN" "http://www.w3.org/Graphics/SVG/1.1/DTD/svg11.dtd"><svg width="100%" height="100%" viewBox="0 0 2084 2084" version="1.1" xmlns="http://www.w3.org/2000/svg" xmlns:xlink="http://www.w3.org/1999/xlink" xml:space="preserve" xmlns:serif="http://www.serif.com/" style="fill-rule:evenodd;clip-rule:evenodd;stroke-linejoin:round;stroke-miterlimit:2;"><rect id="footnote-element" x="0" y="0" width="2083.333" height="2083.333" style="fill:none;"/><g id="element"><path d="M1784.418,140.539c87.221,0 158.375,71.153 158.375,158.375l0,1485.504c0,87.221 -71.153,158.375 -158.375,158.375l-1485.504,0c-87.221,0 -158.375,-71.153 -158.375,-158.375l0,-1485.504c0,-87.221 71.153,-158.375 158.375,-158.375l1485.504,0m0,-78.039l-1485.504,0c-130.831,0 -236.414,106.042 -236.414,236.414l0,1485.504c0,130.831 106.042,236.415 236.414,236.415l1485.504,0c130.831,0 236.415,-106.042 236.415,-236.415l0,-1485.504c0,-130.831 -105.584,-236.414 -236.415,-236.414Z" style="fill:#566b8d;fill-rule:nonzero;"/></g><g id="Footnote"><path id="Footnote1" serif:id="Footnote" d="M444.755,1554.323l-153.089,-152.885l62.195,-62.195l211.983,211.983l-215.094,213.049l-57.973,-57.973l151.979,-151.979Zm1346.911,-214.747l-0,424.698l-1186.857,0l0,-424.698l1186.857,-0Zm-1103.827,83.03l-0,258.639l1020.798,-0l-0,-258.639l-1020.798,0Zm-83.03,-510.251l-0,-82.879l1186.857,0l-0,82.879l-1186.857,0Zm-0,253.658l0,-82.879l1021.598,0l0,82.879l-1021.598,0Zm0,-508.969l-0,-82.879l1021.598,0l-0,82.879l-1021.598,0Zm0,-255.107l-0,-82.879l1186.857,0l-0,82.879l-1186.857,0Z" style="fill:#586c8d;"/></g></svg>