<?xml version="1.0" encoding="UTF-8" standalone="no"?><!DOCTYPE svg PUBLIC "-//W3C//DTD SVG 1.1//EN" "http://www.w3.org/Graphics/SVG/1.1/DTD/svg11.dtd"><svg width="100%" height="100%" viewBox="0 0 2084 2084" version="1.1" xmlns="http://www.w3.org/2000/svg" xmlns:xlink="http://www.w3.org/1999/xlink" xml:space="preserve" xmlns:serif="http://www.serif.com/" style="fill-rule:evenodd;clip-rule:evenodd;stroke-linejoin:round;stroke-miterlimit:2;"><rect id="footnote-admin" x="0" y="0" width="2083.333" height="2083.333" style="fill:none;"/><g id="Footnote"><path id="Footnote1" serif:id="Footnote" d="M295.528,1682.092l-191.361,-191.106l77.744,-77.744l264.978,264.978l-268.868,266.311l-72.466,-72.466l189.973,-189.973Zm1683.639,-268.433l-0,530.873l-1483.571,0l0,-530.873l1483.571,-0Zm-1379.784,103.787l-0,323.299l1275.997,-0l-0,-323.299l-1275.997,0Zm-103.787,-637.813l-0,-103.599l1483.571,0l-0,103.599l-1483.571,0Zm-0,317.073l0,-103.599l1276.998,0l0,103.599l-1276.998,0Zm0,-636.211l-0,-103.599l1276.998,0l-0,103.599l-1276.998,0Zm0,-318.884l-0,-103.599l1483.571,0l-0,103.599l-1483.571,0Z" style="fill:#586c8d;"/></g></svg>