<?xml version="1.0" encoding="UTF-8" standalone="no"?><!DOCTYPE svg PUBLIC "-//W3C//DTD SVG 1.1//EN" "http://www.w3.org/Graphics/SVG/1.1/DTD/svg11.dtd"><svg width="100%" height="100%" viewBox="0 0 2084 2084" version="1.1" xmlns="http://www.w3.org/2000/svg" xmlns:xlink="http://www.w3.org/1999/xlink" xml:space="preserve" xmlns:serif="http://www.serif.com/" style="fill-rule:evenodd;clip-rule:evenodd;stroke-linejoin:round;stroke-miterlimit:2;"><rect id="form-element" x="0" y="0" width="2083.333" height="2083.333" style="fill:none;"/><g id="element"><path d="M1784.418,140.539c87.221,0 158.375,71.153 158.375,158.375l0,1485.504c0,87.221 -71.153,158.375 -158.375,158.375l-1485.504,0c-87.221,0 -158.375,-71.153 -158.375,-158.375l0,-1485.504c0,-87.221 71.153,-158.375 158.375,-158.375l1485.504,0m0,-78.039l-1485.504,0c-130.831,0 -236.414,106.042 -236.414,236.414l0,1485.504c0,130.831 106.042,236.415 236.414,236.415l1485.504,0c130.831,0 236.415,-106.042 236.415,-236.415l0,-1485.504c0,-130.831 -105.584,-236.414 -236.415,-236.414Z" style="fill:#566b8d;fill-rule:nonzero;"/></g><g id="Form"><path id="Form1" serif:id="Form" d="M1584.672,564.181c5.951,5.969 9.294,14.052 9.294,22.479l0,1177.643c0,8.442 -3.355,16.537 -9.324,22.506c-5.969,5.969 -14.063,9.324 -22.506,9.324l-1040.938,0c-8.442,0 -16.537,-3.355 -22.506,-9.324c-5.969,-5.969 -9.324,-14.063 -9.324,-22.506l0,-1436.341c0,-8.442 3.355,-16.537 9.324,-22.506c5.969,-5.969 14.063,-9.324 22.506,-9.324l782.915,0c8.457,0 16.567,3.364 22.539,9.351l258.021,258.698Zm-345.828,-213.687l-663.284,0c-8.442,0 -16.54,3.352 -22.509,9.321c-5.969,5.969 -9.321,14.066 -9.321,22.509l0,1327.617c0,8.442 3.352,16.54 9.321,22.509c5.969,5.969 14.066,9.321 22.509,9.321l932.214,0c17.58,0 31.829,-14.249 31.829,-31.829l0,-1062.095l-268.93,0c-17.58,0 -31.829,-14.252 -31.829,-31.829l0,-265.522Zm-314.121,1117.178l0,-69.604l533.564,0l0,69.604l-533.564,0Zm-131.714,-457.951l-92.931,0c-35.216,0 -64.025,-28.809 -64.025,-64.025l0,-92.931c0,-35.216 28.809,-64.025 64.025,-64.025l92.931,0c35.211,0 64.025,28.809 64.025,64.025l0,92.931c0,35.216 -28.814,64.025 -64.025,64.025Zm-0,-53.094c6.011,0 10.931,-4.918 10.931,-10.931l0,-92.931c0,-6.012 -4.919,-10.931 -10.931,-10.931l-92.931,0c-6.012,0 -10.931,4.918 -10.931,10.931l0,92.931c0,6.012 4.918,10.931 10.931,10.931l92.931,0Zm0,319.914l-92.931,0c-35.216,0 -64.025,-28.809 -64.025,-64.025l0,-92.931c0,-35.216 28.809,-64.025 64.025,-64.025l92.931,0c35.211,0 64.025,28.809 64.025,64.025l0,92.931c0,35.216 -28.814,64.025 -64.025,64.025Zm-0,-53.094c6.011,0 10.931,-4.918 10.931,-10.931l0,-92.931c0,-6.012 -4.919,-10.931 -10.931,-10.931l-92.931,0c-6.012,0 -10.931,4.918 -10.931,10.931l0,92.931c0,6.012 4.918,10.931 10.931,10.931l92.931,0Zm0,319.914l-92.931,0c-35.216,0 -64.025,-28.809 -64.025,-64.025l0,-92.931c0,-35.216 28.809,-64.025 64.025,-64.025l92.931,0c35.211,0 64.025,28.809 64.025,64.025l0,92.931c0,35.216 -28.814,64.025 -64.025,64.025Zm-0,-53.094c6.011,0 10.931,-4.918 10.931,-10.931l0,-92.931c0,-6.012 -4.919,-10.931 -10.931,-10.931l-92.931,0c-6.012,0 -10.931,4.918 -10.931,10.931l0,92.931c0,6.012 4.918,10.931 10.931,10.931l92.931,0Zm131.625,-289.414l0,-69.604l533.564,0l0,69.604l-533.564,0Zm-0.056,-266.82l0,-69.604l533.564,0l0,69.604l-533.564,0Zm369.503,-583.539l-0.875,0l0,211.159c0,17.58 14.249,31.829 31.829,31.829l212.035,0l-242.989,-242.989Z" style="fill:#566b8d;"/></g></svg>