<?xml version="1.0" encoding="UTF-8" standalone="no"?><!DOCTYPE svg PUBLIC "-//W3C//DTD SVG 1.1//EN" "http://www.w3.org/Graphics/SVG/1.1/DTD/svg11.dtd"><svg width="100%" height="100%" viewBox="0 0 2084 2084" version="1.1" xmlns="http://www.w3.org/2000/svg" xmlns:xlink="http://www.w3.org/1999/xlink" xml:space="preserve" xmlns:serif="http://www.serif.com/" style="fill-rule:evenodd;clip-rule:evenodd;stroke-linejoin:round;stroke-miterlimit:2;"><rect id="formpages-page" x="0" y="0" width="2083.333" height="2083.333" style="fill:none;"/><clipPath id="_clip1"><rect x="0" y="0" width="2083.333" height="2083.333"/></clipPath><g clip-path="url(#_clip1)"><g id="page"><path d="M1796.35,372.543c8.271,8.293 12.916,19.527 12.916,31.24c0,164.411 0,1387.535 0,1636.72c0,11.733 -4.661,22.985 -12.957,31.281c-8.296,8.296 -19.548,12.957 -31.281,12.957c-223.172,0 -1223.551,0 -1446.723,0c-11.733,-0 -22.985,-4.661 -31.281,-12.957c-8.296,-8.296 -12.957,-19.548 -12.957,-31.281c0,-272.779 0,-1723.487 0,-1996.265c-0,-11.733 4.661,-22.985 12.957,-31.281c8.296,-8.296 19.548,-12.957 31.281,-12.957l1088.117,0c11.753,0 23.022,4.677 31.322,12.998c58.779,58.933 299.926,300.711 358.606,359.545Zm-480.642,-296.991c0,0 -732.513,-0 -921.851,-0c-11.733,0 -22.985,4.661 -31.281,12.957c-8.296,8.296 -12.957,19.548 -12.957,31.281c-0,259.863 -0,1585.297 -0,1845.161c-0,11.733 4.661,22.985 12.957,31.281c8.296,8.296 19.548,12.957 31.281,12.957c208.033,0 1087.585,0 1295.618,0c24.432,-0 44.238,-19.806 44.238,-44.238c0,-250.136 0,-1476.131 0,-1476.131l-373.767,0c-24.432,0 -44.238,-19.806 -44.238,-44.238c-0,-106.619 -0,-369.03 -0,-369.03Zm76.77,0l-1.217,-0c0,0 0,201.894 0,293.477c0,24.432 19.806,44.238 44.238,44.238c91.838,-0 294.695,-0 294.695,-0l-337.715,-337.715Z" style="fill:#566b8d;"/></g><g id="FormPages"><path id="FormPages1" serif:id="FormPages" d="M518.287,895.257c-1.897,-5.53 -1.163,-5.575 -1.146,-10.292c0.09,-11.469 0.068,-11.372 0.051,-22.862c0.12,-2.247 -0.052,-2.187 0.536,-4.378c0.733,-1.176 0.937,-1.009 1.157,-2.301c0.208,-1.223 1.644,-2.632 7.479,-9.416c1.42,-1.571 1.244,-1.784 3.449,-2.38c1.56,-1.069 1.614,-0.779 3.506,-1.073c1.45,-0.267 10.607,-1.953 18.3,-2.227c57.653,-2.056 61.04,-3.858 90.22,-4.768c2.279,-0.071 1.96,-0.866 1.962,-3.156c0.073,-73.268 -0.876,-73.494 2.461,-83.454c0.518,-2.696 0.488,-2.683 2.455,-4.531c3.225,-3.174 3.561,-2.608 6.852,-5.722c0.978,-0.878 0.89,-0.87 2.205,-1.323c1.597,-0.942 1.575,-0.703 3.513,-0.977c3.375,-1.237 725.348,-1.065 730.097,-0.103l1.141,0.055c0.775,0.09 4.032,0.466 9.063,3.589l1.367,2.07c2.132,1.981 1.884,2.08 3.678,4.442c5.35,7.046 4.409,7.773 4.409,36.83c-0,347.586 -0.156,347.586 -0.35,349.614c-0.813,8.472 4.365,-3.062 4.553,-3.481l1.041,-2.356l0.212,-1.025c1.086,-1.211 1.026,-1.151 2.254,-2.311c3.968,-4.192 7.35,-10.504 7.876,-11.486c0.405,-1.301 0.393,-1.213 1.247,-2.233l0.968,-1.237c0.454,-1.268 0.466,-1.206 1.302,-2.202l0.979,-1.228c0.466,-1.279 0.466,-1.169 1.347,-2.17c3.289,-3.358 3.251,-3.407 4.609,-7.972c1.588,-1.924 1.51,-1.89 3.268,-3.566c3.769,-4.279 3.153,-4.665 6.839,-9.107c0.398,-3.237 1.464,-2.48 3.443,-3.538c12.886,-8.668 14.651,-6.987 28.624,-3.077c0.45,0.126 4.567,3.771 5.902,4.206c1.823,0.363 1.889,-0.015 3.407,1.255c1.093,1.199 2.032,2.181 2.211,2.368c4.122,3.841 10.498,7.364 11.474,7.904c1.337,0.4 1.228,0.409 2.235,1.235l1.241,0.969c1.32,0.461 1.196,0.45 2.206,1.291l1.232,0.981c1.289,0.459 1.18,0.461 2.177,1.331c0.958,0.954 4.647,3.974 5.812,4.365c3.506,0.718 3.343,0.984 5.71,3.528c0.159,0.141 13.05,8.764 13.693,9.091c1.309,0.427 1.222,0.417 2.229,1.26l1.227,0.98c1.265,0.453 1.203,0.465 2.198,1.309c4.691,4.127 7.276,5.358 7.985,5.695c2.095,0.523 1.876,0.782 3.482,2.23c1.187,1.52 2.807,2.607 3.083,2.792c4.161,2.792 4.849,4.95 6.092,6.364c1.551,1.502 1.773,1.313 2.366,3.448c1.51,1.97 0.961,2.1 1.013,4.653c0.134,5.198 0.182,5.084 0.008,10.296c-0.153,1.72 -0.144,1.637 -0.501,3.25l-0.528,0.234c-0.335,1.833 -0.042,1.843 -1.139,3.457c-0.369,1.295 -0.365,1.228 -1.109,2.309c-0.463,1.307 -0.454,1.218 -1.328,2.204c-2.709,2.677 -6.599,8.997 -6.676,9.218c-0.379,1.863 -0.085,1.958 -1.286,3.382c-0.19,0.175 -1.192,1.098 -2.312,2.256c-1.574,2.068 -1.16,2.274 -2.724,4.285c-3.289,4.228 -3.864,5.459 -4.11,5.985c-0.527,2.125 -0.774,1.901 -2.317,3.431l-0.982,1.231c-0.457,1.284 -0.455,1.176 -1.309,2.19c-0.125,0.146 -6.06,7.567 -6.652,9.236c-0.555,2.615 -0.509,2.608 -2.5,4.467c-2.394,2.508 -2.099,2.678 -8.089,12.505l-2.011,2.447c-0.445,1.298 -0.432,1.21 -1.281,2.216l-0.992,1.219c-0.442,1.255 -0.455,1.195 -1.328,2.185c-3.614,3.523 -5.314,7.299 -5.636,8.014c-0.569,2.136 -0.815,1.926 -2.382,3.393c-3.612,3.901 -7.359,10.504 -7.909,11.473c-0.385,1.313 -0.385,1.191 -1.237,2.231l-0.964,1.248c-0.446,1.302 -0.448,1.194 -1.283,2.209l-0.977,1.233c-0.46,1.281 -0.46,1.171 -1.335,2.175c-4.217,4.29 -5.512,8.283 -5.778,9.103c-0.951,1.366 -0.906,1.297 -2.114,2.42c-0.245,0.276 -0.22,0.284 -4.019,6.371c-1.213,1.944 -3.083,4.321 -3.368,4.683c-1.573,2 -1.759,3.405 -1.913,3.662l-2.032,2.435l-0.248,0.995c-1.076,1.213 -1.016,1.154 -2.23,2.324c-3.568,3.677 -5.288,7.316 -5.623,8.025l-1.074,2.34l-0.204,1.026c-1.095,1.217 -1.031,1.154 -2.248,2.311c-4.254,4.671 -7.338,10.516 -7.859,11.502c-0.401,1.268 -0.383,1.18 -1.246,2.234l-0.971,1.235c-0.454,1.267 -0.467,1.205 -1.305,2.2c-0.21,0.244 -6.122,7.506 -6.666,9.221c-0.393,1.847 -0.09,1.944 -1.301,3.379l-1.188,1.102c-0.221,0.227 -0.192,0.215 -1.569,2.005c-0.633,0.823 -5.761,7.487 -7.46,10.614l-1.268,2.218c-5.102,6.66 -4.536,7.04 -5.034,7.57c-2.621,2.781 -2.55,2.748 -4.032,6.16c-0.557,2.115 -0.786,1.916 -2.359,3.411c-3.804,4.039 -7.358,10.5 -7.895,11.477c-0.393,1.298 -0.404,1.232 -1.244,2.231c-0.148,0.191 -1.68,2.157 -1.799,2.425c-0.538,1.207 -0.206,357.462 -0.176,360.823c1.76,4.134 1.73,15.463 -0.002,19.515c-0.289,13.864 -0.673,14.213 -8.114,22.979l-1.386,2.07c-17.46,8.164 -63.215,3.393 -66.117,4.95c-1.267,0.68 -0.624,12.424 -0.565,13.503c0.622,2.244 0.459,2.184 0.669,4.428l0.07,11.388c2.218,4.869 1.347,14.052 -0.002,16.109c-1.661,6.031 -1.614,6.027 -1.875,6.573c-7.33,15.364 -21.324,14.622 -43.104,15.773c-2.253,0.6 -2.191,0.444 -4.438,0.649c-8.74,0.038 -8.618,0.011 -17.276,0.498c-3.874,1.107 -3.852,0.551 -5.573,0.663c-6.979,0.005 -6.899,0.065 -13.855,0.482c-2.392,0.729 -2.391,0.444 -7.854,0.655l-10.275,-0.058c-6.033,2.198 -6.159,1.265 -12.575,1.151l-7.995,-0.088c-5.058,2.004 -5.172,1.375 -14.857,1.141c-15.053,-0.001 -15.032,0.338 -124.664,6.336c-2.237,0.619 -2.16,0.455 -4.434,0.657c-7.534,0.026 -7.448,0.047 -14.995,0.486c-3.823,1.132 -5.996,0.626 -6.713,0.662c-6.353,-0.021 -6.241,-0.002 -12.531,0.027c-2.718,1.968 -8.426,1.092 -10.319,1.083l-7.993,-0.067c-5.365,2.051 -5.417,1.332 -13.717,1.155c-31.709,-0.005 -31.636,1.272 -125.803,6.277c-1.686,0.452 -1.622,0.419 -3.294,0.641c-8.127,0.043 -8.01,0.043 -16.137,0.498c-3.919,1.127 -3.934,0.56 -5.572,0.669c-7.009,0.003 -6.931,0.063 -13.856,0.477c-4.431,1.362 -4.439,0.652 -8.996,0.653l-9.134,-0.052c-6.083,2.216 -6.145,1.265 -12.574,1.157l-6.853,-0.088c-7.674,2.727 -7.797,1.334 -15.999,1.128c-9.986,0.015 -9.951,0.04 -124.664,6.347c-2.234,0.617 -2.146,0.454 -4.434,0.655c-7.013,0.023 -6.933,0.08 -13.854,0.481c-3.805,1.132 -6.055,0.631 -6.712,0.664c-5.763,-0.022 -5.647,0 -11.389,0.023c-2.711,1.982 -8.407,1.102 -10.319,1.093c-10.348,-0.061 -10.23,-0.055 -20.579,-0.048c-1.661,-0.169 -1.577,-0.135 -3.257,-0.561l-0.245,-0.471c-1.834,-0.38 -1.839,-0.101 -3.45,-1.191c-1.27,-0.457 -1.18,-0.442 -2.201,-1.332c-5.374,-5.209 -5.582,-5.009 -5.806,-5.614c-0.314,-0.846 -0.566,-0.534 -1.178,-1.171c-1.829,-1.902 -0.701,-2.486 -2.339,-4.573c-0.771,-1.109 -0.738,-1.054 -1.054,-2.351c-1.791,-4.191 -1.029,-4.268 -1.077,-6.883c-0.057,-15.386 -0.644,-15.298 -6.367,-120.096c-1.071,-3.922 -0.542,-3.924 -0.653,-5.575c-0.03,-6.985 -0.088,-6.905 -0.491,-13.854c-1.137,-3.882 -0.634,-3.856 -0.662,-7.855l0.02,-11.416c-1.893,-5.561 -1.156,-5.613 -1.144,-10.292l0.077,-9.136c-1.998,-5.294 -1.314,-5.41 -1.154,-13.716c0.285,-31.724 -5.309,-90.578 -6.016,-125.61c-0.603,-1.71 -0.64,-1.58 -0.888,-3.488c-0.062,-9.335 -0.087,-9.257 -0.185,-15.945c-1.097,-2.743 -0.786,-2.729 -0.986,-5.763c-0.004,-6.893 -0.021,-6.826 -0.074,-13.671c-1.549,-3.378 -0.878,-3.482 -1.069,-9.181l0.052,-9.134c-2.184,-6.039 -1.261,-6.096 -1.155,-12.574l0.09,-7.995c-2.802,-7.114 -1.324,-7.279 -1.149,-14.857c0.11,-31.96 -5.44,-90.66 -6.029,-124.472c-0.843,-2.247 -0.723,-2.178 -0.941,-4.626c-0.025,-7.528 -0.041,-7.398 -0.126,-14.807c-1.748,-4.089 -0.891,-4.19 -1.03,-6.9l0.025,-11.417c-1.898,-5.529 -1.164,-5.599 -1.142,-11.434l0.07,-7.993c-2.488,-6.549 -1.297,-6.694 -1.158,-13.715c0.344,-32.68 -6.555,-111.799 -7.097,-146.181c-1.089,-2.748 -0.779,-2.733 -0.976,-5.767c-0.002,-6.877 -0.02,-6.81 -0.074,-13.672c-1.541,-3.37 -0.885,-3.45 -1.066,-8.038l0.055,-10.276c-2.204,-6.1 -1.255,-6.163 -1.153,-12.575l0.082,-6.852c-3.029,-7.605 -1.321,-7.788 -1.128,-15.999c-0.322,-39.476 -5.476,-90 -6.039,-123.331c-1.056,-2.771 -0.754,-2.76 -0.956,-5.766c-0.021,-6.901 -0.042,-6.782 -0.129,-13.661c-1.156,-2.756 -0.827,-2.744 -1.019,-5.761l0.024,-9.133Zm56.641,113.024c0.584,1.733 0.618,1.602 0.856,3.492c0.079,8.641 -0.041,8.541 0.233,17.084c0.857,2.275 0.732,2.206 0.959,4.622c0.018,7.49 0.017,7.394 0.103,14.812c1.739,4.045 0.902,4.134 1.051,6.897c-0.025,6.899 -0.034,6.831 0.023,13.676c1.909,2.732 1.092,6.389 1.088,9.174l-0.079,9.136c2.015,5.397 1.307,5.459 1.15,13.716c0.484,47.381 5.295,87.126 6.012,124.468c0.821,2.292 0.7,2.22 0.915,4.63c0.046,8.027 0.055,7.948 0.167,15.947c1.131,2.817 0.799,2.808 1.005,5.761l0.05,13.674c1.843,2.759 1.069,6.472 1.075,9.177l-0.056,10.277c1.961,5.514 1.198,5.59 1.158,11.431c-0.312,35.816 6.502,111.448 7.08,146.182c1.071,2.812 0.764,2.797 0.969,5.767c0.016,7.426 0.014,7.331 0.105,14.811c1.747,4.073 0.899,4.17 1.044,6.899l-0.039,11.417c1.904,5.546 1.164,5.615 1.144,11.434l-0.076,7.993c1.949,5.132 1.34,5.241 1.14,14.857c0.599,48.729 5.298,86.102 6.029,124.468c0.822,2.297 0.702,2.225 0.923,4.629c0.036,7.43 0.04,7.321 0.152,14.804c1.667,4.097 0.864,4.18 1.012,6.905c-0.008,6.95 -0.015,6.824 0.052,13.674c1.76,3.844 1.062,3.91 1.08,8.035l-0.069,10.277c2.186,6.048 1.26,6.17 1.155,12.574c-0.076,6.859 -0.19,17.095 3.714,85.659c0.525,9.219 0.917,9.072 1.072,18.299c0.05,2.973 0.835,2.792 0.903,5.719c0.362,15.449 -0.052,15.516 0.891,18.315c0.383,1.137 -0.678,11.075 2.417,11.085c20.587,0.067 104.384,-6.481 132.446,-6.942c2.762,-1.046 2.747,-0.752 5.767,-0.96c7.494,-0.022 7.371,-0.029 14.806,-0.13c4.123,-1.731 4.228,-0.882 6.903,-1.021l11.417,0.027c5.515,-1.878 5.581,-1.158 11.434,-1.143l7.993,0.078c6.528,-2.482 6.672,-1.298 13.715,-1.161c30.939,0.309 91.45,-5.371 124.469,-6c2.296,-0.827 2.224,-0.704 4.63,-0.914c9.674,-0.058 9.589,-0.085 14.804,-0.159c4.065,-1.674 4.141,-0.867 6.904,-1.009c6.921,0.002 6.822,0.004 13.671,-0.067c2.745,-1.83 6.438,-1.063 9.179,-1.068l9.135,0.056c6.012,-2.177 6.134,-1.26 12.575,-1.154c35.825,0.32 112.219,-6.525 146.181,-7.082c2.766,-1.048 2.752,-0.753 5.768,-0.962c6.845,-0.016 6.762,-0.017 13.666,-0.104c3.37,-1.459 3.436,-0.848 8.042,-1.045c6.37,0.023 6.257,0.038 12.533,-0.028c2.718,-1.907 6.313,-1.097 9.174,-1.094l9.137,0.087c6.579,-2.474 6.721,-1.287 13.715,-1.15c3.574,-0.039 42.952,-0.469 44.626,-2.097c0.623,-0.606 -0.039,-16.098 -1.398,-16.825c-0.732,-0.392 -95.185,-2.045 -108.343,-0.322c-1.335,0.175 -455.904,-0.037 -488.99,0.11c-2.502,0.011 -23.703,0.105 -30.936,-4.573c-1.326,-0.435 -1.217,-0.444 -2.221,-1.279c-9.743,-9.496 -8.339,-11.386 -8.339,-92.567c-0,-811.698 0.021,-811.734 -0.178,-812.093c-2.124,-3.831 -3.667,0.708 -70.269,2.469c-2.17,0.057 -1.986,0.442 -3.668,1.709c-2.004,1.511 -0.539,15.897 -0.399,17.272c1.18,11.583 5.378,86.983 5.642,99.364Zm622.3,535.934c0.169,4.506 0.078,11.527 0.065,12.529c0.117,7.519 -1.157,21.742 3.167,20.233c18.307,-6.389 18.285,-6.375 19.71,-7.265c1.582,-0.409 1.501,-0.399 3.177,-0.588c1.559,-1.121 1.585,-0.912 3.465,-1.057c2.644,-1.185 2.841,-1.04 4.481,-4.513c0.378,-1.308 0.398,-1.247 1.216,-2.267l0.992,-1.224c0.427,-1.281 0.413,-1.193 1.306,-2.196c4.12,-4.082 3.475,-4.467 6.706,-9.208c0.196,-1.35 0.246,-1.311 1.237,-2.269l1.061,-1.172c0.423,-1.274 0.407,-1.186 1.256,-2.218c1.352,-2.352 8.481,-10.331 9.199,-14.809c0.803,-0.93 0.718,-0.939 1.952,-1.37c0.775,-0.827 5.937,-9.042 6.438,-9.838c0.442,-0.703 0.295,-0.652 0.636,-1.406c0.554,-2.116 0.792,-1.897 2.35,-3.417l0.967,-1.241c0.47,-1.29 0.47,-1.182 1.314,-2.191l0.977,-1.232c0.458,-1.265 0.453,-1.155 1.332,-2.177c3.274,-3.702 2.855,-3.909 5.561,-8.079c0.419,-1.299 0.406,-1.211 1.27,-2.222c1.912,-2.215 5.773,-5.598 8.143,-12.478c1.078,-1.287 1.013,-1.21 2.152,-2.365c3.58,-6.233 6.797,-7.026 9.231,-14.796c0.782,-0.957 0.704,-0.976 1.894,-1.398l0.35,-2.05c1.1,-1.235 1.035,-1.167 2.231,-2.327c3.049,-3.914 2.809,-3.995 5.595,-8.046c0.283,-2.216 0.775,-1.946 2.404,-3.377c1.655,-2.83 7.194,-9.669 9.092,-13.715c0.355,-1.314 0.344,-1.225 1.191,-2.277l0.979,-1.234c0.43,-1.268 0.414,-1.18 1.305,-2.198c2.701,-2.262 2.292,-2.539 6.686,-9.214c0.153,-1.9 -0.054,-1.924 1.229,-3.428c0.192,-0.173 1.204,-1.087 2.349,-2.222c1.405,-2.418 6.258,-7.807 7.945,-11.427l1.046,-2.354l0.213,-1.023c1.069,-1.209 1.007,-1.149 2.23,-2.326c0.597,-0.688 5.763,-6.648 6.677,-9.221c0.544,-2.677 0.522,-2.658 2.493,-4.466c1.575,-1.661 3.675,-5.424 8.294,-11.194c0.259,-0.324 0.001,-0.376 2.034,-4.77c0.82,-0.962 0.701,-0.958 1.867,-1.422l0.422,-2.002c1.082,-1.211 1.037,-1.165 2.219,-2.332c2.377,-3.076 2.659,-2.838 4.488,-6.874c0.459,-2.161 0.6,-2.033 2.295,-3.48c4.813,-5.242 4.271,-5.556 10.205,-14.857c0.428,-1.277 0.444,-1.215 1.28,-2.215l0.978,-1.233c0.458,-1.284 0.459,-1.174 1.335,-2.174c1.291,-1.327 2.985,-2.343 5.621,-8.029c0.5,-2.297 0.765,-2.123 2.271,-3.496c4.187,-4.666 2.992,-5.404 6.975,-10.17c2.566,-3.07 1.811,-3.433 2.331,-4.542c0.828,-0.975 0.71,-0.972 1.872,-1.427l0.395,-2.01c0.8,-0.922 0.692,-0.944 1.908,-1.396c3.506,-3.807 5.59,-8.17 5.961,-8.946l1.108,-2.328c0.826,-0.821 0.703,-0.804 10.272,-14.85c0.403,-1.301 0.411,-1.235 1.247,-2.233l0.971,-1.238c0.439,-1.258 0.42,-1.169 1.294,-2.206c3.704,-4.334 3.563,-4.349 6.683,-9.213c0.374,-1.832 0.037,-1.938 1.277,-3.394c0.19,-0.175 1.194,-1.097 2.326,-2.242c0.334,-0.568 2.607,-4.436 4.597,-6.834c1.325,-1.597 0.959,-1.759 2.2,-3.471c0.49,-1.729 0.428,-1.841 2.037,-2.463l0.164,-1.013c0.441,-1.308 0.43,-1.22 1.276,-2.219l0.983,-1.224c0.448,-1.256 0.461,-1.196 1.332,-2.183c1.111,-1.114 2.907,-2.015 5.63,-8.015c0.505,-2.245 0.74,-2.076 2.278,-3.496c4.188,-4.691 3.018,-5.403 6.974,-10.171c1.371,-1.652 0.962,-1.798 2.132,-3.513c0.401,-1.294 0.392,-1.233 1.243,-2.239l0.978,-1.228c0.449,-1.272 0.433,-1.184 1.302,-2.203c3.731,-4.337 3.554,-4.328 6.683,-9.213c0.375,-1.835 0.038,-1.94 1.277,-3.394c0.19,-0.175 1.194,-1.097 2.326,-2.242c0.566,-0.96 0.721,-0.837 7.912,-11.462c0.418,-1.315 0.423,-1.206 1.257,-2.225l0.958,-1.249c0.464,-1.302 0.451,-1.182 1.301,-2.199l0.983,-1.228c0.458,-1.287 0.46,-1.177 1.345,-2.167c1.233,-1.223 2.276,-1.156 4.467,-5.751l1.036,-2.36c0.386,-1.613 1.866,-2.718 -2.103,-6.686c-0.622,-0.364 -10.554,-7.267 -11.469,-7.903c-1.334,-0.404 -1.247,-0.397 -2.241,-1.236l-1.233,-0.974c-1.276,-0.449 -1.188,-0.434 -2.207,-1.296l-1.224,-0.983c-1.308,-0.47 -1.199,-0.476 -2.174,-1.342c-4.457,-4.418 -6.145,-6.014 -9.74,-0.802c-0.229,0.332 -0.044,0.381 -2.604,4.316c-0.257,1.41 -0.318,1.299 -1.259,2.258c-2.664,3.022 -7.859,11.251 -8.496,12.26c-0.449,0.712 -0.305,0.662 -0.646,1.405c-0.444,1.735 -0.356,1.883 -2.086,2.443l-0.3,2.084c-1.077,1.219 -1.032,1.175 -2.242,2.32c-2.871,2.892 -6.499,8.788 -6.654,9.232c-0.564,2.681 -0.561,2.662 -2.507,4.459c-5.194,6.833 -6.445,7.627 -8.108,12.505c-0.804,0.999 -0.687,1.002 -1.824,1.439c-0.615,1.164 -0.335,1.245 -1.191,2.256c-0.83,0.98 -0.411,1.185 -1.239,2.197c-0.442,1.258 -0.456,1.196 -1.331,2.182c-3.898,3.27 -5.53,8.266 -5.798,9.086c-1.062,1.247 -1.019,1.2 -2.201,2.338c-4.298,5.57 -3.908,5.745 -7.917,11.465c-0.389,1.317 -0.394,1.207 -1.236,2.233l-0.966,1.245c-0.452,1.303 -0.454,1.195 -1.289,2.206l-0.979,1.234c-0.454,1.273 -0.452,1.163 -1.335,2.172c-4.67,4.758 -4.496,5.148 -5.771,9.108c-0.961,1.381 -0.919,1.31 -2.117,2.419c-0.738,0.833 0.038,1.271 -7.968,11.402l-1.12,2.294l-0.208,1.023c-1.072,1.214 -1.028,1.168 -2.205,2.342c-2.592,4.425 -3.807,3.618 -6.828,10.275c-0.424,1.716 -0.326,1.891 -2.121,2.417c-0.24,0.265 0.134,0.802 -0.106,1.067c-0.219,0.243 -0.742,-0.106 -0.973,0.126c-0.698,0.701 0.493,1.506 -6.791,10.328c-0.258,0.312 0.137,0.535 -2.478,4.41c-0.424,1.309 -0.413,1.221 -1.256,2.231l-0.978,1.229c-0.454,1.264 -0.466,1.202 -1.309,2.198c-1.194,1.384 -2.767,1.741 -5.676,7.991c-0.649,3.198 -0.867,3.07 -2.26,4.638c-1.211,1.081 -2.201,2.013 -2.389,2.191c-4.221,5.55 -3.918,5.612 -7.852,11.505c-0.429,1.286 -0.427,1.176 -1.269,2.218l-0.96,1.248c-0.467,1.279 -0.465,1.171 -1.313,2.19c-1.074,1.266 -2.835,2.006 -5.657,8.004c-0.582,2.648 -0.988,2.346 -2.154,3.548c-0.444,1.32 -0.378,1.272 -1.333,2.159c-3.149,3.252 -2.526,3.644 -5.38,7.084c-2.125,2.561 -1.543,2.86 -3.637,5.548l-1.276,2.208c-0.752,1.308 -6.497,8.548 -7.929,11.445l-1.076,2.336l-0.192,1.031c-1.064,1.216 -1.014,1.167 -2.229,2.326c-4.292,5.541 -3.884,5.733 -7.89,11.479c-0.395,1.281 -0.403,1.219 -1.247,2.23l-0.969,1.24c-0.447,1.269 -0.459,1.207 -1.289,2.208l-0.976,1.231c-0.469,1.276 -0.467,1.166 -1.34,2.175c-4.898,4.894 -4.044,5.435 -5.786,9.088c-0.806,0.937 -0.697,0.958 -1.915,1.391c-0.792,0.888 -0.407,1.138 -8.181,12.429l-1.275,2.209c-0.129,0.231 -8.214,11.484 -8.893,12.696c-0.492,2.243 -0.01,2.783 -2.274,3.473l-0.267,2.105c-1.08,1.215 -1.035,1.171 -2.249,2.315c-8.637,11.115 -7.37,11.927 -15.15,21.46c-1.728,2.117 -1.291,2.224 -2.131,4.73c-0.76,0.937 -0.679,0.999 -1.85,1.42l-0.37,2.038c-1.069,1.22 -1.01,1.16 -2.216,2.333c-4.294,5.585 -3.934,5.713 -7.848,11.504c-0.448,1.328 -0.439,1.203 -1.27,2.219c-3.487,6.092 -4.945,5.081 -7.951,11.429c-0.061,0.282 -0.445,2.066 -1.216,3.401c-1.094,1.23 -1.013,1.15 -2.265,2.307c-4.485,3.734 -7.468,10.42 -7.922,11.436c-0.562,2.127 -0.797,1.919 -2.38,3.4c-6.102,6.427 -7.721,11.378 -8.092,12.511c-0.765,0.942 -0.656,0.969 -1.886,1.401l-0.346,2.052c-0.827,0.966 -0.745,0.963 -1.912,1.397c-1.144,1.239 -5.962,9.025 -6.457,9.825c-0.416,0.673 -0.298,0.64 -0.649,1.396Zm43.02,-154.727c0.677,-1.028 1.192,-1.836 1.23,-1.94c0.536,-2.705 0.521,-2.684 2.482,-4.472c0.175,-0.184 1.651,-1.731 2.043,-2.425c5.204,-9.198 6.377,-8.385 6.688,-9.243c1.476,-4.061 1.454,-4.062 1.593,-4.298l2.031,-2.433l0.257,-0.992c1.076,-1.203 0.985,-1.113 2.223,-2.33c2.722,-2.975 4.219,-6.274 4.49,-6.873c0.46,-2.172 0.614,-2.036 2.296,-3.479l1.069,-1.158c0.451,-1.315 0.441,-1.191 1.292,-2.194c0.26,-0.279 0.221,-0.257 1.557,-2.017c5.022,-6.617 5.923,-8.653 6.292,-9.486c0.414,-1.26 0.395,-1.172 1.274,-2.218l0.98,-1.231c0.458,-1.298 0.462,-1.188 1.331,-2.178c3.608,-3.692 5.296,-7.315 5.628,-8.026c0.485,-2.274 0.732,-2.106 2.268,-3.496c0.267,-0.295 0.238,-0.305 4.003,-6.38c2.637,-4.255 3.755,-3.554 5.332,-8.322c0.328,-0.403 1.112,-1.366 1.993,-2.451l0.238,-1.004c1.101,-1.265 1.045,-1.202 2.116,-2.396c3.156,-2.514 5.424,-7.233 5.764,-7.94l1.105,-2.328c1.006,-0.991 2.684,-3.768 2.892,-4.112c1.992,-3.296 5.672,-6.111 7.628,-11.743c0.322,-0.406 1.092,-1.375 1.959,-2.47c0.45,-1.287 0.436,-1.199 1.297,-2.207c0.547,-0.636 6.206,-7.659 6.695,-9.206c0.366,-1.829 -0.014,-1.898 1.265,-3.403c0.191,-0.174 1.2,-1.091 2.354,-2.219c0.197,-0.257 0.227,-0.617 0.424,-0.874c6.564,-8.564 7.076,-9.625 7.526,-10.559c0.375,-1.339 0.385,-1.229 1.202,-2.267l0.96,-1.246c0.462,-1.296 0.463,-1.188 1.305,-2.197l0.98,-1.232l1.345,-2.165c0.784,-0.82 3.902,-4.617 4.331,-5.837c0.558,-2.655 0.525,-2.64 2.483,-4.481c2.426,-2.469 6.196,-8.457 6.682,-9.228c2.548,-4.047 1.922,-30.739 1.923,-36.435c0.019,-357.413 -0.817,-357.37 -0.583,-388.444c-2.406,-1.215 -2.627,-0.636 -576.942,-0.81c-5.842,-0.002 -5.941,0.703 -11.432,-1.32l-65.107,-0.002c-7.036,2.602 -9.909,0.474 -12.331,2.195l-0.016,716.277c0,240.77 -0.127,241.216 1.042,241.892c0.397,0.229 649.457,0.243 663.543,0.052l1.167,-0.903c-0.018,-257.832 0.829,-257.796 0.624,-280.213c-1.069,0.564 -1.287,0.08 -2.047,1.081c-0.29,0.383 -0.457,0.012 -0.751,0.4l-0.128,1.059c-1.016,1.287 -0.958,1.224 -2.15,2.379c-4.136,4.44 -7.342,10.509 -7.862,11.494c-0.414,1.301 -0.422,1.235 -1.26,2.227l-0.975,1.235c-0.462,1.307 -0.451,1.185 -1.325,2.184c-3.598,3.689 -5.316,7.301 -5.653,8.01c-0.947,4.49 -2.432,4.751 -3.475,5.712c-5.812,5.666 -7.756,11.348 -8.142,12.476c-1.05,1.218 -0.965,1.128 -2.149,2.366c-1.541,2.036 -1.095,2.24 -2.701,4.304c-4.697,6.038 -4.918,6.502 -5.223,7.14l-1.051,2.351l-0.211,1.024l-2.043,2.426l-0.244,1c-1.1,1.234 -1.04,1.172 -2.24,2.319c-1.328,1.426 -1.182,1.506 -5.813,9.07c-1.12,1.246 -1.067,1.187 -2.18,2.356c-1.564,2.09 -1.154,2.254 -2.709,4.298c-4.814,6.324 -5.923,8.649 -6.315,9.471c-0.403,1.307 -0.391,1.219 -1.249,2.233l-0.996,1.221c-0.422,1.25 -0.402,1.162 -1.311,2.191c-2.557,2.553 -6.618,9.009 -6.689,9.22c-0.254,1.377 -0.335,1.268 -1.275,2.235c-1.004,1.219 -0.939,1.111 -1.004,1.219c-7.102,11.738 -7.607,11.397 -8.104,12.479c-0.54,2.122 -0.776,1.916 -2.322,3.431c-0.997,1.222 -0.93,1.115 -0.997,1.222c-0.303,0.487 0.043,0.532 -0.244,0.992c-1.056,1.223 -1.013,1.179 -2.218,2.331c-1.707,1.722 -4.598,5.327 -5.562,6.947c-0.399,1.343 -0.396,1.254 -1.219,2.271c-1.475,1.205 -1.577,0.881 -3.466,1.226c-14.43,5.589 -16.097,6.628 -17.38,7.428l-3.142,0.675l-0.251,0.472l-3.192,0.633l-0.239,0.498c-1.638,0.375 -1.549,0.369 -3.245,0.542c-2.325,0.699 -21.275,6.397 -28.739,9.752c-1.607,0.4 -1.522,0.389 -3.217,0.576l-0.21,0.567c-1.648,0.385 -1.559,0.369 -3.26,0.5c-14.831,3.876 -14.664,4.453 -15.986,4.605c-3.438,0.393 -219.067,0.171 -221.674,0.116c-3.653,-0.077 -5.493,-0.552 -7.143,-1.308l-24.562,-0l0,-49.819l221.531,-0c0.775,-1.335 0.314,-5.912 0.265,-6.397c-1.125,-3.87 -0.553,-3.855 -0.662,-5.567l-0.028,-7.96c-1.621,-2.276 -0.904,-2.425 -1.092,-6.892l0.073,-6.852c-2.806,-7.446 -1.258,-16.703 -0.075,-18.343l0.063,-1.114c0.259,-3.215 0.354,-3.176 2.222,-5.79c0.458,-1.267 0.44,-1.178 1.308,-2.213c2.217,-3.062 5.195,-8.44 5.612,-9.194c0.418,-1.328 0.426,-1.219 1.271,-2.212l0.975,-1.238c0.429,-1.261 0.41,-1.172 1.275,-2.217l0.968,-1.239c0.471,-1.281 0.472,-1.172 1.342,-2.172c3.871,-3.919 5.314,-7.298 5.622,-8.019c0.575,-2.133 0.831,-1.889 2.167,-3.518l0.24,-1.004c1.132,-1.262 1.074,-1.198 2.251,-2.313c4.217,-4.374 5.568,-8.24 5.853,-9.054c1.05,-1.226 0.981,-1.152 2.152,-2.362c2.786,-3.731 2.053,-4.098 4.998,-7.716c2.667,-3.277 2.94,-3.034 4.243,-7.077l1.98,-2.459l0.239,-1.002c1.097,-1.232 1.038,-1.171 2.236,-2.324c1.394,-1.491 5.53,-7.914 5.571,-8.059c0.153,-1.045 0.214,-1.249 0.71,-1.75l-398.272,0l-0,-60.307l439.714,0Zm-439.84,-403.796l-0,-60.307l466.66,0l-0,60.307l-466.66,0Zm0.049,230.741l0,-60.307l466.66,0l0,60.307l-466.66,0Z" style="fill:#566b8d;fill-opacity:0.99;"/></g></g></svg>