<?xml version="1.0" encoding="UTF-8" standalone="no"?><!DOCTYPE svg PUBLIC "-//W3C//DTD SVG 1.1//EN" "http://www.w3.org/Graphics/SVG/1.1/DTD/svg11.dtd"><svg width="100%" height="100%" viewBox="0 0 2084 2084" version="1.1" xmlns="http://www.w3.org/2000/svg" xmlns:xlink="http://www.w3.org/1999/xlink" xml:space="preserve" xmlns:serif="http://www.serif.com/" style="fill-rule:evenodd;clip-rule:evenodd;stroke-linejoin:round;stroke-miterlimit:2;"><rect id="form-admin" x="0" y="0" width="2083.333" height="2083.333" style="fill:none;"/><g id="Form"><path id="Form1" serif:id="Form" d="M1720.423,439.228c7.439,7.461 11.617,17.564 11.617,28.099l0,1472.054c0,10.553 -4.193,20.671 -11.655,28.132c-7.461,7.461 -17.579,11.655 -28.132,11.655l-1301.173,0c-10.553,0 -20.671,-4.193 -28.132,-11.655c-7.461,-7.461 -11.655,-17.579 -11.655,-28.132l0,-1795.426c0,-10.553 4.193,-20.671 11.655,-28.132c7.461,-7.461 17.579,-11.655 28.132,-11.655l978.643,0c10.572,0 20.709,4.205 28.173,11.688l322.526,323.373Zm-432.285,-267.108l-829.105,0c-10.553,0 -20.675,4.19 -28.136,11.651c-7.461,7.461 -11.651,17.583 -11.651,28.136l0,1659.521c0,10.553 4.19,20.675 11.651,28.136c7.461,7.461 17.583,11.651 28.136,11.651l1165.267,0c21.975,0 39.787,-17.812 39.787,-39.787l0,-1327.619l-336.163,0c-21.975,0 -39.787,-17.815 -39.787,-39.787l0,-331.902Zm-392.651,1396.473l0,-87.005l666.955,0l0,87.005l-666.955,0Zm-164.643,-572.439l-116.164,0c-44.02,0 -80.031,-36.011 -80.031,-80.031l0,-116.164c0,-44.02 36.011,-80.031 80.031,-80.031l116.164,0c44.013,0 80.031,36.011 80.031,80.031l0,116.164c0,44.02 -36.017,80.031 -80.031,80.031Zm-0,-66.368c7.514,0 13.663,-6.148 13.663,-13.663l0,-116.164c0,-7.515 -6.149,-13.663 -13.663,-13.663l-116.164,0c-7.515,0 -13.663,6.148 -13.663,13.663l0,116.164c0,7.515 6.148,13.663 13.663,13.663l116.164,0Zm0,399.892l-116.164,0c-44.02,0 -80.031,-36.011 -80.031,-80.031l0,-116.164c0,-44.02 36.011,-80.031 80.031,-80.031l116.164,0c44.013,0 80.031,36.011 80.031,80.031l0,116.164c0,44.02 -36.017,80.031 -80.031,80.031Zm-0,-66.368c7.514,0 13.663,-6.148 13.663,-13.663l0,-116.164c0,-7.515 -6.149,-13.663 -13.663,-13.663l-116.164,0c-7.515,0 -13.663,6.148 -13.663,13.663l0,116.164c0,7.515 6.148,13.663 13.663,13.663l116.164,0Zm0,399.892l-116.164,0c-44.02,0 -80.031,-36.011 -80.031,-80.031l0,-116.164c0,-44.02 36.011,-80.031 80.031,-80.031l116.164,0c44.013,0 80.031,36.011 80.031,80.031l0,116.164c0,44.02 -36.017,80.031 -80.031,80.031Zm-0,-66.368c7.514,0 13.663,-6.148 13.663,-13.663l0,-116.164c0,-7.515 -6.149,-13.663 -13.663,-13.663l-116.164,0c-7.515,0 -13.663,6.148 -13.663,13.663l0,116.164c0,7.515 6.148,13.663 13.663,13.663l116.164,0Zm164.532,-361.767l0,-87.005l666.955,0l0,87.005l-666.955,0Zm-0.07,-333.525l0,-87.005l666.955,0l0,87.005l-666.955,0Zm461.879,-729.424l-1.094,0l0,263.949c0,21.975 17.812,39.787 39.787,39.787l265.043,0l-303.736,-303.736Z" style="fill:#566b8d;"/></g></svg>