<?xml version="1.0" encoding="UTF-8" standalone="no"?><!DOCTYPE svg PUBLIC "-//W3C//DTD SVG 1.1//EN" "http://www.w3.org/Graphics/SVG/1.1/DTD/svg11.dtd"><svg width="100%" height="100%" viewBox="0 0 2084 2084" version="1.1" xmlns="http://www.w3.org/2000/svg" xmlns:xlink="http://www.w3.org/1999/xlink" xml:space="preserve" xmlns:serif="http://www.serif.com/" style="fill-rule:evenodd;clip-rule:evenodd;stroke-linejoin:round;stroke-miterlimit:2;"><rect id="formpages-element" x="0" y="0" width="2083.333" height="2083.333" style="fill:none;"/><g id="element"><path d="M1784.418,140.539c87.221,0 158.375,71.153 158.375,158.375l0,1485.504c0,87.221 -71.153,158.375 -158.375,158.375l-1485.504,0c-87.221,0 -158.375,-71.153 -158.375,-158.375l0,-1485.504c0,-87.221 71.153,-158.375 158.375,-158.375l1485.504,0m0,-78.039l-1485.504,0c-130.831,0 -236.414,106.042 -236.414,236.414l0,1485.504c0,130.831 106.042,236.415 236.414,236.415l1485.504,0c130.831,0 236.415,-106.042 236.415,-236.415l0,-1485.504c0,-130.831 -105.584,-236.414 -236.415,-236.414Z" style="fill:#566b8d;fill-rule:nonzero;"/></g><g id="FormPages"><path id="FormPages1" serif:id="FormPages" d="M368.75,497.043c-2.439,-7.11 -1.496,-7.168 -1.473,-13.233c0.115,-14.745 0.087,-14.621 0.065,-29.394c0.155,-2.889 -0.066,-2.811 0.689,-5.629c0.942,-1.512 1.204,-1.297 1.487,-2.958c0.268,-1.573 2.114,-3.384 9.615,-12.106c1.826,-2.019 1.6,-2.294 4.435,-3.06c2.005,-1.374 2.075,-1.001 4.508,-1.38c1.865,-0.343 13.637,-2.511 23.529,-2.863c74.126,-2.643 78.48,-4.961 115.997,-6.131c2.93,-0.091 2.519,-1.114 2.522,-4.058c0.094,-94.202 -1.126,-94.493 3.164,-107.298c0.667,-3.466 0.627,-3.449 3.156,-5.825c4.147,-4.081 4.579,-3.353 8.809,-7.357c1.258,-1.129 1.144,-1.119 2.835,-1.701c2.053,-1.211 2.025,-0.903 4.517,-1.256c4.339,-1.591 932.59,-1.369 938.696,-0.132l1.467,0.071c0.996,0.115 5.184,0.599 11.653,4.614l1.758,2.661c2.741,2.547 2.422,2.674 4.729,5.711c6.879,9.059 5.668,9.994 5.668,47.353c-0.001,446.896 -0.2,446.897 -0.45,449.503c-1.046,10.893 5.612,-3.937 5.853,-4.475l1.338,-3.03l0.272,-1.318c1.397,-1.556 1.319,-1.48 2.898,-2.971c5.102,-5.39 9.45,-13.505 10.127,-14.768c0.521,-1.673 0.505,-1.56 1.604,-2.872l1.245,-1.591c0.583,-1.63 0.599,-1.55 1.674,-2.831l1.259,-1.579c0.599,-1.644 0.599,-1.503 1.732,-2.789c4.228,-4.317 4.18,-4.38 5.925,-10.249c2.041,-2.473 1.941,-2.43 4.202,-4.585c4.846,-5.502 4.054,-5.998 8.792,-11.709c0.512,-4.161 1.883,-3.188 4.427,-4.549c16.568,-11.145 18.837,-8.983 36.803,-3.956c0.579,0.162 5.872,4.849 7.588,5.408c2.344,0.467 2.428,-0.02 4.381,1.613c1.406,1.541 2.612,2.804 2.842,3.045c5.299,4.938 13.498,9.468 14.752,10.162c1.719,0.514 1.579,0.526 2.874,1.588l1.595,1.245c1.697,0.593 1.537,0.579 2.836,1.66l1.584,1.261c1.657,0.59 1.517,0.592 2.799,1.712c1.232,1.227 5.975,5.11 7.473,5.612c4.508,0.923 4.298,1.266 7.342,4.536c0.205,0.181 16.779,11.268 17.606,11.688c1.684,0.55 1.571,0.536 2.866,1.62l1.578,1.26c1.626,0.582 1.547,0.598 2.825,1.683c6.031,5.307 9.355,6.888 10.266,7.322c2.693,0.672 2.412,1.005 4.477,2.867c1.526,1.954 3.609,3.351 3.964,3.59c5.35,3.59 6.234,6.365 7.832,8.182c1.994,1.931 2.28,1.689 3.042,4.434c1.942,2.533 1.236,2.699 1.302,5.983c0.172,6.683 0.234,6.536 0.01,13.237c-0.197,2.211 -0.186,2.104 -0.644,4.179l-0.678,0.301c-0.431,2.357 -0.053,2.37 -1.464,4.444c-0.474,1.665 -0.469,1.579 -1.426,2.969c-0.595,1.68 -0.584,1.566 -1.707,2.833c-3.483,3.442 -8.484,11.568 -8.584,11.852c-0.488,2.395 -0.109,2.517 -1.653,4.348c-0.244,0.225 -1.533,1.412 -2.972,2.9c-2.024,2.659 -1.491,2.923 -3.503,5.51c-4.228,5.436 -4.968,7.019 -5.285,7.696c-0.677,2.732 -0.995,2.444 -2.979,4.412l-1.263,1.583c-0.588,1.651 -0.586,1.512 -1.683,2.816c-0.16,0.187 -7.791,9.728 -8.553,11.875c-0.713,3.362 -0.654,3.353 -3.214,5.743c-3.077,3.225 -2.699,3.443 -10.401,16.078l-2.586,3.146c-0.572,1.669 -0.556,1.556 -1.647,2.849l-1.275,1.567c-0.569,1.614 -0.586,1.536 -1.708,2.809c-4.647,4.53 -6.832,9.385 -7.246,10.304c-0.731,2.746 -1.048,2.476 -3.062,4.363c-4.645,5.015 -9.462,13.505 -10.169,14.751c-0.496,1.688 -0.495,1.532 -1.59,2.869l-1.239,1.605c-0.574,1.674 -0.576,1.535 -1.65,2.84l-1.256,1.586c-0.591,1.647 -0.591,1.506 -1.716,2.796c-5.422,5.516 -7.087,10.649 -7.429,11.704c-1.222,1.756 -1.164,1.667 -2.718,3.112c-0.314,0.355 -0.283,0.365 -5.167,8.191c-1.56,2.499 -3.964,5.555 -4.33,6.022c-2.023,2.572 -2.261,4.378 -2.459,4.708l-2.612,3.13l-0.319,1.28c-1.383,1.56 -1.306,1.484 -2.868,2.989c-4.588,4.728 -6.799,9.406 -7.229,10.317l-1.38,3.009l-0.263,1.32c-1.407,1.565 -1.326,1.483 -2.89,2.971c-5.469,6.006 -9.435,13.521 -10.104,14.788c-0.516,1.631 -0.492,1.517 -1.602,2.872l-1.249,1.588c-0.584,1.629 -0.6,1.55 -1.678,2.828c-0.269,0.314 -7.872,9.651 -8.571,11.856c-0.505,2.375 -0.116,2.5 -1.672,4.344l-1.528,1.417c-0.284,0.291 -0.247,0.277 -2.017,2.577c-0.814,1.058 -7.408,9.627 -9.591,13.647l-1.63,2.851c-6.559,8.563 -5.831,9.052 -6.473,9.733c-3.369,3.576 -3.278,3.533 -5.184,7.92c-0.717,2.719 -1.011,2.464 -3.033,4.385c-4.89,5.193 -9.46,13.5 -10.151,14.756c-0.505,1.669 -0.519,1.585 -1.599,2.868c-0.191,0.245 -2.16,2.773 -2.313,3.118c-0.691,1.552 -0.265,459.595 -0.226,463.915c2.263,5.315 2.224,19.881 -0.003,25.09c-0.371,17.825 -0.866,18.274 -10.433,29.544l-1.782,2.661c-22.449,10.497 -81.276,4.362 -85.007,6.365c-1.629,0.875 -0.802,15.973 -0.726,17.361c0.8,2.885 0.59,2.808 0.86,5.693l0.089,14.642c2.851,6.26 1.732,18.067 -0.002,20.711c-2.135,7.754 -2.076,7.749 -2.411,8.45c-9.424,19.753 -27.417,18.8 -55.42,20.28c-2.897,0.772 -2.817,0.571 -5.706,0.834c-11.237,0.049 -11.081,0.014 -22.212,0.64c-4.981,1.424 -4.952,0.708 -7.166,0.852c-8.973,0.007 -8.871,0.083 -17.814,0.62c-3.076,0.938 -3.074,0.57 -10.098,0.843l-13.211,-0.074c-7.757,2.826 -7.918,1.626 -16.168,1.48l-10.279,-0.113c-6.503,2.576 -6.65,1.768 -19.101,1.467c-19.354,-0.001 -19.327,0.434 -160.283,8.147c-2.876,0.796 -2.777,0.585 -5.701,0.844c-9.686,0.034 -9.577,0.06 -19.28,0.624c-4.916,1.455 -7.71,0.805 -8.631,0.851c-8.169,-0.027 -8.024,-0.003 -16.111,0.034c-3.495,2.531 -10.834,1.404 -13.267,1.392l-10.277,-0.086c-6.897,2.637 -6.964,1.713 -17.636,1.485c-40.769,-0.007 -40.675,1.635 -161.747,8.071c-2.168,0.581 -2.085,0.538 -4.235,0.825c-10.448,0.055 -10.299,0.055 -20.747,0.64c-5.039,1.449 -5.058,0.72 -7.165,0.86c-9.012,0.004 -8.911,0.081 -17.814,0.614c-5.697,1.752 -5.707,0.838 -11.566,0.84l-11.743,-0.067c-7.822,2.849 -7.901,1.627 -16.167,1.487l-8.811,-0.113c-9.866,3.507 -10.024,1.716 -20.57,1.45c-12.839,0.019 -12.794,0.052 -160.283,8.161c-2.872,0.794 -2.76,0.583 -5.701,0.842c-9.017,0.029 -8.913,0.103 -17.812,0.619c-4.893,1.456 -7.785,0.812 -8.629,0.854c-7.41,-0.028 -7.261,0 -14.644,0.03c-3.486,2.548 -10.809,1.417 -13.267,1.405c-13.305,-0.079 -13.153,-0.07 -26.459,-0.062c-2.135,-0.217 -2.028,-0.173 -4.187,-0.721l-0.316,-0.605c-2.358,-0.488 -2.364,-0.13 -4.436,-1.532c-1.632,-0.588 -1.517,-0.568 -2.829,-1.712c-6.91,-6.698 -7.176,-6.44 -7.465,-7.218c-0.403,-1.087 -0.727,-0.687 -1.515,-1.505c-2.352,-2.445 -0.901,-3.196 -3.007,-5.88c-0.992,-1.425 -0.948,-1.355 -1.355,-3.022c-2.302,-5.388 -1.323,-5.487 -1.384,-8.849c-0.074,-19.782 -0.828,-19.668 -8.186,-154.409c-1.377,-5.043 -0.697,-5.045 -0.84,-7.168c-0.038,-8.981 -0.114,-8.878 -0.632,-17.812c-1.462,-4.992 -0.816,-4.957 -0.851,-10.099l0.025,-14.678c-2.433,-7.15 -1.486,-7.217 -1.471,-13.232l0.099,-11.746c-2.569,-6.807 -1.689,-6.956 -1.483,-17.635c0.366,-40.788 -6.826,-116.457 -7.735,-161.499c-0.775,-2.199 -0.823,-2.031 -1.142,-4.484c-0.079,-12.002 -0.111,-11.902 -0.238,-20.5c-1.41,-3.526 -1.01,-3.509 -1.267,-7.41c-0.005,-8.863 -0.027,-8.777 -0.095,-17.577c-1.992,-4.343 -1.129,-4.477 -1.374,-11.804l0.066,-11.743c-2.808,-7.764 -1.621,-7.838 -1.485,-16.167l0.116,-10.279c-3.603,-9.147 -1.702,-9.359 -1.477,-19.102c0.142,-41.092 -6.995,-116.563 -7.752,-160.035c-1.084,-2.889 -0.929,-2.801 -1.209,-5.948c-0.032,-9.678 -0.052,-9.512 -0.162,-19.037c-2.248,-5.257 -1.146,-5.387 -1.324,-8.872l0.032,-14.679c-2.44,-7.109 -1.496,-7.199 -1.468,-14.701l0.09,-10.277c-3.199,-8.42 -1.667,-8.607 -1.488,-17.634c0.442,-42.017 -8.428,-143.742 -9.124,-187.947c-1.4,-3.533 -1.002,-3.514 -1.255,-7.415c-0.003,-8.841 -0.025,-8.755 -0.095,-17.578c-1.981,-4.333 -1.138,-4.436 -1.371,-10.334l0.071,-13.211c-2.834,-7.843 -1.614,-7.924 -1.482,-16.168l0.105,-8.81c-3.894,-9.777 -1.698,-10.013 -1.45,-20.57c-0.414,-50.755 -7.04,-115.714 -7.764,-158.569c-1.358,-3.562 -0.969,-3.548 -1.23,-7.414c-0.027,-8.873 -0.054,-8.72 -0.166,-17.564c-1.486,-3.544 -1.064,-3.529 -1.31,-7.407l0.031,-11.742Zm72.824,145.317c0.751,2.228 0.795,2.059 1.101,4.49c0.101,11.11 -0.053,10.981 0.3,21.965c1.101,2.925 0.942,2.836 1.234,5.943c0.023,9.63 0.022,9.507 0.133,19.044c2.236,5.201 1.159,5.315 1.351,8.868c-0.033,8.87 -0.044,8.783 0.03,17.583c2.454,3.513 1.403,8.214 1.398,11.796l-0.102,11.747c2.59,6.939 1.68,7.019 1.479,17.635c0.623,60.918 6.808,112.019 7.73,160.031c1.055,2.947 0.9,2.855 1.176,5.952c0.059,10.32 0.07,10.219 0.214,20.503c1.455,3.622 1.027,3.61 1.292,7.407l0.065,17.581c2.369,3.547 1.374,8.321 1.382,11.799l-0.073,13.213c2.521,7.089 1.54,7.187 1.489,14.697c-0.401,46.049 8.36,143.291 9.102,187.948c1.377,3.615 0.982,3.596 1.246,7.414c0.02,9.548 0.018,9.425 0.135,19.042c2.246,5.236 1.156,5.362 1.343,8.87l-0.05,14.679c2.448,7.131 1.497,7.22 1.47,14.701l-0.098,10.277c2.505,6.599 1.723,6.738 1.465,19.102c0.77,62.652 6.812,110.703 7.752,160.031c1.057,2.953 0.902,2.861 1.186,5.951c0.046,9.553 0.051,9.413 0.195,19.034c2.143,5.268 1.111,5.374 1.301,8.878c-0.01,8.936 -0.02,8.774 0.067,17.58c2.263,4.942 1.365,5.027 1.389,10.33l-0.089,13.214c2.811,7.776 1.62,7.933 1.485,16.167c-0.098,8.818 -0.244,21.979 4.776,110.132c0.675,11.853 1.178,11.664 1.378,23.528c0.064,3.822 1.073,3.589 1.162,7.353c0.465,19.863 -0.067,19.949 1.145,23.548c0.493,1.462 -0.871,14.239 3.107,14.252c26.468,0.086 134.208,-8.333 170.287,-8.925c3.551,-1.344 3.532,-0.967 7.415,-1.235c9.635,-0.028 9.477,-0.037 19.036,-0.167c5.302,-2.225 5.436,-1.134 8.875,-1.313l14.679,0.034c7.091,-2.414 7.176,-1.489 14.701,-1.47l10.277,0.101c8.393,-3.192 8.578,-1.668 17.634,-1.493c39.779,0.397 117.579,-6.906 160.032,-7.714c2.952,-1.063 2.86,-0.905 5.953,-1.176c12.438,-0.074 12.329,-0.109 19.033,-0.204c5.226,-2.153 5.324,-1.115 8.876,-1.298c8.899,0.002 8.771,0.005 17.577,-0.086c3.529,-2.353 8.277,-1.367 11.802,-1.373l11.745,0.072c7.73,-2.799 7.887,-1.62 16.168,-1.484c46.061,0.412 144.282,-8.39 187.947,-9.106c3.556,-1.348 3.539,-0.968 7.417,-1.237c8.801,-0.021 8.694,-0.022 17.571,-0.133c4.333,-1.876 4.417,-1.09 10.339,-1.344c8.19,0.029 8.045,0.049 16.114,-0.036c3.495,-2.451 8.117,-1.41 11.796,-1.407l11.747,0.112c8.459,-3.18 8.641,-1.654 17.634,-1.479c4.595,-0.05 55.224,-0.603 57.377,-2.696c0.801,-0.779 -0.05,-20.697 -1.798,-21.633c-0.941,-0.503 -122.381,-2.63 -139.299,-0.415c-1.716,0.225 -586.162,-0.047 -628.701,0.141c-3.217,0.014 -30.475,0.135 -39.775,-5.879c-1.705,-0.56 -1.565,-0.571 -2.856,-1.645c-12.526,-12.209 -10.722,-14.639 -10.722,-119.015c-0,-1043.612 0.027,-1043.659 -0.229,-1044.12c-2.73,-4.925 -4.714,0.91 -90.346,3.175c-2.789,0.074 -2.553,0.568 -4.716,2.198c-2.577,1.943 -0.693,20.439 -0.513,22.206c1.517,14.892 6.914,111.835 7.255,127.754Zm800.099,689.059c0.218,5.794 0.1,14.82 0.084,16.109c0.15,9.668 -1.488,27.954 4.071,26.014c23.538,-8.214 23.509,-8.196 25.342,-9.341c2.034,-0.526 1.93,-0.513 4.085,-0.756c2.004,-1.441 2.038,-1.172 4.455,-1.358c3.4,-1.523 3.652,-1.338 5.762,-5.803c0.486,-1.682 0.512,-1.603 1.563,-2.915l1.275,-1.573c0.549,-1.647 0.531,-1.534 1.679,-2.824c5.298,-5.248 4.467,-5.743 8.622,-11.839c0.253,-1.736 0.316,-1.686 1.59,-2.918l1.364,-1.507c0.544,-1.638 0.523,-1.525 1.615,-2.851c1.739,-3.024 10.904,-13.283 11.827,-19.04c1.032,-1.196 0.924,-1.208 2.509,-1.761c0.997,-1.064 7.634,-11.625 8.277,-12.649c0.568,-0.904 0.379,-0.838 0.818,-1.808c0.713,-2.721 1.018,-2.439 3.022,-4.394l1.243,-1.595c0.604,-1.659 0.604,-1.52 1.689,-2.816l1.256,-1.584c0.589,-1.626 0.582,-1.485 1.713,-2.799c4.21,-4.759 3.671,-5.026 7.149,-10.387c0.538,-1.67 0.522,-1.557 1.633,-2.857c2.458,-2.848 7.423,-7.197 10.469,-16.043c1.387,-1.655 1.302,-1.555 2.767,-3.04c4.603,-8.014 8.738,-9.033 11.869,-19.024c1.005,-1.23 0.905,-1.255 2.436,-1.797l0.45,-2.636c1.415,-1.587 1.331,-1.5 2.869,-2.991c3.92,-5.032 3.612,-5.136 7.193,-10.345c0.364,-2.849 0.997,-2.502 3.091,-4.342c2.128,-3.638 9.25,-12.431 11.689,-17.634c0.456,-1.689 0.442,-1.575 1.531,-2.928l1.258,-1.587c0.553,-1.631 0.533,-1.517 1.678,-2.826c3.472,-2.908 2.947,-3.265 8.597,-11.846c0.197,-2.443 -0.07,-2.473 1.58,-4.407c0.247,-0.223 1.548,-1.398 3.02,-2.857c1.807,-3.108 8.046,-10.038 10.216,-14.692l1.345,-3.027l0.274,-1.316c1.375,-1.555 1.294,-1.477 2.868,-2.991c0.767,-0.885 7.41,-8.547 8.585,-11.856c0.699,-3.442 0.671,-3.418 3.205,-5.742c2.025,-2.135 4.725,-6.974 10.664,-14.392c0.333,-0.416 0.001,-0.484 2.615,-6.132c1.054,-1.236 0.901,-1.232 2.401,-1.829l0.543,-2.574c1.391,-1.557 1.333,-1.498 2.854,-2.999c3.056,-3.955 3.419,-3.649 5.77,-8.839c0.591,-2.779 0.771,-2.613 2.95,-4.474c6.189,-6.739 5.491,-7.143 13.121,-19.102c0.551,-1.642 0.571,-1.562 1.646,-2.847l1.257,-1.585c0.589,-1.651 0.59,-1.51 1.717,-2.795c1.66,-1.707 3.838,-3.012 7.227,-10.323c0.642,-2.954 0.984,-2.729 2.919,-4.495c5.383,-6 3.847,-6.949 8.968,-13.076c3.299,-3.948 2.328,-4.413 2.997,-5.84c1.064,-1.253 0.913,-1.25 2.407,-1.835l0.508,-2.585c1.029,-1.185 0.89,-1.213 2.453,-1.795c4.507,-4.894 7.187,-10.504 7.664,-11.502l1.424,-2.993c1.061,-1.055 0.904,-1.034 13.207,-19.093c0.518,-1.673 0.529,-1.588 1.603,-2.872l1.248,-1.592c0.564,-1.617 0.54,-1.503 1.663,-2.836c4.762,-5.573 4.582,-5.591 8.593,-11.845c0.48,-2.356 0.047,-2.492 1.642,-4.364c0.245,-0.225 1.535,-1.41 2.991,-2.883c0.429,-0.73 3.352,-5.704 5.91,-8.787c1.704,-2.053 1.233,-2.262 2.828,-4.463c0.63,-2.223 0.55,-2.368 2.619,-3.167l0.211,-1.303c0.567,-1.681 0.553,-1.568 1.641,-2.853l1.264,-1.574c0.576,-1.615 0.593,-1.537 1.713,-2.807c1.429,-1.432 3.737,-2.59 7.238,-10.304c0.649,-2.886 0.952,-2.67 2.929,-4.495c5.385,-6.032 3.88,-6.947 8.967,-13.077c1.762,-2.124 1.237,-2.311 2.741,-4.517c0.516,-1.664 0.504,-1.585 1.599,-2.879l1.258,-1.579c0.577,-1.636 0.556,-1.522 1.675,-2.833c4.797,-5.576 4.569,-5.564 8.592,-11.845c0.482,-2.36 0.049,-2.495 1.642,-4.364c0.245,-0.225 1.535,-1.41 2.991,-2.883c0.728,-1.234 0.927,-1.076 10.173,-14.737c0.537,-1.691 0.543,-1.551 1.616,-2.86l1.231,-1.605c0.597,-1.674 0.58,-1.519 1.673,-2.828l1.263,-1.579c0.588,-1.655 0.591,-1.513 1.729,-2.787c1.585,-1.572 2.926,-1.487 5.744,-7.395l1.332,-3.034c0.497,-2.074 2.399,-3.494 -2.704,-8.596c-0.8,-0.468 -13.569,-9.343 -14.745,-10.161c-1.715,-0.519 -1.603,-0.511 -2.881,-1.59l-1.585,-1.252c-1.641,-0.578 -1.527,-0.558 -2.838,-1.666l-1.574,-1.264c-1.681,-0.604 -1.541,-0.612 -2.795,-1.726c-5.73,-5.68 -7.901,-7.733 -12.522,-1.031c-0.294,0.427 -0.056,0.49 -3.348,5.549c-0.33,1.813 -0.409,1.67 -1.618,2.904c-3.426,3.886 -10.104,14.465 -10.923,15.762c-0.578,0.915 -0.392,0.852 -0.831,1.806c-0.571,2.231 -0.458,2.421 -2.681,3.14l-0.386,2.679c-1.385,1.568 -1.327,1.511 -2.882,2.983c-3.691,3.719 -8.355,11.299 -8.555,11.87c-0.725,3.446 -0.722,3.423 -3.223,5.733c-6.679,8.785 -8.286,9.806 -10.425,16.078c-1.034,1.284 -0.883,1.288 -2.345,1.85c-0.79,1.496 -0.431,1.6 -1.532,2.901c-1.067,1.261 -0.528,1.523 -1.593,2.824c-0.568,1.617 -0.586,1.538 -1.711,2.805c-5.012,4.205 -7.11,10.628 -7.455,11.682c-1.366,1.603 -1.31,1.542 -2.83,3.006c-5.526,7.162 -5.024,7.386 -10.179,14.74c-0.501,1.693 -0.507,1.552 -1.589,2.871l-1.242,1.601c-0.581,1.675 -0.584,1.537 -1.657,2.836l-1.259,1.587c-0.584,1.637 -0.582,1.495 -1.717,2.793c-6.004,6.117 -5.78,6.619 -7.42,11.71c-1.235,1.776 -1.181,1.684 -2.722,3.11c-0.949,1.071 0.049,1.635 -10.244,14.66l-1.44,2.95l-0.267,1.315c-1.379,1.56 -1.322,1.502 -2.836,3.011c-3.332,5.689 -4.895,4.652 -8.779,13.211c-0.545,2.206 -0.419,2.432 -2.728,3.108c-0.308,0.341 0.172,1.031 -0.136,1.372c-0.282,0.312 -0.954,-0.136 -1.251,0.162c-0.897,0.901 0.634,1.937 -8.731,13.279c-0.331,0.401 0.176,0.687 -3.186,5.67c-0.545,1.683 -0.531,1.57 -1.615,2.868l-1.258,1.58c-0.583,1.625 -0.599,1.546 -1.682,2.825c-1.535,1.779 -3.558,2.238 -7.298,10.275c-0.834,4.112 -1.115,3.947 -2.905,5.963c-1.558,1.39 -2.829,2.589 -3.072,2.817c-5.427,7.136 -5.038,7.215 -10.095,14.793c-0.551,1.653 -0.549,1.513 -1.632,2.852l-1.234,1.604c-0.601,1.645 -0.597,1.506 -1.688,2.815c-1.381,1.628 -3.645,2.579 -7.273,10.291c-0.749,3.405 -1.27,3.016 -2.77,4.562c-0.571,1.697 -0.486,1.635 -1.714,2.776c-4.048,4.181 -3.248,4.685 -6.917,9.108c-2.732,3.293 -1.983,3.677 -4.676,7.133l-1.64,2.839c-0.967,1.682 -8.353,10.991 -10.195,14.715l-1.384,3.004l-0.247,1.326c-1.368,1.563 -1.304,1.5 -2.866,2.991c-5.518,7.124 -4.994,7.371 -10.144,14.759c-0.507,1.647 -0.518,1.567 -1.604,2.867l-1.246,1.594c-0.575,1.631 -0.59,1.552 -1.658,2.839l-1.255,1.583c-0.602,1.64 -0.601,1.499 -1.723,2.797c-6.297,6.292 -5.199,6.988 -7.44,11.685c-1.036,1.204 -0.897,1.232 -2.462,1.788c-1.019,1.142 -0.523,1.463 -10.519,15.98l-1.639,2.84c-0.165,0.297 -10.561,14.765 -11.434,16.324c-0.632,2.884 -0.013,3.578 -2.924,4.465l-0.343,2.706c-1.389,1.562 -1.331,1.506 -2.892,2.976c-11.104,14.291 -9.475,15.335 -19.478,27.591c-2.222,2.722 -1.66,2.86 -2.739,6.082c-0.978,1.205 -0.872,1.284 -2.378,1.826l-0.476,2.62c-1.375,1.568 -1.299,1.492 -2.849,3c-5.521,7.181 -5.058,7.345 -10.091,14.791c-0.576,1.708 -0.564,1.547 -1.633,2.854c-4.483,7.833 -6.357,6.533 -10.223,14.694c-0.078,0.363 -0.572,2.656 -1.564,4.373c-1.407,1.581 -1.302,1.479 -2.912,2.966c-5.767,4.8 -9.602,13.397 -10.185,14.703c-0.722,2.735 -1.025,2.468 -3.06,4.371c-7.845,8.264 -9.927,14.629 -10.404,16.086c-0.984,1.212 -0.844,1.246 -2.425,1.801l-0.445,2.638c-1.064,1.243 -0.958,1.238 -2.458,1.796c-1.471,1.593 -7.665,11.604 -8.302,12.632c-0.535,0.865 -0.383,0.823 -0.834,1.795Zm55.312,-198.935c0.87,-1.321 1.533,-2.36 1.581,-2.494c0.689,-3.477 0.67,-3.451 3.191,-5.749c0.225,-0.236 2.122,-2.225 2.627,-3.117c6.69,-11.826 8.198,-10.781 8.599,-11.884c1.898,-5.222 1.87,-5.223 2.049,-5.526l2.611,-3.129l0.331,-1.275c1.384,-1.547 1.267,-1.431 2.859,-2.996c3.5,-3.825 5.424,-8.067 5.773,-8.836c0.591,-2.793 0.79,-2.618 2.952,-4.473l1.374,-1.489c0.58,-1.691 0.568,-1.532 1.661,-2.821c0.334,-0.359 0.285,-0.331 2.002,-2.594c6.457,-8.507 7.616,-11.125 8.09,-12.196c0.533,-1.62 0.508,-1.506 1.637,-2.852l1.26,-1.583c0.589,-1.669 0.594,-1.528 1.711,-2.8c4.639,-4.747 6.81,-9.405 7.236,-10.319c0.623,-2.923 0.941,-2.707 2.916,-4.495c0.343,-0.38 0.306,-0.392 5.146,-8.202c3.39,-5.471 4.828,-4.57 6.856,-10.699c0.421,-0.518 1.429,-1.756 2.562,-3.152l0.306,-1.291c1.415,-1.626 1.344,-1.545 2.721,-3.08c4.058,-3.233 6.974,-9.3 7.411,-10.209l1.421,-2.993c1.293,-1.274 3.451,-4.845 3.718,-5.287c2.561,-4.238 7.293,-7.857 9.807,-15.099c0.414,-0.522 1.404,-1.768 2.519,-3.176c0.579,-1.655 0.561,-1.542 1.667,-2.838c0.703,-0.818 7.979,-9.847 8.608,-11.837c0.47,-2.352 -0.018,-2.441 1.626,-4.375c0.246,-0.224 1.542,-1.403 3.026,-2.853c0.253,-0.33 0.291,-0.793 0.545,-1.124c8.44,-11.011 9.097,-12.375 9.677,-13.576c0.482,-1.721 0.495,-1.58 1.546,-2.914l1.234,-1.602c0.594,-1.666 0.595,-1.527 1.678,-2.824l1.26,-1.584l1.729,-2.784c1.008,-1.054 5.017,-5.936 5.568,-7.505c0.718,-3.414 0.675,-3.394 3.193,-5.762c3.119,-3.174 7.966,-10.873 8.591,-11.865c3.276,-5.203 2.472,-39.522 2.472,-46.845c0.024,-459.531 -1.051,-459.475 -0.75,-499.428c-3.093,-1.562 -3.377,-0.818 -741.783,-1.042c-7.511,-0.002 -7.639,0.904 -14.699,-1.698l-83.71,-0.002c-9.047,3.346 -12.74,0.609 -15.854,2.823l-0.02,920.927c0,309.561 -0.163,310.135 1.34,311.004c0.51,0.295 835.017,0.312 853.126,0.067l1.501,-1.162c-0.023,-331.498 1.065,-331.453 0.802,-360.273c-1.374,0.726 -1.655,0.102 -2.631,1.39c-0.373,0.492 -0.588,0.015 -0.966,0.514l-0.165,1.361c-1.306,1.655 -1.232,1.573 -2.765,3.058c-5.317,5.708 -9.44,13.511 -10.109,14.778c-0.532,1.673 -0.543,1.587 -1.62,2.863l-1.253,1.588c-0.594,1.681 -0.579,1.524 -1.704,2.808c-4.626,4.743 -6.835,9.387 -7.269,10.298c-1.218,5.773 -3.126,6.108 -4.467,7.344c-7.473,7.284 -9.972,14.591 -10.468,16.04c-1.35,1.567 -1.241,1.45 -2.763,3.042c-1.981,2.618 -1.408,2.88 -3.472,5.534c-6.039,7.763 -6.324,8.359 -6.716,9.181l-1.351,3.023l-0.271,1.316l-2.626,3.119l-0.314,1.286c-1.415,1.586 -1.338,1.506 -2.88,2.982c-1.707,1.834 -1.52,1.936 -7.473,11.662c-1.44,1.602 -1.372,1.526 -2.802,3.029c-2.011,2.688 -1.483,2.899 -3.484,5.527c-6.19,8.131 -7.615,11.12 -8.119,12.177c-0.518,1.68 -0.503,1.567 -1.605,2.871l-1.281,1.57c-0.543,1.608 -0.517,1.494 -1.686,2.817c-3.287,3.283 -8.509,11.583 -8.601,11.854c-0.327,1.77 -0.431,1.631 -1.639,2.873c-1.291,1.567 -1.207,1.428 -1.291,1.567c-9.131,15.091 -9.78,14.654 -10.419,16.045c-0.694,2.728 -0.997,2.463 -2.986,4.411c-1.282,1.572 -1.196,1.434 -1.282,1.572c-0.39,0.626 0.055,0.684 -0.314,1.276c-1.358,1.572 -1.302,1.516 -2.852,2.997c-2.195,2.214 -5.911,6.849 -7.152,8.932c-0.513,1.726 -0.509,1.612 -1.567,2.92c-1.897,1.549 -2.028,1.133 -4.456,1.576c-18.553,7.186 -20.696,8.521 -22.345,9.55l-4.039,0.868l-0.322,0.607l-4.104,0.813l-0.307,0.641c-2.106,0.482 -1.992,0.475 -4.172,0.696c-2.989,0.899 -27.354,8.225 -36.95,12.539c-2.066,0.514 -1.956,0.5 -4.136,0.74l-0.27,0.729c-2.119,0.495 -2.004,0.474 -4.192,0.642c-19.068,4.983 -18.853,5.726 -20.553,5.92c-4.42,0.505 -281.657,0.22 -285.009,0.149c-4.696,-0.099 -7.062,-0.709 -9.183,-1.682l-31.579,-0l0,-64.053l284.825,-0c0.996,-1.716 0.404,-7.601 0.341,-8.224c-1.446,-4.976 -0.711,-4.957 -0.851,-7.158l-0.036,-10.235c-2.085,-2.926 -1.162,-3.118 -1.403,-8.862l0.094,-8.81c-3.608,-9.573 -1.617,-21.475 -0.096,-23.583l0.081,-1.432c0.332,-4.134 0.455,-4.083 2.857,-7.445c0.589,-1.629 0.566,-1.514 1.682,-2.845c2.851,-3.937 6.679,-10.852 7.216,-11.821c0.538,-1.707 0.548,-1.568 1.634,-2.844l1.254,-1.592c0.551,-1.622 0.527,-1.507 1.639,-2.85l1.245,-1.593c0.606,-1.647 0.606,-1.507 1.726,-2.793c4.978,-5.039 6.833,-9.384 7.228,-10.31c0.739,-2.742 1.069,-2.428 2.787,-4.523l0.308,-1.291c1.456,-1.623 1.381,-1.54 2.894,-2.974c5.421,-5.624 7.159,-10.594 7.525,-11.641c1.35,-1.576 1.262,-1.481 2.767,-3.037c3.582,-4.797 2.64,-5.269 6.426,-9.921c3.428,-4.213 3.78,-3.901 5.455,-9.1l2.546,-3.162l0.308,-1.288c1.411,-1.584 1.335,-1.505 2.874,-2.988c1.792,-1.917 7.11,-10.175 7.163,-10.362c0.197,-1.343 0.276,-1.606 0.913,-2.251l-512.064,-0l-0,-77.538l565.346,0Zm-565.508,-519.166l-0,-77.538l599.991,0l-0,77.538l-599.991,0Zm0.063,296.667l0,-77.538l599.991,0l0,77.538l-599.991,0Z" style="fill:#566b8d;fill-opacity:0.99;"/></g></svg>