<?xml version="1.0" encoding="UTF-8" standalone="no"?><!DOCTYPE svg PUBLIC "-//W3C//DTD SVG 1.1//EN" "http://www.w3.org/Graphics/SVG/1.1/DTD/svg11.dtd"><svg width="100%" height="100%" viewBox="0 0 2084 2084" version="1.1" xmlns="http://www.w3.org/2000/svg" xmlns:xlink="http://www.w3.org/1999/xlink" xml:space="preserve" xmlns:serif="http://www.serif.com/" style="fill-rule:evenodd;clip-rule:evenodd;stroke-linejoin:round;stroke-miterlimit:2;"><rect id="fullwidth-element" x="-0" y="0" width="2083.333" height="2083.333" style="fill:none;"/><g id="element"><path d="M1784.418,140.539c87.221,0 158.375,71.153 158.375,158.375l0,1485.504c0,87.221 -71.153,158.375 -158.375,158.375l-1485.504,0c-87.221,0 -158.375,-71.153 -158.375,-158.375l0,-1485.504c0,-87.221 71.153,-158.375 158.375,-158.375l1485.504,0m0,-78.039l-1485.504,0c-130.831,0 -236.414,106.042 -236.414,236.414l0,1485.504c0,130.831 106.042,236.415 236.414,236.415l1485.504,0c130.831,0 236.415,-106.042 236.415,-236.415l0,-1485.504c0,-130.831 -105.584,-236.414 -236.415,-236.414Z" style="fill:#566b8d;fill-rule:nonzero;"/></g><g id="FullWidth"><g><rect x="292.096" y="1392.377" width="1499.571" height="82.179" style="fill:#566b8d;"/><rect x="292.096" y="1518.815" width="1147.027" height="82.179" style="fill:#566b8d;"/><rect x="291.667" y="1265.94" width="1499.571" height="82.179" style="fill:#566b8d;"/></g><g><path d="M930.709,691.019l-207.949,360.031l416.674,0l-208.725,-360.031Z" style="fill:#566b8d;fill-rule:nonzero;"/><path d="M1185.99,803.528l-173.808,247.522l348.392,0l-174.584,-247.522Z" style="fill:#566b8d;fill-rule:nonzero;"/><circle cx="1132.45" cy="637.479" r="53.539" style="fill:#566b8d;"/></g><path d="M1791.238,482.339l0,670.311l-1499.571,0l0,-670.311l1499.571,0Zm-46.594,46.594l-1406.384,0l-0,577.124l1406.384,-0l0,-577.124Z" style="fill:#566b8d;"/></g></svg>