<?xml version="1.0" encoding="UTF-8" standalone="no"?><!DOCTYPE svg PUBLIC "-//W3C//DTD SVG 1.1//EN" "http://www.w3.org/Graphics/SVG/1.1/DTD/svg11.dtd"><svg width="100%" height="100%" viewBox="0 0 2084 2084" version="1.1" xmlns="http://www.w3.org/2000/svg" xmlns:xlink="http://www.w3.org/1999/xlink" xml:space="preserve" xmlns:serif="http://www.serif.com/" style="fill-rule:evenodd;clip-rule:evenodd;stroke-linejoin:round;stroke-miterlimit:2;"><rect id="fullwidth-page" x="-0" y="0" width="2083.333" height="2083.333" style="fill:none;"/><clipPath id="_clip1"><rect x="-0" y="0" width="2083.333" height="2083.333"/></clipPath><g clip-path="url(#_clip1)"><g id="page"><path d="M1796.35,371.135c8.271,8.293 12.916,19.527 12.916,31.24c0,164.411 0,1387.535 0,1636.72c0,11.733 -4.661,22.985 -12.957,31.281c-8.296,8.296 -19.548,12.957 -31.281,12.957c-223.172,-0 -1223.551,0 -1446.723,0c-11.733,-0 -22.985,-4.661 -31.281,-12.957c-8.296,-8.296 -12.957,-19.548 -12.957,-31.281c0,-272.779 -0,-1723.487 0,-1996.265c-0,-11.733 4.661,-22.985 12.957,-31.281c8.296,-8.296 19.548,-12.957 31.281,-12.957c193.261,-0 959.525,-0 1088.117,-0c11.753,0 23.022,4.677 31.322,12.998c58.779,58.933 299.926,300.711 358.606,359.545Zm-480.642,-296.991c0,0 -732.513,-0 -921.851,-0c-11.733,0 -22.985,4.661 -31.281,12.957c-8.296,8.296 -12.957,19.548 -12.957,31.281c-0,259.863 -0,1585.297 -0,1845.161c-0,11.733 4.661,22.985 12.957,31.281c8.296,8.296 19.548,12.957 31.281,12.957c208.033,0 1087.585,0 1295.618,0c24.432,-0 44.238,-19.806 44.238,-44.238c0,-250.136 0,-1476.131 0,-1476.131c0,0 -266.253,0 -373.767,0c-24.432,0 -44.238,-19.806 -44.238,-44.238c-0,-106.619 -0,-369.03 -0,-369.03Zm76.77,0l-1.217,-0c0,-0 0,201.894 0,293.477c0,24.432 19.806,44.238 44.238,44.238c91.838,-0 294.695,-0 294.695,-0l-337.715,-337.715Z" style="fill:#566b8d;"/></g><g id="FullWidth"><g><rect x="458.431" y="1591.629" width="1166.333" height="63.917" style="fill:#566b8d;"/><rect x="458.431" y="1689.969" width="892.132" height="63.917" style="fill:#566b8d;"/><rect x="458.097" y="1493.288" width="1166.333" height="63.917" style="fill:#566b8d;"/></g><g><path d="M955.13,1046.127l-161.738,280.024l324.08,0l-162.342,-280.024Z" style="fill:#566b8d;fill-rule:nonzero;"/><path d="M1153.682,1133.635l-135.184,192.517l270.972,0l-135.788,-192.517Z" style="fill:#566b8d;fill-rule:nonzero;"/><circle cx="1112.04" cy="1004.486" r="41.642" style="fill:#566b8d;"/></g><path d="M1624.43,883.821l0,521.353l-1166.333,0l0,-521.353l1166.333,0Zm-46.594,46.594l-1073.146,-0l0,428.166l1073.146,0l-0,-428.166Z" style="fill:#566b8d;"/></g></g></svg>