<?xml version="1.0" encoding="UTF-8" standalone="no"?><!DOCTYPE svg PUBLIC "-//W3C//DTD SVG 1.1//EN" "http://www.w3.org/Graphics/SVG/1.1/DTD/svg11.dtd"><svg width="100%" height="100%" viewBox="0 0 2088 2084" version="1.1" xmlns="http://www.w3.org/2000/svg" xmlns:xlink="http://www.w3.org/1999/xlink" xml:space="preserve" xmlns:serif="http://www.serif.com/" style="fill-rule:evenodd;clip-rule:evenodd;stroke-linejoin:round;stroke-miterlimit:2;"><rect id="grid-admin" x="2.71" y="-0" width="2083.333" height="2083.333" style="fill:none;"/><g id="Grid"><path d="M1981.877,251.606l0,294.879c0,81.374 -66.065,147.439 -147.439,147.439l-294.879,0c-81.374,0 -147.439,-66.065 -147.439,-147.439l0,-294.879c0,-81.374 66.065,-147.439 147.439,-147.439l294.879,0c81.374,0 147.439,66.065 147.439,147.439Zm-33.425,-0c0,-62.926 -51.088,-114.015 -114.015,-114.015l-294.879,0c-62.926,0 -114.015,51.088 -114.015,114.015l0,294.879c0,62.926 51.088,114.015 114.015,114.015l294.879,0c62.926,0 114.015,-51.088 114.015,-114.015l0,-294.879Z" style="fill:#566b8d;"/><path d="M1981.877,894.227l0,294.879c0,81.374 -66.065,147.439 -147.439,147.439l-294.879,0c-81.374,0 -147.439,-66.065 -147.439,-147.439l0,-294.879c0,-81.374 66.065,-147.439 147.439,-147.439l294.879,0c81.374,0 147.439,66.065 147.439,147.439Zm-33.425,-0c0,-62.926 -51.088,-114.015 -114.015,-114.015l-294.879,0c-62.926,0 -114.015,51.088 -114.015,114.015l0,294.879c0,62.926 51.088,114.015 114.015,114.015l294.879,0c62.926,0 114.015,-51.088 114.015,-114.015l0,-294.879Z" style="fill:#566b8d;"/><path d="M1981.877,1536.849l0,294.879c0,81.374 -66.065,147.439 -147.439,147.439l-294.879,0c-81.374,0 -147.439,-66.065 -147.439,-147.439l0,-294.879c0,-81.374 66.065,-147.439 147.439,-147.439l294.879,0c81.374,0 147.439,66.065 147.439,147.439Zm-33.425,-0c0,-62.926 -51.088,-114.015 -114.015,-114.015l-294.879,0c-62.926,0 -114.015,51.088 -114.015,114.015l0,294.879c0,62.926 51.088,114.015 114.015,114.015l294.879,0c62.926,0 114.015,-51.088 114.015,-114.015l0,-294.879Z" style="fill:#566b8d;"/><path d="M1339.255,251.606l0,294.879c0,81.374 -66.065,147.439 -147.439,147.439l-294.879,0c-81.374,0 -147.439,-66.065 -147.439,-147.439l0,-294.879c0,-81.374 66.065,-147.439 147.439,-147.439l294.879,0c81.374,0 147.439,66.065 147.439,147.439Zm-33.425,-0c0,-62.926 -51.088,-114.015 -114.015,-114.015l-294.879,0c-62.926,0 -114.015,51.088 -114.015,114.015l0,294.879c0,62.926 51.088,114.015 114.015,114.015l294.879,0c62.926,0 114.015,-51.088 114.015,-114.015l0,-294.879Z" style="fill:#566b8d;"/><path d="M1339.255,894.227l0,294.879c0,81.374 -66.065,147.439 -147.439,147.439l-294.879,0c-81.374,0 -147.439,-66.065 -147.439,-147.439l0,-294.879c0,-81.374 66.065,-147.439 147.439,-147.439l294.879,0c81.374,0 147.439,66.065 147.439,147.439Zm-33.425,-0c0,-62.926 -51.088,-114.015 -114.015,-114.015l-294.879,0c-62.926,0 -114.015,51.088 -114.015,114.015l0,294.879c0,62.926 51.088,114.015 114.015,114.015l294.879,0c62.926,0 114.015,-51.088 114.015,-114.015l0,-294.879Z" style="fill:#566b8d;"/><path d="M1339.255,1536.849l0,294.879c0,81.374 -66.065,147.439 -147.439,147.439l-294.879,0c-81.374,0 -147.439,-66.065 -147.439,-147.439l0,-294.879c0,-81.374 66.065,-147.439 147.439,-147.439l294.879,0c81.374,0 147.439,66.065 147.439,147.439Zm-33.425,-0c0,-62.926 -51.088,-114.015 -114.015,-114.015l-294.879,0c-62.926,0 -114.015,51.088 -114.015,114.015l0,294.879c0,62.926 51.088,114.015 114.015,114.015l294.879,0c62.926,0 114.015,-51.088 114.015,-114.015l0,-294.879Z" style="fill:#566b8d;"/><path d="M696.634,251.606l0,294.879c0,81.374 -66.065,147.439 -147.439,147.439l-294.879,0c-81.374,0 -147.439,-66.065 -147.439,-147.439l0,-294.879c0,-81.374 66.065,-147.439 147.439,-147.439l294.879,0c81.374,0 147.439,66.065 147.439,147.439Zm-33.425,0c0,-62.926 -51.088,-114.015 -114.015,-114.015l-294.879,0c-62.926,0 -114.015,51.088 -114.015,114.015l0,294.879c0,62.926 51.088,114.015 114.015,114.015l294.879,0c62.926,0 114.015,-51.088 114.015,-114.015l0,-294.879Z" style="fill:#566b8d;"/><path d="M696.634,894.227l0,294.879c0,81.374 -66.065,147.439 -147.439,147.439l-294.879,0c-81.374,0 -147.439,-66.065 -147.439,-147.439l0,-294.879c0,-81.374 66.065,-147.439 147.439,-147.439l294.879,0c81.374,0 147.439,66.065 147.439,147.439Zm-33.425,0c0,-62.926 -51.088,-114.015 -114.015,-114.015l-294.879,0c-62.926,0 -114.015,51.088 -114.015,114.015l0,294.879c0,62.926 51.088,114.015 114.015,114.015l294.879,0c62.926,0 114.015,-51.088 114.015,-114.015l0,-294.879Z" style="fill:#566b8d;"/><path d="M696.634,1536.849l0,294.879c0,81.374 -66.065,147.439 -147.439,147.439l-294.879,0c-81.374,0 -147.439,-66.065 -147.439,-147.439l0,-294.879c0,-81.374 66.065,-147.439 147.439,-147.439l294.879,0c81.374,0 147.439,66.065 147.439,147.439Zm-33.425,0c0,-62.926 -51.088,-114.015 -114.015,-114.015l-294.879,0c-62.926,0 -114.015,51.088 -114.015,114.015l0,294.879c0,62.926 51.088,114.015 114.015,114.015l294.879,0c62.926,0 114.015,-51.088 114.015,-114.015l0,-294.879Z" style="fill:#566b8d;"/></g></svg>