<?xml version="1.0" encoding="UTF-8" standalone="no"?><!DOCTYPE svg PUBLIC "-//W3C//DTD SVG 1.1//EN" "http://www.w3.org/Graphics/SVG/1.1/DTD/svg11.dtd"><svg width="100%" height="100%" viewBox="0 0 2084 2084" version="1.1" xmlns="http://www.w3.org/2000/svg" xmlns:xlink="http://www.w3.org/1999/xlink" xml:space="preserve" xmlns:serif="http://www.serif.com/" style="fill-rule:evenodd;clip-rule:evenodd;stroke-linejoin:round;stroke-miterlimit:2;"><rect id="hero-page" x="0" y="-0" width="2083.333" height="2083.333" style="fill:none;"/><clipPath id="_clip1"><rect x="0" y="-0" width="2083.333" height="2083.333"/></clipPath><g clip-path="url(#_clip1)"><g id="Hero"><g><path d="M938.982,1106.109l-192.445,333.188l385.608,0l-193.163,-333.188Z" style="fill:#566b8d;fill-rule:nonzero;"/><path d="M1175.229,1210.231l-160.849,229.067l322.417,0l-161.567,-229.067Z" style="fill:#566b8d;fill-rule:nonzero;"/></g><rect x="633.289" y="1583.363" width="816.755" height="62.827" style="fill:#566b8d;"/><rect x="633.289" y="1583.363" width="816.755" height="62.827" style="fill:#566b8d;"/><rect x="742.676" y="1684.335" width="597.981" height="62.827" style="fill:#566b8d;"/><path d="M1545.229,928.809c23.348,0 41.507,18.808 41.507,41.507l0,480.774c0,23.348 -18.808,41.507 -41.507,41.507l-1007.124,0c-23.348,0 -41.507,-18.808 -41.507,-41.507l0,-480.774c0,-23.348 18.808,-41.507 41.507,-41.507l1007.124,0m0,-38.264l-1007.124,0c-44.101,0 -79.771,36.319 -79.771,79.771l0,480.774c0,44.101 36.319,79.771 79.771,79.771l1007.124,0c44.101,0 79.771,-36.319 79.771,-79.771l0,-480.774c0,-43.453 -35.67,-79.771 -79.771,-79.771Z" style="fill:#566b8d;fill-rule:nonzero;"/><path d="M1175.588,970.316l29.41,90.516l95.174,0l-76.998,55.942l29.41,90.516l-76.998,-55.942l-76.998,55.942l29.41,-90.516l-76.998,-55.942l95.174,-0l29.41,-90.516Z" style="fill:#566b8d;"/></g><g id="page"><path d="M1796.35,371.135c8.271,8.293 12.916,19.527 12.916,31.24c0,164.411 0,1387.535 0,1636.72c0,11.733 -4.661,22.985 -12.957,31.281c-8.296,8.296 -19.548,12.957 -31.281,12.957l-1446.723,0c-11.733,-0 -22.985,-4.661 -31.281,-12.957c-8.296,-8.296 -12.957,-19.548 -12.957,-31.281c-0,-272.779 -0,-1723.487 -0,-1996.265c-0,-11.733 4.661,-22.985 12.957,-31.281c8.296,-8.296 19.548,-12.957 31.281,-12.957c193.261,0 959.525,0 1088.117,-0c11.753,0 23.022,4.677 31.322,12.998c58.779,58.933 299.926,300.711 358.606,359.545Zm-480.642,-296.991c0,0 -732.513,-0 -921.851,-0c-11.733,0 -22.985,4.661 -31.281,12.957c-8.296,8.296 -12.957,19.548 -12.957,31.281c-0,259.863 -0,1585.297 -0,1845.161c-0,11.733 4.661,22.985 12.957,31.281c8.296,8.296 19.548,12.957 31.281,12.957c208.033,0 1087.585,0 1295.618,0c24.432,-0 44.238,-19.806 44.238,-44.238c0,-250.136 0,-1476.131 0,-1476.131c0,0 -266.253,0 -373.767,0c-24.432,0 -44.238,-19.806 -44.238,-44.238c-0,-106.619 -0,-369.03 -0,-369.03Zm76.77,0l-1.217,-0c0,-0 0,201.894 0,293.477c0,24.432 19.806,44.238 44.238,44.238c91.838,-0 294.695,-0 294.695,-0l-337.715,-337.715Z" style="fill:#566b8d;"/></g></g></svg>