<?xml version="1.0" encoding="UTF-8" standalone="no"?><!DOCTYPE svg PUBLIC "-//W3C//DTD SVG 1.1//EN" "http://www.w3.org/Graphics/SVG/1.1/DTD/svg11.dtd"><svg width="100%" height="100%" viewBox="0 0 2084 2084" version="1.1" xmlns="http://www.w3.org/2000/svg" xmlns:xlink="http://www.w3.org/1999/xlink" xml:space="preserve" xmlns:serif="http://www.serif.com/" style="fill-rule:evenodd;clip-rule:evenodd;stroke-linejoin:round;stroke-miterlimit:2;"><rect id="hero-admin" x="0" y="-0" width="2083.333" height="2083.333" style="fill:none;"/><g id="Hero"><g><path d="M876.637,699.756l-309.286,535.481l619.727,0l-310.44,-535.481Z" style="fill:#566b8d;fill-rule:nonzero;"/><path d="M1256.321,867.094l-258.508,368.143l518.17,0l-259.662,-368.143Z" style="fill:#566b8d;fill-rule:nonzero;"/></g><rect x="385.346" y="1466.771" width="1312.642" height="100.972" style="fill:#566b8d;"/><rect x="385.346" y="1466.771" width="1312.642" height="100.972" style="fill:#566b8d;"/><rect x="561.146" y="1629.048" width="961.041" height="100.972" style="fill:#566b8d;"/><path d="M1850.963,414.809c37.523,0 66.708,30.227 66.708,66.708l0,772.673c0,37.523 -30.227,66.708 -66.708,66.708l-1618.592,0c-37.523,0 -66.708,-30.227 -66.708,-66.708l0,-772.673c0,-37.523 30.227,-66.708 66.708,-66.708l1618.592,0m0,-61.496l-1618.592,0c-70.877,0 -128.204,58.369 -128.204,128.204l0,772.673c0,70.877 58.369,128.204 128.204,128.204l1618.592,0c70.877,0 128.204,-58.369 128.204,-128.204l0,-772.673c-0,-69.835 -57.327,-128.204 -128.204,-128.204Z" style="fill:#566b8d;fill-rule:nonzero;"/><path d="M1256.898,481.517l47.267,145.472l152.959,0l-123.746,89.907l47.267,145.472l-123.746,-89.907l-123.746,89.907l47.267,-145.472l-123.746,-89.907l152.959,-0l47.267,-145.472Z" style="fill:#566b8d;"/></g></svg>