<?xml version="1.0" encoding="UTF-8" standalone="no"?><!DOCTYPE svg PUBLIC "-//W3C//DTD SVG 1.1//EN" "http://www.w3.org/Graphics/SVG/1.1/DTD/svg11.dtd"><svg width="100%" height="100%" viewBox="0 0 2084 2084" version="1.1" xmlns="http://www.w3.org/2000/svg" xmlns:xlink="http://www.w3.org/1999/xlink" xml:space="preserve" xmlns:serif="http://www.serif.com/" style="fill-rule:evenodd;clip-rule:evenodd;stroke-linejoin:round;stroke-miterlimit:2;"><rect id="horizontalmedia-admin" x="0" y="-0" width="2083.333" height="2083.333" style="fill:none;"/><g id="HorizontalMedia"><g><path d="M174.936,580.323c0,-51.522 34.785,-91.595 76.765,-91.595l1579.93,0c43.181,0 76.765,41.505 76.765,91.595l0,922.685c0,51.522 -34.783,91.597 -76.765,91.597l-1579.93,-0c-43.181,0 -76.765,-41.505 -76.765,-91.597l0,-922.685m-70.77,0l0,922.685c0,97.321 67.171,176.036 147.535,176.036l1579.93,0c81.564,0 147.535,-80.147 147.535,-176.036l0,-922.685c0,-97.319 -67.171,-176.034 -147.535,-176.034l-1579.93,0c-80.364,0 -147.535,78.715 -147.535,176.034Z" style="fill:#566b8d;fill-rule:nonzero;"/></g><g><path d="M881.477,859.068l-300.22,519.784l601.561,0l-301.34,-519.784Z" style="fill:#566b8d;fill-rule:nonzero;"/><path d="M1250.022,1021.491l-250.931,357.352l502.98,0l-252.049,-357.352Z" style="fill:#566b8d;fill-rule:nonzero;"/><circle cx="1172.73" cy="781.772" r="77.296" style="fill:#566b8d;"/></g></g></svg>