<?xml version="1.0" encoding="UTF-8" standalone="no"?><!DOCTYPE svg PUBLIC "-//W3C//DTD SVG 1.1//EN" "http://www.w3.org/Graphics/SVG/1.1/DTD/svg11.dtd"><svg width="100%" height="100%" viewBox="0 0 2084 2084" version="1.1" xmlns="http://www.w3.org/2000/svg" xmlns:xlink="http://www.w3.org/1999/xlink" xml:space="preserve" xmlns:serif="http://www.serif.com/" style="fill-rule:evenodd;clip-rule:evenodd;stroke-linejoin:round;stroke-miterlimit:2;"><rect id="icon-element" x="0" y="0" width="2083.333" height="2083.333" style="fill:none;"/><g id="element"><path d="M1784.418,140.539c87.221,0 158.375,71.153 158.375,158.375l0,1485.504c0,87.221 -71.153,158.375 -158.375,158.375l-1485.504,0c-87.221,0 -158.375,-71.153 -158.375,-158.375l0,-1485.504c0,-87.221 71.153,-158.375 158.375,-158.375l1485.504,0m0,-78.039l-1485.504,0c-130.831,0 -236.414,106.042 -236.414,236.414l0,1485.504c0,130.831 106.042,236.415 236.414,236.415l1485.504,0c130.831,0 236.415,-106.042 236.415,-236.415l0,-1485.504c0,-130.831 -105.584,-236.414 -236.415,-236.414Z" style="fill:#566b8d;fill-rule:nonzero;"/></g><g id="Icon"><path id="Icon1" serif:id="Icon" d="M1791.667,1041.667c0,414.212 -335.788,750 -750,750c-414.212,0 -750,-335.788 -750,-750c0,-414.212 335.788,-750 750,-750c414.212,0 750,335.788 750,750Zm-127.636,-240.803c-96.583,-249.45 -338.816,-426.344 -622.364,-426.344c-368.454,0 -667.146,298.693 -667.146,667.146c0,31.276 2.152,62.048 6.316,92.179l491.65,-314.558l0.192,0.299l0.117,-0.189l417.146,258.46l374.09,-276.995Zm-1270.312,400.352c71.513,291.409 334.484,507.597 647.948,507.597c368.454,0 667.146,-298.693 667.146,-667.146c0,-61.322 -8.273,-120.711 -23.765,-177.113l-336.836,249.41l63.55,39.375l-33.546,54.142l-505.122,-312.97l-479.376,306.705Zm925.048,-526.509c0,81.067 -65.817,146.883 -146.885,146.883c-81.068,0 -146.885,-65.816 -146.885,-146.883c0,-81.067 65.817,-146.883 146.885,-146.883c81.068,0 146.885,65.816 146.885,146.883Zm-63.692,0c0,-45.915 -37.278,-83.191 -83.193,-83.191c-45.915,0 -83.193,37.277 -83.193,83.191c0,45.915 37.278,83.191 83.193,83.191c45.915,0 83.193,-37.277 83.193,-83.191Z" style="fill:#586c8d;"/></g></svg>