<?xml version="1.0" encoding="UTF-8" standalone="no"?><!DOCTYPE svg PUBLIC "-//W3C//DTD SVG 1.1//EN" "http://www.w3.org/Graphics/SVG/1.1/DTD/svg11.dtd"><svg width="100%" height="100%" viewBox="0 0 2084 2084" version="1.1" xmlns="http://www.w3.org/2000/svg" xmlns:xlink="http://www.w3.org/1999/xlink" xml:space="preserve" xmlns:serif="http://www.serif.com/" style="fill-rule:evenodd;clip-rule:evenodd;stroke-linejoin:round;stroke-miterlimit:2;"><rect id="icon-admin" x="0" y="0" width="2083.333" height="2083.333" style="fill:none;"/><g id="Icon"><path id="Icon1" serif:id="Icon" d="M1979.167,1041.667c0,517.765 -419.735,937.5 -937.5,937.5c-517.765,0 -937.5,-419.735 -937.5,-937.5c0,-517.765 419.735,-937.5 937.5,-937.5c517.765,0 937.5,419.735 937.5,937.5Zm-159.545,-301.003c-120.729,-311.813 -423.521,-532.929 -777.955,-532.929c-460.567,0 -833.933,373.366 -833.933,833.933c0,39.094 2.69,77.561 7.895,115.223l614.562,-393.197l0.239,0.374l0.146,-0.236l521.433,323.076l467.613,-346.244Zm-1587.89,500.44c89.391,364.262 418.106,634.497 809.934,634.497c460.567,0 833.933,-373.366 833.933,-833.933c0,-76.652 -10.342,-150.889 -29.706,-221.391l-421.045,311.762l79.438,49.219l-41.932,67.677l-631.403,-391.212l-599.219,383.381Zm1156.31,-658.136c0,101.334 -82.271,183.604 -183.606,183.604c-101.335,0 -183.606,-82.27 -183.606,-183.604c0,-101.334 82.271,-183.604 183.606,-183.604c101.335,0 183.606,82.27 183.606,183.604Zm-79.615,0c0,-57.393 -46.597,-103.989 -103.991,-103.989c-57.394,0 -103.991,46.596 -103.991,103.989c0,57.393 46.597,103.989 103.991,103.989c57.394,0 103.991,-46.596 103.991,-103.989Z" style="fill:#586c8d;"/></g></svg>