<?xml version="1.0" encoding="UTF-8" standalone="no"?><!DOCTYPE svg PUBLIC "-//W3C//DTD SVG 1.1//EN" "http://www.w3.org/Graphics/SVG/1.1/DTD/svg11.dtd"><svg width="100%" height="100%" viewBox="0 0 2084 2084" version="1.1" xmlns="http://www.w3.org/2000/svg" xmlns:xlink="http://www.w3.org/1999/xlink" xml:space="preserve" xmlns:serif="http://www.serif.com/" style="fill-rule:evenodd;clip-rule:evenodd;stroke-linejoin:round;stroke-miterlimit:2;"><rect id="icon-page" x="0" y="0" width="2083.333" height="2083.333" style="fill:none;"/><clipPath id="_clip1"><rect x="0" y="0" width="2083.333" height="2083.333"/></clipPath><g clip-path="url(#_clip1)"><g id="page"><path d="M1796.35,372.543c8.271,8.293 12.916,19.527 12.916,31.24c0,164.411 0,1387.535 0,1636.72c0,11.733 -4.661,22.985 -12.957,31.281c-8.296,8.296 -19.548,12.957 -31.281,12.957c-223.172,0 -1223.551,0 -1446.723,0c-11.733,-0 -22.985,-4.661 -31.281,-12.957c-8.296,-8.296 -12.957,-19.548 -12.957,-31.281l0,-1996.265c-0,-11.733 4.661,-22.985 12.957,-31.281c8.296,-8.296 19.548,-12.957 31.281,-12.957c193.261,0 959.525,0 1088.117,0c11.753,0 23.022,4.677 31.322,12.998c58.779,58.933 299.926,300.711 358.606,359.545Zm-480.642,-296.991c0,-0 -732.513,-0 -921.851,-0c-11.733,0 -22.985,4.661 -31.281,12.957c-8.296,8.296 -12.957,19.548 -12.957,31.281c-0,259.863 -0,1585.297 -0,1845.161c-0,11.733 4.661,22.985 12.957,31.281c8.296,8.296 19.548,12.957 31.281,12.957c208.033,0 1087.585,0 1295.618,0c24.432,-0 44.238,-19.806 44.238,-44.238c0,-250.136 0,-1476.131 0,-1476.131c0,-0 -266.253,-0 -373.767,0c-24.432,0 -44.238,-19.806 -44.238,-44.238c-0,-106.619 -0,-369.03 -0,-369.03Zm76.77,0l-1.217,-0c0,-0 0,201.894 0,293.477c0,24.432 19.806,44.238 44.238,44.238l294.695,-0l-337.715,-337.715Z" style="fill:#566b8d;"/></g><g id="Icon"><path id="Icon1" serif:id="Icon" d="M1624.764,1318.854c0,322.165 -261.168,583.333 -583.333,583.333c-322.165,0 -583.333,-261.168 -583.333,-583.333c0,-322.165 261.168,-583.333 583.333,-583.333c322.165,0 583.333,261.168 583.333,583.333Zm-99.272,-187.291c-75.12,-194.017 -263.524,-331.601 -484.061,-331.601c-286.575,0 -518.892,232.317 -518.892,518.892c0,24.325 1.674,48.26 4.913,71.694l382.394,-244.656l0.149,0.233l0.091,-0.147l324.447,201.025l290.959,-215.44Zm-988.02,311.385c55.621,226.652 260.155,394.798 503.959,394.798c286.575,0 518.892,-232.317 518.892,-518.892c0,-47.695 -6.435,-93.887 -18.484,-137.755l-261.983,193.985l49.428,30.625l-26.091,42.11l-392.873,-243.421l-372.848,238.548Zm719.482,-409.507c0,63.052 -51.191,114.243 -114.244,114.243c-63.053,0 -114.244,-51.19 -114.244,-114.243c0,-63.052 51.191,-114.243 114.244,-114.243c63.053,0 114.244,51.19 114.244,114.243Zm-49.538,0c0,-35.711 -28.994,-64.704 -64.706,-64.704c-35.712,0 -64.706,28.993 -64.706,64.704c0,35.711 28.994,64.704 64.706,64.704c35.712,0 64.706,-28.993 64.706,-64.704Z" style="fill:#586c8d;"/></g></g></svg>