<?xml version="1.0" encoding="UTF-8" standalone="no"?><!DOCTYPE svg PUBLIC "-//W3C//DTD SVG 1.1//EN" "http://www.w3.org/Graphics/SVG/1.1/DTD/svg11.dtd"><svg width="100%" height="100%" viewBox="0 0 2084 2084" version="1.1" xmlns="http://www.w3.org/2000/svg" xmlns:xlink="http://www.w3.org/1999/xlink" xml:space="preserve" xmlns:serif="http://www.serif.com/" style="fill-rule:evenodd;clip-rule:evenodd;stroke-linejoin:round;stroke-miterlimit:2;"><rect id="idea-admin" x="0" y="0" width="2083.333" height="2083.333" style="fill:none;"/><g id="Idea"><path d="M787.738,1654.193c-0,-49.682 -25.222,-95.966 -66.972,-122.898c-163.102,-105.476 -271.132,-288.959 -271.132,-497.474c0,-326.752 265.281,-592.032 592.032,-592.032c326.752,0 592.032,265.281 592.032,592.032c0,207.573 -107.057,390.339 -268.92,496.048c-43.138,28.055 -69.162,76.023 -69.162,127.482c-0.022,28.696 -0.022,53.269 -0.022,53.269l-507.858,0l0,-56.427Zm131.817,-89.406l244.966,0c20.838,-63.759 62.895,-119.543 120.517,-157.018c122.035,-79.698 202.828,-217.45 202.828,-373.947c0,-246.264 -199.935,-446.199 -446.199,-446.199c-246.264,0 -446.199,199.935 -446.199,446.199c0,157.205 81.524,295.495 204.351,374.926c57.522,37.106 99.334,92.606 119.736,156.04Z" style="fill:#566b8d;"/><rect x="787.738" y="1730.164" width="507.858" height="108.633" style="fill:#566b8d;"/><rect x="851.655" y="1858.341" width="380.024" height="64.273" style="fill:#566b8d;"/><rect x="919.224" y="1942.157" width="244.884" height="37.009" style="fill:#566b8d;"/><path d="M1765.575,1149.121c-40.244,0 -72.917,-32.673 -72.917,-72.917c-0,-40.244 32.673,-72.917 72.917,-72.917l138.71,0c40.244,0 72.917,32.673 72.917,72.917c-0,40.244 -32.673,72.917 -72.917,72.917l-138.71,0Z" style="fill:#566b8d;"/><path d="M1492.23,1629.888c-28.457,-28.457 -28.457,-74.663 0,-103.12c28.457,-28.457 74.663,-28.457 103.12,-0l78.378,78.378c28.457,28.457 28.457,74.663 0,103.12c-28.457,28.457 -74.663,28.457 -103.12,0l-78.378,-78.378Z" style="fill:#566b8d;"/><path d="M487.984,1526.768c28.457,-28.457 74.663,-28.457 103.12,-0c28.457,28.457 28.457,74.663 -0,103.12l-78.378,78.378c-28.457,28.457 -74.663,28.457 -103.12,-0c-28.457,-28.457 -28.457,-74.663 0,-103.12l78.378,-78.378Z" style="fill:#566b8d;"/><path d="M1114.583,297.088c-0,40.244 -32.673,72.917 -72.917,72.917c-40.244,-0 -72.917,-32.673 -72.917,-72.917l0,-120.796c-0,-40.244 32.673,-72.917 72.917,-72.917c40.244,-0 72.917,32.673 72.917,72.917l0,120.796Z" style="fill:#566b8d;"/><path d="M1635.958,585.033c-28.457,28.457 -74.663,28.457 -103.12,-0c-28.457,-28.457 -28.457,-74.663 -0,-103.12l98.083,-98.083c28.457,-28.457 74.663,-28.457 103.12,0c28.457,28.457 28.457,74.663 -0,103.12l-98.083,98.083Z" style="fill:#566b8d;"/><path d="M317.758,1000.734c40.244,-0 72.917,32.673 72.917,72.917c0,40.244 -32.673,72.917 -72.917,72.917l-138.71,0c-40.244,-0 -72.917,-32.673 -72.917,-72.917c0,-40.244 32.673,-72.917 72.917,-72.917l138.71,0Z" style="fill:#566b8d;"/><path d="M550.495,479.359c28.457,28.457 28.457,74.663 -0,103.12c-28.457,28.457 -74.663,28.457 -103.12,-0l-98.083,-98.083c-28.457,-28.457 -28.457,-74.663 0,-103.12c28.457,-28.457 74.663,-28.457 103.12,0l98.083,98.083Z" style="fill:#566b8d;"/></g></svg>