<?xml version="1.0" encoding="UTF-8" standalone="no"?><!DOCTYPE svg PUBLIC "-//W3C//DTD SVG 1.1//EN" "http://www.w3.org/Graphics/SVG/1.1/DTD/svg11.dtd"><svg width="100%" height="100%" viewBox="0 0 2084 2084" version="1.1" xmlns="http://www.w3.org/2000/svg" xmlns:xlink="http://www.w3.org/1999/xlink" xml:space="preserve" xmlns:serif="http://www.serif.com/" style="fill-rule:evenodd;clip-rule:evenodd;stroke-linejoin:round;stroke-miterlimit:2;"><rect id="idea-element" x="0" y="0" width="2083.333" height="2083.333" style="fill:none;"/><g id="element"><path d="M1784.418,140.539c87.221,0 158.375,71.153 158.375,158.375l0,1485.504c0,87.221 -71.153,158.375 -158.375,158.375l-1485.504,0c-87.221,0 -158.375,-71.153 -158.375,-158.375l0,-1485.504c0,-87.221 71.153,-158.375 158.375,-158.375l1485.504,0m0,-78.039l-1485.504,0c-130.831,0 -236.414,106.042 -236.414,236.414l-0,1485.504c0,130.831 106.042,236.415 236.414,236.415l1485.504,0c130.831,0 236.415,-106.042 236.415,-236.415l0,-1485.504c0,-130.831 -105.584,-236.414 -236.415,-236.414Z" style="fill:#566b8d;fill-rule:nonzero;"/></g><g id="Idea"><path d="M836.722,1538.588c-0,-41.042 -20.763,-79.299 -55.176,-101.665c-129.523,-84.503 -215.193,-230.7 -215.193,-396.748c0,-261.291 212.135,-473.426 473.426,-473.426c261.291,0 473.426,212.135 473.426,473.426c-0,161.418 -80.96,304.077 -204.454,389.55c-41.206,28.362 -65.819,75.183 -65.819,125.206c-0.095,15.307 -0.095,26.455 -0.095,26.455l-406.115,0l0,-42.798Zm125.16,-103.036l160.199,0c21.92,-50.067 57.533,-93.906 103.91,-125.903c85.361,-59.189 141.382,-157.83 141.382,-269.474c0,-180.803 -146.789,-327.593 -327.593,-327.593c-180.803,0 -327.593,146.789 -327.593,327.593c0,114.948 59.382,216.112 148.831,274.47c45.688,29.693 80.453,72.102 100.865,120.907Z" style="fill:#566b8d;"/><rect x="836.722" y="1597.014" width="406.115" height="86.869" style="fill:#566b8d;"/><rect x="887.834" y="1699.512" width="303.891" height="51.397" style="fill:#566b8d;"/><rect x="941.867" y="1766.537" width="195.825" height="29.595" style="fill:#566b8d;"/><path d="M1618.662,1132.376c-32.181,0 -58.309,-26.127 -58.309,-58.309c-0,-32.181 26.127,-58.309 58.309,-58.309l110.921,0c32.181,0 58.309,26.127 58.309,58.309c-0,32.181 -26.127,58.309 -58.309,58.309l-110.921,0Z" style="fill:#566b8d;"/><path d="M1400.078,1516.827c-22.756,-22.756 -22.756,-59.705 0,-82.461c22.756,-22.756 59.705,-22.756 82.461,-0l62.676,62.676c22.756,22.756 22.756,59.705 0,82.461c-22.756,22.756 -59.705,22.756 -82.461,0l-62.676,-62.676Z" style="fill:#566b8d;"/><path d="M597.02,1434.366c22.756,-22.756 59.705,-22.756 82.461,-0c22.756,22.756 22.756,59.705 -0,82.461l-62.676,62.676c-22.756,22.756 -59.705,22.756 -82.461,-0c-22.756,-22.756 -22.756,-59.705 0,-82.461l62.676,-62.676Z" style="fill:#566b8d;"/><path d="M1098.088,451.037c-0,32.181 -26.127,58.309 -58.309,58.309c-32.181,-0 -58.309,-26.127 -58.309,-58.309l0,-96.596c-0,-32.181 26.127,-58.309 58.309,-58.309c32.181,-0 58.309,26.127 58.309,58.309l0,96.596Z" style="fill:#566b8d;"/><path d="M1515.012,681.296c-22.756,22.756 -59.705,22.756 -82.461,-0c-22.756,-22.756 -22.756,-59.705 -0,-82.461l78.433,-78.433c22.756,-22.756 59.705,-22.756 82.461,0c22.756,22.756 22.756,59.705 -0,82.461l-78.433,78.433Z" style="fill:#566b8d;"/><path d="M460.897,1013.716c32.181,-0 58.309,26.127 58.309,58.309c0,32.181 -26.127,58.309 -58.309,58.309l-110.921,0c-32.181,-0 -58.309,-26.127 -58.309,-58.309c0,-32.181 26.127,-58.309 58.309,-58.309l110.921,0Z" style="fill:#566b8d;"/><path d="M647.008,596.792c22.756,22.756 22.756,59.705 -0,82.461c-22.756,22.756 -59.705,22.756 -82.461,-0l-78.433,-78.433c-22.756,-22.756 -22.756,-59.705 0,-82.461c22.756,-22.756 59.705,-22.756 82.461,0l78.433,78.433Z" style="fill:#566b8d;"/></g></svg>