<?xml version="1.0" encoding="UTF-8" standalone="no"?><!DOCTYPE svg PUBLIC "-//W3C//DTD SVG 1.1//EN" "http://www.w3.org/Graphics/SVG/1.1/DTD/svg11.dtd"><svg width="100%" height="100%" viewBox="0 0 2084 2084" version="1.1" xmlns="http://www.w3.org/2000/svg" xmlns:xlink="http://www.w3.org/1999/xlink" xml:space="preserve" xmlns:serif="http://www.serif.com/" style="fill-rule:evenodd;clip-rule:evenodd;stroke-linejoin:round;stroke-miterlimit:2;"><rect id="idea-page" x="0" y="0" width="2083.333" height="2083.333" style="fill:none;"/><clipPath id="_clip1"><rect x="0" y="0" width="2083.333" height="2083.333"/></clipPath><g clip-path="url(#_clip1)"><g id="page"><path d="M1796.35,372.543c8.271,8.293 12.916,19.527 12.916,31.24c0,164.411 0,1387.535 0,1636.72c0,11.733 -4.661,22.985 -12.957,31.281c-8.296,8.296 -19.548,12.957 -31.281,12.957c-223.172,-0 -1223.551,0 -1446.723,0c-11.733,-0 -22.985,-4.661 -31.281,-12.957c-8.296,-8.296 -12.957,-19.548 -12.957,-31.281c-0,-272.779 -0,-1723.487 -0,-1996.265c-0,-11.733 4.661,-22.985 12.957,-31.281c8.296,-8.296 19.548,-12.957 31.281,-12.957l1088.117,0c11.753,0 23.022,4.677 31.322,12.998c58.779,58.933 299.926,300.711 358.606,359.545Zm-480.642,-296.991c0,0 -732.513,-0 -921.851,-0c-11.733,0 -22.985,4.661 -31.281,12.957c-8.296,8.296 -12.957,19.548 -12.957,31.281c-0,259.863 -0,1585.297 -0,1845.161c-0,11.733 4.661,22.985 12.957,31.281c8.296,8.296 19.548,12.957 31.281,12.957c208.033,0 1087.585,0 1295.618,0c24.432,-0 44.238,-19.806 44.238,-44.238c0,-250.136 0,-1476.131 0,-1476.131c0,0 -266.253,0 -373.767,0c-24.432,0 -44.238,-19.806 -44.238,-44.238c-0,-106.619 -0,-369.03 -0,-369.03Zm76.77,0l-1.217,-0c0,0 0,201.894 0,293.477c0,24.432 19.806,44.238 44.238,44.238c91.838,-0 294.695,-0 294.695,-0l-337.715,-337.715Z" style="fill:#566b8d;"/></g><g id="Idea"><path d="M883.099,1702.288c-0.001,-32.519 -16.421,-62.838 -43.656,-80.607c-100.64,-65.952 -167.161,-179.741 -167.161,-308.944c0,-203.739 165.41,-369.149 369.149,-369.149c203.739,0 369.149,165.41 369.149,369.149c0,121.46 -58.786,229.297 -149.434,296.588c-38.545,28.675 -61.261,73.888 -61.261,121.929c-0.122,2.224 -0.122,3.486 -0.122,3.486l-316.664,0l0,-32.452Zm207.176,-113.381c20.347,-37.393 48.74,-70.486 83.824,-96.588l0.122,-0.091c54.87,-40.732 90.525,-105.971 90.525,-179.491c0,-123.251 -100.065,-223.316 -223.316,-223.316c-123.251,0 -223.316,100.065 -223.316,223.316c-0,78.208 40.341,147.045 101.259,186.967c34.757,22.737 62.494,53.608 81.363,89.203l89.537,0Z" style="fill:#566b8d;"/><rect x="883.099" y="1746.927" width="316.664" height="67.736" style="fill:#566b8d;"/><rect x="922.953" y="1826.849" width="236.956" height="40.076" style="fill:#566b8d;"/><rect x="965.084" y="1879.111" width="152.692" height="23.076" style="fill:#566b8d;"/><path d="M1492.809,1384.63c-25.093,0 -45.466,-20.372 -45.466,-45.466c-0,-25.093 20.372,-45.466 45.466,-45.466l86.49,0c25.093,0 45.466,20.372 45.466,45.466c-0,25.093 -20.372,45.466 -45.466,45.466l-86.49,0Z" style="fill:#566b8d;"/><path d="M1322.37,1684.402c-17.744,-17.744 -17.744,-46.555 0,-64.298c17.744,-17.744 46.555,-17.744 64.298,-0l48.871,48.871c17.744,17.744 17.744,46.555 0,64.298c-17.744,17.744 -46.555,17.744 -64.298,0l-48.871,-48.871Z" style="fill:#566b8d;"/><path d="M696.193,1620.103c17.744,-17.744 46.555,-17.744 64.298,-0c17.744,17.744 17.744,46.555 -0,64.298l-48.871,48.871c-17.744,17.744 -46.555,17.744 -64.298,-0c-17.744,-17.744 -17.744,-46.555 0,-64.298l48.871,-48.871Z" style="fill:#566b8d;"/><path d="M1086.896,853.363c-0,25.093 -20.372,45.466 -45.466,45.466c-25.093,-0 -45.466,-20.372 -45.466,-45.466l0,-75.32c-0,-25.093 20.372,-45.466 45.466,-45.466c25.093,-0 45.466,20.372 45.466,45.466l0,75.32Z" style="fill:#566b8d;"/><path d="M1411.988,1032.905c-17.744,17.744 -46.555,17.744 -64.298,-0c-17.744,-17.744 -17.744,-46.555 -0,-64.298l61.158,-61.158c17.744,-17.744 46.555,-17.744 64.298,0c17.744,17.744 17.744,46.555 -0,64.298l-61.158,61.158Z" style="fill:#566b8d;"/><path d="M590.053,1292.106c25.093,-0 45.466,20.372 45.466,45.466c0,25.093 -20.372,45.466 -45.466,45.466l-86.49,0c-25.093,-0 -45.466,-20.372 -45.466,-45.466c0,-25.093 20.372,-45.466 45.466,-45.466l86.49,0Z" style="fill:#566b8d;"/><path d="M735.171,967.014c17.744,17.744 17.744,46.555 -0,64.298c-17.744,17.744 -46.555,17.744 -64.298,-0l-61.158,-61.158c-17.744,-17.744 -17.744,-46.555 0,-64.298c17.744,-17.744 46.555,-17.744 64.298,0l61.158,61.158Z" style="fill:#566b8d;"/></g></g></svg>