<?xml version="1.0" encoding="UTF-8" standalone="no"?><!DOCTYPE svg PUBLIC "-//W3C//DTD SVG 1.1//EN" "http://www.w3.org/Graphics/SVG/1.1/DTD/svg11.dtd"><svg width="100%" height="100%" viewBox="0 0 2084 2088" version="1.1" xmlns="http://www.w3.org/2000/svg" xmlns:xlink="http://www.w3.org/1999/xlink" xml:space="preserve" xmlns:serif="http://www.serif.com/" style="fill-rule:evenodd;clip-rule:evenodd;stroke-linejoin:round;stroke-miterlimit:2;"><rect id="institution-element" x="0" y="2.286" width="2083.333" height="2083.333" style="fill:none;"/><g><g id="Element"><path d="M1784.418,142.825c87.221,0 158.375,71.153 158.375,158.375l0,1485.504c0,87.221 -71.153,158.375 -158.375,158.375l-1485.504,0c-87.221,0 -158.375,-71.153 -158.375,-158.375l0,-1485.504c0,-87.221 71.153,-158.375 158.375,-158.375l1485.504,0m0,-78.039l-1485.504,0c-130.831,0 -236.414,106.042 -236.414,236.414l0,1485.504c0,130.831 106.042,236.415 236.414,236.415l1485.504,0c130.831,0 236.415,-106.042 236.415,-236.415l0,-1485.504c0,-130.831 -105.584,-236.414 -236.415,-236.414Z" style="fill:#566b8d;fill-rule:nonzero;"/></g><g id="Institution"><path d="M1020.274,679.528l0,-381.353l311.49,0l-144.474,93.242l143.449,101.439l-264.357,0l0,185.723l379.068,388.259l346.216,0l0,728.995l-550.343,0l0,-472.332l-404.252,0l0,472.332l-545.406,0l0,-728.995l355.287,0l373.32,-387.31Zm-693.68,336.919l200.829,-139.863l238.228,0l-139.863,139.863l-299.194,0Zm1433.981,-1.025l-299.194,0l-139.863,-139.863l238.228,0l200.829,139.863Zm-749.981,351.805l0,428.606l-129.842,0l0,-428.606l129.842,0Zm180.336,0l0,428.606l-129.842,0l0,-428.606l129.842,0Z" style="fill:#566b8d;"/></g></g></svg>