<?xml version="1.0" encoding="UTF-8" standalone="no"?><!DOCTYPE svg PUBLIC "-//W3C//DTD SVG 1.1//EN" "http://www.w3.org/Graphics/SVG/1.1/DTD/svg11.dtd"><svg width="100%" height="100%" viewBox="0 0 2088 2084" version="1.1" xmlns="http://www.w3.org/2000/svg" xmlns:xlink="http://www.w3.org/1999/xlink" xml:space="preserve" xmlns:serif="http://www.serif.com/" style="fill-rule:evenodd;clip-rule:evenodd;stroke-linejoin:round;stroke-miterlimit:2;"><rect id="institution-admin" x="3.327" y="0" width="2083.333" height="2083.333" style="fill:none;"/><g><g id="Institution"><path d="M1018.253,583.785l0,-476.691l389.362,0l-180.592,116.553l179.312,126.799l-330.446,0l0,232.153l473.835,485.323l432.769,0l0,911.244l-687.928,0l0,-590.414l-505.315,0l0,590.414l-681.757,0l0,-911.244l444.109,0l466.651,-484.138Zm-867.1,421.148l251.036,-174.829l297.785,0l-174.829,174.829l-373.993,0Zm1792.476,-1.281l-373.993,0l-174.829,-174.829l297.785,0l251.036,174.829Zm-937.476,439.757l0,535.757l-162.303,0l0,-535.757l162.303,0Zm225.42,0l0,535.757l-162.303,0l0,-535.757l162.303,0Z" style="fill:#566b8d;"/></g></g></svg>