<?xml version="1.0" encoding="UTF-8" standalone="no"?><!DOCTYPE svg PUBLIC "-//W3C//DTD SVG 1.1//EN" "http://www.w3.org/Graphics/SVG/1.1/DTD/svg11.dtd"><svg width="100%" height="100%" viewBox="0 0 2084 2084" version="1.1" xmlns="http://www.w3.org/2000/svg" xmlns:xlink="http://www.w3.org/1999/xlink" xml:space="preserve" xmlns:serif="http://www.serif.com/" style="fill-rule:evenodd;clip-rule:evenodd;stroke-linejoin:round;stroke-miterlimit:2;"><rect id="listteaser-admin" x="0" y="-0" width="2083.333" height="2083.333" style="fill:none;"/><g id="ListTeaser"><g><path d="M1739.422,497.665l-115.978,200.797l232.388,0l-116.41,-200.797Z" style="fill:#566b8d;fill-rule:nonzero;"/><path d="M1881.797,560.414l-96.937,138.048l194.306,0l-97.369,-138.048Z" style="fill:#566b8d;fill-rule:nonzero;"/><circle cx="1851.937" cy="467.805" r="29.86" style="fill:#566b8d;"/></g><g><path d="M1739.422,1444.591l-115.978,200.797l232.388,0l-116.41,-200.797Z" style="fill:#566b8d;fill-rule:nonzero;"/><path d="M1881.797,1507.34l-96.937,138.048l194.306,0l-97.369,-138.048Z" style="fill:#566b8d;fill-rule:nonzero;"/><circle cx="1851.937" cy="1414.731" r="29.86" style="fill:#566b8d;"/></g><g><path d="M1739.422,971.128l-115.978,200.797l232.388,0l-116.41,-200.797Z" style="fill:#566b8d;fill-rule:nonzero;"/><path d="M1881.797,1033.877l-96.937,138.048l194.306,0l-97.369,-138.048Z" style="fill:#566b8d;fill-rule:nonzero;"/><circle cx="1851.937" cy="941.268" r="29.86" style="fill:#566b8d;"/></g><g><rect x="104.167" y="487.896" width="601.164" height="97.457" style="fill:#566b8d;"/><rect x="815.063" y="487.896" width="793.529" height="43.433" style="fill:#566b8d;"/><rect x="815.063" y="961.359" width="793.529" height="43.433" style="fill:#566b8d;"/><rect x="815.063" y="1434.822" width="793.529" height="43.433" style="fill:#566b8d;"/><rect x="815.063" y="568.204" width="793.529" height="43.433" style="fill:#566b8d;"/><rect x="815.063" y="1041.667" width="793.529" height="43.433" style="fill:#566b8d;"/><rect x="815.063" y="1515.13" width="793.529" height="43.433" style="fill:#566b8d;"/><rect x="815.063" y="655.029" width="396.764" height="43.433" style="fill:#566b8d;"/><rect x="815.063" y="1128.492" width="396.764" height="43.433" style="fill:#566b8d;"/><rect x="815.063" y="1601.955" width="396.764" height="43.433" style="fill:#566b8d;"/><rect x="104.167" y="643.397" width="407.933" height="97.457" style="fill:#566b8d;"/></g></g></svg>