<?xml version="1.0" encoding="UTF-8" standalone="no"?><!DOCTYPE svg PUBLIC "-//W3C//DTD SVG 1.1//EN" "http://www.w3.org/Graphics/SVG/1.1/DTD/svg11.dtd"><svg width="100%" height="100%" viewBox="0 0 2084 2084" version="1.1" xmlns="http://www.w3.org/2000/svg" xmlns:xlink="http://www.w3.org/1999/xlink" xml:space="preserve" xmlns:serif="http://www.serif.com/" style="fill-rule:evenodd;clip-rule:evenodd;stroke-linejoin:round;stroke-miterlimit:2;"><rect id="listteaser-element" x="0" y="-0" width="2083.333" height="2083.333" style="fill:none;"/><g id="element"><path d="M1784.418,140.539c87.221,0 158.375,71.153 158.375,158.375l0,1485.504c0,87.221 -71.153,158.375 -158.375,158.375l-1485.504,0c-87.221,0 -158.375,-71.153 -158.375,-158.375l0,-1485.504c0,-87.221 71.153,-158.375 158.375,-158.375l1485.504,0m0,-78.039l-1485.504,0c-130.831,0 -236.414,106.042 -236.414,236.414l0,1485.504c0,130.831 106.042,236.415 236.414,236.415l1485.504,0c130.831,0 236.415,-106.042 236.415,-236.415l0,-1485.504c0,-130.831 -105.584,-236.414 -236.415,-236.414Z" style="fill:#566b8d;fill-rule:nonzero;"/></g><g id="ListTeaser"><g><path d="M1599.871,606.465l-92.782,160.638l185.911,0l-93.128,-160.638Z" style="fill:#566b8d;fill-rule:nonzero;"/><path d="M1713.771,656.665l-77.549,110.438l155.445,0l-77.895,-110.438Z" style="fill:#566b8d;fill-rule:nonzero;"/><circle cx="1689.883" cy="582.577" r="23.888" style="fill:#566b8d;"/></g><g><path d="M1599.871,1364.006l-92.782,160.638l185.911,0l-93.128,-160.638Z" style="fill:#566b8d;fill-rule:nonzero;"/><path d="M1713.771,1414.205l-77.549,110.438l155.445,0l-77.895,-110.438Z" style="fill:#566b8d;fill-rule:nonzero;"/><circle cx="1689.883" cy="1340.118" r="23.888" style="fill:#566b8d;"/></g><g><path d="M1599.871,985.236l-92.782,160.638l185.911,0l-93.128,-160.638Z" style="fill:#566b8d;fill-rule:nonzero;"/><path d="M1713.771,1035.435l-77.549,110.438l155.445,0l-77.895,-110.438Z" style="fill:#566b8d;fill-rule:nonzero;"/><circle cx="1689.883" cy="961.348" r="23.888" style="fill:#566b8d;"/></g><g><rect x="291.667" y="598.65" width="480.931" height="77.965" style="fill:#566b8d;"/><rect x="860.384" y="598.65" width="634.823" height="34.746" style="fill:#566b8d;"/><rect x="860.384" y="977.421" width="634.823" height="34.746" style="fill:#566b8d;"/><rect x="860.384" y="1356.191" width="634.823" height="34.746" style="fill:#566b8d;"/><rect x="860.384" y="662.896" width="634.823" height="34.746" style="fill:#566b8d;"/><rect x="860.384" y="1041.667" width="634.823" height="34.746" style="fill:#566b8d;"/><rect x="860.384" y="1420.437" width="634.823" height="34.746" style="fill:#566b8d;"/><rect x="860.384" y="732.357" width="317.412" height="34.746" style="fill:#566b8d;"/><rect x="860.384" y="1111.127" width="317.412" height="34.746" style="fill:#566b8d;"/><rect x="860.384" y="1489.897" width="317.412" height="34.746" style="fill:#566b8d;"/><rect x="291.667" y="723.051" width="326.346" height="77.965" style="fill:#566b8d;"/></g></g></svg>