<?xml version="1.0" encoding="UTF-8" standalone="no"?><!DOCTYPE svg PUBLIC "-//W3C//DTD SVG 1.1//EN" "http://www.w3.org/Graphics/SVG/1.1/DTD/svg11.dtd"><svg width="100%" height="100%" viewBox="0 0 2084 2084" version="1.1" xmlns="http://www.w3.org/2000/svg" xmlns:xlink="http://www.w3.org/1999/xlink" xml:space="preserve" xmlns:serif="http://www.serif.com/" style="fill-rule:evenodd;clip-rule:evenodd;stroke-linejoin:round;stroke-miterlimit:2;"><rect id="lock-admin" x="0" y="-0" width="2083.333" height="2083.333" style="fill:none;"/><g id="Lock"><path d="M1680.333,534.862c119.081,0 215.616,96.535 215.616,215.616l0,1013.073c-0,119.081 -96.535,215.616 -215.616,215.616l-1277.332,-0c-119.081,-0 -215.616,-96.535 -215.616,-215.616l-0,-1013.073c0,-119.081 96.535,-215.616 215.616,-215.616l1277.332,0Zm-780.565,867.027l0,338.026l313.602,0l0,-338.026c73.32,-50.136 121.476,-134.423 121.476,-229.869c0,-153.585 -124.692,-278.277 -278.277,-278.277c-153.585,0 -278.277,124.692 -278.277,278.277c0,95.446 48.156,179.733 121.476,229.869Z" style="fill:#566b8d;"/><path d="M1680.333,534.862c119.081,0 215.616,96.535 215.616,215.616l0,1013.073c-0,119.081 -96.535,215.616 -215.616,215.616l-1277.332,-0c-119.081,-0 -215.616,-96.535 -215.616,-215.616l-0,-1013.073c0,-119.081 96.535,-215.616 215.616,-215.616l1277.332,0Zm-0,69.672l-1277.332,0c-80.602,0 -145.944,65.341 -145.944,145.944l0,1013.073c0,80.603 65.341,145.944 145.944,145.944l1277.332,-0c80.602,-0 145.944,-65.341 145.944,-145.944l-0,-1013.073c-0,-80.603 -65.341,-145.944 -145.944,-145.944Zm-850.237,831.578c-74.362,-63.825 -121.477,-158.504 -121.477,-264.093c0,-192.038 155.911,-347.949 347.949,-347.949c192.038,0 347.949,155.911 347.949,347.949c0,105.589 -47.115,200.268 -121.476,264.093l0,303.802c-0,38.479 -31.193,69.672 -69.672,69.672l-313.602,0c-38.479,-0 -69.672,-31.193 -69.672,-69.672l0,-303.802Zm69.672,-34.224l0,338.026l313.602,0l0,-338.026c73.32,-50.136 121.476,-134.423 121.476,-229.869c0,-153.585 -124.692,-278.277 -278.277,-278.277c-153.585,0 -278.277,124.692 -278.277,278.277c0,95.446 48.156,179.733 121.476,229.869Z" style="fill:#566b8d;"/><path d="M1454.91,720.14l-796.683,0c-60.097,0 -108.816,-48.719 -108.816,-108.816c-0,-280.095 227.062,-507.157 507.157,-507.157c280.095,0 507.157,227.062 507.157,507.157c0,60.097 -48.719,108.816 -108.816,108.816Zm-720.099,-115.976l643.516,0.003c-3.817,-212.741 -108.106,-314.665 -321.758,-314.665c-213.651,0 -317.939,101.922 -321.758,314.662Z" style="fill:#566b8d;"/></g></svg>