<?xml version="1.0" encoding="UTF-8" standalone="no"?><!DOCTYPE svg PUBLIC "-//W3C//DTD SVG 1.1//EN" "http://www.w3.org/Graphics/SVG/1.1/DTD/svg11.dtd"><svg width="100%" height="100%" viewBox="0 0 2084 2084" version="1.1" xmlns="http://www.w3.org/2000/svg" xmlns:xlink="http://www.w3.org/1999/xlink" xml:space="preserve" xmlns:serif="http://www.serif.com/" style="fill-rule:evenodd;clip-rule:evenodd;stroke-linejoin:round;stroke-miterlimit:2;"><rect id="lock-element" x="0" y="0" width="2083.333" height="2083.333" style="fill:none;"/><g id="element"><path d="M1784.418,140.539c87.221,0 158.375,71.153 158.375,158.375l0,1485.504c0,87.221 -71.153,158.375 -158.375,158.375l-1485.504,0c-87.221,0 -158.375,-71.153 -158.375,-158.375l0,-1485.504c0,-87.221 71.153,-158.375 158.375,-158.375l1485.504,0m0,-78.039l-1485.504,0c-130.831,0 -236.414,106.042 -236.414,236.414l0,1485.504c0,130.831 106.042,236.415 236.414,236.415l1485.504,0c130.831,0 236.415,-106.042 236.415,-236.415l0,-1485.504c0,-130.831 -105.584,-236.414 -236.415,-236.414Z" style="fill:#566b8d;fill-rule:nonzero;"/></g><g id="Lock"><path d="M1552.599,636.223c95.265,0 172.493,77.228 172.493,172.493l0,810.458c-0,95.265 -77.228,172.493 -172.493,172.493l-1021.865,-0c-95.265,-0 -172.493,-77.228 -172.493,-172.493l-0,-810.458c0,-95.265 77.228,-172.493 172.493,-172.493l1021.865,0Zm-624.452,693.621l0,270.42l250.881,0l0,-270.42c58.656,-40.109 97.181,-107.539 97.181,-183.895c0,-122.868 -99.753,-222.622 -222.622,-222.622c-122.868,0 -222.622,99.753 -222.622,222.622c0,76.357 38.525,143.786 97.181,183.895Z" style="fill:#566b8d;"/><path d="M1552.599,636.223c95.265,0 172.493,77.228 172.493,172.493l0,810.458c-0,95.265 -77.228,172.493 -172.493,172.493l-1021.865,-0c-95.265,-0 -172.493,-77.228 -172.493,-172.493l-0,-810.458c0,-95.265 77.228,-172.493 172.493,-172.493l1021.865,0Zm-0,69.672l-1021.866,0c-56.786,0 -102.82,46.034 -102.821,102.821l0,810.459c0,56.786 46.035,102.821 102.821,102.821l1021.866,-0c56.786,-0 102.82,-46.034 102.821,-102.821l-0,-810.459c-0,-56.786 -46.034,-102.821 -102.821,-102.821Zm-694.124,657.638c-59.653,-53.521 -97.181,-131.208 -97.181,-217.584c0,-161.321 130.972,-292.294 292.294,-292.294c161.321,0 292.294,130.972 292.294,292.294c0,86.376 -37.53,164.064 -97.181,217.584l0,236.732c0,38.479 -31.193,69.672 -69.672,69.672l-250.881,0c-38.479,-0 -69.672,-31.193 -69.672,-69.672l0,-236.731Zm69.672,-33.689l0,270.42l250.881,0l0,-270.42c58.656,-40.109 97.181,-107.539 97.181,-183.895c0,-122.868 -99.753,-222.622 -222.622,-222.622c-122.868,0 -222.622,99.753 -222.622,222.622c0,76.357 38.525,143.786 97.181,183.895Z" style="fill:#566b8d;"/><path d="M1372.261,784.445l-637.346,0c-48.078,0 -87.053,-38.975 -87.053,-87.053c-0,-224.076 181.65,-405.726 405.726,-405.726c224.076,0 405.726,181.65 405.726,405.726c0,48.078 -38.975,87.053 -87.053,87.053Zm-576.08,-92.781l514.813,0.002c-3.054,-170.192 -86.485,-251.732 -257.406,-251.732c-170.921,0 -254.351,81.538 -257.406,251.729Z" style="fill:#566b8d;"/></g></svg>