<?xml version="1.0" encoding="UTF-8" standalone="no"?><!DOCTYPE svg PUBLIC "-//W3C//DTD SVG 1.1//EN" "http://www.w3.org/Graphics/SVG/1.1/DTD/svg11.dtd"><svg width="100%" height="100%" viewBox="0 0 2084 2084" version="1.1" xmlns="http://www.w3.org/2000/svg" xmlns:xlink="http://www.w3.org/1999/xlink" xml:space="preserve" xmlns:serif="http://www.serif.com/" style="fill-rule:evenodd;clip-rule:evenodd;stroke-linejoin:round;stroke-miterlimit:2;"><rect id="lock-page" x="0" y="0" width="2083.333" height="2083.333" style="fill:none;"/><clipPath id="_clip1"><rect x="0" y="0" width="2083.333" height="2083.333"/></clipPath><g clip-path="url(#_clip1)"><g id="page"><path d="M1796.35,371.135c8.271,8.293 12.916,19.527 12.916,31.24c0,164.411 0,1387.535 0,1636.72c0,11.733 -4.661,22.985 -12.957,31.281c-8.296,8.296 -19.548,12.957 -31.281,12.957c-223.172,-0 -1223.551,0 -1446.723,0c-11.733,-0 -22.985,-4.661 -31.281,-12.957c-8.296,-8.296 -12.957,-19.548 -12.957,-31.281c-0,-272.779 -0,-1723.487 0,-1996.265c-0,-11.733 4.661,-22.985 12.957,-31.281c8.296,-8.296 19.548,-12.957 31.281,-12.957c193.261,-0 959.525,-0 1088.117,-0c11.753,0 23.022,4.677 31.322,12.998c58.779,58.933 299.926,300.711 358.606,359.545Zm-480.642,-296.991c0,0 -732.513,-0 -921.851,-0c-11.733,0 -22.985,4.661 -31.281,12.957c-8.296,8.296 -12.957,19.548 -12.957,31.281c-0,259.863 -0,1585.297 -0,1845.161c-0,11.733 4.661,22.985 12.957,31.281c8.296,8.296 19.548,12.957 31.281,12.957c208.033,0 1087.585,0 1295.618,0c24.432,-0 44.238,-19.806 44.238,-44.238c0,-250.136 0,-1476.131 0,-1476.131c0,0 -266.253,0 -373.767,0c-24.432,0 -44.238,-19.806 -44.238,-44.238c-0,-106.619 -0,-369.03 -0,-369.03Zm76.77,0l-1.217,-0c0,-0 0,201.894 0,293.477c0,24.432 19.806,44.238 44.238,44.238c91.838,-0 294.695,-0 294.695,-0l-337.715,-337.715Z" style="fill:#566b8d;"/></g><g id="Lock"><path d="M1439.059,1003.508c74.095,0 134.161,60.066 134.161,134.161l0,630.357c-0,74.095 -60.066,134.161 -134.161,134.161l-794.784,-0c-74.095,-0 -134.161,-60.066 -134.161,-134.161l-0,-630.357c0,-74.095 60.066,-134.161 134.161,-134.161l794.784,0Zm-485.685,539.483l0,210.327l195.13,0l0,-210.327c45.621,-31.196 75.585,-83.641 75.585,-143.03c0,-95.564 -77.586,-173.15 -173.15,-173.15c-95.564,0 -173.15,77.586 -173.15,173.15c0,59.388 29.964,111.834 75.585,143.03Z" style="fill:#566b8d;"/><path d="M1439.059,1003.508c74.095,0 134.161,60.066 134.161,134.161l0,630.357c-0,74.095 -60.066,134.161 -134.161,134.161l-794.784,-0c-74.095,-0 -134.161,-60.066 -134.161,-134.161l-0,-630.357c0,-74.095 60.066,-134.161 134.161,-134.161l794.784,0Zm-0,69.672l-794.784,0c-35.616,0 -64.489,28.873 -64.489,64.489l0,630.357c0,35.616 28.873,64.489 64.489,64.489l794.784,-0c35.616,-0 64.489,-28.873 64.489,-64.489l-0,-630.357c-0,-35.616 -28.873,-64.489 -64.489,-64.489Zm-555.356,502.789c-46.56,-44.246 -75.586,-106.767 -75.586,-176.007c0,-134.017 108.805,-242.822 242.822,-242.822c134.017,0 242.822,108.805 242.822,242.822c0,69.241 -29.027,131.763 -75.585,176.007l0,177.35c0,38.479 -31.193,69.672 -69.672,69.672l-195.13,0c-38.479,0 -69.672,-31.193 -69.672,-69.672l0.001,-177.349Zm69.671,-32.978l0,210.327l195.13,0l0,-210.327c45.621,-31.196 75.585,-83.641 75.585,-143.03c0,-95.564 -77.586,-173.15 -173.15,-173.15c-95.564,0 -173.15,77.586 -173.15,173.15c0,59.388 29.964,111.834 75.585,143.03Z" style="fill:#566b8d;"/><path d="M1298.796,1118.793l-495.714,0c-37.394,0 -67.708,-30.314 -67.708,-67.708c-0,-174.282 141.283,-315.565 315.565,-315.565c174.281,0 315.565,141.283 315.565,315.565c0,37.394 -30.314,67.708 -67.708,67.708Zm-448.062,-72.163l400.41,0.002c-2.375,-132.372 -67.266,-195.791 -200.205,-195.791c-132.939,0 -197.829,63.418 -200.205,195.79Z" style="fill:#566b8d;"/></g></g></svg>