<?xml version="1.0" encoding="UTF-8" standalone="no"?><!DOCTYPE svg PUBLIC "-//W3C//DTD SVG 1.1//EN" "http://www.w3.org/Graphics/SVG/1.1/DTD/svg11.dtd"><svg width="100%" height="100%" viewBox="0 0 2084 2088" version="1.1" xmlns="http://www.w3.org/2000/svg" xmlns:xlink="http://www.w3.org/1999/xlink" xml:space="preserve" xmlns:serif="http://www.serif.com/" style="fill-rule:evenodd;clip-rule:evenodd;stroke-linejoin:round;stroke-miterlimit:2;"><rect id="map-element" x="0" y="0.406" width="2083.333" height="2083.333" style="fill:none;"/><g id="Element"><path d="M1784.418,142.825c87.221,0 158.375,71.153 158.375,158.375l0,1485.504c0,87.221 -71.153,158.375 -158.375,158.375l-1485.504,0c-87.221,0 -158.375,-71.153 -158.375,-158.375l0,-1485.504c0,-87.221 71.153,-158.375 158.375,-158.375l1485.504,0m0,-78.039l-1485.504,0c-130.831,0 -236.414,106.042 -236.414,236.414l0,1485.504c0,130.831 106.042,236.415 236.414,236.415l1485.504,0c130.831,0 236.415,-106.042 236.415,-236.415l0,-1485.504c0,-130.831 -105.584,-236.414 -236.415,-236.414Z" style="fill:#566b8d;fill-rule:nonzero;"/></g><g id="Map"><path id="Map1" serif:id="Map" d="M911.021,295.833l602.129,0l-273.597,947.887l-947.887,0l0,-471.041c4,6.317 8.157,12.665 12.472,19.043c56.555,83.588 141.786,174.409 256.32,271.869c22.268,18.949 54.993,18.949 77.261,0c114.534,-97.46 199.764,-188.281 256.32,-271.869c62.106,-91.792 91.418,-177.377 91.418,-255.498c0,-95.728 -25.242,-175.684 -74.435,-240.391Zm814.378,0c17.575,-0 34.431,6.982 46.859,19.409c12.428,12.428 19.409,29.283 19.409,46.859l0,881.619l-463.756,0l273.597,-947.887l123.891,0Zm-646.899,1500l-720.565,0c-36.599,-0 -66.268,-29.669 -66.268,-66.268l0,-397.488l928.483,0l-141.649,463.756Zm713.167,-463.756l0,397.488c0,17.575 -6.982,34.431 -19.409,46.859c-12.428,12.428 -29.283,19.409 -46.859,19.409l-558.542,0l141.649,-463.756l483.16,0Zm-1192.578,-357.661c-97.853,-83.267 -170.939,-160.607 -219.258,-232.022c-48.319,-71.415 -72.478,-137.511 -72.478,-198.29c0,-91.168 29.326,-163.798 87.977,-217.891c58.651,-54.093 126.571,-81.139 203.76,-81.139c77.189,0 145.109,27.046 203.76,81.139c58.651,54.093 87.977,126.723 87.977,217.891c0,60.778 -24.159,126.875 -72.478,198.29c-48.319,71.415 -121.405,148.755 -219.258,232.022Zm0,-96.638c74.15,-68.072 129.154,-129.914 165.014,-185.526c35.859,-55.612 53.789,-104.995 53.789,-148.148c0,-66.249 -21.121,-120.493 -63.362,-162.734c-42.241,-42.241 -94.055,-63.362 -155.441,-63.362c-61.386,0 -113.2,21.121 -155.441,63.362c-42.241,42.241 -63.362,96.486 -63.362,162.734c0,43.153 17.93,92.535 53.789,148.148c35.859,55.612 90.864,117.454 165.014,185.526Zm0.167,-466.418c70.265,0 127.312,57.046 127.312,127.312c0,70.265 -57.046,127.312 -127.312,127.312c-70.265,0 -127.312,-57.046 -127.312,-127.312c0,-70.265 57.046,-127.312 127.312,-127.312Z" style="fill:#566b8d;"/></g></svg>