<?xml version="1.0" encoding="UTF-8" standalone="no"?><!DOCTYPE svg PUBLIC "-//W3C//DTD SVG 1.1//EN" "http://www.w3.org/Graphics/SVG/1.1/DTD/svg11.dtd"><svg width="100%" height="100%" viewBox="0 0 2088 2084" version="1.1" xmlns="http://www.w3.org/2000/svg" xmlns:xlink="http://www.w3.org/1999/xlink" xml:space="preserve" xmlns:serif="http://www.serif.com/" style="fill-rule:evenodd;clip-rule:evenodd;stroke-linejoin:round;stroke-miterlimit:2;"><rect id="map-admin" x="3.327" y="0" width="2083.333" height="2083.333" style="fill:none;"/><g id="Map"><path id="Map1" serif:id="Map" d="M881.686,104.167l752.661,0l-341.996,1184.858l-1184.858,0l0,-588.801c5,7.897 10.196,15.832 15.59,23.804c70.694,104.485 177.232,218.011 320.399,339.836c27.835,23.686 68.741,23.686 96.576,0c143.167,-121.825 249.705,-235.351 320.399,-339.836c77.632,-114.739 114.272,-221.721 114.272,-319.372c0,-119.66 -31.552,-219.605 -93.044,-300.489Zm1017.972,0c21.969,-0 43.039,8.727 58.573,24.262c15.535,15.535 24.262,36.604 24.262,58.573l0,1102.023l-579.695,0l341.996,-1184.858l154.864,0Zm-808.624,1875l-900.706,0c-45.748,-0 -82.835,-37.086 -82.835,-82.835l0,-496.86l1160.603,0l-177.062,579.695Zm891.459,-579.695l0,496.86c0,21.969 -8.727,43.039 -24.262,58.573c-15.535,15.535 -36.604,24.262 -58.573,24.262l-698.177,0l177.062,-579.695l603.95,0Zm-1490.723,-447.076c-122.317,-104.083 -213.674,-200.759 -274.073,-290.027c-60.399,-89.268 -90.598,-171.889 -90.598,-247.862c0,-113.96 36.657,-204.747 109.971,-272.364c73.314,-67.616 158.214,-101.424 254.7,-101.424c96.486,0 181.386,33.808 254.7,101.424c73.314,67.616 109.971,158.404 109.971,272.364c0,75.973 -30.199,158.594 -90.598,247.862c-60.399,89.268 -151.756,185.944 -274.073,290.027Zm0,-120.797c92.687,-85.09 161.443,-162.392 206.267,-231.908c44.824,-69.515 67.236,-131.244 67.236,-185.184c0,-82.811 -26.401,-150.617 -79.202,-203.418c-52.801,-52.801 -117.568,-79.202 -194.301,-79.202c-76.733,0 -141.5,26.401 -194.301,79.202c-52.801,52.801 -79.202,120.607 -79.202,203.418c0,53.941 22.412,115.669 67.236,185.184c44.824,69.515 113.58,146.818 206.267,231.908Zm0.208,-583.022c87.832,0 159.14,71.308 159.14,159.14c0,87.832 -71.308,159.14 -159.14,159.14c-87.832,0 -159.14,-71.308 -159.14,-159.14c0,-87.832 71.308,-159.14 159.14,-159.14Z" style="fill:#566b8d;"/></g></svg>