<?xml version="1.0" encoding="UTF-8" standalone="no"?><!DOCTYPE svg PUBLIC "-//W3C//DTD SVG 1.1//EN" "http://www.w3.org/Graphics/SVG/1.1/DTD/svg11.dtd"><svg width="100%" height="100%" viewBox="0 0 2084 2084" version="1.1" xmlns="http://www.w3.org/2000/svg" xmlns:xlink="http://www.w3.org/1999/xlink" xml:space="preserve" xmlns:serif="http://www.serif.com/" style="fill-rule:evenodd;clip-rule:evenodd;stroke-linejoin:round;stroke-miterlimit:2;"><rect id="map-page" x="0" y="0" width="2083.333" height="2083.333" style="fill:none;"/><clipPath id="_clip1"><rect x="0" y="0" width="2083.333" height="2083.333"/></clipPath><g clip-path="url(#_clip1)"><g id="Map"><path id="Map1" serif:id="Map" d="M939.817,735.52l468.323,0l-212.797,737.245l-737.245,0l0,-366.365c3.111,4.914 6.344,9.851 9.7,14.811c43.988,65.013 110.278,135.651 199.36,211.454c17.32,14.738 42.772,14.738 60.092,0c89.082,-75.802 155.372,-146.441 199.36,-211.454c48.304,-71.393 71.103,-137.96 71.103,-198.72c0,-74.455 -19.633,-136.643 -57.894,-186.971Zm633.405,0c13.67,-0 26.78,5.43 36.446,15.096c9.666,9.666 15.096,22.776 15.096,36.446l0,685.703l-360.699,0l212.797,-737.245l96.36,0Zm-503.144,1166.667l-560.44,0c-28.466,-0 -51.542,-23.076 -51.542,-51.542l0,-309.157l722.153,0l-110.172,360.699Zm554.685,-360.699l0,309.157c0,13.67 -5.43,26.78 -15.096,36.446c-9.666,9.666 -22.776,15.096 -36.446,15.096l-434.421,0l110.172,-360.699l375.791,0Zm-927.561,-278.181c-76.108,-64.763 -132.953,-124.917 -170.534,-180.461c-37.581,-55.545 -56.372,-106.953 -56.372,-154.225c0,-70.908 22.809,-127.398 68.426,-169.471c45.618,-42.072 98.444,-63.108 158.48,-63.108c60.036,0 112.862,21.036 158.48,63.108c45.618,42.072 68.426,98.562 68.426,169.471c0,47.272 -18.791,98.681 -56.372,154.225c-37.581,55.545 -94.426,115.699 -170.534,180.461Zm0,-75.163c57.672,-52.945 100.453,-101.044 128.344,-144.298c27.891,-43.254 41.836,-81.663 41.836,-115.226c0,-51.527 -16.427,-93.717 -49.281,-126.571c-32.854,-32.854 -73.154,-49.281 -120.899,-49.281c-47.745,0 -88.044,16.427 -120.899,49.281c-32.854,32.854 -49.281,75.045 -49.281,126.571c0,33.563 13.945,71.972 41.836,115.226c27.891,43.254 70.672,91.353 128.344,144.298Zm0.13,-362.769c54.651,0 99.02,44.369 99.02,99.02c0,54.651 -44.369,99.02 -99.02,99.02c-54.651,0 -99.02,-44.369 -99.02,-99.02c0,-54.651 44.369,-99.02 99.02,-99.02Z" style="fill:#566b8d;"/></g><g id="page"><path d="M1796.35,372.543c8.271,8.293 12.916,19.527 12.916,31.24c0,164.411 0,1387.535 0,1636.72c0,11.733 -4.661,22.985 -12.957,31.281c-8.296,8.296 -19.548,12.957 -31.281,12.957c-223.172,-0 -1223.551,0 -1446.723,0c-11.733,-0 -22.985,-4.661 -31.281,-12.957c-8.296,-8.296 -12.957,-19.548 -12.957,-31.281c-0,-272.779 -0,-1723.487 -0,-1996.265c-0,-11.733 4.661,-22.985 12.957,-31.281c8.296,-8.296 19.548,-12.957 31.281,-12.957c193.261,-0 959.525,-0 1088.117,-0c11.753,0 23.022,4.677 31.322,12.998c58.779,58.933 299.926,300.711 358.606,359.545Zm-480.642,-296.991c-0,-0 -732.513,-0 -921.851,-0c-11.733,0 -22.985,4.661 -31.281,12.957c-8.296,8.296 -12.957,19.548 -12.957,31.281c-0,259.863 -0,1585.297 -0,1845.161c-0,11.733 4.661,22.985 12.957,31.281c8.296,8.296 19.548,12.957 31.281,12.957c208.033,0 1087.585,0 1295.618,0c24.432,-0 44.238,-19.806 44.238,-44.238c0,-250.136 0,-1476.131 0,-1476.131c0,0 -266.253,0 -373.767,0c-24.432,0 -44.238,-19.806 -44.238,-44.238c-0,-106.619 -0,-369.03 -0,-369.03Zm76.77,0l-1.217,-0c0,-0 0,201.894 0,293.477c0,24.432 19.806,44.238 44.238,44.238c91.838,-0 294.695,-0 294.695,-0l-337.715,-337.715Z" style="fill:#566b8d;"/></g></g></svg>