<?xml version="1.0" encoding="UTF-8" standalone="no"?><!DOCTYPE svg PUBLIC "-//W3C//DTD SVG 1.1//EN" "http://www.w3.org/Graphics/SVG/1.1/DTD/svg11.dtd"><svg width="100%" height="100%" viewBox="0 0 2088 2084" version="1.1" xmlns="http://www.w3.org/2000/svg" xmlns:xlink="http://www.w3.org/1999/xlink" xml:space="preserve" xmlns:serif="http://www.serif.com/" style="fill-rule:evenodd;clip-rule:evenodd;stroke-linejoin:round;stroke-miterlimit:2;"><rect id="marker-admin" x="3.327" y="0" width="2083.333" height="2083.333" style="fill:none;"/><g id="Marker"><path id="Marker1" serif:id="Marker" d="M1044.994,1979.167c-251.562,-214.062 -439.453,-412.891 -563.672,-596.484c-124.219,-183.594 -186.328,-353.516 -186.328,-509.766c0,-234.375 75.391,-421.094 226.172,-560.156c150.781,-139.062 325.391,-208.594 523.828,-208.594c198.437,0 373.047,69.531 523.828,208.594c150.781,139.063 226.172,325.781 226.172,560.156c0,156.25 -62.109,326.172 -186.328,509.766c-124.219,183.594 -312.109,382.422 -563.672,596.484Zm0,-248.437c190.625,-175 332.031,-333.984 424.219,-476.953c92.188,-142.969 138.281,-269.922 138.281,-380.859c0,-170.312 -54.297,-309.766 -162.891,-418.359c-108.594,-108.594 -241.797,-162.891 -399.609,-162.891c-157.812,0 -291.016,54.297 -399.609,162.891c-108.594,108.594 -162.891,248.047 -162.891,418.359c0,110.938 46.094,237.891 138.281,380.859c92.188,142.969 233.594,301.953 424.219,476.953Zm0,-1232.007c196.285,0 355.644,159.359 355.644,355.644c0,196.285 -159.359,355.644 -355.644,355.644c-196.285,0 -355.644,-159.359 -355.644,-355.644c0,-196.285 159.359,-355.644 355.644,-355.644Z" style="fill:#566b8d;"/></g></svg>