<?xml version="1.0" encoding="UTF-8" standalone="no"?><!DOCTYPE svg PUBLIC "-//W3C//DTD SVG 1.1//EN" "http://www.w3.org/Graphics/SVG/1.1/DTD/svg11.dtd"><svg width="100%" height="100%" viewBox="0 0 2084 2084" version="1.1" xmlns="http://www.w3.org/2000/svg" xmlns:xlink="http://www.w3.org/1999/xlink" xml:space="preserve" xmlns:serif="http://www.serif.com/" style="fill-rule:evenodd;clip-rule:evenodd;stroke-linejoin:round;stroke-miterlimit:2;"><rect id="marker-page" x="0" y="0" width="2083.333" height="2083.333" style="fill:none;"/><clipPath id="_clip1"><rect x="0" y="0" width="2083.333" height="2083.333"/></clipPath><g clip-path="url(#_clip1)"><g id="Marker"><path id="Marker1" serif:id="Marker" d="M1041.667,1902.187c-156.528,-133.194 -273.438,-256.91 -350.729,-371.146c-77.292,-114.236 -115.938,-219.965 -115.938,-317.188c0,-145.833 46.91,-262.014 140.729,-348.542c93.819,-86.528 202.465,-129.792 325.938,-129.792c123.472,0 232.118,43.264 325.938,129.792c93.819,86.528 140.729,202.708 140.729,348.542c0,97.222 -38.646,202.951 -115.938,317.188c-77.292,114.236 -194.201,237.951 -350.729,371.146Zm0,-154.583c118.611,-108.889 206.597,-207.813 263.958,-296.771c57.361,-88.958 86.042,-167.951 86.042,-236.979c0,-105.972 -33.785,-192.743 -101.354,-260.313c-67.569,-67.569 -150.451,-101.354 -248.646,-101.354c-98.194,0 -181.076,33.785 -248.646,101.354c-67.569,67.569 -101.354,154.34 -101.354,260.313c0,69.028 28.681,148.021 86.042,236.979c57.361,88.958 145.347,187.882 263.958,296.771Zm0,-766.582c122.133,0 221.289,99.156 221.289,221.289c0,122.133 -99.156,221.289 -221.289,221.289c-122.133,0 -221.289,-99.156 -221.289,-221.289c0,-122.133 99.156,-221.289 221.289,-221.289Z" style="fill:#566b8d;"/></g><g id="page"><path d="M1796.35,372.543c8.271,8.293 12.916,19.527 12.916,31.24c0,164.411 0,1387.535 0,1636.72c0,11.733 -4.661,22.985 -12.957,31.281c-8.296,8.296 -19.548,12.957 -31.281,12.957c-223.172,0 -1223.551,0 -1446.723,0c-11.733,-0 -22.985,-4.661 -31.281,-12.957c-8.296,-8.296 -12.957,-19.548 -12.957,-31.281c-0,-272.779 -0,-1723.487 -0,-1996.265c-0,-11.733 4.661,-22.985 12.957,-31.281c8.296,-8.296 19.548,-12.957 31.281,-12.957c193.261,-0 959.525,-0 1088.117,-0c11.753,0 23.022,4.677 31.322,12.998c58.779,58.933 299.926,300.711 358.606,359.545Zm-480.642,-296.991c0,0 -732.513,-0 -921.851,-0c-11.733,0 -22.985,4.661 -31.281,12.957c-8.296,8.296 -12.957,19.548 -12.957,31.281c-0,259.863 -0,1585.297 -0,1845.161c-0,11.733 4.661,22.985 12.957,31.281c8.296,8.296 19.548,12.957 31.281,12.957c208.033,0 1087.585,0 1295.618,0c24.432,-0 44.238,-19.806 44.238,-44.238c0,-250.136 0,-1476.131 0,-1476.131l-373.767,0c-24.432,0 -44.238,-19.806 -44.238,-44.238c-0,-106.619 -0,-369.03 -0,-369.03Zm76.77,0l-1.217,-0c0,0 0,201.894 0,293.477c0,24.432 19.806,44.238 44.238,44.238c91.838,-0 294.695,-0 294.695,-0l-337.715,-337.715Z" style="fill:#566b8d;"/></g></g></svg>