<?xml version="1.0" encoding="UTF-8" standalone="no"?><!DOCTYPE svg PUBLIC "-//W3C//DTD SVG 1.1//EN" "http://www.w3.org/Graphics/SVG/1.1/DTD/svg11.dtd"><svg width="100%" height="100%" viewBox="0 0 2084 2088" version="1.1" xmlns="http://www.w3.org/2000/svg" xmlns:xlink="http://www.w3.org/1999/xlink" xml:space="preserve" xmlns:serif="http://www.serif.com/" style="fill-rule:evenodd;clip-rule:evenodd;stroke-linejoin:round;stroke-miterlimit:2;"><rect id="marker-element" x="0" y="1.346" width="2083.333" height="2083.333" style="fill:none;"/><g id="Element"><path d="M1784.418,141.885c87.221,0 158.375,71.153 158.375,158.375l0,1485.504c0,87.221 -71.153,158.375 -158.375,158.375l-1485.504,0c-87.221,0 -158.375,-71.153 -158.375,-158.375l0,-1485.504c0,-87.221 71.153,-158.375 158.375,-158.375l1485.504,0m0,-78.039l-1485.504,0c-130.831,0 -236.414,106.042 -236.414,236.414l0,1485.504c0,130.831 106.042,236.415 236.414,236.415l1485.504,0c130.831,0 236.415,-106.042 236.415,-236.415l0,-1485.504c0,-130.831 -105.584,-236.414 -236.415,-236.414Z" style="fill:#566b8d;fill-rule:nonzero;"/></g><g id="Marker"><path id="Marker1" serif:id="Marker" d="M1052.154,1795.833c-201.25,-171.25 -351.563,-330.312 -450.938,-477.188c-99.375,-146.875 -149.063,-282.812 -149.063,-407.812c0,-187.5 60.312,-336.875 180.938,-448.125c120.625,-111.25 260.313,-166.875 419.063,-166.875c158.75,0 298.438,55.625 419.063,166.875c120.625,111.25 180.938,260.625 180.938,448.125c0,125 -49.688,260.938 -149.063,407.812c-99.375,146.875 -249.687,305.938 -450.938,477.188Zm0,-198.75c152.5,-140 265.625,-267.188 339.375,-381.563c73.75,-114.375 110.625,-215.937 110.625,-304.688c0,-136.25 -43.437,-247.812 -130.312,-334.688c-86.875,-86.875 -193.438,-130.313 -319.688,-130.313c-126.25,0 -232.812,43.437 -319.688,130.313c-86.875,86.875 -130.312,198.438 -130.312,334.688c0,88.75 36.875,190.312 110.625,304.688c73.75,114.375 186.875,241.563 339.375,381.563Zm0,-985.606c157.028,0 284.515,127.487 284.515,284.515c0,157.028 -127.487,284.515 -284.515,284.515c-157.028,0 -284.515,-127.487 -284.515,-284.515c0,-157.028 127.487,-284.515 284.515,-284.515Z" style="fill:#566b8d;"/></g></svg>