<?xml version="1.0" encoding="UTF-8" standalone="no"?><!DOCTYPE svg PUBLIC "-//W3C//DTD SVG 1.1//EN" "http://www.w3.org/Graphics/SVG/1.1/DTD/svg11.dtd"><svg width="100%" height="100%" viewBox="0 0 2084 2084" version="1.1" xmlns="http://www.w3.org/2000/svg" xmlns:xlink="http://www.w3.org/1999/xlink" xml:space="preserve" xmlns:serif="http://www.serif.com/" style="fill-rule:evenodd;clip-rule:evenodd;stroke-linejoin:round;stroke-miterlimit:2;"><rect id="material-element" x="0" y="0" width="2083.333" height="2083.333" style="fill:none;"/><g id="element"><path d="M1784.418,140.539c87.221,0 158.375,71.153 158.375,158.375l0,1485.504c0,87.221 -71.153,158.375 -158.375,158.375l-1485.504,0c-87.221,0 -158.375,-71.153 -158.375,-158.375l0,-1485.504c0,-87.221 71.153,-158.375 158.375,-158.375l1485.504,0m0,-78.039l-1485.504,0c-130.831,0 -236.414,106.042 -236.414,236.414l0,1485.504c0,130.831 106.042,236.415 236.414,236.415l1485.504,0c130.831,0 236.415,-106.042 236.415,-236.415l0,-1485.504c0,-130.831 -105.584,-236.414 -236.415,-236.414Z" style="fill:#566b8d;fill-rule:nonzero;"/></g><g id="Material"><path id="Material1" serif:id="Material" d="M562.168,1084.153l840.645,0l0,-381.378c-0,-3.152 0.618,-6.273 1.82,-9.186l70.805,-171.641c3.707,-8.986 12.452,-14.864 22.172,-14.902c9.721,-0.039 18.512,5.769 22.291,14.725l72.415,171.641c1.25,2.963 1.894,6.147 1.894,9.364l0,381.378l61.771,-0c6.024,0 11.531,2.211 15.755,5.866c0.956,0.827 1.848,1.729 2.666,2.7c1.011,1.198 1.907,2.496 2.671,3.877l82.241,142.417c4.304,7.453 4.304,16.636 0.002,24.09c-4.303,7.454 -12.256,12.045 -20.862,12.045l-58.383,0l0,496.894c-0,13.304 -10.785,24.089 -24.089,24.089l-1228.63,0c-13.304,0 -24.089,-10.785 -24.089,-24.089l0,-496.894l-58.383,0c-8.607,-0 -16.559,-4.592 -20.862,-12.045c-4.303,-7.454 -4.302,-16.637 0.002,-24.09l82.241,-142.417c0.764,-1.381 1.66,-2.679 2.671,-3.877c0.819,-0.971 1.711,-1.874 2.666,-2.7c4.224,-3.655 9.731,-5.866 15.755,-5.866l87.309,0l-0,-531.524c0,-9.029 3.581,-17.689 9.956,-24.081l221.815,-222.396c6.398,-6.414 15.085,-10.019 24.144,-10.019l675.317,0c9.044,-0 17.718,3.593 24.113,9.988c6.395,6.395 9.988,15.069 9.988,24.113l0,103.538l-47.507,115.164l-0,-171.194c0,-9.044 -3.593,-17.718 -9.988,-24.113c-6.395,-6.395 -15.069,-9.988 -24.113,-9.988l-573.377,0l-0,225.762c-0,18.833 -15.267,34.101 -34.101,34.101l-228.741,0l0,480.651Zm-158.905,114.311l0,-0.337l-16.656,28.843l16.656,-0l0,-0.048l48.178,0l0,0.048l380.197,-0l54.651,-94.64l-434.848,-0l0,0.039l-10.648,0l-37.53,66.094Zm548.842,549.49l679.788,0l0,-472.806l-621.405,0c-8.605,-0 -16.557,-4.591 -20.861,-12.043l-37.523,-64.978l-0,549.827Zm644.976,-76.992l0,43.23l-54.489,0l0,-43.23l54.489,0Zm-89.843,0l0,43.23l-221.838,0l0,-43.23l221.838,0Zm89.843,-74.728l0,43.23l-238.92,0l0,-43.23l238.92,0Zm-1145.64,-321.085l0,472.806l452.486,0l-0,-549.827l-37.523,64.978c-4.303,7.452 -12.255,12.043 -20.861,12.043l-394.103,0Zm1094.592,-190.996l0,-376.505l-48.076,-113.952l-46.966,113.852l-0,376.605l95.042,0Zm-769.296,-740.514l-212.355,212.356l179.02,0c9.044,0 17.718,-3.593 24.113,-9.988c6.395,-6.395 9.988,-15.069 9.988,-24.113l0,-178.255l-0.766,0Zm855.156,788.73l0,-0.039l-61.771,-0l-600.379,-0l54.651,94.64l607.498,0l0,-0.048l48.178,0l0,0.048l16.656,0l-11,-19.049l-42.9,-75.552l-10.933,0Zm-686.268,-349.161l0,266.167l-339.503,0l0,-266.167l339.503,0Zm412.536,-111.468l0,43.23l-752.039,0l0,-43.23l752.039,0Zm0,111.468l0,43.23l-367.085,0l0,-43.23l367.085,0Zm0,111.468l0,43.23l-367.085,0l0,-43.23l367.085,0Zm0,111.468l0,43.23l-367.085,0l0,-43.23l367.085,0Zm28.48,-445.873l0,43.23l-511.674,0l0,-43.23l511.674,0Zm-0,-111.468l0,43.23l-511.674,0l0,-43.23l511.674,0Z" style="fill:#586c8d;"/></g></svg>