<?xml version="1.0" encoding="UTF-8" standalone="no"?><!DOCTYPE svg PUBLIC "-//W3C//DTD SVG 1.1//EN" "http://www.w3.org/Graphics/SVG/1.1/DTD/svg11.dtd"><svg width="100%" height="100%" viewBox="0 0 2084 2084" version="1.1" xmlns="http://www.w3.org/2000/svg" xmlns:xlink="http://www.w3.org/1999/xlink" xml:space="preserve" xmlns:serif="http://www.serif.com/" style="fill-rule:evenodd;clip-rule:evenodd;stroke-linejoin:round;stroke-miterlimit:2;"><rect id="material-admin" x="0" y="0" width="2083.333" height="2083.333" style="fill:none;"/><g id="Material"><path id="Material1" serif:id="Material" d="M442.293,1089.193l1050.807,0l0,-476.723c-0,-3.94 0.773,-7.841 2.275,-11.483l88.507,-214.551c4.634,-11.233 15.565,-18.58 27.715,-18.628c12.151,-0.049 23.14,7.211 27.863,18.406l90.518,214.551c1.563,3.704 2.368,7.684 2.368,11.705l0,476.723l77.214,-0c7.53,0 14.414,2.764 19.693,7.332c1.195,1.033 2.31,2.161 3.333,3.375c1.263,1.498 2.383,3.12 3.338,4.847l102.801,178.022c5.38,9.316 5.381,20.795 0.002,30.112c-5.379,9.317 -15.32,15.057 -26.078,15.057l-72.979,0l0,621.118c-0,16.63 -13.481,30.111 -30.111,30.111l-1535.788,0c-16.63,0 -30.111,-13.481 -30.111,-30.111l0,-621.118l-72.979,0c-10.758,-0 -20.699,-5.74 -26.078,-15.057c-5.379,-9.317 -5.378,-20.796 0.002,-30.112l102.801,-178.022c0.955,-1.726 2.075,-3.349 3.338,-4.847c1.023,-1.214 2.138,-2.342 3.333,-3.375c5.28,-4.568 12.164,-7.332 19.693,-7.332l109.136,0l-0,-664.405c0,-11.286 4.476,-22.111 12.445,-30.102l277.269,-277.995c7.997,-8.018 18.856,-12.524 30.18,-12.524l844.146,0c11.305,-0 22.147,4.491 30.141,12.485c7.994,7.994 12.485,18.836 12.485,30.141l0,129.423l-59.384,143.955l-0,-213.993c0,-11.305 -4.491,-22.147 -12.485,-30.141c-7.994,-7.994 -18.836,-12.485 -30.141,-12.485l-716.721,0l-0,282.203c-0,23.542 -19.084,42.626 -42.626,42.626l-285.926,0l0,600.813Zm-198.631,142.889l0,-0.421l-20.82,36.054l20.82,-0l0,-0.059l60.222,0l0,0.059l475.246,-0l68.314,-118.3l-543.56,-0l0,0.049l-13.31,0l-46.912,82.618Zm686.053,686.862l849.735,0l0,-591.007l-776.756,0c-10.757,-0 -20.697,-5.738 -26.076,-15.053l-46.903,-81.223l-0,687.283Zm806.22,-96.24l0,54.038l-68.111,0l0,-54.038l68.111,0Zm-112.303,0l0,54.038l-277.297,0l0,-54.038l277.297,0Zm112.303,-93.41l0,54.038l-298.65,0l0,-54.038l298.65,0Zm-1432.051,-401.357l0,591.007l565.608,0l-0,-687.283l-46.903,81.223c-5.379,9.315 -15.319,15.053 -26.076,15.053l-492.629,0Zm1368.24,-238.745l0,-470.631l-60.095,-142.44l-58.708,142.315l-0,470.756l118.803,0Zm-961.62,-925.642l-265.444,265.444l223.775,0c11.305,0 22.147,-4.491 30.141,-12.485c7.994,-7.994 12.485,-18.836 12.485,-30.141l0,-222.818l-0.957,0Zm1068.945,985.913l0,-0.049l-77.214,-0l-750.473,-0l68.314,118.3l759.373,0l0,-0.059l60.222,0l0,0.059l20.82,0l-13.75,-23.811l-53.625,-94.44l-13.667,0Zm-857.835,-436.452l0,332.709l-424.379,0l0,-332.709l424.379,0Zm515.67,-139.335l0,54.038l-940.049,0l0,-54.038l940.049,0Zm0,139.335l0,54.038l-458.856,0l0,-54.038l458.856,0Zm0,139.335l0,54.038l-458.856,0l0,-54.038l458.856,0Zm0,139.335l0,54.038l-458.856,0l0,-54.038l458.856,0Zm35.6,-557.342l0,54.038l-639.592,0l0,-54.038l639.592,0Zm-0,-139.335l0,54.038l-639.592,0l0,-54.038l639.592,0Z" style="fill:#586c8d;"/></g></svg>