<?xml version="1.0" encoding="UTF-8" standalone="no"?><!DOCTYPE svg PUBLIC "-//W3C//DTD SVG 1.1//EN" "http://www.w3.org/Graphics/SVG/1.1/DTD/svg11.dtd"><svg width="100%" height="100%" viewBox="0 0 2084 2084" version="1.1" xmlns="http://www.w3.org/2000/svg" xmlns:xlink="http://www.w3.org/1999/xlink" xml:space="preserve" xmlns:serif="http://www.serif.com/" style="fill-rule:evenodd;clip-rule:evenodd;stroke-linejoin:round;stroke-miterlimit:2;"><rect id="medialist-admin" x="0" y="-0" width="2083.333" height="2083.333" style="fill:none;"/><g id="MediaList"><g><g><path d="M136.535,459.217c0,-23.565 15.91,-41.893 35.111,-41.893l722.621,0c19.75,0 35.111,18.983 35.111,41.893l0,422.013c0,23.565 -15.909,41.894 -35.111,41.894l-722.621,-0c-19.75,0 -35.111,-18.983 -35.111,-41.894l0,-422.013m-32.368,0l0,422.013c0,44.512 30.722,80.515 67.479,80.515l722.621,0c37.305,0 67.479,-36.657 67.479,-80.515l0,-422.013c0,-44.511 -30.722,-80.514 -67.479,-80.514l-722.621,0c-36.757,0 -67.479,36.002 -67.479,80.514Z" style="fill:#566b8d;fill-rule:nonzero;"/></g><g><path d="M459.689,586.708l-137.313,237.736l275.139,0l-137.826,-237.736Z" style="fill:#566b8d;fill-rule:nonzero;"/><path d="M628.253,660.997l-114.77,163.444l230.051,0l-115.281,-163.444Z" style="fill:#566b8d;fill-rule:nonzero;"/><circle cx="592.901" cy="551.355" r="35.353" style="fill:#566b8d;"/></g></g><g><g><path d="M136.535,1202.102c0,-23.565 15.91,-41.893 35.111,-41.893l722.621,0c19.75,0 35.111,18.983 35.111,41.893l0,422.013c0,23.565 -15.909,41.894 -35.111,41.894l-722.621,-0c-19.75,0 -35.111,-18.983 -35.111,-41.894l0,-422.013m-32.368,0l0,422.013c0,44.512 30.722,80.515 67.479,80.515l722.621,0c37.305,0 67.479,-36.657 67.479,-80.515l0,-422.013c0,-44.511 -30.722,-80.514 -67.479,-80.514l-722.621,0c-36.757,0 -67.479,36.002 -67.479,80.514Z" style="fill:#566b8d;fill-rule:nonzero;"/></g><g><path d="M459.689,1329.593l-137.313,237.736l275.139,0l-137.826,-237.736Z" style="fill:#566b8d;fill-rule:nonzero;"/><path d="M628.253,1403.881l-114.77,163.444l230.051,0l-115.281,-163.444Z" style="fill:#566b8d;fill-rule:nonzero;"/><circle cx="592.901" cy="1294.24" r="35.353" style="fill:#566b8d;"/></g></g><g><g><path d="M1153.956,459.217c0,-23.565 15.91,-41.893 35.111,-41.893l722.621,0c19.75,0 35.111,18.983 35.111,41.893l0,422.013c0,23.565 -15.909,41.894 -35.111,41.894l-722.621,-0c-19.75,0 -35.111,-18.983 -35.111,-41.894l0,-422.013m-32.368,0l0,422.013c0,44.512 30.722,80.515 67.479,80.515l722.621,0c37.305,0 67.479,-36.657 67.479,-80.515l0,-422.013c0,-44.511 -30.722,-80.514 -67.479,-80.514l-722.621,0c-36.757,0 -67.479,36.002 -67.479,80.514Z" style="fill:#566b8d;fill-rule:nonzero;"/></g><g><path d="M1477.111,586.708l-137.313,237.736l275.139,0l-137.826,-237.736Z" style="fill:#566b8d;fill-rule:nonzero;"/><path d="M1645.674,660.997l-114.77,163.444l230.051,0l-115.281,-163.444Z" style="fill:#566b8d;fill-rule:nonzero;"/><circle cx="1610.322" cy="551.355" r="35.353" style="fill:#566b8d;"/></g></g><g><g><path d="M1153.956,1202.102c0,-23.565 15.91,-41.893 35.111,-41.893l722.621,0c19.75,0 35.111,18.983 35.111,41.893l0,422.013c0,23.565 -15.909,41.894 -35.111,41.894l-722.621,-0c-19.75,0 -35.111,-18.983 -35.111,-41.894l0,-422.013m-32.368,0l0,422.013c0,44.512 30.722,80.515 67.479,80.515l722.621,0c37.305,0 67.479,-36.657 67.479,-80.515l0,-422.013c0,-44.511 -30.722,-80.514 -67.479,-80.514l-722.621,0c-36.757,0 -67.479,36.002 -67.479,80.514Z" style="fill:#566b8d;fill-rule:nonzero;"/></g><g><path d="M1477.111,1329.593l-137.313,237.736l275.139,0l-137.826,-237.736Z" style="fill:#566b8d;fill-rule:nonzero;"/><path d="M1645.674,1403.881l-114.77,163.444l230.051,0l-115.281,-163.444Z" style="fill:#566b8d;fill-rule:nonzero;"/><circle cx="1610.322" cy="1294.24" r="35.353" style="fill:#566b8d;"/></g></g></g></svg>