<?xml version="1.0" encoding="UTF-8" standalone="no"?><!DOCTYPE svg PUBLIC "-//W3C//DTD SVG 1.1//EN" "http://www.w3.org/Graphics/SVG/1.1/DTD/svg11.dtd"><svg width="100%" height="100%" viewBox="0 0 2088 2084" version="1.1" xmlns="http://www.w3.org/2000/svg" xmlns:xlink="http://www.w3.org/1999/xlink" xml:space="preserve" xmlns:serif="http://www.serif.com/" style="fill-rule:evenodd;clip-rule:evenodd;stroke-linejoin:round;stroke-miterlimit:2;"><rect id="mediagrid-page" x="2.71" y="-0" width="2083.333" height="2083.333" style="fill:none;"/><clipPath id="_clip1"><rect x="2.71" y="-0" width="2083.333" height="2083.333"/></clipPath><g clip-path="url(#_clip1)"><g id="page"><path d="M1798.824,372.543c8.271,8.293 12.916,19.527 12.916,31.24c0,164.411 0,1387.535 0,1636.72c0,11.733 -4.661,22.985 -12.957,31.281c-8.296,8.296 -19.548,12.957 -31.281,12.957c-223.172,-0 -1223.551,-0 -1446.723,0c-11.733,-0 -22.985,-4.661 -31.281,-12.957c-8.296,-8.296 -12.957,-19.548 -12.957,-31.281l0,-1996.265c-0,-11.733 4.661,-22.985 12.957,-31.281c8.296,-8.296 19.548,-12.957 31.281,-12.957c193.261,0 959.525,-0 1088.117,0c11.753,0 23.022,4.677 31.322,12.998c58.779,58.933 299.926,300.711 358.606,359.545Zm-480.642,-296.991c0,-0 -732.513,-0 -921.851,-0c-11.733,0 -22.985,4.661 -31.281,12.957c-8.296,8.296 -12.957,19.548 -12.957,31.281c-0,259.863 -0,1585.297 -0,1845.161c-0,11.733 4.661,22.985 12.957,31.281c8.296,8.296 19.548,12.957 31.281,12.957c208.033,0 1087.585,0 1295.618,0c24.432,-0 44.238,-19.806 44.238,-44.238c0,-250.136 0,-1476.131 0,-1476.131c0,-0 -266.253,-0 -373.767,0c-24.432,0 -44.238,-19.806 -44.238,-44.238c-0,-106.619 -0,-369.03 -0,-369.03Zm76.77,0l-1.217,-0c-0,0 0,201.894 0,293.477c0,24.432 19.806,44.238 44.238,44.238c91.838,-0 294.695,-0 294.695,-0l-337.715,-337.715Z" style="fill:#566b8d;"/></g><g id="MediaGrid"><path d="M1627.474,827.26l0,183.48c0,50.633 -41.107,91.74 -91.74,91.74l-183.48,0c-50.633,0 -91.74,-41.107 -91.74,-91.74l0,-183.48c0,-50.633 41.107,-91.74 91.74,-91.74l183.48,0c50.633,0 91.74,41.107 91.74,91.74Zm-33.425,-0c-0,-32.185 -26.13,-58.315 -58.315,-58.315l-183.48,0c-32.185,0 -58.315,26.13 -58.315,58.315l0,183.48c0,32.185 26.13,58.315 58.315,58.315l183.48,0c32.185,0 58.315,-26.13 58.315,-58.315l-0,-183.48Z" style="fill:#566b8d;"/><path d="M1627.474,1227.114l0,183.48c0,50.633 -41.107,91.74 -91.74,91.74l-183.48,0c-50.633,0 -91.74,-41.107 -91.74,-91.74l0,-183.48c0,-50.633 41.107,-91.74 91.74,-91.74l183.48,0c50.633,0 91.74,41.107 91.74,91.74Zm-33.425,-0c-0,-32.185 -26.13,-58.315 -58.315,-58.315l-183.48,0c-32.185,0 -58.315,26.13 -58.315,58.315l0,183.48c0,32.185 26.13,58.315 58.315,58.315l183.48,0c32.185,0 58.315,-26.13 58.315,-58.315l-0,-183.48Z" style="fill:#566b8d;"/><path d="M1627.474,1626.967l0,183.48c0,50.633 -41.107,91.74 -91.74,91.74l-183.48,0c-50.633,0 -91.74,-41.107 -91.74,-91.74l0,-183.48c0,-50.633 41.107,-91.74 91.74,-91.74l183.48,0c50.633,0 91.74,41.107 91.74,91.74Zm-33.425,-0c-0,-32.185 -26.13,-58.315 -58.315,-58.315l-183.48,0c-32.185,0 -58.315,26.13 -58.315,58.315l0,183.48c0,32.185 26.13,58.315 58.315,58.315l183.48,0c32.185,0 58.315,-26.13 58.315,-58.315l-0,-183.48Z" style="fill:#566b8d;"/><g><path d="M1403.81,1672.902l-75.311,130.39l150.904,0l-75.592,-130.39Z" style="fill:#566b8d;fill-rule:nonzero;"/><path d="M1496.261,1713.647l-62.947,89.643l126.175,0l-63.228,-89.643Z" style="fill:#566b8d;fill-rule:nonzero;"/><circle cx="1476.872" cy="1653.512" r="19.39" style="fill:#566b8d;"/></g><g><path d="M1003.957,1672.902l-75.311,130.39l150.904,0l-75.592,-130.39Z" style="fill:#566b8d;fill-rule:nonzero;"/><path d="M1096.408,1713.647l-62.947,89.643l126.175,0l-63.228,-89.643Z" style="fill:#566b8d;fill-rule:nonzero;"/><circle cx="1077.019" cy="1653.512" r="19.39" style="fill:#566b8d;"/></g><g><path d="M604.104,1672.902l-75.311,130.39l150.904,0l-75.592,-130.39Z" style="fill:#566b8d;fill-rule:nonzero;"/><path d="M696.555,1713.647l-62.947,89.643l126.175,0l-63.228,-89.643Z" style="fill:#566b8d;fill-rule:nonzero;"/><circle cx="677.166" cy="1653.512" r="19.39" style="fill:#566b8d;"/></g><g><path d="M1403.81,1273.049l-75.311,130.39l150.904,0l-75.592,-130.39Z" style="fill:#566b8d;fill-rule:nonzero;"/><path d="M1496.261,1313.793l-62.947,89.643l126.175,0l-63.228,-89.643Z" style="fill:#566b8d;fill-rule:nonzero;"/><circle cx="1476.872" cy="1253.659" r="19.39" style="fill:#566b8d;"/></g><g><path d="M1003.957,1273.049l-75.311,130.39l150.904,0l-75.592,-130.39Z" style="fill:#566b8d;fill-rule:nonzero;"/><path d="M1096.408,1313.793l-62.947,89.643l126.175,0l-63.228,-89.643Z" style="fill:#566b8d;fill-rule:nonzero;"/><circle cx="1077.019" cy="1253.659" r="19.39" style="fill:#566b8d;"/></g><g><path d="M604.104,1273.049l-75.311,130.39l150.904,0l-75.592,-130.39Z" style="fill:#566b8d;fill-rule:nonzero;"/><path d="M696.555,1313.793l-62.947,89.643l126.175,0l-63.228,-89.643Z" style="fill:#566b8d;fill-rule:nonzero;"/><circle cx="677.166" cy="1253.659" r="19.39" style="fill:#566b8d;"/></g><g><path d="M1403.81,873.196l-75.311,130.39l150.904,0l-75.592,-130.39Z" style="fill:#566b8d;fill-rule:nonzero;"/><path d="M1496.261,913.94l-62.947,89.643l126.175,0l-63.228,-89.643Z" style="fill:#566b8d;fill-rule:nonzero;"/><circle cx="1476.872" cy="853.805" r="19.39" style="fill:#566b8d;"/></g><g><path d="M1003.957,873.196l-75.311,130.39l150.904,0l-75.592,-130.39Z" style="fill:#566b8d;fill-rule:nonzero;"/><path d="M1096.408,913.94l-62.947,89.643l126.175,0l-63.228,-89.643Z" style="fill:#566b8d;fill-rule:nonzero;"/><circle cx="1077.019" cy="853.805" r="19.39" style="fill:#566b8d;"/></g><g><path d="M604.104,873.196l-75.311,130.39l150.904,0l-75.592,-130.39Z" style="fill:#566b8d;fill-rule:nonzero;"/><path d="M696.555,913.94l-62.947,89.643l126.175,0l-63.228,-89.643Z" style="fill:#566b8d;fill-rule:nonzero;"/><circle cx="677.166" cy="853.805" r="19.39" style="fill:#566b8d;"/></g><path d="M1227.621,827.26l0,183.48c0,50.633 -41.107,91.74 -91.74,91.74l-183.48,0c-50.633,0 -91.74,-41.107 -91.74,-91.74l0,-183.48c0,-50.633 41.107,-91.74 91.74,-91.74l183.48,0c50.633,0 91.74,41.107 91.74,91.74Zm-33.425,0c0,-32.185 -26.13,-58.315 -58.315,-58.315l-183.48,0c-32.185,0 -58.315,26.13 -58.315,58.315l0,183.48c0,32.185 26.13,58.315 58.315,58.315l183.48,0c32.185,0 58.315,-26.13 58.315,-58.315l0,-183.48Z" style="fill:#566b8d;"/><path d="M1227.621,1227.114l0,183.48c0,50.633 -41.107,91.74 -91.74,91.74l-183.48,0c-50.633,0 -91.74,-41.107 -91.74,-91.74l0,-183.48c0,-50.633 41.107,-91.74 91.74,-91.74l183.48,0c50.633,0 91.74,41.107 91.74,91.74Zm-33.425,0c0,-32.185 -26.13,-58.315 -58.315,-58.315l-183.48,0c-32.185,0 -58.315,26.13 -58.315,58.315l0,183.48c0,32.185 26.13,58.315 58.315,58.315l183.48,0c32.185,0 58.315,-26.13 58.315,-58.315l0,-183.48Z" style="fill:#566b8d;"/><path d="M1227.621,1626.967l0,183.48c0,50.633 -41.107,91.74 -91.74,91.74l-183.48,0c-50.633,0 -91.74,-41.107 -91.74,-91.74l0,-183.48c0,-50.633 41.107,-91.74 91.74,-91.74l183.48,0c50.633,0 91.74,41.107 91.74,91.74Zm-33.425,0c0,-32.185 -26.13,-58.315 -58.315,-58.315l-183.48,0c-32.185,0 -58.315,26.13 -58.315,58.315l0,183.48c0,32.185 26.13,58.315 58.315,58.315l183.48,0c32.185,0 58.315,-26.13 58.315,-58.315l0,-183.48Z" style="fill:#566b8d;"/><path d="M827.767,827.26l0,183.48c0,50.633 -41.107,91.74 -91.74,91.74l-183.48,0c-50.633,0 -91.74,-41.107 -91.74,-91.74l0,-183.48c0,-50.633 41.107,-91.74 91.74,-91.74l183.48,0c50.633,0 91.74,41.107 91.74,91.74Zm-33.425,0c0,-32.185 -26.13,-58.315 -58.315,-58.315l-183.48,0c-32.185,0 -58.315,26.13 -58.315,58.315l0,183.48c0,32.185 26.13,58.315 58.315,58.315l183.48,0c32.185,0 58.315,-26.13 58.315,-58.315l0,-183.48Z" style="fill:#566b8d;"/><path d="M827.767,1227.114l0,183.48c0,50.633 -41.107,91.74 -91.74,91.74l-183.48,0c-50.633,0 -91.74,-41.107 -91.74,-91.74l0,-183.48c0,-50.633 41.107,-91.74 91.74,-91.74l183.48,0c50.633,0 91.74,41.107 91.74,91.74Zm-33.425,0c0,-32.185 -26.13,-58.315 -58.315,-58.315l-183.48,0c-32.185,0 -58.315,26.13 -58.315,58.315l0,183.48c0,32.185 26.13,58.315 58.315,58.315l183.48,0c32.185,0 58.315,-26.13 58.315,-58.315l0,-183.48Z" style="fill:#566b8d;"/><path d="M827.767,1626.967l0,183.48c0,50.633 -41.107,91.74 -91.74,91.74l-183.48,0c-50.633,0 -91.74,-41.107 -91.74,-91.74l0,-183.48c0,-50.633 41.107,-91.74 91.74,-91.74l183.48,0c50.633,0 91.74,41.107 91.74,91.74Zm-33.425,0c0,-32.185 -26.13,-58.315 -58.315,-58.315l-183.48,0c-32.185,0 -58.315,26.13 -58.315,58.315l0,183.48c0,32.185 26.13,58.315 58.315,58.315l183.48,0c32.185,0 58.315,-26.13 58.315,-58.315l0,-183.48Z" style="fill:#566b8d;"/></g></g></svg>