<?xml version="1.0" encoding="UTF-8" standalone="no"?><!DOCTYPE svg PUBLIC "-//W3C//DTD SVG 1.1//EN" "http://www.w3.org/Graphics/SVG/1.1/DTD/svg11.dtd"><svg width="100%" height="100%" viewBox="0 0 2084 2084" version="1.1" xmlns="http://www.w3.org/2000/svg" xmlns:xlink="http://www.w3.org/1999/xlink" xml:space="preserve" xmlns:serif="http://www.serif.com/" style="fill-rule:evenodd;clip-rule:evenodd;stroke-linejoin:round;stroke-miterlimit:2;"><rect id="megaphone-admin" x="0" y="0" width="2083.333" height="2083.333" style="fill:none;"/><g id="Megaphone"><path id="Megaphone1" serif:id="Megaphone" d="M402.803,1250.718l-204.342,0c-52.077,0 -94.294,-42.217 -94.294,-94.294l0,-406.111c-0,-52.077 42.217,-94.294 94.294,-94.294l517.934,-0l363.461,-226.059c29.076,-18.084 65.671,-18.985 95.602,-2.353c29.931,16.632 48.493,48.182 48.493,82.424l0,896.828c-0,34.695 -19.052,66.587 -49.603,83.03c-30.55,16.444 -67.663,14.783 -96.622,-4.324l-355.936,-234.847l-104.968,0l0,376.118c0,31.064 -25.182,56.246 -56.246,56.246l-101.528,0c-31.064,0 -56.246,-25.182 -56.246,-56.246l0,-376.118Zm632.56,-570.996l-242.236,150.661c-14.947,9.297 -32.198,14.224 -49.801,14.224l-450.572,-0l0,217.523l457.34,0c18.463,0 36.52,5.42 51.93,15.588l233.338,153.956l0,-551.952Zm528.784,572.644c-13.042,24.875 -36.482,42.652 -63.953,48.504c-27.471,5.851 -56.12,-0.831 -78.168,-18.232c-1.881,-1.325 -3.678,-2.744 -5.466,-4.155c-32.928,-25.991 -42.338,-71.927 -22.283,-108.772c35.605,-64.281 54.492,-136.899 54.492,-211.152c0,-72.36 -17.936,-143.168 -51.678,-206.288c-21.171,-40.138 -10.685,-89.667 24.936,-117.781l-0.077,-0.108c22.076,-17.426 50.765,-24.118 78.273,-18.259c27.508,5.859 50.98,23.66 64.04,48.569c47.692,90.033 73.095,190.851 73.095,293.867c0,103.017 -25.404,203.834 -73.21,293.807Zm267.465,219.891c-14.258,22.758 -37.521,38.378 -63.983,42.961c-26.461,4.583 -53.623,-2.305 -74.703,-18.942c-1.182,-0.604 -2.203,-1.41 -3.222,-2.214c-36.164,-28.545 -44.893,-79.81 -20.213,-118.715c78.872,-124.123 121.088,-268.628 121.088,-416.788c0,-147.002 -41.559,-290.406 -119.049,-413.999c-25.503,-40.649 -16.284,-93.982 21.384,-123.711c-0.155,-0.204 -0.152,-0.207 -0.149,-0.209c21.138,-16.684 48.374,-23.591 74.908,-18.996c26.534,4.595 49.862,20.258 64.159,43.079c95.827,153.529 147.334,331.454 147.334,513.837c0,182.383 -51.508,360.308 -147.556,513.698Z" style="fill:#566b8d;"/></g></svg>