<?xml version="1.0" encoding="UTF-8" standalone="no"?><!DOCTYPE svg PUBLIC "-//W3C//DTD SVG 1.1//EN" "http://www.w3.org/Graphics/SVG/1.1/DTD/svg11.dtd"><svg width="100%" height="100%" viewBox="0 0 2084 2084" version="1.1" xmlns="http://www.w3.org/2000/svg" xmlns:xlink="http://www.w3.org/1999/xlink" xml:space="preserve" xmlns:serif="http://www.serif.com/" style="fill-rule:evenodd;clip-rule:evenodd;stroke-linejoin:round;stroke-miterlimit:2;"><rect id="megaphone-page" x="0" y="0" width="2083.333" height="2083.333" style="fill:none;"/><clipPath id="_clip1"><rect x="0" y="0" width="2083.333" height="2083.333"/></clipPath><g clip-path="url(#_clip1)"><g id="page"><path d="M1796.35,372.543c8.271,8.293 12.916,19.527 12.916,31.24c0,164.411 0,1387.535 0,1636.72c0,11.733 -4.661,22.985 -12.957,31.281c-8.296,8.296 -19.548,12.957 -31.281,12.957c-223.172,0 -1223.551,0 -1446.723,0c-11.733,-0 -22.985,-4.661 -31.281,-12.957c-8.296,-8.296 -12.957,-19.548 -12.957,-31.281c-0,-272.779 -0,-1723.487 -0,-1996.265c-0,-11.733 4.661,-22.985 12.957,-31.281c8.296,-8.296 19.548,-12.957 31.281,-12.957l1088.117,0c11.753,0 23.022,4.677 31.322,12.998c58.779,58.933 299.926,300.711 358.606,359.545Zm-480.642,-296.991c0,0 -732.513,-0 -921.851,-0c-11.733,0 -22.985,4.661 -31.281,12.957c-8.296,8.296 -12.957,19.548 -12.957,31.281c-0,259.863 -0,1585.297 -0,1845.161c-0,11.733 4.661,22.985 12.957,31.281c8.296,8.296 19.548,12.957 31.281,12.957c208.033,0 1087.585,0 1295.618,0c24.432,-0 44.238,-19.806 44.238,-44.238c0,-250.136 0,-1476.131 0,-1476.131c-0,0 -266.253,0 -373.767,0c-24.432,0 -44.238,-19.806 -44.238,-44.238c-0,-106.619 -0,-369.03 -0,-369.03Zm76.77,0l-1.217,-0c0,0 0,201.894 0,293.477c0,24.432 19.806,44.238 44.238,44.238c91.838,-0 294.695,-0 294.695,-0l-337.715,-337.715Z" style="fill:#566b8d;"/></g><g id="Megaphone"><path id="Megaphone1" serif:id="Megaphone" d="M643.915,1448.93l-127.146,0c-32.404,0 -58.672,-26.268 -58.672,-58.672l0,-252.691c-0,-32.404 26.268,-58.672 58.672,-58.672l322.27,-0l226.154,-140.659c18.092,-11.252 40.862,-11.813 59.485,-1.464c18.624,10.349 30.173,29.98 30.173,51.286l0,558.027c-0,21.588 -11.855,41.432 -30.864,51.663c-19.009,10.232 -42.101,9.198 -60.12,-2.691l-221.471,-146.127l-65.314,0l0,234.029c0,19.328 -15.669,34.997 -34.997,34.997l-63.173,0c-19.328,0 -34.997,-15.669 -34.997,-34.997l0,-234.029Zm393.593,-355.286l-150.724,93.745c-9.3,5.785 -20.034,8.85 -30.987,8.85l-280.356,-0l0,135.348l284.567,0c11.488,0 22.723,3.373 32.312,9.699l145.188,95.795l0,-343.437Zm329.021,356.312c-8.115,15.478 -22.7,26.539 -39.793,30.18c-17.093,3.641 -34.919,-0.517 -48.638,-11.344c-1.17,-0.824 -2.289,-1.707 -3.401,-2.585c-20.488,-16.172 -26.344,-44.754 -13.865,-67.681c22.154,-39.997 33.906,-85.182 33.906,-131.383c0,-45.024 -11.16,-89.082 -32.155,-128.357c-13.173,-24.975 -6.649,-55.793 15.516,-73.286l-0.048,-0.067c13.736,-10.843 31.587,-15.007 48.703,-11.361c17.116,3.645 31.721,14.722 39.847,30.221c29.675,56.021 45.482,118.752 45.482,182.851c0,64.099 -15.807,126.83 -45.553,182.813Zm166.422,136.821c-8.871,14.16 -23.347,23.88 -39.811,26.731c-16.465,2.852 -33.365,-1.434 -46.482,-11.786c-0.735,-0.376 -1.37,-0.877 -2.005,-1.378c-22.502,-17.761 -27.933,-49.66 -12.577,-73.867c49.076,-77.232 75.344,-167.146 75.344,-259.335c0,-91.468 -25.859,-180.697 -74.075,-257.599c-15.868,-25.292 -10.132,-58.478 13.306,-76.976c-0.097,-0.127 -0.095,-0.129 -0.093,-0.13c13.152,-10.381 30.099,-14.679 46.61,-11.82c16.51,2.859 31.025,12.605 39.921,26.805c59.625,95.529 91.675,206.238 91.675,319.721c0,113.483 -32.049,224.191 -91.813,319.635Z" style="fill:#566b8d;"/></g></g></svg>