<?xml version="1.0" encoding="UTF-8" standalone="no"?><!DOCTYPE svg PUBLIC "-//W3C//DTD SVG 1.1//EN" "http://www.w3.org/Graphics/SVG/1.1/DTD/svg11.dtd"><svg width="100%" height="100%" viewBox="0 0 2084 2084" version="1.1" xmlns="http://www.w3.org/2000/svg" xmlns:xlink="http://www.w3.org/1999/xlink" xml:space="preserve" xmlns:serif="http://www.serif.com/" style="fill-rule:evenodd;clip-rule:evenodd;stroke-linejoin:round;stroke-miterlimit:2;"><rect id="megaphone-element" x="0" y="0" width="2083.333" height="2083.333" style="fill:none;"/><g id="element"><path d="M1784.418,140.539c87.221,0 158.375,71.153 158.375,158.375l0,1485.504c0,87.221 -71.153,158.375 -158.375,158.375l-1485.504,0c-87.221,0 -158.375,-71.153 -158.375,-158.375l0,-1485.504c0,-87.221 71.153,-158.375 158.375,-158.375l1485.504,0m0,-78.039l-1485.504,0c-130.831,0 -236.414,106.042 -236.414,236.414l0,1485.504c0,130.831 106.042,236.415 236.414,236.415l1485.504,0c130.831,0 236.415,-106.042 236.415,-236.415l0,-1485.504c0,-130.831 -105.584,-236.414 -236.415,-236.414Z" style="fill:#566b8d;fill-rule:nonzero;"/></g><g id="Megaphone"><path id="Megaphone1" serif:id="Megaphone" d="M530.576,1208.907l-163.474,0c-41.662,0 -75.435,-33.774 -75.435,-75.435l0,-324.889c-0,-41.662 33.774,-75.435 75.435,-75.435l414.347,-0l290.769,-180.847c23.261,-14.467 52.537,-15.188 76.481,-1.883c23.945,13.305 38.794,38.546 38.794,65.939l0,717.463c-0,27.756 -15.242,53.269 -39.682,66.424c-24.44,13.155 -54.13,11.826 -77.297,-3.46l-284.749,-187.878l-83.975,0l0,300.894c0,24.851 -20.146,44.996 -44.996,44.996l-81.222,0c-24.851,0 -44.996,-20.146 -44.996,-44.996l0,-300.894Zm506.048,-456.797l-193.789,120.529c-11.958,7.437 -25.759,11.379 -39.841,11.379l-360.457,-0l0,174.018l365.872,0c14.77,0 29.216,4.336 41.544,12.471l186.67,123.165l0,-441.562Zm423.027,458.115c-10.434,19.9 -29.186,34.122 -51.162,38.803c-21.976,4.681 -44.896,-0.665 -62.534,-14.585c-1.504,-1.06 -2.943,-2.195 -4.373,-3.324c-26.342,-20.793 -33.87,-57.541 -17.826,-87.018c28.484,-51.425 43.593,-109.519 43.593,-168.921c0,-57.888 -14.349,-114.534 -41.343,-165.03c-16.937,-32.11 -8.548,-71.734 19.949,-94.225l-0.062,-0.087c17.661,-13.941 40.612,-19.294 62.618,-14.607c22.006,4.687 40.784,18.928 51.232,38.855c38.153,72.027 58.476,152.681 58.476,235.094c0,82.413 -20.323,163.067 -58.568,235.046Zm213.972,175.913c-11.406,18.206 -30.017,30.703 -51.186,34.369c-21.169,3.666 -42.898,-1.844 -59.763,-15.154c-0.945,-0.484 -1.762,-1.128 -2.577,-1.772c-28.931,-22.836 -35.914,-63.848 -16.17,-94.972c63.098,-99.298 96.871,-214.902 96.871,-333.43c0,-117.602 -33.247,-232.325 -95.239,-331.199c-20.402,-32.519 -13.027,-75.185 17.107,-98.969c-0.124,-0.163 -0.122,-0.165 -0.119,-0.167c16.91,-13.348 38.699,-18.873 59.927,-15.197c21.227,3.676 39.89,16.206 51.327,34.463c76.661,122.824 117.868,265.163 117.868,411.07c0,145.907 -41.206,288.246 -118.045,410.959Z" style="fill:#566b8d;"/></g></svg>