<?xml version="1.0" encoding="UTF-8" standalone="no"?><!DOCTYPE svg PUBLIC "-//W3C//DTD SVG 1.1//EN" "http://www.w3.org/Graphics/SVG/1.1/DTD/svg11.dtd"><svg width="100%" height="100%" viewBox="0 0 2084 2084" version="1.1" xmlns="http://www.w3.org/2000/svg" xmlns:xlink="http://www.w3.org/1999/xlink" xml:space="preserve" xmlns:serif="http://www.serif.com/" style="fill-rule:evenodd;clip-rule:evenodd;stroke-linejoin:round;stroke-miterlimit:2;"><rect id="news-element" x="0" y="0" width="2083.333" height="2083.333" style="fill:none;"/><g><g><g id="Element"><path d="M1784.182,139.835c87.221,0 158.375,71.153 158.375,158.375l0,1485.504c0,87.221 -71.153,158.375 -158.375,158.375l-1485.504,0c-87.221,0 -158.375,-71.153 -158.375,-158.375l0,-1485.504c0,-87.221 71.153,-158.375 158.375,-158.375l1485.504,0m0,-78.039l-1485.504,0c-130.831,0 -236.414,106.042 -236.414,236.414l0,1485.504c0,130.831 106.042,236.415 236.414,236.415l1485.504,0c130.831,0 236.415,-106.042 236.415,-236.415l0,-1485.504c0,-130.831 -105.584,-236.414 -236.415,-236.414Z" style="fill:#566b8d;fill-rule:nonzero;"/></g></g></g><g id="News"><path d="M1277.131,369.094l18.127,0l124.043,124.043l124.043,-124.043l124.043,124.043l124.043,-124.043l0,1336.214l-1500,0l0,-1332.775l120.604,120.604l124.043,-124.043l124.043,124.043l122.44,-122.44l122.44,122.44l124.043,-124.043l124.043,124.043l124.043,-124.043Zm-348.263,623.605l-480.607,0l0,574.199l480.607,0l0,-574.199Zm705.734,216.273l-543.845,0l0,141.653l543.845,0l0,-141.653Zm0,-216.273l-543.845,0l0,141.653l543.845,0l0,-141.653Zm0,-354.132l-1186.34,0l0,220.067l1186.34,0l0,-220.067Zm0,786.678l-543.845,0l0,141.653l543.845,0l0,-141.653Z" style="fill:#566b8d;"/></g></svg>