<?xml version="1.0" encoding="UTF-8" standalone="no"?><!DOCTYPE svg PUBLIC "-//W3C//DTD SVG 1.1//EN" "http://www.w3.org/Graphics/SVG/1.1/DTD/svg11.dtd"><svg width="100%" height="100%" viewBox="0 0 2084 2084" version="1.1" xmlns="http://www.w3.org/2000/svg" xmlns:xlink="http://www.w3.org/1999/xlink" xml:space="preserve" xmlns:serif="http://www.serif.com/" style="fill-rule:evenodd;clip-rule:evenodd;stroke-linejoin:round;stroke-miterlimit:2;"><rect id="news-admin" x="0" y="0" width="2083.333" height="2083.333" style="fill:none;"/><g><g><path d="M1315.295,266.433l21.039,0l143.969,143.969l143.969,-143.969l143.969,143.969l143.969,-143.969l0,1550.86l-1740.956,0l0,-1546.868l139.977,139.977l143.969,-143.969l143.969,143.969l142.109,-142.109l142.109,142.109l143.969,-143.969l143.969,143.969l143.969,-143.969Zm-404.207,723.779l-557.81,0l0,666.437l557.81,0l0,-666.437Zm819.101,251.015l-631.206,0l0,164.407l631.206,0l0,-164.407Zm0,-251.015l-631.206,0l0,164.407l631.206,0l0,-164.407Zm0,-411.018l-1376.911,0l0,255.419l1376.911,0l0,-255.419Zm0,913.048l-631.206,0l0,164.407l631.206,0l0,-164.407Z" style="fill:#566b8d;"/></g></g></svg>