<?xml version="1.0" encoding="UTF-8" standalone="no"?><!DOCTYPE svg PUBLIC "-//W3C//DTD SVG 1.1//EN" "http://www.w3.org/Graphics/SVG/1.1/DTD/svg11.dtd"><svg width="100%" height="100%" viewBox="0 0 2084 2084" version="1.1" xmlns="http://www.w3.org/2000/svg" xmlns:xlink="http://www.w3.org/1999/xlink" xml:space="preserve" xmlns:serif="http://www.serif.com/" style="fill-rule:evenodd;clip-rule:evenodd;stroke-linejoin:round;stroke-miterlimit:2;"><rect id="partner-admin" x="0" y="0" width="2083.333" height="2083.333" style="fill:none;"/><g id="Partner"><path id="Partner1" serif:id="Partner" d="M104.398,552.569c0.07,-26.496 -2.402,-59.265 10.161,-89.947c28.437,-69.448 87.794,-85.614 97.98,-88.388c20.94,-5.703 21.168,-4.937 384.255,-4.937c271.371,0 313.301,-2.607 359.048,13.354c83.2,29.028 81.885,37.69 88.621,34.175c63.474,-33.121 98.881,-47.616 192.854,-47.618c47.379,-0.001 584.596,-0.016 592.232,0.106c7.367,0.118 55.426,0.885 87.551,28.582c47.105,40.612 56.248,62.042 60.607,116.946c1.202,15.137 2.716,507.328 -0.321,638.383c-0.639,27.593 -18.176,74.668 -53.779,102.242c-54.878,42.503 -80.581,34.078 -241.067,34.862c-7.672,0.037 -6.028,3.482 -13.273,13.641c-5.214,7.312 -34.552,48.457 -89.676,67.535c-55.595,19.241 -99.874,22.433 -171.811,-6.996c-10.733,-4.391 -6.625,6.851 -11.043,19.627c-2.34,6.767 -14.05,46.56 -41.471,78.063c-101.125,116.178 -217.024,73.363 -246.186,65.487c-6.296,-1.7 -6.369,8.537 -7.761,14.123c-2.212,8.88 -16.046,64.423 -51.723,102.023c-90.117,94.975 -209.927,81.64 -286.153,31.359c-8.96,-5.911 -47.957,-41.188 -50.343,-43.987c-11.059,-12.977 -10.958,-12.896 -235.29,-237.228c-100.223,-100.223 -100.345,-101.887 -107.831,-101.984c-80.063,-1.032 -138.639,4.923 -180.269,-15.562c-8.722,-4.292 -60.896,-29.965 -79.359,-92.015c-8.012,-26.927 -5.946,-27.571 -5.956,-631.847Zm1768.267,585.908c0.258,-39.926 0.069,-39.732 0.069,-254.096l0,-264.61c0,-112.924 4.305,-126.539 -26.7,-142.136c-10.084,-5.073 -10.715,-4.372 -272.705,-4.372c-371.244,0 -371.438,-0.51 -396.866,4.016c-12.77,2.273 -84.6,15.06 -141.95,78.339c-28.093,30.997 -193.044,189.934 -201.757,205.302c-52.256,92.162 34.679,163.252 108.148,131.186c21.105,-9.211 51.476,-43.009 52.092,-43.937c4.34,-6.544 4.659,-6.028 68.719,-70.088c83.219,-83.219 84.087,-82.08 91.309,-89.309c49.945,-49.989 136.73,-38.135 172.531,-3.934c25.684,24.536 25.381,24.717 314.295,313.631c71.525,71.525 77.646,111.947 78.872,181.964c0.081,4.611 11.456,3.428 12.121,3.429c115.873,0.191 133.315,5.521 141.822,-45.384Zm-955.867,236.53l-5.053,-5.447c-14.793,-14.799 -54.256,-52.975 -8.513,-94.764c6.32,-5.774 29.385,-17.486 50.968,-6.975c21.207,10.328 19.927,12.363 96.426,88.862c50.024,50.024 95.408,107.13 182.043,70.575c30.235,-12.757 115.827,-99.308 19.06,-196.075l-16.801,-16.8c-38.495,-38.202 -39.245,-37.233 -47.208,-45.196c-19.105,-19.105 -19.219,-18.935 -23.918,-24.384c-25.177,-25.166 -71.673,-63.107 -21.097,-109.346c10.987,-10.045 41.692,-14.198 54.929,-4.4c6.466,4.786 7.676,3.376 38.957,34.657c195.519,195.519 194.451,198.713 225.194,209.898c83.55,30.397 194.706,-58.248 129.819,-168.244c-3.725,-6.314 -21.774,-24.363 -23.783,-26.372c-282.249,-282.249 -282.253,-282.209 -294.864,-295.258c-26.282,-26.282 -33.989,-32.05 -60.674,-6.181c-36.151,35.046 -167.271,171.53 -192.89,189.554c-8.682,6.108 -15.668,14.139 -40.033,23.314c-9.354,3.523 -97.122,44.754 -192.844,-20.721c-27.049,-18.502 -42.837,-44.47 -45.621,-49.049c-0.632,-1.04 -47.333,-62.261 -24.677,-155.933c16.753,-69.265 79.097,-120.356 99.622,-140.009l58.802,-58.802l4.974,-4.841c33.58,-35.307 32.575,-36.139 68.81,-68.751c3.107,-2.797 0.976,-3.538 -2.995,-4.814c-50.792,-16.319 -51.669,-14.142 -201.634,-14.142l-478.818,0c-68.823,0.032 -54.455,41.533 -54.455,144.408c0,527.81 -0.348,528.051 2.785,537.345c4.855,14.405 22.215,25.879 34.927,26.82c55.808,4.131 154.079,-8.7 178.676,10.969c18.744,14.989 16.65,17.013 211.892,212.383c27.919,27.937 26.993,28.551 54.873,56.431c130.408,130.408 129.889,135.253 169.884,142.731c102.769,19.213 187.623,-98.987 92.123,-194.73c-24.816,-24.879 -36.779,-34.603 -38.889,-36.713Z" style="fill:#5a6b8d;fill-opacity:1;"/></g></svg>