<?xml version="1.0" encoding="UTF-8" standalone="no"?><!DOCTYPE svg PUBLIC "-//W3C//DTD SVG 1.1//EN" "http://www.w3.org/Graphics/SVG/1.1/DTD/svg11.dtd"><svg width="100%" height="100%" viewBox="0 0 2084 2084" version="1.1" xmlns="http://www.w3.org/2000/svg" xmlns:xlink="http://www.w3.org/1999/xlink" xml:space="preserve" xmlns:serif="http://www.serif.com/" style="fill-rule:evenodd;clip-rule:evenodd;stroke-linejoin:round;stroke-miterlimit:2;"><rect id="partner-element" x="0" y="0" width="2083.333" height="2083.333" style="fill:none;"/><g id="element"><path d="M1784.418,140.539c87.221,0 158.375,71.153 158.375,158.375l0,1485.504c0,87.221 -71.153,158.375 -158.375,158.375l-1485.504,0c-87.221,0 -158.375,-71.153 -158.375,-158.375l0,-1485.504c0,-87.221 71.153,-158.375 158.375,-158.375l1485.504,0m0,-78.039l-1485.504,0c-130.831,0 -236.414,106.042 -236.414,236.414l0,1485.504c0,130.831 106.042,236.415 236.414,236.415l1485.504,0c130.831,0 236.415,-106.042 236.415,-236.415l0,-1485.504c0,-130.831 -105.584,-236.414 -236.415,-236.414Z" style="fill:#566b8d;fill-rule:nonzero;"/></g><g id="Partner"><path id="Partner1" serif:id="Partner" d="M291.852,650.388c0.056,-21.197 -1.922,-47.412 8.129,-71.957c22.75,-55.559 70.235,-68.491 78.384,-70.71c16.752,-4.562 16.934,-3.95 307.404,-3.95c217.097,0 250.641,-2.085 287.239,10.683c66.56,23.222 65.508,30.152 70.897,27.34c50.779,-26.497 79.105,-38.093 154.283,-38.095c37.903,-0.001 467.677,-0.013 473.785,0.085c5.894,0.094 44.341,0.708 70.041,22.866c37.684,32.49 44.998,49.634 48.485,93.557c0.961,12.109 2.173,405.863 -0.257,510.707c-0.512,22.074 -14.541,59.734 -43.023,81.794c-43.902,34.002 -64.465,27.263 -192.854,27.889c-6.137,0.03 -4.823,2.785 -10.618,10.913c-4.171,5.85 -27.642,38.766 -71.741,54.028c-44.476,15.393 -79.899,17.946 -137.448,-5.597c-8.586,-3.513 -5.3,5.48 -8.834,15.702c-1.872,5.413 -11.24,37.248 -33.177,62.45c-80.9,92.943 -173.619,58.69 -196.949,52.39c-5.037,-1.36 -5.095,6.829 -6.209,11.298c-1.769,7.104 -12.837,51.538 -41.379,81.619c-72.094,75.98 -167.942,65.312 -228.922,25.087c-7.168,-4.729 -38.366,-32.95 -40.274,-35.189c-8.847,-10.382 -8.767,-10.317 -188.232,-189.782c-80.179,-80.179 -80.276,-81.51 -86.264,-81.587c-64.051,-0.826 -110.912,3.938 -144.215,-12.449c-6.978,-3.433 -48.717,-23.972 -63.487,-73.612c-6.41,-21.541 -4.757,-22.057 -4.765,-505.478Zm1414.614,468.727c0.207,-31.941 0.055,-31.786 0.055,-203.277l0,-211.688c0,-90.339 3.444,-101.231 -21.36,-113.709c-8.068,-4.059 -8.572,-3.498 -218.164,-3.498c-296.995,0 -297.15,-0.408 -317.493,3.213c-10.216,1.819 -67.68,12.048 -113.56,62.671c-22.474,24.797 -154.435,151.947 -161.406,164.241c-41.804,73.729 27.743,130.602 86.518,104.949c16.884,-7.369 41.181,-34.407 41.673,-35.149c3.472,-5.235 3.727,-4.822 54.975,-56.07c66.575,-66.575 67.27,-65.664 73.047,-71.447c39.956,-39.991 109.384,-30.508 138.025,-3.147c20.548,19.629 20.305,19.774 251.436,250.904c57.22,57.22 62.117,89.558 63.098,145.571c0.065,3.689 9.165,2.742 9.697,2.743c92.698,0.153 106.652,4.417 113.458,-36.307Zm-764.694,189.224l-4.042,-4.358c-11.834,-11.84 -43.405,-42.38 -6.81,-75.811c5.056,-4.619 23.508,-13.989 40.774,-5.58c16.966,8.263 15.942,9.891 77.141,71.09c40.019,40.019 76.326,85.704 145.634,56.46c24.188,-10.206 92.661,-79.447 15.248,-156.86l-13.441,-13.44c-30.796,-30.562 -31.396,-29.786 -37.766,-36.157c-15.284,-15.284 -15.376,-15.148 -19.134,-19.507c-20.142,-20.133 -57.338,-50.486 -16.878,-87.476c8.79,-8.036 33.354,-11.358 43.943,-3.52c5.173,3.829 6.141,2.701 31.165,27.725c156.415,156.415 155.561,158.97 180.155,167.918c66.84,24.318 155.765,-46.599 103.855,-134.595c-2.98,-5.051 -17.419,-19.491 -19.026,-21.098c-225.799,-225.799 -225.802,-225.767 -235.891,-236.206c-21.025,-21.025 -27.191,-25.64 -48.539,-4.945c-28.921,28.037 -133.817,137.224 -154.312,151.643c-6.946,4.887 -12.534,11.311 -32.026,18.651c-7.483,2.818 -77.698,35.803 -154.275,-16.577c-21.639,-14.801 -34.27,-35.576 -36.497,-39.239c-0.506,-0.832 -37.866,-49.809 -19.742,-124.747c13.402,-55.412 63.277,-96.285 79.697,-112.007l47.042,-47.042l3.979,-3.873c26.864,-28.245 26.06,-28.911 55.048,-55.001c2.486,-2.237 0.781,-2.83 -2.396,-3.851c-40.633,-13.055 -41.335,-11.314 -161.307,-11.314l-383.054,0c-55.059,0.025 -43.564,33.227 -43.564,115.527c0,422.248 -0.278,422.44 2.228,429.876c3.884,11.524 17.772,20.703 27.942,21.456c44.647,3.305 123.263,-6.96 142.941,8.775c14.996,11.991 13.32,13.61 169.514,169.906c22.335,22.35 21.594,22.841 43.898,45.145c104.326,104.326 103.911,108.203 135.908,114.184c82.215,15.371 150.098,-79.19 73.698,-155.784c-19.853,-19.903 -29.423,-27.682 -31.111,-29.37Z" style="fill:#5a6b8d;fill-opacity:1;"/></g></svg>