<?xml version="1.0" encoding="UTF-8" standalone="no"?><!DOCTYPE svg PUBLIC "-//W3C//DTD SVG 1.1//EN" "http://www.w3.org/Graphics/SVG/1.1/DTD/svg11.dtd"><svg width="100%" height="100%" viewBox="0 0 2084 2084" version="1.1" xmlns="http://www.w3.org/2000/svg" xmlns:xlink="http://www.w3.org/1999/xlink" xml:space="preserve" xmlns:serif="http://www.serif.com/" style="fill-rule:evenodd;clip-rule:evenodd;stroke-linejoin:round;stroke-miterlimit:2;"><rect id="persons-page" x="0" y="0" width="2083.333" height="2083.333" style="fill:none;"/><clipPath id="_clip1"><rect x="0" y="0" width="2083.333" height="2083.333"/></clipPath><g clip-path="url(#_clip1)"><g id="page"><path d="M1796.35,372.543c8.271,8.293 12.916,19.527 12.916,31.24c0,164.411 0,1387.535 0,1636.72c0,11.733 -4.661,22.985 -12.957,31.281c-8.296,8.296 -19.548,12.957 -31.281,12.957c-223.172,0 -1223.551,0 -1446.723,0c-11.733,-0 -22.985,-4.661 -31.281,-12.957c-8.296,-8.296 -12.957,-19.548 -12.957,-31.281c0,-272.779 0,-1723.487 0,-1996.265c-0,-11.733 4.661,-22.985 12.957,-31.281c8.296,-8.296 19.548,-12.957 31.281,-12.957l1088.117,0c11.753,0 23.022,4.677 31.322,12.998c58.779,58.933 299.926,300.711 358.606,359.545Zm-480.642,-296.991c-0,0 -732.513,-0 -921.851,-0c-11.733,0 -22.985,4.661 -31.281,12.957c-8.296,8.296 -12.957,19.548 -12.957,31.281c-0,259.863 -0,1585.297 -0,1845.161c-0,11.733 4.661,22.985 12.957,31.281c8.296,8.296 19.548,12.957 31.281,12.957c208.033,0 1087.585,0 1295.618,0c24.432,-0 44.238,-19.806 44.238,-44.238c0,-250.136 0,-1476.131 0,-1476.131l-373.767,0c-24.432,0 -44.238,-19.806 -44.238,-44.238c-0,-106.619 -0,-369.03 -0,-369.03Zm76.77,0l-1.217,-0c-0,0 0,201.894 0,293.477c0,24.432 19.806,44.238 44.238,44.238c91.838,-0 294.695,-0 294.695,-0l-337.715,-337.715Z" style="fill:#566b8d;"/></g><g id="Persons"><path id="Persons1" serif:id="Persons" d="M1180.446,810.837c11.885,-1.466 23.989,-2.222 36.268,-2.222c162.087,0 293.681,131.591 293.681,293.676c0,126.227 -79.807,233.958 -191.668,275.451c44.44,18.615 85.625,49.156 121.828,89.408c73.531,81.758 126.565,204.076 144.004,345.21l-208.579,-0c-28.426,-126.974 -82.391,-236.24 -152.297,-313.968c-42.081,-46.784 -89.948,-82.28 -141.603,-103.919c130.018,-48.228 222.778,-173.446 222.778,-320.16c0,-106.038 -48.455,-200.848 -124.413,-263.476Zm-681.673,1091.35c20.271,-164.04 81.911,-306.213 167.378,-401.243c42.081,-46.784 89.948,-82.28 141.603,-103.919c-130.02,-48.228 -222.778,-173.446 -222.778,-320.16c0,-188.394 152.953,-341.345 341.348,-341.345c188.397,0 341.348,152.951 341.348,341.345c0,146.714 -92.761,271.932 -222.778,320.16c51.655,21.639 99.522,57.135 141.603,103.919c85.467,95.03 147.107,237.202 167.378,401.243l-855.1,0Z" style="fill:#586c8d;"/></g></g></svg>