<?xml version="1.0" encoding="UTF-8" standalone="no"?><!DOCTYPE svg PUBLIC "-//W3C//DTD SVG 1.1//EN" "http://www.w3.org/Graphics/SVG/1.1/DTD/svg11.dtd"><svg width="100%" height="100%" viewBox="0 0 2084 2084" version="1.1" xmlns="http://www.w3.org/2000/svg" xmlns:xlink="http://www.w3.org/1999/xlink" xml:space="preserve" xmlns:serif="http://www.serif.com/" style="fill-rule:evenodd;clip-rule:evenodd;stroke-linejoin:round;stroke-miterlimit:2;"><rect id="persons-element" x="0" y="0" width="2083.333" height="2083.333" style="fill:none;"/><g id="element"><path d="M1784.418,140.539c87.221,0 158.375,71.153 158.375,158.375l0,1485.504c0,87.221 -71.153,158.375 -158.375,158.375l-1485.504,0c-87.221,0 -158.375,-71.153 -158.375,-158.375l0,-1485.504c0,-87.221 71.153,-158.375 158.375,-158.375l1485.504,0m0,-78.039l-1485.504,0c-130.831,0 -236.414,106.042 -236.414,236.414l0,1485.504c0,130.831 106.042,236.415 236.414,236.415l1485.504,0c130.831,0 236.415,-106.042 236.415,-236.415l0,-1485.504c0,-130.831 -105.584,-236.414 -236.415,-236.414Z" style="fill:#566b8d;fill-rule:nonzero;"/></g><g id="Persons"><path id="Persons1" serif:id="Persons" d="M1220.098,388.502c15.281,-1.885 30.843,-2.856 46.631,-2.856c208.398,0 377.59,169.189 377.59,377.583c0,162.292 -102.609,300.803 -246.431,354.151c57.137,23.934 110.089,63.201 156.636,114.953c94.54,105.117 162.726,262.383 185.148,443.841l-268.173,-0c-36.548,-163.253 -105.932,-303.738 -195.81,-403.673c-54.104,-60.15 -115.647,-105.788 -182.061,-133.61c167.166,-62.008 286.429,-223.002 286.429,-411.634c0,-136.335 -62.299,-258.233 -159.959,-338.754Zm-876.436,1403.165c26.062,-210.909 105.314,-393.702 215.2,-515.884c54.104,-60.15 115.647,-105.788 182.061,-133.61c-167.169,-62.008 -286.429,-223.002 -286.429,-411.634c0,-242.221 196.654,-438.872 438.876,-438.872c242.225,0 438.876,196.651 438.876,438.872c0,188.632 -119.264,349.626 -286.429,411.634c66.413,27.821 127.957,73.459 182.061,133.61c109.886,122.182 189.137,304.975 215.2,515.884l-1099.415,0Z" style="fill:#586c8d;"/></g></svg>