<?xml version="1.0" encoding="UTF-8" standalone="no"?><!DOCTYPE svg PUBLIC "-//W3C//DTD SVG 1.1//EN" "http://www.w3.org/Graphics/SVG/1.1/DTD/svg11.dtd"><svg width="100%" height="100%" viewBox="0 0 2084 2084" version="1.1" xmlns="http://www.w3.org/2000/svg" xmlns:xlink="http://www.w3.org/1999/xlink" xml:space="preserve" xmlns:serif="http://www.serif.com/" style="fill-rule:evenodd;clip-rule:evenodd;stroke-linejoin:round;stroke-miterlimit:2;"><rect id="person-element" x="0" y="0" width="2083.333" height="2083.333" style="fill:none;"/><g id="element"><path d="M1784.418,140.539c87.221,0 158.375,71.153 158.375,158.375l0,1485.504c0,87.221 -71.153,158.375 -158.375,158.375l-1485.504,0c-87.221,0 -158.375,-71.153 -158.375,-158.375l0,-1485.504c0,-87.221 71.153,-158.375 158.375,-158.375l1485.504,0m0,-78.039l-1485.504,0c-130.831,0 -236.414,106.042 -236.414,236.414l0,1485.504c0,130.831 106.042,236.415 236.414,236.415l1485.504,0c130.831,0 236.415,-106.042 236.415,-236.415l0,-1485.504c0,-130.831 -105.584,-236.414 -236.415,-236.414Z" style="fill:#566b8d;fill-rule:nonzero;"/></g><g id="Person"><path id="Person1" serif:id="Person" d="M491.96,1791.667c26.064,-210.909 105.313,-393.702 215.201,-515.882c54.101,-60.153 115.644,-105.792 182.059,-133.611c-167.168,-62.007 -286.429,-223.002 -286.429,-411.632c0,-242.222 196.653,-438.875 438.875,-438.875c242.222,0 438.875,196.653 438.875,438.875c0,188.63 -119.261,349.625 -286.429,411.632c66.415,27.819 127.958,73.458 182.059,133.611c109.888,122.18 189.137,304.973 215.201,515.882l-1099.414,0Z" style="fill:#566b8d;"/></g></svg>