<?xml version="1.0" encoding="UTF-8" standalone="no"?><!DOCTYPE svg PUBLIC "-//W3C//DTD SVG 1.1//EN" "http://www.w3.org/Graphics/SVG/1.1/DTD/svg11.dtd"><svg width="100%" height="100%" viewBox="0 0 2084 2084" version="1.1" xmlns="http://www.w3.org/2000/svg" xmlns:xlink="http://www.w3.org/1999/xlink" xml:space="preserve" xmlns:serif="http://www.serif.com/" style="fill-rule:evenodd;clip-rule:evenodd;stroke-linejoin:round;stroke-miterlimit:2;"><rect id="persons-admin" x="0" y="0" width="2083.333" height="2083.333" style="fill:none;"/><g id="Persons"><path id="Persons1" serif:id="Persons" d="M1264.706,225.211c19.101,-2.357 38.554,-3.571 58.288,-3.571c260.497,0 471.988,211.486 471.988,471.979c0,202.865 -128.262,376.003 -308.038,442.689c71.422,29.918 137.612,79.001 195.794,143.691c118.175,131.397 203.407,327.979 231.435,554.801l-335.216,-0c-45.685,-204.066 -132.415,-379.672 -244.763,-504.592c-67.63,-75.188 -144.559,-132.236 -227.576,-167.012c208.957,-77.509 358.037,-278.752 358.037,-514.542c0,-170.418 -77.874,-322.791 -199.949,-423.443Zm-1095.545,1753.956c32.578,-263.636 131.642,-492.128 269,-644.855c67.63,-75.188 144.559,-132.236 227.576,-167.012c-208.961,-77.509 -358.037,-278.752 -358.037,-514.542c0,-302.777 245.818,-548.591 548.595,-548.591c302.781,0 548.595,245.814 548.595,548.591c0,235.79 -149.08,437.033 -358.037,514.542c83.017,34.777 159.946,91.824 227.576,167.012c137.357,152.727 236.422,381.218 269,644.855l-1374.268,0Z" style="fill:#586c8d;"/></g></svg>