<?xml version="1.0" encoding="UTF-8" standalone="no"?><!DOCTYPE svg PUBLIC "-//W3C//DTD SVG 1.1//EN" "http://www.w3.org/Graphics/SVG/1.1/DTD/svg11.dtd"><svg width="100%" height="100%" viewBox="0 0 2084 2084" version="1.1" xmlns="http://www.w3.org/2000/svg" xmlns:xlink="http://www.w3.org/1999/xlink" xml:space="preserve" xmlns:serif="http://www.serif.com/" style="fill-rule:evenodd;clip-rule:evenodd;stroke-linejoin:round;stroke-miterlimit:2;"><rect id="project-page" x="0" y="0" width="2083.333" height="2083.333" style="fill:none;"/><clipPath id="_clip1"><rect x="0" y="0" width="2083.333" height="2083.333"/></clipPath><g clip-path="url(#_clip1)"><g id="page"><path d="M1796.35,372.543c8.271,8.293 12.916,19.527 12.916,31.24c0,164.411 0,1387.535 0,1636.72c0,11.733 -4.661,22.985 -12.957,31.281c-8.296,8.296 -19.548,12.957 -31.281,12.957c-223.172,0 -1223.551,0 -1446.723,0c-11.733,-0 -22.985,-4.661 -31.281,-12.957c-8.296,-8.296 -12.957,-19.548 -12.957,-31.281c0,-272.779 0,-1723.487 0,-1996.265c-0,-11.733 4.661,-22.985 12.957,-31.281c8.296,-8.296 19.548,-12.957 31.281,-12.957c193.261,0 959.525,0 1088.117,0c11.753,0 23.022,4.677 31.322,12.998c58.779,58.933 299.926,300.711 358.606,359.545Zm-480.642,-296.991c0,-0 -732.513,-0 -921.851,-0c-11.733,0 -22.985,4.661 -31.281,12.957c-8.296,8.296 -12.957,19.548 -12.957,31.281c-0,259.863 -0,1585.297 -0,1845.161c-0,11.733 4.661,22.985 12.957,31.281c8.296,8.296 19.548,12.957 31.281,12.957c208.033,0 1087.585,0 1295.618,0c24.432,-0 44.238,-19.806 44.238,-44.238c0,-250.136 0,-1476.131 0,-1476.131c0,-0 -266.253,-0 -373.767,0c-24.432,0 -44.238,-19.806 -44.238,-44.238c-0,-106.619 -0,-369.03 -0,-369.03Zm76.77,0l-1.217,-0c-0,-0 0,201.894 0,293.477c0,24.432 19.806,44.238 44.238,44.238l294.695,-0l-337.715,-337.715Z" style="fill:#566b8d;"/></g><g id="Project"><path id="Project1" serif:id="Project" d="M1328.647,1641.282l0,180.105c0,44.595 -36.205,80.8 -80.8,80.8l-646.399,0c-44.595,0 -80.8,-36.205 -80.8,-80.8l0,-923.13c0,-44.595 36.205,-80.8 80.8,-80.8l126.17,0l0,78.144l-126.17,0c-1.466,0 -2.656,1.19 -2.656,2.656l0,923.13c0,1.466 1.19,2.656 2.656,2.656l646.399,0c1.466,0 2.656,-1.19 2.656,-2.656l0,-97.04l78.144,-83.065Zm-78.144,-457.038l0,-285.987c0,-1.466 -1.19,-2.656 -2.656,-2.656l-126.17,0l0,-78.144l126.17,0c44.595,0 80.8,36.205 80.8,80.8l0,97.538l-78.144,188.449Zm-169.121,-395.501l0,106.445c0,29.374 -23.848,53.223 -53.223,53.223l-207.023,0c-29.374,0 -53.223,-23.848 -53.223,-53.223l0,-106.445c0,-29.374 23.848,-53.223 53.223,-53.223l207.023,0c29.374,0 53.223,23.848 53.223,53.223Zm-235.324,24.921l0,56.603l157.18,0l0.001,-56.603l-157.181,0Zm716.627,134.157l-266.314,642.231l-133.73,142.151l4.994,-195.105l266.314,-642.231l128.736,52.953Zm-708.763,48.271l6.596,32.11c12.765,1.953 25.275,5.305 37.306,9.996l21.767,-24.51c12.18,5.538 23.795,12.244 34.682,20.023l-10.343,31.106c10.078,8.074 19.236,17.232 27.31,27.31l31.106,-10.343c7.779,10.886 14.485,22.501 20.023,34.682l-24.51,21.767c4.691,12.031 8.043,24.542 9.996,37.306l32.11,6.596c1.294,13.318 1.294,26.729 0,40.047l-32.11,6.596c-1.953,12.765 -5.305,25.275 -9.996,37.306l24.51,21.767c-5.538,12.18 -12.244,23.795 -20.023,34.682l-31.106,-10.343c-8.074,10.078 -17.232,19.236 -27.31,27.31l10.343,31.106c-10.886,7.779 -22.501,14.485 -34.682,20.023l-21.767,-24.51c-12.031,4.691 -24.542,8.043 -37.306,9.996l-6.596,32.11c-13.318,1.294 -26.729,1.294 -40.047,0l-6.596,-32.11c-12.765,-1.953 -25.275,-5.305 -37.306,-9.996l-21.767,24.51c-12.18,-5.538 -23.795,-12.244 -34.682,-20.023l10.343,-31.106c-10.078,-8.074 -19.236,-17.232 -27.31,-27.31l-31.106,10.343c-7.779,-10.886 -14.485,-22.501 -20.023,-34.682l24.51,-21.767c-4.691,-12.031 -8.043,-24.542 -9.996,-37.306l-32.11,-6.596c-1.294,-13.318 -1.294,-26.729 0,-40.047l32.11,-6.596c1.953,-12.765 5.305,-25.275 9.996,-37.306l-24.51,-21.767c5.538,-12.18 12.244,-23.795 20.023,-34.682l31.106,10.343c8.074,-10.078 17.232,-19.236 27.31,-27.31l-10.343,-31.106c10.886,-7.779 22.501,-14.485 34.682,-20.023l21.767,24.51c12.031,-4.691 24.542,-8.043 37.306,-9.996l6.596,-32.11c13.318,-1.294 26.729,-1.294 40.047,0Zm-20.023,164.659c-22.853,0 -41.407,18.554 -41.407,41.407c0,22.853 18.554,41.407 41.407,41.407c22.853,0 41.407,-18.554 41.407,-41.407c0,-22.853 -18.554,-41.407 -41.407,-41.407Zm249.329,145.032l6.498,17.935c12.582,3.943 24.139,10.615 33.845,19.54l18.781,-3.34c8.975,10.289 15.866,22.224 20.289,35.141l-12.283,14.595c2.876,12.868 2.876,26.213 0,39.081l12.283,14.595c-4.423,12.917 -11.313,24.852 -20.289,35.141l-18.781,-3.34c-9.706,8.925 -21.263,15.597 -33.845,19.54l-6.498,17.935c-13.398,2.629 -27.179,2.629 -40.577,0l-6.498,-17.935c-12.582,-3.943 -24.139,-10.615 -33.845,-19.54l-18.781,3.34c-8.975,-10.289 -15.866,-22.224 -20.289,-35.141l12.283,-14.595c-2.876,-12.868 -2.876,-26.213 0,-39.081l-12.283,-14.595c4.423,-12.917 11.313,-24.852 20.289,-35.141l18.781,3.34c9.706,-8.925 21.263,-15.597 33.845,-19.54l6.498,-17.935c13.398,-2.629 27.179,-2.629 40.577,0Zm-20.289,82.335c-11.632,0 -21.077,9.444 -21.077,21.077c0,11.632 9.444,21.077 21.077,21.077c11.632,0 21.077,-9.444 21.077,-21.077c0,-11.632 -9.444,-21.077 -21.077,-21.077Zm43.79,183.988l0,51.285l-461.267,0l0,-51.285l461.267,0Zm-43.79,108.813l0,51.285l-417.477,0l0,-51.285l417.477,0Z" style="fill:#586c8d;"/></g></g></svg>