<?xml version="1.0" encoding="UTF-8" standalone="no"?><!DOCTYPE svg PUBLIC "-//W3C//DTD SVG 1.1//EN" "http://www.w3.org/Graphics/SVG/1.1/DTD/svg11.dtd"><svg width="100%" height="100%" viewBox="0 0 2084 2084" version="1.1" xmlns="http://www.w3.org/2000/svg" xmlns:xlink="http://www.w3.org/1999/xlink" xml:space="preserve" xmlns:serif="http://www.serif.com/" style="fill-rule:evenodd;clip-rule:evenodd;stroke-linejoin:round;stroke-miterlimit:2;"><rect id="project-admin" x="0" y="0" width="2083.333" height="2083.333" style="fill:none;"/><g id="Project"><path id="Project1" serif:id="Project" d="M1502.885,1559.855l0,289.455c0,71.67 -58.187,129.857 -129.857,129.857l-1038.856,0c-71.67,0 -129.857,-58.187 -129.857,-129.857l0,-1483.602c0,-71.67 58.187,-129.857 129.857,-129.857l202.774,0l0,125.589l-202.774,0c-2.356,0 -4.268,1.913 -4.268,4.268l0,1483.602c0,2.356 1.913,4.268 4.268,4.268l1038.856,0c2.356,0 4.268,-1.913 4.268,-4.268l0,-155.958l125.589,-133.497Zm-125.589,-734.525l0,-459.622c0,-2.356 -1.913,-4.268 -4.268,-4.268l-202.774,0l0,-125.589l202.774,0c71.67,0 129.857,58.187 129.857,129.857l0,156.757l-125.589,302.865Zm-271.802,-635.627l0,171.073c0,47.209 -38.328,85.536 -85.536,85.536l-332.715,0c-47.209,0 -85.536,-38.328 -85.536,-85.536l0,-171.073c0,-47.209 38.328,-85.536 85.536,-85.536l332.715,0c47.209,0 85.536,38.328 85.536,85.536Zm-378.199,40.052l0,90.968l252.611,0l0.001,-90.968l-252.612,0Zm1151.722,215.609l-428.004,1032.157l-214.924,228.457l8.027,-313.561l428.004,-1032.157l206.897,85.104Zm-1139.083,77.579l10.6,51.605c20.514,3.139 40.621,8.527 59.957,16.065l34.982,-39.391c19.576,8.901 38.242,19.678 55.738,32.18l-16.623,49.991c16.196,12.976 30.915,27.695 43.891,43.891l49.991,-16.623c12.503,17.496 23.28,36.163 32.18,55.738l-39.391,34.982c7.539,19.336 12.926,39.442 16.065,59.957l51.605,10.6c2.08,21.403 2.08,42.958 0,64.361l-51.605,10.6c-3.139,20.514 -8.527,40.621 -16.065,59.957l39.391,34.982c-8.901,19.576 -19.678,38.242 -32.18,55.738l-49.991,-16.623c-12.976,16.196 -27.695,30.915 -43.891,43.891l16.623,49.991c-17.496,12.503 -36.163,23.28 -55.738,32.18l-34.982,-39.391c-19.336,7.539 -39.442,12.926 -59.957,16.065l-10.6,51.605c-21.403,2.08 -42.958,2.08 -64.361,0l-10.6,-51.605c-20.514,-3.139 -40.621,-8.527 -59.957,-16.065l-34.982,39.391c-19.576,-8.901 -38.242,-19.678 -55.738,-32.18l16.623,-49.991c-16.196,-12.976 -30.915,-27.695 -43.891,-43.891l-49.991,16.623c-12.503,-17.496 -23.28,-36.163 -32.18,-55.738l39.391,-34.982c-7.539,-19.336 -12.926,-39.442 -16.065,-59.957l-51.605,-10.6c-2.08,-21.403 -2.08,-42.958 0,-64.361l51.605,-10.6c3.139,-20.514 8.527,-40.621 16.065,-59.957l-39.391,-34.982c8.901,-19.576 19.678,-38.242 32.18,-55.738l49.991,16.623c12.976,-16.196 27.695,-30.915 43.891,-43.891l-16.623,-49.991c17.496,-12.503 36.163,-23.28 55.738,-32.18l34.982,39.391c19.336,-7.539 39.442,-12.926 59.957,-16.065l10.6,-51.605c21.403,-2.08 42.958,-2.08 64.361,0Zm-32.18,264.63c-36.729,0 -66.547,29.819 -66.547,66.547c0,36.729 29.819,66.547 66.547,66.547c36.729,0 66.547,-29.819 66.547,-66.547c0,-36.729 -29.819,-66.547 -66.547,-66.547Zm400.708,233.088l10.444,28.824c20.222,6.337 38.795,17.06 54.393,31.404l30.184,-5.368c14.425,16.535 25.499,35.716 32.607,56.476l-19.741,23.456c4.623,20.681 4.623,42.127 0,62.808l19.741,23.456c-7.108,20.76 -18.182,39.941 -32.607,56.476l-30.184,-5.368c-15.599,14.344 -34.172,25.067 -54.393,31.404l-10.444,28.824c-21.532,4.225 -43.681,4.225 -65.213,0l-10.444,-28.824c-20.222,-6.337 -38.795,-17.06 -54.393,-31.404l-30.184,5.368c-14.425,-16.535 -25.499,-35.716 -32.607,-56.476l19.741,-23.456c-4.623,-20.681 -4.623,-42.127 0,-62.808l-19.741,-23.456c7.108,-20.76 18.182,-39.941 32.607,-56.476l30.184,5.368c15.599,-14.344 34.172,-25.067 54.393,-31.404l10.444,-28.824c21.532,-4.225 43.681,-4.225 65.213,0Zm-32.607,132.324c-18.695,0 -33.873,15.178 -33.873,33.873c0,18.695 15.178,33.873 33.873,33.873c18.695,0 33.873,-15.178 33.873,-33.873c0,-18.695 -15.178,-33.873 -33.873,-33.873Zm70.376,295.695l0,82.422l-741.322,0l0,-82.422l741.322,0Zm-70.376,174.878l0,82.422l-670.945,0l0,-82.422l670.945,0Z" style="fill:#586c8d;"/></g></svg>