<?xml version="1.0" encoding="UTF-8" standalone="no"?><!DOCTYPE svg PUBLIC "-//W3C//DTD SVG 1.1//EN" "http://www.w3.org/Graphics/SVG/1.1/DTD/svg11.dtd"><svg width="100%" height="100%" viewBox="0 0 2084 2084" version="1.1" xmlns="http://www.w3.org/2000/svg" xmlns:xlink="http://www.w3.org/1999/xlink" xml:space="preserve" xmlns:serif="http://www.serif.com/" style="fill-rule:evenodd;clip-rule:evenodd;stroke-linejoin:round;stroke-miterlimit:2;"><rect id="qa-admin" x="0" y="0" width="2083.333" height="2083.333" style="fill:none;"/><g id="QA"><path d="M805.468,1249.252l-416.293,0l0,-70.691c0,-93.507 10.473,-162.515 31.418,-207.024c20.946,-44.509 59.096,-79.107 114.452,-103.793l76.302,-33.662c57.6,-25.434 86.4,-61.341 86.4,-107.72c0,-26.93 -9.351,-49.746 -28.052,-68.447c-18.701,-18.701 -41.517,-28.052 -68.447,-28.052c-73.309,0 -109.964,50.868 -109.964,152.603l-387.118,0c0,-136.146 31.418,-247.232 94.255,-333.259c46.379,-63.585 106.598,-114.078 180.655,-151.481c74.057,-37.403 150.733,-56.104 230.027,-56.104c140.634,0 259.014,46.566 355.139,139.699c96.125,93.133 144.188,208.52 144.188,346.162c0,169.808 -68.821,289.123 -206.463,357.944c-44.883,22.442 -72.187,41.891 -81.912,58.348c-9.725,16.457 -14.587,51.616 -14.587,105.476Zm-200.853,59.47c73.309,0 136.333,26.556 189.071,79.668c52.738,53.112 79.107,116.323 79.107,189.632c0,73.309 -26.182,135.585 -78.546,186.827c-52.364,51.242 -115.575,76.863 -189.632,76.863c-77.05,0 -140.447,-24.873 -190.193,-74.618c-49.746,-49.746 -74.618,-113.143 -74.618,-190.193c0,-74.806 25.808,-138.203 77.424,-190.193c51.616,-51.99 114.078,-77.985 187.388,-77.985Zm1322.935,-1028.95l-7.855,950.404l-398.339,0l-23.564,-950.404l429.758,0Zm-216.562,1028.95c73.309,0 136.333,26.556 189.071,79.668c52.738,53.112 79.107,116.323 79.107,189.632c0,73.309 -26.182,135.585 -78.546,186.827c-52.364,51.242 -115.575,76.863 -189.632,76.863c-77.05,0 -140.447,-24.873 -190.193,-74.618c-49.746,-49.746 -74.618,-113.143 -74.618,-190.193c0,-74.806 25.808,-138.203 77.424,-190.193c51.616,-51.99 114.078,-77.985 187.388,-77.985Z" style="fill:#566b8d;"/></g></svg>