<?xml version="1.0" encoding="UTF-8" standalone="no"?><!DOCTYPE svg PUBLIC "-//W3C//DTD SVG 1.1//EN" "http://www.w3.org/Graphics/SVG/1.1/DTD/svg11.dtd"><svg width="100%" height="100%" viewBox="0 0 2084 2084" version="1.1" xmlns="http://www.w3.org/2000/svg" xmlns:xlink="http://www.w3.org/1999/xlink" xml:space="preserve" xmlns:serif="http://www.serif.com/" style="fill-rule:evenodd;clip-rule:evenodd;stroke-linejoin:round;stroke-miterlimit:2;"><rect id="qa-element" x="0" y="0" width="2083.333" height="2083.333" style="fill:none;"/><g id="element"><path d="M1784.418,140.539c87.221,0 158.375,71.153 158.375,158.375l0,1485.504c0,87.221 -71.153,158.375 -158.375,158.375l-1485.504,0c-87.221,0 -158.375,-71.153 -158.375,-158.375l0,-1485.504c0,-87.221 71.153,-158.375 158.375,-158.375l1485.504,0m0,-78.039l-1485.504,0c-130.831,0 -236.414,106.042 -236.414,236.414l0,1485.504c0,130.831 106.042,236.415 236.414,236.415l1485.504,0c130.831,0 236.415,-106.042 236.415,-236.415l0,-1485.504c0,-130.831 -105.584,-236.414 -236.415,-236.414Z" style="fill:#566b8d;fill-rule:nonzero;"/></g><g id="QA"><path d="M852.708,1207.735l-333.034,0l0,-56.553c0,-74.806 8.378,-130.012 25.135,-165.619c16.756,-35.607 47.277,-63.285 91.562,-83.034l61.041,-26.93c46.08,-20.347 69.12,-49.072 69.12,-86.176c0,-21.544 -7.481,-39.797 -22.442,-54.758c-14.961,-14.961 -33.214,-22.442 -54.758,-22.442c-58.648,0 -87.971,40.694 -87.971,122.083l-309.695,0c0,-108.917 25.135,-197.786 75.404,-266.607c37.104,-50.868 85.278,-91.263 144.524,-121.185c59.246,-29.922 120.586,-44.883 184.022,-44.883c112.507,0 207.211,37.253 284.111,111.759c76.9,74.506 115.35,166.816 115.35,276.93c0,135.847 -55.057,231.299 -165.171,286.355c-35.907,17.953 -57.75,33.513 -65.53,46.679c-7.78,13.166 -11.67,41.293 -11.67,84.381Zm-160.682,47.576c58.648,0 109.066,21.245 151.257,63.734c42.19,42.49 63.285,93.058 63.285,151.706c0,58.648 -20.946,108.468 -62.837,149.461c-41.891,40.993 -92.46,61.49 -151.706,61.49c-61.64,0 -112.358,-19.898 -152.154,-59.695c-39.797,-39.797 -59.695,-90.515 -59.695,-152.154c0,-59.844 20.646,-110.563 61.939,-152.154c41.293,-41.592 91.263,-62.388 149.91,-62.388Zm1058.348,-823.16l-6.284,760.323l-318.671,0l-18.851,-760.323l343.806,0Zm-173.25,823.16c58.648,0 109.066,21.245 151.257,63.734c42.19,42.49 63.285,93.058 63.285,151.706c0,58.648 -20.946,108.468 -62.837,149.461c-41.891,40.993 -92.46,61.49 -151.706,61.49c-61.64,0 -112.358,-19.898 -152.154,-59.695c-39.797,-39.797 -59.695,-90.515 -59.695,-152.154c0,-59.844 20.646,-110.563 61.939,-152.154c41.293,-41.592 91.263,-62.388 149.91,-62.388Z" style="fill:#566b8d;"/></g></svg>