<?xml version="1.0" encoding="UTF-8" standalone="no"?><!DOCTYPE svg PUBLIC "-//W3C//DTD SVG 1.1//EN" "http://www.w3.org/Graphics/SVG/1.1/DTD/svg11.dtd"><svg width="100%" height="100%" viewBox="0 0 2084 2084" version="1.1" xmlns="http://www.w3.org/2000/svg" xmlns:xlink="http://www.w3.org/1999/xlink" xml:space="preserve" xmlns:serif="http://www.serif.com/" style="fill-rule:evenodd;clip-rule:evenodd;stroke-linejoin:round;stroke-miterlimit:2;"><rect id="qa-page" x="0" y="0" width="2083.333" height="2083.333" style="fill:none;"/><clipPath id="_clip1"><rect x="0" y="0" width="2083.333" height="2083.333"/></clipPath><g clip-path="url(#_clip1)"><g id="page"><path d="M1796.35,372.543c8.271,8.293 12.916,19.527 12.916,31.24c0,164.411 0,1387.535 0,1636.72c0,11.733 -4.661,22.985 -12.957,31.281c-8.296,8.296 -19.548,12.957 -31.281,12.957c-223.172,0 -1223.551,0 -1446.723,0c-11.733,-0 -22.985,-4.661 -31.281,-12.957c-8.296,-8.296 -12.957,-19.548 -12.957,-31.281c-0,-272.779 -0,-1723.487 -0,-1996.265c-0,-11.733 4.661,-22.985 12.957,-31.281c8.296,-8.296 19.548,-12.957 31.281,-12.957l1088.117,0c11.753,0 23.022,4.677 31.322,12.998c58.779,58.933 299.926,300.711 358.606,359.545Zm-480.642,-296.991c0,0 -732.513,-0 -921.851,-0c-11.733,0 -22.985,4.661 -31.281,12.957c-8.296,8.296 -12.957,19.548 -12.957,31.281c-0,259.863 -0,1585.297 -0,1845.161c-0,11.733 4.661,22.985 12.957,31.281c8.296,8.296 19.548,12.957 31.281,12.957c208.033,0 1087.585,0 1295.618,0c24.432,-0 44.238,-19.806 44.238,-44.238c0,-250.136 0,-1476.131 0,-1476.131c0,0 -266.253,0 -373.767,0c-24.432,0 -44.238,-19.806 -44.238,-44.238c-0,-106.619 -0,-369.03 -0,-369.03Zm76.77,0l-1.217,-0c0,0 0,201.894 0,293.477c0,24.432 19.806,44.238 44.238,44.238c91.838,-0 294.695,-0 294.695,-0l-337.715,-337.715Z" style="fill:#566b8d;"/></g><g id="QA"><path d="M894.699,1448.018l-259.027,0l0,-43.986c0,-58.182 6.516,-101.12 19.549,-128.815c13.033,-27.695 36.771,-49.222 71.215,-64.582l47.477,-20.946c35.84,-15.826 53.76,-38.167 53.76,-67.026c0,-16.756 -5.818,-30.953 -17.455,-42.589c-11.636,-11.636 -25.833,-17.455 -42.589,-17.455c-45.615,0 -68.422,31.651 -68.422,94.953l-240.874,0c0,-84.713 19.549,-153.833 58.648,-207.361c28.858,-39.564 66.328,-70.982 112.408,-94.255c46.08,-23.273 93.789,-34.909 143.128,-34.909c87.506,0 161.164,28.975 220.975,86.924c59.811,57.949 89.717,129.746 89.717,215.39c0,105.659 -42.822,179.899 -128.466,222.721c-27.927,13.964 -44.917,26.066 -50.967,36.306c-6.051,10.24 -9.076,32.116 -9.076,65.629Zm-124.975,37.004c45.615,0 84.829,16.524 117.644,49.571c32.815,33.047 49.222,72.378 49.222,117.993c0,45.615 -16.291,84.364 -48.873,116.248c-32.582,31.884 -71.913,47.826 -117.993,47.826c-47.942,0 -87.389,-15.476 -118.342,-46.429c-30.953,-30.953 -46.429,-70.4 -46.429,-118.342c0,-46.546 16.058,-85.993 48.175,-118.342c32.116,-32.349 70.982,-48.524 116.597,-48.524Zm823.16,-640.235l-4.887,591.362l-247.856,0l-14.662,-591.362l267.405,0Zm-134.75,640.235c45.615,0 84.829,16.524 117.644,49.571c32.815,33.047 49.222,72.378 49.222,117.993c0,45.615 -16.291,84.364 -48.873,116.248c-32.582,31.884 -71.913,47.826 -117.993,47.826c-47.942,0 -87.389,-15.476 -118.342,-46.429c-30.953,-30.953 -46.429,-70.4 -46.429,-118.342c0,-46.546 16.058,-85.993 48.175,-118.342c32.116,-32.349 70.982,-48.524 116.597,-48.524Z" style="fill:#566b8d;"/></g></g></svg>