<?xml version="1.0" encoding="UTF-8" standalone="no"?><!DOCTYPE svg PUBLIC "-//W3C//DTD SVG 1.1//EN" "http://www.w3.org/Graphics/SVG/1.1/DTD/svg11.dtd"><svg width="100%" height="100%" viewBox="0 0 2084 2084" version="1.1" xmlns="http://www.w3.org/2000/svg" xmlns:xlink="http://www.w3.org/1999/xlink" xml:space="preserve" xmlns:serif="http://www.serif.com/" style="fill-rule:evenodd;clip-rule:evenodd;stroke-linejoin:round;stroke-miterlimit:2;"><rect id="slider-element" x="0" y="-0" width="2083.333" height="2083.333" style="fill:none;"/><g id="element"><path d="M1784.418,140.539c87.221,0 158.375,71.153 158.375,158.375l0,1485.504c0,87.221 -71.153,158.375 -158.375,158.375l-1485.504,0c-87.221,0 -158.375,-71.153 -158.375,-158.375l0,-1485.504c0,-87.221 71.153,-158.375 158.375,-158.375l1485.504,0m0,-78.039l-1485.504,0c-130.831,0 -236.414,106.042 -236.414,236.414l-0,1485.504c0,130.831 106.042,236.415 236.414,236.415l1485.504,0c130.831,0 236.415,-106.042 236.415,-236.415l0,-1485.504c0,-130.831 -105.584,-236.414 -236.415,-236.414Z" style="fill:#566b8d;fill-rule:nonzero;"/></g><g id="Slider"><g><path d="M1303.781,738.241c29.273,0 52.041,23.581 52.041,52.041l0,502.771c0,29.273 -23.581,52.041 -52.041,52.041l-524.229,0c-29.273,0 -52.041,-23.581 -52.041,-52.041l0,-502.771c0,-29.273 23.581,-52.041 52.041,-52.041l524.229,0m0,-47.975l-524.229,0c-55.293,0 -100.016,45.536 -100.016,100.016l0,502.771c0,55.293 45.536,100.016 100.016,100.016l524.229,0c55.293,0 100.016,-45.536 100.016,-100.016l0,-502.771c-0,-54.48 -44.723,-100.016 -100.016,-100.016Z" style="fill:#566b8d;fill-rule:nonzero;"/><path d="M1303.781,738.241c29.273,0 52.041,23.581 52.041,52.041l0,502.771c0,29.273 -23.581,52.041 -52.041,52.041l-524.229,0c-29.273,0 -52.041,-23.581 -52.041,-52.041l0,-502.771c0,-29.273 23.581,-52.041 52.041,-52.041l524.229,0m0,-47.975l-524.229,0c-55.293,0 -100.016,45.536 -100.016,100.016l0,502.771c0,55.293 45.536,100.016 100.016,100.016l524.229,0c55.293,0 100.016,-45.536 100.016,-100.016l0,-502.771c-0,-54.48 -44.723,-100.016 -100.016,-100.016Z" style="fill:#566b8d;fill-rule:nonzero;"/><path d="M136.757,690.265l339.43,0c55.293,0 100.016,45.536 100.016,100.016l0,502.771c0,55.293 -45.536,100.016 -100.016,100.016l-339.43,0l0,-47.975l339.43,0c29.273,0 52.041,-23.581 52.041,-52.041l0,-502.771c0,-29.273 -23.581,-52.041 -52.041,-52.041l-339.43,0l0,-47.975Z" style="fill:#566b8d;"/><path d="M1946.576,1393.068l-356.834,0c-55.293,0 -82.612,-45.536 -82.612,-100.016l0,-502.771c0,-54.48 27.318,-100.016 82.612,-100.016l356.834,0l0,47.975l-356.834,0c-29.273,0 -34.636,23.581 -34.636,52.041l0,502.771c0,29.273 6.177,52.041 34.636,52.041l356.834,0l0,47.975Z" style="fill:#566b8d;"/></g><g><path d="M950.653,937.923l-170.572,295.318l341.78,0l-171.208,-295.318Z" style="fill:#566b8d;fill-rule:nonzero;"/><path d="M1160.049,1030.21l-142.567,203.031l285.771,0l-143.204,-203.031Z" style="fill:#566b8d;fill-rule:nonzero;"/><circle cx="1116.133" cy="894.007" r="43.916" style="fill:#566b8d;"/></g></g></svg>