<?xml version="1.0" encoding="UTF-8" standalone="no"?><!DOCTYPE svg PUBLIC "-//W3C//DTD SVG 1.1//EN" "http://www.w3.org/Graphics/SVG/1.1/DTD/svg11.dtd"><svg width="100%" height="100%" viewBox="0 0 2084 2084" version="1.1" xmlns="http://www.w3.org/2000/svg" xmlns:xlink="http://www.w3.org/1999/xlink" xml:space="preserve" xmlns:serif="http://www.serif.com/" style="fill-rule:evenodd;clip-rule:evenodd;stroke-linejoin:round;stroke-miterlimit:2;"><rect id="slider-admin" x="0" y="-0" width="2083.333" height="2083.333" style="fill:none;"/><g id="Slider"><g><path d="M1313.221,727.313c30.327,0 53.915,24.43 53.915,53.915l0,520.878c0,30.327 -24.43,53.915 -53.915,53.915l-543.109,0c-30.327,0 -53.915,-24.43 -53.915,-53.915l0,-520.878c0,-30.327 24.43,-53.915 53.915,-53.915l543.109,0m0,-49.703l-543.109,0c-57.285,0 -103.618,47.176 -103.618,103.618l0,520.878c0,57.285 47.176,103.618 103.618,103.618l543.109,0c57.285,0 103.618,-47.176 103.618,-103.618l0,-520.878c-0,-56.442 -46.333,-103.618 -103.618,-103.618Z" style="fill:#566b8d;fill-rule:nonzero;"/><path d="M1313.221,727.313c30.327,0 53.915,24.43 53.915,53.915l0,520.878c0,30.327 -24.43,53.915 -53.915,53.915l-543.109,0c-30.327,0 -53.915,-24.43 -53.915,-53.915l0,-520.878c0,-30.327 24.43,-53.915 53.915,-53.915l543.109,0m0,-49.703l-543.109,0c-57.285,0 -103.618,47.176 -103.618,103.618l0,520.878c0,57.285 47.176,103.618 103.618,103.618l543.109,0c57.285,0 103.618,-47.176 103.618,-103.618l0,-520.878c-0,-56.442 -46.333,-103.618 -103.618,-103.618Z" style="fill:#566b8d;fill-rule:nonzero;"/><path d="M104.167,677.61l351.654,0c57.285,0 103.618,47.176 103.618,103.618l0,520.878c0,57.285 -47.176,103.618 -103.618,103.618l-351.654,0l0,-49.703l351.654,0c30.327,0 53.915,-24.43 53.915,-53.915l0,-520.878c0,-30.327 -24.43,-53.915 -53.915,-53.915l-351.654,0l0,-49.703Z" style="fill:#566b8d;"/><path d="M1979.167,1405.724l-369.686,0c-57.285,0 -85.587,-47.176 -85.587,-103.618l0,-520.878c0,-56.442 28.302,-103.618 85.587,-103.618l369.686,0l0,49.703l-369.686,0c-30.327,0 -35.884,24.43 -35.884,53.915l0,520.878c0,30.327 6.399,53.915 35.884,53.915l369.686,0l0,49.703Z" style="fill:#566b8d;"/></g><g><path d="M947.375,934.187l-176.715,305.954l354.089,0l-177.374,-305.954Z" style="fill:#566b8d;fill-rule:nonzero;"/><path d="M1164.312,1029.798l-147.702,210.344l296.064,0l-148.361,-210.344Z" style="fill:#566b8d;fill-rule:nonzero;"/><circle cx="1118.815" cy="888.69" r="45.498" style="fill:#566b8d;"/></g></g></svg>