<?xml version="1.0" encoding="UTF-8" standalone="no"?><!DOCTYPE svg PUBLIC "-//W3C//DTD SVG 1.1//EN" "http://www.w3.org/Graphics/SVG/1.1/DTD/svg11.dtd"><svg width="100%" height="100%" viewBox="0 0 2084 2084" version="1.1" xmlns="http://www.w3.org/2000/svg" xmlns:xlink="http://www.w3.org/1999/xlink" xml:space="preserve" xmlns:serif="http://www.serif.com/" style="fill-rule:evenodd;clip-rule:evenodd;stroke-linejoin:round;stroke-miterlimit:2;"><rect id="social-admin" x="0" y="0" width="2083.333" height="2083.333" style="fill:none;"/><g id="social"><path id="social1" serif:id="social" d="M1694.503,104.167c157.11,0 284.663,127.553 284.663,284.663c0,157.11 -127.553,284.663 -284.663,284.663c-157.11,0 -284.663,-127.553 -284.663,-284.663c0,-157.11 127.553,-284.663 284.663,-284.663Zm-1305.673,652.837c157.11,0 284.663,127.553 284.663,284.663c0,157.11 -127.553,284.663 -284.663,284.663c-157.11,0 -284.663,-127.553 -284.663,-284.663c0,-157.11 127.553,-284.663 284.663,-284.663Zm1305.673,652.837c157.11,0 284.663,127.553 284.663,284.663c0,157.11 -127.553,284.663 -284.663,284.663c-157.11,0 -284.663,-127.553 -284.663,-284.663c0,-157.11 127.553,-284.663 284.663,-284.663Zm-1010.142,-620.755l630.633,-315.317c14.059,62.996 43.422,120.247 83.977,167.643l-630.633,315.317c-14.059,-62.996 -43.422,-120.247 -83.977,-167.643Zm83.977,337.52l630.633,315.317c-40.555,47.396 -69.918,104.647 -83.977,167.643l-630.633,-315.317c40.555,-47.396 69.918,-104.647 83.977,-167.643Z" style="fill:#566b8d;"/></g></svg>