<?xml version="1.0" encoding="UTF-8" standalone="no"?><!DOCTYPE svg PUBLIC "-//W3C//DTD SVG 1.1//EN" "http://www.w3.org/Graphics/SVG/1.1/DTD/svg11.dtd"><svg width="100%" height="100%" viewBox="0 0 2084 2084" version="1.1" xmlns="http://www.w3.org/2000/svg" xmlns:xlink="http://www.w3.org/1999/xlink" xml:space="preserve" xmlns:serif="http://www.serif.com/" style="fill-rule:evenodd;clip-rule:evenodd;stroke-linejoin:round;stroke-miterlimit:2;"><rect id="subpages-element" x="0" y="-0" width="2083.333" height="2083.333" style="fill:none;"/><g id="element"><path d="M1784.418,140.539c87.221,0 158.375,71.153 158.375,158.375l0,1485.504c0,87.221 -71.153,158.375 -158.375,158.375l-1485.504,0c-87.221,0 -158.375,-71.153 -158.375,-158.375l0,-1485.504c0,-87.221 71.153,-158.375 158.375,-158.375l1485.504,0m0,-78.039l-1485.504,0c-130.831,0 -236.414,106.042 -236.414,236.414l0,1485.504c0,130.831 106.042,236.415 236.414,236.415l1485.504,0c130.831,0 236.415,-106.042 236.415,-236.415l0,-1485.504c0,-130.831 -105.584,-236.414 -236.415,-236.414Z" style="fill:#566b8d;fill-rule:nonzero;"/></g><g id="SubPages"><path d="M1249.319,389.363c8.271,8.293 12.916,19.528 12.916,31.24c0,70.017 0,322.241 0,425.2c-0,24.432 -19.806,44.238 -44.238,44.238c-84.447,-0 -267.718,-0 -352.165,-0c-24.432,-0 -44.238,-19.806 -44.238,-44.238c0,-110.776 0,-399.122 0,-509.898c0,-24.432 19.806,-44.238 44.238,-44.238c73.294,0 216.873,0 267.688,0c11.753,0 23.022,4.677 31.322,12.998c21.252,21.308 63.256,63.422 84.477,84.698Zm-128.747,-76.011c0,-0 -154.769,-0 -233.054,-0c-24.432,0 -44.238,19.806 -44.238,44.238c-0,103.912 -0,362.615 -0,466.527c-0,11.733 4.661,22.985 12.957,31.281c8.296,8.296 19.548,12.957 31.281,12.957c76.435,0 232.359,0 308.794,0c11.733,0 22.985,-4.661 31.281,-12.957c8.296,-8.296 12.957,-19.548 12.957,-31.281c0,-110.937 0,-392.147 0,-392.147c0,-0 -41.544,-0 -75.74,-0c-24.432,0 -44.238,-19.806 -44.238,-44.238c-0,-33.711 -0,-74.38 -0,-74.38Zm22.035,0l-0.349,-0c0,0 0,27.137 0,52.695c0,24.432 19.806,44.238 44.238,44.238c25.696,-0 53.044,-0 53.044,-0l-96.933,-96.933Z" style="fill:#566b8d;"/><g><path d="M1202.43,1394.238c8.271,8.293 12.916,19.528 12.916,31.24c-0,57.818 -0,237.779 -0,321.95c-0,24.432 -19.806,44.238 -44.238,44.238c-66.678,-0 -192.205,-0 -258.884,-0c-24.432,-0 -44.238,-19.806 -44.238,-44.238c-0,-89.954 -0,-293.271 -0,-383.225c0,-11.733 4.661,-22.985 12.957,-31.281c8.296,-8.296 19.548,-12.957 31.281,-12.957c57.959,-0 157.001,-0 197.768,-0c11.753,-0 23.022,4.677 31.322,12.998c16.458,16.501 44.68,44.797 61.115,61.275Zm-98.758,-57.178c-0,-0 -110.479,-0 -174.353,-0c-11.733,-0 -22.985,4.661 -31.281,12.957c-8.296,8.296 -12.957,19.548 -12.957,31.281c-0,83.882 -0,265.154 -0,349.036c-0,24.432 19.806,44.238 44.238,44.238c59.606,0 165.088,0 224.694,0c24.432,-0 44.238,-19.806 44.238,-44.238c0,-92.896 0,-299.766 0,-299.766c-0,-0 -25.724,-0 -50.341,-0c-11.733,-0 -22.985,-4.661 -31.281,-12.957c-8.296,-8.296 -12.957,-19.548 -12.957,-31.281c-0,-24.185 -0,-49.269 -0,-49.269Zm17.37,0l-0.275,-0c0,-0 0,15.28 0,32.175c-0,11.733 4.661,22.985 12.957,31.281c8.296,8.296 19.548,12.957 31.281,12.957c17.018,0 32.45,0 32.45,0l-76.413,-76.413Z" style="fill:#566b8d;"/><path d="M672.703,1394.238c8.271,8.293 12.916,19.528 12.916,31.24c-0,57.818 -0,237.779 -0,321.95c-0,24.432 -19.806,44.238 -44.238,44.238c-66.678,-0 -192.205,-0 -258.884,-0c-24.432,-0 -44.238,-19.806 -44.238,-44.238c-0,-89.954 -0,-293.271 -0,-383.225c0,-11.733 4.661,-22.985 12.957,-31.281c8.296,-8.296 19.548,-12.957 31.281,-12.957c57.959,-0 157.001,-0 197.768,-0c11.753,-0 23.022,4.677 31.322,12.998c16.458,16.501 44.68,44.797 61.115,61.275Zm-98.758,-57.178c-0,-0 -110.479,-0 -174.353,-0c-11.733,-0 -22.985,4.661 -31.281,12.957c-8.296,8.296 -12.957,19.548 -12.957,31.281c-0,83.882 -0,265.154 -0,349.036c-0,24.432 19.806,44.238 44.238,44.238c59.606,0 165.088,0 224.694,0c24.432,-0 44.238,-19.806 44.238,-44.238c0,-92.896 0,-299.766 0,-299.766c-0,0 -25.724,0 -50.341,0c-11.733,-0 -22.985,-4.661 -31.281,-12.957c-8.296,-8.296 -12.957,-19.548 -12.957,-31.281c-0,-24.185 -0,-49.269 -0,-49.269Zm17.37,0l-0.275,-0c0,-0 0,15.28 0,32.175c-0,11.733 4.661,22.985 12.957,31.281c8.296,8.296 19.548,12.957 31.281,12.957c17.018,0 32.45,0 32.45,0l-76.413,-76.413Z" style="fill:#566b8d;"/><path d="M1732.157,1394.238c8.271,8.293 12.916,19.528 12.916,31.24c-0,57.818 -0,237.779 -0,321.95c-0,24.432 -19.806,44.238 -44.238,44.238c-66.678,-0 -192.205,-0 -258.884,-0c-24.432,-0 -44.238,-19.806 -44.238,-44.238c-0,-89.954 -0,-293.271 -0,-383.225c0,-11.733 4.661,-22.985 12.957,-31.281c8.296,-8.296 19.548,-12.957 31.281,-12.957c57.959,-0 157.001,-0 197.768,-0c11.753,-0 23.022,4.677 31.322,12.998c16.458,16.501 44.68,44.797 61.115,61.275Zm-98.758,-57.178c-0,-0 -110.479,-0 -174.353,-0c-11.733,-0 -22.985,4.661 -31.281,12.957c-8.296,8.296 -12.957,19.548 -12.957,31.281c-0,83.882 -0,265.154 -0,349.036c-0,24.432 19.806,44.238 44.238,44.238c59.606,0 165.088,0 224.694,0c24.432,-0 44.238,-19.806 44.238,-44.238c0,-92.896 0,-299.766 0,-299.766c-0,0 -25.724,0 -50.341,0c-11.733,-0 -22.985,-4.661 -31.281,-12.957c-8.296,-8.296 -12.957,-19.548 -12.957,-31.281c-0,-24.185 -0,-49.269 -0,-49.269Zm17.37,0l-0.275,-0c0,-0 0,15.28 0,32.175c-0,11.733 4.661,22.985 12.957,31.281c8.296,8.296 19.548,12.957 31.281,12.957c17.018,0 32.45,0 32.45,0l-76.413,-76.413Z" style="fill:#566b8d;"/></g><g><path d="M1005.293,997.002c0.081,-20.212 16.556,-36.556 36.768,-36.475c20.212,0.081 36.556,16.556 36.475,36.768l-0.863,215.709c-0.081,20.212 -16.556,36.556 -36.768,36.475c-20.212,-0.081 -36.556,-16.556 -36.475,-36.768l0.863,-215.709Z" style="fill:#566b8d;"/><path d="M1041.419,1084.607c20.212,-0 36.622,16.41 36.622,36.622c0,20.212 -16.41,36.622 -36.622,36.622l-492.857,-0l0,55.007c0,20.212 -16.41,36.622 -36.622,36.622c-20.212,0 -36.622,-16.41 -36.622,-36.622l0,-91.628c0,-20.226 16.396,-36.622 36.622,-36.622l529.479,0Z" style="fill:#566b8d;"/><path d="M1041.419,1157.851c-20.212,-0 -36.622,-16.41 -36.622,-36.622c0,-20.212 16.41,-36.622 36.622,-36.622l529.479,0c20.226,-0 36.622,16.396 36.622,36.622l0,91.628c0,20.212 -16.41,36.622 -36.622,36.622c-20.212,0 -36.622,-16.41 -36.622,-36.622l-0,-55.007l-492.857,0Z" style="fill:#566b8d;"/></g></g></svg>