<?xml version="1.0" encoding="UTF-8" standalone="no"?><!DOCTYPE svg PUBLIC "-//W3C//DTD SVG 1.1//EN" "http://www.w3.org/Graphics/SVG/1.1/DTD/svg11.dtd"><svg width="100%" height="100%" viewBox="0 0 2084 2084" version="1.1" xmlns="http://www.w3.org/2000/svg" xmlns:xlink="http://www.w3.org/1999/xlink" xml:space="preserve" xmlns:serif="http://www.serif.com/" style="fill-rule:evenodd;clip-rule:evenodd;stroke-linejoin:round;stroke-miterlimit:2;"><rect id="subpages-page" x="0" y="-0" width="2083.333" height="2083.333" style="fill:none;"/><clipPath id="_clip1"><rect x="0" y="-0" width="2083.333" height="2083.333"/></clipPath><g clip-path="url(#_clip1)"><g id="SubPages"><path d="M1200.304,808.629c8.271,8.293 12.916,19.528 12.916,31.24c-0,57.171 -0,233.639 -0,316.816c-0,24.432 -19.806,44.238 -44.238,44.238c-65.739,-0 -188.506,-0 -254.245,-0c-11.733,0 -22.985,-4.661 -31.281,-12.957c-8.296,-8.296 -12.957,-19.548 -12.957,-31.281c0,-88.851 0,-288.074 0,-376.926c0,-24.432 19.806,-44.238 44.238,-44.238c57.148,-0 154.057,-0 194.292,-0c11.753,0 23.022,4.677 31.322,12.998c16.204,16.247 43.771,43.886 59.953,60.11Zm-97.267,-56.242c-0,-0 -108.325,-0 -171.434,-0c-11.733,-0 -22.985,4.661 -31.281,12.957c-8.296,8.296 -12.957,19.548 -12.957,31.281c-0,82.822 -0,260.371 -0,343.193c0,11.733 4.661,22.985 12.957,31.281c8.296,8.296 19.548,12.957 31.281,12.957c58.717,0 161.795,0 220.512,0c11.733,0 22.985,-4.661 31.281,-12.957c8.296,-8.296 12.957,-19.548 12.957,-31.281c0,-91.938 0,-295.172 0,-295.172c-0,-0 -24.971,0 -49.078,-0c-11.733,0 -22.985,-4.661 -31.281,-12.957c-8.296,-8.296 -12.957,-19.548 -12.957,-31.281c0,-23.678 0,-48.021 0,-48.021Zm17.138,0l-0.272,-0c0,-0 0,14.722 0,31.154c-0,11.733 4.661,22.985 12.957,31.281c8.296,8.296 19.548,12.957 31.281,12.957c16.556,-0 31.426,-0 31.426,-0l-75.392,-75.392Z" style="fill:#566b8d;"/><g><path d="M1163.835,1590.198c8.271,8.293 12.916,19.528 12.916,31.24c-0,46.418 -0,169.825 -0,236.51c0,24.432 -19.806,44.238 -44.238,44.238c-50.176,0 -131.517,0 -181.693,0c-24.432,-0 -44.238,-19.806 -44.238,-44.238c0,-70.569 0,-207.834 0,-278.403c-0,-24.432 19.806,-44.238 44.238,-44.238c43.737,-0 108.53,-0 139.91,-0c11.753,0 23.022,4.677 31.322,12.998c12.013,12.044 29.785,29.863 41.783,41.892Zm-73.942,-41.594c-0,-0 -75.402,-0 -125.777,-0c-24.432,0 -44.238,19.806 -44.238,44.238c-0,65.243 -0,186.568 -0,251.811c0,24.432 19.806,44.238 44.238,44.238c43.994,0 111.106,0 155.101,0c11.733,0 22.985,-4.661 31.281,-12.957c8.296,-8.296 12.957,-19.548 12.957,-31.281c0,-76.011 0,-223.321 0,-223.321c-0,0 -13.728,0 -29.324,0c-24.432,-0 -44.238,-19.806 -44.238,-44.238l0,-28.49Zm13.51,0l-0.214,-0c-0,-0 0,6.497 0,15.194c-0,11.733 4.661,22.985 12.957,31.281c8.296,8.296 19.548,12.957 31.281,12.957c8.809,0 15.408,0 15.408,0l-59.432,-59.432Z" style="fill:#566b8d;"/><path d="M751.825,1590.198c8.271,8.293 12.916,19.528 12.916,31.24c-0,46.418 -0,169.825 -0,236.51c0,24.432 -19.806,44.238 -44.238,44.238c-50.176,0 -131.517,0 -181.693,0c-24.432,-0 -44.238,-19.806 -44.238,-44.238c0,-70.569 0,-207.834 0,-278.403c-0,-24.432 19.806,-44.238 44.238,-44.238c43.737,-0 108.53,-0 139.91,-0c11.753,0 23.022,4.677 31.322,12.998c12.013,12.044 29.785,29.863 41.783,41.892Zm-73.942,-41.594c-0,0 -75.402,-0 -125.777,-0c-24.432,0 -44.238,19.806 -44.238,44.238c-0,65.243 -0,186.568 -0,251.811c0,24.432 19.806,44.238 44.238,44.238c43.994,0 111.106,0 155.101,0c11.733,0 22.985,-4.661 31.281,-12.957c8.296,-8.296 12.957,-19.548 12.957,-31.281c0,-76.011 0,-223.321 0,-223.321c-0,0 -13.728,0 -29.324,0c-24.432,-0 -44.238,-19.806 -44.238,-44.238c-0,-15.21 -0,-28.49 -0,-28.49Zm13.51,0l-0.214,-0c-0,-0 0,6.497 0,15.194c-0,11.733 4.661,22.985 12.957,31.281c8.296,8.296 19.548,12.957 31.281,12.957c8.809,0 15.408,0 15.408,0l-59.432,-59.432Z" style="fill:#566b8d;"/><path d="M1575.845,1590.198c8.271,8.293 12.916,19.528 12.916,31.24l0,236.51c0,24.432 -19.806,44.238 -44.238,44.238c-50.176,0 -131.517,0 -181.693,0c-24.432,-0 -44.238,-19.806 -44.238,-44.238c0,-70.569 0,-207.834 0,-278.403c-0,-24.432 19.806,-44.238 44.238,-44.238c43.737,-0 108.53,-0 139.91,-0c11.753,0 23.022,4.677 31.322,12.998c12.013,12.044 29.785,29.863 41.783,41.892Zm-73.942,-41.594c-0,0 -75.402,-0 -125.777,-0c-24.432,0 -44.238,19.806 -44.238,44.238c-0,65.243 -0,186.568 -0,251.811c0,24.432 19.806,44.238 44.238,44.238c43.994,0 111.106,0 155.101,0c11.733,0 22.985,-4.661 31.281,-12.957c8.296,-8.296 12.957,-19.548 12.957,-31.281c0,-76.011 0,-223.321 0,-223.321c-0,0 -13.728,0 -29.324,0c-24.432,-0 -44.238,-19.806 -44.238,-44.238c-0,-15.21 -0,-28.49 -0,-28.49Zm13.51,0l-0.214,-0c-0,-0 0,6.497 0,15.194c-0,11.733 4.661,22.985 12.957,31.281c8.296,8.296 19.548,12.957 31.281,12.957c8.809,0 15.408,0 15.408,0l-59.432,-59.432Z" style="fill:#566b8d;"/></g><g><path d="M1013.376,1284.115c0.063,-15.72 12.877,-28.432 28.597,-28.369c15.72,0.063 28.432,12.877 28.369,28.597l-0.671,167.773c-0.063,15.72 -12.877,28.432 -28.597,28.369c-15.72,-0.063 -28.432,-12.877 -28.369,-28.597l0.671,-167.773Z" style="fill:#566b8d;"/><path d="M1041.474,1352.252c15.721,-0 28.484,12.763 28.484,28.484c0,15.721 -12.763,28.484 -28.484,28.484l-383.333,-0l0,42.783c0,15.721 -12.763,28.484 -28.484,28.484c-15.721,0 -28.484,-12.763 -28.484,-28.484l0,-71.267c0,-15.731 12.753,-28.484 28.484,-28.484l411.817,0Z" style="fill:#566b8d;"/><path d="M1041.474,1409.219c-15.721,-0 -28.484,-12.763 -28.484,-28.484c0,-15.721 12.763,-28.484 28.484,-28.484l411.817,0c15.731,-0 28.484,12.753 28.484,28.484l0,71.267c0,15.721 -12.763,28.484 -28.484,28.484c-15.721,0 -28.484,-12.763 -28.484,-28.484l-0,-42.783l-383.333,0Z" style="fill:#566b8d;"/></g></g><g id="page"><path d="M1796.35,372.543c8.271,8.293 12.916,19.527 12.916,31.24c0,164.411 0,1387.535 0,1636.72c0,11.733 -4.661,22.985 -12.957,31.281c-8.296,8.296 -19.548,12.957 -31.281,12.957c-223.172,-0 -1223.551,0 -1446.723,0c-11.733,-0 -22.985,-4.661 -31.281,-12.957c-8.296,-8.296 -12.957,-19.548 -12.957,-31.281c-0,-272.779 -0,-1723.487 -0,-1996.265c-0,-11.733 4.661,-22.985 12.957,-31.281c8.296,-8.296 19.548,-12.957 31.281,-12.957c193.261,-0 959.525,-0 1088.117,-0c11.753,0 23.022,4.677 31.322,12.998c58.779,58.933 299.926,300.711 358.606,359.545Zm-480.642,-296.991c0,0 -732.513,-0 -921.851,-0c-11.733,0 -22.985,4.661 -31.281,12.957c-8.296,8.296 -12.957,19.548 -12.957,31.281c-0,259.863 -0,1585.297 -0,1845.161c-0,11.733 4.661,22.985 12.957,31.281c8.296,8.296 19.548,12.957 31.281,12.957c208.033,0 1087.585,0 1295.618,0c24.432,-0 44.238,-19.806 44.238,-44.238c0,-250.136 0,-1476.131 0,-1476.131l-373.767,0c-24.432,0 -44.238,-19.806 -44.238,-44.238c-0,-106.619 -0,-369.03 -0,-369.03Zm76.77,0l-1.217,-0c-0,-0 0,201.894 0,293.477c0,24.432 19.806,44.238 44.238,44.238c91.838,-0 294.695,-0 294.695,-0l-337.715,-337.715Z" style="fill:#566b8d;"/></g></g></svg>