<?xml version="1.0" encoding="UTF-8" standalone="no"?><!DOCTYPE svg PUBLIC "-//W3C//DTD SVG 1.1//EN" "http://www.w3.org/Graphics/SVG/1.1/DTD/svg11.dtd"><svg width="100%" height="100%" viewBox="0 0 2084 2084" version="1.1" xmlns="http://www.w3.org/2000/svg" xmlns:xlink="http://www.w3.org/1999/xlink" xml:space="preserve" xmlns:serif="http://www.serif.com/" style="fill-rule:evenodd;clip-rule:evenodd;stroke-linejoin:round;stroke-miterlimit:2;"><rect id="subpages-admin" x="0" y="-0" width="2083.333" height="2083.333" style="fill:none;"/><g id="SubPages"><path d="M1304.462,229.525c8.271,8.293 12.916,19.528 12.916,31.24c-0,82.865 -0,424.337 -0,547.131c-0,24.432 -19.806,44.238 -44.238,44.238c-103.233,0 -359.092,0 -462.326,0c-24.432,-0 -44.238,-19.806 -44.238,-44.238c0,-132.756 0,-526.735 0,-659.491c0,-24.432 19.806,-44.238 44.238,-44.238c89.523,-0 288.862,-0 350.259,-0c11.753,0 23.022,4.677 31.322,12.998c26.327,26.396 85.78,86.004 112.067,112.36Zm-164.163,-98.251c0,-0 -208.94,-0 -302.377,-0c-11.733,-0 -22.985,4.661 -31.281,12.957c-8.296,8.296 -12.957,19.548 -12.957,31.281c-0,125.063 -0,480.214 -0,605.278c-0,11.733 4.661,22.985 12.957,31.281c8.296,8.296 19.548,12.957 31.281,12.957c94.241,0 313.871,0 408.112,0c11.733,0 22.985,-4.661 31.281,-12.957c8.296,-8.296 12.957,-19.548 12.957,-31.281c0,-129.916 0,-501.243 0,-501.243c0,0 -61.5,0 -105.735,0c-24.432,-0 -44.238,-19.806 -44.238,-44.238c0,-43.695 0,-104.035 0,-104.035Zm27.544,0l-0.437,-0c0,-0 0,42.312 0,76.928c0,24.432 19.806,44.238 44.238,44.238c34.771,-0 77.365,-0 77.365,-0l-121.166,-121.166Z" style="fill:#566b8d;"/><g><path d="M1245.85,1485.619c8.271,8.293 12.916,19.528 12.916,31.24c0,69.219 0,316.342 0,418.07c-0,24.432 -19.806,44.238 -44.238,44.238c-83.282,-0 -262.442,-0 -345.724,-0c-24.432,-0 -44.238,-19.806 -44.238,-44.238l0,-501.15c-0,-11.733 4.661,-22.985 12.957,-31.281c8.296,-8.296 19.548,-12.957 31.281,-12.957c72.288,-0 212.703,-0 262.86,-0c11.753,-0 23.022,4.677 31.322,12.998c20.938,20.992 61.957,62.119 82.864,83.081Zm-126.677,-74.71c0,-0 -151.658,-0 -229,-0c-24.432,-0 -44.238,19.806 -44.238,44.238c-0,102.599 -0,355.814 -0,458.414c0,24.432 19.806,44.238 44.238,44.238c75.331,0 227.656,0 302.987,0c11.733,0 22.985,-4.661 31.281,-12.957c8.296,-8.296 12.957,-19.548 12.957,-31.281c0,-109.757 0,-385.767 0,-385.767c-0,0 -40.416,0 -73.986,0c-11.733,0 -22.985,-4.661 -31.281,-12.957c-8.296,-8.296 -12.957,-19.548 -12.957,-31.281c0,-33.09 0,-72.646 0,-72.646Zm21.713,0l-0.344,-0c0,0 0,26.285 0,51.278c-0,24.432 19.806,44.238 44.238,44.238c25.13,0 51.622,0 51.622,0l-95.516,-95.516Z" style="fill:#566b8d;"/><path d="M583.692,1485.619c8.271,8.293 12.916,19.528 12.916,31.24c0,69.219 0,316.342 0,418.07c-0,24.432 -19.806,44.238 -44.238,44.238c-83.282,-0 -262.442,-0 -345.724,-0c-24.432,-0 -44.238,-19.806 -44.238,-44.238c0,-109.411 0,-391.739 0,-501.15c-0,-11.733 4.661,-22.985 12.957,-31.281c8.296,-8.296 19.548,-12.957 31.281,-12.957c72.288,-0 212.703,-0 262.86,-0c11.753,-0 23.022,4.677 31.322,12.998c20.938,20.992 61.957,62.119 82.864,83.081Zm-126.677,-74.71c0,-0 -151.658,-0 -229,-0c-24.432,-0 -44.238,19.806 -44.238,44.238c-0,102.599 -0,355.814 -0,458.414c0,24.432 19.806,44.238 44.238,44.238c75.331,0 227.656,0 302.987,0c11.733,0 22.985,-4.661 31.281,-12.957c8.296,-8.296 12.957,-19.548 12.957,-31.281c0,-109.757 0,-385.767 0,-385.767c-0,-0 -40.416,-0 -73.986,0c-11.733,0 -22.985,-4.661 -31.281,-12.957c-8.296,-8.296 -12.957,-19.548 -12.957,-31.281c0,-33.09 0,-72.646 0,-72.646Zm21.713,0l-0.344,-0c-0,-0 0,26.285 0,51.278c-0,24.432 19.806,44.238 44.238,44.238c25.13,0 51.622,0 51.622,0l-95.516,-95.516Z" style="fill:#566b8d;"/><path d="M1908.009,1485.619c8.271,8.293 12.916,19.528 12.916,31.24c0,69.219 0,316.342 0,418.07c-0,24.432 -19.806,44.238 -44.238,44.238c-83.282,-0 -262.442,-0 -345.724,-0c-24.432,-0 -44.238,-19.806 -44.238,-44.238c0,-109.411 0,-391.739 0,-501.15c-0,-11.733 4.661,-22.985 12.957,-31.281c8.296,-8.296 19.548,-12.957 31.281,-12.957c72.288,-0 212.703,-0 262.86,-0c11.753,-0 23.022,4.677 31.322,12.998c20.938,20.992 61.957,62.119 82.864,83.081Zm-126.677,-74.71c-0,-0 -151.658,-0 -229,-0c-24.432,-0 -44.238,19.806 -44.238,44.238c-0,102.599 -0,355.814 -0,458.414c0,24.432 19.806,44.238 44.238,44.238c75.331,0 227.656,0 302.987,0c11.733,0 22.985,-4.661 31.281,-12.957c8.296,-8.296 12.957,-19.548 12.957,-31.281c0,-109.757 0,-385.767 0,-385.767c-0,-0 -40.416,-0 -73.986,0c-11.733,0 -22.985,-4.661 -31.281,-12.957c-8.296,-8.296 -12.957,-19.548 -12.957,-31.281c0,-33.09 0,-72.646 0,-72.646Zm21.713,0l-0.344,-0c-0,-0 0,26.285 0,51.278c-0,24.432 19.806,44.238 44.238,44.238c25.13,0 51.622,0 51.622,0l-95.516,-95.516Z" style="fill:#566b8d;"/></g><g><path d="M996.2,985.836c0.101,-25.265 20.695,-45.695 45.96,-45.594c25.265,0.101 45.695,20.695 45.594,45.96l-1.078,269.636c-0.101,25.265 -20.695,45.695 -45.96,45.594c-25.265,-0.101 -45.695,-20.695 -45.594,-45.96l1.078,-269.636Z" style="fill:#566b8d;"/><path d="M1041.357,1095.342c25.265,-0 45.777,20.512 45.777,45.777c0,25.265 -20.512,45.777 -45.777,45.777l-616.071,-0l0,68.758c0,25.265 -20.512,45.777 -45.777,45.777c-25.265,0 -45.777,-20.512 -45.777,-45.777l0,-114.536c0,-25.282 20.495,-45.777 45.777,-45.777l661.849,0Z" style="fill:#566b8d;"/><path d="M1041.357,1186.897c-25.265,-0 -45.777,-20.512 -45.777,-45.777c0,-25.265 20.512,-45.777 45.777,-45.777l661.849,0c25.282,-0 45.777,20.495 45.777,45.777l0,114.536c0,25.265 -20.512,45.777 -45.777,45.777c-25.265,0 -45.777,-20.512 -45.777,-45.777l-0,-68.758l-616.071,0Z" style="fill:#566b8d;"/></g></g></svg>