<?xml version="1.0" encoding="UTF-8" standalone="no"?><!DOCTYPE svg PUBLIC "-//W3C//DTD SVG 1.1//EN" "http://www.w3.org/Graphics/SVG/1.1/DTD/svg11.dtd"><svg width="100%" height="100%" viewBox="0 0 2084 2084" version="1.1" xmlns="http://www.w3.org/2000/svg" xmlns:xlink="http://www.w3.org/1999/xlink" xml:space="preserve" xmlns:serif="http://www.serif.com/" style="fill-rule:evenodd;clip-rule:evenodd;stroke-linejoin:round;stroke-miterlimit:2;"><rect id="table-element" x="0" y="0" width="2083.333" height="2083.333" style="fill:none;"/><g id="element"><path d="M1784.418,140.539c87.221,0 158.375,71.153 158.375,158.375l0,1485.504c0,87.221 -71.153,158.375 -158.375,158.375l-1485.504,0c-87.221,0 -158.375,-71.153 -158.375,-158.375l0,-1485.504c0,-87.221 71.153,-158.375 158.375,-158.375l1485.504,0m0,-78.039l-1485.504,0c-130.831,0 -236.414,106.042 -236.414,236.414l0,1485.504c0,130.831 106.042,236.415 236.414,236.415l1485.504,0c130.831,0 236.415,-106.042 236.415,-236.415l0,-1485.504c0,-130.831 -105.584,-236.414 -236.415,-236.414Z" style="fill:#566b8d;fill-rule:nonzero;"/></g><g id="Table"><path d="M291.667,1554.528l0,-1025.722l1500,-0l-0,1025.722l-1500,-0Zm43.357,-43.357l442.191,0l0,-233.033l-442.191,0l0,233.033Zm1413.286,0l0,-233.033l-442.191,0l0,233.033l442.191,0Zm-0,-785.811l-442.191,0l0,233.033l442.191,0l-0,-233.033Zm-1413.286,276.389l0,233.033l442.191,0l-0,-233.033l-442.191,0Zm1413.286,-427.853l-1413.286,0l0,86.714l1413.286,0l0,-86.714Zm-927.739,937.275l442.191,0l0,-233.033l-442.191,0l0,233.033Zm927.739,-276.389l-0,-233.033l-442.191,0l0,233.033l442.191,0Zm-485.548,-509.422l-442.191,0l0,233.033l442.191,0l0,-233.033Zm0,276.389l-442.191,0l0,233.033l442.191,0l0,-233.033Zm-485.548,-276.389l-442.191,0l0,233.033l442.191,0l-0,-233.033Z" style="fill:#566b8d;"/></g></svg>