<?xml version="1.0" encoding="UTF-8" standalone="no"?><!DOCTYPE svg PUBLIC "-//W3C//DTD SVG 1.1//EN" "http://www.w3.org/Graphics/SVG/1.1/DTD/svg11.dtd"><svg width="100%" height="100%" viewBox="0 0 2084 2084" version="1.1" xmlns="http://www.w3.org/2000/svg" xmlns:xlink="http://www.w3.org/1999/xlink" xml:space="preserve" xmlns:serif="http://www.serif.com/" style="fill-rule:evenodd;clip-rule:evenodd;stroke-linejoin:round;stroke-miterlimit:2;"><rect id="table-admin" x="0" y="-0" width="2083.333" height="2083.333" style="fill:none;"/><g id="Table"><path d="M104.167,1682.743l0,-1282.153l1875,-0l-0,1282.153l-1875,0Zm54.196,-54.196l552.739,0l0,-291.291l-552.739,0l0,291.291Zm1766.608,0l0,-291.291l-552.739,0l0,291.291l552.739,0Zm-0,-982.264l-552.739,0l0,291.291l552.739,0l-0,-291.291Zm-1766.608,345.487l0,291.291l552.739,0l-0,-291.291l-552.739,0Zm1766.608,-534.817l-1766.608,0l-0,108.392l1766.608,0l0,-108.392Zm-1159.673,1171.594l552.739,0l0,-291.291l-552.739,0l0,291.291Zm1159.673,-345.487l-0,-291.291l-552.739,0l0,291.291l552.739,0Zm-606.935,-636.777l-552.739,0l0,291.291l552.739,0l0,-291.291Zm0,345.487l-552.739,0l0,291.291l552.739,0l0,-291.291Zm-606.935,-345.487l-552.739,0l0,291.291l552.739,0l-0,-291.291Z" style="fill:#566b8d;"/></g></svg>