<?xml version="1.0" encoding="UTF-8" standalone="no"?><!DOCTYPE svg PUBLIC "-//W3C//DTD SVG 1.1//EN" "http://www.w3.org/Graphics/SVG/1.1/DTD/svg11.dtd"><svg width="100%" height="100%" viewBox="0 0 2084 2084" version="1.1" xmlns="http://www.w3.org/2000/svg" xmlns:xlink="http://www.w3.org/1999/xlink" xml:space="preserve" xmlns:serif="http://www.serif.com/" style="fill-rule:evenodd;clip-rule:evenodd;stroke-linejoin:round;stroke-miterlimit:2;"><rect id="team-admin" x="0" y="0" width="2083.333" height="2083.333" style="fill:none;"/><g id="Team"><path d="M539.286,1979.167c23.82,-192.751 96.246,-359.807 196.674,-471.468c49.443,-54.974 105.688,-96.684 166.385,-122.108c-152.776,-56.668 -261.769,-203.803 -261.769,-376.193c0,-221.368 179.723,-401.091 401.091,-401.091c221.368,0 401.091,179.723 401.091,401.091c-0,172.39 -108.993,319.525 -261.769,376.193c60.697,25.424 116.942,67.134 166.385,122.108c100.428,111.661 172.854,278.717 196.674,471.468l-53.745,0c-23.032,-177.995 -89.558,-332.327 -182.606,-435.783c-74.685,-83.039 -166.41,-132.896 -266.03,-132.896c-99.62,0 -191.345,49.857 -266.03,132.896c-93.048,103.456 -159.574,257.788 -182.606,435.783l-53.745,0Zm502.381,-622.043c191.916,0 347.727,-155.811 347.727,-347.727c0,-191.916 -155.811,-347.727 -347.727,-347.727c-191.916,0 -347.727,155.811 -347.727,347.727c0,191.916 155.811,347.727 347.727,347.727Z" style="fill:#566b8d;"/><path d="M1979.167,1422.042c-28.892,-65.398 -86.886,-143.773 -128.735,-190.302c-71.187,-79.149 -158.616,-126.671 -253.569,-126.671c-51.905,0 -87.172,14.2 -133.156,40.003c11.94,-36.785 19.005,-75.759 20.429,-116.157c39.153,16.293 67.703,25.29 112.726,25.29c182.927,0 331.44,-148.513 331.44,-331.44c0,-182.927 -148.513,-331.44 -331.44,-331.44c-159.46,0 -290.23,101.003 -321.809,251.129c-14.83,-9.444 -30.283,-17.996 -46.283,-25.579c41.948,-165.591 189.538,-276.414 368.092,-276.414c210.999,0 382.304,171.305 382.304,382.304c-0,164.316 -103.888,304.559 -249.508,358.573c57.854,24.233 111.465,63.99 158.592,116.389c24.982,27.776 69.919,80.196 90.916,114.661l0,109.655Z" style="fill:#566b8d;"/><path d="M104.167,1422.042c28.892,-65.398 86.886,-143.773 128.735,-190.302c71.187,-79.149 158.616,-126.671 253.569,-126.671c51.905,0 88.018,15.893 134.002,41.696c-11.94,-36.785 -19.005,-75.759 -20.429,-116.157c-39.153,16.293 -68.549,23.597 -113.573,23.597c-182.927,0 -331.44,-148.513 -331.44,-331.44c0,-182.927 148.513,-331.44 331.44,-331.44c159.46,0 289.383,96.185 320.962,246.31c14.83,-9.444 30.283,-17.996 46.283,-25.579c-41.948,-165.591 -188.691,-271.596 -367.246,-271.596c-210.999,0 -382.304,171.305 -382.304,382.304c0,164.316 103.888,304.559 249.508,358.573c-57.854,24.233 -111.465,63.99 -158.592,116.389c-24.982,27.776 -69.919,80.196 -90.916,114.661l-0,109.655Z" style="fill:#566b8d;"/><rect x="1113.271" y="1600.692" width="212.023" height="88.607" style="fill:#566b8d;"/><rect x="1624.078" y="1312.387" width="212.023" height="88.607" style="fill:#566b8d;"/><rect x="478.942" y="1327.143" width="212.023" height="88.607" style="fill:#566b8d;"/></g></svg>