<?xml version="1.0" encoding="UTF-8" standalone="no"?><!DOCTYPE svg PUBLIC "-//W3C//DTD SVG 1.1//EN" "http://www.w3.org/Graphics/SVG/1.1/DTD/svg11.dtd"><svg width="100%" height="100%" viewBox="0 0 2084 2088" version="1.1" xmlns="http://www.w3.org/2000/svg" xmlns:xlink="http://www.w3.org/1999/xlink" xml:space="preserve" xmlns:serif="http://www.serif.com/" style="fill-rule:evenodd;clip-rule:evenodd;stroke-linejoin:round;stroke-miterlimit:2;"><rect id="team-element" x="0" y="3.226" width="2083.333" height="2083.333" style="fill:none;"/><g id="Element"><path d="M1784.418,144.002c87.221,0 158.375,71.153 158.375,158.375l0,1485.504c0,87.221 -71.153,158.375 -158.375,158.375l-1485.504,0c-87.221,0 -158.375,-71.153 -158.375,-158.375l0,-1485.504c0,-87.221 71.153,-158.375 158.375,-158.375l1485.504,0m0,-78.039l-1485.504,0c-130.831,0 -236.414,106.042 -236.414,236.414l0,1485.504c0,130.831 106.042,236.415 236.414,236.415l1485.504,0c130.831,0 236.415,-106.042 236.415,-236.415l0,-1485.504c0,-130.831 -105.584,-236.414 -236.415,-236.414Z" style="fill:#566b8d;fill-rule:nonzero;"/></g><g id="Team"><path d="M549.984,1963.173c23.313,-188.647 94.197,-352.145 192.486,-461.428c48.39,-53.803 103.437,-94.625 162.842,-119.508c-149.523,-55.461 -256.195,-199.463 -256.195,-368.182c0,-216.654 175.896,-392.55 392.55,-392.55c216.654,0 392.55,175.896 392.55,392.55c-0,168.719 -106.672,312.721 -256.195,368.182c59.405,24.883 114.452,65.704 162.842,119.508c98.289,109.283 169.173,272.782 192.486,461.428l-52.601,0c-22.541,-174.205 -87.651,-325.25 -178.717,-426.503c-73.094,-81.27 -162.867,-130.066 -260.365,-130.066c-97.498,0 -187.27,48.795 -260.365,130.066c-91.067,101.253 -156.176,252.298 -178.717,426.503l-52.601,0Zm491.683,-608.796c187.829,0 340.322,-152.493 340.322,-340.322c0,-187.829 -152.493,-340.322 -340.322,-340.322c-187.829,0 -340.322,152.493 -340.322,340.322c0,187.829 152.493,340.322 340.322,340.322Z" style="fill:#566b8d;"/><path d="M1959.203,1417.912c-28.277,-64.005 -85.036,-140.711 -125.993,-186.25c-69.671,-77.464 -155.238,-123.974 -248.17,-123.974c-50.799,0 -85.315,13.897 -130.32,39.151c11.686,-36.002 18.6,-74.145 19.994,-113.684c38.319,15.946 66.261,24.751 110.326,24.751c179.031,0 324.382,-145.351 324.382,-324.382c0,-179.031 -145.351,-324.382 -324.382,-324.382c-156.064,0 -284.049,98.852 -314.956,245.781c-14.515,-9.243 -29.639,-17.613 -45.298,-25.034c41.055,-162.065 185.501,-270.528 360.254,-270.528c206.506,0 374.163,167.657 374.163,374.163c-0,160.817 -101.676,298.073 -244.195,350.937c56.622,23.717 109.091,62.627 155.215,113.91c24.45,27.184 68.43,78.488 88.98,112.22l0,107.32Z" style="fill:#566b8d;"/><path d="M124.131,1417.912c28.277,-64.005 85.036,-140.711 125.993,-186.25c69.671,-77.464 155.238,-123.974 248.17,-123.974c50.799,0 86.144,15.554 131.148,40.808c-11.686,-36.002 -18.6,-74.145 -19.994,-113.684c-38.319,15.946 -67.089,23.094 -111.154,23.094c-179.031,0 -324.382,-145.351 -324.382,-324.382c0,-179.031 145.351,-324.382 324.382,-324.382c156.064,0 283.221,94.136 314.128,241.065c14.515,-9.243 29.639,-17.613 45.298,-25.034c-41.055,-162.065 -184.673,-265.812 -359.425,-265.812c-206.506,0 -374.163,167.657 -374.163,374.163c0,160.817 101.676,298.073 244.195,350.937c-56.622,23.717 -109.091,62.627 -155.215,113.91c-24.45,27.184 -68.43,78.488 -88.98,112.22l-0,107.32Z" style="fill:#566b8d;"/><rect x="1111.747" y="1592.758" width="207.508" height="86.72" style="fill:#566b8d;"/><rect x="1611.676" y="1310.592" width="207.508" height="86.72" style="fill:#566b8d;"/><rect x="490.925" y="1325.034" width="207.508" height="86.72" style="fill:#566b8d;"/></g></svg>