<?xml version="1.0" encoding="UTF-8" standalone="no"?><!DOCTYPE svg PUBLIC "-//W3C//DTD SVG 1.1//EN" "http://www.w3.org/Graphics/SVG/1.1/DTD/svg11.dtd"><svg width="100%" height="100%" viewBox="0 0 2084 2084" version="1.1" xmlns="http://www.w3.org/2000/svg" xmlns:xlink="http://www.w3.org/1999/xlink" xml:space="preserve" xmlns:serif="http://www.serif.com/" style="fill-rule:evenodd;clip-rule:evenodd;stroke-linejoin:round;stroke-miterlimit:2;"><rect id="teaser-page" x="0" y="-0" width="2083.333" height="2083.333" style="fill:none;"/><clipPath id="_clip1"><rect x="0" y="-0" width="2083.333" height="2083.333"/></clipPath><g clip-path="url(#_clip1)"><g id="page"><path d="M1796.114,372.543c8.271,8.293 12.916,19.527 12.916,31.24c0,164.411 0,1387.535 0,1636.72c0,11.733 -4.661,22.985 -12.957,31.281c-8.296,8.296 -19.548,12.957 -31.281,12.957l-1446.723,0c-11.733,-0 -22.985,-4.661 -31.281,-12.957c-8.296,-8.296 -12.957,-19.548 -12.957,-31.281c-0,-272.779 -0,-1723.487 -0,-1996.265c-0,-11.733 4.661,-22.985 12.957,-31.281c8.296,-8.296 19.548,-12.957 31.281,-12.957l1088.117,0c11.753,0 23.022,4.677 31.322,12.998c58.779,58.933 299.926,300.711 358.606,359.545Zm-480.642,-296.991c0,-0 -732.513,-0 -921.851,-0c-11.733,0 -22.985,4.661 -31.281,12.957c-8.296,8.296 -12.957,19.548 -12.957,31.281c-0,259.863 -0,1585.297 -0,1845.161c-0,11.733 4.661,22.985 12.957,31.281c8.296,8.296 19.548,12.957 31.281,12.957c208.033,0 1087.585,0 1295.618,0c24.432,-0 44.238,-19.806 44.238,-44.238c0,-250.136 0,-1476.131 0,-1476.131c0,-0 -266.253,-0 -373.767,0c-24.432,0 -44.238,-19.806 -44.238,-44.238c-0,-106.619 -0,-369.03 -0,-369.03Zm76.77,0l-1.217,-0c0,0 0,201.894 0,293.477c0,24.432 19.806,44.238 44.238,44.238c91.838,-0 294.695,-0 294.695,-0l-337.715,-337.715Z" style="fill:#566b8d;"/></g><g id="Teaser"><g><g><path d="M458.097,1052.318c0,-27.751 19.154,-50.197 42.071,-50.197l450.527,0c22.916,0 42.071,22.446 42.071,50.197l0,263.11c0,27.343 -18.812,50.198 -42.071,50.198l-450.527,0c-22.916,0 -42.071,-22.446 -42.071,-50.198l0,-263.11Zm255.193,227.704l52.391,0l91.037,-0.001l-71.873,-101.901l-42.857,61.034l-62.236,-107.35l-85.61,148.22l119.148,-0.001Zm49.514,-192.301c-12.165,0 -22.041,9.876 -22.041,22.041c0,12.165 9.876,22.041 22.041,22.041c12.165,0 22.041,-9.876 22.041,-22.041c0,-12.165 -9.876,-22.041 -22.041,-22.041Z" style="fill:#566b8d;"/></g><rect x="479.551" y="1405.553" width="491.76" height="50.059" style="fill:#566b8d;"/><rect x="479.551" y="1495.54" width="491.76" height="50.059" style="fill:#566b8d;"/><rect x="562.984" y="1585.528" width="324.896" height="50.059" style="fill:#566b8d;"/></g><g><g><path d="M1090.096,1052.318c0,-27.751 19.154,-50.197 42.071,-50.197l450.527,0c22.916,0 42.071,22.446 42.071,50.197l0,263.11c0,27.343 -18.812,50.198 -42.071,50.198l-450.527,0c-22.916,0 -42.071,-22.446 -42.071,-50.198l0,-263.11Zm255.193,227.704l52.391,0l91.037,-0.001l-71.873,-101.901l-42.857,61.034l-62.236,-107.35l-85.61,148.22l119.148,-0.001Zm49.514,-192.301c-12.165,0 -22.041,9.876 -22.041,22.041c0,12.165 9.876,22.041 22.041,22.041c12.165,0 22.041,-9.876 22.041,-22.041c0,-12.165 -9.876,-22.041 -22.041,-22.041Z" style="fill:#566b8d;"/></g><rect x="1111.55" y="1405.553" width="491.76" height="50.059" style="fill:#566b8d;"/><rect x="1111.55" y="1495.54" width="491.76" height="50.059" style="fill:#566b8d;"/><rect x="1194.982" y="1585.528" width="324.896" height="50.059" style="fill:#566b8d;"/></g></g></g></svg>