<?xml version="1.0" encoding="UTF-8" standalone="no"?><!DOCTYPE svg PUBLIC "-//W3C//DTD SVG 1.1//EN" "http://www.w3.org/Graphics/SVG/1.1/DTD/svg11.dtd"><svg width="100%" height="100%" viewBox="0 0 2084 2084" version="1.1" xmlns="http://www.w3.org/2000/svg" xmlns:xlink="http://www.w3.org/1999/xlink" xml:space="preserve" xmlns:serif="http://www.serif.com/" style="fill-rule:evenodd;clip-rule:evenodd;stroke-linejoin:round;stroke-miterlimit:2;"><rect id="teaser-admin" x="0" y="-0" width="2083.333" height="2083.333" style="fill:none;"/><g id="Teaser"><g><g><path d="M104.167,613.305c0,-44.6 30.784,-80.674 67.613,-80.674l724.061,0c36.83,0 67.613,36.074 67.613,80.674l0,422.855c0,43.945 -30.234,80.675 -67.613,80.675l-724.061,-0c-36.83,0 -67.613,-36.074 -67.613,-80.675l0,-422.855Zm410.132,365.953l84.199,0l146.31,-0.002l-115.511,-163.77l-68.878,98.09l-100.022,-172.527l-137.587,238.21l191.488,-0.002Zm79.576,-309.056c-19.551,0 -35.424,15.873 -35.424,35.424c0,19.551 15.873,35.424 35.424,35.424c19.551,0 35.424,-15.873 35.424,-35.424c0,-19.551 -15.873,-35.424 -35.424,-35.424Z" style="fill:#566b8d;"/></g><rect x="138.646" y="1181.005" width="790.329" height="80.452" style="fill:#566b8d;"/><rect x="138.646" y="1325.627" width="790.329" height="80.452" style="fill:#566b8d;"/><rect x="272.734" y="1470.25" width="522.154" height="80.452" style="fill:#566b8d;"/></g><g><g><path d="M1119.878,613.305c0,-44.6 30.784,-80.674 67.613,-80.674l724.061,0c36.83,0 67.613,36.074 67.613,80.674l0,422.855c0,43.945 -30.234,80.675 -67.613,80.675l-724.061,0c-36.83,0 -67.613,-36.074 -67.613,-80.675l0,-422.855Zm410.132,365.953l84.199,0l146.31,-0.002l-115.511,-163.77l-68.878,98.09l-100.022,-172.527l-137.587,238.21l191.488,-0.002Zm79.576,-309.056c-19.551,0 -35.424,15.873 -35.424,35.424c0,19.551 15.873,35.424 35.424,35.424c19.551,0 35.424,-15.873 35.424,-35.424c0,-19.551 -15.873,-35.424 -35.424,-35.424Z" style="fill:#566b8d;"/></g><rect x="1154.358" y="1181.005" width="790.329" height="80.452" style="fill:#566b8d;"/><rect x="1154.358" y="1325.627" width="790.329" height="80.452" style="fill:#566b8d;"/><rect x="1288.446" y="1470.25" width="522.154" height="80.452" style="fill:#566b8d;"/></g></g></svg>