<?xml version="1.0" encoding="UTF-8" standalone="no"?><!DOCTYPE svg PUBLIC "-//W3C//DTD SVG 1.1//EN" "http://www.w3.org/Graphics/SVG/1.1/DTD/svg11.dtd"><svg width="100%" height="100%" viewBox="0 0 2084 2084" version="1.1" xmlns="http://www.w3.org/2000/svg" xmlns:xlink="http://www.w3.org/1999/xlink" xml:space="preserve" xmlns:serif="http://www.serif.com/" style="fill-rule:evenodd;clip-rule:evenodd;stroke-linejoin:round;stroke-miterlimit:2;"><rect id="teaser-element" x="0" y="-0" width="2083.333" height="2083.333" style="fill:none;"/><g id="element"><path d="M1784.418,140.539c87.221,0 158.375,71.153 158.375,158.375l0,1485.504c0,87.221 -71.153,158.375 -158.375,158.375l-1485.504,0c-87.221,0 -158.375,-71.153 -158.375,-158.375l0,-1485.504c0,-87.221 71.153,-158.375 158.375,-158.375l1485.504,0m0,-78.039l-1485.504,0c-130.831,0 -236.414,106.042 -236.414,236.414l0,1485.504c0,130.831 106.042,236.415 236.414,236.415l1485.504,0c130.831,0 236.415,-106.042 236.415,-236.415l0,-1485.504c0,-130.831 -105.584,-236.414 -236.415,-236.414Z" style="fill:#566b8d;fill-rule:nonzero;"/></g><g id="Teaser"><g><g><path d="M291.667,698.977c0,-35.68 24.627,-64.539 54.091,-64.539l579.249,0c29.464,0 54.091,28.859 54.091,64.539l0,338.284c0,35.156 -24.187,64.54 -54.091,64.54l-579.249,0c-29.464,0 -54.091,-28.859 -54.091,-64.54l0,-338.284Zm328.106,292.763l67.359,0l117.048,-0.002l-92.409,-131.016l-55.102,78.472l-80.017,-138.021l-110.07,190.568l153.191,-0.002Zm63.661,-247.245c-15.641,0 -28.339,12.698 -28.339,28.339c0,15.641 12.698,28.339 28.339,28.339c15.641,0 28.339,-12.698 28.339,-28.339c0,-15.641 -12.698,-28.339 -28.339,-28.339Z" style="fill:#566b8d;"/></g><rect x="319.25" y="1153.137" width="632.263" height="64.362" style="fill:#566b8d;"/><rect x="319.25" y="1268.835" width="632.263" height="64.362" style="fill:#566b8d;"/><rect x="426.52" y="1384.533" width="417.723" height="64.362" style="fill:#566b8d;"/></g><g><g><path d="M1104.236,698.977c0,-35.68 24.627,-64.539 54.091,-64.539l579.249,0c29.464,0 54.091,28.859 54.091,64.539l0,338.284c0,35.156 -24.187,64.54 -54.091,64.54l-579.249,0c-29.464,0 -54.091,-28.859 -54.091,-64.54l0,-338.284Zm328.106,292.763l67.359,0l117.048,-0.002l-92.409,-131.016l-55.102,78.472l-80.017,-138.021l-110.07,190.568l153.191,-0.002Zm63.661,-247.245c-15.641,0 -28.339,12.698 -28.339,28.339c0,15.641 12.698,28.339 28.339,28.339c15.641,0 28.339,-12.698 28.339,-28.339c0,-15.641 -12.698,-28.339 -28.339,-28.339Z" style="fill:#566b8d;"/></g><rect x="1131.82" y="1153.137" width="632.263" height="64.362" style="fill:#566b8d;"/><rect x="1131.82" y="1268.835" width="632.263" height="64.362" style="fill:#566b8d;"/><rect x="1239.09" y="1384.533" width="417.723" height="64.362" style="fill:#566b8d;"/></g></g></svg>