<?xml version="1.0" encoding="UTF-8" standalone="no"?><!DOCTYPE svg PUBLIC "-//W3C//DTD SVG 1.1//EN" "http://www.w3.org/Graphics/SVG/1.1/DTD/svg11.dtd"><svg width="100%" height="100%" viewBox="0 0 2084 2084" version="1.1" xmlns="http://www.w3.org/2000/svg" xmlns:xlink="http://www.w3.org/1999/xlink" xml:space="preserve" xmlns:serif="http://www.serif.com/" style="fill-rule:evenodd;clip-rule:evenodd;stroke-linejoin:round;stroke-miterlimit:2;"><rect id="textimage-element" x="0" y="0" width="2083.333" height="2083.333" style="fill:none;"/><g id="element"><path d="M1784.418,140.539c87.221,0 158.375,71.153 158.375,158.375l0,1485.504c0,87.221 -71.153,158.375 -158.375,158.375l-1485.504,0c-87.221,0 -158.375,-71.153 -158.375,-158.375l0,-1485.504c0,-87.221 71.153,-158.375 158.375,-158.375l1485.504,0m0,-78.039l-1485.504,0c-130.831,0 -236.414,106.042 -236.414,236.414l0,1485.504c0,130.831 106.042,236.415 236.414,236.415l1485.504,0c130.831,0 236.415,-106.042 236.415,-236.415l0,-1485.504c0,-130.831 -105.584,-236.414 -236.415,-236.414Z" style="fill:#566b8d;fill-rule:nonzero;"/></g><g id="TextImage"><g><path d="M1252.417,883.007l-260.864,451.646l522.702,0l-261.838,-451.646Z" style="fill:#566b8d;fill-rule:nonzero;"/><path d="M1572.657,1024.146l-218.036,310.507l437.045,0l-219.009,-310.507Z" style="fill:#566b8d;fill-rule:nonzero;"/><circle cx="1505.494" cy="815.844" r="67.163" style="fill:#566b8d;"/></g><g><rect x="291.667" y="782.724" width="623.722" height="77.965" style="fill:#566b8d;"/><rect x="291.667" y="929.364" width="623.722" height="77.965" style="fill:#566b8d;"/><rect x="291.667" y="1076.004" width="623.722" height="77.965" style="fill:#566b8d;"/><rect x="291.667" y="1222.644" width="423.24" height="77.965" style="fill:#566b8d;"/></g></g></svg>