<?xml version="1.0" encoding="UTF-8" standalone="no"?><!DOCTYPE svg PUBLIC "-//W3C//DTD SVG 1.1//EN" "http://www.w3.org/Graphics/SVG/1.1/DTD/svg11.dtd"><svg width="100%" height="100%" viewBox="0 0 2084 2084" version="1.1" xmlns="http://www.w3.org/2000/svg" xmlns:xlink="http://www.w3.org/1999/xlink" xml:space="preserve" xmlns:serif="http://www.serif.com/" style="fill-rule:evenodd;clip-rule:evenodd;stroke-linejoin:round;stroke-miterlimit:2;"><rect id="text-page" x="0" y="0" width="2083.333" height="2083.333" style="fill:none;"/><clipPath id="_clip1"><rect x="0" y="0" width="2083.333" height="2083.333"/></clipPath><g clip-path="url(#_clip1)"><g id="page"><path d="M1796.35,372.543c8.271,8.293 12.916,19.527 12.916,31.24c0,164.411 0,1387.535 0,1636.72c0,11.733 -4.661,22.985 -12.957,31.281c-8.296,8.296 -19.548,12.957 -31.281,12.957c-223.172,0 -1223.551,0 -1446.723,0c-11.733,-0 -22.985,-4.661 -31.281,-12.957c-8.296,-8.296 -12.957,-19.548 -12.957,-31.281c-0,-272.779 -0,-1723.487 -0,-1996.265c-0,-11.733 4.661,-22.985 12.957,-31.281c8.296,-8.296 19.548,-12.957 31.281,-12.957c193.261,0 959.525,0 1088.117,0c11.753,0 23.022,4.677 31.322,12.998c58.779,58.933 299.926,300.711 358.606,359.545Zm-480.642,-296.991c0,-0 -732.513,-0 -921.851,-0c-11.733,0 -22.985,4.661 -31.281,12.957c-8.296,8.296 -12.957,19.548 -12.957,31.281c-0,259.863 -0,1585.297 -0,1845.161c-0,11.733 4.661,22.985 12.957,31.281c8.296,8.296 19.548,12.957 31.281,12.957c208.033,0 1087.585,0 1295.618,0c24.432,-0 44.238,-19.806 44.238,-44.238c0,-250.136 0,-1476.131 0,-1476.131c0,-0 -266.253,-0 -373.767,0c-24.432,0 -44.238,-19.806 -44.238,-44.238c-0,-106.619 -0,-369.03 -0,-369.03Zm76.77,0l-1.217,-0c0,0 0,201.894 0,293.477c0,24.432 19.806,44.238 44.238,44.238c91.838,-0 294.695,-0 294.695,-0l-337.715,-337.715Z" style="fill:#566b8d;"/></g><g id="Text"><path id="Text1" serif:id="Text" d="M454.044,1014.876c0.253,-265.705 -0.952,-266.052 1.443,-271.629c0.256,-0.596 0.693,-0.23 5.556,-5.897l2.376,-0.992c3.51,-0.886 3.601,-0.793 1129.038,-0.793c15.1,-0 22.576,-0.777 27.55,4.154c2.884,2.86 3.215,2.728 3.748,6.836c0.688,1.722 0.758,1.643 1.003,3.516l0.006,264.797c-0.178,2.306 -0.022,2.252 -0.617,4.425c-1.771,5.1 -6.425,9.978 -7.693,10.325c-8.251,2.255 -8.349,1.419 -119.135,1.579c-62.68,0.09 -62.805,-0.175 -66.255,-1.878c-6.872,-3.393 -8.323,-12.189 -11.294,-16.94c-0.392,-1.646 -0.384,-1.559 -0.544,-3.223c-1.974,-6.65 -1.955,-6.549 -5.164,-12.834l-0.685,-3.148c-0.274,-1.721 -6.271,-16.649 -6.663,-17.253c-0.885,-1.014 -0.857,-0.949 -1.315,-2.227c-1.467,-2.009 -1.03,-2.105 -1.203,-4.565c-1.502,-3.022 -1.702,-2.804 -3.194,-5.828c-0.885,-1.002 -0.87,-0.913 -1.326,-2.204c-0.74,-1.064 -0.753,-0.993 -1.123,-2.303c-3.99,-7.837 -6.707,-6.689 -66.295,-6.689c-164.443,0 -164.418,-0.024 -170.714,0.101c-1.715,0.653 -1.636,0.723 -3.483,0.96l-1.335,0.537c-2.306,0.659 -2.079,1.109 -4.347,1.687c-7.135,5.928 -5.709,7.519 -5.709,73.225c0,854.214 0.064,854.211 -0.06,859.684c-0.035,3.113 0.968,3.466 -1.139,5.764l-1.004,1.218c-0.703,2.1 -0.935,1.847 -2.449,3.37l-1.225,1.026c-9.198,2.902 -9.41,2.485 -101.971,2.485c-96.533,-0 -97.337,0.534 -102.025,-3.539c-0.357,-0.31 0.025,-0.458 -0.361,-0.775c-0.152,-0.125 -0.144,-0.111 -1.949,-1.504c-0.859,-0.998 -0.854,-0.909 -1.283,-2.24c-1.112,-1.572 -0.916,-1.595 -1.061,-3.508c-1.175,-45.425 0.999,-914.369 -1.096,-929.609c-0.62,-4.508 -0.258,-4.796 -3.536,-7.85c-1.265,-0.423 -1.178,-0.403 -2.194,-1.283c-10.834,-5.352 -11.44,-3.214 -54.992,-3.214c-180.468,0 -180.584,-0.168 -184.45,1.183c-0.504,0.176 -3.368,1.907 -3.513,2.018c-0.865,0.887 -0.782,0.881 -2.021,1.355c-0.322,1.923 -2.912,5.653 -4.575,9.069c-0.126,0.258 -0.059,0.235 -1.284,3.346c-0.13,2.472 0.458,2.687 -1.255,4.579c-0.351,0.729 -0.649,0.414 -0.925,1.213c-2.621,7.569 -3.085,7.283 -5.824,14.839l-0.598,3.2c-0.587,1.173 -3.586,7.172 -6.301,15.137l-0.577,3.203c-3.366,5.549 -4.497,10.278 -6.349,12.871c-0.589,2.08 -0.849,1.877 -2.36,3.422l-1.221,1.053l-1.015,0.229c-1.125,0.73 -1.061,0.73 -2.382,1.015c-12.935,2.645 -31.964,0.87 -138.706,1.414c-38.49,0.196 -38.427,-0.856 -45.826,-1.515c-1.26,-1.11 -1.197,-1.054 -2.322,-2.239c-2.052,-3.05 -2.167,-2.855 -4.175,-5.93c-0.452,-1.668 -0.417,-1.586 -0.599,-3.23Z" style="fill:#566b8d;fill-opacity:1;"/></g></g></svg>