<?xml version="1.0" encoding="UTF-8" standalone="no"?><!DOCTYPE svg PUBLIC "-//W3C//DTD SVG 1.1//EN" "http://www.w3.org/Graphics/SVG/1.1/DTD/svg11.dtd"><svg width="100%" height="100%" viewBox="0 0 2084 2084" version="1.1" xmlns="http://www.w3.org/2000/svg" xmlns:xlink="http://www.w3.org/1999/xlink" xml:space="preserve" xmlns:serif="http://www.serif.com/" style="fill-rule:evenodd;clip-rule:evenodd;stroke-linejoin:round;stroke-miterlimit:2;"><rect id="text-element" x="0" y="0" width="2083.333" height="2083.333" style="fill:none;"/><g id="element"><path d="M1784.418,140.539c87.221,0 158.375,71.153 158.375,158.375l0,1485.504c0,87.221 -71.153,158.375 -158.375,158.375l-1485.504,0c-87.221,0 -158.375,-71.153 -158.375,-158.375l0,-1485.504c0,-87.221 71.153,-158.375 158.375,-158.375l1485.504,0m0,-78.039l-1485.504,0c-130.831,0 -236.414,106.042 -236.414,236.414l-0,1485.504c0,130.831 106.042,236.415 236.414,236.415l1485.504,0c130.831,0 236.415,-106.042 236.415,-236.415l0,-1485.504c0,-130.831 -105.584,-236.414 -236.415,-236.414Z" style="fill:#566b8d;fill-rule:nonzero;"/></g><g id="Text"><path id="Text1" serif:id="Text" d="M289.115,650.838c0.326,-341.621 -1.225,-342.067 1.856,-349.238c0.329,-0.766 0.89,-0.296 7.143,-7.581l3.054,-1.275c4.513,-1.139 4.63,-1.02 1451.621,-1.02c19.415,-0 29.027,-0.999 35.421,5.34c3.708,3.677 4.133,3.507 4.819,8.789c0.885,2.215 0.974,2.113 1.29,4.521l0.008,340.453c-0.229,2.965 -0.029,2.895 -0.793,5.69c-2.276,6.557 -8.26,12.829 -9.891,13.275c-10.608,2.9 -10.734,1.825 -153.173,2.03c-80.589,0.116 -80.749,-0.225 -85.185,-2.415c-8.836,-4.363 -10.702,-15.672 -14.521,-21.78c-0.504,-2.117 -0.494,-2.005 -0.699,-4.144c-2.538,-8.55 -2.513,-8.42 -6.639,-16.501l-0.881,-4.047c-0.353,-2.213 -8.063,-21.405 -8.566,-22.183c-1.138,-1.303 -1.101,-1.22 -1.69,-2.863c-1.886,-2.583 -1.325,-2.707 -1.546,-5.869c-1.931,-3.885 -2.188,-3.605 -4.106,-7.493c-1.138,-1.288 -1.119,-1.174 -1.705,-2.834c-0.951,-1.368 -0.968,-1.277 -1.443,-2.96c-5.131,-10.076 -8.623,-8.6 -85.237,-8.6c-211.427,0 -211.394,-0.031 -219.49,0.13c-2.205,0.84 -2.103,0.93 -4.478,1.234l-1.717,0.69c-2.964,0.848 -2.672,1.426 -5.59,2.169c-9.173,7.622 -7.34,9.667 -7.34,94.146c0,1098.275 0.083,1098.271 -0.077,1105.308c-0.046,4.002 1.245,4.456 -1.465,7.411l-1.291,1.566c-0.903,2.7 -1.203,2.374 -3.148,4.333l-1.575,1.32c-11.826,3.731 -12.099,3.195 -131.106,3.195c-124.114,-0 -125.148,0.686 -131.175,-4.55c-0.458,-0.398 0.032,-0.589 -0.464,-0.996c-0.196,-0.16 -0.186,-0.143 -2.506,-1.934c-1.105,-1.284 -1.098,-1.169 -1.649,-2.879c-1.43,-2.022 -1.178,-2.05 -1.364,-4.51c-1.511,-58.403 1.284,-1175.618 -1.41,-1195.211c-0.797,-5.795 -0.331,-6.167 -4.547,-10.093c-1.626,-0.543 -1.514,-0.518 -2.82,-1.65c-13.929,-6.881 -14.708,-4.133 -70.704,-4.133c-232.03,0 -232.179,-0.216 -237.151,1.521c-0.648,0.226 -4.33,2.452 -4.516,2.595c-1.112,1.141 -1.006,1.133 -2.598,1.742c-0.414,2.472 -3.744,7.268 -5.883,11.66c-0.161,0.331 -0.076,0.303 -1.651,4.303c-0.167,3.178 0.589,3.454 -1.613,5.887c-0.452,0.937 -0.834,0.532 -1.19,1.56c-3.37,9.732 -3.967,9.364 -7.489,19.078l-0.769,4.115c-0.754,1.508 -4.611,9.221 -8.101,19.462l-0.742,4.119c-4.327,7.134 -5.782,13.214 -8.163,16.549c-0.757,2.674 -1.092,2.413 -3.034,4.399l-1.569,1.354l-1.305,0.295c-1.447,0.939 -1.364,0.938 -3.063,1.305c-16.631,3.401 -41.097,1.118 -178.337,1.818c-49.487,0.252 -49.406,-1.101 -58.919,-1.948c-1.62,-1.428 -1.539,-1.355 -2.985,-2.878c-2.638,-3.922 -2.787,-3.671 -5.368,-7.624c-0.581,-2.144 -0.536,-2.039 -0.77,-4.153Z" style="fill:#566b8d;fill-opacity:1;"/></g></svg>