<?xml version="1.0" encoding="UTF-8" standalone="no"?><!DOCTYPE svg PUBLIC "-//W3C//DTD SVG 1.1//EN" "http://www.w3.org/Graphics/SVG/1.1/DTD/svg11.dtd"><svg width="100%" height="100%" viewBox="0 0 2084 2084" version="1.1" xmlns="http://www.w3.org/2000/svg" xmlns:xlink="http://www.w3.org/1999/xlink" xml:space="preserve" xmlns:serif="http://www.serif.com/" style="fill-rule:evenodd;clip-rule:evenodd;stroke-linejoin:round;stroke-miterlimit:2;"><rect id="text-admin" x="0" y="0" width="2083.333" height="2083.333" style="fill:none;"/><g id="Text"><path id="Text1" serif:id="Text" d="M100.978,553.131c0.407,-427.026 -1.531,-427.584 2.32,-436.547c0.411,-0.957 1.113,-0.37 8.929,-9.477l3.818,-1.594c5.641,-1.423 5.788,-1.275 1814.526,-1.275c24.268,-0 36.283,-1.249 44.276,6.676c4.636,4.596 5.167,4.384 6.023,10.987c1.106,2.768 1.218,2.641 1.612,5.651l0.01,425.566c-0.287,3.706 -0.036,3.619 -0.992,7.112c-2.845,8.196 -10.326,16.037 -12.363,16.594c-13.26,3.624 -13.418,2.281 -191.466,2.538c-100.736,0.145 -100.937,-0.281 -106.481,-3.018c-11.045,-5.453 -13.377,-19.59 -18.151,-27.225c-0.63,-2.646 -0.618,-2.506 -0.874,-5.18c-3.173,-10.687 -3.141,-10.524 -8.299,-20.627l-1.101,-5.059c-0.441,-2.766 -10.079,-26.757 -10.708,-27.728c-1.422,-1.629 -1.377,-1.526 -2.113,-3.579c-2.358,-3.229 -1.656,-3.383 -1.933,-7.336c-2.414,-4.857 -2.735,-4.507 -5.133,-9.367c-1.422,-1.61 -1.398,-1.468 -2.131,-3.542c-1.189,-1.71 -1.21,-1.596 -1.804,-3.701c-6.413,-12.595 -10.779,-10.75 -106.546,-10.75c-264.283,0 -264.243,-0.038 -274.362,0.163c-2.756,1.05 -2.629,1.162 -5.598,1.543l-2.146,0.863c-3.705,1.06 -3.341,1.783 -6.987,2.711c-11.467,9.528 -9.175,12.084 -9.175,117.683c0,1372.843 0.104,1372.838 -0.096,1381.635c-0.057,5.003 1.556,5.57 -1.831,9.263l-1.614,1.958c-1.129,3.375 -1.503,2.968 -3.936,5.416l-1.969,1.65c-14.782,4.664 -15.123,3.994 -163.883,3.994c-155.143,-0 -156.435,0.858 -163.969,-5.687c-0.573,-0.498 0.04,-0.737 -0.581,-1.245c-0.245,-0.201 -0.232,-0.179 -3.133,-2.417c-1.381,-1.604 -1.372,-1.461 -2.061,-3.599c-1.787,-2.527 -1.473,-2.563 -1.705,-5.637c-1.889,-73.004 1.606,-1469.522 -1.762,-1494.014c-0.996,-7.244 -0.414,-7.709 -5.683,-12.616c-2.033,-0.679 -1.893,-0.648 -3.525,-2.063c-17.411,-8.601 -18.385,-5.166 -88.38,-5.166c-290.038,0 -290.224,-0.27 -296.438,1.901c-0.81,0.283 -5.412,3.065 -5.645,3.243c-1.39,1.426 -1.257,1.416 -3.247,2.178c-0.517,3.09 -4.679,9.085 -7.353,14.575c-0.202,0.414 -0.095,0.378 -2.064,5.378c-0.209,3.972 0.736,4.318 -2.017,7.359c-0.564,1.172 -1.042,0.665 -1.487,1.95c-4.212,12.165 -4.958,11.705 -9.361,23.848l-0.961,5.143c-0.943,1.885 -5.764,11.526 -10.126,24.327l-0.928,5.148c-5.409,8.918 -7.227,16.518 -10.204,20.686c-0.946,3.342 -1.365,3.016 -3.792,5.499l-1.962,1.693l-1.632,0.368c-1.808,1.174 -1.705,1.173 -3.829,1.631c-20.789,4.251 -51.371,1.398 -222.921,2.272c-61.859,0.315 -61.757,-1.376 -73.649,-2.435c-2.025,-1.784 -1.924,-1.694 -3.732,-3.598c-3.297,-4.902 -3.483,-4.588 -6.71,-9.53c-0.726,-2.68 -0.67,-2.549 -0.963,-5.191Z" style="fill:#566b8d;fill-opacity:1;"/></g></svg>