<?xml version="1.0" encoding="UTF-8" standalone="no"?><!DOCTYPE svg PUBLIC "-//W3C//DTD SVG 1.1//EN" "http://www.w3.org/Graphics/SVG/1.1/DTD/svg11.dtd"><svg width="100%" height="100%" viewBox="0 0 2084 2088" version="1.1" xmlns="http://www.w3.org/2000/svg" xmlns:xlink="http://www.w3.org/1999/xlink" xml:space="preserve" xmlns:serif="http://www.serif.com/" style="fill-rule:evenodd;clip-rule:evenodd;stroke-linejoin:round;stroke-miterlimit:2;"><rect id="tutorial-element" x="0" y="3.226" width="2083.333" height="2083.333" style="fill:none;"/><g><g><g id="Element"><path d="M1784.418,143.766c87.221,0 158.375,71.153 158.375,158.375l0,1485.504c0,87.221 -71.153,158.375 -158.375,158.375l-1485.504,0c-87.221,0 -158.375,-71.153 -158.375,-158.375l0,-1485.504c0,-87.221 71.153,-158.375 158.375,-158.375l1485.504,0m0,-78.039l-1485.504,0c-130.831,0 -236.414,106.042 -236.414,236.414l0,1485.504c0,130.831 106.042,236.415 236.414,236.415l1485.504,0c130.831,0 236.415,-106.042 236.415,-236.415l0,-1485.504c0,-130.831 -105.584,-236.414 -236.415,-236.414Z" style="fill:#566b8d;fill-rule:nonzero;"/></g><g id="tutorial"><path d="M367.794,1150.049l1.519,-356.878c0.024,-5.612 9.133,-10.12 9.133,-10.12l706.588,-306.014l706.631,310.731l-713.129,254.4l-691.057,-245.803l-1.493,350.619c14.061,3.556 48.319,16.178 50.895,55.093c3.249,49.063 -17.869,56.331 -17.869,56.331c0,0 24.367,65.417 35.738,154.457c9.088,71.164 17.869,199.885 17.869,199.885l-180.313,0c0,0 -3.249,-41.794 4.873,-158.091c8.122,-116.297 47.109,-203.52 47.109,-203.52c0,0 -16.244,-1.817 -21.118,-45.429c-3.474,-31.087 26.893,-48.324 44.622,-55.661Zm293.262,-209.642l423.979,150.823l419.106,-147.188l4.873,210.788c-208.925,13.447 -333.692,79.194 -425.603,165.36c-87.661,-91.658 -220.979,-153.052 -425.603,-167.177l3.249,-212.605Z" style="fill:#566b8d;"/></g></g></g></svg>