<?xml version="1.0" encoding="UTF-8" standalone="no"?><!DOCTYPE svg PUBLIC "-//W3C//DTD SVG 1.1//EN" "http://www.w3.org/Graphics/SVG/1.1/DTD/svg11.dtd"><svg width="100%" height="100%" viewBox="0 0 2088 2084" version="1.1" xmlns="http://www.w3.org/2000/svg" xmlns:xlink="http://www.w3.org/1999/xlink" xml:space="preserve" xmlns:serif="http://www.serif.com/" style="fill-rule:evenodd;clip-rule:evenodd;stroke-linejoin:round;stroke-miterlimit:2;"><rect id="tutorial-admin" x="3.327" y="0" width="2083.333" height="2083.333" style="fill:none;"/><g><path d="M202.653,1173.762l1.899,-446.098c0.03,-7.015 11.417,-12.65 11.417,-12.65l883.235,-382.517l883.289,388.414l-891.412,318l-863.821,-307.254l-1.866,438.273c17.576,4.445 60.398,20.223 63.619,68.866c4.061,61.328 -22.336,70.414 -22.336,70.414c0,0 30.458,81.771 44.672,193.071c11.36,88.955 22.336,249.857 22.336,249.857l-225.391,0c0,0 -4.061,-52.243 6.092,-197.614c10.153,-145.371 58.886,-254.4 58.886,-254.4c0,0 -20.306,-2.271 -26.397,-56.786c-4.342,-38.858 33.617,-60.405 55.777,-69.576Zm366.577,-262.052l529.974,188.528l523.882,-183.985l6.092,263.485c-261.156,16.809 -417.115,98.993 -532.004,206.7c-109.577,-114.573 -276.224,-191.315 -532.004,-208.971l4.061,-265.757Z" style="fill:#566b8d;"/></g></svg>