<?xml version="1.0" encoding="UTF-8" standalone="no"?><!DOCTYPE svg PUBLIC "-//W3C//DTD SVG 1.1//EN" "http://www.w3.org/Graphics/SVG/1.1/DTD/svg11.dtd"><svg width="100%" height="100%" viewBox="0 0 2088 2088" version="1.1" xmlns="http://www.w3.org/2000/svg" xmlns:xlink="http://www.w3.org/1999/xlink" xml:space="preserve" xmlns:serif="http://www.serif.com/" style="fill-rule:evenodd;clip-rule:evenodd;stroke-linejoin:round;stroke-miterlimit:2;"><rect id="verticalmedia-element" x="3.327" y="3.868" width="2083.333" height="2083.333" style="fill:none;"/><g id="element"><path d="M1787.745,144.407c87.221,0 158.375,71.153 158.375,158.375l0,1485.504c0,87.221 -71.153,158.375 -158.375,158.375l-1485.504,0c-87.221,0 -158.375,-71.153 -158.375,-158.375l0,-1485.504c0,-87.221 71.153,-158.375 158.375,-158.375l1485.504,0m0,-78.039l-1485.504,0c-130.831,0 -236.414,106.042 -236.414,236.414l0,1485.504c0,130.831 106.042,236.415 236.414,236.415l1485.504,0c130.831,0 236.415,-106.042 236.415,-236.415l0,-1485.504c0,-130.831 -105.584,-236.414 -236.415,-236.414Z" style="fill:#566b8d;fill-rule:nonzero;"/></g><g id="VerticalMedia"><g><path d="M1354.313,352.15c34.544,0 61.412,27.828 61.412,61.412l0,1263.944c0,34.544 -27.828,61.412 -61.412,61.412l-618.638,0c-34.544,0 -61.414,-27.827 -61.414,-61.412l0,-1263.944c0,-34.544 27.828,-61.412 61.414,-61.412l618.638,0m0,-56.616l-618.638,0c-65.251,0 -118.028,53.737 -118.028,118.028l0,1263.944c0,65.251 53.737,118.028 118.028,118.028l618.638,0c65.25,0 118.027,-53.737 118.027,-118.028l0,-1263.944c0,-64.291 -52.777,-118.028 -118.027,-118.028Z" style="fill:#566b8d;fill-rule:nonzero;"/></g><g><path d="M937.59,923.107l-201.29,348.503l403.332,0l-202.041,-348.503Z" style="fill:#566b8d;fill-rule:nonzero;"/><path d="M1184.691,1032.008l-168.243,239.596l337.236,0l-168.993,-239.596Z" style="fill:#566b8d;fill-rule:nonzero;"/><circle cx="1132.868" cy="871.281" r="51.825" style="fill:#566b8d;"/></g></g></svg>