<?xml version="1.0" encoding="UTF-8" standalone="no"?><!DOCTYPE svg PUBLIC "-//W3C//DTD SVG 1.1//EN" "http://www.w3.org/Graphics/SVG/1.1/DTD/svg11.dtd"><svg width="100%" height="100%" viewBox="0 0 2088 2084" version="1.1" xmlns="http://www.w3.org/2000/svg" xmlns:xlink="http://www.w3.org/1999/xlink" xml:space="preserve" xmlns:serif="http://www.serif.com/" style="fill-rule:evenodd;clip-rule:evenodd;stroke-linejoin:round;stroke-miterlimit:2;"><rect id="verticalmedia-admin" x="3.327" y="0" width="2083.333" height="2083.333" style="fill:none;"/><g id="VerticalMedia"><g><path d="M1431.643,174.936c43.181,0 76.765,34.785 76.765,76.765l0,1579.93c0,43.181 -34.785,76.765 -76.765,76.765l-773.298,0c-43.181,0 -76.767,-34.783 -76.767,-76.765l0,-1579.93c0,-43.181 34.785,-76.765 76.767,-76.765l773.298,0m0,-70.77l-773.298,0c-81.564,0 -147.535,67.171 -147.535,147.535l0,1579.93c0,81.564 67.171,147.535 147.535,147.535l773.298,0c81.563,0 147.534,-67.171 147.534,-147.535l0,-1579.93c0,-80.364 -65.971,-147.535 -147.534,-147.535Z" style="fill:#566b8d;fill-rule:nonzero;"/></g><g><path d="M910.74,888.632l-251.613,435.629l504.165,0l-252.552,-435.629Z" style="fill:#566b8d;fill-rule:nonzero;"/><path d="M1219.615,1024.758l-210.304,299.495l421.545,0l-211.241,-299.495Z" style="fill:#566b8d;fill-rule:nonzero;"/><circle cx="1154.837" cy="823.85" r="64.781" style="fill:#566b8d;"/></g></g></svg>