<?xml version="1.0" encoding="UTF-8" standalone="no"?><!DOCTYPE svg PUBLIC "-//W3C//DTD SVG 1.1//EN" "http://www.w3.org/Graphics/SVG/1.1/DTD/svg11.dtd"><svg width="100%" height="100%" viewBox="0 0 2084 2084" version="1.1" xmlns="http://www.w3.org/2000/svg" xmlns:xlink="http://www.w3.org/1999/xlink" xml:space="preserve" xmlns:serif="http://www.serif.com/" style="fill-rule:evenodd;clip-rule:evenodd;stroke-linejoin:round;stroke-miterlimit:2;"><rect id="video-element" x="0" y="0" width="2083.333" height="2083.333" style="fill:none;"/><g id="element"><path d="M1784.418,140.539c87.221,0 158.375,71.153 158.375,158.375l0,1485.504c0,87.221 -71.153,158.375 -158.375,158.375l-1485.504,0c-87.221,0 -158.375,-71.153 -158.375,-158.375l0,-1485.504c0,-87.221 71.153,-158.375 158.375,-158.375l1485.504,0m0,-78.039l-1485.504,0c-130.831,0 -236.414,106.042 -236.414,236.414l0,1485.504c0,130.831 106.042,236.415 236.414,236.415l1485.504,0c130.831,0 236.415,-106.042 236.415,-236.415l0,-1485.504c0,-130.831 -105.584,-236.414 -236.415,-236.414Z" style="fill:#566b8d;fill-rule:nonzero;"/></g><g id="Video"><g><path d="M348.282,672.592c0,-41.218 27.828,-73.276 61.412,-73.276l1263.944,0c34.544,0 61.412,33.204 61.412,73.276l-0,738.148c0,41.218 -27.827,73.277 -61.412,73.277l-1263.944,-0c-34.544,0 -61.412,-33.204 -61.412,-73.277l0,-738.148m-56.616,0l-0,738.148c0,77.857 53.737,140.829 118.028,140.829l1263.944,0c65.251,0 118.028,-64.118 118.028,-140.829l0,-738.148c0,-77.855 -53.737,-140.827 -118.028,-140.827l-1263.944,-0c-64.291,0 -118.028,62.972 -118.028,140.827Z" style="fill:#566b8d;fill-rule:nonzero;"/></g><path d="M1289.993,1002.004l-424.902,306.873l0,-613.747l424.902,306.873Z" style="fill:#566b8d;"/><rect x="468.725" y="1395.281" width="1217.634" height="41.211" style="fill:#566b8d;"/><circle cx="413.543" cy="1415.887" r="30.981" style="fill:#566b8d;"/></g></svg>