<?xml version="1.0" encoding="UTF-8" standalone="no"?><!DOCTYPE svg PUBLIC "-//W3C//DTD SVG 1.1//EN" "http://www.w3.org/Graphics/SVG/1.1/DTD/svg11.dtd"><svg width="100%" height="100%" viewBox="0 0 2084 2084" version="1.1" xmlns="http://www.w3.org/2000/svg" xmlns:xlink="http://www.w3.org/1999/xlink" xml:space="preserve" xmlns:serif="http://www.serif.com/" style="fill-rule:evenodd;clip-rule:evenodd;stroke-linejoin:round;stroke-miterlimit:2;"><rect id="virtual-page" x="0" y="0" width="2083.333" height="2083.333" style="fill:none;"/><clipPath id="_clip1"><rect x="0" y="0" width="2083.333" height="2083.333"/></clipPath><g clip-path="url(#_clip1)"><path d="M358.35,69.028l0,7.537c-0,20.576 -16.705,37.281 -37.281,37.281c-20.576,-0 -37.281,-16.705 -37.281,-37.281l0,-41.912c0,-20.59 16.691,-37.281 37.281,-37.281l22.838,-0c20.576,-0 37.281,16.705 37.281,37.281c0,15.456 -9.426,28.728 -22.838,34.376Zm139.734,-71.437c20.575,0.113 37.188,16.91 37.075,37.485c-0.113,20.575 -16.91,37.188 -37.485,37.075l-39.679,-0.218l-22.735,0c-20.576,0 -37.281,-16.705 -37.281,-37.281c0,-20.576 16.705,-37.281 37.281,-37.281l22.838,0l0.205,0.001l39.782,0.219Zm-214.295,246.626c0,-20.576 16.705,-37.281 37.281,-37.281c20.576,0 37.281,16.705 37.281,37.281l0,83.828c0,20.576 -16.705,37.281 -37.281,37.281c-20.576,0 -37.281,-16.705 -37.281,-37.281l0,-83.828Zm-0,251.479c0,-20.576 16.705,-37.281 37.281,-37.281c20.576,0 37.281,16.705 37.281,37.281l0,83.827c0,20.576 -16.705,37.281 -37.281,37.281c-20.576,0 -37.281,-16.705 -37.281,-37.281l-0,-83.827Zm0,251.478c0,-20.576 16.705,-37.281 37.281,-37.281c20.576,0 37.281,16.705 37.281,37.281l-0,83.825c-0,20.576 -16.705,37.281 -37.281,37.281c-20.576,0 -37.281,-16.705 -37.281,-37.281l0,-83.825Zm0,251.48c0,-20.576 16.705,-37.281 37.281,-37.281c20.576,0 37.281,16.705 37.281,37.281l0,83.828c0,20.576 -16.705,37.281 -37.281,37.281c-20.576,0 -37.281,-16.705 -37.281,-37.281l0,-83.828Zm0,251.477c0,-20.576 16.705,-37.281 37.281,-37.281c20.576,0 37.281,16.705 37.281,37.281l0,83.825c0,20.576 -16.705,37.281 -37.281,37.281c-20.576,0 -37.281,-16.705 -37.281,-37.281l0,-83.825Zm0,251.477c0,-20.576 16.705,-37.281 37.281,-37.281c20.576,0 37.281,16.705 37.281,37.281l0,83.827c0,20.576 -16.705,37.281 -37.281,37.281c-20.576,0 -37.281,-16.705 -37.281,-37.281l0,-83.827Zm0,251.48c0,-20.576 16.705,-37.281 37.281,-37.281c20.576,0 37.281,16.705 37.281,37.281l0,83.826c0,20.576 -16.705,37.281 -37.281,37.281c-20.576,0 -37.281,-16.705 -37.281,-37.281l0,-83.826Zm0,251.481c0,-20.576 16.705,-37.281 37.281,-37.281c20.576,0 37.281,16.705 37.281,37.281l0,4.632l3.026,0c20.576,0 37.281,16.705 37.281,37.281c0,20.576 -16.705,37.281 -37.281,37.281l-40.306,0c-20.59,-0 -37.281,-16.691 -37.281,-37.281l0,-41.912Zm238.814,79.193c-20.576,0 -37.281,-16.705 -37.281,-37.281c0,-20.576 16.705,-37.281 37.281,-37.281l80.614,0c20.576,0 37.281,16.705 37.281,37.281c0,20.576 -16.705,37.281 -37.281,37.281l-80.614,-0Zm241.841,0c-20.576,0 -37.281,-16.705 -37.281,-37.281c0,-20.576 16.705,-37.281 37.281,-37.281l80.614,0c20.576,0 37.281,16.705 37.281,37.281c-0,20.576 -16.705,37.281 -37.281,37.281l-80.614,0Zm241.84,0c-20.576,0 -37.281,-16.705 -37.281,-37.281c0,-20.576 16.705,-37.281 37.281,-37.281l80.613,0c20.576,0 37.281,16.705 37.281,37.281c-0,20.576 -16.705,37.281 -37.281,37.281l-80.613,-0Zm241.842,0c-20.576,0 -37.281,-16.705 -37.281,-37.281c0,-20.576 16.705,-37.281 37.281,-37.281l80.614,-0c20.576,-0 37.281,16.705 37.281,37.281c0,20.576 -16.705,37.281 -37.281,37.281l-80.614,0Zm241.838,0c-20.576,0 -37.281,-16.705 -37.281,-37.281c0,-20.576 16.705,-37.281 37.281,-37.281l80.613,0c20.576,0 37.281,16.705 37.281,37.281c0,20.576 -16.705,37.281 -37.281,37.281l-80.613,0Zm241.841,0c-20.576,0 -37.281,-16.705 -37.281,-37.281c0,-20.576 16.705,-37.281 37.281,-37.281l3.026,0l0,-1.942c-0,-20.576 16.705,-37.281 37.281,-37.281c20.576,0 37.281,16.705 37.281,37.281l0,39.222c-0,20.59 -16.691,37.281 -37.281,37.281l-40.306,0Zm77.587,-233.388c0,20.576 -16.705,37.281 -37.281,37.281c-20.576,0 -37.281,-16.705 -37.281,-37.281l0,-78.445c0,-20.576 16.705,-37.281 37.281,-37.281c20.576,0 37.281,16.705 37.281,37.281l0,78.445Zm0,-235.333c0,20.576 -16.705,37.281 -37.281,37.281c-20.576,0 -37.281,-16.705 -37.281,-37.281l0,-78.444c0,-20.576 16.705,-37.281 37.281,-37.281c20.576,0 37.281,16.705 37.281,37.281l-0,78.444Zm0,-235.333c0,20.576 -16.705,37.281 -37.281,37.281c-20.576,0 -37.281,-16.705 -37.281,-37.281l0,-78.442c-0,-20.576 16.705,-37.281 37.281,-37.281c20.576,0 37.281,16.705 37.281,37.281l0,78.442Zm0,-235.329c0,20.576 -16.705,37.281 -37.281,37.281c-20.576,0 -37.281,-16.705 -37.281,-37.281l0,-78.443c0,-20.576 16.705,-37.281 37.281,-37.281c20.576,0 37.281,16.705 37.281,37.281l0,78.443Zm0,-235.33c0,20.576 -16.705,37.281 -37.281,37.281c-20.576,0 -37.281,-16.705 -37.281,-37.281l-0,-78.444c-0,-20.576 16.705,-37.281 37.281,-37.281c20.576,0 37.281,16.705 37.281,37.281l0,78.444Zm0,-235.333c0,20.576 -16.705,37.281 -37.281,37.281c-20.576,0 -37.281,-16.705 -37.281,-37.281l0,-78.443c0,-20.576 16.705,-37.281 37.281,-37.281c20.576,0 37.281,16.705 37.281,37.281l-0,78.443Zm0,-235.33c0,20.576 -16.705,37.281 -37.281,37.281c-20.576,0 -37.281,-16.705 -37.281,-37.281l0,-23.78l-19.019,-19.019c-14.549,-14.549 -14.549,-38.174 0,-52.723c14.549,-14.549 38.174,-14.549 52.723,0l29.938,29.938c6.991,6.991 10.919,16.474 10.919,26.361l0,39.222Zm-160.609,-215.273c14.549,14.549 14.549,38.174 0,52.723c-14.549,14.549 -38.174,14.549 -52.723,0l-59.876,-59.876c-14.549,-14.549 -14.549,-38.174 -0,-52.723c14.549,-14.549 38.174,-14.549 52.723,-0l59.876,59.876Zm-179.628,-179.628c14.549,14.549 14.549,38.174 -0,52.723c-14.549,14.549 -38.174,14.549 -52.723,0l-19.104,-19.103l-24.46,-0.135c-20.575,-0.113 -37.188,-16.91 -37.075,-37.485c0.113,-20.575 16.91,-37.188 37.485,-37.075l39.782,0.219c9.816,0.054 19.215,3.977 26.156,10.919l29.938,29.938Zm-255.002,-41.952c20.575,0.113 37.188,16.91 37.075,37.485c-0.113,20.575 -16.91,37.188 -37.485,37.075l-79.564,-0.438c-20.575,-0.113 -37.188,-16.91 -37.075,-37.485c0.113,-20.575 16.91,-37.188 37.485,-37.075l79.564,0.438Zm-238.69,-1.314c20.575,0.113 37.188,16.91 37.075,37.485c-0.113,20.575 -16.91,37.188 -37.485,37.075l-79.564,-0.438c-20.575,-0.113 -37.188,-16.91 -37.075,-37.485c0.113,-20.575 16.91,-37.188 37.485,-37.075l79.564,0.438Zm-238.69,-1.314c20.575,0.113 37.188,16.91 37.075,37.485c-0.113,20.575 -16.91,37.188 -37.485,37.075l-79.563,-0.438c-20.575,-0.113 -37.188,-16.91 -37.075,-37.485c0.113,-20.575 16.91,-37.188 37.485,-37.075l79.563,0.438Z" style="fill:#566b8d;"/><path d="M1312.673,39.563c0,-20.576 16.705,-37.281 37.281,-37.281c20.576,0 37.281,16.705 37.281,37.281l-0,51.431c-0,20.576 -16.705,37.281 -37.281,37.281c-20.576,0 -37.281,-16.705 -37.281,-37.281l0,-51.431Zm0,154.293c0,-20.576 16.705,-37.281 37.281,-37.281c20.576,0 37.281,16.705 37.281,37.281l0,102.862c0,20.576 -16.705,37.281 -37.281,37.281c-20.576,0 -37.281,-16.705 -37.281,-37.281l0,-102.862Zm0,205.723c0,-20.576 16.705,-37.281 37.281,-37.281c20.576,0 37.281,16.705 37.281,37.281l-0,14.15l15.489,-0c20.576,-0 37.281,16.705 37.281,37.281c0,20.576 -16.705,37.281 -37.281,37.281l-52.77,0c-20.59,-0 -37.281,-16.691 -37.281,-37.281l0,-51.431Zm195.59,88.712c-20.576,0 -37.281,-16.705 -37.281,-37.281c0,-20.576 16.705,-37.281 37.281,-37.281l105.539,0c20.576,0 37.281,16.705 37.281,37.281c0,20.576 -16.705,37.281 -37.281,37.281l-105.539,-0Zm211.078,0c-20.576,0 -37.281,-16.705 -37.281,-37.281c0,-20.576 16.705,-37.281 37.281,-37.281l52.77,0c20.576,-0 37.281,16.705 37.281,37.281c0,20.576 -16.705,37.281 -37.281,37.281l-52.77,0Z" style="fill:#566b8d;"/></g></svg>