<?xml version="1.0" encoding="UTF-8" standalone="no"?><!DOCTYPE svg PUBLIC "-//W3C//DTD SVG 1.1//EN" "http://www.w3.org/Graphics/SVG/1.1/DTD/svg11.dtd"><svg width="100%" height="100%" viewBox="0 0 2084 2084" version="1.1" xmlns="http://www.w3.org/2000/svg" xmlns:xlink="http://www.w3.org/1999/xlink" xml:space="preserve" xmlns:serif="http://www.serif.com/" style="fill-rule:evenodd;clip-rule:evenodd;stroke-linejoin:round;stroke-miterlimit:2;"><rect id="virtual-admin" x="0" y="0" width="2083.333" height="2083.333" style="fill:none;"/><g id="Virtual"><path id="Virtual1" serif:id="Virtual" d="M982.085,418.358c-34.342,3.245 -64.857,-22.002 -68.102,-56.344c-3.245,-34.342 22.002,-64.857 56.344,-68.102c23.483,-2.219 47.28,-3.354 71.34,-3.354c24.06,0 47.856,1.135 71.34,3.354c34.342,3.245 59.589,33.76 56.344,68.102c-3.245,34.342 -33.76,59.589 -68.102,56.344c-19.613,-1.853 -39.488,-2.8 -59.582,-2.8c-20.094,0 -39.969,0.947 -59.582,2.8Zm346.417,66.712c-30.642,-15.841 -42.659,-53.58 -26.818,-84.222c15.841,-30.642 53.58,-42.659 84.222,-26.818c42.537,21.99 82.709,47.926 120.03,77.323c27.098,21.345 31.768,60.674 10.423,87.772c-21.345,27.098 -60.674,31.768 -87.772,10.423c-31.12,-24.513 -64.616,-46.142 -100.085,-64.478Zm255.451,243.627c-17.283,-29.852 -7.079,-68.121 22.774,-85.404c29.852,-17.283 68.121,-7.079 85.404,22.774c23.742,41.009 43.718,84.464 59.457,129.892c11.292,32.594 -6.002,68.224 -38.596,79.516c-32.594,11.292 -68.224,-6.002 -79.516,-38.596c-13.108,-37.835 -29.748,-74.027 -49.522,-108.182Zm83.124,342.806c1.617,-34.457 30.905,-61.118 65.362,-59.501c34.457,1.617 61.118,30.905 59.501,65.362c-2.275,48.463 -9.155,95.73 -20.205,141.375c-8.116,33.526 -41.925,54.156 -75.451,46.039c-33.526,-8.116 -54.156,-41.925 -46.039,-75.451c9.209,-38.041 14.937,-77.435 16.833,-117.825Zm-115.401,333.231c20.038,-28.078 59.102,-34.605 87.18,-14.568c28.078,20.038 34.605,59.102 14.568,87.18c-27.728,38.853 -59.064,74.958 -93.518,107.822c-24.961,23.808 -64.555,22.873 -88.364,-2.088c-23.808,-24.961 -22.873,-64.555 2.088,-88.364c28.754,-27.426 54.906,-57.557 78.047,-89.982Zm-277.325,218.321c32.015,-12.842 68.433,2.725 81.275,34.74c12.842,32.015 -2.725,68.433 -34.74,81.275c-43.819,17.576 -89.672,31.143 -137.104,40.245c-33.877,6.501 -66.658,-15.725 -73.159,-49.601c-6.501,-33.877 15.725,-66.658 49.601,-73.159c39.482,-7.577 77.651,-18.869 114.126,-33.5Zm-351.241,33.5c33.877,6.501 56.102,39.282 49.602,73.159c-6.501,33.877 -39.282,56.102 -73.159,49.602c-47.432,-9.102 -93.284,-22.669 -137.103,-40.245c-32.015,-12.842 -47.582,-49.26 -34.74,-81.275c12.842,-32.015 49.26,-47.582 81.275,-34.74c36.475,14.631 74.643,25.923 114.125,33.5Zm-313.404,-161.838c24.961,23.808 25.896,63.403 2.088,88.364c-23.808,24.961 -63.403,25.896 -88.364,2.088c-34.454,-32.864 -65.791,-68.968 -93.518,-107.822c-20.038,-28.078 -13.51,-67.142 14.568,-87.18c28.078,-20.038 67.142,-13.51 87.18,14.568c23.14,32.425 49.293,62.556 78.047,89.982Zm-176.616,-305.388c8.116,33.526 -12.513,67.335 -46.039,75.451c-33.526,8.116 -67.335,-12.513 -75.451,-46.039c-11.05,-45.646 -17.93,-92.913 -20.205,-141.376c-1.617,-34.457 25.044,-63.744 59.501,-65.362c34.457,-1.617 63.744,25.044 65.362,59.501c1.896,40.39 7.624,79.784 16.833,117.826Zm16.768,-352.449c-11.292,32.594 -46.922,49.888 -79.516,38.596c-32.594,-11.292 -49.888,-46.922 -38.596,-79.516c15.738,-45.428 35.714,-88.884 59.457,-129.892c17.283,-29.852 55.552,-40.057 85.404,-22.774c29.852,17.283 40.057,55.552 22.774,85.404c-19.774,34.155 -36.414,70.347 -49.522,108.182Zm204.889,-287.331c-27.097,21.345 -66.427,16.675 -87.772,-10.423c-21.345,-27.097 -16.675,-66.427 10.423,-87.772c37.321,-29.398 77.493,-55.334 120.03,-77.324c30.642,-15.841 68.381,-3.824 84.222,26.818c15.841,30.642 3.824,68.381 -26.818,84.222c-35.469,18.337 -68.966,39.965 -100.085,64.479Z" style="fill:#566b8d;"/></g></svg>