<?xml version="1.0" encoding="UTF-8" standalone="no"?><!DOCTYPE svg PUBLIC "-//W3C//DTD SVG 1.1//EN" "http://www.w3.org/Graphics/SVG/1.1/DTD/svg11.dtd"><svg width="100%" height="100%" viewBox="0 0 2084 2084" version="1.1" xmlns="http://www.w3.org/2000/svg" xmlns:xlink="http://www.w3.org/1999/xlink" xml:space="preserve" xmlns:serif="http://www.serif.com/" style="fill-rule:evenodd;clip-rule:evenodd;stroke-linejoin:round;stroke-miterlimit:2;"><rect id="virtual-element" x="0" y="0" width="2083.333" height="2083.333" style="fill:none;"/><path d="M1938.79,254.16c-6.361,-19.568 4.361,-40.619 23.928,-46.98c19.568,-6.361 40.619,4.361 46.98,23.928c7.761,23.873 11.964,49.347 11.964,75.795l0,41.987c0,20.576 -16.705,37.281 -37.281,37.281c-20.576,0 -37.281,-16.705 -37.281,-37.281l0,-41.987c0,-18.403 -2.911,-36.131 -8.312,-52.743Zm8.312,220.688c0,-20.576 16.705,-37.281 37.281,-37.281c20.576,0 37.281,16.705 37.281,37.281l0,83.972c0,20.576 -16.705,37.281 -37.281,37.281c-20.576,0 -37.281,-16.705 -37.281,-37.281l0,-83.972Zm-0,209.933c0,-20.576 16.705,-37.281 37.281,-37.281c20.576,0 37.281,16.705 37.281,37.281l0,83.972c0,20.576 -16.705,37.281 -37.281,37.281c-20.576,0 -37.281,-16.705 -37.281,-37.281l0,-83.972Zm0,209.932c0,-20.576 16.705,-37.281 37.281,-37.281c20.576,0 37.281,16.705 37.281,37.281l0,83.973c0,20.576 -16.705,37.281 -37.281,37.281c-20.576,0 -37.281,-16.705 -37.281,-37.281l0,-83.973Zm0,209.935c0,-20.576 16.705,-37.281 37.281,-37.281c20.576,0 37.281,16.705 37.281,37.281l-0,83.973c-0,20.576 -16.705,37.281 -37.281,37.281c-20.576,0 -37.281,-16.705 -37.281,-37.281l0,-83.973Zm-0,209.931c0,-20.576 16.705,-37.281 37.281,-37.281c20.576,0 37.281,16.705 37.281,37.281l0,83.974c0,20.576 -16.705,37.281 -37.281,37.281c-20.576,0 -37.281,-16.705 -37.281,-37.281l0,-83.974Zm-0,209.933c0,-20.576 16.705,-37.281 37.281,-37.281c20.576,0 37.281,16.705 37.281,37.281l0,83.973c0,20.576 -16.705,37.281 -37.281,37.281c-20.576,0 -37.281,-16.705 -37.281,-37.281l-0,-83.973Zm0,209.93c0,-20.576 16.705,-37.281 37.281,-37.281c20.576,0 37.281,16.705 37.281,37.281l0,41.987c0,26.447 -4.203,51.921 -11.964,75.795c-6.361,19.568 -27.412,30.29 -46.98,23.928c-19.568,-6.361 -30.29,-27.412 -23.928,-46.98c5.4,-16.612 8.312,-34.34 8.312,-52.743l0,-41.987Zm-117.928,204.347c19.568,-6.361 40.619,4.361 46.98,23.928c6.361,19.568 -4.361,40.619 -23.928,46.98c-23.873,7.761 -49.347,11.964 -75.795,11.964l-41.987,0c-20.576,0 -37.281,-16.705 -37.281,-37.281c0,-20.576 16.705,-37.281 37.281,-37.281l41.987,0c18.403,0 36.131,-2.911 52.743,-8.312Zm-220.688,8.312c20.576,0 37.281,16.705 37.281,37.281c0,20.576 -16.705,37.281 -37.281,37.281l-83.972,0c-20.576,0 -37.281,-16.705 -37.281,-37.281c0,-20.576 16.705,-37.281 37.281,-37.281l83.972,0Zm-209.933,0c20.576,0 37.281,16.705 37.281,37.281c0,20.576 -16.705,37.281 -37.281,37.281l-83.972,0c-20.576,0 -37.281,-16.705 -37.281,-37.281c0,-20.576 16.705,-37.281 37.281,-37.281l83.972,0Zm-209.932,-0c20.576,0 37.281,16.705 37.281,37.281c0,20.576 -16.705,37.281 -37.281,37.281l-83.973,-0c-20.576,-0 -37.281,-16.705 -37.281,-37.281c0,-20.576 16.705,-37.281 37.281,-37.281l83.973,0Zm-209.935,0c20.576,0 37.281,16.705 37.281,37.281c0,20.576 -16.705,37.281 -37.281,37.281l-83.973,0c-20.576,0 -37.281,-16.705 -37.281,-37.281c-0,-20.576 16.705,-37.281 37.281,-37.281l83.973,-0Zm-209.931,0c20.576,0 37.281,16.705 37.281,37.281c0,20.576 -16.705,37.281 -37.281,37.281l-83.974,-0c-20.576,-0 -37.281,-16.705 -37.281,-37.281c0,-20.576 16.705,-37.281 37.281,-37.281l83.974,0Zm-209.933,0c20.576,0 37.281,16.705 37.281,37.281c0,20.576 -16.705,37.281 -37.281,37.281l-83.973,-0c-20.576,0 -37.281,-16.705 -37.281,-37.281c0,-20.576 16.705,-37.281 37.281,-37.281l83.973,0Zm-209.93,0c20.576,0 37.281,16.705 37.281,37.281c0,20.576 -16.705,37.281 -37.281,37.281l-41.987,0c-26.447,0 -51.921,-4.203 -75.795,-11.964c-19.568,-6.361 -30.29,-27.412 -23.928,-46.98c6.361,-19.568 27.412,-30.29 46.98,-23.928c16.612,5.4 34.34,8.312 52.743,8.312l41.987,0Zm-204.347,-117.928c6.361,19.568 -4.361,40.619 -23.928,46.98c-19.568,6.361 -40.619,-4.361 -46.98,-23.928c-7.761,-23.873 -11.964,-49.347 -11.964,-75.795l-0,-41.987c-0,-20.576 16.705,-37.281 37.281,-37.281c20.576,0 37.281,16.705 37.281,37.281l0,41.987c0,18.403 2.911,36.131 8.312,52.743Zm-8.312,-220.688c0,20.576 -16.705,37.281 -37.281,37.281c-20.576,0 -37.281,-16.705 -37.281,-37.281l0,-83.972c0,-20.576 16.705,-37.281 37.281,-37.281c20.576,0 37.281,16.705 37.281,37.281l0,83.972Zm0,-209.933c-0,20.576 -16.705,37.281 -37.281,37.281c-20.576,0 -37.281,-16.705 -37.281,-37.281l0,-83.972c0,-20.576 16.705,-37.281 37.281,-37.281c20.576,0 37.281,16.705 37.281,37.281l0,83.972Zm0,-209.932c0,20.576 -16.705,37.281 -37.281,37.281c-20.576,0 -37.281,-16.705 -37.281,-37.281l0,-83.973c0,-20.576 16.705,-37.281 37.281,-37.281c20.576,0 37.281,16.705 37.281,37.281l0,83.973Zm-0,-209.935c0,20.576 -16.705,37.281 -37.281,37.281c-20.576,0 -37.281,-16.705 -37.281,-37.281l0,-83.973c0,-20.576 16.705,-37.281 37.281,-37.281c20.576,0 37.281,16.705 37.281,37.281l0,83.973Zm0,-209.931c0,20.576 -16.705,37.281 -37.281,37.281c-20.576,0 -37.281,-16.705 -37.281,-37.281l0,-83.974c0,-20.576 16.705,-37.281 37.281,-37.281c20.576,0 37.281,16.705 37.281,37.281l0,83.974Zm0,-209.933c0,20.576 -16.705,37.281 -37.281,37.281c-20.576,0 -37.281,-16.705 -37.281,-37.281l0,-83.973c0,-20.576 16.705,-37.281 37.281,-37.281c20.576,0 37.281,16.705 37.281,37.281l0,83.973Zm0,-209.93c-0,20.576 -16.705,37.281 -37.281,37.281c-20.576,0 -37.281,-16.705 -37.281,-37.281l0,-41.987c0,-26.447 4.203,-51.921 11.964,-75.795c6.361,-19.568 27.412,-30.29 46.98,-23.928c19.568,6.361 30.29,27.412 23.928,46.98c-5.4,16.612 -8.312,34.34 -8.312,52.743l0,41.987Zm117.928,-204.347c-19.568,6.361 -40.619,-4.361 -46.98,-23.928c-6.361,-19.568 4.361,-40.619 23.928,-46.98c23.873,-7.761 49.347,-11.964 75.795,-11.964l41.987,-0c20.576,-0 37.281,16.705 37.281,37.281c0,20.576 -16.705,37.281 -37.281,37.281l-41.987,0c-18.403,0 -36.131,2.911 -52.743,8.312Zm220.688,-8.312c-20.576,0 -37.281,-16.705 -37.281,-37.281c0,-20.576 16.705,-37.281 37.281,-37.281l83.972,0c20.576,0 37.281,16.705 37.281,37.281c0,20.576 -16.705,37.281 -37.281,37.281l-83.972,0Zm209.933,0c-20.576,0 -37.281,-16.705 -37.281,-37.281c0,-20.576 16.705,-37.281 37.281,-37.281l83.972,0c20.576,0 37.281,16.705 37.281,37.281c-0,20.576 -16.705,37.281 -37.281,37.281l-83.972,0Zm209.932,0c-20.576,0 -37.281,-16.705 -37.281,-37.281c0,-20.576 16.705,-37.281 37.281,-37.281l83.973,0c20.576,0 37.281,16.705 37.281,37.281c0,20.576 -16.705,37.281 -37.281,37.281l-83.973,0Zm209.935,0c-20.576,0 -37.281,-16.705 -37.281,-37.281c0,-20.576 16.705,-37.281 37.281,-37.281l83.973,0c20.576,-0 37.281,16.705 37.281,37.281c0,20.576 -16.705,37.281 -37.281,37.281l-83.973,0Zm209.931,0c-20.576,0 -37.281,-16.705 -37.281,-37.281c0,-20.576 16.705,-37.281 37.281,-37.281l83.974,-0c20.576,-0 37.281,16.705 37.281,37.281c0,20.576 -16.705,37.281 -37.281,37.281l-83.974,0Zm209.933,-0c-20.576,0 -37.281,-16.705 -37.281,-37.281c0,-20.576 16.705,-37.281 37.281,-37.281l83.973,0c20.576,-0 37.281,16.705 37.281,37.281c0,20.576 -16.705,37.281 -37.281,37.281l-83.973,0Zm209.93,0c-20.576,0 -37.281,-16.705 -37.281,-37.281c0,-20.576 16.705,-37.281 37.281,-37.281l41.987,0c26.447,0 51.921,4.203 75.795,11.964c19.568,6.361 30.29,27.412 23.928,46.98c-6.361,19.568 -27.412,30.29 -46.98,23.928c-16.612,-5.4 -34.34,-8.312 -52.743,-8.312l-41.987,0Z" style="fill:#566b8d;"/></svg>