<?xml version="1.0" encoding="UTF-8" standalone="no"?><!DOCTYPE svg PUBLIC "-//W3C//DTD SVG 1.1//EN" "http://www.w3.org/Graphics/SVG/1.1/DTD/svg11.dtd"><svg width="100%" height="100%" viewBox="0 0 2084 2084" version="1.1" xmlns="http://www.w3.org/2000/svg" xmlns:xlink="http://www.w3.org/1999/xlink" xml:space="preserve" xmlns:serif="http://www.serif.com/" style="fill-rule:evenodd;clip-rule:evenodd;stroke-linejoin:round;stroke-miterlimit:2;"><rect id="wordlist-element" x="0" y="0" width="2083.333" height="2083.333" style="fill:none;"/><g id="element"><path d="M1784.418,140.539c87.221,0 158.375,71.153 158.375,158.375l0,1485.504c0,87.221 -71.153,158.375 -158.375,158.375l-1485.504,0c-87.221,0 -158.375,-71.153 -158.375,-158.375l0,-1485.504c0,-87.221 71.153,-158.375 158.375,-158.375l1485.504,0m0,-78.039l-1485.504,0c-130.831,0 -236.414,106.042 -236.414,236.414l-0,1485.504c0,130.831 106.042,236.415 236.414,236.415l1485.504,0c130.831,0 236.415,-106.042 236.415,-236.415l0,-1485.504c0,-130.831 -105.584,-236.414 -236.415,-236.414Z" style="fill:#566b8d;fill-rule:nonzero;"/></g><g id="Wordlist"><g><rect x="804.481" y="551.904" width="987.186" height="54.033" style="fill:#566b8d;"/><rect x="973.922" y="763.179" width="817.744" height="54.033" style="fill:#566b8d;"/><rect x="1041.667" y="657.541" width="750" height="54.033" style="fill:#566b8d;"/><rect x="1041.667" y="868.817" width="750" height="54.033" style="fill:#566b8d;"/><rect x="874.595" y="974.455" width="917.072" height="54.033" style="fill:#566b8d;"/><g transform="matrix(433.555185,0,0,433.555185,620.643599,853.995072)"></g><text x="283.41px" y="853.995px" style="font-family:'BookAntiqua', 'Book Antiqua', serif;font-size:433.555px;fill:#566b8d;">A</text><rect x="291.667" y="506.481" width="1500" height="24.117" style="fill:#566b8d;"/></g><g><rect x="874.595" y="1205.906" width="917.072" height="54.033" style="fill:#566b8d;"/><rect x="950.551" y="1417.182" width="841.115" height="54.033" style="fill:#566b8d;"/><rect x="804.481" y="1311.544" width="987.186" height="54.033" style="fill:#566b8d;"/><rect x="874.595" y="1522.82" width="917.072" height="54.033" style="fill:#566b8d;"/><g transform="matrix(433.555185,0,0,433.555185,548.24327,1507.997846)"></g><text x="283.41px" y="1507.998px" style="font-family:'BookAntiqua', 'Book Antiqua', serif;font-size:433.555px;fill:#566b8d;">B</text><rect x="291.667" y="1162.177" width="1500" height="24.117" style="fill:#566b8d;"/></g></g></svg>