<?xml version="1.0" encoding="UTF-8" standalone="no"?><!DOCTYPE svg PUBLIC "-//W3C//DTD SVG 1.1//EN" "http://www.w3.org/Graphics/SVG/1.1/DTD/svg11.dtd"><svg width="100%" height="100%" viewBox="0 0 2084 2084" version="1.1" xmlns="http://www.w3.org/2000/svg" xmlns:xlink="http://www.w3.org/1999/xlink" xml:space="preserve" xmlns:serif="http://www.serif.com/" style="fill-rule:evenodd;clip-rule:evenodd;stroke-linejoin:round;stroke-miterlimit:2;"><rect id="wordlist-admin" x="0" y="0" width="2083.333" height="2083.333" style="fill:none;"/><g id="Wordlist"><g><rect x="745.184" y="429.463" width="1233.982" height="67.541" style="fill:#566b8d;"/><rect x="956.986" y="693.557" width="1022.18" height="67.541" style="fill:#566b8d;"/><rect x="1041.667" y="561.51" width="937.5" height="67.541" style="fill:#566b8d;"/><rect x="1041.667" y="825.605" width="937.5" height="67.541" style="fill:#566b8d;"/><rect x="832.827" y="957.652" width="1146.34" height="67.541" style="fill:#566b8d;"/><g transform="matrix(541.943981,0,0,541.943981,515.387832,807.077173)"></g><text x="93.846px" y="807.077px" style="font-family:'BookAntiqua', 'Book Antiqua', serif;font-size:541.944px;fill:#566b8d;">A</text><rect x="104.167" y="372.684" width="1875" height="30.147" style="fill:#566b8d;"/></g><g><rect x="832.827" y="1246.966" width="1146.34" height="67.541" style="fill:#566b8d;"/><rect x="927.772" y="1511.061" width="1051.394" height="67.541" style="fill:#566b8d;"/><rect x="745.184" y="1379.014" width="1233.982" height="67.541" style="fill:#566b8d;"/><rect x="832.827" y="1643.108" width="1146.34" height="67.541" style="fill:#566b8d;"/><g transform="matrix(541.943981,0,0,541.943981,424.887421,1624.58064)"></g><text x="93.846px" y="1624.581px" style="font-family:'BookAntiqua', 'Book Antiqua', serif;font-size:541.944px;fill:#566b8d;">B</text><rect x="104.167" y="1192.305" width="1875" height="30.147" style="fill:#566b8d;"/></g></g></svg>